<svg width="63" height="63" viewBox="0 0 63 63" fill="none" xmlns="http://www.w3.org/2000/svg">
<rect width="63" height="63" rx="10" fill="#DAE1FE"/>
<path d="M6.65094 38.458C6.43396 38.458 6.43396 38.458 6.21698 38.2349C6.21698 38.2349 6 38.0117 6 37.7885C6 37.5654 6 37.5654 6.21698 37.3422C6.43396 37.119 6.65094 37.119 6.86792 37.3422C6.86792 37.3422 7.0849 37.5654 7.0849 37.7885C7.0849 38.0117 7.0849 38.0117 6.86792 38.2349C6.86792 38.458 6.65094 38.458 6.65094 38.458Z" fill="#1E1E1E"/>
<path d="M17.9322 38.458C17.7152 38.458 17.7152 38.458 17.4982 38.2349C17.4982 38.2349 17.2813 38.0117 17.2813 37.7885C17.2813 37.5654 17.2812 37.5654 17.4982 37.3422C17.7152 37.119 17.9322 37.119 18.1492 37.3422C18.1492 37.3422 18.3661 37.5654 18.3661 37.7885C18.3661 38.0117 18.3661 38.0117 18.1492 38.2349C18.1492 38.458 17.9322 38.458 17.9322 38.458Z" fill="#1E1E1E"/>
<path d="M40.2837 38.458C40.0668 38.458 40.0668 38.458 39.8498 38.2349C39.8498 38.2349 39.6328 38.0117 39.6328 37.7885C39.6328 37.5654 39.6328 37.5654 39.8498 37.3422C40.0668 37.119 40.2837 37.119 40.5007 37.3422C40.5007 37.3422 40.7177 37.5654 40.7177 37.7885C40.7177 38.0117 40.7177 38.0117 40.5007 38.2349C40.5007 38.458 40.5007 38.458 40.2837 38.458Z" fill="#1E1E1E"/>
<path d="M51.567 38.458C51.35 38.458 51.35 38.458 51.133 38.2349C51.133 38.2349 50.916 38.0117 50.916 37.7885C50.916 37.5654 50.916 37.5654 51.133 37.3422C51.35 37.119 51.567 37.119 51.7839 37.3422C51.7839 37.3422 52.0009 37.5654 52.0009 37.7885C52.0009 38.0117 52.0009 38.0117 51.7839 38.2349C51.7839 38.458 51.7839 38.458 51.567 38.458Z" fill="#1E1E1E"/>
<path d="M6.65094 45.1543C6.43396 45.1543 6.43396 45.1543 6.21698 44.9312C6.21698 44.9312 6 44.708 6 44.4848C6 44.2616 6 44.2616 6.21698 44.0385C6.43396 43.8153 6.65094 43.8153 6.86792 44.0385C6.86792 44.0385 7.0849 44.2616 7.0849 44.4848C7.0849 44.708 7.0849 44.708 6.86792 44.9312C6.86792 45.1543 6.65094 45.1543 6.65094 45.1543Z" fill="#1E1E1E"/>
<path d="M17.9322 45.1543C17.7152 45.1543 17.7152 45.1543 17.4982 44.9312C17.4982 44.9312 17.2813 44.708 17.2813 44.4848C17.2813 44.2616 17.2812 44.2616 17.4982 44.0385C17.7152 43.8153 17.9322 43.8153 18.1492 44.0385C18.1492 44.0385 18.3661 44.2616 18.3661 44.4848C18.3661 44.708 18.3661 44.708 18.1492 44.9312C18.1492 45.1543 17.9322 45.1543 17.9322 45.1543Z" fill="#1E1E1E"/>
<path d="M40.2837 45.1543C40.0668 45.1543 40.0668 45.1543 39.8498 44.9312C39.8498 44.9312 39.6328 44.708 39.6328 44.4848C39.6328 44.2616 39.6328 44.2616 39.8498 44.0385C40.0668 43.8153 40.2837 43.8153 40.5007 44.0385C40.5007 44.0385 40.7177 44.2616 40.7177 44.4848C40.7177 44.708 40.7177 44.708 40.5007 44.9312C40.5007 45.1543 40.5007 45.1543 40.2837 45.1543Z" fill="#1E1E1E"/>
<path d="M51.567 45.1543C51.35 45.1543 51.35 45.1543 51.133 44.9312C51.133 44.9312 50.916 44.708 50.916 44.4848C50.916 44.2616 50.916 44.2616 51.133 44.0385C51.35 43.8153 51.567 43.8153 51.7839 44.0385C51.7839 44.0385 52.0009 44.2616 52.0009 44.4848C52.0009 44.708 52.0009 44.708 51.7839 44.9312C51.7839 45.1543 51.7839 45.1543 51.567 45.1543Z" fill="#1E1E1E"/>
<path d="M12.2916 41.8067C12.0746 41.8067 12.0746 41.8067 11.8576 41.5835C11.8576 41.5835 11.6406 41.3603 11.6406 41.1372C11.6406 40.914 11.6406 40.914 11.8576 40.6908C12.0746 40.4676 12.2916 40.4676 12.5085 40.6908C12.5085 40.6908 12.7255 40.914 12.7255 41.1372C12.7255 41.3603 12.7255 41.3603 12.5085 41.5835C12.5085 41.8067 12.2916 41.8067 12.2916 41.8067Z" fill="#1E1E1E"/>
<path d="M45.9244 41.8067C45.7074 41.8067 45.7074 41.8067 45.4904 41.5835C45.4904 41.5835 45.2734 41.3603 45.2734 41.1372C45.2734 40.914 45.2734 40.914 45.4904 40.6908C45.7074 40.4676 45.9244 40.4676 46.1414 40.6908C46.1414 40.6908 46.3583 40.914 46.3583 41.1372C46.3583 41.3603 46.3583 41.3603 46.1414 41.5835C46.1414 41.8067 46.1414 41.8067 45.9244 41.8067Z" fill="#1E1E1E"/>
<path d="M12.2916 48.501C12.0746 48.501 12.0746 48.501 11.8576 48.2778C11.8576 48.2778 11.6406 48.0547 11.6406 47.8315C11.6406 47.6083 11.6406 47.6083 11.8576 47.3852C12.0746 47.162 12.2916 47.162 12.5085 47.3852C12.5085 47.3852 12.7255 47.6083 12.7255 47.8315C12.7255 48.0547 12.7255 48.0547 12.5085 48.2778C12.5085 48.501 12.2916 48.501 12.2916 48.501Z" fill="#1E1E1E"/>
<path d="M23.358 48.501C23.141 48.501 23.141 48.501 22.924 48.2778C22.924 48.2778 22.707 48.0547 22.707 47.8315C22.707 47.6083 22.707 47.6083 22.924 47.3852C23.141 47.162 23.358 47.162 23.5749 47.3852C23.5749 47.3852 23.7919 47.6083 23.7919 47.8315C23.7919 48.0547 23.7919 48.0547 23.5749 48.2778C23.7919 48.501 23.5749 48.501 23.358 48.501Z" fill="#1E1E1E"/>
<path d="M34.6392 48.501C34.4222 48.501 34.4222 48.501 34.2053 48.2778C34.2053 48.2778 33.9883 48.0547 33.9883 47.8315C33.9883 47.6083 33.9883 47.6083 34.2053 47.3852C34.4222 47.162 34.6392 47.162 34.8562 47.3852C34.8562 47.3852 35.0732 47.6083 35.0732 47.8315C35.0732 48.0547 35.0732 48.0547 34.8562 48.2778C34.8562 48.501 34.8562 48.501 34.6392 48.501Z" fill="#1E1E1E"/>
<path d="M45.9244 48.501C45.7074 48.501 45.7074 48.501 45.4904 48.2778C45.4904 48.2778 45.2734 48.0547 45.2734 47.8315C45.2734 47.6083 45.2734 47.6083 45.4904 47.3852C45.7074 47.162 45.9244 47.162 46.1414 47.3852C46.1414 47.3852 46.3583 47.6083 46.3583 47.8315C46.3583 48.0547 46.3583 48.0547 46.1414 48.2778C46.1414 48.501 46.1414 48.501 45.9244 48.501Z" fill="#1E1E1E"/>
<path d="M45.9261 52.9652C44.4073 52.9652 43.5393 52.2957 42.8884 51.8494C42.2375 51.403 41.5865 50.9567 40.2847 50.9567C38.9828 50.9567 38.5488 51.403 37.6809 51.8494C37.03 52.5189 36.162 52.9652 34.6432 52.9652C33.1243 52.9652 32.2564 52.2957 31.6055 51.8494C30.9546 51.403 30.3036 50.9567 29.0017 50.9567C27.6999 50.9567 27.2659 51.403 26.398 51.8494C25.7471 52.5189 24.8791 52.9652 23.3603 52.9652C21.8414 52.9652 20.9735 52.2957 20.3226 51.8494C19.6716 51.403 19.0207 50.9567 17.7188 50.9567C17.0679 50.9567 16.417 51.1799 15.983 51.403C15.766 51.6262 15.549 51.403 15.3321 51.1799C15.1151 50.9567 15.3321 50.7335 15.549 50.5103C16.2 50.064 16.8509 49.8408 17.7188 49.8408C19.2377 49.8408 20.1056 50.5103 20.7565 50.9567C21.4075 51.403 22.0584 51.8494 23.3603 51.8494C24.6622 51.8494 25.0961 51.403 25.964 50.9567C26.615 50.2872 27.4829 49.8408 29.0017 49.8408C30.5206 49.8408 31.3885 50.5103 32.0394 50.9567C32.6904 51.403 33.3413 51.8494 34.6432 51.8494C35.9451 51.8494 36.379 51.403 37.2469 50.9567C37.8979 50.2872 38.7658 49.8408 40.2847 49.8408C41.8035 49.8408 42.6714 50.5103 43.3224 50.9567C43.9733 51.403 44.6242 51.8494 45.9261 51.8494C47.228 51.8494 47.6619 51.403 48.5299 50.9567C49.1808 50.2872 50.0487 49.8408 51.5676 49.8408C51.7845 49.8408 52.0015 50.064 52.0015 50.2872C52.0015 50.5103 51.7845 50.7335 51.5676 50.7335C50.2657 50.7335 49.8317 51.1799 48.9638 51.6262C48.3129 52.2957 47.445 52.9652 45.9261 52.9652Z" fill="#1E1E1E"/>
<path d="M12.2922 52.9637C10.7734 52.9637 9.90544 52.2942 9.2545 51.8479C8.60357 51.4015 7.95263 50.9552 6.65076 50.9552C6.43378 50.9552 6.2168 50.732 6.2168 50.5088C6.2168 50.2857 6.43378 50.0625 6.65076 50.0625C8.16961 50.0625 9.03752 50.732 9.68846 51.1784C10.3394 51.6247 10.9903 52.071 12.2922 52.071C13.1601 52.071 13.8111 51.8479 14.028 51.6247C14.245 51.4015 14.462 51.6247 14.679 51.8479C14.896 52.071 14.679 52.2942 14.462 52.5174C13.8111 52.7406 13.1601 52.9637 12.2922 52.9637Z" fill="#1E1E1E"/>
<path d="M45.9243 36.2264C44.4054 36.2264 43.5375 35.5569 42.8866 35.1106C42.2356 34.6642 41.5847 34.2179 40.2828 34.2179C38.9809 34.2179 38.547 34.6642 37.6791 35.1106C37.0281 35.7801 36.1602 36.2264 34.6414 36.2264C34.4244 36.2264 34.4244 36.2264 34.2074 36.2264C33.9904 36.2264 33.7734 36.0033 33.7734 35.7801C33.7734 35.5569 33.9904 35.3337 34.2074 35.3337H34.4244C35.7263 35.3337 36.1602 34.8874 37.0281 34.4411C37.6791 33.9947 38.547 33.3252 40.0658 33.3252C41.5847 33.3252 42.4526 33.9947 43.1035 34.4411C43.7545 34.8874 44.4054 35.3337 45.7073 35.3337C47.0092 35.3337 47.4431 34.8874 48.311 34.4411C48.962 33.9947 49.8299 33.3252 51.3487 33.3252C51.5657 33.3252 51.7827 33.5484 51.7827 33.7715C51.7827 33.9947 51.5657 34.2179 51.3487 34.2179C50.0469 34.2179 49.6129 34.6642 48.745 35.1106C48.311 35.5569 47.4431 36.2264 45.9243 36.2264Z" fill="#1E1E1E"/>
<path d="M23.3583 36.2264C21.8395 36.2264 20.9715 35.5569 20.3206 35.1106C19.6697 34.6642 19.0187 34.2179 17.7169 34.2179C16.415 34.2179 15.981 34.6642 15.1131 35.1106C14.4622 35.7801 13.5943 36.2264 12.0754 36.2264C10.5566 36.2264 9.68864 35.5569 9.03771 35.1106C8.38677 34.6642 7.73583 34.2179 6.43396 34.2179C6.21698 34.2179 6 33.9947 6 33.7715C6 33.5484 6.21698 33.3252 6.43396 33.3252C7.95281 33.3252 8.82073 33.9947 9.47166 34.4411C10.1226 34.8874 10.7735 35.3337 12.0754 35.3337C13.3773 35.3337 13.8112 34.8874 14.6792 34.4411C15.3301 33.9947 16.198 33.3252 17.7169 33.3252C19.2357 33.3252 20.1036 33.9947 20.7546 34.4411C21.4055 34.8874 22.0564 35.3337 23.3583 35.3337H23.5753C23.7923 35.3337 24.0093 35.5569 24.0093 35.7801C24.0093 36.0033 23.7923 36.2264 23.5753 36.2264C23.7923 36.2264 23.5753 36.2264 23.3583 36.2264Z" fill="#1E1E1E"/>
<path d="M28.9996 46.4919C26.1789 46.4919 23.7921 44.037 23.7921 40.9126C23.7921 40.4662 23.7921 39.7967 24.66 36.8955C24.877 36.226 25.094 35.7796 25.311 35.1101C25.5279 34.2174 25.9619 33.1015 26.1789 32.2089C26.3958 31.7625 26.1789 31.093 25.9619 30.8698C25.7449 30.4235 25.094 30.2003 24.66 30.2003H6.65076C6.43378 30.2003 6.2168 29.9771 6.2168 29.754C6.2168 29.5308 6.43378 29.3076 6.65076 29.3076H24.66C25.5279 29.3076 26.1789 29.754 26.6128 30.4235C27.0468 31.093 27.2638 31.9857 27.0468 32.6552C26.8298 33.7711 26.3958 34.6638 26.1789 35.7796C25.9619 36.4491 25.7449 36.8955 25.5279 37.565C24.66 40.2431 24.66 40.9126 24.66 41.3589C24.66 44.037 26.6128 46.0455 28.7826 46.0455C31.1694 46.0455 32.9052 44.037 32.9052 41.3589C32.9052 40.9126 32.9052 40.2431 32.0373 37.565C31.8203 36.8955 31.6033 36.4491 31.3864 35.7796C31.1694 34.8869 30.7354 33.7711 30.5184 32.6552C30.3015 31.7625 30.5184 31.093 30.9524 30.4235C31.3864 29.754 32.2543 29.3076 32.9052 29.3076H50.9145C51.1315 29.3076 51.3484 29.5308 51.3484 29.754C51.3484 29.9771 51.1315 30.2003 50.9145 30.2003H32.9052C32.4713 30.2003 32.0373 30.4235 31.6033 30.8698C31.3864 31.3162 31.1694 31.7625 31.3864 32.2089C31.6033 33.1015 32.0373 34.2174 32.2543 35.1101C32.4713 35.7796 32.6882 36.226 32.9052 36.8955C33.7731 39.7967 33.7731 40.4662 33.7731 40.9126C34.2071 44.037 32.0373 46.4919 28.9996 46.4919Z" fill="#1E1E1E"/>
<path d="M28.9983 43.8149C27.4794 43.8149 26.3945 42.4758 26.3945 40.9136C26.3945 40.4673 26.6115 39.5746 27.0455 38.6819C27.2624 38.0124 27.4794 37.3429 27.6964 36.8965C27.6964 36.6734 28.1304 36.4502 28.3473 36.6733C28.5643 36.6733 28.7813 37.1197 28.5643 37.3429C28.3473 38.0124 28.1304 38.6819 27.9134 39.3514C27.6964 40.2441 27.2624 40.9136 27.2624 41.36C27.2624 42.4758 27.9134 43.3685 28.9983 43.3685C29.8662 43.3685 30.7341 42.4758 30.7341 41.36C30.7341 41.36 30.7341 40.6904 29.8662 38.2356C28.5643 33.7721 28.1304 29.0855 28.7813 24.3989C29.4322 19.0427 31.385 13.6866 34.2058 9.22317C34.4228 9 34.6397 9 34.8567 9C35.0737 9.22317 35.0737 9.44634 35.0737 9.66952C32.253 14.133 30.3002 19.0427 29.6492 24.3989C29.2153 28.8623 29.4322 33.5489 30.7341 37.7892C31.385 40.2441 31.602 40.9136 31.602 41.1368C31.602 42.699 30.5171 43.8149 28.9983 43.8149Z" fill="#1E1E1E"/>
<path d="M29.2154 24.623C28.9984 24.623 28.7814 24.3998 28.7814 24.1766C28.7814 23.7303 27.9135 15.9193 29.2154 9.89361C29.2154 9.67044 29.4324 9.44727 29.8663 9.44727C30.0833 9.44727 30.3003 9.67044 30.3003 10.1168C28.9984 15.9193 29.8663 23.9535 29.8663 23.9535C29.6494 24.3998 29.6494 24.623 29.2154 24.623Z" fill="#1E1E1E"/>
</svg>
