<svg width="353" height="254" viewBox="0 0 353 254" fill="none" xmlns="http://www.w3.org/2000/svg">
<path d="M343.645 247V49C125.468 75.0751 29.4045 191.865 8.64453 247H343.645Z" fill="url(#paint0_linear_161_3607)" fill-opacity="0.4"/>
<path d="M176.645 58V253.953" stroke="#C0C0C0" stroke-width="0.916382" stroke-dasharray="1.83 1.83"/>
<rect y="240.681" width="12.8294" height="12.8294" fill="#79CB18"/>
<path d="M176.645 96C77.0445 136.298 23.8112 205.062 9.64453 234.406V249H176.645V96Z" fill="url(#paint1_linear_161_3607)"/>
<path d="M343.645 47.5C235.645 68.5 232.645 72 176.645 94V247H343.645V47.5Z" fill="url(#paint2_linear_161_3607)"/>
<path d="M8.64453 244C27.0614 200.446 108.655 80.4812 343.645 49" stroke="#79CB18" stroke-width="4.58191"/>
<circle cx="98.6445" cy="140" r="18" fill="#79CB18" fill-opacity="0.5"/>
<circle cx="266.645" cy="67" r="18" fill="#79CB18" fill-opacity="0.5"/>
<circle cx="98.6445" cy="140" r="12" fill="#79CB18"/>
<circle cx="266.645" cy="67" r="12" fill="#17AE14"/>
<g filter="url(#filter0_dd_161_3607)">
<rect x="43" y="67" width="112" height="34" rx="8" fill="#79CB18"/>
<path d="M56.2963 88V79.2727H57.8773V82.9673H61.9213V79.2727H63.5066V88H61.9213V84.2926H57.8773V88H56.2963ZM68.0556 88.1278C67.3993 88.1278 66.8326 87.9915 66.3553 87.7188C65.8809 87.4432 65.5158 87.054 65.2601 86.5511C65.0044 86.0455 64.8766 85.4503 64.8766 84.7656C64.8766 84.0923 65.0044 83.5014 65.2601 82.9929C65.5186 82.4815 65.8794 82.0838 66.3425 81.7997C66.8056 81.5128 67.3496 81.3693 67.9746 81.3693C68.378 81.3693 68.7587 81.4347 69.1167 81.5653C69.4775 81.6932 69.7956 81.892 70.0712 82.1619C70.3496 82.4318 70.5684 82.7756 70.7275 83.1932C70.8865 83.608 70.9661 84.1023 70.9661 84.6761V85.1491H65.601V84.1094H69.4874C69.4846 83.8139 69.4206 83.5511 69.2956 83.321C69.1706 83.0881 68.9959 82.9048 68.7715 82.7713C68.5499 82.6378 68.2914 82.571 67.9959 82.571C67.6806 82.571 67.4036 82.6477 67.165 82.8011C66.9263 82.9517 66.7402 83.1506 66.6067 83.3977C66.476 83.642 66.4093 83.9105 66.4064 84.2031V85.1108C66.4064 85.4915 66.476 85.8182 66.6152 86.0909C66.7544 86.3608 66.949 86.5682 67.199 86.7131C67.449 86.8551 67.7417 86.9261 68.0769 86.9261C68.3013 86.9261 68.5044 86.8949 68.6863 86.8324C68.8681 86.767 69.0257 86.6719 69.1593 86.5469C69.2928 86.4219 69.3936 86.267 69.4618 86.0824L70.9022 86.2443C70.8113 86.625 70.638 86.9574 70.3823 87.2415C70.1294 87.5227 69.8056 87.7415 69.4107 87.8977C69.0158 88.0511 68.5641 88.1278 68.0556 88.1278ZM74.1547 88.1321C73.7399 88.1321 73.3663 88.0582 73.0339 87.9105C72.7044 87.7599 72.443 87.5384 72.2498 87.2457C72.0595 86.9531 71.9643 86.5923 71.9643 86.1634C71.9643 85.794 72.0325 85.4886 72.1689 85.2472C72.3052 85.0057 72.4913 84.8125 72.7271 84.6676C72.9629 84.5227 73.2285 84.4134 73.524 84.3395C73.8223 84.2628 74.1305 84.2074 74.4487 84.1733C74.8322 84.1335 75.1433 84.098 75.3819 84.0668C75.6206 84.0327 75.7939 83.9815 75.9018 83.9134C76.0126 83.8423 76.068 83.733 76.068 83.5852V83.5597C76.068 83.2386 75.9728 82.9901 75.7825 82.8139C75.5922 82.6378 75.318 82.5497 74.96 82.5497C74.5822 82.5497 74.2825 82.6321 74.0609 82.7969C73.8422 82.9616 73.6944 83.1562 73.6177 83.3807L72.1774 83.1761C72.291 82.7784 72.4785 82.446 72.7399 82.179C73.0012 81.9091 73.3208 81.7074 73.6987 81.5739C74.0765 81.4375 74.4941 81.3693 74.9515 81.3693C75.2669 81.3693 75.5808 81.4062 75.8933 81.4801C76.2058 81.554 76.4913 81.6761 76.7498 81.8466C77.0083 82.0142 77.2157 82.2429 77.372 82.5327C77.5311 82.8224 77.6106 83.1847 77.6106 83.6193V88H76.1277V87.1009H76.0765C75.9828 87.2827 75.8507 87.4531 75.6802 87.6122C75.5126 87.7685 75.301 87.8949 75.0453 87.9915C74.7924 88.0852 74.4956 88.1321 74.1547 88.1321ZM74.5552 86.9986C74.8649 86.9986 75.1333 86.9375 75.3606 86.8153C75.5879 86.6903 75.7626 86.5256 75.8848 86.321C76.0098 86.1165 76.0723 85.8935 76.0723 85.652V84.8807C76.024 84.9205 75.9416 84.9574 75.8251 84.9915C75.7115 85.0256 75.5836 85.0554 75.4416 85.081C75.2995 85.1065 75.1589 85.1293 75.0197 85.1491C74.8805 85.169 74.7598 85.1861 74.6575 85.2003C74.4274 85.2315 74.2214 85.2827 74.0396 85.3537C73.8578 85.4247 73.7143 85.5241 73.6092 85.652C73.5041 85.777 73.4515 85.9389 73.4515 86.1378C73.4515 86.4219 73.5552 86.6364 73.7626 86.7812C73.97 86.9261 74.2342 86.9986 74.5552 86.9986ZM80.7044 79.2727V88H79.1618V79.2727H80.7044ZM85.5591 81.4545V82.6477H81.7963V81.4545H85.5591ZM82.7253 79.8864H84.2679V86.0312C84.2679 86.2386 84.2992 86.3977 84.3617 86.5085C84.427 86.6165 84.5123 86.6903 84.6174 86.7301C84.7225 86.7699 84.839 86.7898 84.9668 86.7898C85.0634 86.7898 85.1515 86.7827 85.231 86.7685C85.3134 86.7543 85.3759 86.7415 85.4185 86.7301L85.6784 87.9361C85.5961 87.9645 85.4782 87.9957 85.3248 88.0298C85.1742 88.0639 84.9895 88.0838 84.7708 88.0895C84.3844 88.1009 84.0364 88.0426 83.7267 87.9148C83.4171 87.7841 83.1713 87.5824 82.9895 87.3097C82.8105 87.0369 82.7225 86.696 82.7253 86.2869V79.8864ZM88.5325 84.1648V88H86.9899V79.2727H88.4984V82.5668H88.5751C88.7285 82.1974 88.9657 81.9062 89.2868 81.6932C89.6106 81.4773 90.0225 81.3693 90.5225 81.3693C90.9771 81.3693 91.3734 81.4645 91.7115 81.6548C92.0495 81.8452 92.3109 82.1236 92.4956 82.4901C92.6831 82.8565 92.7768 83.304 92.7768 83.8324V88H91.2342V84.071C91.2342 83.6307 91.1206 83.2884 90.8933 83.044C90.6689 82.7969 90.3535 82.6733 89.9473 82.6733C89.6745 82.6733 89.4302 82.733 89.2143 82.8523C89.0012 82.9687 88.8336 83.1378 88.7115 83.3594C88.5922 83.581 88.5325 83.8494 88.5325 84.1648ZM94.3493 88V81.4545H95.8919V88H94.3493ZM95.1248 80.5256C94.8805 80.5256 94.6703 80.4446 94.4941 80.2827C94.318 80.1179 94.2299 79.9205 94.2299 79.6903C94.2299 79.4574 94.318 79.2599 94.4941 79.098C94.6703 78.9332 94.8805 78.8509 95.1248 78.8509C95.372 78.8509 95.5822 78.9332 95.7555 79.098C95.9316 79.2599 96.0197 79.4574 96.0197 79.6903C96.0197 79.9205 95.9316 80.1179 95.7555 80.2827C95.5822 80.4446 95.372 80.5256 95.1248 80.5256ZM100.376 88.1278C99.7196 88.1278 99.1529 87.9915 98.6756 87.7188C98.2012 87.4432 97.8361 87.054 97.5804 86.5511C97.3248 86.0455 97.1969 85.4503 97.1969 84.7656C97.1969 84.0923 97.3248 83.5014 97.5804 82.9929C97.839 82.4815 98.1998 82.0838 98.6628 81.7997C99.1259 81.5128 99.6699 81.3693 100.295 81.3693C100.698 81.3693 101.079 81.4347 101.437 81.5653C101.798 81.6932 102.116 81.892 102.392 82.1619C102.67 82.4318 102.889 82.7756 103.048 83.1932C103.207 83.608 103.286 84.1023 103.286 84.6761V85.1491H97.9213V84.1094H101.808C101.805 83.8139 101.741 83.5511 101.616 83.321C101.491 83.0881 101.316 82.9048 101.092 82.7713C100.87 82.6378 100.612 82.571 100.316 82.571C100.001 82.571 99.7239 82.6477 99.4853 82.8011C99.2466 82.9517 99.0605 83.1506 98.927 83.3977C98.7963 83.642 98.7296 83.9105 98.7267 84.2031V85.1108C98.7267 85.4915 98.7963 85.8182 98.9355 86.0909C99.0748 86.3608 99.2694 86.5682 99.5194 86.7131C99.7694 86.8551 100.062 86.9261 100.397 86.9261C100.622 86.9261 100.825 86.8949 101.007 86.8324C101.188 86.767 101.346 86.6719 101.48 86.5469C101.613 86.4219 101.714 86.267 101.782 86.0824L103.222 86.2443C103.132 86.625 102.958 86.9574 102.703 87.2415C102.45 87.5227 102.126 87.7415 101.731 87.8977C101.336 88.0511 100.884 88.1278 100.376 88.1278ZM104.591 88V81.4545H106.087V82.5455H106.155C106.275 82.1676 106.479 81.8764 106.769 81.6719C107.062 81.4645 107.395 81.3608 107.77 81.3608C107.856 81.3608 107.951 81.3651 108.056 81.3736C108.164 81.3793 108.253 81.3892 108.324 81.4034V82.8224C108.259 82.7997 108.155 82.7798 108.013 82.7628C107.874 82.7429 107.739 82.733 107.608 82.733C107.327 82.733 107.074 82.794 106.85 82.9162C106.628 83.0355 106.454 83.2017 106.326 83.4148C106.198 83.6278 106.134 83.8736 106.134 84.152V88H104.591ZM117.499 83.1847L116.093 83.3381C116.053 83.196 115.983 83.0625 115.884 82.9375C115.787 82.8125 115.657 82.7116 115.492 82.6349C115.327 82.5582 115.126 82.5199 114.887 82.5199C114.566 82.5199 114.296 82.5895 114.077 82.7287C113.861 82.8679 113.755 83.0483 113.758 83.2699C113.755 83.4602 113.824 83.6151 113.966 83.7344C114.111 83.8537 114.35 83.9517 114.682 84.0284L115.799 84.267C116.418 84.4006 116.878 84.6122 117.18 84.902C117.483 85.1918 117.637 85.571 117.64 86.0398C117.637 86.4517 117.516 86.8153 117.278 87.1307C117.042 87.4432 116.714 87.6875 116.293 87.8636C115.873 88.0398 115.39 88.1278 114.844 88.1278C114.043 88.1278 113.398 87.9602 112.91 87.625C112.421 87.2869 112.13 86.8168 112.036 86.2145L113.54 86.0696C113.608 86.3651 113.753 86.5881 113.975 86.7386C114.197 86.8892 114.485 86.9645 114.84 86.9645C115.206 86.9645 115.501 86.8892 115.722 86.7386C115.947 86.5881 116.059 86.402 116.059 86.1804C116.059 85.9929 115.986 85.8381 115.841 85.7159C115.699 85.5937 115.478 85.5 115.177 85.4347L114.06 85.2003C113.432 85.0696 112.968 84.8494 112.667 84.5398C112.366 84.2273 112.216 83.8324 112.219 83.3551C112.216 82.9517 112.326 82.6023 112.547 82.3068C112.772 82.0085 113.083 81.7784 113.481 81.6165C113.881 81.4517 114.343 81.3693 114.866 81.3693C115.633 81.3693 116.236 81.5327 116.677 81.8594C117.12 82.1861 117.394 82.6278 117.499 83.1847ZM121.767 88.1278C121.113 88.1278 120.552 87.9844 120.084 87.6974C119.618 87.4105 119.258 87.0142 119.006 86.5085C118.756 86 118.631 85.4148 118.631 84.7528C118.631 84.0881 118.758 83.5014 119.014 82.9929C119.27 82.4815 119.631 82.0838 120.096 81.7997C120.565 81.5128 121.119 81.3693 121.758 81.3693C122.29 81.3693 122.76 81.4673 123.169 81.6634C123.581 81.8565 123.909 82.1307 124.153 82.4858C124.398 82.8381 124.537 83.25 124.571 83.7216H123.096C123.037 83.4062 122.895 83.1435 122.67 82.9332C122.449 82.7202 122.152 82.6136 121.78 82.6136C121.464 82.6136 121.187 82.6989 120.949 82.8693C120.71 83.0369 120.524 83.2784 120.39 83.5938C120.26 83.9091 120.194 84.2869 120.194 84.7273C120.194 85.1733 120.26 85.5568 120.39 85.8778C120.521 86.196 120.704 86.4418 120.94 86.6151C121.179 86.7855 121.459 86.8707 121.78 86.8707C122.007 86.8707 122.21 86.8281 122.389 86.7429C122.571 86.6548 122.723 86.5284 122.845 86.3636C122.967 86.1989 123.051 85.9986 123.096 85.7628H124.571C124.534 86.2259 124.398 86.6364 124.162 86.9943C123.926 87.3494 123.605 87.6278 123.199 87.8295C122.792 88.0284 122.315 88.1278 121.767 88.1278ZM127.721 88.1321C127.306 88.1321 126.933 88.0582 126.6 87.9105C126.271 87.7599 126.009 87.5384 125.816 87.2457C125.626 86.9531 125.531 86.5923 125.531 86.1634C125.531 85.794 125.599 85.4886 125.735 85.2472C125.872 85.0057 126.058 84.8125 126.294 84.6676C126.529 84.5227 126.795 84.4134 127.09 84.3395C127.389 84.2628 127.697 84.2074 128.015 84.1733C128.399 84.1335 128.71 84.098 128.948 84.0668C129.187 84.0327 129.36 83.9815 129.468 83.9134C129.579 83.8423 129.634 83.733 129.634 83.5852V83.5597C129.634 83.2386 129.539 82.9901 129.349 82.8139C129.159 82.6378 128.884 82.5497 128.526 82.5497C128.149 82.5497 127.849 82.6321 127.627 82.7969C127.409 82.9616 127.261 83.1562 127.184 83.3807L125.744 83.1761C125.857 82.7784 126.045 82.446 126.306 82.179C126.568 81.9091 126.887 81.7074 127.265 81.5739C127.643 81.4375 128.061 81.3693 128.518 81.3693C128.833 81.3693 129.147 81.4062 129.46 81.4801C129.772 81.554 130.058 81.6761 130.316 81.8466C130.575 82.0142 130.782 82.2429 130.938 82.5327C131.097 82.8224 131.177 83.1847 131.177 83.6193V88H129.694V87.1009H129.643C129.549 87.2827 129.417 87.4531 129.247 87.6122C129.079 87.7685 128.867 87.8949 128.612 87.9915C128.359 88.0852 128.062 88.1321 127.721 88.1321ZM128.122 86.9986C128.431 86.9986 128.7 86.9375 128.927 86.8153C129.154 86.6903 129.329 86.5256 129.451 86.321C129.576 86.1165 129.639 85.8935 129.639 85.652V84.8807C129.59 84.9205 129.508 84.9574 129.392 84.9915C129.278 85.0256 129.15 85.0554 129.008 85.081C128.866 85.1065 128.725 85.1293 128.586 85.1491C128.447 85.169 128.326 85.1861 128.224 85.2003C127.994 85.2315 127.788 85.2827 127.606 85.3537C127.424 85.4247 127.281 85.5241 127.176 85.652C127.07 85.777 127.018 85.9389 127.018 86.1378C127.018 86.4219 127.122 86.6364 127.329 86.7812C127.536 86.9261 127.801 86.9986 128.122 86.9986ZM134.271 79.2727V88H132.728V79.2727H134.271ZM135.857 90.4545V81.4545H137.374V82.5369H137.464C137.543 82.3778 137.655 82.2088 137.8 82.0298C137.945 81.848 138.141 81.6932 138.388 81.5653C138.635 81.4347 138.951 81.3693 139.334 81.3693C139.84 81.3693 140.296 81.4986 140.702 81.7571C141.111 82.0128 141.435 82.392 141.674 82.8949C141.915 83.3949 142.036 84.0085 142.036 84.7358C142.036 85.4545 141.918 86.0653 141.682 86.5682C141.447 87.071 141.126 87.4545 140.719 87.7188C140.313 87.983 139.853 88.1151 139.339 88.1151C138.964 88.1151 138.653 88.0526 138.405 87.9276C138.158 87.8026 137.959 87.652 137.809 87.4759C137.661 87.2969 137.546 87.1278 137.464 86.9688H137.4V90.4545H135.857ZM137.37 84.7273C137.37 85.1506 137.43 85.5213 137.549 85.8395C137.671 86.1577 137.846 86.4062 138.073 86.5852C138.303 86.7614 138.581 86.8494 138.908 86.8494C139.249 86.8494 139.535 86.7585 139.765 86.5767C139.995 86.392 140.168 86.1406 140.285 85.8224C140.404 85.5014 140.464 85.1364 140.464 84.7273C140.464 84.321 140.405 83.9602 140.289 83.6449C140.172 83.3295 139.999 83.0824 139.769 82.9034C139.539 82.7244 139.252 82.6349 138.908 82.6349C138.579 82.6349 138.299 82.7216 138.069 82.8949C137.839 83.0682 137.664 83.3111 137.545 83.6236C137.428 83.9361 137.37 84.304 137.37 84.7273Z" fill="white"/>
<path d="M105.071 98.4853C105.962 98.4853 106.408 99.5624 105.778 100.192L99.7071 106.263C99.3166 106.654 98.6834 106.654 98.2929 106.263L92.2218 100.192C91.5919 99.5624 92.038 98.4853 92.9289 98.4853L105.071 98.4853Z" fill="#79CB18"/>
</g>
<g filter="url(#filter1_dd_161_3607)">
<rect x="214" width="106" height="34" rx="8" fill="#67AE14"/>
<path d="M226.986 21V12.2727H228.567V19.6747H232.411V21H226.986ZM236.612 21.1278C235.956 21.1278 235.389 20.9915 234.912 20.7188C234.438 20.4432 234.072 20.054 233.817 19.5511C233.561 19.0455 233.433 18.4503 233.433 17.7656C233.433 17.0923 233.561 16.5014 233.817 15.9929C234.075 15.4815 234.436 15.0838 234.899 14.7997C235.362 14.5128 235.906 14.3693 236.531 14.3693C236.935 14.3693 237.315 14.4347 237.673 14.5653C238.034 14.6932 238.352 14.892 238.628 15.1619C238.906 15.4318 239.125 15.7756 239.284 16.1932C239.443 16.608 239.523 17.1023 239.523 17.6761V18.1491H234.158V17.1094H238.044C238.041 16.8139 237.977 16.5511 237.852 16.321C237.727 16.0881 237.553 15.9048 237.328 15.7713C237.107 15.6378 236.848 15.571 236.553 15.571C236.237 15.571 235.96 15.6477 235.722 15.8011C235.483 15.9517 235.297 16.1506 235.163 16.3977C235.033 16.642 234.966 16.9105 234.963 17.2031V18.1108C234.963 18.4915 235.033 18.8182 235.172 19.0909C235.311 19.3608 235.506 19.5682 235.756 19.7131C236.006 19.8551 236.298 19.9261 236.634 19.9261C236.858 19.9261 237.061 19.8949 237.243 19.8324C237.425 19.767 237.582 19.6719 237.716 19.5469C237.849 19.4219 237.95 19.267 238.018 19.0824L239.459 19.2443C239.368 19.625 239.195 19.9574 238.939 20.2415C238.686 20.5227 238.362 20.7415 237.967 20.8977C237.572 21.0511 237.121 21.1278 236.612 21.1278ZM246.001 16.1847L244.595 16.3381C244.555 16.196 244.485 16.0625 244.386 15.9375C244.289 15.8125 244.159 15.7116 243.994 15.6349C243.829 15.5582 243.627 15.5199 243.389 15.5199C243.068 15.5199 242.798 15.5895 242.579 15.7287C242.363 15.8679 242.257 16.0483 242.26 16.2699C242.257 16.4602 242.326 16.6151 242.468 16.7344C242.613 16.8537 242.852 16.9517 243.184 17.0284L244.301 17.267C244.92 17.4006 245.38 17.6122 245.681 17.902C245.985 18.1918 246.139 18.571 246.142 19.0398C246.139 19.4517 246.018 19.8153 245.779 20.1307C245.544 20.4432 245.216 20.6875 244.795 20.8636C244.375 21.0398 243.892 21.1278 243.346 21.1278C242.545 21.1278 241.9 20.9602 241.412 20.625C240.923 20.2869 240.632 19.8168 240.538 19.2145L242.042 19.0696C242.11 19.3651 242.255 19.5881 242.477 19.7386C242.699 19.8892 242.987 19.9645 243.342 19.9645C243.708 19.9645 244.002 19.8892 244.224 19.7386C244.449 19.5881 244.561 19.402 244.561 19.1804C244.561 18.9929 244.488 18.8381 244.343 18.7159C244.201 18.5937 243.98 18.5 243.679 18.4347L242.562 18.2003C241.934 18.0696 241.47 17.8494 241.169 17.5398C240.868 17.2273 240.718 16.8324 240.721 16.3551C240.718 15.9517 240.828 15.6023 241.049 15.3068C241.274 15.0085 241.585 14.7784 241.983 14.6165C242.383 14.4517 242.845 14.3693 243.368 14.3693C244.135 14.3693 244.738 14.5327 245.179 14.8594C245.622 15.1861 245.896 15.6278 246.001 16.1847ZM252.587 16.1847L251.181 16.3381C251.141 16.196 251.071 16.0625 250.972 15.9375C250.875 15.8125 250.745 15.7116 250.58 15.6349C250.415 15.5582 250.213 15.5199 249.975 15.5199C249.654 15.5199 249.384 15.5895 249.165 15.7287C248.949 15.8679 248.843 16.0483 248.846 16.2699C248.843 16.4602 248.912 16.6151 249.054 16.7344C249.199 16.8537 249.438 16.9517 249.77 17.0284L250.887 17.267C251.506 17.4006 251.966 17.6122 252.267 17.902C252.571 18.1918 252.725 18.571 252.728 19.0398C252.725 19.4517 252.604 19.8153 252.365 20.1307C252.13 20.4432 251.801 20.6875 251.381 20.8636C250.961 21.0398 250.478 21.1278 249.932 21.1278C249.131 21.1278 248.486 20.9602 247.998 20.625C247.509 20.2869 247.218 19.8168 247.124 19.2145L248.628 19.0696C248.696 19.3651 248.841 19.5881 249.063 19.7386C249.284 19.8892 249.573 19.9645 249.928 19.9645C250.294 19.9645 250.588 19.8892 250.81 19.7386C251.034 19.5881 251.147 19.402 251.147 19.1804C251.147 18.9929 251.074 18.8381 250.929 18.7159C250.787 18.5937 250.566 18.5 250.265 18.4347L249.148 18.2003C248.52 18.0696 248.056 17.8494 247.755 17.5398C247.453 17.2273 247.304 16.8324 247.307 16.3551C247.304 15.9517 247.414 15.6023 247.635 15.3068C247.86 15.0085 248.171 14.7784 248.569 14.6165C248.969 14.4517 249.431 14.3693 249.953 14.3693C250.721 14.3693 251.324 14.5327 251.765 14.8594C252.208 15.1861 252.482 15.6278 252.587 16.1847ZM261.495 17.1648V21H259.953V12.2727H261.461V15.5668H261.538C261.691 15.1974 261.929 14.9062 262.25 14.6932C262.574 14.4773 262.985 14.3693 263.485 14.3693C263.94 14.3693 264.336 14.4645 264.674 14.6548C265.012 14.8452 265.274 15.1236 265.458 15.4901C265.646 15.8565 265.74 16.304 265.74 16.8324V21H264.197V17.071C264.197 16.6307 264.083 16.2884 263.856 16.044C263.632 15.7969 263.316 15.6733 262.91 15.6733C262.637 15.6733 262.393 15.733 262.177 15.8523C261.964 15.9687 261.797 16.1378 261.674 16.3594C261.555 16.581 261.495 16.8494 261.495 17.1648ZM269.196 21.1321C268.781 21.1321 268.407 21.0582 268.075 20.9105C267.745 20.7599 267.484 20.5384 267.291 20.2457C267.1 19.9531 267.005 19.5923 267.005 19.1634C267.005 18.794 267.074 18.4886 267.21 18.2472C267.346 18.0057 267.532 17.8125 267.768 17.6676C268.004 17.5227 268.27 17.4134 268.565 17.3395C268.863 17.2628 269.172 17.2074 269.49 17.1733C269.873 17.1335 270.184 17.098 270.423 17.0668C270.662 17.0327 270.835 16.9815 270.943 16.9134C271.054 16.8423 271.109 16.733 271.109 16.5852V16.5597C271.109 16.2386 271.014 15.9901 270.824 15.8139C270.633 15.6378 270.359 15.5497 270.001 15.5497C269.623 15.5497 269.324 15.6321 269.102 15.7969C268.883 15.9616 268.735 16.1562 268.659 16.3807L267.218 16.1761C267.332 15.7784 267.52 15.446 267.781 15.179C268.042 14.9091 268.362 14.7074 268.74 14.5739C269.118 14.4375 269.535 14.3693 269.993 14.3693C270.308 14.3693 270.622 14.4062 270.934 14.4801C271.247 14.554 271.532 14.6761 271.791 14.8466C272.049 15.0142 272.257 15.2429 272.413 15.5327C272.572 15.8224 272.652 16.1847 272.652 16.6193V21H271.169V20.1009H271.118C271.024 20.2827 270.892 20.4531 270.721 20.6122C270.554 20.7685 270.342 20.8949 270.086 20.9915C269.833 21.0852 269.537 21.1321 269.196 21.1321ZM269.596 19.9986C269.906 19.9986 270.174 19.9375 270.402 19.8153C270.629 19.6903 270.804 19.5256 270.926 19.321C271.051 19.1165 271.113 18.8935 271.113 18.652V17.8807C271.065 17.9205 270.983 17.9574 270.866 17.9915C270.752 18.0256 270.625 18.0554 270.483 18.081C270.341 18.1065 270.2 18.1293 270.061 18.1491C269.922 18.169 269.801 18.1861 269.699 18.2003C269.468 18.2315 269.262 18.2827 269.081 18.3537C268.899 18.4247 268.755 18.5241 268.65 18.652C268.545 18.777 268.493 18.9389 268.493 19.1378C268.493 19.4219 268.596 19.6364 268.804 19.7812C269.011 19.9261 269.275 19.9986 269.596 19.9986ZM274.203 21V14.4545H275.745V21H274.203ZM274.978 13.5256C274.734 13.5256 274.524 13.4446 274.348 13.2827C274.172 13.1179 274.083 12.9205 274.083 12.6903C274.083 12.4574 274.172 12.2599 274.348 12.098C274.524 11.9332 274.734 11.8509 274.978 11.8509C275.225 11.8509 275.436 11.9332 275.609 12.098C275.785 12.2599 275.873 12.4574 275.873 12.6903C275.873 12.9205 275.785 13.1179 275.609 13.2827C275.436 13.4446 275.225 13.5256 274.978 13.5256ZM277.332 21V14.4545H278.827V15.5455H278.896C279.015 15.1676 279.219 14.8764 279.509 14.6719C279.802 14.4645 280.136 14.3608 280.511 14.3608C280.596 14.3608 280.691 14.3651 280.796 14.3736C280.904 14.3793 280.994 14.3892 281.065 14.4034V15.8224C280.999 15.7997 280.896 15.7798 280.754 15.7628C280.614 15.7429 280.479 15.733 280.349 15.733C280.067 15.733 279.815 15.794 279.59 15.9162C279.369 16.0355 279.194 16.2017 279.066 16.4148C278.938 16.6278 278.874 16.8736 278.874 17.152V21H277.332ZM286.609 12.2727V21H285.066V12.2727H286.609ZM291.05 21.1278C290.411 21.1278 289.857 20.9872 289.388 20.706C288.919 20.4247 288.556 20.0312 288.297 19.5256C288.042 19.0199 287.914 18.429 287.914 17.7528C287.914 17.0767 288.042 16.4844 288.297 15.9759C288.556 15.4673 288.919 15.0724 289.388 14.7912C289.857 14.5099 290.411 14.3693 291.05 14.3693C291.689 14.3693 292.243 14.5099 292.712 14.7912C293.181 15.0724 293.543 15.4673 293.799 15.9759C294.057 16.4844 294.186 17.0767 294.186 17.7528C294.186 18.429 294.057 19.0199 293.799 19.5256C293.543 20.0312 293.181 20.4247 292.712 20.706C292.243 20.9872 291.689 21.1278 291.05 21.1278ZM291.059 19.892C291.405 19.892 291.695 19.7969 291.928 19.6065C292.161 19.4134 292.334 19.1548 292.448 18.831C292.564 18.5071 292.623 18.1463 292.623 17.7486C292.623 17.348 292.564 16.9858 292.448 16.6619C292.334 16.3352 292.161 16.0753 291.928 15.8821C291.695 15.6889 291.405 15.5923 291.059 15.5923C290.703 15.5923 290.408 15.6889 290.172 15.8821C289.939 16.0753 289.765 16.3352 289.648 16.6619C289.534 16.9858 289.478 17.348 289.478 17.7486C289.478 18.1463 289.534 18.5071 289.648 18.831C289.765 19.1548 289.939 19.4134 290.172 19.6065C290.408 19.7969 290.703 19.892 291.059 19.892ZM300.669 16.1847L299.263 16.3381C299.223 16.196 299.153 16.0625 299.054 15.9375C298.957 15.8125 298.827 15.7116 298.662 15.6349C298.497 15.5582 298.295 15.5199 298.057 15.5199C297.736 15.5199 297.466 15.5895 297.247 15.7287C297.031 15.8679 296.925 16.0483 296.928 16.2699C296.925 16.4602 296.994 16.6151 297.136 16.7344C297.281 16.8537 297.52 16.9517 297.852 17.0284L298.969 17.267C299.588 17.4006 300.048 17.6122 300.349 17.902C300.653 18.1918 300.807 18.571 300.81 19.0398C300.807 19.4517 300.686 19.8153 300.447 20.1307C300.212 20.4432 299.884 20.6875 299.463 20.8636C299.043 21.0398 298.56 21.1278 298.014 21.1278C297.213 21.1278 296.568 20.9602 296.08 20.625C295.591 20.2869 295.3 19.8168 295.206 19.2145L296.71 19.0696C296.778 19.3651 296.923 19.5881 297.145 19.7386C297.366 19.8892 297.655 19.9645 298.01 19.9645C298.376 19.9645 298.67 19.8892 298.892 19.7386C299.116 19.5881 299.229 19.402 299.229 19.1804C299.229 18.9929 299.156 18.8381 299.011 18.7159C298.869 18.5937 298.648 18.5 298.347 18.4347L297.23 18.2003C296.602 18.0696 296.138 17.8494 295.837 17.5398C295.536 17.2273 295.386 16.8324 295.389 16.3551C295.386 15.9517 295.496 15.6023 295.717 15.3068C295.942 15.0085 296.253 14.7784 296.651 14.6165C297.051 14.4517 297.513 14.3693 298.036 14.3693C298.803 14.3693 299.406 14.5327 299.847 14.8594C300.29 15.1861 300.564 15.6278 300.669 16.1847ZM307.255 16.1847L305.849 16.3381C305.809 16.196 305.739 16.0625 305.64 15.9375C305.543 15.8125 305.413 15.7116 305.248 15.6349C305.083 15.5582 304.881 15.5199 304.643 15.5199C304.322 15.5199 304.052 15.5895 303.833 15.7287C303.617 15.8679 303.511 16.0483 303.513 16.2699C303.511 16.4602 303.58 16.6151 303.722 16.7344C303.867 16.8537 304.106 16.9517 304.438 17.0284L305.555 17.267C306.174 17.4006 306.634 17.6122 306.935 17.902C307.239 18.1918 307.393 18.571 307.396 19.0398C307.393 19.4517 307.272 19.8153 307.033 20.1307C306.798 20.4432 306.469 20.6875 306.049 20.8636C305.629 21.0398 305.146 21.1278 304.6 21.1278C303.799 21.1278 303.154 20.9602 302.665 20.625C302.177 20.2869 301.886 19.8168 301.792 19.2145L303.296 19.0696C303.364 19.3651 303.509 19.5881 303.731 19.7386C303.952 19.8892 304.241 19.9645 304.596 19.9645C304.962 19.9645 305.256 19.8892 305.478 19.7386C305.702 19.5881 305.815 19.402 305.815 19.1804C305.815 18.9929 305.742 18.8381 305.597 18.7159C305.455 18.5937 305.234 18.5 304.933 18.4347L303.816 18.2003C303.188 18.0696 302.724 17.8494 302.423 17.5398C302.121 17.2273 301.972 16.8324 301.975 16.3551C301.972 15.9517 302.082 15.6023 302.303 15.3068C302.528 15.0085 302.839 14.7784 303.237 14.6165C303.637 14.4517 304.099 14.3693 304.621 14.3693C305.388 14.3693 305.992 14.5327 306.433 14.8594C306.876 15.1861 307.15 15.6278 307.255 16.1847Z" fill="white"/>
<path d="M273.071 31.4853C273.962 31.4853 274.408 32.5624 273.778 33.1924L267.707 39.2635C267.317 39.654 266.683 39.654 266.293 39.2635L260.222 33.1924C259.592 32.5624 260.038 31.4853 260.929 31.4853L273.071 31.4853Z" fill="#67AE14"/>
</g>
<path d="M90.9892 195.838H93.1549V196.011C92.8446 196.067 92.612 196.163 92.4568 196.298C92.3057 196.429 92.1625 196.68 92.0273 197.05L89.3903 204.185H89.2054L87.0099 198.356L84.88 204.185H84.7129L82.0223 197.05C81.9626 196.883 81.9069 196.749 81.8552 196.65C81.8035 196.55 81.7339 196.451 81.6464 196.352C81.5589 196.248 81.4495 196.171 81.3183 196.119C81.191 196.063 81.0339 196.027 80.8469 196.011V195.838H83.818V196.011C83.472 196.051 83.2692 196.155 83.2095 196.322C83.1538 196.485 83.1936 196.727 83.3288 197.05L85.2379 202.276L86.8249 197.867L86.5206 197.05C86.3973 196.708 86.2542 196.457 86.0911 196.298C85.928 196.135 85.6794 196.039 85.3453 196.011V195.838H88.3164V196.011C87.9744 196.051 87.7735 196.155 87.7138 196.322C87.6582 196.485 87.6999 196.727 87.8391 197.05L89.7423 202.3L91.6634 197.05C91.7111 196.914 91.7449 196.807 91.7648 196.727C91.7847 196.648 91.7926 196.56 91.7886 196.465C91.7847 196.369 91.7548 196.296 91.6992 196.244C91.6475 196.188 91.5619 196.141 91.4426 196.101C91.3273 196.057 91.1761 196.027 90.9892 196.011V195.838ZM98.1687 202.168L98.3119 202.228C98.1727 202.793 97.8784 203.258 97.4289 203.624C96.9835 203.99 96.4346 204.173 95.7823 204.173C95.1937 204.173 94.6786 204.032 94.2371 203.749C93.7956 203.463 93.4635 203.087 93.2408 202.622C93.022 202.153 92.9126 201.629 92.9126 201.053C92.9126 200.043 93.1851 199.227 93.73 198.607C94.2749 197.982 94.9928 197.67 95.8837 197.67C96.6593 197.67 97.2559 197.915 97.6735 198.404C98.0912 198.893 98.3 199.545 98.3 200.361H94.1595C94.1516 200.4 94.1476 200.456 94.1476 200.528C94.1198 201.347 94.3147 201.995 94.7323 202.473C95.1499 202.946 95.7087 203.183 96.4087 203.183C96.8025 203.183 97.1465 203.089 97.4409 202.902C97.7392 202.715 97.9818 202.471 98.1687 202.168ZM95.6988 198.01C95.2971 198.01 94.963 198.197 94.6965 198.571C94.434 198.941 94.263 199.422 94.1834 200.015H97.0053C96.9974 199.681 96.9437 199.364 96.8443 199.066C96.7448 198.768 96.5937 198.517 96.3908 198.314C96.192 198.112 95.9613 198.01 95.6988 198.01ZM105.151 202.168L105.295 202.228C105.155 202.793 104.861 203.258 104.412 203.624C103.966 203.99 103.417 204.173 102.765 204.173C102.176 204.173 101.661 204.032 101.22 203.749C100.778 203.463 100.446 203.087 100.223 202.622C100.005 202.153 99.8953 201.629 99.8953 201.053C99.8953 200.043 100.168 199.227 100.713 198.607C101.258 197.982 101.975 197.67 102.866 197.67C103.642 197.67 104.239 197.915 104.656 198.404C105.074 198.893 105.283 199.545 105.283 200.361H101.142C101.134 200.4 101.13 200.456 101.13 200.528C101.102 201.347 101.297 201.995 101.715 202.473C102.133 202.946 102.691 203.183 103.391 203.183C103.785 203.183 104.129 203.089 104.424 202.902C104.722 202.715 104.964 202.471 105.151 202.168ZM102.681 198.01C102.28 198.01 101.946 198.197 101.679 198.571C101.417 198.941 101.246 199.422 101.166 200.015H103.988C103.98 199.681 103.926 199.364 103.827 199.066C103.727 198.768 103.576 198.517 103.373 198.314C103.175 198.112 102.944 198.01 102.681 198.01ZM112.247 203.183C112.367 203.385 112.51 203.539 112.677 203.642C112.848 203.741 113.093 203.803 113.411 203.827V204H111.221C111.205 203.837 111.112 203.612 110.941 203.326L109.366 200.653L108.62 201.339V203.081C108.62 203.324 108.682 203.495 108.805 203.594C108.928 203.694 109.119 203.771 109.378 203.827V204H106.615V203.827C106.878 203.771 107.071 203.694 107.194 203.594C107.321 203.495 107.385 203.324 107.385 203.081V196.727C107.385 196.521 107.331 196.367 107.224 196.268C107.121 196.165 106.957 196.103 106.735 196.083L106.466 196.071V195.898L108.447 195.337H108.62V200.862L111.036 198.66C111.259 198.458 111.341 198.302 111.281 198.195C111.225 198.084 111.026 198.028 110.684 198.028V197.855H112.945V198.028C112.671 198.028 112.424 198.084 112.206 198.195C111.987 198.306 111.687 198.535 111.305 198.881L110.291 199.812L112.247 203.183ZM118.26 204V203.827C118.769 203.795 119.117 203.724 119.304 203.612C119.495 203.497 119.59 203.276 119.59 202.95V197.121H118.26V196.948C118.829 196.805 119.306 196.644 119.692 196.465C120.078 196.282 120.432 196.049 120.754 195.767H120.909V202.95C120.909 203.268 120.99 203.487 121.153 203.606C121.321 203.722 121.601 203.795 121.995 203.827V204H118.26Z" fill="#4E9100"/>
<path d="M255.563 195.838H257.729V196.011C257.419 196.067 257.186 196.163 257.031 196.298C256.88 196.429 256.736 196.68 256.601 197.05L253.964 204.185H253.779L251.584 198.356L249.454 204.185H249.287L246.596 197.05C246.537 196.883 246.481 196.749 246.429 196.65C246.377 196.55 246.308 196.451 246.22 196.352C246.133 196.248 246.023 196.171 245.892 196.119C245.765 196.063 245.608 196.027 245.421 196.011V195.838H248.392V196.011C248.046 196.051 247.843 196.155 247.783 196.322C247.728 196.485 247.768 196.727 247.903 197.05L249.812 202.276L251.399 197.867L251.095 197.05C250.971 196.708 250.828 196.457 250.665 196.298C250.502 196.135 250.253 196.039 249.919 196.011V195.838H252.89V196.011C252.548 196.051 252.347 196.155 252.288 196.322C252.232 196.485 252.274 196.727 252.413 197.05L254.316 202.3L256.237 197.05C256.285 196.914 256.319 196.807 256.339 196.727C256.359 196.648 256.367 196.56 256.363 196.465C256.359 196.369 256.329 196.296 256.273 196.244C256.221 196.188 256.136 196.141 256.017 196.101C255.901 196.057 255.75 196.027 255.563 196.011V195.838ZM262.743 202.168L262.886 202.228C262.747 202.793 262.452 203.258 262.003 203.624C261.557 203.99 261.009 204.173 260.356 204.173C259.768 204.173 259.253 204.032 258.811 203.749C258.37 203.463 258.037 203.087 257.815 202.622C257.596 202.153 257.487 201.629 257.487 201.053C257.487 200.043 257.759 199.227 258.304 198.607C258.849 197.982 259.567 197.67 260.458 197.67C261.233 197.67 261.83 197.915 262.247 198.404C262.665 198.893 262.874 199.545 262.874 200.361H258.733C258.726 200.4 258.722 200.456 258.722 200.528C258.694 201.347 258.889 201.995 259.306 202.473C259.724 202.946 260.283 203.183 260.983 203.183C261.376 203.183 261.72 203.089 262.015 202.902C262.313 202.715 262.556 202.471 262.743 202.168ZM260.273 198.01C259.871 198.01 259.537 198.197 259.27 198.571C259.008 198.941 258.837 199.422 258.757 200.015H261.579C261.571 199.681 261.518 199.364 261.418 199.066C261.319 198.768 261.168 198.517 260.965 198.314C260.766 198.112 260.535 198.01 260.273 198.01ZM269.725 202.168L269.868 202.228C269.729 202.793 269.435 203.258 268.985 203.624C268.54 203.99 267.991 204.173 267.339 204.173C266.75 204.173 266.235 204.032 265.794 203.749C265.352 203.463 265.02 203.087 264.797 202.622C264.579 202.153 264.469 201.629 264.469 201.053C264.469 200.043 264.742 199.227 265.287 198.607C265.831 197.982 266.549 197.67 267.44 197.67C268.216 197.67 268.812 197.915 269.23 198.404C269.648 198.893 269.857 199.545 269.857 200.361H265.716C265.708 200.4 265.704 200.456 265.704 200.528C265.676 201.347 265.871 201.995 266.289 202.473C266.706 202.946 267.265 203.183 267.965 203.183C268.359 203.183 268.703 203.089 268.997 202.902C269.296 202.715 269.538 202.471 269.725 202.168ZM267.255 198.01C266.854 198.01 266.52 198.197 266.253 198.571C265.991 198.941 265.82 199.422 265.74 200.015H268.562C268.554 199.681 268.5 199.364 268.401 199.066C268.301 198.768 268.15 198.517 267.947 198.314C267.749 198.112 267.518 198.01 267.255 198.01ZM276.821 203.183C276.941 203.385 277.084 203.539 277.251 203.642C277.422 203.741 277.666 203.803 277.985 203.827V204H275.795C275.779 203.837 275.686 203.612 275.515 203.326L273.94 200.653L273.194 201.339V203.081C273.194 203.324 273.256 203.495 273.379 203.594C273.502 203.694 273.693 203.771 273.952 203.827V204H271.189V203.827C271.452 203.771 271.645 203.694 271.768 203.594C271.895 203.495 271.959 203.324 271.959 203.081V196.727C271.959 196.521 271.905 196.367 271.798 196.268C271.694 196.165 271.531 196.103 271.309 196.083L271.04 196.071V195.898L273.021 195.337H273.194V200.862L275.61 198.66C275.833 198.458 275.914 198.302 275.855 198.195C275.799 198.084 275.6 198.028 275.258 198.028V197.855H277.519V198.028C277.245 198.028 276.998 198.084 276.78 198.195C276.561 198.306 276.26 198.535 275.879 198.881L274.864 199.812L276.821 203.183ZM282.428 204V203.827L284.582 201.423C284.797 201.188 284.976 200.985 285.119 200.814C285.266 200.643 285.427 200.436 285.602 200.194C285.777 199.947 285.916 199.72 286.02 199.514C286.127 199.303 286.217 199.07 286.288 198.816C286.364 198.557 286.402 198.302 286.402 198.052C286.402 197.587 286.258 197.213 285.972 196.93C285.686 196.644 285.308 196.501 284.838 196.501C284.413 196.501 284.019 196.626 283.657 196.877C283.299 197.127 283.045 197.485 282.894 197.95L282.756 197.891C282.804 197.604 282.895 197.332 283.031 197.073C283.166 196.815 283.341 196.58 283.556 196.369C283.771 196.155 284.039 195.984 284.361 195.856C284.683 195.729 285.037 195.665 285.423 195.665C286.139 195.665 286.712 195.87 287.141 196.28C287.575 196.686 287.792 197.231 287.792 197.915C287.792 198.161 287.762 198.402 287.702 198.637C287.642 198.871 287.559 199.092 287.452 199.299C287.348 199.506 287.211 199.72 287.04 199.943C286.869 200.162 286.688 200.369 286.497 200.564C286.31 200.754 286.083 200.967 285.817 201.202C285.55 201.433 285.288 201.651 285.029 201.858C284.775 202.065 284.478 202.304 284.14 202.574C283.949 202.725 283.806 202.839 283.711 202.914H286.366C286.64 202.914 286.861 202.898 287.028 202.866C287.195 202.835 287.34 202.769 287.463 202.67C287.587 202.57 287.684 202.445 287.756 202.294C287.827 202.143 287.901 201.934 287.977 201.667H288.15L287.804 204H282.428Z" fill="#4E9100"/>
<circle cx="343.503" cy="48.8584" r="8.85836" fill="#67AE14"/>
<defs>
<filter id="filter0_dd_161_3607" x="31" y="67" width="136" height="64" filterUnits="userSpaceOnUse" color-interpolation-filters="sRGB">
<feFlood flood-opacity="0" result="BackgroundImageFix"/>
<feColorMatrix in="SourceAlpha" type="matrix" values="0 0 0 0 0 0 0 0 0 0 0 0 0 0 0 0 0 0 127 0" result="hardAlpha"/>
<feMorphology radius="2" operator="erode" in="SourceAlpha" result="effect1_dropShadow_161_3607"/>
<feOffset dy="4"/>
<feGaussianBlur stdDeviation="3"/>
<feColorMatrix type="matrix" values="0 0 0 0 0.0627451 0 0 0 0 0.0941176 0 0 0 0 0.156863 0 0 0 0.03 0"/>
<feBlend mode="normal" in2="BackgroundImageFix" result="effect1_dropShadow_161_3607"/>
<feColorMatrix in="SourceAlpha" type="matrix" values="0 0 0 0 0 0 0 0 0 0 0 0 0 0 0 0 0 0 127 0" result="hardAlpha"/>
<feMorphology radius="4" operator="erode" in="SourceAlpha" result="effect2_dropShadow_161_3607"/>
<feOffset dy="12"/>
<feGaussianBlur stdDeviation="8"/>
<feColorMatrix type="matrix" values="0 0 0 0 0.0627451 0 0 0 0 0.0941176 0 0 0 0 0.156863 0 0 0 0.08 0"/>
<feBlend mode="normal" in2="effect1_dropShadow_161_3607" result="effect2_dropShadow_161_3607"/>
<feBlend mode="normal" in="SourceGraphic" in2="effect2_dropShadow_161_3607" result="shape"/>
</filter>
<filter id="filter1_dd_161_3607" x="202" y="0" width="130" height="64" filterUnits="userSpaceOnUse" color-interpolation-filters="sRGB">
<feFlood flood-opacity="0" result="BackgroundImageFix"/>
<feColorMatrix in="SourceAlpha" type="matrix" values="0 0 0 0 0 0 0 0 0 0 0 0 0 0 0 0 0 0 127 0" result="hardAlpha"/>
<feMorphology radius="2" operator="erode" in="SourceAlpha" result="effect1_dropShadow_161_3607"/>
<feOffset dy="4"/>
<feGaussianBlur stdDeviation="3"/>
<feColorMatrix type="matrix" values="0 0 0 0 0.0627451 0 0 0 0 0.0941176 0 0 0 0 0.156863 0 0 0 0.03 0"/>
<feBlend mode="normal" in2="BackgroundImageFix" result="effect1_dropShadow_161_3607"/>
<feColorMatrix in="SourceAlpha" type="matrix" values="0 0 0 0 0 0 0 0 0 0 0 0 0 0 0 0 0 0 127 0" result="hardAlpha"/>
<feMorphology radius="4" operator="erode" in="SourceAlpha" result="effect2_dropShadow_161_3607"/>
<feOffset dy="12"/>
<feGaussianBlur stdDeviation="8"/>
<feColorMatrix type="matrix" values="0 0 0 0 0.0627451 0 0 0 0 0.0941176 0 0 0 0 0.156863 0 0 0 0.08 0"/>
<feBlend mode="normal" in2="effect1_dropShadow_161_3607" result="effect2_dropShadow_161_3607"/>
<feBlend mode="normal" in="SourceGraphic" in2="effect2_dropShadow_161_3607" result="shape"/>
</filter>
<linearGradient id="paint0_linear_161_3607" x1="176.145" y1="49" x2="176.145" y2="247" gradientUnits="userSpaceOnUse">
<stop stop-color="#82CD23"/>
<stop offset="1" stop-color="#E2FFC0"/>
</linearGradient>
<linearGradient id="paint1_linear_161_3607" x1="93.1445" y1="44.6862" x2="93.1445" y2="249" gradientUnits="userSpaceOnUse">
<stop stop-color="#6FC600"/>
<stop offset="1" stop-color="#D2FF99" stop-opacity="0"/>
</linearGradient>
<linearGradient id="paint2_linear_161_3607" x1="260.145" y1="-14.7354" x2="260.145" y2="247" gradientUnits="userSpaceOnUse">
<stop stop-color="#17AE14"/>
<stop offset="1" stop-color="#D2FF99" stop-opacity="0"/>
</linearGradient>
</defs>
</svg>
