<svg width="364" height="271" viewBox="0 0 364 271" fill="none" xmlns="http://www.w3.org/2000/svg">
<path d="M343.645 264V66C125.468 92.0751 29.4045 208.865 8.64453 264H343.645Z" fill="url(#paint0_linear_177_5200)" fill-opacity="0.4"/>
<path d="M176.645 75V270.953" stroke="#C0C0C0" stroke-width="0.916382" stroke-dasharray="1.83 1.83"/>
<rect y="257.681" width="12.8294" height="12.8294" fill="#79CB18"/>
<path d="M176.645 113C77.0445 153.298 23.8112 222.062 9.64453 251.406V266H176.645V113Z" fill="url(#paint1_linear_177_5200)"/>
<path d="M343.645 64.5C235.645 85.5 232.645 89 176.645 111V264H343.645V64.5Z" fill="url(#paint2_linear_177_5200)"/>
<path d="M8.64453 261C27.0614 217.446 108.655 97.4812 343.645 66" stroke="#79CB18" stroke-width="4.58191"/>
<circle cx="98.6445" cy="157" r="18" fill="#79CB18" fill-opacity="0.5"/>
<circle cx="266.645" cy="84" r="18" fill="#79CB18" fill-opacity="0.5"/>
<circle cx="98.6445" cy="157" r="12" fill="#79CB18"/>
<circle cx="266.645" cy="84" r="12" fill="#17AE14"/>
<g filter="url(#filter0_dd_177_5200)">
<rect x="50.5" y="84" width="97" height="34" rx="8" fill="#79CB18"/>
<path d="M63.5678 105V96.2727H66.8406C67.511 96.2727 68.0735 96.3892 68.5281 96.6222C68.9854 96.8551 69.3306 97.1818 69.5636 97.6023C69.7994 98.0199 69.9173 98.5071 69.9173 99.0639C69.9173 99.6236 69.7979 100.109 69.5593 100.521C69.3235 100.93 68.9755 101.247 68.5153 101.472C68.055 101.693 67.4897 101.804 66.8192 101.804H64.4883V100.491H66.6062C66.9982 100.491 67.3192 100.437 67.5692 100.33C67.8192 100.219 68.0039 100.058 68.1232 99.848C68.2454 99.6349 68.3065 99.3736 68.3065 99.0639C68.3065 98.7543 68.2454 98.4901 68.1232 98.2713C68.0011 98.0497 67.815 97.8821 67.565 97.7685C67.315 97.652 66.9925 97.5938 66.5977 97.5938H65.1488V105H63.5678ZM68.0763 101.045L70.2369 105H68.4727L66.3505 101.045H68.0763ZM74.1083 105.128C73.4521 105.128 72.8853 104.991 72.408 104.719C71.9336 104.443 71.5685 104.054 71.3129 103.551C71.0572 103.045 70.9293 102.45 70.9293 101.766C70.9293 101.092 71.0572 100.501 71.3129 99.9929C71.5714 99.4815 71.9322 99.0838 72.3952 98.7997C72.8583 98.5128 73.4023 98.3693 74.0273 98.3693C74.4308 98.3693 74.8114 98.4347 75.1694 98.5653C75.5302 98.6932 75.8484 98.892 76.1239 99.1619C76.4023 99.4318 76.6211 99.7756 76.7802 100.193C76.9393 100.608 77.0188 101.102 77.0188 101.676V102.149H71.6538V101.109H75.5401C75.5373 100.814 75.4734 100.551 75.3484 100.321C75.2234 100.088 75.0487 99.9048 74.8242 99.7713C74.6026 99.6378 74.3441 99.571 74.0487 99.571C73.7333 99.571 73.4563 99.6477 73.2177 99.8011C72.979 99.9517 72.793 100.151 72.6594 100.398C72.5288 100.642 72.462 100.911 72.4592 101.203V102.111C72.4592 102.491 72.5288 102.818 72.668 103.091C72.8072 103.361 73.0018 103.568 73.2518 103.713C73.5018 103.855 73.7944 103.926 74.1296 103.926C74.354 103.926 74.5572 103.895 74.739 103.832C74.9208 103.767 75.0785 103.672 75.212 103.547C75.3455 103.422 75.4464 103.267 75.5146 103.082L76.9549 103.244C76.864 103.625 76.6907 103.957 76.435 104.241C76.1822 104.523 75.8583 104.741 75.4634 104.898C75.0685 105.051 74.6168 105.128 74.1083 105.128ZM80.7528 105.115C80.2386 105.115 79.7784 104.983 79.3722 104.719C78.9659 104.455 78.6449 104.071 78.4091 103.568C78.1733 103.065 78.0554 102.455 78.0554 101.736C78.0554 101.009 78.1747 100.395 78.4134 99.8949C78.6548 99.392 78.9801 99.0128 79.3892 98.7571C79.7983 98.4986 80.2543 98.3693 80.7571 98.3693C81.1406 98.3693 81.456 98.4347 81.7031 98.5653C81.9503 98.6932 82.1463 98.848 82.2912 99.0298C82.4361 99.2088 82.5483 99.3778 82.6278 99.5369H82.6918V96.2727H84.2386V105H82.7216V103.969H82.6278C82.5483 104.128 82.4332 104.297 82.2827 104.476C82.1321 104.652 81.9332 104.803 81.6861 104.928C81.4389 105.053 81.1278 105.115 80.7528 105.115ZM81.1832 103.849C81.5099 103.849 81.7884 103.761 82.0185 103.585C82.2486 103.406 82.4233 103.158 82.5426 102.839C82.6619 102.521 82.7216 102.151 82.7216 101.727C82.7216 101.304 82.6619 100.936 82.5426 100.624C82.4261 100.311 82.2528 100.068 82.0227 99.8949C81.7955 99.7216 81.5156 99.6349 81.1832 99.6349C80.8395 99.6349 80.5526 99.7244 80.3224 99.9034C80.0923 100.082 79.919 100.33 79.8026 100.645C79.6861 100.96 79.6278 101.321 79.6278 101.727C79.6278 102.136 79.6861 102.501 79.8026 102.822C79.9219 103.141 80.0966 103.392 80.3267 103.577C80.5597 103.759 80.8452 103.849 81.1832 103.849ZM90.0543 102.247V98.4545H91.5969V105H90.1012V103.837H90.033C89.8853 104.203 89.6424 104.503 89.3043 104.736C88.9691 104.969 88.5558 105.085 88.0643 105.085C87.6353 105.085 87.256 104.99 86.9265 104.8C86.5998 104.607 86.3441 104.327 86.1594 103.96C85.9748 103.591 85.8825 103.145 85.8825 102.622V98.4545H87.4251V102.384C87.4251 102.798 87.5387 103.128 87.766 103.372C87.9933 103.616 88.2915 103.739 88.6609 103.739C88.8881 103.739 89.1083 103.683 89.3214 103.572C89.5344 103.462 89.7092 103.297 89.8455 103.078C89.9847 102.857 90.0543 102.58 90.0543 102.247ZM96.0384 105.128C95.3849 105.128 94.8239 104.984 94.3551 104.697C93.8892 104.411 93.5298 104.014 93.277 103.509C93.027 103 92.902 102.415 92.902 101.753C92.902 101.088 93.0298 100.501 93.2855 99.9929C93.5412 99.4815 93.902 99.0838 94.3679 98.7997C94.8366 98.5128 95.3906 98.3693 96.0298 98.3693C96.5611 98.3693 97.0313 98.4673 97.4403 98.6634C97.8523 98.8565 98.1804 99.1307 98.4247 99.4858C98.669 99.8381 98.8082 100.25 98.8423 100.722H97.3679C97.3082 100.406 97.1662 100.143 96.9418 99.9332C96.7202 99.7202 96.4233 99.6136 96.0511 99.6136C95.7358 99.6136 95.4588 99.6989 95.2202 99.8693C94.9815 100.037 94.7955 100.278 94.6619 100.594C94.5313 100.909 94.4659 101.287 94.4659 101.727C94.4659 102.173 94.5313 102.557 94.6619 102.878C94.7926 103.196 94.9759 103.442 95.2116 103.615C95.4503 103.786 95.7301 103.871 96.0511 103.871C96.2784 103.871 96.4815 103.828 96.6605 103.743C96.8423 103.655 96.9943 103.528 97.1165 103.364C97.2386 103.199 97.3224 102.999 97.3679 102.763H98.8423C98.8054 103.226 98.669 103.636 98.4332 103.994C98.1974 104.349 97.8764 104.628 97.4702 104.83C97.0639 105.028 96.5866 105.128 96.0384 105.128ZM103.007 105.128C102.35 105.128 101.784 104.991 101.306 104.719C100.832 104.443 100.467 104.054 100.211 103.551C99.9556 103.045 99.8278 102.45 99.8278 101.766C99.8278 101.092 99.9556 100.501 100.211 99.9929C100.47 99.4815 100.831 99.0838 101.294 98.7997C101.757 98.5128 102.301 98.3693 102.926 98.3693C103.329 98.3693 103.71 98.4347 104.068 98.5653C104.429 98.6932 104.747 98.892 105.022 99.1619C105.301 99.4318 105.52 99.7756 105.679 100.193C105.838 100.608 105.917 101.102 105.917 101.676V102.149H100.552V101.109H104.439C104.436 100.814 104.372 100.551 104.247 100.321C104.122 100.088 103.947 99.9048 103.723 99.7713C103.501 99.6378 103.243 99.571 102.947 99.571C102.632 99.571 102.355 99.6477 102.116 99.8011C101.877 99.9517 101.691 100.151 101.558 100.398C101.427 100.642 101.36 100.911 101.358 101.203V102.111C101.358 102.491 101.427 102.818 101.566 103.091C101.706 103.361 101.9 103.568 102.15 103.713C102.4 103.855 102.693 103.926 103.028 103.926C103.252 103.926 103.456 103.895 103.637 103.832C103.819 103.767 103.977 103.672 104.11 103.547C104.244 103.422 104.345 103.267 104.413 103.082L105.853 103.244C105.762 103.625 105.589 103.957 105.333 104.241C105.081 104.523 104.757 104.741 104.362 104.898C103.967 105.051 103.515 105.128 103.007 105.128ZM113.514 98.4545V99.6477H109.645V98.4545H113.514ZM110.612 105V97.8366C110.612 97.3963 110.703 97.0298 110.885 96.7372C111.07 96.4446 111.317 96.2259 111.626 96.081C111.936 95.9361 112.28 95.8636 112.658 95.8636C112.925 95.8636 113.162 95.8849 113.369 95.9276C113.577 95.9702 113.73 96.0085 113.83 96.0426L113.523 97.2358C113.457 97.2159 113.375 97.196 113.276 97.1761C113.176 97.1534 113.065 97.142 112.943 97.142C112.656 97.142 112.453 97.2116 112.334 97.3509C112.217 97.4872 112.159 97.6832 112.159 97.9389V105H110.612ZM114.722 105V98.4545H116.218V99.5455H116.286C116.406 99.1676 116.61 98.8764 116.9 98.6719C117.192 98.4645 117.526 98.3608 117.901 98.3608C117.987 98.3608 118.082 98.3651 118.187 98.3736C118.295 98.3793 118.384 98.3892 118.455 98.4034V99.8224C118.39 99.7997 118.286 99.7798 118.144 99.7628C118.005 99.7429 117.87 99.733 117.739 99.733C117.458 99.733 117.205 99.794 116.981 99.9162C116.759 100.036 116.585 100.202 116.457 100.415C116.329 100.628 116.265 100.874 116.265 101.152V105H114.722ZM119.48 105V98.4545H121.023V105H119.48ZM120.256 97.5256C120.011 97.5256 119.801 97.4446 119.625 97.2827C119.449 97.1179 119.361 96.9205 119.361 96.6903C119.361 96.4574 119.449 96.2599 119.625 96.098C119.801 95.9332 120.011 95.8509 120.256 95.8509C120.503 95.8509 120.713 95.9332 120.886 96.098C121.063 96.2599 121.151 96.4574 121.151 96.6903C121.151 96.9205 121.063 97.1179 120.886 97.2827C120.713 97.4446 120.503 97.5256 120.256 97.5256ZM122.524 105V104.02L125.899 99.7884V99.733H122.635V98.4545H127.787V99.5071L124.574 103.666V103.722H127.897V105H122.524ZM129.262 105V104.02L132.637 99.7884V99.733H129.373V98.4545H134.525V99.5071L131.312 103.666V103.722H134.636V105H129.262Z" fill="white"/>
<path d="M105.071 115.485C105.962 115.485 106.408 116.562 105.778 117.192L99.7071 123.263C99.3166 123.654 98.6834 123.654 98.2929 123.263L92.2218 117.192C91.5919 116.562 92.038 115.485 92.9289 115.485L105.071 115.485Z" fill="#79CB18"/>
</g>
<g filter="url(#filter1_dd_177_5200)">
<rect x="188.5" width="156" height="49" rx="8" fill="#67AE14"/>
<path d="M207.478 21V12.2727H210.819C211.45 12.2727 211.974 12.3722 212.391 12.571C212.812 12.767 213.126 13.0355 213.333 13.3764C213.543 13.7173 213.648 14.1037 213.648 14.5355C213.648 14.8906 213.58 15.1946 213.444 15.4474C213.308 15.6974 213.124 15.9006 212.894 16.0568C212.664 16.2131 212.407 16.3253 212.123 16.3935V16.4787C212.433 16.4957 212.729 16.5909 213.013 16.7642C213.3 16.9347 213.535 17.1761 213.717 17.4886C213.898 17.8011 213.989 18.179 213.989 18.6222C213.989 19.0739 213.88 19.4801 213.661 19.8409C213.442 20.1989 213.113 20.4815 212.673 20.6889C212.232 20.8963 211.678 21 211.011 21H207.478ZM209.059 19.679H210.759C211.333 19.679 211.746 19.5696 211.999 19.3509C212.255 19.1293 212.383 18.8452 212.383 18.4986C212.383 18.2401 212.319 18.0071 212.191 17.7997C212.063 17.5895 211.881 17.4247 211.646 17.3054C211.41 17.1832 211.129 17.1222 210.802 17.1222H209.059V19.679ZM209.059 15.9844H210.623C210.896 15.9844 211.141 15.9347 211.36 15.8352C211.579 15.733 211.751 15.5895 211.876 15.4048C212.004 15.2173 212.067 14.9957 212.067 14.7401C212.067 14.402 211.948 14.1236 211.71 13.9048C211.474 13.6861 211.123 13.5767 210.657 13.5767H209.059V15.9844ZM218.194 21.1278C217.538 21.1278 216.971 20.9915 216.494 20.7188C216.02 20.4432 215.654 20.054 215.399 19.5511C215.143 19.0455 215.015 18.4503 215.015 17.7656C215.015 17.0923 215.143 16.5014 215.399 15.9929C215.657 15.4815 216.018 15.0838 216.481 14.7997C216.944 14.5128 217.488 14.3693 218.113 14.3693C218.517 14.3693 218.897 14.4347 219.255 14.5653C219.616 14.6932 219.934 14.892 220.21 15.1619C220.488 15.4318 220.707 15.7756 220.866 16.1932C221.025 16.608 221.105 17.1023 221.105 17.6761V18.1491H215.74V17.1094H219.626C219.623 16.8139 219.559 16.5511 219.434 16.321C219.309 16.0881 219.135 15.9048 218.91 15.7713C218.689 15.6378 218.43 15.571 218.135 15.571C217.819 15.571 217.542 15.6477 217.304 15.8011C217.065 15.9517 216.879 16.1506 216.745 16.3977C216.615 16.642 216.548 16.9105 216.545 17.2031V18.1108C216.545 18.4915 216.615 18.8182 216.754 19.0909C216.893 19.3608 217.088 19.5682 217.338 19.7131C217.588 19.8551 217.88 19.9261 218.216 19.9261C218.44 19.9261 218.643 19.8949 218.825 19.8324C219.007 19.767 219.164 19.6719 219.298 19.5469C219.431 19.4219 219.532 19.267 219.6 19.0824L221.041 19.2443C220.95 19.625 220.777 19.9574 220.521 20.2415C220.268 20.5227 219.944 20.7415 219.549 20.8977C219.154 21.0511 218.703 21.1278 218.194 21.1278ZM225.678 14.4545V15.6477H221.915V14.4545H225.678ZM222.844 12.8864H224.387V19.0312C224.387 19.2386 224.418 19.3977 224.481 19.5085C224.546 19.6165 224.631 19.6903 224.737 19.7301C224.842 19.7699 224.958 19.7898 225.086 19.7898C225.183 19.7898 225.271 19.7827 225.35 19.7685C225.433 19.7543 225.495 19.7415 225.538 19.7301L225.798 20.9361C225.715 20.9645 225.597 20.9957 225.444 21.0298C225.293 21.0639 225.109 21.0838 224.89 21.0895C224.504 21.1009 224.156 21.0426 223.846 20.9148C223.536 20.7841 223.29 20.5824 223.109 20.3097C222.93 20.0369 222.842 19.696 222.844 19.2869V12.8864ZM230.237 14.4545V15.6477H226.474V14.4545H230.237ZM227.403 12.8864H228.946V19.0312C228.946 19.2386 228.977 19.3977 229.039 19.5085C229.105 19.6165 229.19 19.6903 229.295 19.7301C229.4 19.7699 229.517 19.7898 229.645 19.7898C229.741 19.7898 229.829 19.7827 229.909 19.7685C229.991 19.7543 230.054 19.7415 230.096 19.7301L230.356 20.9361C230.274 20.9645 230.156 20.9957 230.002 21.0298C229.852 21.0639 229.667 21.0838 229.449 21.0895C229.062 21.1009 228.714 21.0426 228.404 20.9148C228.095 20.7841 227.849 20.5824 227.667 20.3097C227.488 20.0369 227.4 19.696 227.403 19.2869V12.8864ZM234.354 21.1278C233.698 21.1278 233.131 20.9915 232.654 20.7188C232.18 20.4432 231.815 20.054 231.559 19.5511C231.303 19.0455 231.175 18.4503 231.175 17.7656C231.175 17.0923 231.303 16.5014 231.559 15.9929C231.817 15.4815 232.178 15.0838 232.641 14.7997C233.104 14.5128 233.648 14.3693 234.273 14.3693C234.677 14.3693 235.058 14.4347 235.415 14.5653C235.776 14.6932 236.094 14.892 236.37 15.1619C236.648 15.4318 236.867 15.7756 237.026 16.1932C237.185 16.608 237.265 17.1023 237.265 17.6761V18.1491H231.9V17.1094H235.786C235.783 16.8139 235.719 16.5511 235.594 16.321C235.469 16.0881 235.295 15.9048 235.07 15.7713C234.849 15.6378 234.59 15.571 234.295 15.571C233.979 15.571 233.702 15.6477 233.464 15.8011C233.225 15.9517 233.039 16.1506 232.906 16.3977C232.775 16.642 232.708 16.9105 232.705 17.2031V18.1108C232.705 18.4915 232.775 18.8182 232.914 19.0909C233.053 19.3608 233.248 19.5682 233.498 19.7131C233.748 19.8551 234.04 19.9261 234.376 19.9261C234.6 19.9261 234.803 19.8949 234.985 19.8324C235.167 19.767 235.325 19.6719 235.458 19.5469C235.592 19.4219 235.692 19.267 235.761 19.0824L237.201 19.2443C237.11 19.625 236.937 19.9574 236.681 20.2415C236.428 20.5227 236.104 20.7415 235.71 20.8977C235.315 21.0511 234.863 21.1278 234.354 21.1278ZM238.57 21V14.4545H240.066V15.5455H240.134C240.253 15.1676 240.458 14.8764 240.748 14.6719C241.04 14.4645 241.374 14.3608 241.749 14.3608C241.834 14.3608 241.929 14.3651 242.034 14.3736C242.142 14.3793 242.232 14.3892 242.303 14.4034V15.8224C242.238 15.7997 242.134 15.7798 241.992 15.7628C241.853 15.7429 241.718 15.733 241.587 15.733C241.306 15.733 241.053 15.794 240.828 15.9162C240.607 16.0355 240.432 16.2017 240.304 16.4148C240.176 16.6278 240.113 16.8736 240.113 17.152V21H238.57ZM247.002 16.7301V18H243.073V16.7301H247.002ZM250.167 12.2727V21H248.625V12.2727H250.167ZM254.609 21.1278C253.969 21.1278 253.415 20.9872 252.947 20.706C252.478 20.4247 252.114 20.0312 251.856 19.5256C251.6 19.0199 251.472 18.429 251.472 17.7528C251.472 17.0767 251.6 16.4844 251.856 15.9759C252.114 15.4673 252.478 15.0724 252.947 14.7912C253.415 14.5099 253.969 14.3693 254.609 14.3693C255.248 14.3693 255.802 14.5099 256.271 14.7912C256.739 15.0724 257.102 15.4673 257.357 15.9759C257.616 16.4844 257.745 17.0767 257.745 17.7528C257.745 18.429 257.616 19.0199 257.357 19.5256C257.102 20.0312 256.739 20.4247 256.271 20.706C255.802 20.9872 255.248 21.1278 254.609 21.1278ZM254.617 19.892C254.964 19.892 255.254 19.7969 255.487 19.6065C255.719 19.4134 255.893 19.1548 256.006 18.831C256.123 18.5071 256.181 18.1463 256.181 17.7486C256.181 17.348 256.123 16.9858 256.006 16.6619C255.893 16.3352 255.719 16.0753 255.487 15.8821C255.254 15.6889 254.964 15.5923 254.617 15.5923C254.262 15.5923 253.967 15.6889 253.731 15.8821C253.498 16.0753 253.323 16.3352 253.207 16.6619C253.093 16.9858 253.036 17.348 253.036 17.7486C253.036 18.1463 253.093 18.5071 253.207 18.831C253.323 19.1548 253.498 19.4134 253.731 19.6065C253.967 19.7969 254.262 19.892 254.617 19.892ZM261.909 21.1278C261.27 21.1278 260.716 20.9872 260.248 20.706C259.779 20.4247 259.415 20.0312 259.157 19.5256C258.901 19.0199 258.773 18.429 258.773 17.7528C258.773 17.0767 258.901 16.4844 259.157 15.9759C259.415 15.4673 259.779 15.0724 260.248 14.7912C260.716 14.5099 261.27 14.3693 261.909 14.3693C262.549 14.3693 263.103 14.5099 263.571 14.7912C264.04 15.0724 264.402 15.4673 264.658 15.9759C264.917 16.4844 265.046 17.0767 265.046 17.7528C265.046 18.429 264.917 19.0199 264.658 19.5256C264.402 20.0312 264.04 20.4247 263.571 20.706C263.103 20.9872 262.549 21.1278 261.909 21.1278ZM261.918 19.892C262.265 19.892 262.554 19.7969 262.787 19.6065C263.02 19.4134 263.194 19.1548 263.307 18.831C263.424 18.5071 263.482 18.1463 263.482 17.7486C263.482 17.348 263.424 16.9858 263.307 16.6619C263.194 16.3352 263.02 16.0753 262.787 15.8821C262.554 15.6889 262.265 15.5923 261.918 15.5923C261.563 15.5923 261.267 15.6889 261.032 15.8821C260.799 16.0753 260.624 16.3352 260.507 16.6619C260.394 16.9858 260.337 17.348 260.337 17.7486C260.337 18.1463 260.394 18.5071 260.507 18.831C260.624 19.1548 260.799 19.4134 261.032 19.6065C261.267 19.7969 261.563 19.892 261.918 19.892ZM267.761 18.946L267.757 17.0838H268.004L270.357 14.4545H272.159L269.266 17.6761H268.946L267.761 18.946ZM266.355 21V12.2727H267.898V21H266.355ZM270.463 21L268.332 18.0213L269.372 16.9347L272.308 21H270.463ZM273.187 21V14.4545H274.73V21H273.187ZM273.963 13.5256C273.718 13.5256 273.508 13.4446 273.332 13.2827C273.156 13.1179 273.068 12.9205 273.068 12.6903C273.068 12.4574 273.156 12.2599 273.332 12.098C273.508 11.9332 273.718 11.8509 273.963 11.8509C274.21 11.8509 274.42 11.9332 274.593 12.098C274.77 12.2599 274.858 12.4574 274.858 12.6903C274.858 12.9205 274.77 13.1179 274.593 13.2827C274.42 13.4446 274.21 13.5256 273.963 13.5256ZM277.859 17.1648V21H276.316V14.4545H277.79V15.5668H277.867C278.018 15.2003 278.258 14.9091 278.587 14.6932C278.92 14.4773 279.33 14.3693 279.819 14.3693C280.271 14.3693 280.664 14.4659 280.999 14.6591C281.337 14.8523 281.599 15.1321 281.783 15.4986C281.971 15.8651 282.063 16.3097 282.06 16.8324V21H280.518V17.071C280.518 16.6335 280.404 16.2912 280.177 16.044C279.952 15.7969 279.641 15.6733 279.244 15.6733C278.974 15.6733 278.734 15.733 278.523 15.8523C278.316 15.9687 278.153 16.1378 278.033 16.3594C277.917 16.581 277.859 16.8494 277.859 17.1648ZM286.475 23.5909C285.921 23.5909 285.445 23.5156 285.048 23.3651C284.65 23.2173 284.33 23.0185 284.089 22.7685C283.847 22.5185 283.68 22.2415 283.586 21.9375L284.975 21.6009C285.038 21.7287 285.129 21.8551 285.248 21.9801C285.367 22.108 285.528 22.2131 285.729 22.2955C285.934 22.3807 286.191 22.4233 286.501 22.4233C286.938 22.4233 287.3 22.3168 287.587 22.1037C287.874 21.8935 288.018 21.5469 288.018 21.0639V19.8239H287.941C287.862 19.983 287.745 20.1463 287.592 20.3139C287.441 20.4815 287.241 20.6222 286.991 20.7358C286.744 20.8494 286.433 20.9062 286.058 20.9062C285.555 20.9062 285.099 20.7884 284.69 20.5526C284.283 20.3139 283.96 19.9588 283.718 19.4872C283.479 19.0128 283.36 18.419 283.36 17.706C283.36 16.9872 283.479 16.3807 283.718 15.8864C283.96 15.3892 284.285 15.0128 284.694 14.7571C285.103 14.4986 285.559 14.3693 286.062 14.3693C286.445 14.3693 286.761 14.4347 287.008 14.5653C287.258 14.6932 287.457 14.848 287.604 15.0298C287.752 15.2088 287.864 15.3778 287.941 15.5369H288.026V14.4545H289.548V21.1065C289.548 21.6662 289.414 22.1293 289.147 22.4957C288.88 22.8622 288.515 23.1364 288.052 23.3182C287.589 23.5 287.063 23.5909 286.475 23.5909ZM286.488 19.696C286.815 19.696 287.093 19.6165 287.323 19.4574C287.553 19.2983 287.728 19.0696 287.847 18.7713C287.967 18.473 288.026 18.1151 288.026 17.6974C288.026 17.2855 287.967 16.9247 287.847 16.6151C287.731 16.3054 287.558 16.0653 287.327 15.8949C287.1 15.7216 286.82 15.6349 286.488 15.6349C286.144 15.6349 285.857 15.7244 285.627 15.9034C285.397 16.0824 285.224 16.3281 285.107 16.6406C284.991 16.9503 284.933 17.3026 284.933 17.6974C284.933 18.098 284.991 18.4489 285.107 18.75C285.227 19.0483 285.401 19.2812 285.631 19.4489C285.864 19.6136 286.15 19.696 286.488 19.696ZM295.648 17.1648V21H294.105V12.2727H295.614V15.5668H295.69C295.844 15.1974 296.081 14.9062 296.402 14.6932C296.726 14.4773 297.138 14.3693 297.638 14.3693C298.092 14.3693 298.489 14.4645 298.827 14.6548C299.165 14.8452 299.426 15.1236 299.611 15.4901C299.798 15.8565 299.892 16.304 299.892 16.8324V21H298.349V17.071C298.349 16.6307 298.236 16.2884 298.009 16.044C297.784 15.7969 297.469 15.6733 297.062 15.6733C296.79 15.6733 296.545 15.733 296.33 15.8523C296.116 15.9687 295.949 16.1378 295.827 16.3594C295.707 16.581 295.648 16.8494 295.648 17.1648ZM303.348 21.1321C302.933 21.1321 302.56 21.0582 302.227 20.9105C301.898 20.7599 301.636 20.5384 301.443 20.2457C301.253 19.9531 301.158 19.5923 301.158 19.1634C301.158 18.794 301.226 18.4886 301.362 18.2472C301.499 18.0057 301.685 17.8125 301.92 17.6676C302.156 17.5227 302.422 17.4134 302.717 17.3395C303.016 17.2628 303.324 17.2074 303.642 17.1733C304.026 17.1335 304.337 17.098 304.575 17.0668C304.814 17.0327 304.987 16.9815 305.095 16.9134C305.206 16.8423 305.261 16.733 305.261 16.5852V16.5597C305.261 16.2386 305.166 15.9901 304.976 15.8139C304.786 15.6378 304.511 15.5497 304.153 15.5497C303.776 15.5497 303.476 15.6321 303.254 15.7969C303.036 15.9616 302.888 16.1562 302.811 16.3807L301.371 16.1761C301.484 15.7784 301.672 15.446 301.933 15.179C302.195 14.9091 302.514 14.7074 302.892 14.5739C303.27 14.4375 303.688 14.3693 304.145 14.3693C304.46 14.3693 304.774 14.4062 305.087 14.4801C305.399 14.554 305.685 14.6761 305.943 14.8466C306.202 15.0142 306.409 15.2429 306.565 15.5327C306.724 15.8224 306.804 16.1847 306.804 16.6193V21H305.321V20.1009H305.27C305.176 20.2827 305.044 20.4531 304.874 20.6122C304.706 20.7685 304.494 20.8949 304.239 20.9915C303.986 21.0852 303.689 21.1321 303.348 21.1321ZM303.749 19.9986C304.058 19.9986 304.327 19.9375 304.554 19.8153C304.781 19.6903 304.956 19.5256 305.078 19.321C305.203 19.1165 305.266 18.8935 305.266 18.652V17.8807C305.217 17.9205 305.135 17.9574 305.018 17.9915C304.905 18.0256 304.777 18.0554 304.635 18.081C304.493 18.1065 304.352 18.1293 304.213 18.1491C304.074 18.169 303.953 18.1861 303.851 18.2003C303.621 18.2315 303.415 18.2827 303.233 18.3537C303.051 18.4247 302.908 18.5241 302.803 18.652C302.697 18.777 302.645 18.9389 302.645 19.1378C302.645 19.4219 302.749 19.6364 302.956 19.7812C303.163 19.9261 303.428 19.9986 303.749 19.9986ZM308.355 21V14.4545H309.898V21H308.355ZM309.131 13.5256C308.886 13.5256 308.676 13.4446 308.5 13.2827C308.324 13.1179 308.236 12.9205 308.236 12.6903C308.236 12.4574 308.324 12.2599 308.5 12.098C308.676 11.9332 308.886 11.8509 309.131 11.8509C309.378 11.8509 309.588 11.9332 309.761 12.098C309.938 12.2599 310.026 12.4574 310.026 12.6903C310.026 12.9205 309.938 13.1179 309.761 13.2827C309.588 13.4446 309.378 13.5256 309.131 13.5256ZM311.484 21V14.4545H312.98V15.5455H313.048C313.167 15.1676 313.372 14.8764 313.662 14.6719C313.954 14.4645 314.288 14.3608 314.663 14.3608C314.748 14.3608 314.843 14.3651 314.949 14.3736C315.056 14.3793 315.146 14.3892 315.217 14.4034V15.8224C315.152 15.7997 315.048 15.7798 314.906 15.7628C314.767 15.7429 314.632 15.733 314.501 15.733C314.22 15.733 313.967 15.794 313.743 15.9162C313.521 16.0355 313.346 16.2017 313.218 16.4148C313.091 16.6278 313.027 16.8736 313.027 17.152V21H311.484ZM321.826 21.1278C321.23 21.1278 320.717 21.0199 320.288 20.804C319.859 20.5881 319.528 20.2969 319.295 19.9304C319.065 19.5611 318.95 19.1449 318.95 18.6818C318.95 18.3324 319.021 18.0227 319.163 17.7528C319.308 17.483 319.507 17.233 319.76 17.0028C320.015 16.7727 320.311 16.544 320.646 16.3168L322.193 15.2642C322.42 15.1165 322.592 14.9602 322.708 14.7955C322.828 14.6307 322.887 14.4375 322.887 14.2159C322.887 14.0284 322.808 13.8509 322.649 13.6832C322.493 13.5156 322.277 13.4318 322.001 13.4318C321.816 13.4318 321.653 13.4759 321.511 13.5639C321.372 13.6491 321.262 13.7614 321.183 13.9006C321.106 14.0398 321.068 14.1875 321.068 14.3438C321.068 14.5341 321.12 14.7273 321.225 14.9233C321.333 15.1193 321.473 15.3224 321.643 15.5327C321.816 15.7429 322.001 15.9659 322.197 16.2017L326.292 21H324.622L321.221 17.1051C320.968 16.8097 320.724 16.5185 320.488 16.2315C320.255 15.9446 320.064 15.6463 319.913 15.3366C319.765 15.0241 319.691 14.6861 319.691 14.3224C319.691 13.9105 319.787 13.5426 319.977 13.2188C320.167 12.892 320.433 12.6349 320.774 12.4474C321.118 12.2599 321.52 12.1662 321.98 12.1662C322.44 12.1662 322.835 12.2571 323.164 12.4389C323.494 12.6207 323.748 12.8622 323.927 13.1634C324.106 13.4645 324.196 13.7926 324.196 14.1477C324.196 14.5597 324.093 14.929 323.889 15.2557C323.684 15.5795 323.4 15.8736 323.037 16.1378L321.272 17.429C320.983 17.6392 320.775 17.8523 320.65 18.0682C320.525 18.2812 320.463 18.4631 320.463 18.6136C320.463 18.8437 320.521 19.0526 320.637 19.2401C320.754 19.4276 320.917 19.5781 321.127 19.6918C321.341 19.8026 321.589 19.858 321.873 19.858C322.186 19.858 322.494 19.7884 322.798 19.6491C323.102 19.5071 323.379 19.3054 323.629 19.044C323.879 18.7827 324.078 18.4702 324.225 18.1065C324.373 17.7401 324.447 17.3338 324.447 16.8878H325.772C325.772 17.4389 325.711 17.919 325.589 18.3281C325.467 18.7344 325.309 19.0781 325.116 19.3594C324.923 19.6378 324.718 19.8608 324.502 20.0284C324.434 20.0767 324.369 20.125 324.306 20.1733C324.244 20.2216 324.179 20.2699 324.11 20.3182C323.804 20.5966 323.444 20.8011 323.032 20.9318C322.623 21.0625 322.221 21.1278 321.826 21.1278ZM217.418 39V32.4545H218.913V33.5455H218.982C219.101 33.1676 219.305 32.8764 219.595 32.6719C219.888 32.4645 220.222 32.3608 220.597 32.3608C220.682 32.3608 220.777 32.3651 220.882 32.3736C220.99 32.3793 221.08 32.3892 221.151 32.4034V33.8224C221.085 33.7997 220.982 33.7798 220.839 33.7628C220.7 33.7429 220.565 33.733 220.435 33.733C220.153 33.733 219.901 33.794 219.676 33.9162C219.455 34.0355 219.28 34.2017 219.152 34.4148C219.024 34.6278 218.96 34.8736 218.96 35.152V39H217.418ZM224.804 39.1278C224.147 39.1278 223.581 38.9915 223.103 38.7188C222.629 38.4432 222.264 38.054 222.008 37.5511C221.752 37.0455 221.625 36.4503 221.625 35.7656C221.625 35.0923 221.752 34.5014 222.008 33.9929C222.267 33.4815 222.627 33.0838 223.091 32.7997C223.554 32.5128 224.098 32.3693 224.723 32.3693C225.126 32.3693 225.507 32.4347 225.865 32.5653C226.225 32.6932 226.544 32.892 226.819 33.1619C227.098 33.4318 227.316 33.7756 227.475 34.1932C227.635 34.608 227.714 35.1023 227.714 35.6761V36.1491H222.349V35.1094H226.235C226.233 34.8139 226.169 34.5511 226.044 34.321C225.919 34.0881 225.744 33.9048 225.52 33.7713C225.298 33.6378 225.039 33.571 224.744 33.571C224.429 33.571 224.152 33.6477 223.913 33.8011C223.674 33.9517 223.488 34.1506 223.355 34.3977C223.224 34.642 223.157 34.9105 223.154 35.2031V36.1108C223.154 36.4915 223.224 36.8182 223.363 37.0909C223.502 37.3608 223.697 37.5682 223.947 37.7131C224.197 37.8551 224.49 37.9261 224.825 37.9261C225.049 37.9261 225.252 37.8949 225.434 37.8324C225.616 37.767 225.774 37.6719 225.907 37.5469C226.041 37.4219 226.142 37.267 226.21 37.0824L227.65 37.2443C227.559 37.625 227.386 37.9574 227.13 38.2415C226.877 38.5227 226.554 38.7415 226.159 38.8977C225.764 39.0511 225.312 39.1278 224.804 39.1278ZM231.448 39.1151C230.934 39.1151 230.474 38.983 230.067 38.7188C229.661 38.4545 229.34 38.071 229.104 37.5682C228.869 37.0653 228.751 36.4545 228.751 35.7358C228.751 35.0085 228.87 34.3949 229.109 33.8949C229.35 33.392 229.675 33.0128 230.085 32.7571C230.494 32.4986 230.95 32.3693 231.452 32.3693C231.836 32.3693 232.151 32.4347 232.398 32.5653C232.646 32.6932 232.842 32.848 232.987 33.0298C233.131 33.2088 233.244 33.3778 233.323 33.5369H233.387V30.2727H234.934V39H233.417V37.9688H233.323C233.244 38.1278 233.129 38.2969 232.978 38.4759C232.827 38.652 232.629 38.8026 232.381 38.9276C232.134 39.0526 231.823 39.1151 231.448 39.1151ZM231.879 37.8494C232.205 37.8494 232.484 37.7614 232.714 37.5852C232.944 37.4062 233.119 37.1577 233.238 36.8395C233.357 36.5213 233.417 36.1506 233.417 35.7273C233.417 35.304 233.357 34.9361 233.238 34.6236C233.121 34.3111 232.948 34.0682 232.718 33.8949C232.491 33.7216 232.211 33.6349 231.879 33.6349C231.535 33.6349 231.248 33.7244 231.018 33.9034C230.788 34.0824 230.614 34.3295 230.498 34.6449C230.381 34.9602 230.323 35.321 230.323 35.7273C230.323 36.1364 230.381 36.5014 230.498 36.8224C230.617 37.1406 230.792 37.392 231.022 37.5767C231.255 37.7585 231.54 37.8494 231.879 37.8494ZM240.75 36.2472V32.4545H242.292V39H240.797V37.8366H240.728C240.581 38.2031 240.338 38.5028 240 38.7358C239.664 38.9687 239.251 39.0852 238.76 39.0852C238.331 39.0852 237.951 38.9901 237.622 38.7997C237.295 38.6065 237.039 38.3267 236.855 37.9602C236.67 37.5909 236.578 37.1449 236.578 36.6222V32.4545H238.12V36.3835C238.12 36.7983 238.234 37.1278 238.461 37.3722C238.689 37.6165 238.987 37.7386 239.356 37.7386C239.583 37.7386 239.804 37.6832 240.017 37.5724C240.23 37.4616 240.404 37.2969 240.541 37.0781C240.68 36.8565 240.75 36.5795 240.75 36.2472ZM246.734 39.1278C246.08 39.1278 245.519 38.9844 245.05 38.6974C244.585 38.4105 244.225 38.0142 243.972 37.5085C243.722 37 243.597 36.4148 243.597 35.7528C243.597 35.0881 243.725 34.5014 243.981 33.9929C244.237 33.4815 244.597 33.0838 245.063 32.7997C245.532 32.5128 246.086 32.3693 246.725 32.3693C247.256 32.3693 247.727 32.4673 248.136 32.6634C248.548 32.8565 248.876 33.1307 249.12 33.4858C249.364 33.8381 249.504 34.25 249.538 34.7216H248.063C248.004 34.4062 247.862 34.1435 247.637 33.9332C247.415 33.7202 247.119 33.6136 246.746 33.6136C246.431 33.6136 246.154 33.6989 245.915 33.8693C245.677 34.0369 245.491 34.2784 245.357 34.5938C245.227 34.9091 245.161 35.2869 245.161 35.7273C245.161 36.1733 245.227 36.5568 245.357 36.8778C245.488 37.196 245.671 37.4418 245.907 37.6151C246.146 37.7855 246.425 37.8707 246.746 37.8707C246.974 37.8707 247.177 37.8281 247.356 37.7429C247.538 37.6548 247.69 37.5284 247.812 37.3636C247.934 37.1989 248.018 36.9986 248.063 36.7628H249.538C249.501 37.2259 249.364 37.6364 249.129 37.9943C248.893 38.3494 248.572 38.6278 248.165 38.8295C247.759 39.0284 247.282 39.1278 246.734 39.1278ZM253.702 39.1278C253.046 39.1278 252.479 38.9915 252.002 38.7188C251.527 38.4432 251.162 38.054 250.907 37.5511C250.651 37.0455 250.523 36.4503 250.523 35.7656C250.523 35.0923 250.651 34.5014 250.907 33.9929C251.165 33.4815 251.526 33.0838 251.989 32.7997C252.452 32.5128 252.996 32.3693 253.621 32.3693C254.025 32.3693 254.405 32.4347 254.763 32.5653C255.124 32.6932 255.442 32.892 255.718 33.1619C255.996 33.4318 256.215 33.7756 256.374 34.1932C256.533 34.608 256.613 35.1023 256.613 35.6761V36.1491H251.248V35.1094H255.134C255.131 34.8139 255.067 34.5511 254.942 34.321C254.817 34.0881 254.642 33.9048 254.418 33.7713C254.196 33.6378 253.938 33.571 253.642 33.571C253.327 33.571 253.05 33.6477 252.811 33.8011C252.573 33.9517 252.387 34.1506 252.253 34.3977C252.123 34.642 252.056 34.9105 252.053 35.2031V36.1108C252.053 36.4915 252.123 36.8182 252.262 37.0909C252.401 37.3608 252.596 37.5682 252.846 37.7131C253.096 37.8551 253.388 37.9261 253.723 37.9261C253.948 37.9261 254.151 37.8949 254.333 37.8324C254.515 37.767 254.672 37.6719 254.806 37.5469C254.939 37.4219 255.04 37.267 255.108 37.0824L256.549 37.2443C256.458 37.625 256.284 37.9574 256.029 38.2415C255.776 38.5227 255.452 38.7415 255.057 38.8977C254.662 39.0511 254.211 39.1278 253.702 39.1278ZM260.347 39.1151C259.832 39.1151 259.372 38.983 258.966 38.7188C258.56 38.4545 258.239 38.071 258.003 37.5682C257.767 37.0653 257.649 36.4545 257.649 35.7358C257.649 35.0085 257.768 34.3949 258.007 33.8949C258.249 33.392 258.574 33.0128 258.983 32.7571C259.392 32.4986 259.848 32.3693 260.351 32.3693C260.734 32.3693 261.05 32.4347 261.297 32.5653C261.544 32.6932 261.74 32.848 261.885 33.0298C262.03 33.2088 262.142 33.3778 262.222 33.5369H262.286V30.2727H263.832V39H262.315V37.9688H262.222C262.142 38.1278 262.027 38.2969 261.876 38.4759C261.726 38.652 261.527 38.8026 261.28 38.9276C261.033 39.0526 260.722 39.1151 260.347 39.1151ZM260.777 37.8494C261.104 37.8494 261.382 37.7614 261.612 37.5852C261.842 37.4062 262.017 37.1577 262.136 36.8395C262.256 36.5213 262.315 36.1506 262.315 35.7273C262.315 35.304 262.256 34.9361 262.136 34.6236C262.02 34.3111 261.847 34.0682 261.616 33.8949C261.389 33.7216 261.109 33.6349 260.777 33.6349C260.433 33.6349 260.146 33.7244 259.916 33.9034C259.686 34.0824 259.513 34.3295 259.396 34.6449C259.28 34.9602 259.222 35.321 259.222 35.7273C259.222 36.1364 259.28 36.5014 259.396 36.8224C259.516 37.1406 259.69 37.392 259.92 37.5767C260.153 37.7585 260.439 37.8494 260.777 37.8494ZM269.995 35.1648V39H268.453V30.2727H269.961V33.5668H270.038C270.191 33.1974 270.429 32.9062 270.75 32.6932C271.074 32.4773 271.485 32.3693 271.985 32.3693C272.44 32.3693 272.836 32.4645 273.174 32.6548C273.512 32.8452 273.774 33.1236 273.958 33.4901C274.146 33.8565 274.24 34.304 274.24 34.8324V39H272.697V35.071C272.697 34.6307 272.583 34.2884 272.356 34.044C272.132 33.7969 271.816 33.6733 271.41 33.6733C271.137 33.6733 270.893 33.733 270.677 33.8523C270.464 33.9687 270.297 34.1378 270.174 34.3594C270.055 34.581 269.995 34.8494 269.995 35.1648ZM277.696 39.1321C277.281 39.1321 276.907 39.0582 276.575 38.9105C276.245 38.7599 275.984 38.5384 275.791 38.2457C275.6 37.9531 275.505 37.5923 275.505 37.1634C275.505 36.794 275.574 36.4886 275.71 36.2472C275.846 36.0057 276.032 35.8125 276.268 35.6676C276.504 35.5227 276.77 35.4134 277.065 35.3395C277.363 35.2628 277.672 35.2074 277.99 35.1733C278.373 35.1335 278.684 35.098 278.923 35.0668C279.162 35.0327 279.335 34.9815 279.443 34.9134C279.554 34.8423 279.609 34.733 279.609 34.5852V34.5597C279.609 34.2386 279.514 33.9901 279.324 33.8139C279.133 33.6378 278.859 33.5497 278.501 33.5497C278.123 33.5497 277.824 33.6321 277.602 33.7969C277.383 33.9616 277.235 34.1562 277.159 34.3807L275.718 34.1761C275.832 33.7784 276.02 33.446 276.281 33.179C276.542 32.9091 276.862 32.7074 277.24 32.5739C277.618 32.4375 278.035 32.3693 278.493 32.3693C278.808 32.3693 279.122 32.4062 279.434 32.4801C279.747 32.554 280.032 32.6761 280.291 32.8466C280.549 33.0142 280.757 33.2429 280.913 33.5327C281.072 33.8224 281.152 34.1847 281.152 34.6193V39H279.669V38.1009H279.618C279.524 38.2827 279.392 38.4531 279.221 38.6122C279.054 38.7685 278.842 38.8949 278.586 38.9915C278.333 39.0852 278.037 39.1321 277.696 39.1321ZM278.096 37.9986C278.406 37.9986 278.674 37.9375 278.902 37.8153C279.129 37.6903 279.304 37.5256 279.426 37.321C279.551 37.1165 279.613 36.8935 279.613 36.652V35.8807C279.565 35.9205 279.483 35.9574 279.366 35.9915C279.252 36.0256 279.125 36.0554 278.983 36.081C278.841 36.1065 278.7 36.1293 278.561 36.1491C278.422 36.169 278.301 36.1861 278.199 36.2003C277.968 36.2315 277.762 36.2827 277.581 36.3537C277.399 36.4247 277.255 36.5241 277.15 36.652C277.045 36.777 276.993 36.9389 276.993 37.1378C276.993 37.4219 277.096 37.6364 277.304 37.7812C277.511 37.9261 277.775 37.9986 278.096 37.9986ZM282.703 39V32.4545H284.245V39H282.703ZM283.478 31.5256C283.234 31.5256 283.024 31.4446 282.848 31.2827C282.672 31.1179 282.583 30.9205 282.583 30.6903C282.583 30.4574 282.672 30.2599 282.848 30.098C283.024 29.9332 283.234 29.8509 283.478 29.8509C283.725 29.8509 283.936 29.9332 284.109 30.098C284.285 30.2599 284.373 30.4574 284.373 30.6903C284.373 30.9205 284.285 31.1179 284.109 31.2827C283.936 31.4446 283.725 31.5256 283.478 31.5256ZM285.832 39V32.4545H287.327V33.5455H287.396C287.515 33.1676 287.719 32.8764 288.009 32.6719C288.302 32.4645 288.636 32.3608 289.011 32.3608C289.096 32.3608 289.191 32.3651 289.296 32.3736C289.404 32.3793 289.494 32.3892 289.565 32.4034V33.8224C289.499 33.7997 289.396 33.7798 289.254 33.7628C289.114 33.7429 288.979 33.733 288.849 33.733C288.567 33.733 288.315 33.794 288.09 33.9162C287.869 34.0355 287.694 34.2017 287.566 34.4148C287.438 34.6278 287.374 34.8736 287.374 35.152V39H285.832ZM295.109 30.2727V39H293.566V30.2727H295.109ZM299.55 39.1278C298.911 39.1278 298.357 38.9872 297.888 38.706C297.419 38.4247 297.056 38.0312 296.797 37.5256C296.542 37.0199 296.414 36.429 296.414 35.7528C296.414 35.0767 296.542 34.4844 296.797 33.9759C297.056 33.4673 297.419 33.0724 297.888 32.7912C298.357 32.5099 298.911 32.3693 299.55 32.3693C300.189 32.3693 300.743 32.5099 301.212 32.7912C301.681 33.0724 302.043 33.4673 302.299 33.9759C302.557 34.4844 302.686 35.0767 302.686 35.7528C302.686 36.429 302.557 37.0199 302.299 37.5256C302.043 38.0312 301.681 38.4247 301.212 38.706C300.743 38.9872 300.189 39.1278 299.55 39.1278ZM299.559 37.892C299.905 37.892 300.195 37.7969 300.428 37.6065C300.661 37.4134 300.834 37.1548 300.948 36.831C301.064 36.5071 301.123 36.1463 301.123 35.7486C301.123 35.348 301.064 34.9858 300.948 34.6619C300.834 34.3352 300.661 34.0753 300.428 33.8821C300.195 33.6889 299.905 33.5923 299.559 33.5923C299.203 33.5923 298.908 33.6889 298.672 33.8821C298.439 34.0753 298.265 34.3352 298.148 34.6619C298.034 34.9858 297.978 35.348 297.978 35.7486C297.978 36.1463 298.034 36.5071 298.148 36.831C298.265 37.1548 298.439 37.4134 298.672 37.6065C298.908 37.7969 299.203 37.892 299.559 37.892ZM309.169 34.1847L307.763 34.3381C307.723 34.196 307.653 34.0625 307.554 33.9375C307.457 33.8125 307.327 33.7116 307.162 33.6349C306.997 33.5582 306.795 33.5199 306.557 33.5199C306.236 33.5199 305.966 33.5895 305.747 33.7287C305.531 33.8679 305.425 34.0483 305.428 34.2699C305.425 34.4602 305.494 34.6151 305.636 34.7344C305.781 34.8537 306.02 34.9517 306.352 35.0284L307.469 35.267C308.088 35.4006 308.548 35.6122 308.849 35.902C309.153 36.1918 309.307 36.571 309.31 37.0398C309.307 37.4517 309.186 37.8153 308.947 38.1307C308.712 38.4432 308.384 38.6875 307.963 38.8636C307.543 39.0398 307.06 39.1278 306.514 39.1278C305.713 39.1278 305.068 38.9602 304.58 38.625C304.091 38.2869 303.8 37.8168 303.706 37.2145L305.21 37.0696C305.278 37.3651 305.423 37.5881 305.645 37.7386C305.866 37.8892 306.155 37.9645 306.51 37.9645C306.876 37.9645 307.17 37.8892 307.392 37.7386C307.616 37.5881 307.729 37.402 307.729 37.1804C307.729 36.9929 307.656 36.8381 307.511 36.7159C307.369 36.5937 307.148 36.5 306.847 36.4347L305.73 36.2003C305.102 36.0696 304.638 35.8494 304.337 35.5398C304.036 35.2273 303.886 34.8324 303.889 34.3551C303.886 33.9517 303.996 33.6023 304.217 33.3068C304.442 33.0085 304.753 32.7784 305.151 32.6165C305.551 32.4517 306.013 32.3693 306.536 32.3693C307.303 32.3693 307.906 32.5327 308.347 32.8594C308.79 33.1861 309.064 33.6278 309.169 34.1847ZM315.755 34.1847L314.349 34.3381C314.309 34.196 314.239 34.0625 314.14 33.9375C314.043 33.8125 313.913 33.7116 313.748 33.6349C313.583 33.5582 313.381 33.5199 313.143 33.5199C312.822 33.5199 312.552 33.5895 312.333 33.7287C312.117 33.8679 312.011 34.0483 312.013 34.2699C312.011 34.4602 312.08 34.6151 312.222 34.7344C312.367 34.8537 312.606 34.9517 312.938 35.0284L314.055 35.267C314.674 35.4006 315.134 35.6122 315.435 35.902C315.739 36.1918 315.893 36.571 315.896 37.0398C315.893 37.4517 315.772 37.8153 315.533 38.1307C315.298 38.4432 314.969 38.6875 314.549 38.8636C314.129 39.0398 313.646 39.1278 313.1 39.1278C312.299 39.1278 311.654 38.9602 311.165 38.625C310.677 38.2869 310.386 37.8168 310.292 37.2145L311.796 37.0696C311.864 37.3651 312.009 37.5881 312.231 37.7386C312.452 37.8892 312.741 37.9645 313.096 37.9645C313.462 37.9645 313.756 37.8892 313.978 37.7386C314.202 37.5881 314.315 37.402 314.315 37.1804C314.315 36.9929 314.242 36.8381 314.097 36.7159C313.955 36.5937 313.734 36.5 313.433 36.4347L312.316 36.2003C311.688 36.0696 311.224 35.8494 310.923 35.5398C310.621 35.2273 310.472 34.8324 310.475 34.3551C310.472 33.9517 310.582 33.6023 310.803 33.3068C311.028 33.0085 311.339 32.7784 311.737 32.6165C312.137 32.4517 312.599 32.3693 313.121 32.3693C313.888 32.3693 314.492 32.5327 314.933 32.8594C315.376 33.1861 315.65 33.6278 315.755 34.1847Z" fill="white"/>
<path d="M272.571 46.4853C273.462 46.4853 273.908 47.5624 273.278 48.1924L267.207 54.2635C266.817 54.654 266.183 54.654 265.793 54.2635L259.722 48.1924C259.092 47.5624 259.538 46.4853 260.429 46.4853L272.571 46.4853Z" fill="#67AE14"/>
</g>
<path d="M90.9892 212.838H93.1549V213.011C92.8446 213.067 92.612 213.163 92.4568 213.298C92.3057 213.429 92.1625 213.68 92.0273 214.05L89.3903 221.185H89.2054L87.0099 215.356L84.88 221.185H84.7129L82.0223 214.05C81.9626 213.883 81.9069 213.749 81.8552 213.65C81.8035 213.55 81.7339 213.451 81.6464 213.352C81.5589 213.248 81.4495 213.171 81.3183 213.119C81.191 213.063 81.0339 213.027 80.8469 213.011V212.838H83.818V213.011C83.472 213.051 83.2692 213.155 83.2095 213.322C83.1538 213.485 83.1936 213.727 83.3288 214.05L85.2379 219.276L86.8249 214.867L86.5206 214.05C86.3973 213.708 86.2542 213.457 86.0911 213.298C85.928 213.135 85.6794 213.039 85.3453 213.011V212.838H88.3164V213.011C87.9744 213.051 87.7735 213.155 87.7138 213.322C87.6582 213.485 87.6999 213.727 87.8391 214.05L89.7423 219.3L91.6634 214.05C91.7111 213.914 91.7449 213.807 91.7648 213.727C91.7847 213.648 91.7926 213.56 91.7886 213.465C91.7847 213.369 91.7548 213.296 91.6992 213.244C91.6475 213.188 91.5619 213.141 91.4426 213.101C91.3273 213.057 91.1761 213.027 90.9892 213.011V212.838ZM98.1687 219.168L98.3119 219.228C98.1727 219.793 97.8784 220.258 97.4289 220.624C96.9835 220.99 96.4346 221.173 95.7823 221.173C95.1937 221.173 94.6786 221.032 94.2371 220.749C93.7956 220.463 93.4635 220.087 93.2408 219.622C93.022 219.153 92.9126 218.629 92.9126 218.053C92.9126 217.043 93.1851 216.227 93.73 215.607C94.2749 214.982 94.9928 214.67 95.8837 214.67C96.6593 214.67 97.2559 214.915 97.6735 215.404C98.0912 215.893 98.3 216.545 98.3 217.361H94.1595C94.1516 217.4 94.1476 217.456 94.1476 217.528C94.1198 218.347 94.3147 218.995 94.7323 219.473C95.1499 219.946 95.7087 220.183 96.4087 220.183C96.8025 220.183 97.1465 220.089 97.4409 219.902C97.7392 219.715 97.9818 219.471 98.1687 219.168ZM95.6988 215.01C95.2971 215.01 94.963 215.197 94.6965 215.571C94.434 215.941 94.263 216.422 94.1834 217.015H97.0053C96.9974 216.681 96.9437 216.364 96.8443 216.066C96.7448 215.768 96.5937 215.517 96.3908 215.314C96.192 215.112 95.9613 215.01 95.6988 215.01ZM105.151 219.168L105.295 219.228C105.155 219.793 104.861 220.258 104.412 220.624C103.966 220.99 103.417 221.173 102.765 221.173C102.176 221.173 101.661 221.032 101.22 220.749C100.778 220.463 100.446 220.087 100.223 219.622C100.005 219.153 99.8953 218.629 99.8953 218.053C99.8953 217.043 100.168 216.227 100.713 215.607C101.258 214.982 101.975 214.67 102.866 214.67C103.642 214.67 104.239 214.915 104.656 215.404C105.074 215.893 105.283 216.545 105.283 217.361H101.142C101.134 217.4 101.13 217.456 101.13 217.528C101.102 218.347 101.297 218.995 101.715 219.473C102.133 219.946 102.691 220.183 103.391 220.183C103.785 220.183 104.129 220.089 104.424 219.902C104.722 219.715 104.964 219.471 105.151 219.168ZM102.681 215.01C102.28 215.01 101.946 215.197 101.679 215.571C101.417 215.941 101.246 216.422 101.166 217.015H103.988C103.98 216.681 103.926 216.364 103.827 216.066C103.727 215.768 103.576 215.517 103.373 215.314C103.175 215.112 102.944 215.01 102.681 215.01ZM112.247 220.183C112.367 220.385 112.51 220.539 112.677 220.642C112.848 220.741 113.093 220.803 113.411 220.827V221H111.221C111.205 220.837 111.112 220.612 110.941 220.326L109.366 217.653L108.62 218.339V220.081C108.62 220.324 108.682 220.495 108.805 220.594C108.928 220.694 109.119 220.771 109.378 220.827V221H106.615V220.827C106.878 220.771 107.071 220.694 107.194 220.594C107.321 220.495 107.385 220.324 107.385 220.081V213.727C107.385 213.521 107.331 213.367 107.224 213.268C107.121 213.165 106.957 213.103 106.735 213.083L106.466 213.071V212.898L108.447 212.337H108.62V217.862L111.036 215.66C111.259 215.458 111.341 215.302 111.281 215.195C111.225 215.084 111.026 215.028 110.684 215.028V214.855H112.945V215.028C112.671 215.028 112.424 215.084 112.206 215.195C111.987 215.306 111.687 215.535 111.305 215.881L110.291 216.812L112.247 220.183ZM118.26 221V220.827C118.769 220.795 119.117 220.724 119.304 220.612C119.495 220.497 119.59 220.276 119.59 219.95V214.121H118.26V213.948C118.829 213.805 119.306 213.644 119.692 213.465C120.078 213.282 120.432 213.049 120.754 212.767H120.909V219.95C120.909 220.268 120.99 220.487 121.153 220.606C121.321 220.722 121.601 220.795 121.995 220.827V221H118.26Z" fill="#4E9100"/>
<path d="M255.563 212.838H257.729V213.011C257.419 213.067 257.186 213.163 257.031 213.298C256.88 213.429 256.736 213.68 256.601 214.05L253.964 221.185H253.779L251.584 215.356L249.454 221.185H249.287L246.596 214.05C246.537 213.883 246.481 213.749 246.429 213.65C246.377 213.55 246.308 213.451 246.22 213.352C246.133 213.248 246.023 213.171 245.892 213.119C245.765 213.063 245.608 213.027 245.421 213.011V212.838H248.392V213.011C248.046 213.051 247.843 213.155 247.783 213.322C247.728 213.485 247.768 213.727 247.903 214.05L249.812 219.276L251.399 214.867L251.095 214.05C250.971 213.708 250.828 213.457 250.665 213.298C250.502 213.135 250.253 213.039 249.919 213.011V212.838H252.89V213.011C252.548 213.051 252.347 213.155 252.288 213.322C252.232 213.485 252.274 213.727 252.413 214.05L254.316 219.3L256.237 214.05C256.285 213.914 256.319 213.807 256.339 213.727C256.359 213.648 256.367 213.56 256.363 213.465C256.359 213.369 256.329 213.296 256.273 213.244C256.221 213.188 256.136 213.141 256.017 213.101C255.901 213.057 255.75 213.027 255.563 213.011V212.838ZM262.743 219.168L262.886 219.228C262.747 219.793 262.452 220.258 262.003 220.624C261.557 220.99 261.009 221.173 260.356 221.173C259.768 221.173 259.253 221.032 258.811 220.749C258.37 220.463 258.037 220.087 257.815 219.622C257.596 219.153 257.487 218.629 257.487 218.053C257.487 217.043 257.759 216.227 258.304 215.607C258.849 214.982 259.567 214.67 260.458 214.67C261.233 214.67 261.83 214.915 262.247 215.404C262.665 215.893 262.874 216.545 262.874 217.361H258.733C258.726 217.4 258.722 217.456 258.722 217.528C258.694 218.347 258.889 218.995 259.306 219.473C259.724 219.946 260.283 220.183 260.983 220.183C261.376 220.183 261.72 220.089 262.015 219.902C262.313 219.715 262.556 219.471 262.743 219.168ZM260.273 215.01C259.871 215.01 259.537 215.197 259.27 215.571C259.008 215.941 258.837 216.422 258.757 217.015H261.579C261.571 216.681 261.518 216.364 261.418 216.066C261.319 215.768 261.168 215.517 260.965 215.314C260.766 215.112 260.535 215.01 260.273 215.01ZM269.725 219.168L269.868 219.228C269.729 219.793 269.435 220.258 268.985 220.624C268.54 220.99 267.991 221.173 267.339 221.173C266.75 221.173 266.235 221.032 265.794 220.749C265.352 220.463 265.02 220.087 264.797 219.622C264.579 219.153 264.469 218.629 264.469 218.053C264.469 217.043 264.742 216.227 265.287 215.607C265.831 214.982 266.549 214.67 267.44 214.67C268.216 214.67 268.812 214.915 269.23 215.404C269.648 215.893 269.857 216.545 269.857 217.361H265.716C265.708 217.4 265.704 217.456 265.704 217.528C265.676 218.347 265.871 218.995 266.289 219.473C266.706 219.946 267.265 220.183 267.965 220.183C268.359 220.183 268.703 220.089 268.997 219.902C269.296 219.715 269.538 219.471 269.725 219.168ZM267.255 215.01C266.854 215.01 266.52 215.197 266.253 215.571C265.991 215.941 265.82 216.422 265.74 217.015H268.562C268.554 216.681 268.5 216.364 268.401 216.066C268.301 215.768 268.15 215.517 267.947 215.314C267.749 215.112 267.518 215.01 267.255 215.01ZM276.821 220.183C276.941 220.385 277.084 220.539 277.251 220.642C277.422 220.741 277.666 220.803 277.985 220.827V221H275.795C275.779 220.837 275.686 220.612 275.515 220.326L273.94 217.653L273.194 218.339V220.081C273.194 220.324 273.256 220.495 273.379 220.594C273.502 220.694 273.693 220.771 273.952 220.827V221H271.189V220.827C271.452 220.771 271.645 220.694 271.768 220.594C271.895 220.495 271.959 220.324 271.959 220.081V213.727C271.959 213.521 271.905 213.367 271.798 213.268C271.694 213.165 271.531 213.103 271.309 213.083L271.04 213.071V212.898L273.021 212.337H273.194V217.862L275.61 215.66C275.833 215.458 275.914 215.302 275.855 215.195C275.799 215.084 275.6 215.028 275.258 215.028V214.855H277.519V215.028C277.245 215.028 276.998 215.084 276.78 215.195C276.561 215.306 276.26 215.535 275.879 215.881L274.864 216.812L276.821 220.183ZM282.428 221V220.827L284.582 218.423C284.797 218.188 284.976 217.985 285.119 217.814C285.266 217.643 285.427 217.436 285.602 217.194C285.777 216.947 285.916 216.72 286.02 216.514C286.127 216.303 286.217 216.07 286.288 215.816C286.364 215.557 286.402 215.302 286.402 215.052C286.402 214.587 286.258 214.213 285.972 213.93C285.686 213.644 285.308 213.501 284.838 213.501C284.413 213.501 284.019 213.626 283.657 213.877C283.299 214.127 283.045 214.485 282.894 214.95L282.756 214.891C282.804 214.604 282.895 214.332 283.031 214.073C283.166 213.815 283.341 213.58 283.556 213.369C283.771 213.155 284.039 212.984 284.361 212.856C284.683 212.729 285.037 212.665 285.423 212.665C286.139 212.665 286.712 212.87 287.141 213.28C287.575 213.686 287.792 214.231 287.792 214.915C287.792 215.161 287.762 215.402 287.702 215.637C287.642 215.871 287.559 216.092 287.452 216.299C287.348 216.506 287.211 216.72 287.04 216.943C286.869 217.162 286.688 217.369 286.497 217.564C286.31 217.754 286.083 217.967 285.817 218.202C285.55 218.433 285.288 218.651 285.029 218.858C284.775 219.065 284.478 219.304 284.14 219.574C283.949 219.725 283.806 219.839 283.711 219.914H286.366C286.64 219.914 286.861 219.898 287.028 219.866C287.195 219.835 287.34 219.769 287.463 219.67C287.587 219.57 287.684 219.445 287.756 219.294C287.827 219.143 287.901 218.934 287.977 218.667H288.15L287.804 221H282.428Z" fill="#4E9100"/>
<circle cx="343.503" cy="65.8584" r="8.85836" fill="#67AE14"/>
<defs>
<filter id="filter0_dd_177_5200" x="38.5" y="84" width="121" height="64" filterUnits="userSpaceOnUse" color-interpolation-filters="sRGB">
<feFlood flood-opacity="0" result="BackgroundImageFix"/>
<feColorMatrix in="SourceAlpha" type="matrix" values="0 0 0 0 0 0 0 0 0 0 0 0 0 0 0 0 0 0 127 0" result="hardAlpha"/>
<feMorphology radius="2" operator="erode" in="SourceAlpha" result="effect1_dropShadow_177_5200"/>
<feOffset dy="4"/>
<feGaussianBlur stdDeviation="3"/>
<feColorMatrix type="matrix" values="0 0 0 0 0.0627451 0 0 0 0 0.0941176 0 0 0 0 0.156863 0 0 0 0.03 0"/>
<feBlend mode="normal" in2="BackgroundImageFix" result="effect1_dropShadow_177_5200"/>
<feColorMatrix in="SourceAlpha" type="matrix" values="0 0 0 0 0 0 0 0 0 0 0 0 0 0 0 0 0 0 127 0" result="hardAlpha"/>
<feMorphology radius="4" operator="erode" in="SourceAlpha" result="effect2_dropShadow_177_5200"/>
<feOffset dy="12"/>
<feGaussianBlur stdDeviation="8"/>
<feColorMatrix type="matrix" values="0 0 0 0 0.0627451 0 0 0 0 0.0941176 0 0 0 0 0.156863 0 0 0 0.08 0"/>
<feBlend mode="normal" in2="effect1_dropShadow_177_5200" result="effect2_dropShadow_177_5200"/>
<feBlend mode="normal" in="SourceGraphic" in2="effect2_dropShadow_177_5200" result="shape"/>
</filter>
<filter id="filter1_dd_177_5200" x="157" y="0" width="219" height="79" filterUnits="userSpaceOnUse" color-interpolation-filters="sRGB">
<feFlood flood-opacity="0" result="BackgroundImageFix"/>
<feColorMatrix in="SourceAlpha" type="matrix" values="0 0 0 0 0 0 0 0 0 0 0 0 0 0 0 0 0 0 127 0" result="hardAlpha"/>
<feMorphology radius="2" operator="erode" in="SourceAlpha" result="effect1_dropShadow_177_5200"/>
<feOffset dy="4"/>
<feGaussianBlur stdDeviation="3"/>
<feColorMatrix type="matrix" values="0 0 0 0 0.0627451 0 0 0 0 0.0941176 0 0 0 0 0.156863 0 0 0 0.03 0"/>
<feBlend mode="normal" in2="BackgroundImageFix" result="effect1_dropShadow_177_5200"/>
<feColorMatrix in="SourceAlpha" type="matrix" values="0 0 0 0 0 0 0 0 0 0 0 0 0 0 0 0 0 0 127 0" result="hardAlpha"/>
<feMorphology radius="4" operator="erode" in="SourceAlpha" result="effect2_dropShadow_177_5200"/>
<feOffset dy="12"/>
<feGaussianBlur stdDeviation="8"/>
<feColorMatrix type="matrix" values="0 0 0 0 0.0627451 0 0 0 0 0.0941176 0 0 0 0 0.156863 0 0 0 0.08 0"/>
<feBlend mode="normal" in2="effect1_dropShadow_177_5200" result="effect2_dropShadow_177_5200"/>
<feBlend mode="normal" in="SourceGraphic" in2="effect2_dropShadow_177_5200" result="shape"/>
</filter>
<linearGradient id="paint0_linear_177_5200" x1="176.145" y1="66" x2="176.145" y2="264" gradientUnits="userSpaceOnUse">
<stop stop-color="#82CD23"/>
<stop offset="1" stop-color="#E2FFC0"/>
</linearGradient>
<linearGradient id="paint1_linear_177_5200" x1="93.1445" y1="61.6862" x2="93.1445" y2="266" gradientUnits="userSpaceOnUse">
<stop stop-color="#6FC600"/>
<stop offset="1" stop-color="#D2FF99" stop-opacity="0"/>
</linearGradient>
<linearGradient id="paint2_linear_177_5200" x1="260.145" y1="2.26462" x2="260.145" y2="264" gradientUnits="userSpaceOnUse">
<stop stop-color="#17AE14"/>
<stop offset="1" stop-color="#D2FF99" stop-opacity="0"/>
</linearGradient>
</defs>
</svg>
