<svg width="364" height="268" viewBox="0 0 364 268" fill="none" xmlns="http://www.w3.org/2000/svg">
<path d="M343.645 261V63C125.468 89.0751 29.4045 205.865 8.64453 261H343.645Z" fill="url(#paint0_linear_177_5048)" fill-opacity="0.4"/>
<path d="M176.645 72V267.953" stroke="#C0C0C0" stroke-width="0.916382" stroke-dasharray="1.83 1.83"/>
<rect y="254.681" width="12.8294" height="12.8294" fill="#79CB18"/>
<path d="M176.645 110C77.0445 150.298 23.8112 219.062 9.64453 248.406V263H176.645V110Z" fill="url(#paint1_linear_177_5048)"/>
<path d="M343.645 61.5C235.645 82.5 232.645 86 176.645 108V261H343.645V61.5Z" fill="url(#paint2_linear_177_5048)"/>
<path d="M8.64453 258C27.0614 214.446 108.655 94.4812 343.645 63" stroke="#79CB18" stroke-width="4.58191"/>
<circle cx="98.6445" cy="154" r="18" fill="#79CB18" fill-opacity="0.5"/>
<circle cx="266.645" cy="81" r="18" fill="#79CB18" fill-opacity="0.5"/>
<circle cx="98.6445" cy="154" r="12" fill="#79CB18"/>
<circle cx="266.645" cy="81" r="12" fill="#17AE14"/>
<g filter="url(#filter0_dd_177_5048)">
<rect x="49" y="81" width="100" height="34" rx="8" fill="#79CB18"/>
<path d="M66.6349 95.6719C66.5952 95.2997 66.4276 95.0099 66.1321 94.8026C65.8395 94.5952 65.4588 94.4915 64.9901 94.4915C64.6605 94.4915 64.3778 94.5412 64.142 94.6406C63.9063 94.7401 63.7259 94.875 63.6009 95.0455C63.4759 95.2159 63.4119 95.4105 63.4091 95.6293C63.4091 95.8111 63.4503 95.9687 63.5327 96.1023C63.6179 96.2358 63.733 96.3494 63.8778 96.4432C64.0227 96.5341 64.1832 96.6108 64.3594 96.6733C64.5355 96.7358 64.7131 96.7884 64.892 96.831L65.7102 97.0355C66.0398 97.1122 66.3565 97.2159 66.6605 97.3466C66.9673 97.4773 67.2415 97.642 67.483 97.8409C67.7273 98.0398 67.9205 98.2798 68.0625 98.5611C68.2045 98.8423 68.2756 99.1719 68.2756 99.5497C68.2756 100.061 68.1449 100.511 67.8835 100.901C67.6222 101.287 67.2443 101.589 66.75 101.808C66.2585 102.024 65.6634 102.132 64.9645 102.132C64.2855 102.132 63.696 102.027 63.196 101.817C62.6989 101.607 62.3097 101.3 62.0284 100.896C61.75 100.493 61.5994 100.001 61.5767 99.4219H63.1321C63.1548 99.7259 63.2486 99.9787 63.4134 100.18C63.5781 100.382 63.7926 100.533 64.0568 100.632C64.3239 100.732 64.6222 100.781 64.9517 100.781C65.2955 100.781 65.5966 100.73 65.8551 100.628C66.1165 100.523 66.321 100.378 66.4688 100.193C66.6165 100.006 66.6918 99.7869 66.6946 99.5369C66.6918 99.3097 66.625 99.1222 66.4943 98.9744C66.3636 98.8239 66.1804 98.6989 65.9446 98.5994C65.7116 98.4972 65.4389 98.4062 65.1264 98.3267L64.1335 98.071C63.4148 97.8864 62.8466 97.6065 62.429 97.2315C62.0142 96.8537 61.8068 96.3523 61.8068 95.7273C61.8068 95.2131 61.946 94.7628 62.2244 94.3764C62.5057 93.9901 62.8878 93.6903 63.3707 93.4773C63.8537 93.2614 64.4006 93.1534 65.0114 93.1534C65.6307 93.1534 66.1733 93.2614 66.6392 93.4773C67.108 93.6903 67.4759 93.9872 67.7429 94.3679C68.0099 94.7457 68.1477 95.1804 68.1562 95.6719H66.6349ZM72.8853 95.4545V96.6477H69.1225V95.4545H72.8853ZM70.0515 93.8864H71.5941V100.031C71.5941 100.239 71.6254 100.398 71.6879 100.509C71.7532 100.616 71.8384 100.69 71.9435 100.73C72.0487 100.77 72.1651 100.79 72.293 100.79C72.3896 100.79 72.4776 100.783 72.5572 100.768C72.6396 100.754 72.7021 100.741 72.7447 100.73L73.0046 101.936C72.9222 101.964 72.8043 101.996 72.6509 102.03C72.5004 102.064 72.3157 102.084 72.0969 102.089C71.7106 102.101 71.3626 102.043 71.0529 101.915C70.7433 101.784 70.4975 101.582 70.3157 101.31C70.1367 101.037 70.0487 100.696 70.0515 100.287V93.8864ZM74.1754 102V95.4545H75.6712V96.5455H75.7393C75.8587 96.1676 76.0632 95.8764 76.353 95.6719C76.6456 95.4645 76.9794 95.3608 77.3544 95.3608C77.4396 95.3608 77.5348 95.3651 77.6399 95.3736C77.7479 95.3793 77.8374 95.3892 77.9084 95.4034V96.8224C77.843 96.7997 77.7393 96.7798 77.5973 96.7628C77.4581 96.7429 77.3232 96.733 77.1925 96.733C76.9112 96.733 76.6584 96.794 76.4339 96.9162C76.2124 97.0355 76.0376 97.2017 75.9098 97.4148C75.782 97.6278 75.718 97.8736 75.718 98.152V102H74.1754ZM81.5188 102.128C80.8796 102.128 80.3256 101.987 79.8569 101.706C79.3881 101.425 79.0245 101.031 78.766 100.526C78.5103 100.02 78.3825 99.429 78.3825 98.7528C78.3825 98.0767 78.5103 97.4844 78.766 96.9759C79.0245 96.4673 79.3881 96.0724 79.8569 95.7912C80.3256 95.5099 80.8796 95.3693 81.5188 95.3693C82.158 95.3693 82.712 95.5099 83.1808 95.7912C83.6495 96.0724 84.0117 96.4673 84.2674 96.9759C84.5259 97.4844 84.6552 98.0767 84.6552 98.7528C84.6552 99.429 84.5259 100.02 84.2674 100.526C84.0117 101.031 83.6495 101.425 83.1808 101.706C82.712 101.987 82.158 102.128 81.5188 102.128ZM81.5273 100.892C81.8739 100.892 82.1637 100.797 82.3967 100.607C82.6296 100.413 82.8029 100.155 82.9165 99.831C83.033 99.5071 83.0913 99.1463 83.0913 98.7486C83.0913 98.348 83.033 97.9858 82.9165 97.6619C82.8029 97.3352 82.6296 97.0753 82.3967 96.8821C82.1637 96.6889 81.8739 96.5923 81.5273 96.5923C81.1722 96.5923 80.8768 96.6889 80.641 96.8821C80.408 97.0753 80.2333 97.3352 80.1168 97.6619C80.0032 97.9858 79.9464 98.348 79.9464 98.7486C79.9464 99.1463 80.0032 99.5071 80.1168 99.831C80.2333 100.155 80.408 100.413 80.641 100.607C80.8768 100.797 81.1722 100.892 81.5273 100.892ZM87.5071 98.1648V102H85.9645V95.4545H87.4389V96.5668H87.5156C87.6662 96.2003 87.9063 95.9091 88.2358 95.6932C88.5682 95.4773 88.9787 95.3693 89.4673 95.3693C89.919 95.3693 90.3125 95.4659 90.6477 95.6591C90.9858 95.8523 91.2472 96.1321 91.4318 96.4986C91.6193 96.8651 91.7116 97.3097 91.7088 97.8324V102H90.1662V98.071C90.1662 97.6335 90.0526 97.2912 89.8253 97.044C89.6009 96.7969 89.2898 96.6733 88.892 96.6733C88.6222 96.6733 88.3821 96.733 88.1719 96.8523C87.9645 96.9687 87.8011 97.1378 87.6818 97.3594C87.5653 97.581 87.5071 97.8494 87.5071 98.1648ZM96.1236 104.591C95.5696 104.591 95.0938 104.516 94.696 104.365C94.2983 104.217 93.9787 104.018 93.7372 103.768C93.4957 103.518 93.3281 103.241 93.2344 102.938L94.6236 102.601C94.6861 102.729 94.777 102.855 94.8963 102.98C95.0156 103.108 95.1761 103.213 95.3778 103.295C95.5824 103.381 95.8395 103.423 96.1491 103.423C96.5866 103.423 96.9489 103.317 97.2358 103.104C97.5227 102.893 97.6662 102.547 97.6662 102.064V100.824H97.5895C97.5099 100.983 97.3935 101.146 97.2401 101.314C97.0895 101.482 96.8892 101.622 96.6392 101.736C96.392 101.849 96.081 101.906 95.706 101.906C95.2031 101.906 94.7472 101.788 94.3381 101.553C93.9318 101.314 93.608 100.959 93.3665 100.487C93.1278 100.013 93.0085 99.419 93.0085 98.706C93.0085 97.9872 93.1278 97.3807 93.3665 96.8864C93.608 96.3892 93.9332 96.0128 94.3423 95.7571C94.7514 95.4986 95.2074 95.3693 95.7102 95.3693C96.0938 95.3693 96.4091 95.4347 96.6562 95.5653C96.9062 95.6932 97.1051 95.848 97.2528 96.0298C97.4006 96.2088 97.5128 96.3778 97.5895 96.5369H97.6747V95.4545H99.196V102.107C99.196 102.666 99.0625 103.129 98.7955 103.496C98.5284 103.862 98.1634 104.136 97.7003 104.318C97.2372 104.5 96.7116 104.591 96.1236 104.591ZM96.1364 100.696C96.4631 100.696 96.7415 100.616 96.9716 100.457C97.2017 100.298 97.3764 100.07 97.4957 99.7713C97.6151 99.473 97.6747 99.1151 97.6747 98.6974C97.6747 98.2855 97.6151 97.9247 97.4957 97.6151C97.3793 97.3054 97.206 97.0653 96.9759 96.8949C96.7486 96.7216 96.4688 96.6349 96.1364 96.6349C95.7926 96.6349 95.5057 96.7244 95.2756 96.9034C95.0455 97.0824 94.8722 97.3281 94.7557 97.6406C94.6392 97.9503 94.581 98.3026 94.581 98.6974C94.581 99.098 94.6392 99.4489 94.7557 99.75C94.875 100.048 95.0497 100.281 95.2798 100.449C95.5128 100.614 95.7983 100.696 96.1364 100.696ZM103.675 102.128C103.018 102.128 102.452 101.991 101.974 101.719C101.5 101.443 101.135 101.054 100.879 100.551C100.624 100.045 100.496 99.4503 100.496 98.7656C100.496 98.0923 100.624 97.5014 100.879 96.9929C101.138 96.4815 101.499 96.0838 101.962 95.7997C102.425 95.5128 102.969 95.3693 103.594 95.3693C103.997 95.3693 104.378 95.4347 104.736 95.5653C105.097 95.6932 105.415 95.892 105.69 96.1619C105.969 96.4318 106.188 96.7756 106.347 97.1932C106.506 97.608 106.585 98.1023 106.585 98.6761V99.1491H101.22V98.1094H105.107C105.104 97.8139 105.04 97.5511 104.915 97.321C104.79 97.0881 104.615 96.9048 104.391 96.7713C104.169 96.6378 103.911 96.571 103.615 96.571C103.3 96.571 103.023 96.6477 102.784 96.8011C102.545 96.9517 102.359 97.1506 102.226 97.3977C102.095 97.642 102.028 97.9105 102.026 98.2031V99.1108C102.026 99.4915 102.095 99.8182 102.234 100.091C102.374 100.361 102.568 100.568 102.818 100.713C103.068 100.855 103.361 100.926 103.696 100.926C103.92 100.926 104.124 100.895 104.305 100.832C104.487 100.767 104.645 100.672 104.778 100.547C104.912 100.422 105.013 100.267 105.081 100.082L106.521 100.244C106.43 100.625 106.257 100.957 106.001 101.241C105.749 101.523 105.425 101.741 105.03 101.898C104.635 102.051 104.183 102.128 103.675 102.128ZM107.89 102V95.4545H109.386V96.5455H109.454C109.574 96.1676 109.778 95.8764 110.068 95.6719C110.36 95.4645 110.694 95.3608 111.069 95.3608C111.154 95.3608 111.25 95.3651 111.355 95.3736C111.463 95.3793 111.552 95.3892 111.623 95.4034V96.8224C111.558 96.7997 111.454 96.7798 111.312 96.7628C111.173 96.7429 111.038 96.733 110.907 96.733C110.626 96.733 110.373 96.794 110.149 96.9162C109.927 97.0355 109.752 97.2017 109.625 97.4148C109.497 97.6278 109.433 97.8736 109.433 98.152V102H107.89ZM117.167 98.1648V102H115.625V93.2727H117.133V96.5668H117.21C117.363 96.1974 117.6 95.9062 117.922 95.6932C118.245 95.4773 118.657 95.3693 119.157 95.3693C119.612 95.3693 120.008 95.4645 120.346 95.6548C120.684 95.8452 120.946 96.1236 121.13 96.4901C121.318 96.8565 121.412 97.304 121.412 97.8324V102H119.869V98.071C119.869 97.6307 119.755 97.2884 119.528 97.044C119.304 96.7969 118.988 96.6733 118.582 96.6733C118.309 96.6733 118.065 96.733 117.849 96.8523C117.636 96.9687 117.468 97.1378 117.346 97.3594C117.227 97.581 117.167 97.8494 117.167 98.1648ZM124.868 102.132C124.453 102.132 124.079 102.058 123.747 101.911C123.417 101.76 123.156 101.538 122.963 101.246C122.772 100.953 122.677 100.592 122.677 100.163C122.677 99.794 122.745 99.4886 122.882 99.2472C123.018 99.0057 123.204 98.8125 123.44 98.6676C123.676 98.5227 123.941 98.4134 124.237 98.3395C124.535 98.2628 124.843 98.2074 125.162 98.1733C125.545 98.1335 125.856 98.098 126.095 98.0668C126.333 98.0327 126.507 97.9815 126.615 97.9134C126.725 97.8423 126.781 97.733 126.781 97.5852V97.5597C126.781 97.2386 126.686 96.9901 126.495 96.8139C126.305 96.6378 126.031 96.5497 125.673 96.5497C125.295 96.5497 124.995 96.6321 124.774 96.7969C124.555 96.9616 124.407 97.1562 124.331 97.3807L122.89 97.1761C123.004 96.7784 123.191 96.446 123.453 96.179C123.714 95.9091 124.034 95.7074 124.412 95.5739C124.789 95.4375 125.207 95.3693 125.664 95.3693C125.98 95.3693 126.294 95.4062 126.606 95.4801C126.919 95.554 127.204 95.6761 127.463 95.8466C127.721 96.0142 127.929 96.2429 128.085 96.5327C128.244 96.8224 128.324 97.1847 128.324 97.6193V102H126.841V101.101H126.789C126.696 101.283 126.564 101.453 126.393 101.612C126.225 101.768 126.014 101.895 125.758 101.991C125.505 102.085 125.208 102.132 124.868 102.132ZM125.268 100.999C125.578 100.999 125.846 100.937 126.074 100.815C126.301 100.69 126.475 100.526 126.598 100.321C126.723 100.116 126.785 99.8935 126.785 99.652V98.8807C126.737 98.9205 126.654 98.9574 126.538 98.9915C126.424 99.0256 126.297 99.0554 126.154 99.081C126.012 99.1065 125.872 99.1293 125.733 99.1491C125.593 99.169 125.473 99.1861 125.37 99.2003C125.14 99.2315 124.934 99.2827 124.752 99.3537C124.571 99.4247 124.427 99.5241 124.322 99.652C124.217 99.777 124.164 99.9389 124.164 100.138C124.164 100.422 124.268 100.636 124.475 100.781C124.683 100.926 124.947 100.999 125.268 100.999ZM129.875 102V95.4545H131.417V102H129.875ZM130.65 94.5256C130.406 94.5256 130.196 94.4446 130.02 94.2827C129.843 94.1179 129.755 93.9205 129.755 93.6903C129.755 93.4574 129.843 93.2599 130.02 93.098C130.196 92.9332 130.406 92.8509 130.65 92.8509C130.897 92.8509 131.108 92.9332 131.281 93.098C131.457 93.2599 131.545 93.4574 131.545 93.6903C131.545 93.9205 131.457 94.1179 131.281 94.2827C131.108 94.4446 130.897 94.5256 130.65 94.5256ZM133.004 102V95.4545H134.499V96.5455H134.567C134.687 96.1676 134.891 95.8764 135.181 95.6719C135.474 95.4645 135.808 95.3608 136.183 95.3608C136.268 95.3608 136.363 95.3651 136.468 95.3736C136.576 95.3793 136.665 95.3892 136.737 95.4034V96.8224C136.671 96.7997 136.567 96.7798 136.425 96.7628C136.286 96.7429 136.151 96.733 136.021 96.733C135.739 96.733 135.487 96.794 135.262 96.9162C135.04 97.0355 134.866 97.2017 134.738 97.4148C134.61 97.6278 134.546 97.8736 134.546 98.152V102H133.004Z" fill="white"/>
<path d="M105.071 112.485C105.962 112.485 106.408 113.562 105.778 114.192L99.7071 120.263C99.3166 120.654 98.6834 120.654 98.2929 120.263L92.2218 114.192C91.5919 113.562 92.038 112.485 92.9289 112.485L105.071 112.485Z" fill="#79CB18"/>
</g>
<path d="M90.9892 209.838H93.1549V210.011C92.8446 210.067 92.612 210.163 92.4568 210.298C92.3057 210.429 92.1625 210.68 92.0273 211.05L89.3903 218.185H89.2054L87.0099 212.356L84.88 218.185H84.7129L82.0223 211.05C81.9626 210.883 81.9069 210.749 81.8552 210.65C81.8035 210.55 81.7339 210.451 81.6464 210.352C81.5589 210.248 81.4495 210.171 81.3183 210.119C81.191 210.063 81.0339 210.027 80.8469 210.011V209.838H83.818V210.011C83.472 210.051 83.2692 210.155 83.2095 210.322C83.1538 210.485 83.1936 210.727 83.3288 211.05L85.2379 216.276L86.8249 211.867L86.5206 211.05C86.3973 210.708 86.2542 210.457 86.0911 210.298C85.928 210.135 85.6794 210.039 85.3453 210.011V209.838H88.3164V210.011C87.9744 210.051 87.7735 210.155 87.7138 210.322C87.6582 210.485 87.6999 210.727 87.8391 211.05L89.7423 216.3L91.6634 211.05C91.7111 210.914 91.7449 210.807 91.7648 210.727C91.7847 210.648 91.7926 210.56 91.7886 210.465C91.7847 210.369 91.7548 210.296 91.6992 210.244C91.6475 210.188 91.5619 210.141 91.4426 210.101C91.3273 210.057 91.1761 210.027 90.9892 210.011V209.838ZM98.1687 216.168L98.3119 216.228C98.1727 216.793 97.8784 217.258 97.4289 217.624C96.9835 217.99 96.4346 218.173 95.7823 218.173C95.1937 218.173 94.6786 218.032 94.2371 217.749C93.7956 217.463 93.4635 217.087 93.2408 216.622C93.022 216.153 92.9126 215.629 92.9126 215.053C92.9126 214.043 93.1851 213.227 93.73 212.607C94.2749 211.982 94.9928 211.67 95.8837 211.67C96.6593 211.67 97.2559 211.915 97.6735 212.404C98.0912 212.893 98.3 213.545 98.3 214.361H94.1595C94.1516 214.4 94.1476 214.456 94.1476 214.528C94.1198 215.347 94.3147 215.995 94.7323 216.473C95.1499 216.946 95.7087 217.183 96.4087 217.183C96.8025 217.183 97.1465 217.089 97.4409 216.902C97.7392 216.715 97.9818 216.471 98.1687 216.168ZM95.6988 212.01C95.2971 212.01 94.963 212.197 94.6965 212.571C94.434 212.941 94.263 213.422 94.1834 214.015H97.0053C96.9974 213.681 96.9437 213.364 96.8443 213.066C96.7448 212.768 96.5937 212.517 96.3908 212.314C96.192 212.112 95.9613 212.01 95.6988 212.01ZM105.151 216.168L105.295 216.228C105.155 216.793 104.861 217.258 104.412 217.624C103.966 217.99 103.417 218.173 102.765 218.173C102.176 218.173 101.661 218.032 101.22 217.749C100.778 217.463 100.446 217.087 100.223 216.622C100.005 216.153 99.8953 215.629 99.8953 215.053C99.8953 214.043 100.168 213.227 100.713 212.607C101.258 211.982 101.975 211.67 102.866 211.67C103.642 211.67 104.239 211.915 104.656 212.404C105.074 212.893 105.283 213.545 105.283 214.361H101.142C101.134 214.4 101.13 214.456 101.13 214.528C101.102 215.347 101.297 215.995 101.715 216.473C102.133 216.946 102.691 217.183 103.391 217.183C103.785 217.183 104.129 217.089 104.424 216.902C104.722 216.715 104.964 216.471 105.151 216.168ZM102.681 212.01C102.28 212.01 101.946 212.197 101.679 212.571C101.417 212.941 101.246 213.422 101.166 214.015H103.988C103.98 213.681 103.926 213.364 103.827 213.066C103.727 212.768 103.576 212.517 103.373 212.314C103.175 212.112 102.944 212.01 102.681 212.01ZM112.247 217.183C112.367 217.385 112.51 217.539 112.677 217.642C112.848 217.741 113.093 217.803 113.411 217.827V218H111.221C111.205 217.837 111.112 217.612 110.941 217.326L109.366 214.653L108.62 215.339V217.081C108.62 217.324 108.682 217.495 108.805 217.594C108.928 217.694 109.119 217.771 109.378 217.827V218H106.615V217.827C106.878 217.771 107.071 217.694 107.194 217.594C107.321 217.495 107.385 217.324 107.385 217.081V210.727C107.385 210.521 107.331 210.367 107.224 210.268C107.121 210.165 106.957 210.103 106.735 210.083L106.466 210.071V209.898L108.447 209.337H108.62V214.862L111.036 212.66C111.259 212.458 111.341 212.302 111.281 212.195C111.225 212.084 111.026 212.028 110.684 212.028V211.855H112.945V212.028C112.671 212.028 112.424 212.084 112.206 212.195C111.987 212.306 111.687 212.535 111.305 212.881L110.291 213.812L112.247 217.183ZM118.26 218V217.827C118.769 217.795 119.117 217.724 119.304 217.612C119.495 217.497 119.59 217.276 119.59 216.95V211.121H118.26V210.948C118.829 210.805 119.306 210.644 119.692 210.465C120.078 210.282 120.432 210.049 120.754 209.767H120.909V216.95C120.909 217.268 120.99 217.487 121.153 217.606C121.321 217.722 121.601 217.795 121.995 217.827V218H118.26Z" fill="#4E9100"/>
<path d="M255.563 209.838H257.729V210.011C257.419 210.067 257.186 210.163 257.031 210.298C256.88 210.429 256.736 210.68 256.601 211.05L253.964 218.185H253.779L251.584 212.356L249.454 218.185H249.287L246.596 211.05C246.537 210.883 246.481 210.749 246.429 210.65C246.377 210.55 246.308 210.451 246.22 210.352C246.133 210.248 246.023 210.171 245.892 210.119C245.765 210.063 245.608 210.027 245.421 210.011V209.838H248.392V210.011C248.046 210.051 247.843 210.155 247.783 210.322C247.728 210.485 247.768 210.727 247.903 211.05L249.812 216.276L251.399 211.867L251.095 211.05C250.971 210.708 250.828 210.457 250.665 210.298C250.502 210.135 250.253 210.039 249.919 210.011V209.838H252.89V210.011C252.548 210.051 252.347 210.155 252.288 210.322C252.232 210.485 252.274 210.727 252.413 211.05L254.316 216.3L256.237 211.05C256.285 210.914 256.319 210.807 256.339 210.727C256.359 210.648 256.367 210.56 256.363 210.465C256.359 210.369 256.329 210.296 256.273 210.244C256.221 210.188 256.136 210.141 256.017 210.101C255.901 210.057 255.75 210.027 255.563 210.011V209.838ZM262.743 216.168L262.886 216.228C262.747 216.793 262.452 217.258 262.003 217.624C261.557 217.99 261.009 218.173 260.356 218.173C259.768 218.173 259.253 218.032 258.811 217.749C258.37 217.463 258.037 217.087 257.815 216.622C257.596 216.153 257.487 215.629 257.487 215.053C257.487 214.043 257.759 213.227 258.304 212.607C258.849 211.982 259.567 211.67 260.458 211.67C261.233 211.67 261.83 211.915 262.247 212.404C262.665 212.893 262.874 213.545 262.874 214.361H258.733C258.726 214.4 258.722 214.456 258.722 214.528C258.694 215.347 258.889 215.995 259.306 216.473C259.724 216.946 260.283 217.183 260.983 217.183C261.376 217.183 261.72 217.089 262.015 216.902C262.313 216.715 262.556 216.471 262.743 216.168ZM260.273 212.01C259.871 212.01 259.537 212.197 259.27 212.571C259.008 212.941 258.837 213.422 258.757 214.015H261.579C261.571 213.681 261.518 213.364 261.418 213.066C261.319 212.768 261.168 212.517 260.965 212.314C260.766 212.112 260.535 212.01 260.273 212.01ZM269.725 216.168L269.868 216.228C269.729 216.793 269.435 217.258 268.985 217.624C268.54 217.99 267.991 218.173 267.339 218.173C266.75 218.173 266.235 218.032 265.794 217.749C265.352 217.463 265.02 217.087 264.797 216.622C264.579 216.153 264.469 215.629 264.469 215.053C264.469 214.043 264.742 213.227 265.287 212.607C265.831 211.982 266.549 211.67 267.44 211.67C268.216 211.67 268.812 211.915 269.23 212.404C269.648 212.893 269.857 213.545 269.857 214.361H265.716C265.708 214.4 265.704 214.456 265.704 214.528C265.676 215.347 265.871 215.995 266.289 216.473C266.706 216.946 267.265 217.183 267.965 217.183C268.359 217.183 268.703 217.089 268.997 216.902C269.296 216.715 269.538 216.471 269.725 216.168ZM267.255 212.01C266.854 212.01 266.52 212.197 266.253 212.571C265.991 212.941 265.82 213.422 265.74 214.015H268.562C268.554 213.681 268.5 213.364 268.401 213.066C268.301 212.768 268.15 212.517 267.947 212.314C267.749 212.112 267.518 212.01 267.255 212.01ZM276.821 217.183C276.941 217.385 277.084 217.539 277.251 217.642C277.422 217.741 277.666 217.803 277.985 217.827V218H275.795C275.779 217.837 275.686 217.612 275.515 217.326L273.94 214.653L273.194 215.339V217.081C273.194 217.324 273.256 217.495 273.379 217.594C273.502 217.694 273.693 217.771 273.952 217.827V218H271.189V217.827C271.452 217.771 271.645 217.694 271.768 217.594C271.895 217.495 271.959 217.324 271.959 217.081V210.727C271.959 210.521 271.905 210.367 271.798 210.268C271.694 210.165 271.531 210.103 271.309 210.083L271.04 210.071V209.898L273.021 209.337H273.194V214.862L275.61 212.66C275.833 212.458 275.914 212.302 275.855 212.195C275.799 212.084 275.6 212.028 275.258 212.028V211.855H277.519V212.028C277.245 212.028 276.998 212.084 276.78 212.195C276.561 212.306 276.26 212.535 275.879 212.881L274.864 213.812L276.821 217.183ZM282.428 218V217.827L284.582 215.423C284.797 215.188 284.976 214.985 285.119 214.814C285.266 214.643 285.427 214.436 285.602 214.194C285.777 213.947 285.916 213.72 286.02 213.514C286.127 213.303 286.217 213.07 286.288 212.816C286.364 212.557 286.402 212.302 286.402 212.052C286.402 211.587 286.258 211.213 285.972 210.93C285.686 210.644 285.308 210.501 284.838 210.501C284.413 210.501 284.019 210.626 283.657 210.877C283.299 211.127 283.045 211.485 282.894 211.95L282.756 211.891C282.804 211.604 282.895 211.332 283.031 211.073C283.166 210.815 283.341 210.58 283.556 210.369C283.771 210.155 284.039 209.984 284.361 209.856C284.683 209.729 285.037 209.665 285.423 209.665C286.139 209.665 286.712 209.87 287.141 210.28C287.575 210.686 287.792 211.231 287.792 211.915C287.792 212.161 287.762 212.402 287.702 212.637C287.642 212.871 287.559 213.092 287.452 213.299C287.348 213.506 287.211 213.72 287.04 213.943C286.869 214.162 286.688 214.369 286.497 214.564C286.31 214.754 286.083 214.967 285.817 215.202C285.55 215.433 285.288 215.651 285.029 215.858C284.775 216.065 284.478 216.304 284.14 216.574C283.949 216.725 283.806 216.839 283.711 216.914H286.366C286.64 216.914 286.861 216.898 287.028 216.866C287.195 216.835 287.34 216.769 287.463 216.67C287.587 216.57 287.684 216.445 287.756 216.294C287.827 216.143 287.901 215.934 287.977 215.667H288.15L287.804 218H282.428Z" fill="#4E9100"/>
<circle cx="343.503" cy="62.8584" r="8.85836" fill="#67AE14"/>
<g filter="url(#filter1_dd_177_5048)">
<rect x="188.5" width="156" height="49" rx="8" fill="#67AE14"/>
<path d="M222.316 12.2727L224.587 19.142H224.676L226.943 12.2727H228.682L225.605 21H223.654L220.581 12.2727H222.316ZM229.763 21V14.4545H231.306V21H229.763ZM230.539 13.5256C230.295 13.5256 230.084 13.4446 229.908 13.2827C229.732 13.1179 229.644 12.9205 229.644 12.6903C229.644 12.4574 229.732 12.2599 229.908 12.098C230.084 11.9332 230.295 11.8509 230.539 11.8509C230.786 11.8509 230.996 11.9332 231.17 12.098C231.346 12.2599 231.434 12.4574 231.434 12.6903C231.434 12.9205 231.346 13.1179 231.17 13.2827C230.996 13.4446 230.786 13.5256 230.539 13.5256ZM238.066 16.1847L236.659 16.3381C236.619 16.196 236.55 16.0625 236.45 15.9375C236.354 15.8125 236.223 15.7116 236.058 15.6349C235.894 15.5582 235.692 15.5199 235.453 15.5199C235.132 15.5199 234.862 15.5895 234.644 15.7287C234.428 15.8679 234.321 16.0483 234.324 16.2699C234.321 16.4602 234.391 16.6151 234.533 16.7344C234.678 16.8537 234.916 16.9517 235.249 17.0284L236.365 17.267C236.985 17.4006 237.445 17.6122 237.746 17.902C238.05 18.1918 238.203 18.571 238.206 19.0398C238.203 19.4517 238.083 19.8153 237.844 20.1307C237.608 20.4432 237.28 20.6875 236.86 20.8636C236.439 21.0398 235.956 21.1278 235.411 21.1278C234.61 21.1278 233.965 20.9602 233.476 20.625C232.987 20.2869 232.696 19.8168 232.602 19.2145L234.107 19.0696C234.175 19.3651 234.32 19.5881 234.541 19.7386C234.763 19.8892 235.051 19.9645 235.406 19.9645C235.773 19.9645 236.067 19.8892 236.289 19.7386C236.513 19.5881 236.625 19.402 236.625 19.1804C236.625 18.9929 236.553 18.8381 236.408 18.7159C236.266 18.5937 236.044 18.5 235.743 18.4347L234.627 18.2003C233.999 18.0696 233.534 17.8494 233.233 17.5398C232.932 17.2273 232.783 16.8324 232.786 16.3551C232.783 15.9517 232.892 15.6023 233.114 15.3068C233.338 15.0085 233.649 14.7784 234.047 14.6165C234.448 14.4517 234.909 14.3693 235.432 14.3693C236.199 14.3693 236.803 14.5327 237.243 14.8594C237.686 15.1861 237.96 15.6278 238.066 16.1847ZM239.478 21V14.4545H241.021V21H239.478ZM240.254 13.5256C240.009 13.5256 239.799 13.4446 239.623 13.2827C239.447 13.1179 239.359 12.9205 239.359 12.6903C239.359 12.4574 239.447 12.2599 239.623 12.098C239.799 11.9332 240.009 11.8509 240.254 11.8509C240.501 11.8509 240.711 11.9332 240.884 12.098C241.061 12.2599 241.149 12.4574 241.149 12.6903C241.149 12.9205 241.061 13.1179 240.884 13.2827C240.711 13.4446 240.501 13.5256 240.254 13.5256ZM242.675 21V12.2727H244.218V15.5369H244.282C244.361 15.3778 244.474 15.2088 244.618 15.0298C244.763 14.848 244.959 14.6932 245.206 14.5653C245.454 14.4347 245.769 14.3693 246.153 14.3693C246.658 14.3693 247.114 14.4986 247.52 14.7571C247.93 15.0128 248.253 15.392 248.492 15.8949C248.733 16.3949 248.854 17.0085 248.854 17.7358C248.854 18.4545 248.736 19.0653 248.501 19.5682C248.265 20.071 247.944 20.4545 247.537 20.7188C247.131 20.983 246.671 21.1151 246.157 21.1151C245.782 21.1151 245.471 21.0526 245.224 20.9276C244.976 20.8026 244.778 20.652 244.627 20.4759C244.479 20.2969 244.364 20.1278 244.282 19.9688H244.192V21H242.675ZM244.188 17.7273C244.188 18.1506 244.248 18.5213 244.367 18.8395C244.489 19.1577 244.664 19.4062 244.891 19.5852C245.121 19.7614 245.4 19.8494 245.726 19.8494C246.067 19.8494 246.353 19.7585 246.583 19.5767C246.813 19.392 246.986 19.1406 247.103 18.8224C247.222 18.5014 247.282 18.1364 247.282 17.7273C247.282 17.321 247.224 16.9602 247.107 16.6449C246.991 16.3295 246.817 16.0824 246.587 15.9034C246.357 15.7244 246.07 15.6349 245.726 15.6349C245.397 15.6349 245.117 15.7216 244.887 15.8949C244.657 16.0682 244.482 16.3111 244.363 16.6236C244.246 16.9361 244.188 17.304 244.188 17.7273ZM251.708 12.2727V21H250.166V12.2727H251.708ZM254.253 23.4545C254.043 23.4545 253.849 23.4375 253.67 23.4034C253.493 23.3722 253.353 23.3352 253.248 23.2926L253.606 22.0909C253.83 22.1563 254.03 22.1875 254.206 22.1847C254.383 22.1818 254.537 22.1264 254.671 22.0185C254.807 21.9134 254.922 21.7372 255.016 21.4901L255.148 21.1364L252.775 14.4545H254.411L255.92 19.3977H255.988L257.501 14.4545H259.141L256.52 21.7926C256.398 22.1392 256.236 22.4361 256.035 22.6832C255.833 22.9332 255.586 23.1236 255.293 23.2543C255.003 23.3878 254.657 23.4545 254.253 23.4545ZM268.358 16.1847L266.952 16.3381C266.912 16.196 266.843 16.0625 266.743 15.9375C266.647 15.8125 266.516 15.7116 266.351 15.6349C266.187 15.5582 265.985 15.5199 265.746 15.5199C265.425 15.5199 265.155 15.5895 264.937 15.7287C264.721 15.8679 264.614 16.0483 264.617 16.2699C264.614 16.4602 264.684 16.6151 264.826 16.7344C264.971 16.8537 265.209 16.9517 265.542 17.0284L266.658 17.267C267.278 17.4006 267.738 17.6122 268.039 17.902C268.343 18.1918 268.496 18.571 268.499 19.0398C268.496 19.4517 268.376 19.8153 268.137 20.1307C267.901 20.4432 267.573 20.6875 267.153 20.8636C266.732 21.0398 266.249 21.1278 265.704 21.1278C264.903 21.1278 264.258 20.9602 263.769 20.625C263.28 20.2869 262.989 19.8168 262.895 19.2145L264.4 19.0696C264.468 19.3651 264.613 19.5881 264.834 19.7386C265.056 19.8892 265.344 19.9645 265.699 19.9645C266.066 19.9645 266.36 19.8892 266.581 19.7386C266.806 19.5881 266.918 19.402 266.918 19.1804C266.918 18.9929 266.846 18.8381 266.701 18.7159C266.559 18.5937 266.337 18.5 266.036 18.4347L264.92 18.2003C264.292 18.0696 263.827 17.8494 263.526 17.5398C263.225 17.2273 263.076 16.8324 263.079 16.3551C263.076 15.9517 263.185 15.6023 263.407 15.3068C263.631 15.0085 263.942 14.7784 264.34 14.6165C264.741 14.4517 265.202 14.3693 265.725 14.3693C266.492 14.3693 267.096 14.5327 267.536 14.8594C267.979 15.1861 268.253 15.6278 268.358 16.1847ZM271.314 17.1648V21H269.771V12.2727H271.28V15.5668H271.356C271.51 15.1974 271.747 14.9062 272.068 14.6932C272.392 14.4773 272.804 14.3693 273.304 14.3693C273.758 14.3693 274.155 14.4645 274.493 14.6548C274.831 14.8452 275.092 15.1236 275.277 15.4901C275.464 15.8565 275.558 16.304 275.558 16.8324V21H274.015V17.071C274.015 16.6307 273.902 16.2884 273.675 16.044C273.45 15.7969 273.135 15.6733 272.729 15.6733C272.456 15.6733 272.211 15.733 271.996 15.8523C271.782 15.9687 271.615 16.1378 271.493 16.3594C271.373 16.581 271.314 16.8494 271.314 17.1648ZM277.131 21V14.4545H278.673V21H277.131ZM277.906 13.5256C277.662 13.5256 277.452 13.4446 277.275 13.2827C277.099 13.1179 277.011 12.9205 277.011 12.6903C277.011 12.4574 277.099 12.2599 277.275 12.098C277.452 11.9332 277.662 11.8509 277.906 11.8509C278.153 11.8509 278.363 11.9332 278.537 12.098C278.713 12.2599 278.801 12.4574 278.801 12.6903C278.801 12.9205 278.713 13.1179 278.537 13.2827C278.363 13.4446 278.153 13.5256 277.906 13.5256ZM281.802 17.1648V21H280.259V14.4545H281.734V15.5668H281.811C281.961 15.2003 282.201 14.9091 282.531 14.6932C282.863 14.4773 283.274 14.3693 283.762 14.3693C284.214 14.3693 284.607 14.4659 284.943 14.6591C285.281 14.8523 285.542 15.1321 285.727 15.4986C285.914 15.8651 286.007 16.3097 286.004 16.8324V21H284.461V17.071C284.461 16.6335 284.347 16.2912 284.12 16.044C283.896 15.7969 283.585 15.6733 283.187 15.6733C282.917 15.6733 282.677 15.733 282.467 15.8523C282.259 15.9687 282.096 16.1378 281.977 16.3594C281.86 16.581 281.802 16.8494 281.802 17.1648ZM287.572 21V14.4545H289.115V21H287.572ZM288.347 13.5256C288.103 13.5256 287.893 13.4446 287.717 13.2827C287.541 13.1179 287.453 12.9205 287.453 12.6903C287.453 12.4574 287.541 12.2599 287.717 12.098C287.893 11.9332 288.103 11.8509 288.347 11.8509C288.595 11.8509 288.805 11.9332 288.978 12.098C289.154 12.2599 289.242 12.4574 289.242 12.6903C289.242 12.9205 289.154 13.1179 288.978 13.2827C288.805 13.4446 288.595 13.5256 288.347 13.5256ZM293.599 21.1278C292.942 21.1278 292.376 20.9915 291.898 20.7188C291.424 20.4432 291.059 20.054 290.803 19.5511C290.547 19.0455 290.42 18.4503 290.42 17.7656C290.42 17.0923 290.547 16.5014 290.803 15.9929C291.062 15.4815 291.422 15.0838 291.885 14.7997C292.349 14.5128 292.893 14.3693 293.518 14.3693C293.921 14.3693 294.302 14.4347 294.66 14.5653C295.02 14.6932 295.339 14.892 295.614 15.1619C295.893 15.4318 296.111 15.7756 296.27 16.1932C296.43 16.608 296.509 17.1023 296.509 17.6761V18.1491H291.144V17.1094H295.03C295.028 16.8139 294.964 16.5511 294.839 16.321C294.714 16.0881 294.539 15.9048 294.314 15.7713C294.093 15.6378 293.834 15.571 293.539 15.571C293.224 15.571 292.947 15.6477 292.708 15.8011C292.469 15.9517 292.283 16.1506 292.15 16.3977C292.019 16.642 291.952 16.9105 291.949 17.2031V18.1108C291.949 18.4915 292.019 18.8182 292.158 19.0909C292.297 19.3608 292.492 19.5682 292.742 19.7131C292.992 19.8551 293.285 19.9261 293.62 19.9261C293.844 19.9261 294.047 19.8949 294.229 19.8324C294.411 19.767 294.569 19.6719 294.702 19.5469C294.836 19.4219 294.937 19.267 295.005 19.0824L296.445 19.2443C296.354 19.625 296.181 19.9574 295.925 20.2415C295.672 20.5227 295.349 20.7415 294.954 20.8977C294.559 21.0511 294.107 21.1278 293.599 21.1278ZM297.814 21V14.4545H299.31V15.5455H299.378C299.497 15.1676 299.702 14.8764 299.992 14.6719C300.284 14.4645 300.618 14.3608 300.993 14.3608C301.078 14.3608 301.173 14.3651 301.279 14.3736C301.387 14.3793 301.476 14.3892 301.547 14.4034V15.8224C301.482 15.7997 301.378 15.7798 301.236 15.7628C301.097 15.7429 300.962 15.733 300.831 15.733C300.55 15.733 300.297 15.794 300.073 15.9162C299.851 16.0355 299.676 16.2017 299.548 16.4148C299.421 16.6278 299.357 16.8736 299.357 17.152V21H297.814ZM308.156 21.1278C307.56 21.1278 307.047 21.0199 306.618 20.804C306.189 20.5881 305.858 20.2969 305.625 19.9304C305.395 19.5611 305.28 19.1449 305.28 18.6818C305.28 18.3324 305.351 18.0227 305.493 17.7528C305.638 17.483 305.837 17.233 306.09 17.0028C306.345 16.7727 306.641 16.544 306.976 16.3168L308.523 15.2642C308.75 15.1165 308.922 14.9602 309.039 14.7955C309.158 14.6307 309.218 14.4375 309.218 14.2159C309.218 14.0284 309.138 13.8509 308.979 13.6832C308.823 13.5156 308.607 13.4318 308.331 13.4318C308.146 13.4318 307.983 13.4759 307.841 13.5639C307.702 13.6491 307.593 13.7614 307.513 13.9006C307.436 14.0398 307.398 14.1875 307.398 14.3438C307.398 14.5341 307.45 14.7273 307.556 14.9233C307.664 15.1193 307.803 15.3224 307.973 15.5327C308.146 15.7429 308.331 15.9659 308.527 16.2017L312.622 21H310.952L307.551 17.1051C307.298 16.8097 307.054 16.5185 306.818 16.2315C306.585 15.9446 306.394 15.6463 306.243 15.3366C306.095 15.0241 306.021 14.6861 306.021 14.3224C306.021 13.9105 306.117 13.5426 306.307 13.2188C306.497 12.892 306.763 12.6349 307.104 12.4474C307.448 12.2599 307.85 12.1662 308.31 12.1662C308.77 12.1662 309.165 12.2571 309.494 12.4389C309.824 12.6207 310.078 12.8622 310.257 13.1634C310.436 13.4645 310.526 13.7926 310.526 14.1477C310.526 14.5597 310.423 14.929 310.219 15.2557C310.014 15.5795 309.73 15.8736 309.367 16.1378L307.602 17.429C307.313 17.6392 307.105 17.8523 306.98 18.0682C306.855 18.2812 306.793 18.4631 306.793 18.6136C306.793 18.8437 306.851 19.0526 306.968 19.2401C307.084 19.4276 307.247 19.5781 307.458 19.6918C307.671 19.8026 307.919 19.858 308.203 19.858C308.516 19.858 308.824 19.7884 309.128 19.6491C309.432 19.5071 309.709 19.3054 309.959 19.044C310.209 18.7827 310.408 18.4702 310.556 18.1065C310.703 17.7401 310.777 17.3338 310.777 16.8878H312.102C312.102 17.4389 312.041 17.919 311.919 18.3281C311.797 18.7344 311.639 19.0781 311.446 19.3594C311.253 19.6378 311.048 19.8608 310.833 20.0284C310.764 20.0767 310.699 20.125 310.637 20.1733C310.574 20.2216 310.509 20.2699 310.441 20.3182C310.134 20.5966 309.774 20.8011 309.362 20.9318C308.953 21.0625 308.551 21.1278 308.156 21.1278ZM242.525 34.1847L241.118 34.3381C241.078 34.196 241.009 34.0625 240.909 33.9375C240.813 33.8125 240.682 33.7116 240.517 33.6349C240.353 33.5582 240.151 33.5199 239.912 33.5199C239.591 33.5199 239.321 33.5895 239.103 33.7287C238.887 33.8679 238.78 34.0483 238.783 34.2699C238.78 34.4602 238.85 34.6151 238.992 34.7344C239.137 34.8537 239.375 34.9517 239.708 35.0284L240.824 35.267C241.444 35.4006 241.904 35.6122 242.205 35.902C242.509 36.1918 242.662 36.571 242.665 37.0398C242.662 37.4517 242.542 37.8153 242.303 38.1307C242.067 38.4432 241.739 38.6875 241.319 38.8636C240.898 39.0398 240.415 39.1278 239.87 39.1278C239.069 39.1278 238.424 38.9602 237.935 38.625C237.446 38.2869 237.155 37.8168 237.061 37.2145L238.566 37.0696C238.634 37.3651 238.779 37.5881 239 37.7386C239.222 37.8892 239.51 37.9645 239.865 37.9645C240.232 37.9645 240.526 37.8892 240.748 37.7386C240.972 37.5881 241.084 37.402 241.084 37.1804C241.084 36.9929 241.012 36.8381 240.867 36.7159C240.725 36.5937 240.503 36.5 240.202 36.4347L239.086 36.2003C238.458 36.0696 237.993 35.8494 237.692 35.5398C237.391 35.2273 237.242 34.8324 237.245 34.3551C237.242 33.9517 237.351 33.6023 237.573 33.3068C237.797 33.0085 238.108 32.7784 238.506 32.6165C238.907 32.4517 239.368 32.3693 239.891 32.3693C240.658 32.3693 241.262 32.5327 241.702 32.8594C242.145 33.1861 242.419 33.6278 242.525 34.1847ZM246.792 39.1278C246.153 39.1278 245.599 38.9872 245.13 38.706C244.662 38.4247 244.298 38.0312 244.039 37.5256C243.784 37.0199 243.656 36.429 243.656 35.7528C243.656 35.0767 243.784 34.4844 244.039 33.9759C244.298 33.4673 244.662 33.0724 245.13 32.7912C245.599 32.5099 246.153 32.3693 246.792 32.3693C247.431 32.3693 247.985 32.5099 248.454 32.7912C248.923 33.0724 249.285 33.4673 249.541 33.9759C249.799 34.4844 249.929 35.0767 249.929 35.7528C249.929 36.429 249.799 37.0199 249.541 37.5256C249.285 38.0312 248.923 38.4247 248.454 38.706C247.985 38.9872 247.431 39.1278 246.792 39.1278ZM246.801 37.892C247.147 37.892 247.437 37.7969 247.67 37.6065C247.903 37.4134 248.076 37.1548 248.19 36.831C248.306 36.5071 248.365 36.1463 248.365 35.7486C248.365 35.348 248.306 34.9858 248.19 34.6619C248.076 34.3352 247.903 34.0753 247.67 33.8821C247.437 33.6889 247.147 33.5923 246.801 33.5923C246.446 33.5923 246.15 33.6889 245.914 33.8821C245.681 34.0753 245.507 34.3352 245.39 34.6619C245.277 34.9858 245.22 35.348 245.22 35.7486C245.22 36.1463 245.277 36.5071 245.39 36.831C245.507 37.1548 245.681 37.4134 245.914 37.6065C246.15 37.7969 246.446 37.892 246.801 37.892ZM254.553 32.4545V33.6477H250.684V32.4545H254.553ZM251.651 39V31.8366C251.651 31.3963 251.742 31.0298 251.924 30.7372C252.109 30.4446 252.356 30.2259 252.665 30.081C252.975 29.9361 253.319 29.8636 253.697 29.8636C253.964 29.8636 254.201 29.8849 254.408 29.9276C254.616 29.9702 254.769 30.0085 254.869 30.0426L254.562 31.2358C254.496 31.2159 254.414 31.196 254.315 31.1761C254.215 31.1534 254.104 31.142 253.982 31.142C253.695 31.142 253.492 31.2116 253.373 31.3509C253.256 31.4872 253.198 31.6832 253.198 31.9389V39H251.651ZM259.03 32.4545V33.6477H255.267V32.4545H259.03ZM256.196 30.8864H257.739V37.0312C257.739 37.2386 257.77 37.3977 257.832 37.5085C257.898 37.6165 257.983 37.6903 258.088 37.7301C258.193 37.7699 258.31 37.7898 258.438 37.7898C258.534 37.7898 258.622 37.7827 258.702 37.7685C258.784 37.7543 258.847 37.7415 258.889 37.7301L259.149 38.9361C259.067 38.9645 258.949 38.9957 258.795 39.0298C258.645 39.0639 258.46 39.0838 258.241 39.0895C257.855 39.1009 257.507 39.0426 257.197 38.9148C256.888 38.7841 256.642 38.5824 256.46 38.3097C256.281 38.0369 256.193 37.696 256.196 37.2869V30.8864ZM263.147 39.1278C262.491 39.1278 261.924 38.9915 261.447 38.7188C260.973 38.4432 260.608 38.054 260.352 37.5511C260.096 37.0455 259.968 36.4503 259.968 35.7656C259.968 35.0923 260.096 34.5014 260.352 33.9929C260.61 33.4815 260.971 33.0838 261.434 32.7997C261.897 32.5128 262.441 32.3693 263.066 32.3693C263.47 32.3693 263.85 32.4347 264.208 32.5653C264.569 32.6932 264.887 32.892 265.163 33.1619C265.441 33.4318 265.66 33.7756 265.819 34.1932C265.978 34.608 266.058 35.1023 266.058 35.6761V36.1491H260.693V35.1094H264.579C264.576 34.8139 264.512 34.5511 264.387 34.321C264.262 34.0881 264.088 33.9048 263.863 33.7713C263.642 33.6378 263.383 33.571 263.088 33.571C262.772 33.571 262.495 33.6477 262.257 33.8011C262.018 33.9517 261.832 34.1506 261.699 34.3977C261.568 34.642 261.501 34.9105 261.498 35.2031V36.1108C261.498 36.4915 261.568 36.8182 261.707 37.0909C261.846 37.3608 262.041 37.5682 262.291 37.7131C262.541 37.8551 262.833 37.9261 263.169 37.9261C263.393 37.9261 263.596 37.8949 263.778 37.8324C263.96 37.767 264.118 37.6719 264.251 37.5469C264.385 37.4219 264.485 37.267 264.554 37.0824L265.994 37.2443C265.903 37.625 265.73 37.9574 265.474 38.2415C265.221 38.5227 264.897 38.7415 264.502 38.8977C264.108 39.0511 263.656 39.1278 263.147 39.1278ZM267.363 39V32.4545H268.859V33.5455H268.927C269.046 33.1676 269.251 32.8764 269.54 32.6719C269.833 32.4645 270.167 32.3608 270.542 32.3608C270.627 32.3608 270.722 32.3651 270.827 32.3736C270.935 32.3793 271.025 32.3892 271.096 32.4034V33.8224C271.031 33.7997 270.927 33.7798 270.785 33.7628C270.646 33.7429 270.511 33.733 270.38 33.733C270.099 33.733 269.846 33.794 269.621 33.9162C269.4 34.0355 269.225 34.2017 269.097 34.4148C268.969 34.6278 268.906 34.8736 268.906 35.152V39H267.363ZM276.64 35.1648V39H275.097V30.2727H276.606V33.5668H276.683C276.836 33.1974 277.073 32.9062 277.394 32.6932C277.718 32.4773 278.13 32.3693 278.63 32.3693C279.085 32.3693 279.481 32.4645 279.819 32.6548C280.157 32.8452 280.418 33.1236 280.603 33.4901C280.79 33.8565 280.884 34.304 280.884 34.8324V39H279.342V35.071C279.342 34.6307 279.228 34.2884 279.001 34.044C278.776 33.7969 278.461 33.6733 278.055 33.6733C277.782 33.6733 277.538 33.733 277.322 33.8523C277.109 33.9687 276.941 34.1378 276.819 34.3594C276.7 34.581 276.64 34.8494 276.64 35.1648ZM284.34 39.1321C283.925 39.1321 283.552 39.0582 283.219 38.9105C282.89 38.7599 282.629 38.5384 282.435 38.2457C282.245 37.9531 282.15 37.5923 282.15 37.1634C282.15 36.794 282.218 36.4886 282.354 36.2472C282.491 36.0057 282.677 35.8125 282.913 35.6676C283.148 35.5227 283.414 35.4134 283.71 35.3395C284.008 35.2628 284.316 35.2074 284.634 35.1733C285.018 35.1335 285.329 35.098 285.567 35.0668C285.806 35.0327 285.979 34.9815 286.087 34.9134C286.198 34.8423 286.254 34.733 286.254 34.5852V34.5597C286.254 34.2386 286.158 33.9901 285.968 33.8139C285.778 33.6378 285.504 33.5497 285.146 33.5497C284.768 33.5497 284.468 33.6321 284.246 33.7969C284.028 33.9616 283.88 34.1562 283.803 34.3807L282.363 34.1761C282.477 33.7784 282.664 33.446 282.925 33.179C283.187 32.9091 283.506 32.7074 283.884 32.5739C284.262 32.4375 284.68 32.3693 285.137 32.3693C285.452 32.3693 285.766 32.4062 286.079 32.4801C286.391 32.554 286.677 32.6761 286.935 32.8466C287.194 33.0142 287.401 33.2429 287.558 33.5327C287.717 33.8224 287.796 34.1847 287.796 34.6193V39H286.313V38.1009H286.262C286.168 38.2827 286.036 38.4531 285.866 38.6122C285.698 38.7685 285.487 38.8949 285.231 38.9915C284.978 39.0852 284.681 39.1321 284.34 39.1321ZM284.741 37.9986C285.05 37.9986 285.319 37.9375 285.546 37.8153C285.773 37.6903 285.948 37.5256 286.07 37.321C286.195 37.1165 286.258 36.8935 286.258 36.652V35.8807C286.21 35.9205 286.127 35.9574 286.011 35.9915C285.897 36.0256 285.769 36.0554 285.627 36.081C285.485 36.1065 285.344 36.1293 285.205 36.1491C285.066 36.169 284.945 36.1861 284.843 36.2003C284.613 36.2315 284.407 36.2827 284.225 36.3537C284.043 36.4247 283.9 36.5241 283.795 36.652C283.69 36.777 283.637 36.9389 283.637 37.1378C283.637 37.4219 283.741 37.6364 283.948 37.7812C284.156 37.9261 284.42 37.9986 284.741 37.9986ZM289.347 39V32.4545H290.89V39H289.347ZM290.123 31.5256C289.879 31.5256 289.668 31.4446 289.492 31.2827C289.316 31.1179 289.228 30.9205 289.228 30.6903C289.228 30.4574 289.316 30.2599 289.492 30.098C289.668 29.9332 289.879 29.8509 290.123 29.8509C290.37 29.8509 290.58 29.9332 290.754 30.098C290.93 30.2599 291.018 30.4574 291.018 30.6903C291.018 30.9205 290.93 31.1179 290.754 31.2827C290.58 31.4446 290.37 31.5256 290.123 31.5256ZM292.476 39V32.4545H293.972V33.5455H294.04C294.159 33.1676 294.364 32.8764 294.654 32.6719C294.946 32.4645 295.28 32.3608 295.655 32.3608C295.74 32.3608 295.836 32.3651 295.941 32.3736C296.049 32.3793 296.138 32.3892 296.209 32.4034V33.8224C296.144 33.7997 296.04 33.7798 295.898 33.7628C295.759 33.7429 295.624 33.733 295.493 33.733C295.212 33.733 294.959 33.794 294.735 33.9162C294.513 34.0355 294.338 34.2017 294.211 34.4148C294.083 34.6278 294.019 34.8736 294.019 35.152V39H292.476Z" fill="white"/>
<path d="M272.571 46.4853C273.462 46.4853 273.908 47.5624 273.278 48.1924L267.207 54.2635C266.817 54.654 266.183 54.654 265.793 54.2635L259.722 48.1924C259.092 47.5624 259.538 46.4853 260.429 46.4853H272.571Z" fill="#67AE14"/>
</g>
<defs>
<filter id="filter0_dd_177_5048" x="37" y="81" width="124" height="64" filterUnits="userSpaceOnUse" color-interpolation-filters="sRGB">
<feFlood flood-opacity="0" result="BackgroundImageFix"/>
<feColorMatrix in="SourceAlpha" type="matrix" values="0 0 0 0 0 0 0 0 0 0 0 0 0 0 0 0 0 0 127 0" result="hardAlpha"/>
<feMorphology radius="2" operator="erode" in="SourceAlpha" result="effect1_dropShadow_177_5048"/>
<feOffset dy="4"/>
<feGaussianBlur stdDeviation="3"/>
<feColorMatrix type="matrix" values="0 0 0 0 0.0627451 0 0 0 0 0.0941176 0 0 0 0 0.156863 0 0 0 0.03 0"/>
<feBlend mode="normal" in2="BackgroundImageFix" result="effect1_dropShadow_177_5048"/>
<feColorMatrix in="SourceAlpha" type="matrix" values="0 0 0 0 0 0 0 0 0 0 0 0 0 0 0 0 0 0 127 0" result="hardAlpha"/>
<feMorphology radius="4" operator="erode" in="SourceAlpha" result="effect2_dropShadow_177_5048"/>
<feOffset dy="12"/>
<feGaussianBlur stdDeviation="8"/>
<feColorMatrix type="matrix" values="0 0 0 0 0.0627451 0 0 0 0 0.0941176 0 0 0 0 0.156863 0 0 0 0.08 0"/>
<feBlend mode="normal" in2="effect1_dropShadow_177_5048" result="effect2_dropShadow_177_5048"/>
<feBlend mode="normal" in="SourceGraphic" in2="effect2_dropShadow_177_5048" result="shape"/>
</filter>
<filter id="filter1_dd_177_5048" x="157" y="0" width="219" height="79" filterUnits="userSpaceOnUse" color-interpolation-filters="sRGB">
<feFlood flood-opacity="0" result="BackgroundImageFix"/>
<feColorMatrix in="SourceAlpha" type="matrix" values="0 0 0 0 0 0 0 0 0 0 0 0 0 0 0 0 0 0 127 0" result="hardAlpha"/>
<feMorphology radius="2" operator="erode" in="SourceAlpha" result="effect1_dropShadow_177_5048"/>
<feOffset dy="4"/>
<feGaussianBlur stdDeviation="3"/>
<feColorMatrix type="matrix" values="0 0 0 0 0.0627451 0 0 0 0 0.0941176 0 0 0 0 0.156863 0 0 0 0.03 0"/>
<feBlend mode="normal" in2="BackgroundImageFix" result="effect1_dropShadow_177_5048"/>
<feColorMatrix in="SourceAlpha" type="matrix" values="0 0 0 0 0 0 0 0 0 0 0 0 0 0 0 0 0 0 127 0" result="hardAlpha"/>
<feMorphology radius="4" operator="erode" in="SourceAlpha" result="effect2_dropShadow_177_5048"/>
<feOffset dy="12"/>
<feGaussianBlur stdDeviation="8"/>
<feColorMatrix type="matrix" values="0 0 0 0 0.0627451 0 0 0 0 0.0941176 0 0 0 0 0.156863 0 0 0 0.08 0"/>
<feBlend mode="normal" in2="effect1_dropShadow_177_5048" result="effect2_dropShadow_177_5048"/>
<feBlend mode="normal" in="SourceGraphic" in2="effect2_dropShadow_177_5048" result="shape"/>
</filter>
<linearGradient id="paint0_linear_177_5048" x1="176.145" y1="63" x2="176.145" y2="261" gradientUnits="userSpaceOnUse">
<stop stop-color="#82CD23"/>
<stop offset="1" stop-color="#E2FFC0"/>
</linearGradient>
<linearGradient id="paint1_linear_177_5048" x1="93.1445" y1="58.6862" x2="93.1445" y2="263" gradientUnits="userSpaceOnUse">
<stop stop-color="#6FC600"/>
<stop offset="1" stop-color="#D2FF99" stop-opacity="0"/>
</linearGradient>
<linearGradient id="paint2_linear_177_5048" x1="260.145" y1="-0.735379" x2="260.145" y2="261" gradientUnits="userSpaceOnUse">
<stop stop-color="#17AE14"/>
<stop offset="1" stop-color="#D2FF99" stop-opacity="0"/>
</linearGradient>
</defs>
</svg>
