<svg width="353" height="254" viewBox="0 0 353 254" fill="none" xmlns="http://www.w3.org/2000/svg">
<path d="M343.645 247V49C125.468 75.0751 29.4045 191.865 8.64453 247H343.645Z" fill="url(#paint0_linear_177_4972)" fill-opacity="0.4"/>
<path d="M176.645 58V253.953" stroke="#C0C0C0" stroke-width="0.916382" stroke-dasharray="1.83 1.83"/>
<rect y="240.681" width="12.8294" height="12.8294" fill="#79CB18"/>
<path d="M176.645 96C77.0445 136.298 23.8112 205.062 9.64453 234.406V249H176.645V96Z" fill="url(#paint1_linear_177_4972)"/>
<path d="M343.645 47.5C235.645 68.5 232.645 72 176.645 94V247H343.645V47.5Z" fill="url(#paint2_linear_177_4972)"/>
<path d="M8.64453 244C27.0614 200.446 108.655 80.4812 343.645 49" stroke="#79CB18" stroke-width="4.58191"/>
<circle cx="98.6445" cy="140" r="18" fill="#79CB18" fill-opacity="0.5"/>
<circle cx="266.645" cy="67" r="18" fill="#79CB18" fill-opacity="0.5"/>
<circle cx="98.6445" cy="140" r="12" fill="#79CB18"/>
<circle cx="266.645" cy="67" r="12" fill="#17AE14"/>
<g filter="url(#filter0_dd_177_4972)">
<rect x="47.5" y="67" width="103" height="34" rx="8" fill="#79CB18"/>
<path d="M65.1467 81.6719C65.1069 81.2997 64.9393 81.0099 64.6438 80.8026C64.3512 80.5952 63.9705 80.4915 63.5018 80.4915C63.1722 80.4915 62.8896 80.5412 62.6538 80.6406C62.418 80.7401 62.2376 80.875 62.1126 81.0455C61.9876 81.2159 61.9237 81.4105 61.9208 81.6293C61.9208 81.8111 61.962 81.9687 62.0444 82.1023C62.1296 82.2358 62.2447 82.3494 62.3896 82.4432C62.5344 82.5341 62.695 82.6108 62.8711 82.6733C63.0472 82.7358 63.2248 82.7884 63.4038 82.831L64.2219 83.0355C64.5515 83.1122 64.8683 83.2159 65.1722 83.3466C65.479 83.4773 65.7532 83.642 65.9947 83.8409C66.239 84.0398 66.4322 84.2798 66.5742 84.5611C66.7163 84.8423 66.7873 85.1719 66.7873 85.5497C66.7873 86.0611 66.6566 86.5114 66.3952 86.9006C66.1339 87.2869 65.756 87.5895 65.2617 87.8082C64.7702 88.0241 64.1751 88.1321 63.4762 88.1321C62.7972 88.1321 62.2077 88.027 61.7077 87.8168C61.2106 87.6065 60.8214 87.2997 60.5401 86.8963C60.2617 86.4929 60.1112 86.0014 60.0884 85.4219H61.6438C61.6665 85.7259 61.7603 85.9787 61.9251 86.1804C62.0898 86.3821 62.3043 86.5327 62.5685 86.6321C62.8356 86.7315 63.1339 86.7812 63.4634 86.7812C63.8072 86.7812 64.1083 86.7301 64.3668 86.6278C64.6282 86.5227 64.8327 86.3778 64.9805 86.1932C65.1282 86.0057 65.2035 85.7869 65.2063 85.5369C65.2035 85.3097 65.1367 85.1222 65.006 84.9744C64.8754 84.8239 64.6921 84.6989 64.4563 84.5994C64.2234 84.4972 63.9506 84.4062 63.6381 84.3267L62.6452 84.071C61.9265 83.8864 61.3583 83.6065 60.9407 83.2315C60.5259 82.8537 60.3185 82.3523 60.3185 81.7273C60.3185 81.2131 60.4577 80.7628 60.7362 80.3764C61.0174 79.9901 61.3995 79.6903 61.8825 79.4773C62.3654 79.2614 62.9123 79.1534 63.5231 79.1534C64.1424 79.1534 64.685 79.2614 65.1509 79.4773C65.6197 79.6903 65.9876 79.9872 66.2546 80.3679C66.5217 80.7457 66.6594 81.1804 66.668 81.6719H65.1467ZM71.397 81.4545V82.6477H67.6342V81.4545H71.397ZM68.5632 79.8864H70.1058V86.0312C70.1058 86.2386 70.1371 86.3977 70.1996 86.5085C70.2649 86.6165 70.3501 86.6903 70.4553 86.7301C70.5604 86.7699 70.6768 86.7898 70.8047 86.7898C70.9013 86.7898 70.9893 86.7827 71.0689 86.7685C71.1513 86.7543 71.2138 86.7415 71.2564 86.7301L71.5163 87.9361C71.4339 87.9645 71.3161 87.9957 71.1626 88.0298C71.0121 88.0639 70.8274 88.0838 70.6087 88.0895C70.2223 88.1009 69.8743 88.0426 69.5646 87.9148C69.255 87.7841 69.0092 87.5824 68.8274 87.3097C68.6484 87.0369 68.5604 86.696 68.5632 86.2869V79.8864ZM72.6871 88V81.4545H74.1829V82.5455H74.2511C74.3704 82.1676 74.5749 81.8764 74.8647 81.6719C75.1573 81.4645 75.4911 81.3608 75.8661 81.3608C75.9513 81.3608 76.0465 81.3651 76.1516 81.3736C76.2596 81.3793 76.3491 81.3892 76.4201 81.4034V82.8224C76.3548 82.7997 76.2511 82.7798 76.109 82.7628C75.9698 82.7429 75.8349 82.733 75.7042 82.733C75.4229 82.733 75.1701 82.794 74.9457 82.9162C74.7241 83.0355 74.5494 83.2017 74.4215 83.4148C74.2937 83.6278 74.2298 83.8736 74.2298 84.152V88H72.6871ZM80.0305 88.1278C79.3913 88.1278 78.8374 87.9872 78.3686 87.706C77.8999 87.4247 77.5362 87.0312 77.2777 86.5256C77.022 86.0199 76.8942 85.429 76.8942 84.7528C76.8942 84.0767 77.022 83.4844 77.2777 82.9759C77.5362 82.4673 77.8999 82.0724 78.3686 81.7912C78.8374 81.5099 79.3913 81.3693 80.0305 81.3693C80.6697 81.3693 81.2237 81.5099 81.6925 81.7912C82.1612 82.0724 82.5234 82.4673 82.7791 82.9759C83.0376 83.4844 83.1669 84.0767 83.1669 84.7528C83.1669 85.429 83.0376 86.0199 82.7791 86.5256C82.5234 87.0312 82.1612 87.4247 81.6925 87.706C81.2237 87.9872 80.6697 88.1278 80.0305 88.1278ZM80.0391 86.892C80.3857 86.892 80.6754 86.7969 80.9084 86.6065C81.1413 86.4134 81.3146 86.1548 81.4283 85.831C81.5447 85.5071 81.603 85.1463 81.603 84.7486C81.603 84.348 81.5447 83.9858 81.4283 83.6619C81.3146 83.3352 81.1413 83.0753 80.9084 82.8821C80.6754 82.6889 80.3857 82.5923 80.0391 82.5923C79.6839 82.5923 79.3885 82.6889 79.1527 82.8821C78.9197 83.0753 78.745 83.3352 78.6286 83.6619C78.5149 83.9858 78.4581 84.348 78.4581 84.7486C78.4581 85.1463 78.5149 85.5071 78.6286 85.831C78.745 86.1548 78.9197 86.4134 79.1527 86.6065C79.3885 86.7969 79.6839 86.892 80.0391 86.892ZM86.0188 84.1648V88H84.4762V81.4545H85.9506V82.5668H86.0273C86.1779 82.2003 86.418 81.9091 86.7475 81.6932C87.0799 81.4773 87.4904 81.3693 87.979 81.3693C88.4308 81.3693 88.8242 81.4659 89.1594 81.6591C89.4975 81.8523 89.7589 82.1321 89.9435 82.4986C90.131 82.8651 90.2234 83.3097 90.2205 83.8324V88H88.6779V84.071C88.6779 83.6335 88.5643 83.2912 88.337 83.044C88.1126 82.7969 87.8015 82.6733 87.4038 82.6733C87.1339 82.6733 86.8938 82.733 86.6836 82.8523C86.4762 82.9687 86.3129 83.1378 86.1935 83.3594C86.0771 83.581 86.0188 83.8494 86.0188 84.1648ZM94.6353 90.5909C94.0813 90.5909 93.6055 90.5156 93.2077 90.3651C92.81 90.2173 92.4904 90.0185 92.2489 89.7685C92.0075 89.5185 91.8398 89.2415 91.7461 88.9375L93.1353 88.6009C93.1978 88.7287 93.2887 88.8551 93.408 88.9801C93.5273 89.108 93.6879 89.2131 93.8896 89.2955C94.0941 89.3807 94.3512 89.4233 94.6609 89.4233C95.0984 89.4233 95.4606 89.3168 95.7475 89.1037C96.0344 88.8935 96.1779 88.5469 96.1779 88.0639V86.8239H96.1012C96.0217 86.983 95.9052 87.1463 95.7518 87.3139C95.6012 87.4815 95.4009 87.6222 95.1509 87.7358C94.9038 87.8494 94.5927 87.9062 94.2177 87.9062C93.7148 87.9062 93.2589 87.7884 92.8498 87.5526C92.4435 87.3139 92.1197 86.9588 91.8782 86.4872C91.6396 86.0128 91.5202 85.419 91.5202 84.706C91.5202 83.9872 91.6396 83.3807 91.8782 82.8864C92.1197 82.3892 92.445 82.0128 92.854 81.7571C93.2631 81.4986 93.7191 81.3693 94.2219 81.3693C94.6055 81.3693 94.9208 81.4347 95.168 81.5653C95.418 81.6932 95.6168 81.848 95.7646 82.0298C95.9123 82.2088 96.0245 82.3778 96.1012 82.5369H96.1864V81.4545H97.7077V88.1065C97.7077 88.6662 97.5742 89.1293 97.3072 89.4957C97.0401 89.8622 96.6751 90.1364 96.212 90.3182C95.7489 90.5 95.2234 90.5909 94.6353 90.5909ZM94.6481 86.696C94.9748 86.696 95.2532 86.6165 95.4833 86.4574C95.7134 86.2983 95.8881 86.0696 96.0075 85.7713C96.1268 85.473 96.1864 85.1151 96.1864 84.6974C96.1864 84.2855 96.1268 83.9247 96.0075 83.6151C95.891 83.3054 95.7177 83.0653 95.4876 82.8949C95.2603 82.7216 94.9805 82.6349 94.6481 82.6349C94.3043 82.6349 94.0174 82.7244 93.7873 82.9034C93.5572 83.0824 93.3839 83.3281 93.2674 83.6406C93.1509 83.9503 93.0927 84.3026 93.0927 84.6974C93.0927 85.098 93.1509 85.4489 93.2674 85.75C93.3867 86.0483 93.5614 86.2812 93.7915 86.4489C94.0245 86.6136 94.31 86.696 94.6481 86.696ZM102.186 88.1278C101.53 88.1278 100.963 87.9915 100.486 87.7188C100.012 87.4432 99.6467 87.054 99.391 86.5511C99.1353 86.0455 99.0075 85.4503 99.0075 84.7656C99.0075 84.0923 99.1353 83.5014 99.391 82.9929C99.6495 82.4815 100.01 82.0838 100.473 81.7997C100.936 81.5128 101.48 81.3693 102.105 81.3693C102.509 81.3693 102.89 81.4347 103.248 81.5653C103.608 81.6932 103.926 81.892 104.202 82.1619C104.48 82.4318 104.699 82.7756 104.858 83.1932C105.017 83.608 105.097 84.1023 105.097 84.6761V85.1491H99.7319V84.1094H103.618C103.615 83.8139 103.551 83.5511 103.426 83.321C103.301 83.0881 103.127 82.9048 102.902 82.7713C102.681 82.6378 102.422 82.571 102.127 82.571C101.811 82.571 101.534 82.6477 101.296 82.8011C101.057 82.9517 100.871 83.1506 100.738 83.3977C100.607 83.642 100.54 83.9105 100.537 84.2031V85.1108C100.537 85.4915 100.607 85.8182 100.746 86.0909C100.885 86.3608 101.08 86.5682 101.33 86.7131C101.58 86.8551 101.873 86.9261 102.208 86.9261C102.432 86.9261 102.635 86.8949 102.817 86.8324C102.999 86.767 103.157 86.6719 103.29 86.5469C103.424 86.4219 103.525 86.267 103.593 86.0824L105.033 86.2443C104.942 86.625 104.769 86.9574 104.513 87.2415C104.26 87.5227 103.936 87.7415 103.542 87.8977C103.147 88.0511 102.695 88.1278 102.186 88.1278ZM106.402 88V81.4545H107.898V82.5455H107.966C108.085 82.1676 108.29 81.8764 108.58 81.6719C108.872 81.4645 109.206 81.3608 109.581 81.3608C109.666 81.3608 109.761 81.3651 109.866 81.3736C109.974 81.3793 110.064 81.3892 110.135 81.4034V82.8224C110.07 82.7997 109.966 82.7798 109.824 82.7628C109.685 82.7429 109.55 82.733 109.419 82.733C109.138 82.733 108.885 82.794 108.661 82.9162C108.439 83.0355 108.264 83.2017 108.136 83.4148C108.009 83.6278 107.945 83.8736 107.945 84.152V88H106.402ZM118.656 84.1648V88H117.113V79.2727H118.621V82.5668H118.698C118.852 82.1974 119.089 81.9062 119.41 81.6932C119.734 81.4773 120.146 81.3693 120.646 81.3693C121.1 81.3693 121.496 81.4645 121.835 81.6548C122.173 81.8452 122.434 82.1236 122.619 82.4901C122.806 82.8565 122.9 83.304 122.9 83.8324V88H121.357V84.071C121.357 83.6307 121.244 83.2884 121.016 83.044C120.792 82.7969 120.477 82.6733 120.07 82.6733C119.798 82.6733 119.553 82.733 119.337 82.8523C119.124 82.9687 118.957 83.1378 118.835 83.3594C118.715 83.581 118.656 83.8494 118.656 84.1648ZM126.356 88.1321C125.941 88.1321 125.567 88.0582 125.235 87.9105C124.906 87.7599 124.644 87.5384 124.451 87.2457C124.261 86.9531 124.165 86.5923 124.165 86.1634C124.165 85.794 124.234 85.4886 124.37 85.2472C124.506 85.0057 124.692 84.8125 124.928 84.6676C125.164 84.5227 125.43 84.4134 125.725 84.3395C126.023 84.2628 126.332 84.2074 126.65 84.1733C127.033 84.1335 127.344 84.098 127.583 84.0668C127.822 84.0327 127.995 83.9815 128.103 83.9134C128.214 83.8423 128.269 83.733 128.269 83.5852V83.5597C128.269 83.2386 128.174 82.9901 127.984 82.8139C127.793 82.6378 127.519 82.5497 127.161 82.5497C126.783 82.5497 126.484 82.6321 126.262 82.7969C126.043 82.9616 125.896 83.1562 125.819 83.3807L124.379 83.1761C124.492 82.7784 124.68 82.446 124.941 82.179C125.202 81.9091 125.522 81.7074 125.9 81.5739C126.278 81.4375 126.695 81.3693 127.153 81.3693C127.468 81.3693 127.782 81.4062 128.094 81.4801C128.407 81.554 128.692 81.6761 128.951 81.8466C129.21 82.0142 129.417 82.2429 129.573 82.5327C129.732 82.8224 129.812 83.1847 129.812 83.6193V88H128.329V87.1009H128.278C128.184 87.2827 128.052 87.4531 127.881 87.6122C127.714 87.7685 127.502 87.8949 127.246 87.9915C126.994 88.0852 126.697 88.1321 126.356 88.1321ZM126.756 86.9986C127.066 86.9986 127.335 86.9375 127.562 86.8153C127.789 86.6903 127.964 86.5256 128.086 86.321C128.211 86.1165 128.273 85.8935 128.273 85.652V84.8807C128.225 84.9205 128.143 84.9574 128.026 84.9915C127.913 85.0256 127.785 85.0554 127.643 85.081C127.501 85.1065 127.36 85.1293 127.221 85.1491C127.082 85.169 126.961 85.1861 126.859 85.2003C126.629 85.2315 126.423 85.2827 126.241 85.3537C126.059 85.4247 125.915 85.5241 125.81 85.652C125.705 85.777 125.653 85.9389 125.653 86.1378C125.653 86.4219 125.756 86.6364 125.964 86.7812C126.171 86.9261 126.435 86.9986 126.756 86.9986ZM131.363 88V81.4545H132.906V88H131.363ZM132.138 80.5256C131.894 80.5256 131.684 80.4446 131.508 80.2827C131.332 80.1179 131.244 79.9205 131.244 79.6903C131.244 79.4574 131.332 79.2599 131.508 79.098C131.684 78.9332 131.894 78.8509 132.138 78.8509C132.386 78.8509 132.596 78.9332 132.769 79.098C132.945 79.2599 133.033 79.4574 133.033 79.6903C133.033 79.9205 132.945 80.1179 132.769 80.2827C132.596 80.4446 132.386 80.5256 132.138 80.5256ZM134.492 88V81.4545H135.988V82.5455H136.056C136.175 82.1676 136.38 81.8764 136.669 81.6719C136.962 81.4645 137.296 81.3608 137.671 81.3608C137.756 81.3608 137.851 81.3651 137.956 81.3736C138.064 81.3793 138.154 81.3892 138.225 81.4034V82.8224C138.159 82.7997 138.056 82.7798 137.914 82.7628C137.775 82.7429 137.64 82.733 137.509 82.733C137.228 82.733 136.975 82.794 136.75 82.9162C136.529 83.0355 136.354 83.2017 136.226 83.4148C136.098 83.6278 136.034 83.8736 136.034 84.152V88H134.492Z" fill="white"/>
<path d="M105.071 98.4853C105.962 98.4853 106.408 99.5624 105.778 100.192L99.7071 106.263C99.3166 106.654 98.6834 106.654 98.2929 106.263L92.2218 100.192C91.5919 99.5624 92.038 98.4853 92.9289 98.4853L105.071 98.4853Z" fill="#79CB18"/>
</g>
<g filter="url(#filter1_dd_177_4972)">
<rect x="200.5" width="133" height="34" rx="8" fill="#67AE14"/>
<path d="M220.898 12.2727V21H219.492L215.379 15.0554H215.307V21H213.726V12.2727H215.141L219.249 18.2216H219.325V12.2727H220.898ZM225.407 21.1278C224.768 21.1278 224.214 20.9872 223.746 20.706C223.277 20.4247 222.913 20.0312 222.655 19.5256C222.399 19.0199 222.271 18.429 222.271 17.7528C222.271 17.0767 222.399 16.4844 222.655 15.9759C222.913 15.4673 223.277 15.0724 223.746 14.7912C224.214 14.5099 224.768 14.3693 225.407 14.3693C226.047 14.3693 226.601 14.5099 227.069 14.7912C227.538 15.0724 227.9 15.4673 228.156 15.9759C228.415 16.4844 228.544 17.0767 228.544 17.7528C228.544 18.429 228.415 19.0199 228.156 19.5256C227.9 20.0312 227.538 20.4247 227.069 20.706C226.601 20.9872 226.047 21.1278 225.407 21.1278ZM225.416 19.892C225.763 19.892 226.052 19.7969 226.285 19.6065C226.518 19.4134 226.692 19.1548 226.805 18.831C226.922 18.5071 226.98 18.1463 226.98 17.7486C226.98 17.348 226.922 16.9858 226.805 16.6619C226.692 16.3352 226.518 16.0753 226.285 15.8821C226.052 15.6889 225.763 15.5923 225.416 15.5923C225.061 15.5923 224.765 15.6889 224.53 15.8821C224.297 16.0753 224.122 16.3352 224.006 16.6619C223.892 16.9858 223.835 17.348 223.835 17.7486C223.835 18.1463 223.892 18.5071 224.006 18.831C224.122 19.1548 224.297 19.4134 224.53 19.6065C224.765 19.7969 225.061 19.892 225.416 19.892ZM232.83 21V14.4545H234.304V15.5668H234.381C234.517 15.1918 234.743 14.8991 235.058 14.6889C235.374 14.4759 235.75 14.3693 236.188 14.3693C236.631 14.3693 237.004 14.4773 237.308 14.6932C237.615 14.9062 237.831 15.1974 237.956 15.5668H238.024C238.169 15.2031 238.414 14.9134 238.757 14.6974C239.104 14.4787 239.514 14.3693 239.989 14.3693C240.591 14.3693 241.083 14.5597 241.463 14.9403C241.844 15.321 242.034 15.8764 242.034 16.6065V21H240.487V16.8452C240.487 16.4389 240.379 16.142 240.164 15.9545C239.948 15.7642 239.683 15.669 239.371 15.669C238.999 15.669 238.708 15.7855 238.497 16.0185C238.29 16.2486 238.186 16.5483 238.186 16.9176V21H236.673V16.7812C236.673 16.4432 236.571 16.1733 236.367 15.9716C236.165 15.7699 235.901 15.669 235.574 15.669C235.352 15.669 235.151 15.7259 234.969 15.8395C234.787 15.9503 234.642 16.108 234.534 16.3125C234.426 16.5142 234.372 16.75 234.372 17.0199V21H232.83ZM246.454 21.1278C245.815 21.1278 245.261 20.9872 244.792 20.706C244.324 20.4247 243.96 20.0312 243.702 19.5256C243.446 19.0199 243.318 18.429 243.318 17.7528C243.318 17.0767 243.446 16.4844 243.702 15.9759C243.96 15.4673 244.324 15.0724 244.792 14.7912C245.261 14.5099 245.815 14.3693 246.454 14.3693C247.094 14.3693 247.648 14.5099 248.116 14.7912C248.585 15.0724 248.947 15.4673 249.203 15.9759C249.461 16.4844 249.591 17.0767 249.591 17.7528C249.591 18.429 249.461 19.0199 249.203 19.5256C248.947 20.0312 248.585 20.4247 248.116 20.706C247.648 20.9872 247.094 21.1278 246.454 21.1278ZM246.463 19.892C246.809 19.892 247.099 19.7969 247.332 19.6065C247.565 19.4134 247.738 19.1548 247.852 18.831C247.969 18.5071 248.027 18.1463 248.027 17.7486C248.027 17.348 247.969 16.9858 247.852 16.6619C247.738 16.3352 247.565 16.0753 247.332 15.8821C247.099 15.6889 246.809 15.5923 246.463 15.5923C246.108 15.5923 245.812 15.6889 245.577 15.8821C245.344 16.0753 245.169 16.3352 245.052 16.6619C244.939 16.9858 244.882 17.348 244.882 17.7486C244.882 18.1463 244.939 18.5071 245.052 18.831C245.169 19.1548 245.344 19.4134 245.577 19.6065C245.812 19.7969 246.108 19.892 246.463 19.892ZM250.9 21V14.4545H252.396V15.5455H252.464C252.583 15.1676 252.788 14.8764 253.078 14.6719C253.37 14.4645 253.704 14.3608 254.079 14.3608C254.164 14.3608 254.259 14.3651 254.365 14.3736C254.472 14.3793 254.562 14.3892 254.633 14.4034V15.8224C254.568 15.7997 254.464 15.7798 254.322 15.7628C254.183 15.7429 254.048 15.733 253.917 15.733C253.636 15.733 253.383 15.794 253.159 15.9162C252.937 16.0355 252.762 16.2017 252.634 16.4148C252.507 16.6278 252.443 16.8736 252.443 17.152V21H250.9ZM258.286 21.1278C257.63 21.1278 257.063 20.9915 256.586 20.7188C256.111 20.4432 255.746 20.054 255.491 19.5511C255.235 19.0455 255.107 18.4503 255.107 17.7656C255.107 17.0923 255.235 16.5014 255.491 15.9929C255.749 15.4815 256.11 15.0838 256.573 14.7997C257.036 14.5128 257.58 14.3693 258.205 14.3693C258.608 14.3693 258.989 14.4347 259.347 14.5653C259.708 14.6932 260.026 14.892 260.302 15.1619C260.58 15.4318 260.799 15.7756 260.958 16.1932C261.117 16.608 261.197 17.1023 261.197 17.6761V18.1491H255.831V17.1094H259.718C259.715 16.8139 259.651 16.5511 259.526 16.321C259.401 16.0881 259.226 15.9048 259.002 15.7713C258.78 15.6378 258.522 15.571 258.226 15.571C257.911 15.571 257.634 15.6477 257.395 15.8011C257.157 15.9517 256.971 16.1506 256.837 16.3977C256.706 16.642 256.64 16.9105 256.637 17.2031V18.1108C256.637 18.4915 256.706 18.8182 256.846 19.0909C256.985 19.3608 257.18 19.5682 257.43 19.7131C257.68 19.8551 257.972 19.9261 258.307 19.9261C258.532 19.9261 258.735 19.8949 258.917 19.8324C259.099 19.767 259.256 19.6719 259.39 19.5469C259.523 19.4219 259.624 19.267 259.692 19.0824L261.133 19.2443C261.042 19.625 260.868 19.9574 260.613 20.2415C260.36 20.5227 260.036 20.7415 259.641 20.8977C259.246 21.0511 258.795 21.1278 258.286 21.1278ZM270.651 16.1847L269.245 16.3381C269.205 16.196 269.136 16.0625 269.036 15.9375C268.94 15.8125 268.809 15.7116 268.644 15.6349C268.48 15.5582 268.278 15.5199 268.039 15.5199C267.718 15.5199 267.448 15.5895 267.23 15.7287C267.014 15.8679 266.907 16.0483 266.91 16.2699C266.907 16.4602 266.977 16.6151 267.119 16.7344C267.264 16.8537 267.502 16.9517 267.835 17.0284L268.951 17.267C269.57 17.4006 270.031 17.6122 270.332 17.902C270.636 18.1918 270.789 18.571 270.792 19.0398C270.789 19.4517 270.669 19.8153 270.43 20.1307C270.194 20.4432 269.866 20.6875 269.445 20.8636C269.025 21.0398 268.542 21.1278 267.997 21.1278C267.195 21.1278 266.551 20.9602 266.062 20.625C265.573 20.2869 265.282 19.8168 265.188 19.2145L266.693 19.0696C266.761 19.3651 266.906 19.5881 267.127 19.7386C267.349 19.8892 267.637 19.9645 267.992 19.9645C268.359 19.9645 268.653 19.8892 268.874 19.7386C269.099 19.5881 269.211 19.402 269.211 19.1804C269.211 18.9929 269.139 18.8381 268.994 18.7159C268.852 18.5937 268.63 18.5 268.329 18.4347L267.213 18.2003C266.585 18.0696 266.12 17.8494 265.819 17.5398C265.518 17.2273 265.369 16.8324 265.372 16.3551C265.369 15.9517 265.478 15.6023 265.7 15.3068C265.924 15.0085 266.235 14.7784 266.633 14.6165C267.034 14.4517 267.495 14.3693 268.018 14.3693C268.785 14.3693 269.389 14.5327 269.829 14.8594C270.272 15.1861 270.546 15.6278 270.651 16.1847ZM272.064 23.4545V14.4545H273.581V15.5369H273.671C273.75 15.3778 273.862 15.2088 274.007 15.0298C274.152 14.848 274.348 14.6932 274.595 14.5653C274.843 14.4347 275.158 14.3693 275.541 14.3693C276.047 14.3693 276.503 14.4986 276.909 14.7571C277.318 15.0128 277.642 15.392 277.881 15.8949C278.122 16.3949 278.243 17.0085 278.243 17.7358C278.243 18.4545 278.125 19.0653 277.889 19.5682C277.654 20.071 277.333 20.4545 276.926 20.7188C276.52 20.983 276.06 21.1151 275.546 21.1151C275.171 21.1151 274.86 21.0526 274.612 20.9276C274.365 20.8026 274.166 20.652 274.016 20.4759C273.868 20.2969 273.753 20.1278 273.671 19.9688H273.607V23.4545H272.064ZM273.577 17.7273C273.577 18.1506 273.637 18.5213 273.756 18.8395C273.878 19.1577 274.053 19.4062 274.28 19.5852C274.51 19.7614 274.789 19.8494 275.115 19.8494C275.456 19.8494 275.742 19.7585 275.972 19.5767C276.202 19.392 276.375 19.1406 276.492 18.8224C276.611 18.5014 276.671 18.1364 276.671 17.7273C276.671 17.321 276.612 16.9602 276.496 16.6449C276.379 16.3295 276.206 16.0824 275.976 15.9034C275.746 15.7244 275.459 15.6349 275.115 15.6349C274.786 15.6349 274.506 15.7216 274.276 15.8949C274.046 16.0682 273.871 16.3111 273.752 16.6236C273.635 16.9361 273.577 17.304 273.577 17.7273ZM281.107 12.2727V21H279.564V12.2727H281.107ZM282.693 21V14.4545H284.236V21H282.693ZM283.469 13.5256C283.224 13.5256 283.014 13.4446 282.838 13.2827C282.662 13.1179 282.574 12.9205 282.574 12.6903C282.574 12.4574 282.662 12.2599 282.838 12.098C283.014 11.9332 283.224 11.8509 283.469 11.8509C283.716 11.8509 283.926 11.9332 284.099 12.098C284.275 12.2599 284.363 12.4574 284.363 12.6903C284.363 12.9205 284.275 13.1179 284.099 13.2827C283.926 13.4446 283.716 13.5256 283.469 13.5256ZM289.09 14.4545V15.6477H285.328V14.4545H289.09ZM286.257 12.8864H287.799V19.0312C287.799 19.2386 287.83 19.3977 287.893 19.5085C287.958 19.6165 288.044 19.6903 288.149 19.7301C288.254 19.7699 288.37 19.7898 288.498 19.7898C288.595 19.7898 288.683 19.7827 288.762 19.7685C288.845 19.7543 288.907 19.7415 288.95 19.7301L289.21 20.9361C289.127 20.9645 289.009 20.9957 288.856 21.0298C288.705 21.0639 288.521 21.0838 288.302 21.0895C287.916 21.1009 287.568 21.0426 287.258 20.9148C286.948 20.7841 286.703 20.5824 286.521 20.3097C286.342 20.0369 286.254 19.696 286.257 19.2869V12.8864ZM296.255 21.1278C295.599 21.1278 295.032 20.9915 294.555 20.7188C294.08 20.4432 293.715 20.054 293.459 19.5511C293.204 19.0455 293.076 18.4503 293.076 17.7656C293.076 17.0923 293.204 16.5014 293.459 15.9929C293.718 15.4815 294.079 15.0838 294.542 14.7997C295.005 14.5128 295.549 14.3693 296.174 14.3693C296.577 14.3693 296.958 14.4347 297.316 14.5653C297.677 14.6932 297.995 14.892 298.27 15.1619C298.549 15.4318 298.768 15.7756 298.927 16.1932C299.086 16.608 299.165 17.1023 299.165 17.6761V18.1491H293.8V17.1094H297.687C297.684 16.8139 297.62 16.5511 297.495 16.321C297.37 16.0881 297.195 15.9048 296.971 15.7713C296.749 15.6378 296.491 15.571 296.195 15.571C295.88 15.571 295.603 15.6477 295.364 15.8011C295.126 15.9517 294.939 16.1506 294.806 16.3977C294.675 16.642 294.608 16.9105 294.606 17.2031V18.1108C294.606 18.4915 294.675 18.8182 294.814 19.0909C294.954 19.3608 295.148 19.5682 295.398 19.7131C295.648 19.8551 295.941 19.9261 296.276 19.9261C296.501 19.9261 296.704 19.8949 296.885 19.8324C297.067 19.767 297.225 19.6719 297.358 19.5469C297.492 19.4219 297.593 19.267 297.661 19.0824L299.101 19.2443C299.01 19.625 298.837 19.9574 298.581 20.2415C298.329 20.5227 298.005 20.7415 297.61 20.8977C297.215 21.0511 296.763 21.1278 296.255 21.1278ZM302.013 17.1648V21H300.47V14.4545H301.945V15.5668H302.021C302.172 15.2003 302.412 14.9091 302.742 14.6932C303.074 14.4773 303.485 14.3693 303.973 14.3693C304.425 14.3693 304.818 14.4659 305.154 14.6591C305.492 14.8523 305.753 15.1321 305.938 15.4986C306.125 15.8651 306.218 16.3097 306.215 16.8324V21H304.672V17.071C304.672 16.6335 304.558 16.2912 304.331 16.044C304.107 15.7969 303.796 15.6733 303.398 15.6733C303.128 15.6733 302.888 15.733 302.678 15.8523C302.47 15.9687 302.307 16.1378 302.188 16.3594C302.071 16.581 302.013 16.8494 302.013 17.1648ZM310.212 21.1151C309.698 21.1151 309.237 20.983 308.831 20.7188C308.425 20.4545 308.104 20.071 307.868 19.5682C307.632 19.0653 307.514 18.4545 307.514 17.7358C307.514 17.0085 307.634 16.3949 307.872 15.8949C308.114 15.392 308.439 15.0128 308.848 14.7571C309.257 14.4986 309.713 14.3693 310.216 14.3693C310.6 14.3693 310.915 14.4347 311.162 14.5653C311.409 14.6932 311.605 14.848 311.75 15.0298C311.895 15.2088 312.007 15.3778 312.087 15.5369H312.151V12.2727H313.698V21H312.181V19.9688H312.087C312.007 20.1278 311.892 20.2969 311.742 20.4759C311.591 20.652 311.392 20.8026 311.145 20.9276C310.898 21.0526 310.587 21.1151 310.212 21.1151ZM310.642 19.8494C310.969 19.8494 311.247 19.7614 311.477 19.5852C311.708 19.4062 311.882 19.1577 312.002 18.8395C312.121 18.5213 312.181 18.1506 312.181 17.7273C312.181 17.304 312.121 16.9361 312.002 16.6236C311.885 16.3111 311.712 16.0682 311.482 15.8949C311.254 15.7216 310.975 15.6349 310.642 15.6349C310.298 15.6349 310.012 15.7244 309.781 15.9034C309.551 16.0824 309.378 16.3295 309.262 16.6449C309.145 16.9602 309.087 17.321 309.087 17.7273C309.087 18.1364 309.145 18.5014 309.262 18.8224C309.381 19.1406 309.556 19.392 309.786 19.5767C310.019 19.7585 310.304 19.8494 310.642 19.8494ZM320.515 16.1847L319.108 16.3381C319.069 16.196 318.999 16.0625 318.9 15.9375C318.803 15.8125 318.672 15.7116 318.508 15.6349C318.343 15.5582 318.141 15.5199 317.903 15.5199C317.581 15.5199 317.312 15.5895 317.093 15.7287C316.877 15.8679 316.77 16.0483 316.773 16.2699C316.77 16.4602 316.84 16.6151 316.982 16.7344C317.127 16.8537 317.366 16.9517 317.698 17.0284L318.814 17.267C319.434 17.4006 319.894 17.6122 320.195 17.902C320.499 18.1918 320.653 18.571 320.655 19.0398C320.653 19.4517 320.532 19.8153 320.293 20.1307C320.057 20.4432 319.729 20.6875 319.309 20.8636C318.888 21.0398 318.405 21.1278 317.86 21.1278C317.059 21.1278 316.414 20.9602 315.925 20.625C315.437 20.2869 315.145 19.8168 315.052 19.2145L316.556 19.0696C316.624 19.3651 316.769 19.5881 316.991 19.7386C317.212 19.8892 317.501 19.9645 317.856 19.9645C318.222 19.9645 318.516 19.8892 318.738 19.7386C318.962 19.5881 319.074 19.402 319.074 19.1804C319.074 18.9929 319.002 18.8381 318.857 18.7159C318.715 18.5937 318.493 18.5 318.192 18.4347L317.076 18.2003C316.448 18.0696 315.983 17.8494 315.682 17.5398C315.381 17.2273 315.232 16.8324 315.235 16.3551C315.232 15.9517 315.341 15.6023 315.563 15.3068C315.787 15.0085 316.099 14.7784 316.496 14.6165C316.897 14.4517 317.358 14.3693 317.881 14.3693C318.648 14.3693 319.252 14.5327 319.692 14.8594C320.135 15.1861 320.41 15.6278 320.515 16.1847Z" fill="white"/>
<path d="M273.071 31.4853C273.962 31.4853 274.408 32.5624 273.778 33.1924L267.707 39.2635C267.317 39.654 266.683 39.654 266.293 39.2635L260.222 33.1924C259.592 32.5624 260.038 31.4853 260.929 31.4853L273.071 31.4853Z" fill="#67AE14"/>
</g>
<path d="M90.9892 195.838H93.1549V196.011C92.8446 196.067 92.612 196.163 92.4568 196.298C92.3057 196.429 92.1625 196.68 92.0273 197.05L89.3903 204.185H89.2054L87.0099 198.356L84.88 204.185H84.7129L82.0223 197.05C81.9626 196.883 81.9069 196.749 81.8552 196.65C81.8035 196.55 81.7339 196.451 81.6464 196.352C81.5589 196.248 81.4495 196.171 81.3183 196.119C81.191 196.063 81.0339 196.027 80.8469 196.011V195.838H83.818V196.011C83.472 196.051 83.2692 196.155 83.2095 196.322C83.1538 196.485 83.1936 196.727 83.3288 197.05L85.2379 202.276L86.8249 197.867L86.5206 197.05C86.3973 196.708 86.2542 196.457 86.0911 196.298C85.928 196.135 85.6794 196.039 85.3453 196.011V195.838H88.3164V196.011C87.9744 196.051 87.7735 196.155 87.7138 196.322C87.6582 196.485 87.6999 196.727 87.8391 197.05L89.7423 202.3L91.6634 197.05C91.7111 196.914 91.7449 196.807 91.7648 196.727C91.7847 196.648 91.7926 196.56 91.7886 196.465C91.7847 196.369 91.7548 196.296 91.6992 196.244C91.6475 196.188 91.5619 196.141 91.4426 196.101C91.3273 196.057 91.1761 196.027 90.9892 196.011V195.838ZM98.1687 202.168L98.3119 202.228C98.1727 202.793 97.8784 203.258 97.4289 203.624C96.9835 203.99 96.4346 204.173 95.7823 204.173C95.1937 204.173 94.6786 204.032 94.2371 203.749C93.7956 203.463 93.4635 203.087 93.2408 202.622C93.022 202.153 92.9126 201.629 92.9126 201.053C92.9126 200.043 93.1851 199.227 93.73 198.607C94.2749 197.982 94.9928 197.67 95.8837 197.67C96.6593 197.67 97.2559 197.915 97.6735 198.404C98.0912 198.893 98.3 199.545 98.3 200.361H94.1595C94.1516 200.4 94.1476 200.456 94.1476 200.528C94.1198 201.347 94.3147 201.995 94.7323 202.473C95.1499 202.946 95.7087 203.183 96.4087 203.183C96.8025 203.183 97.1465 203.089 97.4409 202.902C97.7392 202.715 97.9818 202.471 98.1687 202.168ZM95.6988 198.01C95.2971 198.01 94.963 198.197 94.6965 198.571C94.434 198.941 94.263 199.422 94.1834 200.015H97.0053C96.9974 199.681 96.9437 199.364 96.8443 199.066C96.7448 198.768 96.5937 198.517 96.3908 198.314C96.192 198.112 95.9613 198.01 95.6988 198.01ZM105.151 202.168L105.295 202.228C105.155 202.793 104.861 203.258 104.412 203.624C103.966 203.99 103.417 204.173 102.765 204.173C102.176 204.173 101.661 204.032 101.22 203.749C100.778 203.463 100.446 203.087 100.223 202.622C100.005 202.153 99.8953 201.629 99.8953 201.053C99.8953 200.043 100.168 199.227 100.713 198.607C101.258 197.982 101.975 197.67 102.866 197.67C103.642 197.67 104.239 197.915 104.656 198.404C105.074 198.893 105.283 199.545 105.283 200.361H101.142C101.134 200.4 101.13 200.456 101.13 200.528C101.102 201.347 101.297 201.995 101.715 202.473C102.133 202.946 102.691 203.183 103.391 203.183C103.785 203.183 104.129 203.089 104.424 202.902C104.722 202.715 104.964 202.471 105.151 202.168ZM102.681 198.01C102.28 198.01 101.946 198.197 101.679 198.571C101.417 198.941 101.246 199.422 101.166 200.015H103.988C103.98 199.681 103.926 199.364 103.827 199.066C103.727 198.768 103.576 198.517 103.373 198.314C103.175 198.112 102.944 198.01 102.681 198.01ZM112.247 203.183C112.367 203.385 112.51 203.539 112.677 203.642C112.848 203.741 113.093 203.803 113.411 203.827V204H111.221C111.205 203.837 111.112 203.612 110.941 203.326L109.366 200.653L108.62 201.339V203.081C108.62 203.324 108.682 203.495 108.805 203.594C108.928 203.694 109.119 203.771 109.378 203.827V204H106.615V203.827C106.878 203.771 107.071 203.694 107.194 203.594C107.321 203.495 107.385 203.324 107.385 203.081V196.727C107.385 196.521 107.331 196.367 107.224 196.268C107.121 196.165 106.957 196.103 106.735 196.083L106.466 196.071V195.898L108.447 195.337H108.62V200.862L111.036 198.66C111.259 198.458 111.341 198.302 111.281 198.195C111.225 198.084 111.026 198.028 110.684 198.028V197.855H112.945V198.028C112.671 198.028 112.424 198.084 112.206 198.195C111.987 198.306 111.687 198.535 111.305 198.881L110.291 199.812L112.247 203.183ZM118.26 204V203.827C118.769 203.795 119.117 203.724 119.304 203.612C119.495 203.497 119.59 203.276 119.59 202.95V197.121H118.26V196.948C118.829 196.805 119.306 196.644 119.692 196.465C120.078 196.282 120.432 196.049 120.754 195.767H120.909V202.95C120.909 203.268 120.99 203.487 121.153 203.606C121.321 203.722 121.601 203.795 121.995 203.827V204H118.26Z" fill="#4E9100"/>
<path d="M255.563 195.838H257.729V196.011C257.419 196.067 257.186 196.163 257.031 196.298C256.88 196.429 256.736 196.68 256.601 197.05L253.964 204.185H253.779L251.584 198.356L249.454 204.185H249.287L246.596 197.05C246.537 196.883 246.481 196.749 246.429 196.65C246.377 196.55 246.308 196.451 246.22 196.352C246.133 196.248 246.023 196.171 245.892 196.119C245.765 196.063 245.608 196.027 245.421 196.011V195.838H248.392V196.011C248.046 196.051 247.843 196.155 247.783 196.322C247.728 196.485 247.768 196.727 247.903 197.05L249.812 202.276L251.399 197.867L251.095 197.05C250.971 196.708 250.828 196.457 250.665 196.298C250.502 196.135 250.253 196.039 249.919 196.011V195.838H252.89V196.011C252.548 196.051 252.347 196.155 252.288 196.322C252.232 196.485 252.274 196.727 252.413 197.05L254.316 202.3L256.237 197.05C256.285 196.914 256.319 196.807 256.339 196.727C256.359 196.648 256.367 196.56 256.363 196.465C256.359 196.369 256.329 196.296 256.273 196.244C256.221 196.188 256.136 196.141 256.017 196.101C255.901 196.057 255.75 196.027 255.563 196.011V195.838ZM262.743 202.168L262.886 202.228C262.747 202.793 262.452 203.258 262.003 203.624C261.557 203.99 261.009 204.173 260.356 204.173C259.768 204.173 259.253 204.032 258.811 203.749C258.37 203.463 258.037 203.087 257.815 202.622C257.596 202.153 257.487 201.629 257.487 201.053C257.487 200.043 257.759 199.227 258.304 198.607C258.849 197.982 259.567 197.67 260.458 197.67C261.233 197.67 261.83 197.915 262.247 198.404C262.665 198.893 262.874 199.545 262.874 200.361H258.733C258.726 200.4 258.722 200.456 258.722 200.528C258.694 201.347 258.889 201.995 259.306 202.473C259.724 202.946 260.283 203.183 260.983 203.183C261.376 203.183 261.72 203.089 262.015 202.902C262.313 202.715 262.556 202.471 262.743 202.168ZM260.273 198.01C259.871 198.01 259.537 198.197 259.27 198.571C259.008 198.941 258.837 199.422 258.757 200.015H261.579C261.571 199.681 261.518 199.364 261.418 199.066C261.319 198.768 261.168 198.517 260.965 198.314C260.766 198.112 260.535 198.01 260.273 198.01ZM269.725 202.168L269.868 202.228C269.729 202.793 269.435 203.258 268.985 203.624C268.54 203.99 267.991 204.173 267.339 204.173C266.75 204.173 266.235 204.032 265.794 203.749C265.352 203.463 265.02 203.087 264.797 202.622C264.579 202.153 264.469 201.629 264.469 201.053C264.469 200.043 264.742 199.227 265.287 198.607C265.831 197.982 266.549 197.67 267.44 197.67C268.216 197.67 268.812 197.915 269.23 198.404C269.648 198.893 269.857 199.545 269.857 200.361H265.716C265.708 200.4 265.704 200.456 265.704 200.528C265.676 201.347 265.871 201.995 266.289 202.473C266.706 202.946 267.265 203.183 267.965 203.183C268.359 203.183 268.703 203.089 268.997 202.902C269.296 202.715 269.538 202.471 269.725 202.168ZM267.255 198.01C266.854 198.01 266.52 198.197 266.253 198.571C265.991 198.941 265.82 199.422 265.74 200.015H268.562C268.554 199.681 268.5 199.364 268.401 199.066C268.301 198.768 268.15 198.517 267.947 198.314C267.749 198.112 267.518 198.01 267.255 198.01ZM276.821 203.183C276.941 203.385 277.084 203.539 277.251 203.642C277.422 203.741 277.666 203.803 277.985 203.827V204H275.795C275.779 203.837 275.686 203.612 275.515 203.326L273.94 200.653L273.194 201.339V203.081C273.194 203.324 273.256 203.495 273.379 203.594C273.502 203.694 273.693 203.771 273.952 203.827V204H271.189V203.827C271.452 203.771 271.645 203.694 271.768 203.594C271.895 203.495 271.959 203.324 271.959 203.081V196.727C271.959 196.521 271.905 196.367 271.798 196.268C271.694 196.165 271.531 196.103 271.309 196.083L271.04 196.071V195.898L273.021 195.337H273.194V200.862L275.61 198.66C275.833 198.458 275.914 198.302 275.855 198.195C275.799 198.084 275.6 198.028 275.258 198.028V197.855H277.519V198.028C277.245 198.028 276.998 198.084 276.78 198.195C276.561 198.306 276.26 198.535 275.879 198.881L274.864 199.812L276.821 203.183ZM282.428 204V203.827L284.582 201.423C284.797 201.188 284.976 200.985 285.119 200.814C285.266 200.643 285.427 200.436 285.602 200.194C285.777 199.947 285.916 199.72 286.02 199.514C286.127 199.303 286.217 199.07 286.288 198.816C286.364 198.557 286.402 198.302 286.402 198.052C286.402 197.587 286.258 197.213 285.972 196.93C285.686 196.644 285.308 196.501 284.838 196.501C284.413 196.501 284.019 196.626 283.657 196.877C283.299 197.127 283.045 197.485 282.894 197.95L282.756 197.891C282.804 197.604 282.895 197.332 283.031 197.073C283.166 196.815 283.341 196.58 283.556 196.369C283.771 196.155 284.039 195.984 284.361 195.856C284.683 195.729 285.037 195.665 285.423 195.665C286.139 195.665 286.712 195.87 287.141 196.28C287.575 196.686 287.792 197.231 287.792 197.915C287.792 198.161 287.762 198.402 287.702 198.637C287.642 198.871 287.559 199.092 287.452 199.299C287.348 199.506 287.211 199.72 287.04 199.943C286.869 200.162 286.688 200.369 286.497 200.564C286.31 200.754 286.083 200.967 285.817 201.202C285.55 201.433 285.288 201.651 285.029 201.858C284.775 202.065 284.478 202.304 284.14 202.574C283.949 202.725 283.806 202.839 283.711 202.914H286.366C286.64 202.914 286.861 202.898 287.028 202.866C287.195 202.835 287.34 202.769 287.463 202.67C287.587 202.57 287.684 202.445 287.756 202.294C287.827 202.143 287.901 201.934 287.977 201.667H288.15L287.804 204H282.428Z" fill="#4E9100"/>
<circle cx="343.503" cy="48.8584" r="8.85836" fill="#67AE14"/>
<defs>
<filter id="filter0_dd_177_4972" x="35.5" y="67" width="127" height="64" filterUnits="userSpaceOnUse" color-interpolation-filters="sRGB">
<feFlood flood-opacity="0" result="BackgroundImageFix"/>
<feColorMatrix in="SourceAlpha" type="matrix" values="0 0 0 0 0 0 0 0 0 0 0 0 0 0 0 0 0 0 127 0" result="hardAlpha"/>
<feMorphology radius="2" operator="erode" in="SourceAlpha" result="effect1_dropShadow_177_4972"/>
<feOffset dy="4"/>
<feGaussianBlur stdDeviation="3"/>
<feColorMatrix type="matrix" values="0 0 0 0 0.0627451 0 0 0 0 0.0941176 0 0 0 0 0.156863 0 0 0 0.03 0"/>
<feBlend mode="normal" in2="BackgroundImageFix" result="effect1_dropShadow_177_4972"/>
<feColorMatrix in="SourceAlpha" type="matrix" values="0 0 0 0 0 0 0 0 0 0 0 0 0 0 0 0 0 0 127 0" result="hardAlpha"/>
<feMorphology radius="4" operator="erode" in="SourceAlpha" result="effect2_dropShadow_177_4972"/>
<feOffset dy="12"/>
<feGaussianBlur stdDeviation="8"/>
<feColorMatrix type="matrix" values="0 0 0 0 0.0627451 0 0 0 0 0.0941176 0 0 0 0 0.156863 0 0 0 0.08 0"/>
<feBlend mode="normal" in2="effect1_dropShadow_177_4972" result="effect2_dropShadow_177_4972"/>
<feBlend mode="normal" in="SourceGraphic" in2="effect2_dropShadow_177_4972" result="shape"/>
</filter>
<filter id="filter1_dd_177_4972" x="188.5" y="0" width="157" height="64" filterUnits="userSpaceOnUse" color-interpolation-filters="sRGB">
<feFlood flood-opacity="0" result="BackgroundImageFix"/>
<feColorMatrix in="SourceAlpha" type="matrix" values="0 0 0 0 0 0 0 0 0 0 0 0 0 0 0 0 0 0 127 0" result="hardAlpha"/>
<feMorphology radius="2" operator="erode" in="SourceAlpha" result="effect1_dropShadow_177_4972"/>
<feOffset dy="4"/>
<feGaussianBlur stdDeviation="3"/>
<feColorMatrix type="matrix" values="0 0 0 0 0.0627451 0 0 0 0 0.0941176 0 0 0 0 0.156863 0 0 0 0.03 0"/>
<feBlend mode="normal" in2="BackgroundImageFix" result="effect1_dropShadow_177_4972"/>
<feColorMatrix in="SourceAlpha" type="matrix" values="0 0 0 0 0 0 0 0 0 0 0 0 0 0 0 0 0 0 127 0" result="hardAlpha"/>
<feMorphology radius="4" operator="erode" in="SourceAlpha" result="effect2_dropShadow_177_4972"/>
<feOffset dy="12"/>
<feGaussianBlur stdDeviation="8"/>
<feColorMatrix type="matrix" values="0 0 0 0 0.0627451 0 0 0 0 0.0941176 0 0 0 0 0.156863 0 0 0 0.08 0"/>
<feBlend mode="normal" in2="effect1_dropShadow_177_4972" result="effect2_dropShadow_177_4972"/>
<feBlend mode="normal" in="SourceGraphic" in2="effect2_dropShadow_177_4972" result="shape"/>
</filter>
<linearGradient id="paint0_linear_177_4972" x1="176.145" y1="49" x2="176.145" y2="247" gradientUnits="userSpaceOnUse">
<stop stop-color="#82CD23"/>
<stop offset="1" stop-color="#E2FFC0"/>
</linearGradient>
<linearGradient id="paint1_linear_177_4972" x1="93.1445" y1="44.6862" x2="93.1445" y2="249" gradientUnits="userSpaceOnUse">
<stop stop-color="#6FC600"/>
<stop offset="1" stop-color="#D2FF99" stop-opacity="0"/>
</linearGradient>
<linearGradient id="paint2_linear_177_4972" x1="260.145" y1="-14.7354" x2="260.145" y2="247" gradientUnits="userSpaceOnUse">
<stop stop-color="#17AE14"/>
<stop offset="1" stop-color="#D2FF99" stop-opacity="0"/>
</linearGradient>
</defs>
</svg>
