<svg width="363" height="266" viewBox="0 0 363 266" fill="none" xmlns="http://www.w3.org/2000/svg">
<path d="M343.645 259V61C125.468 87.0751 29.4045 203.865 8.64453 259H343.645Z" fill="url(#paint0_linear_177_5124)" fill-opacity="0.4"/>
<path d="M176.645 70V265.953" stroke="#C0C0C0" stroke-width="0.916382" stroke-dasharray="1.83 1.83"/>
<rect y="252.681" width="12.8294" height="12.8294" fill="#79CB18"/>
<path d="M176.645 108C77.0445 148.298 23.8112 217.062 9.64453 246.406V261H176.645V108Z" fill="url(#paint1_linear_177_5124)"/>
<path d="M343.645 59.5C235.645 80.5 232.645 84 176.645 106V259H343.645V59.5Z" fill="url(#paint2_linear_177_5124)"/>
<path d="M8.64453 256C27.0614 212.446 108.655 92.4812 343.645 61" stroke="#79CB18" stroke-width="4.58191"/>
<circle cx="98.6445" cy="152" r="18" fill="#79CB18" fill-opacity="0.5"/>
<circle cx="266.645" cy="79" r="18" fill="#79CB18" fill-opacity="0.5"/>
<circle cx="98.6445" cy="152" r="12" fill="#79CB18"/>
<circle cx="266.645" cy="79" r="12" fill="#17AE14"/>
<g filter="url(#filter0_dd_177_5124)">
<rect x="30.5" y="79" width="137" height="34" rx="8" fill="#79CB18"/>
<path d="M45.2152 91.2727V100H43.6342V91.2727H45.2152ZM50.1275 93.4545V94.6477H46.3647V93.4545H50.1275ZM47.2937 91.8864H48.8363V98.0312C48.8363 98.2386 48.8675 98.3977 48.93 98.5085C48.9954 98.6165 49.0806 98.6903 49.1857 98.7301C49.2908 98.7699 49.4073 98.7898 49.5352 98.7898C49.6317 98.7898 49.7198 98.7827 49.7994 98.7685C49.8817 98.7543 49.9442 98.7415 49.9869 98.7301L50.2468 99.9361C50.1644 99.9645 50.0465 99.9957 49.8931 100.03C49.7425 100.064 49.5579 100.084 49.3391 100.089C48.9528 100.101 48.6048 100.043 48.2951 99.9148C47.9854 99.7841 47.7397 99.5824 47.5579 99.3097C47.3789 99.0369 47.2908 98.696 47.2937 98.2869V91.8864ZM54.2024 100.128C53.549 100.128 52.9879 99.9844 52.5192 99.6974C52.0533 99.4105 51.6939 99.0142 51.4411 98.5085C51.1911 98 51.0661 97.4148 51.0661 96.7528C51.0661 96.0881 51.1939 95.5014 51.4496 94.9929C51.7053 94.4815 52.0661 94.0838 52.532 93.7997C53.0007 93.5128 53.5547 93.3693 54.1939 93.3693C54.7251 93.3693 55.1953 93.4673 55.6044 93.6634C56.0163 93.8565 56.3445 94.1307 56.5888 94.4858C56.8331 94.8381 56.9723 95.25 57.0064 95.7216H55.532C55.4723 95.4062 55.3303 95.1435 55.1058 94.9332C54.8842 94.7202 54.5874 94.6136 54.2152 94.6136C53.8999 94.6136 53.6229 94.6989 53.3842 94.8693C53.1456 95.0369 52.9595 95.2784 52.826 95.5938C52.6953 95.9091 52.63 96.2869 52.63 96.7273C52.63 97.1733 52.6953 97.5568 52.826 97.8778C52.9567 98.196 53.1399 98.4418 53.3757 98.6151C53.6143 98.7855 53.8942 98.8707 54.2152 98.8707C54.4425 98.8707 54.6456 98.8281 54.8246 98.7429C55.0064 98.6548 55.1584 98.5284 55.2805 98.3636C55.4027 98.1989 55.4865 97.9986 55.532 97.7628H57.0064C56.9695 98.2259 56.8331 98.6364 56.5973 98.9943C56.3615 99.3494 56.0405 99.6278 55.6342 99.8295C55.228 100.028 54.7507 100.128 54.2024 100.128ZM59.8157 96.1648V100H58.2731V91.2727H59.7816V94.5668H59.8583C60.0117 94.1974 60.2489 93.9062 60.57 93.6932C60.8938 93.4773 61.3058 93.3693 61.8058 93.3693C62.2603 93.3693 62.6566 93.4645 62.9947 93.6548C63.3327 93.8452 63.5941 94.1236 63.7788 94.4901C63.9663 94.8565 64.06 95.304 64.06 95.8324V100H62.5174V96.071C62.5174 95.6307 62.4038 95.2884 62.1765 95.044C61.9521 94.7969 61.6367 94.6733 61.2305 94.6733C60.9577 94.6733 60.7134 94.733 60.4975 94.8523C60.2844 94.9687 60.1168 95.1378 59.9947 95.3594C59.8754 95.581 59.8157 95.8494 59.8157 96.1648ZM69.195 90.8636L66.3825 101.312H65.0316L67.8441 90.8636H69.195ZM73.4947 93.4545V94.6477H69.6254V93.4545H73.4947ZM70.5927 100V92.8366C70.5927 92.3963 70.6836 92.0298 70.8654 91.7372C71.0501 91.4446 71.2972 91.2259 71.6069 91.081C71.9165 90.9361 72.2603 90.8636 72.6381 90.8636C72.9052 90.8636 73.1424 90.8849 73.3498 90.9276C73.5572 90.9702 73.7106 91.0085 73.81 91.0426L73.5032 92.2358C73.4379 92.2159 73.3555 92.196 73.256 92.1761C73.1566 92.1534 73.0458 92.142 72.9237 92.142C72.6367 92.142 72.4336 92.2116 72.3143 92.3509C72.1978 92.4872 72.1396 92.6832 72.1396 92.9389V100H70.5927ZM76.2454 91.2727V100H74.7028V91.2727H76.2454ZM79.7152 100.132C79.3004 100.132 78.9268 100.058 78.5945 99.9105C78.2649 99.7599 78.0036 99.5384 77.8104 99.2457C77.62 98.9531 77.5249 98.5923 77.5249 98.1634C77.5249 97.794 77.593 97.4886 77.7294 97.2472C77.8658 97.0057 78.0518 96.8125 78.2876 96.6676C78.5234 96.5227 78.7891 96.4134 79.0845 96.3395C79.3828 96.2628 79.6911 96.2074 80.0092 96.1733C80.3928 96.1335 80.7038 96.098 80.9425 96.0668C81.1811 96.0327 81.3544 95.9815 81.4624 95.9134C81.5732 95.8423 81.6286 95.733 81.6286 95.5852V95.5597C81.6286 95.2386 81.5334 94.9901 81.343 94.8139C81.1527 94.6378 80.8786 94.5497 80.5206 94.5497C80.1428 94.5497 79.843 94.6321 79.6214 94.7969C79.4027 94.9616 79.255 95.1562 79.1783 95.3807L77.7379 95.1761C77.8516 94.7784 78.0391 94.446 78.3004 94.179C78.5618 93.9091 78.8814 93.7074 79.2592 93.5739C79.6371 93.4375 80.0547 93.3693 80.5121 93.3693C80.8274 93.3693 81.1413 93.4062 81.4538 93.4801C81.7663 93.554 82.0518 93.6761 82.3104 93.8466C82.5689 94.0142 82.7763 94.2429 82.9325 94.5327C83.0916 94.8224 83.1712 95.1847 83.1712 95.6193V100H81.6882V99.1009H81.6371C81.5433 99.2827 81.4112 99.4531 81.2408 99.6122C81.0732 99.7685 80.8615 99.8949 80.6058 99.9915C80.353 100.085 80.0561 100.132 79.7152 100.132ZM80.1158 98.9986C80.4254 98.9986 80.6939 98.9375 80.9212 98.8153C81.1484 98.6903 81.3232 98.5256 81.4453 98.321C81.5703 98.1165 81.6328 97.8935 81.6328 97.652V96.8807C81.5845 96.9205 81.5021 96.9574 81.3857 96.9915C81.272 97.0256 81.1442 97.0554 81.0021 97.081C80.8601 97.1065 80.7195 97.1293 80.5803 97.1491C80.4411 97.169 80.3203 97.1861 80.218 97.2003C79.9879 97.2315 79.782 97.2827 79.6001 97.3537C79.4183 97.4247 79.2749 97.5241 79.1697 97.652C79.0646 97.777 79.0121 97.9389 79.0121 98.1378C79.0121 98.4219 79.1158 98.6364 79.3232 98.7812C79.5305 98.9261 79.7947 98.9986 80.1158 98.9986ZM86.1286 97.946L86.1243 96.0838H86.3714L88.7237 93.4545H90.5263L87.6328 96.6761H87.3132L86.1286 97.946ZM84.7223 100V91.2727H86.2649V100H84.7223ZM88.8303 100L86.6996 97.0213L87.7393 95.9347L90.6754 100H88.8303ZM94.1825 100.128C93.5263 100.128 92.9595 99.9915 92.4822 99.7188C92.0078 99.4432 91.6428 99.054 91.3871 98.5511C91.1314 98.0455 91.0036 97.4503 91.0036 96.7656C91.0036 96.0923 91.1314 95.5014 91.3871 94.9929C91.6456 94.4815 92.0064 94.0838 92.4695 93.7997C92.9325 93.5128 93.4766 93.3693 94.1016 93.3693C94.505 93.3693 94.8857 93.4347 95.2436 93.5653C95.6044 93.6932 95.9226 93.892 96.1982 94.1619C96.4766 94.4318 96.6953 94.7756 96.8544 95.1932C97.0135 95.608 97.093 96.1023 97.093 96.6761V97.1491H91.728V96.1094H95.6143C95.6115 95.8139 95.5476 95.5511 95.4226 95.321C95.2976 95.0881 95.1229 94.9048 94.8984 94.7713C94.6768 94.6378 94.4183 94.571 94.1229 94.571C93.8075 94.571 93.5305 94.6477 93.2919 94.8011C93.0533 94.9517 92.8672 95.1506 92.7337 95.3977C92.603 95.642 92.5362 95.9105 92.5334 96.2031V97.1108C92.5334 97.4915 92.603 97.8182 92.7422 98.0909C92.8814 98.3608 93.076 98.5682 93.326 98.7131C93.576 98.8551 93.8686 98.9261 94.2038 98.9261C94.4283 98.9261 94.6314 98.8949 94.8132 98.8324C94.995 98.767 95.1527 98.6719 95.2862 98.5469C95.4197 98.4219 95.5206 98.267 95.5888 98.0824L97.0291 98.2443C96.9382 98.625 96.7649 98.9574 96.5092 99.2415C96.2564 99.5227 95.9325 99.7415 95.5376 99.8977C95.1428 100.051 94.6911 100.128 94.1825 100.128ZM103.571 95.1847L102.165 95.3381C102.125 95.196 102.056 95.0625 101.956 94.9375C101.86 94.8125 101.729 94.7116 101.564 94.6349C101.4 94.5582 101.198 94.5199 100.959 94.5199C100.638 94.5199 100.368 94.5895 100.15 94.7287C99.9336 94.8679 99.8271 95.0483 99.8299 95.2699C99.8271 95.4602 99.8967 95.6151 100.039 95.7344C100.184 95.8537 100.422 95.9517 100.755 96.0284L101.871 96.267C102.49 96.4006 102.951 96.6122 103.252 96.902C103.556 97.1918 103.709 97.571 103.712 98.0398C103.709 98.4517 103.588 98.8153 103.35 99.1307C103.114 99.4432 102.786 99.6875 102.365 99.8636C101.945 100.04 101.462 100.128 100.917 100.128C100.115 100.128 99.4705 99.9602 98.9819 99.625C98.4933 99.2869 98.2021 98.8168 98.1083 98.2145L99.6126 98.0696C99.6808 98.3651 99.8256 98.5881 100.047 98.7386C100.269 98.8892 100.557 98.9645 100.912 98.9645C101.279 98.9645 101.573 98.8892 101.794 98.7386C102.019 98.5881 102.131 98.402 102.131 98.1804C102.131 97.9929 102.059 97.8381 101.914 97.7159C101.772 97.5937 101.55 97.5 101.249 97.4347L100.132 97.2003C99.5046 97.0696 99.0401 96.8494 98.739 96.5398C98.4379 96.2273 98.2887 95.8324 98.2915 95.3551C98.2887 94.9517 98.3981 94.6023 98.6197 94.3068C98.8441 94.0085 99.1552 93.7784 99.5529 93.6165C99.9535 93.4517 100.415 93.3693 100.938 93.3693C101.705 93.3693 102.309 93.5327 102.749 93.8594C103.192 94.1861 103.466 94.6278 103.571 95.1847ZM107.961 100V93.4545H109.456V94.5455H109.525C109.644 94.1676 109.848 93.8764 110.138 93.6719C110.431 93.4645 110.765 93.3608 111.14 93.3608C111.225 93.3608 111.32 93.3651 111.425 93.3736C111.533 93.3793 111.623 93.3892 111.694 93.4034V94.8224C111.628 94.7997 111.525 94.7798 111.382 94.7628C111.243 94.7429 111.108 94.733 110.978 94.733C110.696 94.733 110.444 94.794 110.219 94.9162C109.998 95.0355 109.823 95.2017 109.695 95.4148C109.567 95.6278 109.503 95.8736 109.503 96.152V100H107.961ZM115.347 100.128C114.69 100.128 114.124 99.9915 113.646 99.7188C113.172 99.4432 112.807 99.054 112.551 98.5511C112.295 98.0455 112.168 97.4503 112.168 96.7656C112.168 96.0923 112.295 95.5014 112.551 94.9929C112.81 94.4815 113.17 94.0838 113.634 93.7997C114.097 93.5128 114.641 93.3693 115.266 93.3693C115.669 93.3693 116.05 93.4347 116.408 93.5653C116.768 93.6932 117.087 93.892 117.362 94.1619C117.641 94.4318 117.859 94.7756 118.018 95.1932C118.178 95.608 118.257 96.1023 118.257 96.6761V97.1491H112.892V96.1094H116.778C116.776 95.8139 116.712 95.5511 116.587 95.321C116.462 95.0881 116.287 94.9048 116.062 94.7713C115.841 94.6378 115.582 94.571 115.287 94.571C114.972 94.571 114.695 94.6477 114.456 94.8011C114.217 94.9517 114.031 95.1506 113.898 95.3977C113.767 95.642 113.7 95.9105 113.697 96.2031V97.1108C113.697 97.4915 113.767 97.8182 113.906 98.0909C114.045 98.3608 114.24 98.5682 114.49 98.7131C114.74 98.8551 115.033 98.9261 115.368 98.9261C115.592 98.9261 115.795 98.8949 115.977 98.8324C116.159 98.767 116.317 98.6719 116.45 98.5469C116.584 98.4219 116.685 98.267 116.753 98.0824L118.193 98.2443C118.102 98.625 117.929 98.9574 117.673 99.2415C117.42 99.5227 117.097 99.7415 116.702 99.8977C116.307 100.051 115.855 100.128 115.347 100.128ZM121.991 100.115C121.477 100.115 121.017 99.983 120.61 99.7188C120.204 99.4545 119.883 99.071 119.647 98.5682C119.412 98.0653 119.294 97.4545 119.294 96.7358C119.294 96.0085 119.413 95.3949 119.652 94.8949C119.893 94.392 120.218 94.0128 120.627 93.7571C121.037 93.4986 121.493 93.3693 121.995 93.3693C122.379 93.3693 122.694 93.4347 122.941 93.5653C123.189 93.6932 123.385 93.848 123.529 94.0298C123.674 94.2088 123.787 94.3778 123.866 94.5369H123.93V91.2727H125.477V100H123.96V98.9688H123.866C123.787 99.1278 123.672 99.2969 123.521 99.4759C123.37 99.652 123.172 99.8026 122.924 99.9276C122.677 100.053 122.366 100.115 121.991 100.115ZM122.422 98.8494C122.748 98.8494 123.027 98.7614 123.257 98.5852C123.487 98.4062 123.662 98.1577 123.781 97.8395C123.9 97.5213 123.96 97.1506 123.96 96.7273C123.96 96.304 123.9 95.9361 123.781 95.6236C123.664 95.3111 123.491 95.0682 123.261 94.8949C123.034 94.7216 122.754 94.6349 122.422 94.6349C122.078 94.6349 121.791 94.7244 121.561 94.9034C121.331 95.0824 121.157 95.3295 121.041 95.6449C120.924 95.9602 120.866 96.321 120.866 96.7273C120.866 97.1364 120.924 97.5014 121.041 97.8224C121.16 98.1406 121.335 98.392 121.565 98.5767C121.798 98.7585 122.083 98.8494 122.422 98.8494ZM131.293 97.2472V93.4545H132.835V100H131.339V98.8366H131.271C131.124 99.2031 130.881 99.5028 130.543 99.7358C130.207 99.9687 129.794 100.085 129.303 100.085C128.874 100.085 128.494 99.9901 128.165 99.7997C127.838 99.6065 127.582 99.3267 127.398 98.9602C127.213 98.5909 127.121 98.1449 127.121 97.6222V93.4545H128.663V97.3835C128.663 97.7983 128.777 98.1278 129.004 98.3722C129.232 98.6165 129.53 98.7386 129.899 98.7386C130.126 98.7386 130.347 98.6832 130.56 98.5724C130.773 98.4616 130.947 98.2969 131.084 98.0781C131.223 97.8565 131.293 97.5795 131.293 97.2472ZM137.277 100.128C136.623 100.128 136.062 99.9844 135.593 99.6974C135.127 99.4105 134.768 99.0142 134.515 98.5085C134.265 98 134.14 97.4148 134.14 96.7528C134.14 96.0881 134.268 95.5014 134.524 94.9929C134.779 94.4815 135.14 94.0838 135.606 93.7997C136.075 93.5128 136.629 93.3693 137.268 93.3693C137.799 93.3693 138.27 93.4673 138.679 93.6634C139.091 93.8565 139.419 94.1307 139.663 94.4858C139.907 94.8381 140.047 95.25 140.081 95.7216H138.606C138.547 95.4062 138.404 95.1435 138.18 94.9332C137.958 94.7202 137.662 94.6136 137.289 94.6136C136.974 94.6136 136.697 94.6989 136.458 94.8693C136.22 95.0369 136.034 95.2784 135.9 95.5938C135.77 95.9091 135.704 96.2869 135.704 96.7273C135.704 97.1733 135.77 97.5568 135.9 97.8778C136.031 98.196 136.214 98.4418 136.45 98.6151C136.689 98.7855 136.968 98.8707 137.289 98.8707C137.517 98.8707 137.72 98.8281 137.899 98.7429C138.081 98.6548 138.233 98.5284 138.355 98.3636C138.477 98.1989 138.561 97.9986 138.606 97.7628H140.081C140.044 98.2259 139.907 98.6364 139.672 98.9943C139.436 99.3494 139.115 99.6278 138.708 99.8295C138.302 100.028 137.825 100.128 137.277 100.128ZM144.245 100.128C143.589 100.128 143.022 99.9915 142.545 99.7188C142.07 99.4432 141.705 99.054 141.45 98.5511C141.194 98.0455 141.066 97.4503 141.066 96.7656C141.066 96.0923 141.194 95.5014 141.45 94.9929C141.708 94.4815 142.069 94.0838 142.532 93.7997C142.995 93.5128 143.539 93.3693 144.164 93.3693C144.567 93.3693 144.948 93.4347 145.306 93.5653C145.667 93.6932 145.985 93.892 146.261 94.1619C146.539 94.4318 146.758 94.7756 146.917 95.1932C147.076 95.608 147.156 96.1023 147.156 96.6761V97.1491H141.79V96.1094H145.677C145.674 95.8139 145.61 95.5511 145.485 95.321C145.36 95.0881 145.185 94.9048 144.961 94.7713C144.739 94.6378 144.481 94.571 144.185 94.571C143.87 94.571 143.593 94.6477 143.354 94.8011C143.116 94.9517 142.93 95.1506 142.796 95.3977C142.665 95.642 142.599 95.9105 142.596 96.2031V97.1108C142.596 97.4915 142.665 97.8182 142.805 98.0909C142.944 98.3608 143.138 98.5682 143.388 98.7131C143.638 98.8551 143.931 98.9261 144.266 98.9261C144.491 98.9261 144.694 98.8949 144.876 98.8324C145.058 98.767 145.215 98.6719 145.349 98.5469C145.482 98.4219 145.583 98.267 145.651 98.0824L147.092 98.2443C147.001 98.625 146.827 98.9574 146.572 99.2415C146.319 99.5227 145.995 99.7415 145.6 99.8977C145.205 100.051 144.754 100.128 144.245 100.128ZM150.89 100.115C150.375 100.115 149.915 99.983 149.509 99.7188C149.103 99.4545 148.782 99.071 148.546 98.5682C148.31 98.0653 148.192 97.4545 148.192 96.7358C148.192 96.0085 148.311 95.3949 148.55 94.8949C148.792 94.392 149.117 94.0128 149.526 93.7571C149.935 93.4986 150.391 93.3693 150.894 93.3693C151.277 93.3693 151.593 93.4347 151.84 93.5653C152.087 93.6932 152.283 93.848 152.428 94.0298C152.573 94.2088 152.685 94.3778 152.765 94.5369H152.828V91.2727H154.375V100H152.858V98.9688H152.765C152.685 99.1278 152.57 99.2969 152.419 99.4759C152.269 99.652 152.07 99.8026 151.823 99.9276C151.576 100.053 151.265 100.115 150.89 100.115ZM151.32 98.8494C151.647 98.8494 151.925 98.7614 152.155 98.5852C152.385 98.4062 152.56 98.1577 152.679 97.8395C152.799 97.5213 152.858 97.1506 152.858 96.7273C152.858 96.304 152.799 95.9361 152.679 95.6236C152.563 95.3111 152.39 95.0682 152.159 94.8949C151.932 94.7216 151.652 94.6349 151.32 94.6349C150.976 94.6349 150.689 94.7244 150.459 94.9034C150.229 95.0824 150.056 95.3295 149.939 95.6449C149.823 95.9602 149.765 96.321 149.765 96.7273C149.765 97.1364 149.823 97.5014 149.939 97.8224C150.059 98.1406 150.233 98.392 150.463 98.5767C150.696 98.7585 150.982 98.8494 151.32 98.8494Z" fill="white"/>
<path d="M105.071 110.485C105.962 110.485 106.408 111.562 105.778 112.192L99.7071 118.263C99.3166 118.654 98.6834 118.654 98.2929 118.263L92.2218 112.192C91.5919 111.562 92.038 110.485 92.9289 110.485L105.071 110.485Z" fill="#79CB18"/>
</g>
<path d="M90.9892 207.838H93.1549V208.011C92.8446 208.067 92.612 208.163 92.4568 208.298C92.3057 208.429 92.1625 208.68 92.0273 209.05L89.3903 216.185H89.2054L87.0099 210.356L84.88 216.185H84.7129L82.0223 209.05C81.9626 208.883 81.9069 208.749 81.8552 208.65C81.8035 208.55 81.7339 208.451 81.6464 208.352C81.5589 208.248 81.4495 208.171 81.3183 208.119C81.191 208.063 81.0339 208.027 80.8469 208.011V207.838H83.818V208.011C83.472 208.051 83.2692 208.155 83.2095 208.322C83.1538 208.485 83.1936 208.727 83.3288 209.05L85.2379 214.276L86.8249 209.867L86.5206 209.05C86.3973 208.708 86.2542 208.457 86.0911 208.298C85.928 208.135 85.6794 208.039 85.3453 208.011V207.838H88.3164V208.011C87.9744 208.051 87.7735 208.155 87.7138 208.322C87.6582 208.485 87.6999 208.727 87.8391 209.05L89.7423 214.3L91.6634 209.05C91.7111 208.914 91.7449 208.807 91.7648 208.727C91.7847 208.648 91.7926 208.56 91.7886 208.465C91.7847 208.369 91.7548 208.296 91.6992 208.244C91.6475 208.188 91.5619 208.141 91.4426 208.101C91.3273 208.057 91.1761 208.027 90.9892 208.011V207.838ZM98.1687 214.168L98.3119 214.228C98.1727 214.793 97.8784 215.258 97.4289 215.624C96.9835 215.99 96.4346 216.173 95.7823 216.173C95.1937 216.173 94.6786 216.032 94.2371 215.749C93.7956 215.463 93.4635 215.087 93.2408 214.622C93.022 214.153 92.9126 213.629 92.9126 213.053C92.9126 212.043 93.1851 211.227 93.73 210.607C94.2749 209.982 94.9928 209.67 95.8837 209.67C96.6593 209.67 97.2559 209.915 97.6735 210.404C98.0912 210.893 98.3 211.545 98.3 212.361H94.1595C94.1516 212.4 94.1476 212.456 94.1476 212.528C94.1198 213.347 94.3147 213.995 94.7323 214.473C95.1499 214.946 95.7087 215.183 96.4087 215.183C96.8025 215.183 97.1465 215.089 97.4409 214.902C97.7392 214.715 97.9818 214.471 98.1687 214.168ZM95.6988 210.01C95.2971 210.01 94.963 210.197 94.6965 210.571C94.434 210.941 94.263 211.422 94.1834 212.015H97.0053C96.9974 211.681 96.9437 211.364 96.8443 211.066C96.7448 210.768 96.5937 210.517 96.3908 210.314C96.192 210.112 95.9613 210.01 95.6988 210.01ZM105.151 214.168L105.295 214.228C105.155 214.793 104.861 215.258 104.412 215.624C103.966 215.99 103.417 216.173 102.765 216.173C102.176 216.173 101.661 216.032 101.22 215.749C100.778 215.463 100.446 215.087 100.223 214.622C100.005 214.153 99.8953 213.629 99.8953 213.053C99.8953 212.043 100.168 211.227 100.713 210.607C101.258 209.982 101.975 209.67 102.866 209.67C103.642 209.67 104.239 209.915 104.656 210.404C105.074 210.893 105.283 211.545 105.283 212.361H101.142C101.134 212.4 101.13 212.456 101.13 212.528C101.102 213.347 101.297 213.995 101.715 214.473C102.133 214.946 102.691 215.183 103.391 215.183C103.785 215.183 104.129 215.089 104.424 214.902C104.722 214.715 104.964 214.471 105.151 214.168ZM102.681 210.01C102.28 210.01 101.946 210.197 101.679 210.571C101.417 210.941 101.246 211.422 101.166 212.015H103.988C103.98 211.681 103.926 211.364 103.827 211.066C103.727 210.768 103.576 210.517 103.373 210.314C103.175 210.112 102.944 210.01 102.681 210.01ZM112.247 215.183C112.367 215.385 112.51 215.539 112.677 215.642C112.848 215.741 113.093 215.803 113.411 215.827V216H111.221C111.205 215.837 111.112 215.612 110.941 215.326L109.366 212.653L108.62 213.339V215.081C108.62 215.324 108.682 215.495 108.805 215.594C108.928 215.694 109.119 215.771 109.378 215.827V216H106.615V215.827C106.878 215.771 107.071 215.694 107.194 215.594C107.321 215.495 107.385 215.324 107.385 215.081V208.727C107.385 208.521 107.331 208.367 107.224 208.268C107.121 208.165 106.957 208.103 106.735 208.083L106.466 208.071V207.898L108.447 207.337H108.62V212.862L111.036 210.66C111.259 210.458 111.341 210.302 111.281 210.195C111.225 210.084 111.026 210.028 110.684 210.028V209.855H112.945V210.028C112.671 210.028 112.424 210.084 112.206 210.195C111.987 210.306 111.687 210.535 111.305 210.881L110.291 211.812L112.247 215.183ZM118.26 216V215.827C118.769 215.795 119.117 215.724 119.304 215.612C119.495 215.497 119.59 215.276 119.59 214.95V209.121H118.26V208.948C118.829 208.805 119.306 208.644 119.692 208.465C120.078 208.282 120.432 208.049 120.754 207.767H120.909V214.95C120.909 215.268 120.99 215.487 121.153 215.606C121.321 215.722 121.601 215.795 121.995 215.827V216H118.26Z" fill="#4E9100"/>
<path d="M255.563 207.838H257.729V208.011C257.419 208.067 257.186 208.163 257.031 208.298C256.88 208.429 256.736 208.68 256.601 209.05L253.964 216.185H253.779L251.584 210.356L249.454 216.185H249.287L246.596 209.05C246.537 208.883 246.481 208.749 246.429 208.65C246.377 208.55 246.308 208.451 246.22 208.352C246.133 208.248 246.023 208.171 245.892 208.119C245.765 208.063 245.608 208.027 245.421 208.011V207.838H248.392V208.011C248.046 208.051 247.843 208.155 247.783 208.322C247.728 208.485 247.768 208.727 247.903 209.05L249.812 214.276L251.399 209.867L251.095 209.05C250.971 208.708 250.828 208.457 250.665 208.298C250.502 208.135 250.253 208.039 249.919 208.011V207.838H252.89V208.011C252.548 208.051 252.347 208.155 252.288 208.322C252.232 208.485 252.274 208.727 252.413 209.05L254.316 214.3L256.237 209.05C256.285 208.914 256.319 208.807 256.339 208.727C256.359 208.648 256.367 208.56 256.363 208.465C256.359 208.369 256.329 208.296 256.273 208.244C256.221 208.188 256.136 208.141 256.017 208.101C255.901 208.057 255.75 208.027 255.563 208.011V207.838ZM262.743 214.168L262.886 214.228C262.747 214.793 262.452 215.258 262.003 215.624C261.557 215.99 261.009 216.173 260.356 216.173C259.768 216.173 259.253 216.032 258.811 215.749C258.37 215.463 258.037 215.087 257.815 214.622C257.596 214.153 257.487 213.629 257.487 213.053C257.487 212.043 257.759 211.227 258.304 210.607C258.849 209.982 259.567 209.67 260.458 209.67C261.233 209.67 261.83 209.915 262.247 210.404C262.665 210.893 262.874 211.545 262.874 212.361H258.733C258.726 212.4 258.722 212.456 258.722 212.528C258.694 213.347 258.889 213.995 259.306 214.473C259.724 214.946 260.283 215.183 260.983 215.183C261.376 215.183 261.72 215.089 262.015 214.902C262.313 214.715 262.556 214.471 262.743 214.168ZM260.273 210.01C259.871 210.01 259.537 210.197 259.27 210.571C259.008 210.941 258.837 211.422 258.757 212.015H261.579C261.571 211.681 261.518 211.364 261.418 211.066C261.319 210.768 261.168 210.517 260.965 210.314C260.766 210.112 260.535 210.01 260.273 210.01ZM269.725 214.168L269.868 214.228C269.729 214.793 269.435 215.258 268.985 215.624C268.54 215.99 267.991 216.173 267.339 216.173C266.75 216.173 266.235 216.032 265.794 215.749C265.352 215.463 265.02 215.087 264.797 214.622C264.579 214.153 264.469 213.629 264.469 213.053C264.469 212.043 264.742 211.227 265.287 210.607C265.831 209.982 266.549 209.67 267.44 209.67C268.216 209.67 268.812 209.915 269.23 210.404C269.648 210.893 269.857 211.545 269.857 212.361H265.716C265.708 212.4 265.704 212.456 265.704 212.528C265.676 213.347 265.871 213.995 266.289 214.473C266.706 214.946 267.265 215.183 267.965 215.183C268.359 215.183 268.703 215.089 268.997 214.902C269.296 214.715 269.538 214.471 269.725 214.168ZM267.255 210.01C266.854 210.01 266.52 210.197 266.253 210.571C265.991 210.941 265.82 211.422 265.74 212.015H268.562C268.554 211.681 268.5 211.364 268.401 211.066C268.301 210.768 268.15 210.517 267.947 210.314C267.749 210.112 267.518 210.01 267.255 210.01ZM276.821 215.183C276.941 215.385 277.084 215.539 277.251 215.642C277.422 215.741 277.666 215.803 277.985 215.827V216H275.795C275.779 215.837 275.686 215.612 275.515 215.326L273.94 212.653L273.194 213.339V215.081C273.194 215.324 273.256 215.495 273.379 215.594C273.502 215.694 273.693 215.771 273.952 215.827V216H271.189V215.827C271.452 215.771 271.645 215.694 271.768 215.594C271.895 215.495 271.959 215.324 271.959 215.081V208.727C271.959 208.521 271.905 208.367 271.798 208.268C271.694 208.165 271.531 208.103 271.309 208.083L271.04 208.071V207.898L273.021 207.337H273.194V212.862L275.61 210.66C275.833 210.458 275.914 210.302 275.855 210.195C275.799 210.084 275.6 210.028 275.258 210.028V209.855H277.519V210.028C277.245 210.028 276.998 210.084 276.78 210.195C276.561 210.306 276.26 210.535 275.879 210.881L274.864 211.812L276.821 215.183ZM282.428 216V215.827L284.582 213.423C284.797 213.188 284.976 212.985 285.119 212.814C285.266 212.643 285.427 212.436 285.602 212.194C285.777 211.947 285.916 211.72 286.02 211.514C286.127 211.303 286.217 211.07 286.288 210.816C286.364 210.557 286.402 210.302 286.402 210.052C286.402 209.587 286.258 209.213 285.972 208.93C285.686 208.644 285.308 208.501 284.838 208.501C284.413 208.501 284.019 208.626 283.657 208.877C283.299 209.127 283.045 209.485 282.894 209.95L282.756 209.891C282.804 209.604 282.895 209.332 283.031 209.073C283.166 208.815 283.341 208.58 283.556 208.369C283.771 208.155 284.039 207.984 284.361 207.856C284.683 207.729 285.037 207.665 285.423 207.665C286.139 207.665 286.712 207.87 287.141 208.28C287.575 208.686 287.792 209.231 287.792 209.915C287.792 210.161 287.762 210.402 287.702 210.637C287.642 210.871 287.559 211.092 287.452 211.299C287.348 211.506 287.211 211.72 287.04 211.943C286.869 212.162 286.688 212.369 286.497 212.564C286.31 212.754 286.083 212.967 285.817 213.202C285.55 213.433 285.288 213.651 285.029 213.858C284.775 214.065 284.478 214.304 284.14 214.574C283.949 214.725 283.806 214.839 283.711 214.914H286.366C286.64 214.914 286.861 214.898 287.028 214.866C287.195 214.835 287.34 214.769 287.463 214.67C287.587 214.57 287.684 214.445 287.756 214.294C287.827 214.143 287.901 213.934 287.977 213.667H288.15L287.804 216H282.428Z" fill="#4E9100"/>
<circle cx="343.503" cy="60.8584" r="8.85836" fill="#67AE14"/>
<g filter="url(#filter1_dd_177_5124)">
<rect x="187.5" width="156" height="49" rx="8" fill="#67AE14"/>
<path d="M222.526 15.2173H220.933C220.887 14.956 220.803 14.7244 220.681 14.5227C220.559 14.3182 220.407 14.1449 220.225 14.0028C220.043 13.8608 219.836 13.7543 219.603 13.6832C219.373 13.6094 219.124 13.5724 218.857 13.5724C218.383 13.5724 217.962 13.6918 217.596 13.9304C217.229 14.1662 216.942 14.5128 216.735 14.9702C216.528 15.4247 216.424 15.9801 216.424 16.6364C216.424 17.304 216.528 17.8665 216.735 18.3239C216.945 18.7784 217.232 19.1222 217.596 19.3551C217.962 19.5852 218.381 19.7003 218.853 19.7003C219.114 19.7003 219.359 19.6662 219.586 19.598C219.816 19.527 220.022 19.4233 220.204 19.2869C220.388 19.1506 220.543 18.983 220.668 18.7841C220.796 18.5852 220.884 18.358 220.933 18.1023L222.526 18.1108C222.467 18.5256 222.337 18.9148 222.138 19.2784C221.942 19.642 221.685 19.9631 221.367 20.2415C221.049 20.517 220.677 20.733 220.251 20.8892C219.825 21.0426 219.352 21.1193 218.832 21.1193C218.065 21.1193 217.38 20.9418 216.778 20.5866C216.175 20.2315 215.701 19.7188 215.354 19.0483C215.008 18.3778 214.835 17.5739 214.835 16.6364C214.835 15.696 215.009 14.892 215.359 14.2244C215.708 13.554 216.184 13.0412 216.786 12.6861C217.388 12.331 218.07 12.1534 218.832 12.1534C219.317 12.1534 219.769 12.2216 220.187 12.358C220.604 12.4943 220.977 12.6946 221.303 12.9588C221.63 13.2202 221.898 13.5412 222.109 13.9219C222.322 14.2997 222.461 14.7315 222.526 15.2173ZM225.449 12.2727V21H223.906V12.2727H225.449ZM229.933 21.1278C229.276 21.1278 228.71 20.9915 228.232 20.7188C227.758 20.4432 227.393 20.054 227.137 19.5511C226.881 19.0455 226.754 18.4503 226.754 17.7656C226.754 17.0923 226.881 16.5014 227.137 15.9929C227.396 15.4815 227.756 15.0838 228.219 14.7997C228.683 14.5128 229.227 14.3693 229.852 14.3693C230.255 14.3693 230.636 14.4347 230.994 14.5653C231.354 14.6932 231.673 14.892 231.948 15.1619C232.227 15.4318 232.445 15.7756 232.604 16.1932C232.763 16.608 232.843 17.1023 232.843 17.6761V18.1491H227.478V17.1094H231.364C231.362 16.8139 231.298 16.5511 231.173 16.321C231.048 16.0881 230.873 15.9048 230.648 15.7713C230.427 15.6378 230.168 15.571 229.873 15.571C229.558 15.571 229.281 15.6477 229.042 15.8011C228.803 15.9517 228.617 16.1506 228.484 16.3977C228.353 16.642 228.286 16.9105 228.283 17.2031V18.1108C228.283 18.4915 228.353 18.8182 228.492 19.0909C228.631 19.3608 228.826 19.5682 229.076 19.7131C229.326 19.8551 229.619 19.9261 229.954 19.9261C230.178 19.9261 230.381 19.8949 230.563 19.8324C230.745 19.767 230.903 19.6719 231.036 19.5469C231.17 19.4219 231.271 19.267 231.339 19.0824L232.779 19.2443C232.688 19.625 232.515 19.9574 232.259 20.2415C232.006 20.5227 231.683 20.7415 231.288 20.8977C230.893 21.0511 230.441 21.1278 229.933 21.1278ZM236.032 21.1321C235.617 21.1321 235.243 21.0582 234.911 20.9105C234.581 20.7599 234.32 20.5384 234.127 20.2457C233.936 19.9531 233.841 19.5923 233.841 19.1634C233.841 18.794 233.909 18.4886 234.046 18.2472C234.182 18.0057 234.368 17.8125 234.604 17.6676C234.84 17.5227 235.105 17.4134 235.401 17.3395C235.699 17.2628 236.007 17.2074 236.326 17.1733C236.709 17.1335 237.02 17.098 237.259 17.0668C237.498 17.0327 237.671 16.9815 237.779 16.9134C237.89 16.8423 237.945 16.733 237.945 16.5852V16.5597C237.945 16.2386 237.85 15.9901 237.659 15.8139C237.469 15.6378 237.195 15.5497 236.837 15.5497C236.459 15.5497 236.159 15.6321 235.938 15.7969C235.719 15.9616 235.571 16.1562 235.495 16.3807L234.054 16.1761C234.168 15.7784 234.355 15.446 234.617 15.179C234.878 14.9091 235.198 14.7074 235.576 14.5739C235.953 14.4375 236.371 14.3693 236.828 14.3693C237.144 14.3693 237.458 14.4062 237.77 14.4801C238.083 14.554 238.368 14.6761 238.627 14.8466C238.885 15.0142 239.093 15.2429 239.249 15.5327C239.408 15.8224 239.488 16.1847 239.488 16.6193V21H238.005V20.1009H237.953C237.86 20.2827 237.728 20.4531 237.557 20.6122C237.39 20.7685 237.178 20.8949 236.922 20.9915C236.669 21.0852 236.373 21.1321 236.032 21.1321ZM236.432 19.9986C236.742 19.9986 237.01 19.9375 237.238 19.8153C237.465 19.6903 237.64 19.5256 237.762 19.321C237.887 19.1165 237.949 18.8935 237.949 18.652V17.8807C237.901 17.9205 237.819 17.9574 237.702 17.9915C237.588 18.0256 237.461 18.0554 237.319 18.081C237.176 18.1065 237.036 18.1293 236.897 18.1491C236.757 18.169 236.637 18.1861 236.534 18.2003C236.304 18.2315 236.098 18.2827 235.917 18.3537C235.735 18.4247 235.591 18.5241 235.486 18.652C235.381 18.777 235.328 18.9389 235.328 19.1378C235.328 19.4219 235.432 19.6364 235.64 19.7812C235.847 19.9261 236.111 19.9986 236.432 19.9986ZM242.581 17.1648V21H241.039V14.4545H242.513V15.5668H242.59C242.74 15.2003 242.98 14.9091 243.31 14.6932C243.642 14.4773 244.053 14.3693 244.542 14.3693C244.993 14.3693 245.387 14.4659 245.722 14.6591C246.06 14.8523 246.321 15.1321 246.506 15.4986C246.694 15.8651 246.786 16.3097 246.783 16.8324V21H245.24V17.071C245.24 16.6335 245.127 16.2912 244.9 16.044C244.675 15.7969 244.364 15.6733 243.966 15.6733C243.696 15.6733 243.456 15.733 243.246 15.8523C243.039 15.9687 242.875 16.1378 242.756 16.3594C242.64 16.581 242.581 16.8494 242.581 17.1648ZM250.162 19.8068L250.107 20.2756C250.067 20.6335 249.996 20.9972 249.894 21.3665C249.794 21.7386 249.689 22.081 249.578 22.3935C249.468 22.706 249.378 22.9517 249.31 23.1307H248.27C248.31 22.9574 248.364 22.7216 248.432 22.4233C248.503 22.125 248.571 21.7898 248.637 21.4176C248.702 21.0455 248.746 20.6676 248.769 20.2841L248.799 19.8068H250.162ZM256.14 17.1648V21H254.597V12.2727H256.106V15.5668H256.183C256.336 15.1974 256.573 14.9062 256.894 14.6932C257.218 14.4773 257.63 14.3693 258.13 14.3693C258.585 14.3693 258.981 14.4645 259.319 14.6548C259.657 14.8452 259.918 15.1236 260.103 15.4901C260.29 15.8565 260.384 16.304 260.384 16.8324V21H258.842V17.071C258.842 16.6307 258.728 16.2884 258.501 16.044C258.276 15.7969 257.961 15.6733 257.555 15.6733C257.282 15.6733 257.038 15.733 256.822 15.8523C256.609 15.9687 256.441 16.1378 256.319 16.3594C256.2 16.581 256.14 16.8494 256.14 17.1648ZM262.681 23.4545C262.471 23.4545 262.276 23.4375 262.097 23.4034C261.921 23.3722 261.781 23.3352 261.675 23.2926L262.033 22.0909C262.258 22.1563 262.458 22.1875 262.634 22.1847C262.81 22.1818 262.965 22.1264 263.099 22.0185C263.235 21.9134 263.35 21.7372 263.444 21.4901L263.576 21.1364L261.202 14.4545H262.839L264.347 19.3977H264.415L265.928 14.4545H267.569L264.948 21.7926C264.826 22.1392 264.664 22.4361 264.462 22.6832C264.261 22.9332 264.013 23.1236 263.721 23.2543C263.431 23.3878 263.085 23.4545 262.681 23.4545ZM270.843 21.1151C270.328 21.1151 269.868 20.983 269.462 20.7188C269.056 20.4545 268.735 20.071 268.499 19.5682C268.263 19.0653 268.145 18.4545 268.145 17.7358C268.145 17.0085 268.265 16.3949 268.503 15.8949C268.745 15.392 269.07 15.0128 269.479 14.7571C269.888 14.4986 270.344 14.3693 270.847 14.3693C271.23 14.3693 271.546 14.4347 271.793 14.5653C272.04 14.6932 272.236 14.848 272.381 15.0298C272.526 15.2088 272.638 15.3778 272.718 15.5369H272.782V12.2727H274.328V21H272.811V19.9688H272.718C272.638 20.1278 272.523 20.2969 272.373 20.4759C272.222 20.652 272.023 20.8026 271.776 20.9276C271.529 21.0526 271.218 21.1151 270.843 21.1151ZM271.273 19.8494C271.6 19.8494 271.878 19.7614 272.108 19.5852C272.338 19.4062 272.513 19.1577 272.632 18.8395C272.752 18.5213 272.811 18.1506 272.811 17.7273C272.811 17.304 272.752 16.9361 272.632 16.6236C272.516 16.3111 272.343 16.0682 272.113 15.8949C271.885 15.7216 271.605 15.6349 271.273 15.6349C270.929 15.6349 270.642 15.7244 270.412 15.9034C270.182 16.0824 270.009 16.3295 269.892 16.6449C269.776 16.9602 269.718 17.321 269.718 17.7273C269.718 18.1364 269.776 18.5014 269.892 18.8224C270.012 19.1406 270.186 19.392 270.417 19.5767C270.65 19.7585 270.935 19.8494 271.273 19.8494ZM275.972 21V14.4545H277.468V15.5455H277.536C277.656 15.1676 277.86 14.8764 278.15 14.6719C278.442 14.4645 278.776 14.3608 279.151 14.3608C279.237 14.3608 279.332 14.3651 279.437 14.3736C279.545 14.3793 279.634 14.3892 279.705 14.4034V15.8224C279.64 15.7997 279.536 15.7798 279.394 15.7628C279.255 15.7429 279.12 15.733 278.989 15.733C278.708 15.733 278.455 15.794 278.231 15.9162C278.009 16.0355 277.835 16.2017 277.707 16.4148C277.579 16.6278 277.515 16.8736 277.515 17.152V21H275.972ZM282.496 21.1321C282.082 21.1321 281.708 21.0582 281.376 20.9105C281.046 20.7599 280.785 20.5384 280.592 20.2457C280.401 19.9531 280.306 19.5923 280.306 19.1634C280.306 18.794 280.374 18.4886 280.511 18.2472C280.647 18.0057 280.833 17.8125 281.069 17.6676C281.305 17.5227 281.57 17.4134 281.866 17.3395C282.164 17.2628 282.472 17.2074 282.79 17.1733C283.174 17.1335 283.485 17.098 283.724 17.0668C283.962 17.0327 284.136 16.9815 284.244 16.9134C284.354 16.8423 284.41 16.733 284.41 16.5852V16.5597C284.41 16.2386 284.315 15.9901 284.124 15.8139C283.934 15.6378 283.66 15.5497 283.302 15.5497C282.924 15.5497 282.624 15.6321 282.403 15.7969C282.184 15.9616 282.036 16.1562 281.96 16.3807L280.519 16.1761C280.633 15.7784 280.82 15.446 281.082 15.179C281.343 14.9091 281.663 14.7074 282.04 14.5739C282.418 14.4375 282.836 14.3693 283.293 14.3693C283.609 14.3693 283.923 14.4062 284.235 14.4801C284.548 14.554 284.833 14.6761 285.092 14.8466C285.35 15.0142 285.558 15.2429 285.714 15.5327C285.873 15.8224 285.952 16.1847 285.952 16.6193V21H284.469V20.1009H284.418C284.325 20.2827 284.192 20.4531 284.022 20.6122C283.854 20.7685 283.643 20.8949 283.387 20.9915C283.134 21.0852 282.837 21.1321 282.496 21.1321ZM282.897 19.9986C283.207 19.9986 283.475 19.9375 283.702 19.8153C283.93 19.6903 284.104 19.5256 284.227 19.321C284.352 19.1165 284.414 18.8935 284.414 18.652V17.8807C284.366 17.9205 284.283 17.9574 284.167 17.9915C284.053 18.0256 283.925 18.0554 283.783 18.081C283.641 18.1065 283.501 18.1293 283.362 18.1491C283.222 18.169 283.102 18.1861 282.999 18.2003C282.769 18.2315 282.563 18.2827 282.381 18.3537C282.2 18.4247 282.056 18.5241 281.951 18.652C281.846 18.777 281.793 18.9389 281.793 19.1378C281.793 19.4219 281.897 19.6364 282.104 19.7812C282.312 19.9261 282.576 19.9986 282.897 19.9986ZM290.772 14.4545V15.6477H287.009V14.4545H290.772ZM287.938 12.8864H289.481V19.0312C289.481 19.2386 289.512 19.3977 289.575 19.5085C289.64 19.6165 289.725 19.6903 289.83 19.7301C289.935 19.7699 290.052 19.7898 290.18 19.7898C290.276 19.7898 290.364 19.7827 290.444 19.7685C290.526 19.7543 290.589 19.7415 290.631 19.7301L290.891 20.9361C290.809 20.9645 290.691 20.9957 290.538 21.0298C290.387 21.0639 290.202 21.0838 289.984 21.0895C289.597 21.1009 289.249 21.0426 288.94 20.9148C288.63 20.7841 288.384 20.5824 288.202 20.3097C288.023 20.0369 287.935 19.696 287.938 19.2869V12.8864ZM294.89 21.1278C294.233 21.1278 293.667 20.9915 293.189 20.7188C292.715 20.4432 292.35 20.054 292.094 19.5511C291.838 19.0455 291.711 18.4503 291.711 17.7656C291.711 17.0923 291.838 16.5014 292.094 15.9929C292.353 15.4815 292.713 15.0838 293.176 14.7997C293.64 14.5128 294.184 14.3693 294.809 14.3693C295.212 14.3693 295.593 14.4347 295.951 14.5653C296.311 14.6932 296.63 14.892 296.905 15.1619C297.184 15.4318 297.402 15.7756 297.561 16.1932C297.721 16.608 297.8 17.1023 297.8 17.6761V18.1491H292.435V17.1094H296.321C296.319 16.8139 296.255 16.5511 296.13 16.321C296.005 16.0881 295.83 15.9048 295.605 15.7713C295.384 15.6378 295.125 15.571 294.83 15.571C294.515 15.571 294.238 15.6477 293.999 15.8011C293.76 15.9517 293.574 16.1506 293.441 16.3977C293.31 16.642 293.243 16.9105 293.24 17.2031V18.1108C293.24 18.4915 293.31 18.8182 293.449 19.0909C293.588 19.3608 293.783 19.5682 294.033 19.7131C294.283 19.8551 294.576 19.9261 294.911 19.9261C295.135 19.9261 295.338 19.8949 295.52 19.8324C295.702 19.767 295.86 19.6719 295.993 19.5469C296.127 19.4219 296.228 19.267 296.296 19.0824L297.736 19.2443C297.645 19.625 297.472 19.9574 297.216 20.2415C296.963 20.5227 296.64 20.7415 296.245 20.8977C295.85 21.0511 295.398 21.1278 294.89 21.1278ZM301.534 21.1151C301.02 21.1151 300.56 20.983 300.153 20.7188C299.747 20.4545 299.426 20.071 299.19 19.5682C298.955 19.0653 298.837 18.4545 298.837 17.7358C298.837 17.0085 298.956 16.3949 299.195 15.8949C299.436 15.392 299.761 15.0128 300.17 14.7571C300.58 14.4986 301.036 14.3693 301.538 14.3693C301.922 14.3693 302.237 14.4347 302.484 14.5653C302.732 14.6932 302.928 14.848 303.072 15.0298C303.217 15.2088 303.33 15.3778 303.409 15.5369H303.473V12.2727H305.02V21H303.503V19.9688H303.409C303.33 20.1278 303.214 20.2969 303.064 20.4759C302.913 20.652 302.714 20.8026 302.467 20.9276C302.22 21.0526 301.909 21.1151 301.534 21.1151ZM301.964 19.8494C302.291 19.8494 302.57 19.7614 302.8 19.5852C303.03 19.4062 303.205 19.1577 303.324 18.8395C303.443 18.5213 303.503 18.1506 303.503 17.7273C303.503 17.304 303.443 16.9361 303.324 16.6236C303.207 16.3111 303.034 16.0682 302.804 15.8949C302.577 15.7216 302.297 15.6349 301.964 15.6349C301.621 15.6349 301.334 15.7244 301.104 15.9034C300.874 16.0824 300.7 16.3295 300.584 16.6449C300.467 16.9602 300.409 17.321 300.409 17.7273C300.409 18.1364 300.467 18.5014 300.584 18.8224C300.703 19.1406 300.878 19.392 301.108 19.5767C301.341 19.7585 301.626 19.8494 301.964 19.8494ZM312.248 21.1278C311.652 21.1278 311.139 21.0199 310.71 20.804C310.281 20.5881 309.95 20.2969 309.717 19.9304C309.487 19.5611 309.372 19.1449 309.372 18.6818C309.372 18.3324 309.443 18.0227 309.585 17.7528C309.73 17.483 309.929 17.233 310.181 17.0028C310.437 16.7727 310.733 16.544 311.068 16.3168L312.615 15.2642C312.842 15.1165 313.014 14.9602 313.13 14.7955C313.25 14.6307 313.309 14.4375 313.309 14.2159C313.309 14.0284 313.23 13.8509 313.071 13.6832C312.914 13.5156 312.699 13.4318 312.423 13.4318C312.238 13.4318 312.075 13.4759 311.933 13.5639C311.794 13.6491 311.684 13.7614 311.605 13.9006C311.528 14.0398 311.49 14.1875 311.49 14.3438C311.49 14.5341 311.542 14.7273 311.647 14.9233C311.755 15.1193 311.895 15.3224 312.065 15.5327C312.238 15.7429 312.423 15.9659 312.619 16.2017L316.714 21H315.044L311.643 17.1051C311.39 16.8097 311.146 16.5185 310.91 16.2315C310.677 15.9446 310.485 15.6463 310.335 15.3366C310.187 15.0241 310.113 14.6861 310.113 14.3224C310.113 13.9105 310.208 13.5426 310.399 13.2188C310.589 12.892 310.855 12.6349 311.196 12.4474C311.539 12.2599 311.941 12.1662 312.402 12.1662C312.862 12.1662 313.257 12.2571 313.586 12.4389C313.916 12.6207 314.17 12.8622 314.349 13.1634C314.528 13.4645 314.618 13.7926 314.618 14.1477C314.618 14.5597 314.515 14.929 314.311 15.2557C314.106 15.5795 313.822 15.8736 313.458 16.1378L311.694 17.429C311.404 17.6392 311.197 17.8523 311.072 18.0682C310.947 18.2812 310.885 18.4631 310.885 18.6136C310.885 18.8437 310.943 19.0526 311.059 19.2401C311.176 19.4276 311.339 19.5781 311.549 19.6918C311.762 19.8026 312.011 19.858 312.295 19.858C312.608 19.858 312.916 19.7884 313.22 19.6491C313.524 19.5071 313.801 19.3054 314.051 19.044C314.301 18.7827 314.5 18.4702 314.647 18.1065C314.795 17.7401 314.869 17.3338 314.869 16.8878H316.194C316.194 17.4389 316.133 17.919 316.011 18.3281C315.889 18.7344 315.731 19.0781 315.538 19.3594C315.345 19.6378 315.14 19.8608 314.924 20.0284C314.856 20.0767 314.791 20.125 314.728 20.1733C314.666 20.2216 314.6 20.2699 314.532 20.3182C314.225 20.5966 313.866 20.8011 313.454 20.9318C313.045 21.0625 312.643 21.1278 312.248 21.1278ZM216.677 39.1278C216.024 39.1278 215.463 38.9844 214.994 38.6974C214.528 38.4105 214.169 38.0142 213.916 37.5085C213.666 37 213.541 36.4148 213.541 35.7528C213.541 35.0881 213.669 34.5014 213.924 33.9929C214.18 33.4815 214.541 33.0838 215.007 32.7997C215.475 32.5128 216.029 32.3693 216.669 32.3693C217.2 32.3693 217.67 32.4673 218.079 32.6634C218.491 32.8565 218.819 33.1307 219.063 33.4858C219.308 33.8381 219.447 34.25 219.481 34.7216H218.007C217.947 34.4062 217.805 34.1435 217.58 33.9332C217.359 33.7202 217.062 33.6136 216.69 33.6136C216.374 33.6136 216.097 33.6989 215.859 33.8693C215.62 34.0369 215.434 34.2784 215.301 34.5938C215.17 34.9091 215.105 35.2869 215.105 35.7273C215.105 36.1733 215.17 36.5568 215.301 36.8778C215.431 37.196 215.615 37.4418 215.85 37.6151C216.089 37.7855 216.369 37.8707 216.69 37.8707C216.917 37.8707 217.12 37.8281 217.299 37.7429C217.481 37.6548 217.633 37.5284 217.755 37.3636C217.877 37.1989 217.961 36.9986 218.007 36.7628H219.481C219.444 37.2259 219.308 37.6364 219.072 37.9943C218.836 38.3494 218.515 38.6278 218.109 38.8295C217.703 39.0284 217.225 39.1278 216.677 39.1278ZM223.603 39.1278C222.964 39.1278 222.41 38.9872 221.941 38.706C221.472 38.4247 221.108 38.0312 220.85 37.5256C220.594 37.0199 220.466 36.429 220.466 35.7528C220.466 35.0767 220.594 34.4844 220.85 33.9759C221.108 33.4673 221.472 33.0724 221.941 32.7912C222.41 32.5099 222.964 32.3693 223.603 32.3693C224.242 32.3693 224.796 32.5099 225.265 32.7912C225.733 33.0724 226.096 33.4673 226.351 33.9759C226.61 34.4844 226.739 35.0767 226.739 35.7528C226.739 36.429 226.61 37.0199 226.351 37.5256C226.096 38.0312 225.733 38.4247 225.265 38.706C224.796 38.9872 224.242 39.1278 223.603 39.1278ZM223.611 37.892C223.958 37.892 224.248 37.7969 224.481 37.6065C224.714 37.4134 224.887 37.1548 225.001 36.831C225.117 36.5071 225.175 36.1463 225.175 35.7486C225.175 35.348 225.117 34.9858 225.001 34.6619C224.887 34.3352 224.714 34.0753 224.481 33.8821C224.248 33.6889 223.958 33.5923 223.611 33.5923C223.256 33.5923 222.961 33.6889 222.725 33.8821C222.492 34.0753 222.317 34.3352 222.201 34.6619C222.087 34.9858 222.03 35.348 222.03 35.7486C222.03 36.1463 222.087 36.5071 222.201 36.831C222.317 37.1548 222.492 37.4134 222.725 37.6065C222.961 37.7969 223.256 37.892 223.611 37.892ZM228.048 39V32.4545H229.523V33.5668H229.6C229.736 33.1918 229.962 32.8991 230.277 32.6889C230.593 32.4759 230.969 32.3693 231.406 32.3693C231.85 32.3693 232.223 32.4773 232.527 32.6932C232.834 32.9062 233.05 33.1974 233.175 33.5668H233.243C233.388 33.2031 233.632 32.9134 233.976 32.6974C234.323 32.4787 234.733 32.3693 235.208 32.3693C235.81 32.3693 236.301 32.5597 236.682 32.9403C237.063 33.321 237.253 33.8764 237.253 34.6065V39H235.706V34.8452C235.706 34.4389 235.598 34.142 235.382 33.9545C235.166 33.7642 234.902 33.669 234.59 33.669C234.218 33.669 233.926 33.7855 233.716 34.0185C233.509 34.2486 233.405 34.5483 233.405 34.9176V39H231.892V34.7812C231.892 34.4432 231.79 34.1733 231.585 33.9716C231.384 33.7699 231.119 33.669 230.793 33.669C230.571 33.669 230.369 33.7259 230.188 33.8395C230.006 33.9503 229.861 34.108 229.753 34.3125C229.645 34.5142 229.591 34.75 229.591 35.0199V39H228.048ZM242.133 32.4545V33.6477H238.264V32.4545H242.133ZM239.231 39V31.8366C239.231 31.3963 239.322 31.0298 239.504 30.7372C239.689 30.4446 239.936 30.2259 240.246 30.081C240.555 29.9361 240.899 29.8636 241.277 29.8636C241.544 29.8636 241.781 29.8849 241.988 29.9276C242.196 29.9702 242.349 30.0085 242.449 30.0426L242.142 31.2358C242.077 31.2159 241.994 31.196 241.895 31.1761C241.795 31.1534 241.684 31.142 241.562 31.142C241.275 31.142 241.072 31.2116 240.953 31.3509C240.836 31.4872 240.778 31.6832 240.778 31.9389V39H239.231ZM245.95 39.1278C245.311 39.1278 244.757 38.9872 244.289 38.706C243.82 38.4247 243.456 38.0312 243.198 37.5256C242.942 37.0199 242.814 36.429 242.814 35.7528C242.814 35.0767 242.942 34.4844 243.198 33.9759C243.456 33.4673 243.82 33.0724 244.289 32.7912C244.757 32.5099 245.311 32.3693 245.95 32.3693C246.59 32.3693 247.144 32.5099 247.612 32.7912C248.081 33.0724 248.443 33.4673 248.699 33.9759C248.958 34.4844 249.087 35.0767 249.087 35.7528C249.087 36.429 248.958 37.0199 248.699 37.5256C248.443 38.0312 248.081 38.4247 247.612 38.706C247.144 38.9872 246.59 39.1278 245.95 39.1278ZM245.959 37.892C246.306 37.892 246.595 37.7969 246.828 37.6065C247.061 37.4134 247.235 37.1548 247.348 36.831C247.465 36.5071 247.523 36.1463 247.523 35.7486C247.523 35.348 247.465 34.9858 247.348 34.6619C247.235 34.3352 247.061 34.0753 246.828 33.8821C246.595 33.6889 246.306 33.5923 245.959 33.5923C245.604 33.5923 245.308 33.6889 245.073 33.8821C244.84 34.0753 244.665 34.3352 244.548 34.6619C244.435 34.9858 244.378 35.348 244.378 35.7486C244.378 36.1463 244.435 36.5071 244.548 36.831C244.665 37.1548 244.84 37.4134 245.073 37.6065C245.308 37.7969 245.604 37.892 245.959 37.892ZM250.396 39V32.4545H251.892V33.5455H251.96C252.079 33.1676 252.284 32.8764 252.574 32.6719C252.866 32.4645 253.2 32.3608 253.575 32.3608C253.66 32.3608 253.756 32.3651 253.861 32.3736C253.969 32.3793 254.058 32.3892 254.129 32.4034V33.8224C254.064 33.7997 253.96 33.7798 253.818 33.7628C253.679 33.7429 253.544 33.733 253.413 33.733C253.132 33.733 252.879 33.794 252.655 33.9162C252.433 34.0355 252.258 34.2017 252.131 34.4148C252.003 34.6278 251.939 34.8736 251.939 35.152V39H250.396ZM258.774 32.4545V33.6477H255.011V32.4545H258.774ZM255.94 30.8864H257.483V37.0312C257.483 37.2386 257.514 37.3977 257.577 37.5085C257.642 37.6165 257.727 37.6903 257.832 37.7301C257.937 37.7699 258.054 37.7898 258.182 37.7898C258.278 37.7898 258.366 37.7827 258.446 37.7685C258.528 37.7543 258.591 37.7415 258.633 37.7301L258.893 38.9361C258.811 38.9645 258.693 38.9957 258.54 39.0298C258.389 39.0639 258.204 39.0838 257.986 39.0895C257.599 39.1009 257.251 39.0426 256.942 38.9148C256.632 38.7841 256.386 38.5824 256.204 38.3097C256.025 38.0369 255.937 37.696 255.94 37.2869V30.8864ZM261.948 39.1321C261.533 39.1321 261.159 39.0582 260.827 38.9105C260.497 38.7599 260.236 38.5384 260.043 38.2457C259.852 37.9531 259.757 37.5923 259.757 37.1634C259.757 36.794 259.825 36.4886 259.962 36.2472C260.098 36.0057 260.284 35.8125 260.52 35.6676C260.756 35.5227 261.021 35.4134 261.317 35.3395C261.615 35.2628 261.923 35.2074 262.242 35.1733C262.625 35.1335 262.936 35.098 263.175 35.0668C263.414 35.0327 263.587 34.9815 263.695 34.9134C263.806 34.8423 263.861 34.733 263.861 34.5852V34.5597C263.861 34.2386 263.766 33.9901 263.575 33.8139C263.385 33.6378 263.111 33.5497 262.753 33.5497C262.375 33.5497 262.075 33.6321 261.854 33.7969C261.635 33.9616 261.487 34.1562 261.411 34.3807L259.97 34.1761C260.084 33.7784 260.271 33.446 260.533 33.179C260.794 32.9091 261.114 32.7074 261.492 32.5739C261.869 32.4375 262.287 32.3693 262.744 32.3693C263.06 32.3693 263.374 32.4062 263.686 32.4801C263.999 32.554 264.284 32.6761 264.543 32.8466C264.801 33.0142 265.009 33.2429 265.165 33.5327C265.324 33.8224 265.404 34.1847 265.404 34.6193V39H263.921V38.1009H263.869C263.776 38.2827 263.644 38.4531 263.473 38.6122C263.306 38.7685 263.094 38.8949 262.838 38.9915C262.585 39.0852 262.289 39.1321 261.948 39.1321ZM262.348 37.9986C262.658 37.9986 262.926 37.9375 263.154 37.8153C263.381 37.6903 263.556 37.5256 263.678 37.321C263.803 37.1165 263.865 36.8935 263.865 36.652V35.8807C263.817 35.9205 263.735 35.9574 263.618 35.9915C263.504 36.0256 263.377 36.0554 263.235 36.081C263.093 36.1065 262.952 36.1293 262.813 36.1491C262.673 36.169 262.553 36.1861 262.45 36.2003C262.22 36.2315 262.014 36.2827 261.833 36.3537C261.651 36.4247 261.507 36.5241 261.402 36.652C261.297 36.777 261.244 36.9389 261.244 37.1378C261.244 37.4219 261.348 37.6364 261.556 37.7812C261.763 37.9261 262.027 37.9986 262.348 37.9986ZM267.023 39V30.2727H268.566V33.5369H268.629C268.709 33.3778 268.821 33.2088 268.966 33.0298C269.111 32.848 269.307 32.6932 269.554 32.5653C269.801 32.4347 270.117 32.3693 270.5 32.3693C271.006 32.3693 271.462 32.4986 271.868 32.7571C272.277 33.0128 272.601 33.392 272.84 33.8949C273.081 34.3949 273.202 35.0085 273.202 35.7358C273.202 36.4545 273.084 37.0653 272.848 37.5682C272.612 38.071 272.291 38.4545 271.885 38.7188C271.479 38.983 271.019 39.1151 270.504 39.1151C270.129 39.1151 269.818 39.0526 269.571 38.9276C269.324 38.8026 269.125 38.652 268.975 38.4759C268.827 38.2969 268.712 38.1278 268.629 37.9688H268.54V39H267.023ZM268.536 35.7273C268.536 36.1506 268.595 36.5213 268.715 36.8395C268.837 37.1577 269.012 37.4062 269.239 37.5852C269.469 37.7614 269.747 37.8494 270.074 37.8494C270.415 37.8494 270.7 37.7585 270.931 37.5767C271.161 37.392 271.334 37.1406 271.45 36.8224C271.57 36.5014 271.629 36.1364 271.629 35.7273C271.629 35.321 271.571 34.9602 271.455 34.6449C271.338 34.3295 271.165 34.0824 270.935 33.9034C270.705 33.7244 270.418 33.6349 270.074 33.6349C269.744 33.6349 269.465 33.7216 269.235 33.8949C269.004 34.0682 268.83 34.3111 268.71 34.6236C268.594 34.9361 268.536 35.304 268.536 35.7273ZM276.056 30.2727V39H274.513V30.2727H276.056ZM280.54 39.1278C279.884 39.1278 279.317 38.9915 278.84 38.7188C278.365 38.4432 278 38.054 277.744 37.5511C277.489 37.0455 277.361 36.4503 277.361 35.7656C277.361 35.0923 277.489 34.5014 277.744 33.9929C278.003 33.4815 278.364 33.0838 278.827 32.7997C279.29 32.5128 279.834 32.3693 280.459 32.3693C280.862 32.3693 281.243 32.4347 281.601 32.5653C281.962 32.6932 282.28 32.892 282.556 33.1619C282.834 33.4318 283.053 33.7756 283.212 34.1932C283.371 34.608 283.45 35.1023 283.45 35.6761V36.1491H278.085V35.1094H281.972C281.969 34.8139 281.905 34.5511 281.78 34.321C281.655 34.0881 281.48 33.9048 281.256 33.7713C281.034 33.6378 280.776 33.571 280.48 33.571C280.165 33.571 279.888 33.6477 279.649 33.8011C279.411 33.9517 279.225 34.1506 279.091 34.3977C278.96 34.642 278.894 34.9105 278.891 35.2031V36.1108C278.891 36.4915 278.96 36.8182 279.1 37.0909C279.239 37.3608 279.433 37.5682 279.683 37.7131C279.933 37.8551 280.226 37.9261 280.561 37.9261C280.786 37.9261 280.989 37.8949 281.171 37.8324C281.352 37.767 281.51 37.6719 281.644 37.5469C281.777 37.4219 281.878 37.267 281.946 37.0824L283.387 37.2443C283.296 37.625 283.122 37.9574 282.867 38.2415C282.614 38.5227 282.29 38.7415 281.895 38.8977C281.5 39.0511 281.048 39.1278 280.54 39.1278ZM292.905 34.1847L291.499 34.3381C291.459 34.196 291.39 34.0625 291.29 33.9375C291.194 33.8125 291.063 33.7116 290.898 33.6349C290.733 33.5582 290.532 33.5199 290.293 33.5199C289.972 33.5199 289.702 33.5895 289.483 33.7287C289.268 33.8679 289.161 34.0483 289.164 34.2699C289.161 34.4602 289.231 34.6151 289.373 34.7344C289.518 34.8537 289.756 34.9517 290.089 35.0284L291.205 35.267C291.824 35.4006 292.285 35.6122 292.586 35.902C292.89 36.1918 293.043 36.571 293.046 37.0398C293.043 37.4517 292.922 37.8153 292.684 38.1307C292.448 38.4432 292.12 38.6875 291.699 38.8636C291.279 39.0398 290.796 39.1278 290.251 39.1278C289.449 39.1278 288.805 38.9602 288.316 38.625C287.827 38.2869 287.536 37.8168 287.442 37.2145L288.947 37.0696C289.015 37.3651 289.16 37.5881 289.381 37.7386C289.603 37.8892 289.891 37.9645 290.246 37.9645C290.613 37.9645 290.907 37.8892 291.128 37.7386C291.353 37.5881 291.465 37.402 291.465 37.1804C291.465 36.9929 291.393 36.8381 291.248 36.7159C291.106 36.5937 290.884 36.5 290.583 36.4347L289.466 36.2003C288.839 36.0696 288.374 35.8494 288.073 35.5398C287.772 35.2273 287.623 34.8324 287.626 34.3551C287.623 33.9517 287.732 33.6023 287.954 33.3068C288.178 33.0085 288.489 32.7784 288.887 32.6165C289.287 32.4517 289.749 32.3693 290.272 32.3693C291.039 32.3693 291.643 32.5327 292.083 32.8594C292.526 33.1861 292.8 33.6278 292.905 34.1847ZM297.173 39.1278C296.52 39.1278 295.959 38.9844 295.49 38.6974C295.024 38.4105 294.665 38.0142 294.412 37.5085C294.162 37 294.037 36.4148 294.037 35.7528C294.037 35.0881 294.165 34.5014 294.42 33.9929C294.676 33.4815 295.037 33.0838 295.503 32.7997C295.971 32.5128 296.525 32.3693 297.165 32.3693C297.696 32.3693 298.166 32.4673 298.575 32.6634C298.987 32.8565 299.315 33.1307 299.559 33.4858C299.804 33.8381 299.943 34.25 299.977 34.7216H298.503C298.443 34.4062 298.301 34.1435 298.077 33.9332C297.855 33.7202 297.558 33.6136 297.186 33.6136C296.871 33.6136 296.594 33.6989 296.355 33.8693C296.116 34.0369 295.93 34.2784 295.797 34.5938C295.666 34.9091 295.601 35.2869 295.601 35.7273C295.601 36.1733 295.666 36.5568 295.797 36.8778C295.927 37.196 296.111 37.4418 296.346 37.6151C296.585 37.7855 296.865 37.8707 297.186 37.8707C297.413 37.8707 297.616 37.8281 297.795 37.7429C297.977 37.6548 298.129 37.5284 298.251 37.3636C298.373 37.1989 298.457 36.9986 298.503 36.7628H299.977C299.94 37.2259 299.804 37.6364 299.568 37.9943C299.332 38.3494 299.011 38.6278 298.605 38.8295C298.199 39.0284 297.721 39.1278 297.173 39.1278ZM303.127 39.1321C302.713 39.1321 302.339 39.0582 302.007 38.9105C301.677 38.7599 301.416 38.5384 301.222 38.2457C301.032 37.9531 300.937 37.5923 300.937 37.1634C300.937 36.794 301.005 36.4886 301.142 36.2472C301.278 36.0057 301.464 35.8125 301.7 35.6676C301.936 35.5227 302.201 35.4134 302.497 35.3395C302.795 35.2628 303.103 35.2074 303.421 35.1733C303.805 35.1335 304.116 35.098 304.355 35.0668C304.593 35.0327 304.767 34.9815 304.874 34.9134C304.985 34.8423 305.041 34.733 305.041 34.5852V34.5597C305.041 34.2386 304.945 33.9901 304.755 33.8139C304.565 33.6378 304.291 33.5497 303.933 33.5497C303.555 33.5497 303.255 33.6321 303.034 33.7969C302.815 33.9616 302.667 34.1562 302.59 34.3807L301.15 34.1761C301.264 33.7784 301.451 33.446 301.713 33.179C301.974 32.9091 302.294 32.7074 302.671 32.5739C303.049 32.4375 303.467 32.3693 303.924 32.3693C304.24 32.3693 304.553 32.4062 304.866 32.4801C305.178 32.554 305.464 32.6761 305.722 32.8466C305.981 33.0142 306.188 33.2429 306.345 33.5327C306.504 33.8224 306.583 34.1847 306.583 34.6193V39H305.1V38.1009H305.049C304.955 38.2827 304.823 38.4531 304.653 38.6122C304.485 38.7685 304.274 38.8949 304.018 38.9915C303.765 39.0852 303.468 39.1321 303.127 39.1321ZM303.528 37.9986C303.838 37.9986 304.106 37.9375 304.333 37.8153C304.561 37.6903 304.735 37.5256 304.857 37.321C304.982 37.1165 305.045 36.8935 305.045 36.652V35.8807C304.997 35.9205 304.914 35.9574 304.798 35.9915C304.684 36.0256 304.556 36.0554 304.414 36.081C304.272 36.1065 304.132 36.1293 303.992 36.1491C303.853 36.169 303.732 36.1861 303.63 36.2003C303.4 36.2315 303.194 36.2827 303.012 36.3537C302.83 36.4247 302.687 36.5241 302.582 36.652C302.477 36.777 302.424 36.9389 302.424 37.1378C302.424 37.4219 302.528 37.6364 302.735 37.7812C302.943 37.9261 303.207 37.9986 303.528 37.9986ZM309.677 30.2727V39H308.134V30.2727H309.677ZM311.263 41.4545V32.4545H312.78V33.5369H312.87C312.949 33.3778 313.062 33.2088 313.206 33.0298C313.351 32.848 313.547 32.6932 313.795 32.5653C314.042 32.4347 314.357 32.3693 314.741 32.3693C315.246 32.3693 315.702 32.4986 316.108 32.7571C316.518 33.0128 316.841 33.392 317.08 33.8949C317.322 34.3949 317.442 35.0085 317.442 35.7358C317.442 36.4545 317.324 37.0653 317.089 37.5682C316.853 38.071 316.532 38.4545 316.126 38.7188C315.719 38.983 315.259 39.1151 314.745 39.1151C314.37 39.1151 314.059 39.0526 313.812 38.9276C313.564 38.8026 313.366 38.652 313.215 38.4759C313.067 38.2969 312.952 38.1278 312.87 37.9688H312.806V41.4545H311.263ZM312.776 35.7273C312.776 36.1506 312.836 36.5213 312.955 36.8395C313.077 37.1577 313.252 37.4062 313.479 37.5852C313.709 37.7614 313.988 37.8494 314.314 37.8494C314.655 37.8494 314.941 37.7585 315.171 37.5767C315.401 37.392 315.574 37.1406 315.691 36.8224C315.81 36.5014 315.87 36.1364 315.87 35.7273C315.87 35.321 315.812 34.9602 315.695 34.6449C315.579 34.3295 315.405 34.0824 315.175 33.9034C314.945 33.7244 314.658 33.6349 314.314 33.6349C313.985 33.6349 313.705 33.7216 313.475 33.8949C313.245 34.0682 313.07 34.3111 312.951 34.6236C312.834 34.9361 312.776 35.304 312.776 35.7273Z" fill="white"/>
<path d="M271.571 46.4853C272.462 46.4853 272.908 47.5624 272.278 48.1924L266.207 54.2635C265.817 54.654 265.183 54.654 264.793 54.2635L258.722 48.1924C258.092 47.5624 258.538 46.4853 259.429 46.4853L271.571 46.4853Z" fill="#67AE14"/>
</g>
<defs>
<filter id="filter0_dd_177_5124" x="18.5" y="79" width="161" height="64" filterUnits="userSpaceOnUse" color-interpolation-filters="sRGB">
<feFlood flood-opacity="0" result="BackgroundImageFix"/>
<feColorMatrix in="SourceAlpha" type="matrix" values="0 0 0 0 0 0 0 0 0 0 0 0 0 0 0 0 0 0 127 0" result="hardAlpha"/>
<feMorphology radius="2" operator="erode" in="SourceAlpha" result="effect1_dropShadow_177_5124"/>
<feOffset dy="4"/>
<feGaussianBlur stdDeviation="3"/>
<feColorMatrix type="matrix" values="0 0 0 0 0.0627451 0 0 0 0 0.0941176 0 0 0 0 0.156863 0 0 0 0.03 0"/>
<feBlend mode="normal" in2="BackgroundImageFix" result="effect1_dropShadow_177_5124"/>
<feColorMatrix in="SourceAlpha" type="matrix" values="0 0 0 0 0 0 0 0 0 0 0 0 0 0 0 0 0 0 127 0" result="hardAlpha"/>
<feMorphology radius="4" operator="erode" in="SourceAlpha" result="effect2_dropShadow_177_5124"/>
<feOffset dy="12"/>
<feGaussianBlur stdDeviation="8"/>
<feColorMatrix type="matrix" values="0 0 0 0 0.0627451 0 0 0 0 0.0941176 0 0 0 0 0.156863 0 0 0 0.08 0"/>
<feBlend mode="normal" in2="effect1_dropShadow_177_5124" result="effect2_dropShadow_177_5124"/>
<feBlend mode="normal" in="SourceGraphic" in2="effect2_dropShadow_177_5124" result="shape"/>
</filter>
<filter id="filter1_dd_177_5124" x="156" y="0" width="219" height="79" filterUnits="userSpaceOnUse" color-interpolation-filters="sRGB">
<feFlood flood-opacity="0" result="BackgroundImageFix"/>
<feColorMatrix in="SourceAlpha" type="matrix" values="0 0 0 0 0 0 0 0 0 0 0 0 0 0 0 0 0 0 127 0" result="hardAlpha"/>
<feMorphology radius="2" operator="erode" in="SourceAlpha" result="effect1_dropShadow_177_5124"/>
<feOffset dy="4"/>
<feGaussianBlur stdDeviation="3"/>
<feColorMatrix type="matrix" values="0 0 0 0 0.0627451 0 0 0 0 0.0941176 0 0 0 0 0.156863 0 0 0 0.03 0"/>
<feBlend mode="normal" in2="BackgroundImageFix" result="effect1_dropShadow_177_5124"/>
<feColorMatrix in="SourceAlpha" type="matrix" values="0 0 0 0 0 0 0 0 0 0 0 0 0 0 0 0 0 0 127 0" result="hardAlpha"/>
<feMorphology radius="4" operator="erode" in="SourceAlpha" result="effect2_dropShadow_177_5124"/>
<feOffset dy="12"/>
<feGaussianBlur stdDeviation="8"/>
<feColorMatrix type="matrix" values="0 0 0 0 0.0627451 0 0 0 0 0.0941176 0 0 0 0 0.156863 0 0 0 0.08 0"/>
<feBlend mode="normal" in2="effect1_dropShadow_177_5124" result="effect2_dropShadow_177_5124"/>
<feBlend mode="normal" in="SourceGraphic" in2="effect2_dropShadow_177_5124" result="shape"/>
</filter>
<linearGradient id="paint0_linear_177_5124" x1="176.145" y1="61" x2="176.145" y2="259" gradientUnits="userSpaceOnUse">
<stop stop-color="#82CD23"/>
<stop offset="1" stop-color="#E2FFC0"/>
</linearGradient>
<linearGradient id="paint1_linear_177_5124" x1="93.1445" y1="56.6862" x2="93.1445" y2="261" gradientUnits="userSpaceOnUse">
<stop stop-color="#6FC600"/>
<stop offset="1" stop-color="#D2FF99" stop-opacity="0"/>
</linearGradient>
<linearGradient id="paint2_linear_177_5124" x1="260.145" y1="-2.73538" x2="260.145" y2="259" gradientUnits="userSpaceOnUse">
<stop stop-color="#17AE14"/>
<stop offset="1" stop-color="#D2FF99" stop-opacity="0"/>
</linearGradient>
</defs>
</svg>
