<svg width="160" height="160" viewBox="0 0 160 160" fill="none" xmlns="http://www.w3.org/2000/svg">
<path d="M0 10C0 4.47715 4.47715 0 10 0H150C155.523 0 160 4.47715 160 10V160H0V10Z" fill="#EDC9B4"/>
<path d="M52.915 157.327C52.915 157.327 55.2645 129.619 55.6411 126.096C56.0178 122.572 57.4384 115.953 55.6096 108.897C53.7807 101.842 47.1416 88.5247 47.0014 85.2576C46.8611 81.9905 57.6772 69.1597 59.1092 67.8428C60.5412 66.5258 68.1585 60.7032 69.3427 60.8738C70.527 61.0444 71.5103 62.264 71.5103 62.264C71.5103 62.264 72.9852 61.7977 73.8964 62.029C74.8077 62.2603 76.457 63.9071 76.457 63.9071C76.457 63.9071 77.1724 80.9554 77.2925 81.5026C77.4125 82.0499 79.8556 95.8539 80.1804 98.6495C80.5052 101.446 79.1782 107.184 78.0659 112.589C76.9537 117.993 80.8932 138.638 82.1495 144.386C83.4058 150.133 84.1275 156.714 83.8494 158.065C83.5714 159.416 52.6331 160.588 52.915 157.325V157.327Z" fill="#E5805C"/>
<path d="M71.355 44.0602C71.6937 41.5729 71.6394 39.4117 71.5496 38.1377C69.2178 38.8556 66.8859 39.5722 64.5554 40.2901C64.0208 42.6864 63.2523 46.8344 62.8896 52.178C62.5382 57.3586 61.9392 69.0405 61.833 75.3257C62.7708 77.7839 63.7756 80.2182 64.8435 82.6296C65.8736 83.3702 66.8809 83.8821 67.3195 83.8113C68.3204 83.6496 70.8115 48.0426 71.355 44.0602Z" fill="#296D58"/>
<path d="M81.2559 38.5445C79.647 40.7487 74.1719 48.2953 72.855 50.7067C71.576 53.0499 65.9062 65.3815 63.7615 70.3662C63.6781 73.3299 63.6806 76.2988 63.7728 79.2714C63.7678 79.2714 63.764 79.2714 63.7589 79.2701C63.7867 80.0853 63.8247 80.9005 63.8676 81.7157C66.1767 82.4007 69.5854 82.8077 69.5854 82.8077C69.5854 82.8077 83.2478 47.5862 84.4813 44.8184C85.7148 42.0505 83.2996 39.0084 83.2996 39.0084L83.3539 38.7505C82.655 38.681 81.9548 38.6115 81.2559 38.542V38.5445Z" fill="#296D58"/>
<path d="M63.2837 78.9531C66.3536 80.5342 69.4236 82.1166 72.4922 83.6977C77.1774 77.8636 90.3191 61.4801 92.1466 58.9777C94.3774 55.9229 95.6248 50.8813 95.6248 50.8813C95.6248 50.8813 87.4311 54.5428 75.6203 65.4942C71.7946 69.0419 65.3387 76.4658 63.2837 78.9531Z" fill="#296D58"/>
<path d="M76.749 70.6625C76.749 70.6625 80.2879 73.8057 81.0083 73.577C81.7287 73.3482 83.3085 70.6549 83.2655 69.9648C83.2226 69.2747 80.7365 67.1666 79.7406 67.3663C78.7447 67.566 76.749 70.6625 76.749 70.6625Z" fill="#FFCAB3"/>
<path d="M72.736 108.59C72.6854 108.601 72.6298 108.593 72.5818 108.566C72.4794 108.506 72.444 108.373 72.5034 108.271C72.5376 108.213 75.8514 102.461 75.3876 98.9577C75.2233 97.714 74.949 96.3996 74.6836 95.1282C74.1768 92.6965 73.6523 90.1826 73.8469 87.9785C74.1427 84.633 76.951 80.9084 77.0698 80.7517C77.1418 80.6569 77.2771 80.6392 77.3719 80.7112C77.4667 80.7833 77.4844 80.9185 77.4123 81.0133C77.3832 81.0512 74.5598 84.7973 74.2754 88.0164C74.0858 90.1574 74.604 92.6396 75.1058 95.0397C75.3724 96.3187 75.648 97.6407 75.8148 98.8995C76.2988 102.55 73.0153 108.246 72.8763 108.486C72.8447 108.54 72.7929 108.576 72.736 108.588V108.59Z" fill="#E06655"/>
<path d="M77.7174 112.403C77.7022 112.407 77.6871 112.408 77.6706 112.408C77.6226 112.408 77.1752 112.394 76.0857 111.968C75.0329 111.556 71.6635 110.846 71.6293 110.838C71.5131 110.814 71.4385 110.699 71.4625 110.583C71.4865 110.467 71.6015 110.392 71.7178 110.416C71.8581 110.445 75.1568 111.142 76.2424 111.566C77.2548 111.962 77.6694 111.976 77.6731 111.976C77.7907 111.978 77.8855 112.076 77.8842 112.194C77.883 112.297 77.8109 112.381 77.7161 112.402L77.7174 112.403Z" fill="#E06655"/>
<path d="M64.128 81.5554C61.8467 82.0546 59.1622 81.8903 57.274 81.113C55.4578 80.3661 51.6725 79.8745 51.6334 79.8694C51.5158 79.8542 51.4324 79.7468 51.4476 79.628C51.4627 79.5105 51.5702 79.427 51.689 79.4422C51.847 79.4624 55.5691 79.9452 57.4383 80.7149C59.4024 81.5225 62.2713 81.6375 64.5754 81.0018C64.6904 80.9664 64.8092 81.0372 64.8408 81.1522C64.8724 81.2672 64.8054 81.386 64.6904 81.4176C64.5071 81.4682 64.3201 81.515 64.1305 81.5554H64.128Z" fill="#E06655"/>
<path d="M63.0715 81.7389C63.0083 81.7528 62.9388 81.7389 62.8845 81.6922C62.8655 81.6757 60.9369 80.0226 59.5365 79.1088C58.15 78.2039 54.9701 77.2535 54.9385 77.2446C54.8248 77.2105 54.7591 77.0904 54.7932 76.9767C54.8273 76.8629 54.9474 76.7985 55.0611 76.8313C55.1939 76.8705 58.3333 77.8096 59.7716 78.7486C61.196 79.6776 63.1461 81.3496 63.1651 81.3661C63.2548 81.4432 63.2662 81.5797 63.1878 81.6694C63.1562 81.7061 63.1145 81.7301 63.0703 81.7389H63.0715Z" fill="#E06655"/>
<path d="M84.7379 25C86.9889 40.0565 91.468 54.5833 98.1059 68.2849C90.1738 70.7255 82.2431 73.1673 74.311 75.6078C67.7035 61.891 63.2547 47.354 61.0366 32.2925C68.9371 29.8621 76.8375 27.4317 84.7379 25Z" fill="#FFE7D2"/>
<path d="M96.7787 65.5032C97.2097 66.436 97.6533 67.3636 98.1058 68.285C90.1738 70.7255 82.243 73.1673 74.311 75.6078C73.8598 74.6852 73.4187 73.7563 72.9902 72.8223C80.9197 70.3817 88.8492 67.9425 96.7787 65.502V65.5032Z" fill="#569E5A"/>
<path d="M61.3867 34.5447C61.4272 34.7937 61.4676 35.0427 61.5093 35.2904C61.5649 35.6215 61.6218 35.9527 61.6799 36.2825C61.7027 36.4127 61.7254 36.5442 61.7482 36.6743C63.0702 44.1274 64.9432 51.4439 67.3597 58.586C71.1198 59.2685 75.3322 58.4445 78.9203 57.6583C82.9571 56.7736 87.8635 54.366 91.1698 51.4313C88.2363 42.8534 86.0865 34.0215 84.7379 25C76.8375 27.4317 68.9371 29.8621 61.0366 32.2925C61.1112 32.8019 61.1895 33.3087 61.2692 33.8167C61.3071 34.0594 61.3475 34.3021 61.3867 34.5447Z" fill="#569E5A"/>
<path d="M86.0152 32.3078C85.7827 31.1463 85.564 29.9823 85.3593 28.8145C77.5145 31.2284 69.494 33.7031 61.6504 36.1171C61.6605 36.1727 61.6693 36.2283 61.6795 36.2826C61.7022 36.4128 61.725 36.5443 61.7477 36.6744C61.9234 37.6628 62.1092 38.6499 62.3038 39.6332C70.1587 37.2166 78.1603 34.7243 86.0165 32.3078H86.0152Z" fill="#296D58"/>
<path d="M75.1864 64.9998C75.8828 66.6946 76.6032 68.3781 77.3489 70.0515C76.2923 70.3763 75.2344 70.7024 74.1778 71.0272C73.4321 69.3526 72.713 67.6704 72.0166 65.9742C73.0732 65.6494 74.1298 65.3246 75.1864 64.9985V64.9998Z" fill="#46B2B7"/>
<path d="M91.2278 61.1329C91.5994 61.0684 92.1087 61.0507 92.3147 61.5386C92.5157 62.0138 92.1315 62.3588 91.0572 62.7531C90.8246 62.211 90.7109 61.9392 90.4846 61.3945C90.2698 61.4602 90.1624 61.4931 89.9475 61.5601C90.1763 62.1111 90.2925 62.3854 90.5276 62.9339C90.4417 62.9617 90.3545 62.9895 90.2635 63.0173C90.1902 63.04 90.1194 63.0615 90.0499 63.0818C89.8148 62.5332 89.6985 62.2577 89.4698 61.7067C89.2524 61.7737 89.1437 61.8065 88.9263 61.8735C89.1525 62.417 89.2663 62.6874 89.4976 63.2284C88.3601 63.4976 87.9152 63.3522 87.7345 62.9238C87.5234 62.422 87.943 62.1933 88.1958 62.1086C88.0504 61.7597 87.9784 61.5853 87.8356 61.2352C87.1973 61.4602 86.4365 62.0479 86.9243 63.1702C87.4299 64.3355 88.7847 64.3734 89.8894 64.1346C89.974 64.3279 90.0158 64.424 90.1004 64.6161C90.3178 64.5491 90.4265 64.5162 90.6439 64.4493C90.5643 64.2685 90.5238 64.1775 90.4455 63.9955C90.5226 63.974 90.5997 63.9513 90.6793 63.9273C90.7627 63.902 90.8449 63.8755 90.9245 63.8489C91.0041 64.0297 91.0433 64.1207 91.1229 64.3014C91.3378 64.2357 91.4452 64.2028 91.66 64.1358C91.5766 63.9462 91.5349 63.8515 91.4528 63.6619C92.4462 63.2953 93.6759 62.5598 93.1501 61.3275C92.6876 60.2431 91.6929 60.094 90.8727 60.2659C91.0142 60.6122 91.085 60.7853 91.2291 61.1303L91.2278 61.1329Z" fill="#569E5A"/>
<path d="M79.7481 45.6189C80.5254 45.4849 81.5706 45.4672 81.8853 46.5466C82.3327 48.0796 80.0274 48.795 79.0264 49.1994C78.7256 48.1972 78.4375 47.1899 78.1607 46.1813C77.7044 46.3216 77.4756 46.3924 77.0194 46.5327C77.305 47.5526 77.597 48.57 77.8965 49.5874C77.7145 49.6456 77.5287 49.705 77.3328 49.7656C77.1761 49.8137 77.0257 49.8579 76.8791 49.9021C76.5796 48.886 76.2876 47.8686 76.002 46.8474C75.5394 46.9889 75.3094 47.0609 74.8468 47.2025C75.1223 48.2098 75.4105 49.2133 75.71 50.213C74.7229 50.4886 72.5289 50.9183 72.151 49.4939C71.859 48.3931 72.7513 47.8837 73.291 47.7017C73.0774 46.9257 72.9738 46.5364 72.7703 45.7566C70.9326 46.3962 69.8482 48.0758 70.4283 50.0159C71.2119 52.6333 74.0582 52.6978 76.3255 52.2213C76.4595 52.6485 76.5277 52.8621 76.6655 53.2893C77.1281 53.1465 77.3594 53.0757 77.8219 52.9341C77.693 52.5335 77.6286 52.3325 77.5022 51.9294C77.6652 51.8839 77.8295 51.8358 77.9989 51.784C78.1771 51.7297 78.3502 51.6741 78.5209 51.6185C78.6473 52.0204 78.7117 52.2213 78.8406 52.622C79.2969 52.4817 79.5256 52.4109 79.9832 52.2706C79.8479 51.851 79.7809 51.6412 79.6482 51.2216C81.8701 50.3672 84.4042 48.8708 83.6496 46.1105C83.091 44.0668 81.1927 43.2744 79.235 43.6978C79.4359 44.4688 79.5383 44.8542 79.7506 45.6227L79.7481 45.6189Z" fill="#FFE7D2"/>
<path d="M100.551 28.343C96.8012 43.0987 95.3111 58.2272 96.1301 73.429C87.872 72.6113 79.6139 71.7935 71.3558 70.9758C70.5696 55.7715 72.0926 40.6455 75.8741 25.8975C84.0993 26.7127 92.3258 27.5279 100.551 28.343Z" fill="#FFE7D2"/>
<path d="M95.9835 70.3501C96.0202 71.3764 96.0695 72.4039 96.1314 73.4289C87.8733 72.6112 79.6152 71.7935 71.3571 70.9758C71.2977 69.9508 71.2509 68.9232 71.2168 67.897C79.4724 68.7147 87.7292 69.5324 95.9848 70.3514L95.9835 70.3501Z" fill="#569E5A"/>
<path d="M75.3266 28.1095C75.2672 28.3547 75.2091 28.5999 75.151 28.8451C75.0739 29.1724 74.998 29.4985 74.9235 29.8258C74.8944 29.9548 74.8641 30.0837 74.835 30.2139C73.1692 37.5986 72.0671 45.0694 71.5312 52.5894C74.7339 54.6735 78.9375 55.543 82.5509 56.2066C86.6155 56.9522 92.0716 56.6312 96.255 55.203C96.868 46.1588 98.3038 37.1828 100.55 28.3421C92.3244 27.5269 84.0979 26.7117 75.8726 25.8965C75.745 26.3944 75.6199 26.8937 75.4973 27.3916C75.4391 27.6305 75.3823 27.8694 75.3241 28.1083L75.3266 28.1095Z" fill="#569E5A"/>
<path d="M98.9031 35.5765C99.1382 34.4163 99.3871 33.2573 99.65 32.1009C91.4817 31.2907 83.1288 30.4705 74.9629 29.6616C74.9503 29.716 74.9376 29.7716 74.925 29.8259C74.8959 29.9548 74.8656 30.0838 74.8365 30.2139C74.6153 31.1934 74.4055 32.1742 74.2046 33.1575C82.3831 33.9676 90.7246 34.7664 98.9043 35.5765H98.9031Z" fill="#296D58"/>
<path d="M76.2686 61.5324C76.2547 63.365 76.2686 65.1951 76.3078 67.0277C75.2069 66.919 74.1061 66.8091 73.0053 66.7004C72.9661 64.8678 72.9535 63.0377 72.9674 61.2051C74.0669 61.3138 75.1678 61.4237 76.2673 61.5324H76.2686Z" fill="#46B2B7"/>
<path d="M92.5557 64.1728C92.9235 64.2562 93.4 64.4382 93.4013 64.9678C93.4013 65.4834 92.9147 65.6528 91.7721 65.601C91.7683 65.0108 91.7671 64.7163 91.7696 64.1273C91.5459 64.1046 91.4347 64.0945 91.211 64.0717C91.2084 64.6682 91.2097 64.9665 91.2135 65.5631C91.1238 65.5555 91.0328 65.5466 90.9367 65.5378C90.8596 65.5302 90.7863 65.5226 90.7143 65.5138C90.7105 64.9172 90.7092 64.619 90.7117 64.0224C90.4855 63.9997 90.3718 63.9883 90.1455 63.9668C90.143 64.5545 90.1443 64.849 90.1481 65.4367C88.9941 65.2446 88.6403 64.9387 88.6403 64.4736C88.6403 63.9289 89.1142 63.8809 89.3809 63.8998C89.3809 63.5219 89.3834 63.3336 89.3872 62.9557C88.711 62.9153 87.7834 63.163 87.7985 64.3877C87.8137 65.6579 89.0485 66.2177 90.1594 66.4238C90.162 66.6348 90.1645 66.7397 90.167 66.9495C90.3932 66.9723 90.507 66.9837 90.7332 67.0051C90.7294 66.8067 90.7282 66.7081 90.7256 66.5097C90.8053 66.5198 90.8849 66.5287 90.9683 66.5362C91.0555 66.5451 91.1402 66.5527 91.2249 66.559C91.2274 66.7562 91.2287 66.856 91.2325 67.0532C91.4562 67.0759 91.5674 67.086 91.7911 67.1088C91.7873 66.9015 91.786 66.7979 91.7835 66.5919C92.8414 66.6373 94.2594 66.4351 94.2518 65.0967C94.2442 63.9175 93.3861 63.3955 92.5633 63.2363C92.5595 63.6104 92.5582 63.7974 92.557 64.1715L92.5557 64.1728Z" fill="#569E5A"/>
<path d="M87.9732 45.4261C88.7416 45.603 89.7123 45.9923 89.5859 47.1083C89.4052 48.6957 87.0025 48.4631 85.9232 48.448C86.0344 47.4078 86.157 46.3676 86.2923 45.33C85.817 45.2832 85.5794 45.2592 85.1042 45.2125C84.9728 46.264 84.8477 47.3143 84.7314 48.3683C84.5405 48.3519 84.3472 48.3342 84.1437 48.314C83.9806 48.2976 83.8252 48.2811 83.6723 48.2634C83.7898 47.2106 83.9137 46.1591 84.0464 45.1076C83.5648 45.0595 83.3247 45.0355 82.8432 44.9888C82.7079 46.0239 82.5853 47.0615 82.4741 48.0991C81.458 47.9715 79.2677 47.519 79.4712 46.0593C79.6279 44.9306 80.6478 44.8068 81.2153 44.8485C81.3189 44.0497 81.3733 43.6516 81.4883 42.8541C79.547 42.7328 77.8964 43.8614 77.6815 45.876C77.3908 48.592 79.9919 49.7535 82.2656 50.1908C82.2239 50.637 82.2036 50.8607 82.1657 51.3068C82.6473 51.3549 82.8874 51.3789 83.3689 51.4256C83.4043 51.006 83.4233 50.795 83.4625 50.3754C83.6305 50.3956 83.8012 50.4158 83.9768 50.4335C84.1626 50.4525 84.3434 50.4676 84.5228 50.4828C84.4837 50.9024 84.466 51.1122 84.4293 51.5318C84.9045 51.5786 85.1434 51.6026 85.6186 51.6493C85.6565 51.2108 85.6755 50.9909 85.7159 50.5523C88.0958 50.6243 91.0115 50.225 91.3831 47.3876C91.6586 45.287 90.2153 43.8209 88.2462 43.4544C88.1324 44.2431 88.0794 44.6387 87.977 45.4286L87.9732 45.4261Z" fill="#FFE7D2"/>
<path d="M112.176 37.9661C103.257 50.304 96.3021 63.821 91.4653 78.2569C84.0881 74.4565 76.7109 70.6548 69.335 66.8543C74.2021 52.4285 81.1875 38.9254 90.1332 26.6064C97.4813 30.393 104.828 34.1795 112.176 37.9661Z" fill="#FFE7D2"/>
<path d="M92.4625 75.34C92.1187 76.3081 91.7863 77.2813 91.4653 78.257C84.0881 74.4566 76.7109 70.6549 69.335 66.8544C69.6572 65.8787 69.9922 64.9068 70.3372 63.9399C77.7119 67.7404 85.0865 71.5408 92.4612 75.34H92.4625Z" fill="#569E5A"/>
<path d="M88.8084 28.4621C88.6631 28.6681 88.5178 28.8741 88.3737 29.0814C88.1816 29.3569 87.9907 29.6337 87.8011 29.9105C87.7266 30.0192 87.6507 30.1291 87.5762 30.2378C83.3094 36.4902 79.5329 43.0307 76.2671 49.8252C78.4776 52.9419 82.0657 55.2991 85.1811 57.2454C88.6859 59.4357 93.8766 61.1444 98.2925 61.358C102.193 53.1745 106.831 45.3575 112.176 37.9651C104.828 34.1786 97.4811 30.392 90.133 26.6055C89.8309 27.0213 89.5314 27.4396 89.2331 27.858C89.0903 28.0577 88.95 28.2599 88.8084 28.4608V28.4621Z" fill="#569E5A"/>
<path d="M107.979 44.0846C108.625 43.0924 109.282 42.1066 109.952 41.1284C102.655 37.3684 95.191 33.53 87.8959 29.77C87.8644 29.8168 87.8315 29.8623 87.7999 29.909C87.7253 30.0177 87.6495 30.1277 87.5749 30.2364C87.0087 31.0655 86.4526 31.9009 85.9028 32.7401C93.208 36.5052 100.671 40.3183 107.976 44.0833L107.979 44.0846Z" fill="#296D58"/>
<path d="M77.3781 59.8829C76.6905 61.5816 76.0283 63.2878 75.3913 65.0067C74.408 64.4998 73.4247 63.993 72.4414 63.4862C73.0797 61.7686 73.7419 60.0624 74.4295 58.3638C75.4128 58.8706 76.3948 59.3761 77.3781 59.8829Z" fill="#46B2B7"/>
<path d="M91.5501 68.3343C91.861 68.5479 92.2377 68.8916 92.043 69.3845C91.8534 69.8648 91.339 69.8433 90.2951 69.3744C90.5087 68.8246 90.6161 68.5504 90.8348 68.0031C90.6351 67.9008 90.5352 67.8489 90.3355 67.7453C90.1144 68.2989 90.0044 68.5769 89.7895 69.133C89.7087 69.0926 89.6278 69.0521 89.5418 69.0079C89.4736 68.9725 89.4079 68.9384 89.3447 68.9043C89.5608 68.3482 89.6695 68.0701 89.8919 67.5165C89.6897 67.4129 89.5886 67.3598 89.3864 67.2562C89.1677 67.8022 89.0603 68.0764 88.848 68.6237C87.8457 68.0208 87.6296 67.6063 87.8002 67.1728C87.9999 66.666 88.46 66.7961 88.7001 66.9124C88.8404 66.5611 88.9112 66.3866 89.054 66.0366C88.4397 65.7509 87.4868 65.6397 87.0495 66.7822C86.5957 67.969 87.5386 68.9435 88.4941 69.5451C88.4195 69.7422 88.3816 69.8408 88.3083 70.0367C88.5105 70.1403 88.6116 70.1934 88.8138 70.2971C88.8833 70.1113 88.9187 70.019 88.9895 69.8345C89.059 69.8724 89.1311 69.9103 89.2044 69.9482C89.2827 69.9887 89.3586 70.0266 89.4344 70.0645C89.3636 70.249 89.3295 70.3413 89.26 70.5271C89.4597 70.6294 89.5595 70.6813 89.7592 70.7849C89.8325 70.5915 89.8692 70.4942 89.9425 70.3008C90.9093 70.7331 92.3021 71.0667 92.7874 69.8193C93.2146 68.7197 92.6092 67.9185 91.9027 67.4685C91.7612 67.8148 91.6917 67.988 91.5526 68.3355L91.5501 68.3343Z" fill="#569E5A"/>
<path d="M93.3824 51.3958L84.6807 43.3589L85.5363 42.4337L94.238 50.4707L93.3824 51.3958ZM92.6898 50.1395C92.2108 50.6577 91.6825 51.0912 91.1049 51.4375C90.5273 51.7851 89.9927 51.9999 89.5036 52.0846L88.8451 50.5326C89.2988 50.4378 89.7652 50.2583 90.2417 49.9955C90.7194 49.7326 91.1365 49.4065 91.4954 49.0185C91.7697 48.7227 91.9605 48.4561 92.0705 48.2197C92.1804 47.9834 92.2222 47.7736 92.1969 47.5903C92.1716 47.4071 92.092 47.2529 91.9555 47.1277C91.7823 46.9685 91.5826 46.9091 91.3551 46.9508C91.1277 46.9925 90.8799 47.0949 90.6095 47.2567C90.339 47.4184 90.0508 47.608 89.745 47.8216C89.4379 48.0365 89.1181 48.2374 88.7832 48.4257C88.4483 48.614 88.1108 48.7569 87.7696 48.8542C87.4283 48.9515 87.0833 48.9667 86.7319 48.8997C86.3818 48.8327 86.033 48.6406 85.688 48.3208C85.3176 47.9783 85.0725 47.5663 84.9524 47.0835C84.8323 46.6007 84.8677 46.0737 85.0586 45.5011C85.2494 44.9286 85.6273 44.3371 86.1922 43.7267C86.5689 43.3197 86.9872 42.962 87.4473 42.6562C87.9073 42.3503 88.3737 42.1329 88.8438 42.0078L89.5554 43.5219C89.1029 43.6647 88.696 43.8493 88.3332 44.0742C87.9705 44.2992 87.6558 44.557 87.3879 44.8477C87.1199 45.1384 86.9341 45.4064 86.8318 45.6541C86.7281 45.9018 86.694 46.1166 86.7281 46.2961C86.7623 46.4756 86.8495 46.6323 86.9923 46.7625C87.1591 46.9167 87.3563 46.9723 87.5825 46.9306C87.81 46.8889 88.0565 46.7852 88.3244 46.6197C88.5911 46.4541 88.8792 46.2658 89.1889 46.0547C89.4985 45.8436 89.817 45.6402 90.1456 45.4455C90.4742 45.2509 90.8092 45.1056 91.1491 45.0082C91.4904 44.9109 91.8354 44.8957 92.1868 44.9627C92.5381 45.0297 92.8819 45.2193 93.2219 45.5327C93.5859 45.8689 93.826 46.2784 93.9398 46.7612C94.0535 47.244 94.0168 47.7736 93.8285 48.3486C93.6402 48.9237 93.2611 49.5202 92.6911 50.137L92.6898 50.1395Z" fill="#FFE7D2"/>
<path d="M123.293 55.5164C110.555 63.8528 99.228 73.9916 89.5531 85.7468C84.0211 79.5602 78.4892 73.3748 72.9585 67.1882C82.6599 55.4532 94.0082 45.3384 106.766 37.0298C112.275 43.1924 117.785 49.3538 123.295 55.5164H123.293Z" fill="#FFE7D2"/>
<path d="M91.526 83.3783C90.8586 84.1593 90.2014 84.9493 89.5531 85.7468C84.0211 79.5601 78.4892 73.3748 72.9585 67.1881C73.6081 66.3932 74.2679 65.6045 74.9364 64.8247C80.4659 71.0088 85.9965 77.1942 91.526 83.3783Z" fill="#569E5A"/>
<path d="M104.866 38.2883C104.657 38.4286 104.447 38.5702 104.239 38.7117C103.961 38.9 103.684 39.0909 103.409 39.2804C103.3 39.355 103.19 39.4308 103.081 39.5067C96.8618 43.8215 90.9974 48.58 85.5186 53.7606C86.469 57.4612 88.979 60.9444 91.1921 63.8766C93.6819 67.174 97.9196 70.6256 101.968 72.4039C108.535 66.1541 115.661 60.5122 123.293 55.5173C117.784 49.3547 112.273 43.1934 106.764 37.0308C106.333 37.3113 105.905 37.5944 105.476 37.8788C105.272 38.0153 105.068 38.1531 104.865 38.2896L104.866 38.2883Z" fill="#569E5A"/>
<path d="M117.189 59.7315C118.147 59.0351 119.113 58.3501 120.088 57.6752C114.617 51.5555 109.017 45.3032 103.548 39.186C103.501 39.2176 103.456 39.2492 103.409 39.2808C103.3 39.3554 103.19 39.4312 103.082 39.5071C102.256 40.0796 101.439 40.6597 100.626 41.2487C106.104 47.3746 111.71 53.6042 117.189 59.7315Z" fill="#296D58"/>
<path d="M82.9619 63.551C81.7132 64.892 80.4848 66.2494 79.2752 67.6257C78.5384 66.8017 77.8003 65.9764 77.0635 65.1523C78.273 63.776 79.5015 62.4186 80.7514 61.0776C81.4883 61.9017 82.2251 62.7257 82.9619 63.5498V63.551Z" fill="#46B2B7"/>
<path d="M105.128 61.6229L96.4258 53.5859L97.2814 52.6608L105.983 60.6977L105.128 61.6229ZM104.436 60.3666C103.957 60.8848 103.429 61.3183 102.851 61.6646C102.274 62.0109 101.739 62.227 101.25 62.3117L100.591 60.7596C101.045 60.6649 101.512 60.4854 101.988 60.2225C102.465 59.9596 102.883 59.6335 103.242 59.2455C103.516 58.9498 103.707 58.6831 103.817 58.4468C103.927 58.2104 103.969 58.0006 103.943 57.8174C103.918 57.6341 103.838 57.4799 103.702 57.3548C103.529 57.1955 103.329 57.1361 103.102 57.1778C102.874 57.2196 102.626 57.3219 102.356 57.4837C102.085 57.6455 101.797 57.8338 101.491 58.0487C101.186 58.2635 100.864 58.4645 100.53 58.6528C100.196 58.8411 99.8572 58.9839 99.5172 59.0812C99.176 59.1786 98.8309 59.1925 98.4796 59.1267C98.1295 59.0597 97.7806 58.8676 97.4356 58.5479C97.0653 58.2054 96.8201 57.7934 96.7 57.3106C96.58 56.8278 96.6154 56.3007 96.8062 55.7282C96.997 55.1557 97.3749 54.5642 97.9399 53.9537C98.3165 53.5468 98.7349 53.1891 99.1949 52.8832C99.655 52.5761 100.121 52.36 100.591 52.2349L101.303 53.749C100.851 53.8918 100.444 54.0763 100.081 54.3013C99.7182 54.5263 99.4035 54.7841 99.1355 55.0748C98.8676 55.3642 98.6818 55.6334 98.5794 55.8811C98.477 56.1288 98.4416 56.3437 98.4758 56.5232C98.5099 56.7026 98.5971 56.8594 98.7399 56.9895C98.9068 57.1437 99.1039 57.1993 99.3301 57.1576C99.5576 57.1159 99.8041 57.0123 100.071 56.8467C100.337 56.6811 100.626 56.4928 100.935 56.2818C101.245 56.0707 101.563 55.8672 101.892 55.6726C102.221 55.4779 102.556 55.3326 102.896 55.2365C103.237 55.1392 103.582 55.1241 103.933 55.191C104.285 55.258 104.628 55.4476 104.968 55.7611C105.332 56.0972 105.571 56.5067 105.686 56.9895C105.801 57.4723 105.763 58.0019 105.575 58.577C105.387 59.152 105.007 59.7486 104.437 60.3653L104.436 60.3666Z" fill="#FFE7D2"/>
<path d="M94.347 77.9372L88.9756 72.9753L89.5039 72.404L94.8753 77.3659L94.347 77.9372ZM93.9198 77.1612C93.6241 77.481 93.298 77.7489 92.9416 77.9625C92.5852 78.1773 92.2553 78.3101 91.9533 78.3619L91.5463 77.4039C91.8269 77.3457 92.1138 77.2345 92.4083 77.0727C92.7027 76.911 92.9606 76.71 93.183 76.4699C93.3524 76.2866 93.4699 76.1223 93.5381 75.977C93.6051 75.8316 93.6317 75.7014 93.6165 75.5889C93.6013 75.4765 93.5521 75.3804 93.4674 75.3033C93.3612 75.2047 93.2373 75.1681 93.0971 75.1946C92.9568 75.2199 92.8038 75.2831 92.637 75.3829C92.4702 75.4828 92.292 75.5991 92.1037 75.7318C91.9141 75.8645 91.7169 75.9883 91.5096 76.1046C91.3036 76.2209 91.0951 76.3093 90.884 76.3688C90.6742 76.4282 90.4606 76.4383 90.2432 76.3966C90.0271 76.3561 89.8123 76.236 89.5987 76.0389C89.3699 75.8278 89.2182 75.5738 89.1449 75.2755C89.0704 74.9772 89.0931 74.6524 89.2107 74.2985C89.3282 73.9459 89.562 73.5794 89.9108 73.2028C90.1434 72.9513 90.4012 72.7313 90.6856 72.5418C90.97 72.3522 91.2569 72.2195 91.5476 72.1411L91.9861 73.0764C91.7068 73.1648 91.4553 73.2786 91.2316 73.4176C91.0079 73.5566 90.8133 73.7159 90.6477 73.8954C90.4821 74.0748 90.3684 74.2404 90.3039 74.3933C90.2407 74.5463 90.2192 74.679 90.2395 74.7889C90.2597 74.8989 90.314 74.9962 90.4025 75.0771C90.5049 75.1719 90.6275 75.2073 90.7677 75.1807C90.908 75.1542 91.061 75.091 91.2253 74.9886C91.3896 74.8862 91.5678 74.77 91.7586 74.6398C91.9495 74.5096 92.1466 74.3845 92.3488 74.2644C92.5511 74.1443 92.7583 74.0546 92.9681 73.9952C93.1792 73.9358 93.3915 73.9257 93.6089 73.9674C93.825 74.0078 94.0386 74.1254 94.2472 74.3188C94.4721 74.526 94.62 74.7788 94.6895 75.0771C94.7603 75.3754 94.7376 75.7014 94.6213 76.0566C94.505 76.4117 94.2712 76.7795 93.9186 77.1612H93.9198Z" fill="#569E5A"/>
<path d="M81.1989 30.5601C83.4498 45.6165 87.929 60.1434 94.5668 73.845C86.6348 76.2855 78.704 78.7273 70.772 81.1678C64.1645 67.4511 59.7156 52.9141 57.4976 37.8526C65.398 35.4222 73.2984 32.9905 81.1989 30.5601Z" fill="#FFE7D2"/>
<path d="M93.2397 71.0633C93.6707 71.996 94.1143 72.9237 94.5667 73.8451C86.6347 76.2856 78.7039 78.7274 70.7719 81.1679C70.3207 80.2453 69.8796 79.3163 69.4512 78.3823C77.3807 75.9418 85.3102 73.5025 93.2397 71.062V71.0633Z" fill="#569E5A"/>
<path d="M57.8477 40.1048C57.8881 40.3538 57.9285 40.6027 57.9702 40.8505C58.0259 41.1816 58.0827 41.5127 58.1409 41.8426C58.1636 41.9728 58.1864 42.1042 58.2091 42.2344C59.5311 49.6874 61.4042 57.004 63.8207 64.1461C67.5807 64.8286 71.7932 64.0045 75.3813 63.2184C79.4181 62.3337 84.3244 59.926 87.6307 56.9913C84.6973 48.4135 82.5474 39.5828 81.1989 30.5601C73.2984 32.9917 65.398 35.4222 57.4976 37.8526C57.5721 38.3619 57.6505 38.8687 57.7301 39.3768C57.768 39.6195 57.8085 39.8621 57.8477 40.1048Z" fill="#569E5A"/>
<path d="M82.4767 37.8678C82.2441 36.7063 82.0255 35.5423 81.8207 34.3745C73.9759 36.7885 65.9554 39.2632 58.1118 41.6771C58.1219 41.7327 58.1308 41.7884 58.1409 41.8427C58.1636 41.9729 58.1864 42.1043 58.2091 42.2345C58.3848 43.2228 58.5706 44.2099 58.7652 45.1932C66.6202 42.7767 74.6217 40.2844 82.4779 37.8678H82.4767Z" fill="#296D58"/>
<path d="M71.6478 70.5603C72.3442 72.2552 73.0646 73.9387 73.8103 75.612C72.7537 75.9368 71.6958 76.2629 70.6392 76.5877C69.8936 74.9131 69.1744 73.2309 68.478 71.5348C69.5346 71.21 70.5912 70.8852 71.6478 70.5591V70.5603Z" fill="#46B2B7"/>
<path d="M87.6887 66.6929C88.0603 66.6285 88.5697 66.6108 88.7757 67.0986C88.9766 67.5738 88.5924 67.9189 87.5181 68.3132C87.2856 67.771 87.1718 67.4993 86.9456 66.9546C86.7307 67.0203 86.6233 67.0531 86.4084 67.1201C86.6372 67.6712 86.7535 67.9454 86.9886 68.4939C86.9026 68.5217 86.8154 68.5496 86.7244 68.5774C86.6511 68.6001 86.5803 68.6216 86.5108 68.6418C86.2757 68.0933 86.1595 67.8178 85.9307 67.2667C85.7133 67.3337 85.6046 67.3666 85.3872 67.4336C85.6135 67.977 85.7272 68.2475 85.9585 68.7884C84.821 69.0576 84.3761 68.9123 84.1954 68.4838C83.9843 67.9821 84.4039 67.7533 84.6567 67.6686C84.5114 67.3198 84.4393 67.1454 84.2965 66.7953C83.6583 67.0203 82.8974 67.608 83.3853 68.7303C83.8908 69.8956 85.2457 69.9335 86.3503 69.6946C86.435 69.888 86.4767 69.984 86.5614 70.1762C86.7788 70.1092 86.8874 70.0763 87.1048 70.0093C87.0252 69.8286 86.9848 69.7376 86.9064 69.5556C86.9835 69.5341 87.0606 69.5114 87.1402 69.4873C87.2236 69.4621 87.3058 69.4355 87.3854 69.409C87.465 69.5897 87.5042 69.6807 87.5838 69.8614C87.7987 69.7957 87.9061 69.7629 88.121 69.6959C88.0376 69.5063 87.9959 69.4115 87.9137 69.2219C88.9071 68.8554 90.1368 68.1198 89.6111 66.8876C89.1485 65.8032 88.1538 65.654 87.3336 65.8259C87.4751 66.1722 87.5459 66.3454 87.69 66.6904L87.6887 66.6929Z" fill="#569E5A"/>
<path d="M76.209 51.1789C76.9863 51.045 78.0315 51.0273 78.3462 52.1066C78.7936 53.6397 76.4883 54.355 75.4874 54.7595C75.1866 53.7572 74.8984 52.7499 74.6216 51.7414C74.1653 51.8816 73.9366 51.9524 73.4803 52.0927C73.766 53.1126 74.0579 54.1301 74.3575 55.1475C74.1755 55.2056 73.9897 55.265 73.7938 55.3257C73.6371 55.3737 73.4867 55.4179 73.34 55.4622C73.0405 54.446 72.7486 53.4286 72.4629 52.4074C72.0003 52.549 71.7703 52.621 71.3077 52.7626C71.5833 53.7699 71.8714 54.7734 72.171 55.7731C71.1839 56.0486 68.9898 56.4783 68.6119 55.054C68.32 53.9531 69.2123 53.4438 69.7519 53.2618C69.5383 52.4858 69.4347 52.0965 69.2312 51.3167C67.3935 51.9562 66.3091 53.6359 66.8893 55.5759C67.6729 58.1934 70.5191 58.2579 72.7865 57.7814C72.9204 58.2086 72.9887 58.4222 73.1264 58.8493C73.589 58.7065 73.8203 58.6358 74.2829 58.4942C74.154 58.0936 74.0895 57.8926 73.9631 57.4894C74.1262 57.4439 74.2905 57.3959 74.4598 57.3441C74.638 57.2897 74.8112 57.2341 74.9818 57.1785C75.1082 57.5804 75.1726 57.7814 75.3016 58.182C75.7578 58.0417 75.9866 57.971 76.4441 57.8307C76.3089 57.4111 76.2419 57.2013 76.1092 56.7817C78.3311 55.9273 80.8651 54.4309 80.1106 51.6706C79.552 49.6269 77.6536 48.8345 75.6959 49.2579C75.8968 50.0288 75.9992 50.4143 76.2115 51.1827L76.209 51.1789Z" fill="#FFE7D2"/>
<path d="M97.012 33.9036C93.2621 48.6592 91.772 63.7877 92.591 78.9895C84.3329 78.1718 76.0748 77.3541 67.8167 76.5364C67.0306 61.332 68.5535 46.2061 72.335 31.458C80.5603 32.2732 88.7868 33.0884 97.012 33.9036Z" fill="#FFE7D2"/>
<path d="M92.4445 75.9112C92.4811 76.9374 92.5304 77.965 92.5924 78.99C84.3342 78.1722 76.0761 77.3545 67.818 76.5368C67.7586 75.5118 67.7119 74.4843 67.6777 73.458C75.9333 74.2757 84.1902 75.0934 92.4457 75.9124L92.4445 75.9112Z" fill="#569E5A"/>
<path d="M71.7876 33.6701C71.7282 33.9153 71.67 34.1604 71.6119 34.4056C71.5348 34.733 71.459 35.0591 71.3844 35.3864C71.3553 35.5153 71.325 35.6442 71.2959 35.7744C69.6302 43.1592 68.5281 50.6299 67.9922 58.1499C71.1948 60.234 75.3984 61.1036 79.0118 61.7671C83.0764 62.5128 88.5326 62.1918 92.716 60.7636C93.3289 51.7194 94.7647 42.7434 97.0106 33.9026C88.7853 33.0874 80.5588 32.2722 72.3336 31.457C72.2059 31.955 72.0808 32.4542 71.9582 32.9522C71.9001 33.1911 71.8432 33.4299 71.7851 33.6688L71.7876 33.6701Z" fill="#569E5A"/>
<path d="M95.364 41.1371C95.5991 39.9768 95.8481 38.8179 96.111 37.6614C87.9426 36.8513 79.5897 36.031 71.4238 35.2222C71.4112 35.2765 71.3986 35.3321 71.3859 35.3865C71.3569 35.5154 71.3265 35.6443 71.2975 35.7745C71.0763 36.754 70.8665 37.7347 70.6655 38.718C78.844 39.5282 87.1855 40.3269 95.3653 41.1371H95.364Z" fill="#296D58"/>
<path d="M72.7295 67.093C72.7156 68.9256 72.7295 70.7557 72.7687 72.5883C71.6679 72.4796 70.5671 72.3696 69.4662 72.2609C69.427 70.4283 69.4144 68.5982 69.4283 66.7656C70.5279 66.8743 71.6287 66.9843 72.7283 67.093H72.7295Z" fill="#46B2B7"/>
<path d="M89.0167 69.7334C89.3844 69.8168 89.8609 69.9988 89.8622 70.5283C89.8622 71.044 89.3756 71.2133 88.2331 71.1615C88.2293 70.5713 88.228 70.2768 88.2305 69.6879C88.0068 69.6651 87.8956 69.655 87.6719 69.6322C87.6694 70.2288 87.6706 70.5271 87.6744 71.1236C87.5847 71.116 87.4937 71.1072 87.3976 71.0983C87.3206 71.0907 87.2472 71.0832 87.1752 71.0743C87.1714 70.4778 87.1701 70.1795 87.1727 69.583C86.9464 69.5602 86.8327 69.5488 86.6065 69.5273C86.6039 70.115 86.6052 70.4095 86.609 70.9972C85.4551 70.8051 85.1012 70.4993 85.1012 70.0342C85.1012 69.4894 85.5751 69.4414 85.8418 69.4604C85.8418 69.0825 85.8444 68.8941 85.8481 68.5163C85.172 68.4758 84.2443 68.7235 84.2595 69.9482C84.2746 71.2184 85.5094 71.7783 86.6204 71.9843C86.6229 72.1954 86.6254 72.3003 86.6279 72.5101C86.8542 72.5328 86.9679 72.5442 87.1942 72.5657C87.1904 72.3673 87.1891 72.2687 87.1866 72.0702C87.2662 72.0804 87.3458 72.0892 87.4292 72.0968C87.5164 72.1056 87.6011 72.1132 87.6858 72.1195C87.6883 72.3167 87.6896 72.4165 87.6934 72.6137C87.9171 72.6365 88.0283 72.6466 88.252 72.6693C88.2482 72.462 88.247 72.3584 88.2444 72.1524C89.3023 72.1979 90.7204 71.9957 90.7128 70.6572C90.7052 69.4781 89.847 68.9561 89.0242 68.7968C89.0205 69.1709 89.0192 69.358 89.0179 69.7321L89.0167 69.7334Z" fill="#569E5A"/>
<path d="M84.4341 50.9866C85.2026 51.1635 86.1732 51.5528 86.0468 52.6688C85.8661 54.2562 83.4635 54.0237 82.3841 54.0085C82.4954 52.9684 82.618 51.9282 82.7532 50.8906C82.278 50.8438 82.0404 50.8198 81.5652 50.773C81.4337 51.8246 81.3086 52.8748 81.1923 53.9289C81.0015 53.9125 80.8081 53.8948 80.6046 53.8745C80.4416 53.8581 80.2861 53.8417 80.1332 53.824C80.2507 52.7712 80.3746 51.7197 80.5073 50.6681C80.0258 50.6201 79.7856 50.5961 79.3041 50.5493C79.1689 51.5844 79.0463 52.6221 78.935 53.6597C77.9189 53.532 75.7286 53.0796 75.9321 51.6198C76.0888 50.4912 77.1088 50.3673 77.6762 50.409C77.7799 49.6103 77.8342 49.2121 77.9492 48.4146C76.0079 48.2933 74.3573 49.4219 74.1425 51.4365C73.8518 54.1526 76.4528 55.3141 78.7265 55.7514C78.6848 56.1975 78.6646 56.4212 78.6267 56.8674C79.1082 56.9154 79.3483 56.9394 79.8299 56.9862C79.8653 56.5666 79.8842 56.3555 79.9234 55.9359C80.0915 55.9561 80.2621 55.9764 80.4378 55.994C80.6236 56.013 80.8043 56.0282 80.9838 56.0433C80.9446 56.4629 80.9269 56.6727 80.8902 57.0924C81.3655 57.1391 81.6043 57.1631 82.0795 57.2099C82.1175 56.7713 82.1364 56.5514 82.1769 56.1129C84.5567 56.1849 87.4725 55.7855 87.844 52.9481C88.1196 50.8476 86.6762 49.3815 84.7071 49.015C84.5934 49.8036 84.5403 50.1992 84.4379 50.9891L84.4341 50.9866Z" fill="#FFE7D2"/>
<path d="M108.637 43.5266C99.7181 55.8645 92.763 69.3816 87.9262 83.8175C80.549 80.017 73.1718 76.2153 65.7959 72.4149C70.6631 57.9891 77.6484 44.4859 86.5941 32.167C93.9422 35.9535 101.289 39.7401 108.637 43.5266Z" fill="#FFE7D2"/>
<path d="M88.9234 80.9006C88.5796 81.8687 88.2472 82.8419 87.9262 83.8176C80.549 80.0171 73.1718 76.2154 65.7959 72.415C66.1182 71.4393 66.4531 70.4673 66.7981 69.5005C74.1728 73.3009 81.5475 77.1014 88.9221 80.9006H88.9234Z" fill="#569E5A"/>
<path d="M85.2694 34.0226C85.124 34.2286 84.9787 34.4347 84.8346 34.6419C84.6425 34.9175 84.4517 35.1942 84.2621 35.471C84.1875 35.5797 84.1117 35.6897 84.0371 35.7984C79.7703 42.0507 75.9939 48.5912 72.728 55.3858C74.9385 58.5025 78.5267 60.8596 81.6421 62.806C85.1468 64.9962 90.3375 66.705 94.7534 66.9186C98.6537 58.735 103.292 50.918 108.637 43.5257C101.289 39.7391 93.942 35.9526 86.5939 32.166C86.2919 32.5818 85.9923 33.0002 85.694 33.4185C85.5512 33.6182 85.4109 33.8204 85.2694 34.0214V34.0226Z" fill="#569E5A"/>
<path d="M104.44 49.6456C105.086 48.6535 105.743 47.6677 106.413 46.6894C99.1163 42.9294 91.6519 39.0911 84.3569 35.3311C84.3253 35.3778 84.2924 35.4233 84.2608 35.4701C84.1863 35.5788 84.1104 35.6887 84.0359 35.7974C83.4697 36.6265 82.9136 37.4619 82.3638 38.3011C89.6689 42.0662 97.1321 45.8793 104.437 49.6444L104.44 49.6456Z" fill="#296D58"/>
<path d="M73.839 65.4435C73.1515 67.1421 72.4892 68.8483 71.8522 70.5672C70.8689 70.0604 69.8856 69.5536 68.9023 69.0468C69.5406 67.3292 70.2029 65.623 70.8904 63.9243C71.8737 64.4311 72.8557 64.9367 73.839 65.4435Z" fill="#46B2B7"/>
<path d="M88.011 73.8953C88.322 74.1089 88.6986 74.4527 88.504 74.9456C88.3144 75.4258 87.8 75.4044 86.756 74.9355C86.9696 74.3857 87.077 74.1114 87.2957 73.5642C87.096 73.4618 86.9962 73.41 86.7965 73.3063C86.5753 73.8599 86.4653 74.138 86.2505 74.6941C86.1696 74.6536 86.0887 74.6132 86.0028 74.5689C85.9345 74.5336 85.8688 74.4994 85.8056 74.4653C86.0217 73.9092 86.1304 73.6312 86.3529 73.0776C86.1506 72.9739 86.0495 72.9209 85.8473 72.8172C85.6287 73.3632 85.5212 73.6375 85.3089 74.1847C84.3066 73.5819 84.0905 73.1673 84.2612 72.7338C84.4608 72.227 84.9209 72.3572 85.161 72.4734C85.3013 72.1221 85.3721 71.9477 85.5149 71.5976C84.9007 71.312 83.9477 71.2007 83.5104 72.3433C83.0567 73.53 83.9995 74.5045 84.955 75.1061C84.8804 75.3033 84.8425 75.4018 84.7692 75.5977C84.9714 75.7014 85.0726 75.7544 85.2748 75.8581C85.3443 75.6723 85.3797 75.58 85.4505 75.3955C85.52 75.4334 85.592 75.4713 85.6653 75.5093C85.7437 75.5497 85.8195 75.5876 85.8953 75.6255C85.8246 75.8101 85.7904 75.9023 85.7209 76.0881C85.9206 76.1905 86.0205 76.2423 86.2201 76.3459C86.2935 76.1526 86.3301 76.0552 86.4034 75.8619C87.3703 76.2941 88.763 76.6278 89.2484 75.3803C89.6756 74.2808 89.0702 73.4795 88.3637 73.0295C88.2221 73.3758 88.1526 73.549 88.0136 73.8966L88.011 73.8953Z" fill="#569E5A"/>
<path d="M89.8438 56.9564L81.1421 48.9194L81.9977 47.9943L90.6995 56.0312L89.8438 56.9564ZM89.1512 55.7001C88.6722 56.2183 88.1439 56.6518 87.5663 56.9981C86.9887 57.3456 86.4541 57.5605 85.965 57.6452L85.3065 56.0931C85.7603 55.9984 86.2266 55.8189 86.7031 55.556C87.1808 55.2931 87.5979 54.967 87.9569 54.579C88.2311 54.2833 88.422 54.0166 88.5319 53.7803C88.6419 53.5439 88.6836 53.3341 88.6583 53.1509C88.633 52.9676 88.5534 52.8134 88.4169 52.6883C88.2438 52.529 88.0441 52.4696 87.8166 52.5113C87.5891 52.5531 87.3414 52.6554 87.0709 52.8172C86.8004 52.979 86.5123 53.1686 86.2064 53.3821C85.8993 53.597 85.5795 53.798 85.2446 53.9863C84.9097 54.1746 84.5722 54.3174 84.231 54.4147C83.8897 54.512 83.5447 54.5272 83.1933 54.4602C82.8433 54.3932 82.4944 54.2011 82.1494 53.8814C81.7791 53.5389 81.5339 53.1268 81.4138 52.644C81.2938 52.1613 81.3291 51.6342 81.52 51.0617C81.7108 50.4892 82.0887 49.8977 82.6537 49.2872C83.0303 48.8803 83.4486 48.5226 83.9087 48.2167C84.3687 47.9109 84.8351 47.6935 85.3053 47.5684L86.0168 49.0825C85.5644 49.2253 85.1574 49.4098 84.7947 49.6348C84.4319 49.8597 84.1172 50.1176 83.8493 50.4083C83.5814 50.699 83.3956 50.9669 83.2932 51.2146C83.1896 51.4623 83.1554 51.6772 83.1896 51.8567C83.2237 52.0361 83.3109 52.1928 83.4537 52.323C83.6205 52.4772 83.8177 52.5328 84.0439 52.4911C84.2714 52.4494 84.5179 52.3458 84.7858 52.1802C85.0525 52.0146 85.3407 51.8263 85.6503 51.6153C85.9599 51.4042 86.2784 51.2007 86.6071 51.0061C86.9357 50.8114 87.2706 50.6661 87.6106 50.5688C87.9518 50.4715 88.2968 50.4563 88.6482 50.5233C88.9996 50.5903 89.3433 50.7798 89.6833 51.0933C90.0473 51.4295 90.2874 51.839 90.4012 52.3218C90.5149 52.8046 90.4783 53.3341 90.29 53.9092C90.1016 54.4842 89.7225 55.0808 89.1525 55.6976L89.1512 55.7001Z" fill="#FFE7D2"/>
<path d="M119.755 61.0764C107.016 69.4129 95.6894 79.5517 86.0145 91.3069C80.4826 85.1203 74.9506 78.9349 69.4199 72.7482C79.1214 61.0132 90.4696 50.8985 103.227 42.5898C108.736 48.7525 114.247 54.9138 119.756 61.0764H119.755Z" fill="#FFE7D2"/>
<path d="M87.9874 88.9383C87.3201 89.7194 86.6629 90.5093 86.0145 91.3068C80.4826 85.1202 74.9506 78.9348 69.4199 72.7482C70.0695 71.9532 70.7293 71.1646 71.3979 70.3848C76.9273 76.5689 82.458 82.7542 87.9874 88.9383Z" fill="#569E5A"/>
<path d="M101.328 43.8489C101.119 43.9891 100.909 44.1307 100.701 44.2723C100.423 44.4606 100.146 44.6514 99.8705 44.841C99.7618 44.9156 99.6519 44.9914 99.5432 45.0672C93.3237 49.3821 87.4593 54.1405 81.9805 59.3211C82.9309 63.0217 85.4409 66.5049 87.654 69.4371C90.1438 72.7345 94.3815 76.1862 98.4297 77.9644C104.997 71.7146 112.122 66.0727 119.755 61.0779C114.246 54.9153 108.735 48.7539 103.226 42.5913C102.795 42.8719 102.367 43.155 101.938 43.4394C101.733 43.5759 101.53 43.7136 101.326 43.8501L101.328 43.8489Z" fill="#569E5A"/>
<path d="M113.65 65.2915C114.608 64.5951 115.574 63.9101 116.55 63.2352C111.078 57.1156 105.478 50.8632 100.009 44.7461C99.9627 44.7777 99.9172 44.8093 99.8704 44.8409C99.7617 44.9155 99.6518 44.9913 99.5431 45.0671C98.7178 45.6396 97.9001 46.2198 97.0874 46.8087C102.565 52.9347 108.172 59.1643 113.65 65.2915Z" fill="#296D58"/>
<path d="M79.4234 69.1106C78.1747 70.4516 76.9462 71.809 75.7367 73.1853C74.9998 72.3613 74.2617 71.536 73.5249 70.7119C74.7344 69.3356 75.9629 67.9782 77.2129 66.6372C77.9497 67.4612 78.6865 68.2853 79.4234 69.1093V69.1106Z" fill="#46B2B7"/>
<path d="M101.589 67.1834L92.8872 59.1465L93.7428 58.2213L102.445 66.2583L101.589 67.1834ZM100.898 65.9271C100.419 66.4453 99.8903 66.8788 99.3127 67.2251C98.7351 67.5714 98.2005 67.7875 97.7114 67.8722L97.0529 66.3202C97.5066 66.2254 97.973 66.0459 98.4495 65.7831C98.926 65.5202 99.3443 65.1941 99.7032 64.8061C99.9775 64.5103 100.168 64.2437 100.278 64.0073C100.388 63.771 100.43 63.5612 100.405 63.3779C100.379 63.1947 100.3 63.0405 100.163 62.9153C99.9901 62.7561 99.7905 62.6967 99.563 62.7384C99.3355 62.7801 99.0877 62.8825 98.8173 63.0443C98.5468 63.206 98.2586 63.3943 97.9528 63.6092C97.6469 63.8241 97.3259 64.025 96.991 64.2133C96.6573 64.4016 96.3186 64.5445 95.9786 64.6418C95.6374 64.7391 95.2923 64.753 94.941 64.6873C94.5909 64.6203 94.2421 64.4282 93.897 64.1084C93.5267 63.7659 93.2815 63.3539 93.1615 62.8711C93.0414 62.3883 93.0768 61.8613 93.2676 61.2887C93.4585 60.7162 93.8364 60.1247 94.4013 59.5143C94.778 59.1073 95.1963 58.7496 95.6563 58.4438C96.1164 58.1367 96.5828 57.9205 97.0529 57.7954L97.7645 59.3095C97.312 59.4523 96.905 59.6369 96.5423 59.8618C96.1796 60.0868 95.8649 60.3446 95.5969 60.6353C95.329 60.9247 95.1432 61.194 95.0408 61.4417C94.9385 61.6894 94.9031 61.9042 94.9372 62.0837C94.9713 62.2632 95.0585 62.4199 95.2013 62.5501C95.3682 62.7043 95.5653 62.7599 95.7916 62.7182C96.0191 62.6765 96.2655 62.5728 96.5322 62.4073C96.7989 62.2417 97.087 62.0534 97.3967 61.8423C97.7063 61.6313 98.0248 61.4278 98.3534 61.2331C98.682 61.0385 99.017 60.8931 99.3569 60.7971C99.6982 60.6998 100.043 60.6846 100.395 60.7516C100.746 60.8186 101.09 61.0082 101.43 61.3216C101.794 61.6578 102.033 62.0673 102.148 62.5501C102.263 63.0329 102.225 63.5624 102.036 64.1375C101.848 64.7126 101.469 65.3091 100.899 65.9259L100.898 65.9271Z" fill="#FFE7D2"/>
<path d="M90.808 83.4978L85.4365 78.5358L85.9648 77.9645L91.3363 82.9265L90.808 83.4978ZM90.3808 82.7217C90.085 83.0415 89.759 83.3094 89.4025 83.523C89.0461 83.7379 88.7163 83.8706 88.4142 83.9224L88.0072 82.9644C88.2878 82.9063 88.5747 82.795 88.8692 82.6333C89.1637 82.4715 89.4215 82.2705 89.6439 82.0304C89.8133 81.8471 89.9308 81.6828 89.9991 81.5375C90.0661 81.3922 90.0926 81.262 90.0774 81.1495C90.0623 81.037 90.013 80.941 89.9283 80.8639C89.8221 80.7653 89.6983 80.7286 89.558 80.7552C89.4177 80.7804 89.2648 80.8436 89.0979 80.9435C88.9311 81.0433 88.7529 81.1596 88.5646 81.2923C88.375 81.425 88.1779 81.5489 87.9706 81.6652C87.7646 81.7814 87.556 81.8699 87.345 81.9293C87.1352 81.9887 86.9216 81.9988 86.7042 81.9571C86.4881 81.9167 86.2732 81.7966 86.0596 81.5994C85.8308 81.3884 85.6792 81.1343 85.6059 80.8361C85.5313 80.5378 85.5541 80.213 85.6716 79.8591C85.7891 79.5065 86.023 79.1399 86.3718 78.7633C86.6043 78.5118 86.8622 78.2919 87.1465 78.1023C87.4309 77.9127 87.7178 77.78 88.0085 77.7017L88.4471 78.6369C88.1677 78.7254 87.9162 78.8391 87.6925 78.9782C87.4688 79.1172 87.2742 79.2764 87.1086 79.4559C86.9431 79.6354 86.8293 79.8009 86.7648 79.9539C86.7017 80.1068 86.6802 80.2395 86.7004 80.3495C86.7206 80.4594 86.775 80.5567 86.8634 80.6376C86.9658 80.7324 87.0884 80.7678 87.2287 80.7413C87.369 80.7147 87.5219 80.6515 87.6862 80.5492C87.8505 80.4468 88.0287 80.3305 88.2196 80.2003C88.4104 80.0702 88.6076 79.945 88.8098 79.825C89.012 79.7049 89.2193 79.6152 89.4291 79.5558C89.6401 79.4964 89.8525 79.4862 90.0699 79.528C90.286 79.5684 90.4996 79.6859 90.7081 79.8793C90.9331 80.0866 91.081 80.3394 91.1505 80.6376C91.2212 80.9359 91.1985 81.262 91.0822 81.6171C90.9659 81.9723 90.7321 82.3401 90.3795 82.7217H90.3808Z" fill="#569E5A"/>
<path d="M77.2809 37.375C79.5318 52.4315 84.011 66.9583 90.6488 80.6599C82.7168 83.1005 74.786 85.5423 66.854 87.9828C60.2465 74.266 55.7977 59.729 53.5796 44.6675C61.48 42.2371 69.3805 39.8054 77.2809 37.375Z" fill="#FFE7D2"/>
<path d="M89.3217 77.8777C89.7527 78.8105 90.1963 79.7381 90.6488 80.6595C82.7167 83.1 74.786 85.5418 66.8539 87.9824C66.4027 87.0597 65.9617 86.1308 65.5332 85.1968C73.4627 82.7563 81.3922 80.317 89.3217 77.8765V77.8777Z" fill="#569E5A"/>
<path d="M53.9297 46.9197C53.9701 47.1687 54.0106 47.4177 54.0523 47.6654C54.1079 47.9965 54.1648 48.3277 54.2229 48.6575C54.2456 48.7877 54.2684 48.9192 54.2911 49.0493C55.6132 56.5024 57.4862 63.8189 59.9027 70.961C63.6627 71.6435 67.8752 70.8195 71.4633 70.0333C75.5001 69.1486 80.4064 66.741 83.7127 63.8063C80.7793 55.2284 78.6294 46.3977 77.2809 37.375C69.3805 39.8067 61.48 42.2371 53.5796 44.6675C53.6542 45.1769 53.7325 45.6837 53.8121 46.1917C53.8501 46.4344 53.8905 46.6771 53.9297 46.9197Z" fill="#569E5A"/>
<path d="M78.5587 44.6823C78.3261 43.5208 78.1075 42.3568 77.9027 41.189C70.0579 43.603 62.0374 46.0776 54.1938 48.4916C54.204 48.5472 54.2128 48.6028 54.2229 48.6572C54.2457 48.7873 54.2684 48.9188 54.2912 49.049C54.4668 50.0373 54.6526 51.0244 54.8473 52.0077C62.7022 49.5912 70.7037 47.0988 78.5599 44.6823H78.5587Z" fill="#296D58"/>
<path d="M67.7298 77.3748C68.4262 79.0696 69.1466 80.7531 69.8923 82.4265C68.8357 82.7513 67.7779 83.0774 66.7213 83.4022C65.9756 81.7276 65.2564 80.0454 64.5601 78.3492C65.6167 78.0244 66.6732 77.6996 67.7298 77.3735V77.3748Z" fill="#46B2B7"/>
<path d="M83.7708 73.5074C84.1423 73.4429 84.6517 73.4252 84.8577 73.9131C85.0587 74.3883 84.6744 74.7333 83.6001 75.1277C83.3676 74.5855 83.2538 74.3137 83.0276 73.769C82.8128 73.8347 82.7053 73.8676 82.4905 73.9346C82.7192 74.4856 82.8355 74.7599 83.0706 75.3084C82.9846 75.3362 82.8974 75.364 82.8064 75.3918C82.7331 75.4146 82.6624 75.436 82.5928 75.4563C82.3578 74.9077 82.2415 74.6322 82.0127 74.0812C81.7953 74.1482 81.6867 74.181 81.4693 74.248C81.6955 74.7915 81.8092 75.0619 82.0405 75.6029C80.9031 75.8721 80.4582 75.7267 80.2774 75.2983C80.0664 74.7965 80.486 74.5678 80.7388 74.4831C80.5934 74.1343 80.5214 73.9599 80.3786 73.6098C79.7403 73.8347 78.9795 74.4224 79.4673 75.5447C79.9729 76.71 81.3277 76.7479 82.4323 76.5091C82.517 76.7024 82.5587 76.7985 82.6434 76.9906C82.8608 76.9236 82.9695 76.8908 83.1869 76.8238C83.1072 76.643 83.0668 76.552 82.9884 76.37C83.0655 76.3486 83.1426 76.3258 83.2223 76.3018C83.3057 76.2765 83.3878 76.25 83.4674 76.2234C83.5471 76.4042 83.5862 76.4952 83.6659 76.6759C83.8807 76.6102 83.9882 76.5773 84.203 76.5103C84.1196 76.3208 84.0779 76.226 83.9957 76.0364C84.9891 75.6699 86.2189 74.9343 85.6931 73.702C85.2305 72.6176 84.2359 72.4685 83.4156 72.6404C83.5572 72.9867 83.628 73.1598 83.772 73.5049L83.7708 73.5074Z" fill="#569E5A"/>
<path d="M72.291 57.9939C73.0683 57.8599 74.1135 57.8422 74.4283 58.9216C74.8757 60.4546 72.5704 61.17 71.5694 61.5744C71.2686 60.5722 70.9804 59.5649 70.7036 58.5563C70.2474 58.6966 70.0186 58.7674 69.5624 58.9077C69.848 59.9276 70.1399 60.945 70.4395 61.9624C70.2575 62.0206 70.0717 62.08 69.8758 62.1406C69.7191 62.1887 69.5687 62.2329 69.4221 62.2771C69.1225 61.261 68.8306 60.2436 68.5449 59.2224C68.0824 59.3639 67.8523 59.4359 67.3898 59.5775C67.6653 60.5848 67.9535 61.5883 68.253 62.588C67.2659 62.8636 65.0718 63.2933 64.6939 61.8689C64.402 60.7681 65.2943 60.2587 65.834 60.0767C65.6204 59.3007 65.5167 58.9114 65.3132 58.1316C63.4756 58.7712 62.3912 60.4508 62.9713 62.3909C63.7549 65.0083 66.6011 65.0728 68.8685 64.5963C69.0025 65.0235 69.0707 65.2371 69.2085 65.6643C69.6711 65.5215 69.9023 65.4507 70.3649 65.3091C70.236 64.9085 70.1715 64.7075 70.0452 64.3044C70.2082 64.2589 70.3725 64.2108 70.5419 64.159C70.7201 64.1047 70.8932 64.0491 71.0638 63.9935C71.1902 64.3954 71.2547 64.5963 71.3836 64.997C71.8398 64.8567 72.0686 64.7859 72.5261 64.6456C72.3909 64.226 72.3239 64.0162 72.1912 63.5966C74.4131 62.7422 76.9471 61.2458 76.1926 58.4855C75.634 56.4418 73.7357 55.6494 71.7779 56.0728C71.9789 56.8438 72.0812 57.2292 72.2936 57.9977L72.291 57.9939Z" fill="#FFE7D2"/>
<path d="M93.0946 40.7176C89.3447 55.4732 87.8546 70.6017 88.6735 85.8035C80.4154 84.9858 72.1573 84.1681 63.8992 83.3503C63.1131 68.146 64.6361 53.02 68.4175 38.272C76.6428 39.0872 84.8693 39.9024 93.0946 40.7176Z" fill="#FFE7D2"/>
<path d="M88.527 82.7247C88.5637 83.7509 88.6129 84.7784 88.6749 85.8034C80.4168 84.9857 72.1587 84.168 63.9005 83.3503C63.8411 82.3253 63.7944 81.2977 63.7603 80.2715C72.0158 81.0892 80.2727 81.9069 88.5283 82.7259L88.527 82.7247Z" fill="#569E5A"/>
<path d="M67.8701 40.4835C67.8107 40.7287 67.7526 40.9739 67.6944 41.2191C67.6173 41.5465 67.5415 41.8725 67.4669 42.1999C67.4379 42.3288 67.4075 42.4577 67.3785 42.5879C65.7127 49.9727 64.6106 57.4434 64.0747 64.9634C67.2773 67.0475 71.481 67.917 75.0944 68.5806C79.159 69.3263 84.6151 69.0052 88.7985 67.5771C89.4115 58.5328 90.8472 49.5568 93.0931 40.7161C84.8679 39.9009 76.6413 39.0857 68.4161 38.2705C68.2884 38.7685 68.1633 39.2677 68.0407 39.7657C67.9826 40.0045 67.9257 40.2434 67.8676 40.4823L67.8701 40.4835Z" fill="#569E5A"/>
<path d="M91.4465 47.9505C91.6816 46.7903 91.9306 45.6313 92.1935 44.4749C84.0251 43.6648 75.6722 42.8445 67.5064 42.0356C67.4937 42.09 67.4811 42.1456 67.4685 42.1999C67.4394 42.3289 67.409 42.4578 67.38 42.588C67.1588 43.5675 66.949 44.5482 66.748 45.5315C74.9265 46.3416 83.2681 47.1404 91.4478 47.9505H91.4465Z" fill="#296D58"/>
<path d="M68.8116 73.9069C68.7977 75.7395 68.8116 77.5696 68.8507 79.4022C67.7499 79.2935 66.6491 79.1836 65.5483 79.0749C65.5091 77.2423 65.4964 75.4122 65.5103 73.5796C66.6099 73.6883 67.7107 73.7982 68.8103 73.9069H68.8116Z" fill="#46B2B7"/>
<path d="M85.0992 76.5468C85.467 76.6302 85.9434 76.8122 85.9447 77.3418C85.9447 77.8575 85.4581 78.0268 84.3156 77.975C84.3118 77.3848 84.3105 77.0903 84.3131 76.5013C84.0893 76.4786 83.9781 76.4685 83.7544 76.4457C83.7519 77.0423 83.7532 77.3405 83.7569 77.9371C83.6672 77.9295 83.5762 77.9207 83.4802 77.9118C83.4031 77.9042 83.3298 77.8966 83.2577 77.8878C83.2539 77.2912 83.2527 76.993 83.2552 76.3964C83.029 76.3737 82.9152 76.3623 82.689 76.3408C82.6865 76.9285 82.6877 77.223 82.6915 77.8107C81.5376 77.6186 81.1837 77.3127 81.1837 76.8476C81.1837 76.3029 81.6577 76.2549 81.9243 76.2738C81.9243 75.8959 81.9269 75.7076 81.9307 75.3297C81.2545 75.2893 80.3268 75.537 80.342 76.7617C80.3571 78.0319 81.5919 78.5918 82.7029 78.7978C82.7054 79.0088 82.7079 79.1137 82.7105 79.3236C82.9367 79.3463 83.0504 79.3577 83.2767 79.3792C83.2729 79.1807 83.2716 79.0822 83.2691 78.8837C83.3487 78.8938 83.4283 78.9027 83.5118 78.9103C83.599 78.9191 83.6836 78.9267 83.7683 78.933C83.7709 79.1302 83.7721 79.23 83.7759 79.4272C83.9996 79.4499 84.1108 79.46 84.3345 79.4828C84.3307 79.2755 84.3295 79.1719 84.327 78.9659C85.3848 79.0114 86.8029 78.8092 86.7953 77.4707C86.7877 76.2915 85.9295 75.7696 85.1068 75.6103C85.103 75.9844 85.1017 76.1715 85.1004 76.5456L85.0992 76.5468Z" fill="#569E5A"/>
<path d="M80.5162 57.8001C81.2846 57.977 82.2552 58.3663 82.1289 59.4823C81.9481 61.0697 79.5455 60.8372 78.4662 60.822C78.5774 59.7818 78.7 58.7417 78.8352 57.704C78.36 57.6573 78.1224 57.6333 77.6472 57.5865C77.5157 58.638 77.3906 59.6883 77.2743 60.7424C77.0835 60.7259 76.8901 60.7082 76.6866 60.688C76.5236 60.6716 76.3682 60.6552 76.2152 60.6375C76.3328 59.5847 76.4566 58.5331 76.5893 57.4816C76.1078 57.4336 75.8677 57.4095 75.3861 57.3628C75.2509 58.3979 75.1283 59.4355 75.0171 60.4732C74.0009 60.3455 71.8106 59.893 72.0141 58.4333C72.1708 57.3046 73.1908 57.1808 73.7583 57.2225C73.8619 56.4237 73.9162 56.0256 74.0313 55.2281C72.09 55.1068 70.4393 56.2354 70.2245 58.25C69.9338 60.9661 72.5348 62.1276 74.8085 62.5649C74.7668 63.011 74.7466 63.2347 74.7087 63.6809C75.1902 63.7289 75.4304 63.7529 75.9119 63.7997C75.9473 63.3801 75.9662 63.169 76.0054 62.7494C76.1735 62.7696 76.3441 62.7898 76.5198 62.8075C76.7056 62.8265 76.8863 62.8417 77.0658 62.8568C77.0266 63.2764 77.0089 63.4862 76.9723 63.9058C77.4475 63.9526 77.6864 63.9766 78.1616 64.0234C78.1995 63.5848 78.2185 63.3649 78.2589 62.9263C80.6388 62.9984 83.5545 62.599 83.9261 59.7616C84.2016 57.6611 82.7583 56.195 80.7892 55.8285C80.6754 56.6171 80.6223 57.0127 80.52 57.8026L80.5162 57.8001Z" fill="#FFE7D2"/>
<path d="M104.719 50.3411C95.8001 62.679 88.8451 76.196 84.0082 90.6319C76.6311 86.8315 69.2539 83.0298 61.8779 79.2293C66.7451 64.8035 73.7305 51.3004 82.6761 38.9814C90.0243 42.768 97.3711 46.5545 104.719 50.3411Z" fill="#FFE7D2"/>
<path d="M85.0054 87.7145C84.6617 88.6827 84.3293 89.6558 84.0082 90.6315C76.6311 86.8311 69.2539 83.0294 61.8779 79.2289C62.2002 78.2532 62.5351 77.2813 62.8802 76.3145C70.2548 80.1149 77.6295 83.9153 85.0042 87.7145H85.0054Z" fill="#569E5A"/>
<path d="M81.3514 40.8366C81.2061 41.0426 81.0607 41.2486 80.9166 41.4559C80.7245 41.7314 80.5337 42.0082 80.3441 42.285C80.2695 42.3937 80.1937 42.5036 80.1191 42.6123C75.8523 48.8647 72.0759 55.4052 68.8101 62.1998C71.0206 65.3165 74.6087 67.6736 77.7241 69.6199C81.2288 71.8102 86.4195 73.519 90.8355 73.7325C94.7358 65.549 99.3742 57.732 104.719 50.3396C97.3709 46.5531 90.0241 42.7665 82.6759 38.98C82.3739 39.3958 82.0743 39.8141 81.7761 40.2325C81.6333 40.4322 81.493 40.6344 81.3514 40.8353V40.8366Z" fill="#569E5A"/>
<path d="M100.522 56.4596C101.168 55.4674 101.825 54.4816 102.495 53.5034C95.1984 49.7434 87.734 45.905 80.4389 42.145C80.4073 42.1918 80.3745 42.2373 80.3429 42.284C80.2683 42.3927 80.1925 42.5027 80.1179 42.6114C79.5517 43.4405 78.9956 44.2759 78.4458 45.1151C85.751 48.8802 93.2141 52.6933 100.519 56.4583L100.522 56.4596Z" fill="#296D58"/>
<path d="M69.921 72.2574C69.2335 73.9561 68.5712 75.6623 67.9342 77.3812C66.951 76.8744 65.9677 76.3675 64.9844 75.8607C65.6226 74.1431 66.2849 72.4369 66.9724 70.7383C67.9557 71.2451 68.9378 71.7506 69.921 72.2574Z" fill="#46B2B7"/>
<path d="M84.0931 80.7093C84.404 80.9229 84.7806 81.2666 84.586 81.7595C84.3964 82.2398 83.882 82.2183 82.8381 81.7494C83.0517 81.1996 83.1591 80.9254 83.3777 80.3781C83.178 80.2758 83.0782 80.2239 82.8785 80.1203C82.6573 80.6739 82.5474 80.9519 82.3325 81.508C82.2516 81.4676 82.1707 81.4271 82.0848 81.3829C82.0165 81.3475 81.9508 81.3134 81.8876 81.2793C82.1038 80.7232 82.2124 80.4451 82.4349 79.8915C82.2327 79.7879 82.1316 79.7348 81.9293 79.6312C81.7107 80.1772 81.6033 80.4514 81.3909 80.9987C80.3887 80.3958 80.1726 79.9813 80.3432 79.5478C80.5429 79.041 81.0029 79.1711 81.2431 79.2874C81.3833 78.9361 81.4541 78.7616 81.5969 78.4116C80.9827 78.1259 80.0297 78.0147 79.5924 79.1572C79.1387 80.344 80.0816 81.3185 81.037 81.9201C80.9625 82.1172 80.9246 82.2158 80.8513 82.4117C81.0535 82.5153 81.1546 82.5684 81.3568 82.6721C81.4263 82.4863 81.4617 82.394 81.5325 82.2095C81.602 82.2474 81.674 82.2853 81.7473 82.3232C81.8257 82.3637 81.9015 82.4016 81.9774 82.4395C81.9066 82.624 81.8725 82.7163 81.8029 82.9021C82.0026 83.0044 82.1025 83.0563 82.3022 83.1599C82.3755 82.9665 82.4121 82.8692 82.4854 82.6758C83.4523 83.1081 84.8451 83.4417 85.3304 82.1943C85.7576 81.0947 85.1522 80.2935 84.4457 79.8435C84.3041 80.1898 84.2346 80.363 84.0956 80.7105L84.0931 80.7093Z" fill="#569E5A"/>
<path d="M85.9258 63.7708L77.2241 55.7339L78.0798 54.8087L86.7815 62.8457L85.9258 63.7708ZM85.2333 62.5145C84.7542 63.0327 84.2259 63.4662 83.6484 63.8125C83.0708 64.1601 82.5362 64.3749 82.047 64.4596L81.3886 62.9076C81.8423 62.8128 82.3087 62.6333 82.7851 62.3705C83.2629 62.1076 83.68 61.7815 84.0389 61.3935C84.3132 61.0977 84.504 60.8311 84.614 60.5947C84.7239 60.3584 84.7656 60.1486 84.7403 59.9653C84.7151 59.7821 84.6354 59.6279 84.4989 59.5027C84.3258 59.3435 84.1261 59.2841 83.8986 59.3258C83.6711 59.3675 83.4234 59.4699 83.1529 59.6317C82.8825 59.7934 82.5943 59.983 82.2884 60.1966C81.9813 60.4115 81.6616 60.6124 81.3266 60.8007C80.9917 60.989 80.6543 61.1319 80.313 61.2292C79.9718 61.3265 79.6267 61.3417 79.2754 61.2747C78.9253 61.2077 78.5765 61.0156 78.2314 60.6958C77.8611 60.3533 77.6159 59.9413 77.4959 59.4585C77.3758 58.9757 77.4112 58.4487 77.602 57.8761C77.7929 57.3036 78.1708 56.7121 78.7357 56.1017C79.1123 55.6947 79.5307 55.337 79.9907 55.0312C80.4508 54.7253 80.9171 54.5079 81.3873 54.3828L82.0989 55.8969C81.6464 56.0397 81.2394 56.2243 80.8767 56.4492C80.514 56.6742 80.1993 56.932 79.9313 57.2227C79.6634 57.5134 79.4776 57.7814 79.3752 58.0291C79.2716 58.2768 79.2375 58.4916 79.2716 58.6711C79.3057 58.8506 79.3929 59.0073 79.5357 59.1375C79.7026 59.2917 79.8997 59.3473 80.126 59.3056C80.3535 59.2639 80.5999 59.1602 80.8679 58.9947C81.1345 58.8291 81.4227 58.6408 81.7323 58.4297C82.042 58.2186 82.3605 58.0152 82.6891 57.8205C83.0177 57.6259 83.3526 57.4806 83.6926 57.3832C84.0338 57.2859 84.3789 57.2707 84.7302 57.3377C85.0816 57.4047 85.4254 57.5943 85.7653 57.9077C86.1293 58.2439 86.3695 58.6534 86.4832 59.1362C86.597 59.619 86.5603 60.1486 86.372 60.7236C86.1837 61.2987 85.8045 61.8952 85.2345 62.512L85.2333 62.5145Z" fill="#FFE7D2"/>
<path d="M115.836 67.8909C103.098 76.2274 91.771 86.3661 82.096 98.1213C76.5641 91.9347 71.0321 85.7493 65.5015 79.5627C75.2029 67.8277 86.5512 57.713 99.3087 49.4043C104.818 55.5669 110.328 61.7283 115.838 67.8909H115.836Z" fill="#FFE7D2"/>
<path d="M84.0689 95.7528C83.4016 96.5339 82.7444 97.3238 82.096 98.1213C76.5641 91.9347 71.0321 85.7493 65.5015 79.5626C66.1511 78.7677 66.8108 77.979 67.4794 77.1992C73.0088 83.3833 78.5395 89.5687 84.0689 95.7528Z" fill="#569E5A"/>
<path d="M97.4093 50.6628C97.2008 50.8031 96.991 50.9447 96.7824 51.0862C96.5044 51.2745 96.2276 51.4654 95.9521 51.655C95.8434 51.7295 95.7334 51.8054 95.6247 51.8812C89.4052 56.196 83.5409 60.9545 78.062 66.1351C79.0124 69.8357 81.5225 73.3189 83.7355 76.2511C86.2253 79.5485 90.4631 83.0001 94.5112 84.7784C101.078 78.5286 108.204 72.8867 115.836 67.8919C110.327 61.7292 104.817 55.5679 99.3076 49.4053C98.8766 49.6859 98.4482 49.969 98.0197 50.2533C97.815 50.3898 97.6115 50.5276 97.408 50.6641L97.4093 50.6628Z" fill="#569E5A"/>
<path d="M109.732 72.106C110.69 71.4096 111.656 70.7246 112.631 70.0497C107.16 63.93 101.56 57.6777 96.091 51.5605C96.0442 51.5921 95.9987 51.6237 95.952 51.6553C95.8433 51.7299 95.7333 51.8057 95.6246 51.8816C94.7993 52.4541 93.9816 53.0342 93.1689 53.6232C98.6465 59.7491 104.253 65.9787 109.732 72.106Z" fill="#296D58"/>
<path d="M75.5049 75.9255C74.2562 77.2665 73.0277 78.6239 71.8182 80.0002C71.0814 79.1762 70.3433 78.3509 69.6064 77.5269C70.816 76.1505 72.0444 74.7931 73.2944 73.4521C74.0312 74.2762 74.7681 75.1002 75.5049 75.9243V75.9255Z" fill="#46B2B7"/>
<path d="M97.6705 73.9979L88.9688 65.9609L89.8244 65.0358L98.5261 73.0727L97.6705 73.9979ZM96.9791 72.7416C96.5001 73.2598 95.9718 73.6933 95.3943 74.0396C94.8167 74.3859 94.282 74.602 93.7929 74.6867L93.1345 73.1347C93.5882 73.0399 94.0545 72.8604 94.531 72.5975C95.0075 72.3346 95.4258 72.0085 95.7848 71.6205C96.059 71.3248 96.2499 71.0581 96.3598 70.8218C96.4698 70.5854 96.5115 70.3756 96.4862 70.1924C96.461 70.0091 96.3813 69.8549 96.2448 69.7298C96.0717 69.5705 95.872 69.5111 95.6445 69.5529C95.417 69.5946 95.1693 69.6969 94.8988 69.8587C94.6283 70.0205 94.3402 70.2088 94.0343 70.4237C93.7285 70.6385 93.4075 70.8395 93.0725 71.0278C92.7389 71.2161 92.4001 71.3589 92.0602 71.4562C91.7189 71.5536 91.3739 71.5675 91.0225 71.5017C90.6724 71.4347 90.3236 71.2426 89.9786 70.9229C89.6083 70.5804 89.3631 70.1684 89.243 69.6856C89.1229 69.2028 89.1583 68.6757 89.3492 68.1032C89.54 67.5307 89.9179 66.9392 90.4829 66.3287C90.8595 65.9218 91.2778 65.5641 91.7379 65.2582C92.1979 64.9511 92.6643 64.735 93.1345 64.6099L93.846 66.124C93.3935 66.2668 92.9866 66.4513 92.6239 66.6763C92.2611 66.9013 91.9464 67.1591 91.6785 67.4498C91.4105 67.7392 91.2248 68.0084 91.1224 68.2561C91.02 68.5038 90.9846 68.7187 91.0187 68.8982C91.0529 69.0776 91.1401 69.2344 91.2829 69.3645C91.4497 69.5187 91.6469 69.5743 91.8731 69.5326C92.1006 69.4909 92.3471 69.3873 92.6137 69.2217C92.8804 69.0562 93.1686 68.8678 93.4782 68.6568C93.7879 68.4457 94.1064 68.2422 94.435 68.0476C94.7636 67.8529 95.0985 67.7076 95.4385 67.6115C95.7797 67.5142 96.1248 67.4991 96.4761 67.5661C96.8275 67.633 97.1712 67.8226 97.5112 68.1361C97.8752 68.4722 98.1141 68.8817 98.2291 69.3645C98.3441 69.8473 98.3062 70.3769 98.1179 70.952C97.9296 71.527 97.5504 72.1236 96.9804 72.7403L96.9791 72.7416Z" fill="#FFE7D2"/>
<path d="M86.89 90.3122L81.5186 85.3503L82.0469 84.779L87.4183 89.7409L86.89 90.3122ZM86.4628 89.5362C86.1671 89.856 85.841 90.1239 85.4846 90.3375C85.1282 90.5523 84.7983 90.6851 84.4962 90.7369L84.0893 89.7789C84.3698 89.7207 84.6567 89.6095 84.9512 89.4477C85.2457 89.286 85.5035 89.085 85.726 88.8449C85.8953 88.6616 86.0129 88.4973 86.0811 88.352C86.1481 88.2066 86.1746 88.0764 86.1595 87.9639C86.1443 87.8515 86.095 87.7554 86.0103 87.6783C85.9042 87.5797 85.7803 87.5431 85.64 87.5696C85.4997 87.5949 85.3468 87.6581 85.18 87.7579C85.0131 87.8578 84.8349 87.9741 84.6466 88.1068C84.457 88.2395 84.2599 88.3633 84.0526 88.4796C83.8466 88.5959 83.6381 88.6843 83.427 88.7438C83.2172 88.8032 83.0036 88.8133 82.7862 88.7716C82.5701 88.7311 82.3552 88.611 82.1416 88.4139C81.9129 88.2028 81.7612 87.9488 81.6879 87.6505C81.6133 87.3522 81.6361 87.0274 81.7536 86.6735C81.8712 86.3209 82.105 85.9544 82.4538 85.5778C82.6864 85.3263 82.9442 85.1063 83.2286 84.9168C83.5129 84.7272 83.7998 84.5945 84.0905 84.5161L84.5291 85.4514C84.2498 85.5398 83.9983 85.6536 83.7746 85.7926C83.5509 85.9316 83.3562 86.0909 83.1907 86.2704C83.0251 86.4498 82.9113 86.6154 82.8469 86.7683C82.7837 86.9213 82.7622 87.054 82.7824 87.1639C82.8026 87.2739 82.857 87.3712 82.9455 87.4521C83.0478 87.5469 83.1704 87.5823 83.3107 87.5557C83.451 87.5292 83.6039 87.466 83.7682 87.3636C83.9325 87.2612 84.1107 87.145 84.3016 87.0148C84.4924 86.8846 84.6896 86.7595 84.8918 86.6394C85.094 86.5193 85.3013 86.4296 85.5111 86.3702C85.7222 86.3108 85.9345 86.3007 86.1519 86.3424C86.368 86.3828 86.5816 86.5004 86.7901 86.6938C87.0151 86.901 87.163 87.1538 87.2325 87.4521C87.3033 87.7504 87.2805 88.0764 87.1643 88.4316C87.048 88.7867 86.8142 89.1545 86.4615 89.5362H86.4628Z" fill="#569E5A"/>
<path d="M52.915 157.208V160H83.8798V156.568H53.552C53.1994 156.568 52.915 156.855 52.915 157.208Z" fill="#E5805C"/>
<path d="M71.8073 108.225C71.8073 108.225 74.8456 103.761 75.5117 100.246C76.1778 96.7311 72.9941 90.0427 74.4298 85.786C75.8656 81.5293 80.4774 77.3775 82.2014 74.7676C84.1945 71.7507 84.039 68.9892 82.5085 67.604C80.9779 66.2175 78.1633 67.2337 77.4303 68.356C76.6972 69.477 71.8022 74.7474 70.2831 76.6571C68.7639 78.5668 66.47 80.8594 63.8702 81.4282C61.2704 81.9969 55.2759 80.1529 53.7252 80.2768C52.1757 80.4007 49.7275 81.0073 49.7275 81.0073C49.7275 81.0073 58.682 105.574 71.8073 108.226V108.225Z" fill="#E5805C"/>
<path d="M77.7652 72.7513C77.7766 72.764 77.7867 72.7753 77.7981 72.788C78.1153 73.1406 78.5008 73.4376 78.933 73.6373C79.7747 74.0266 80.686 73.8812 81.3596 73.4667C82.0333 73.0521 82.511 72.4 82.9584 71.744C84.106 70.0631 85.1639 68.1951 85.1803 65.9707C85.1841 65.4879 85.1159 64.9444 84.7632 64.5438C84.5383 64.2872 84.2261 64.128 83.919 64.0294C82.4036 63.5466 81.0576 64.3959 80.0503 65.3388C78.9039 66.413 77.9131 67.6529 77.1055 69.0267C76.8261 69.5007 76.581 70.0226 76.5557 70.5813C76.538 70.9617 76.6151 71.2524 76.8173 71.5696C77.089 71.9968 77.429 72.3747 77.7665 72.7501L77.7652 72.7513Z" fill="#D94862"/>
</svg>
