<svg width="160" height="161" viewBox="0 0 160 161" fill="none" xmlns="http://www.w3.org/2000/svg">
<path d="M0 10C0 4.47715 4.47715 0 10 0H150C155.523 0 160 4.47715 160 10V160H0V10Z" fill="#EDC9B4"/>
<path d="M102.62 95.9061C100.741 113.266 98.1918 131.137 102.956 147.935C103.257 149.001 96.4625 152.965 95.5485 153.485C92.727 155.088 89.6971 156.322 86.5589 157.145C84.8537 157.592 79.6044 159.338 78.2111 157.824C76.9298 156.434 78.01 151.307 77.9763 149.582C77.898 145.377 77.5018 141.177 76.7949 137.032C76.0315 132.568 74.9067 128.143 74.6924 123.62C74.4937 119.415 75.0861 115.212 75.091 111.002C75.0946 107.905 74.7779 104.828 74.2925 101.77C74.1517 100.881 73.9963 99.9957 73.8301 99.1094C73.3448 96.5142 72.7692 93.9324 72.1936 91.3601C71.8275 91.3625 71.4662 91.3396 71.1086 91.2963C68.6495 90.9916 66.3687 89.673 63.9759 88.8529C63.2425 88.6012 62.4983 88.3977 61.7336 88.2833C59.5323 87.9545 57.2225 88.3881 55.1067 87.6992C54.3203 87.4439 53.5833 86.9189 53.0354 86.2698C52.1045 85.174 51.7156 83.7168 52.5417 82.5897C53.0499 81.8972 53.8748 81.5263 54.6756 81.2157C57.2237 80.2258 59.8947 79.5526 62.6079 79.2082C65.3571 78.859 68.151 78.8445 70.9014 79.1781C71.5228 77.2874 72.143 75.3968 72.7656 73.5062C72.821 73.3388 72.8752 73.1702 72.9318 73.0028C73.2461 72.0454 73.5616 71.0893 73.8747 70.1319C74.6803 67.6825 75.4859 65.2331 76.2892 62.7812C77.4187 64.3588 78.5543 65.9436 79.714 67.5151C84.6357 74.1926 89.9584 80.6147 96.8418 85.1607C98.9011 86.5227 101.211 87.8413 102.215 90.0957C103.017 91.8912 102.83 93.954 102.619 95.9097L102.62 95.9061Z" fill="#E5805C"/>
<g style="mix-blend-mode:multiply" opacity="0.45">
<path d="M82.6202 100.181C81.7255 101.176 80.6019 101.956 79.3326 102.392C78.2043 102.779 76.8905 102.892 75.8705 102.275C74.9577 101.722 74.4519 100.699 74.0581 99.7078C73.9798 99.5091 73.904 99.3104 73.8305 99.1093C72.8743 96.5202 72.2758 93.7878 71.1089 91.295C71.0102 91.0831 70.9066 90.8723 70.7982 90.664C69.5543 88.2688 67.4505 86.0867 64.9035 85.4425C64.423 85.3196 63.9281 85.2534 63.4187 85.2498C62.5914 85.2426 61.7653 85.4051 60.9416 85.3437C60.1914 85.2883 59.4676 85.0499 58.7258 84.9234C56.834 84.6031 55.0252 85.1137 53.3911 86.0542C53.2694 86.1229 53.1526 86.1951 53.0382 86.2686C52.1627 85.2365 51.7665 83.8842 52.412 82.7895C52.4518 82.7221 52.4951 82.6535 52.5445 82.5884C53.0527 81.896 53.8776 81.5251 54.6784 81.2144C57.5637 80.0933 60.6044 79.3791 63.686 79.0865C65.0793 78.9541 66.4847 78.9071 67.884 78.9492C68.8931 78.9781 69.9023 79.054 70.9054 79.1756C71.4726 77.4524 72.0374 75.7291 72.6046 74.0059C74.4435 77.2043 75.1612 81.1759 76.1161 84.8307C77.5287 90.2269 79.7397 95.4063 82.6226 100.181H82.6202Z" fill="#F1C4C6"/>
</g>
<g style="mix-blend-mode:multiply" opacity="0.45">
<path d="M69.1846 85.6599C69.1268 85.9441 69.0401 86.2463 68.8137 86.427C68.2742 86.8605 67.5216 86.3138 67.0122 85.8453C65.0951 84.0715 62.5397 83.0045 59.9313 82.8853C57.2097 82.7589 54.8579 83.3092 52.4097 82.7878C52.4494 82.7203 52.4928 82.6517 52.5421 82.5867C53.0503 81.8942 53.8752 81.5233 54.676 81.2126C58.8656 79.5845 63.3875 78.8138 67.8805 78.9487C68.0792 79.3015 68.2526 79.6712 68.4079 80.0433C69.1497 81.8123 69.5592 83.7777 69.1846 85.6587V85.6599Z" fill="#F1C4C6"/>
</g>
<path d="M84.7585 87.5356C84.9199 88.8072 84.272 90.0283 83.6073 91.123C82.8161 92.4248 81.4397 94.1625 79.6935 93.6145C78.069 93.1027 77.9606 91.3096 77.3031 90.0368C75.6509 86.8359 71.518 84.2251 68.3966 82.6753C67.8294 82.3923 67.2394 82.1286 66.6108 82.0599C66.0098 81.9949 65.4089 82.1117 64.814 82.2105C63.0703 82.4995 61.2591 82.6307 59.5527 82.1743C57.8813 81.73 56.3097 80.6462 55.6161 79.0662C55.6016 79.0313 55.586 78.9976 55.5715 78.9626C55.4451 78.6544 55.3524 78.3148 55.4319 77.9908C55.5125 77.6585 55.7606 77.3971 56.0111 77.1659C58.7941 74.5684 62.6777 73.5978 66.3819 72.7187C67.7668 72.3911 69.2348 72.0648 70.5919 72.4923C70.999 72.6223 71.3687 72.8066 71.7119 73.0378C73.0992 73.9639 74.0288 75.598 75.0332 77.0021C76.9587 79.6948 79.5454 81.8323 82.1068 83.9289C83.2918 84.8983 84.5671 86.017 84.7585 87.5356Z" fill="#E5805C"/>
<g style="mix-blend-mode:multiply" opacity="0.45">
<path d="M71.7107 73.0366C71.5421 74.7322 70.9087 76.3844 69.8875 77.75C69.3961 78.4075 68.7928 79.018 68.0305 79.3215C66.4385 79.9561 64.6888 79.1252 63.0438 78.6411C61.0978 78.0655 58.776 77.88 56.8131 78.4906C56.4025 78.6182 56.0075 78.8338 55.6161 79.0662C55.6016 79.0313 55.586 78.9976 55.5715 78.9626C55.4451 78.6544 55.3524 78.3148 55.4319 77.9908C55.5125 77.6585 55.7606 77.3971 56.0111 77.1659C58.7941 74.5684 62.6777 73.5978 66.3819 72.7187C67.7668 72.3911 69.2348 72.0648 70.5919 72.4923C70.999 72.6223 71.3687 72.8066 71.7119 73.0378L71.7107 73.0366Z" fill="#F1C4C6"/>
</g>
<path d="M78.4595 83.3906C74.5216 78.599 72.071 72.7777 69.9094 66.9649C69.3013 65.3283 68.769 63.3112 69.9022 61.9842C70.8812 60.839 72.7321 60.8269 74.0556 61.5458C75.379 62.2648 76.3003 63.5328 77.1745 64.7587C81.0618 70.2103 84.9503 75.6607 88.8375 81.1122C90.043 82.8018 91.2544 84.5021 92.1408 86.3795C92.7838 87.7415 93.245 89.354 92.6285 90.728C90.332 95.852 80.1105 85.4005 78.4583 83.3906H78.4595Z" fill="#E5805C"/>
<g style="mix-blend-mode:multiply" opacity="0.45">
<path d="M84.6539 83.4902C85.0573 83.6179 85.5041 83.7142 85.8954 83.5529C86.8299 83.1675 86.6794 81.8103 86.3543 80.853C85.4017 78.0423 84.3624 75.2605 83.2389 72.5124C82.0419 69.5837 80.6329 66.5479 78.0402 64.7355C76.5193 63.6722 74.5154 63.1134 72.7801 63.7709C71.2989 64.3321 70.232 65.7013 69.7069 67.1957C69.1819 68.6902 69.1349 70.3087 69.1951 71.8911C69.265 73.742 69.3264 77.3547 71.1388 78.4698C72.8656 79.5331 74.3372 78.0146 75.4945 76.932C76.6277 75.871 76.5229 75.7566 77.5272 76.9838C78.263 77.8809 78.7724 78.9623 79.5371 79.8583C80.9111 81.4707 82.6115 82.8436 84.6551 83.4902H84.6539Z" fill="#F1C4C6"/>
</g>
<g style="mix-blend-mode:multiply" opacity="0.45">
<path d="M79.3169 84.197C79.4313 84.3487 79.5505 84.5161 79.5517 84.7064C79.5517 84.9087 79.4192 85.0833 79.2916 85.2411C78.5727 86.131 77.8537 87.0197 77.1348 87.9096C79.6215 86.1792 82.1095 84.4475 84.5962 82.717C83.5931 83.018 82.59 83.3203 81.5856 83.6214C81.2461 83.7237 80.8776 83.8249 80.544 83.7045C80.2405 83.5949 80.0298 83.3239 79.8383 83.0638C77.4286 79.7919 75.3802 76.2539 73.7401 72.5364C73.3391 71.6272 72.7779 70.2881 71.6929 70.1279C71.8723 72.0415 73.6052 74.6571 74.4722 76.3755C75.8559 79.1175 77.4768 81.7379 79.3157 84.1982L79.3169 84.197Z" fill="#F1C4C6"/>
</g>
<g style="mix-blend-mode:multiply" opacity="0.45">
<path d="M74.1399 69.3196C74.1351 69.2727 74.1303 69.2257 74.1267 69.1775C75.7704 72.7433 78.2825 75.9008 80.6524 79.033C81.8663 80.6382 83.1741 82.3157 85.0442 83.0623C83.4402 80.3046 82.6165 77.1772 81.5797 74.1606C80.5428 71.144 79.2109 68.1082 76.8615 65.9502C76.1076 65.2589 74.9865 64.6508 74.1146 65.1855C73.2127 65.7406 73.2897 67.0532 73.48 68.0961C73.61 68.2466 74.1592 69.5171 74.1411 69.3196H74.1399Z" fill="#F1C4C6"/>
</g>
<g style="mix-blend-mode:multiply" opacity="0.45">
<path d="M80.9728 104.357C77.354 99.2802 74.6987 93.5203 73.1886 87.4715C72.0952 83.0929 71.5954 78.5649 70.1889 74.2767C69.5506 72.3306 68.7209 70.4002 68.645 68.3543C68.5692 66.3071 69.4735 64.0491 71.3678 63.2688C73.5113 62.3861 75.927 63.6927 77.6407 65.2534C80.1744 67.5619 82.059 70.4809 83.8834 73.3819C85.3321 75.6856 86.7627 78.0026 88.1271 80.3568C89.5915 82.8833 90.9968 85.4965 91.635 88.3457C92.8766 93.884 90.886 100.027 86.6327 103.784C85.408 104.865 83.8701 105.795 82.2456 105.626C80.6211 105.458 79.1399 103.714 79.7746 102.21" fill="#F1C4C6"/>
</g>
<g style="mix-blend-mode:multiply" opacity="0.45">
<path d="M88.1444 91.5459C87.3279 93.3005 86.4235 95.0153 85.4385 96.682C84.1307 98.8941 82.5965 101.099 80.3518 102.351C79.5389 102.805 78.4948 103.109 77.7097 102.61C76.9992 102.16 76.7824 101.233 76.7029 100.395C76.3682 96.8409 78.207 97.1913 80.748 96.4218C83.5936 95.5596 86.0538 93.5979 88.1444 91.5459Z" fill="#F1C4C6"/>
</g>
<path d="M104 36.0601C94.4924 53.4601 84.985 70.8589 75.4752 88.2576C68.5508 82.2329 60.8462 77.5652 52.3467 74.1994C60.7751 56.4659 69.2035 38.7323 77.6344 21C87.3754 24.3128 96.1735 29.3297 104 36.0601Z" fill="#FFE7D2"/>
<path d="M77.2153 85.0742C76.5193 86.3482 76.1712 86.9841 75.4752 88.2582C68.5508 82.2334 60.8462 77.5658 52.3467 74.1999C52.9645 72.8994 53.2739 72.2491 53.8917 70.9497C62.4671 74.3167 70.2356 79.006 77.2153 85.0742Z" fill="#569E5A"/>
<path d="M61.9302 54.0357C64.665 57.4509 68.81 59.9425 72.2721 62.3738C76.3629 65.2447 81.2051 67.7411 86.2774 68.495C92.1853 57.6846 98.0933 46.873 104 36.0613C96.1738 29.3297 87.3756 24.3128 77.6346 21C72.3986 32.0115 67.1638 43.023 61.9302 54.0357Z" fill="#569E5A"/>
<path d="M101.316 40.9729C100.505 42.4578 99.6937 43.9414 98.8833 45.4262C91.2207 38.821 82.6189 33.862 73.103 30.5322C73.8208 29.0209 74.5397 27.5108 75.2586 25.9995C84.8816 29.322 93.5762 34.3087 101.317 40.9729H101.316Z" fill="#296D58"/>
<path d="M85.7463 55.0234L73.0693 46.2999L73.9978 44.9512L86.6748 53.6746L85.7463 55.0234ZM84.624 53.535C84.1037 54.29 83.5052 54.9439 82.826 55.4967C82.1468 56.0506 81.5002 56.4263 80.886 56.6262L79.7516 54.7524C80.3176 54.5465 80.8836 54.2298 81.4484 53.8035C82.0132 53.3772 82.4901 52.8811 82.8802 52.3151C83.1777 51.884 83.374 51.5058 83.4715 51.1819C83.569 50.8579 83.5847 50.581 83.5173 50.3498C83.451 50.1185 83.3198 49.9355 83.1211 49.7994C82.8694 49.626 82.6008 49.5875 82.3166 49.6838C82.0324 49.779 81.7314 49.9572 81.4147 50.2149C81.098 50.4738 80.762 50.7688 80.4067 51.1012C80.0527 51.4336 79.6782 51.7515 79.2832 52.0562C78.8882 52.3608 78.48 52.6065 78.0597 52.7944C77.6394 52.9822 77.1974 53.0653 76.735 53.0448C76.2726 53.0244 75.7885 52.8413 75.2851 52.4945C74.7456 52.1236 74.3543 51.6383 74.1098 51.0398C73.8653 50.4413 73.8136 49.7561 73.9544 48.9854C74.0941 48.2147 74.4711 47.3837 75.0828 46.4926C75.491 45.8989 75.9631 45.363 76.4978 44.8837C77.0337 44.4045 77.5912 44.0396 78.1741 43.7915L79.3687 45.6075C78.8135 45.8748 78.3234 46.1867 77.8995 46.5444C77.4744 46.902 77.118 47.291 76.8265 47.7137C76.5351 48.1364 76.3473 48.5169 76.2606 48.8541C76.1738 49.1913 76.169 49.4731 76.2461 49.6983C76.3232 49.9235 76.4653 50.1077 76.6712 50.2498C76.9145 50.4172 77.1782 50.4521 77.4624 50.357C77.7466 50.2618 78.0452 50.0824 78.3583 49.8211C78.6714 49.5598 79.0074 49.2635 79.3663 48.9348C79.7251 48.606 80.0984 48.2857 80.4838 47.975C80.8704 47.6643 81.2738 47.415 81.6941 47.2272C82.1143 47.0393 82.5563 46.9562 83.0187 46.9767C83.4811 46.9972 83.9604 47.1778 84.4554 47.5174C84.9864 47.8823 85.3694 48.3652 85.6054 48.9649C85.8414 49.5646 85.892 50.2522 85.7571 51.0265C85.6211 51.8009 85.2441 52.6378 84.6264 53.5374L84.624 53.535Z" fill="#FFE7D2"/>
<path d="M78.108 77.1153L71.062 72.2671L71.5774 71.5181L78.6234 76.3663L78.108 77.1153ZM77.4842 76.2892C77.1952 76.7083 76.8616 77.072 76.4847 77.3803C76.1077 77.6873 75.7477 77.8969 75.4069 78.0077L74.7759 76.966C75.0902 76.8516 75.4045 76.6758 75.7188 76.4386C76.0331 76.2013 76.298 75.9256 76.5148 75.6112C76.6798 75.3716 76.7893 75.1621 76.8435 74.9814C76.8977 74.802 76.9062 74.6479 76.8688 74.519C76.8315 74.3902 76.7592 74.289 76.6485 74.2131C76.5088 74.1168 76.3594 74.0951 76.2017 74.1481C76.0439 74.2011 75.8765 74.2998 75.6995 74.4431C75.5237 74.5864 75.337 74.7514 75.1395 74.9357C74.9421 75.1211 74.7337 75.2969 74.5146 75.4667C74.2954 75.6365 74.0678 75.7726 73.8342 75.8774C73.6005 75.9822 73.3549 76.0279 73.0972 76.0171C72.8395 76.0062 72.5709 75.9039 72.2915 75.7112C71.9917 75.5053 71.7737 75.2355 71.6388 74.9032C71.504 74.5708 71.4739 74.1903 71.5521 73.7615C71.6304 73.3328 71.8387 72.8716 72.1795 72.3767C72.4059 72.0467 72.6685 71.7493 72.9659 71.4819C73.2634 71.2158 73.574 71.0135 73.8968 70.875L74.5615 71.8841C74.2532 72.0323 73.9811 72.2069 73.745 72.4044C73.509 72.6031 73.3103 72.8198 73.1489 73.0547C72.9876 73.2895 72.8828 73.5014 72.8346 73.6881C72.7865 73.8759 72.7841 74.0325 72.8262 74.1577C72.8684 74.283 72.9478 74.3853 73.0622 74.4636C73.1971 74.5563 73.344 74.5768 73.5018 74.5226C73.6595 74.4696 73.8257 74.3697 73.9991 74.224C74.1725 74.0783 74.3592 73.9145 74.5591 73.7314C74.759 73.5484 74.9661 73.3702 75.1805 73.198C75.3948 73.0258 75.6188 72.8873 75.8525 72.7825C76.0861 72.6777 76.3317 72.632 76.5894 72.6428C76.8472 72.6549 77.1133 72.7548 77.3878 72.9439C77.6829 73.1474 77.896 73.4147 78.0273 73.7483C78.1586 74.0819 78.1863 74.4636 78.1116 74.8947C78.0357 75.3258 77.8262 75.7907 77.483 76.2904L77.4842 76.2892Z" fill="#296D58"/>
<g style="mix-blend-mode:multiply" opacity="0.45">
<path d="M84.8816 80.7135C85.1261 83.2556 84.7768 85.8194 84.2301 88.3146C83.2511 92.7703 81.523 97.2536 78.1632 100.339C77.3756 101.063 76.4496 101.724 75.385 101.837C75.0117 101.877 74.648 101.849 74.2928 101.768C74.1519 100.88 73.9965 99.9945 73.8303 99.1082C73.345 96.513 72.7694 93.9312 72.1938 91.3589C71.8277 91.3613 71.4664 91.3384 71.1088 91.2951C68.6497 90.9904 66.3689 89.6718 63.9761 88.8517C63.5197 85.6376 63.0645 82.4223 62.6081 79.207C62.5358 78.6904 62.4612 78.175 62.3889 77.6584C62.1999 76.3289 62.0108 74.9934 62.0132 73.6507C62.0132 71.8094 62.3793 69.9681 63.0802 68.2653C63.2993 67.7331 63.6088 67.1623 64.1579 66.9913C65.1225 66.6902 65.8981 67.768 66.4243 68.6314C67.4804 70.3631 68.9255 71.8564 70.6223 72.9691L71.7807 73.9337C71.5242 73.6844 71.2677 73.4363 71.0112 73.187C71.6013 73.5507 72.3624 73.4134 72.9332 73.0016C73.1656 72.8354 73.3667 72.621 73.5112 72.3778C73.9074 71.7131 73.9712 70.911 73.8761 70.1307C73.852 69.9296 73.8183 69.7309 73.7762 69.5346C72.8561 65.2608 69.0026 62.3393 66.7013 58.623C65.7644 57.1093 65.0792 55.4427 64.6794 53.7086C64.465 52.7705 64.3338 51.7818 64.5794 50.8521C64.8251 49.9237 65.5199 49.0602 66.4604 48.8555C69.6047 48.1715 73.2138 55.4872 74.3385 57.5681C76.1316 60.8846 77.9235 64.1986 79.7154 67.5151C79.8913 67.8402 80.0683 68.1666 80.2429 68.4929C82.3298 72.3537 84.4601 76.3482 84.8816 80.7159V80.7135Z" fill="#F1C4C6"/>
</g>
<path d="M102.006 97.85C101.7 99.4348 101.393 101.024 101.064 102.612C99.7674 108.905 98.1682 115.149 95.1805 120.81C94.305 122.466 93.1814 124.175 91.4112 124.785C90.0107 125.269 88.4199 124.949 87.1434 124.195C84.2533 122.492 83.0249 119.013 82.0134 115.817C81.0211 112.687 80.0312 109.558 79.0389 106.428C78.6463 105.187 78.1201 103.988 78.2056 102.666C78.2489 101.99 78.8763 99.3794 79.8241 99.2878C80.9705 98.1571 82.4204 97.3864 83.6355 96.3315C85.2419 94.9382 86.3884 93.0415 86.9291 90.9883C87.2108 89.9177 87.3301 88.805 87.2626 87.6983C87.2096 86.8385 87.0459 85.969 86.6184 85.2224C86.0945 84.3072 85.2251 83.6545 84.4399 82.95C79.3713 78.3956 77.5661 71.3039 73.8378 65.5982C70.8682 61.0583 66.5053 57.0458 65.7574 51.6713C65.6346 50.7874 65.7117 49.7782 66.0368 48.9485C66.3632 48.1079 66.9448 47.448 67.8275 47.2794C69.0775 47.0398 70.2336 47.943 71.1789 48.7992C71.315 48.922 71.4498 49.0448 71.5823 49.1677C82.2843 58.9219 91.6364 70.1502 99.2929 82.4406C100.716 84.7263 102.108 87.1143 102.568 89.7672C103.033 92.443 102.518 95.1814 102.004 97.8488L102.006 97.85Z" fill="#E5805C"/>
<g style="mix-blend-mode:multiply" opacity="0.45">
<path d="M87.319 90.2843C87.2154 90.5239 87.0878 90.7684 86.93 90.9875C87.2118 89.917 87.331 88.8043 87.2636 87.6976C87.2106 86.8377 87.0468 85.9683 86.6193 85.2217C86.0955 84.3064 85.226 83.6538 84.4409 82.9493C79.3723 78.3949 77.5671 71.3031 73.8388 65.5975C70.8692 61.0575 66.5062 57.045 65.7584 51.6705C65.6356 50.7866 65.7126 49.7775 66.0378 48.9478C66.4761 50.0003 66.6748 51.3803 67.0084 52.1631C68.5366 55.7613 71.1907 58.7948 74.0604 61.3959C74.6228 61.9029 75.2056 62.4135 75.5753 63.0758C75.8643 63.5948 76.0076 64.1789 76.1642 64.7509C77.0156 67.8783 78.3547 70.8708 80.1153 73.5912C81.1955 75.2603 82.4322 76.8221 83.6991 78.3539C85.2971 80.2819 86.9951 82.2496 87.6767 84.6605C88.1981 86.503 88.068 88.5225 87.3178 90.2843H87.319Z" fill="#F1C4C6"/>
</g>
<path d="M96.1108 129.612C95.8808 133.717 94.6007 137.994 91.501 140.694C88.4988 143.312 81.5925 144.373 79.9138 139.779C78.1412 134.928 74.8115 130.543 72.3958 125.852C72.3946 125.851 72.3934 125.848 72.3934 125.847C72.1056 125.296 71.8346 124.738 71.5793 124.177C70.115 120.953 68.9084 117.602 68.1497 114.14C66.8226 108.086 66.8816 101.828 66.3181 95.6559C66.0062 92.2299 65.5004 88.8279 64.9007 85.4404C64.5249 83.3174 64.1095 81.1979 63.682 79.0845C63.5893 78.6353 63.4989 78.1873 63.4062 77.737C63.1064 76.2726 62.8017 74.7661 62.9883 73.2909C63.0052 73.1585 63.0269 73.0236 63.051 72.8899C63.3568 71.2883 64.4684 69.7252 66.0688 69.4073C66.7672 69.2676 67.4705 69.3772 68.134 69.6373C68.8217 69.9046 69.4671 70.3357 70.0259 70.821C71.0832 71.7375 71.9189 72.8177 72.5993 74.0026C74.4382 77.2011 75.1559 81.1726 76.1109 84.8275C77.3645 89.6155 79.2479 94.2337 81.6684 98.5485C81.9767 99.0964 82.2922 99.6395 82.6173 100.178C83.6133 101.83 84.691 103.434 85.8435 104.984C87.9497 107.811 90.31 110.464 92.1248 113.488C95.0161 118.305 96.4239 123.999 96.1084 129.608L96.1108 129.612Z" fill="#E5805C"/>
<g style="mix-blend-mode:multiply" opacity="0.45">
<path d="M72.002 124.945C72.1297 125.245 72.2597 125.548 72.3934 125.847C72.1056 125.296 71.8346 124.738 71.5793 124.177C70.115 120.953 68.9084 117.602 68.1497 114.14C66.8226 108.086 66.8816 101.828 66.3181 95.656C66.0062 92.23 65.5004 88.828 64.9007 85.4405C64.5249 83.3175 64.1095 81.198 63.682 79.0846C63.5893 78.6354 63.4989 78.1874 63.4062 77.737C63.1064 76.2727 62.8017 74.7662 62.9883 73.291C64.2444 76.3401 65.0018 79.6807 65.4366 81.481C65.97 83.686 66.4854 86.1306 68.2978 87.4974C67.8992 87.9285 67.5933 88.4439 67.4079 89.0002C68.0449 89.4807 68.8879 89.6818 69.673 89.5349C68.1413 90.6464 67.5391 92.6768 67.5428 94.571C67.5464 96.4629 68.0485 98.3174 68.2605 100.197C68.5182 102.462 68.3532 104.75 68.358 107.031C68.3701 113.164 69.6164 119.292 72.0008 124.943L72.002 124.945Z" fill="#F1C4C6"/>
</g>
<g style="mix-blend-mode:soft-light" opacity="0.41">
<path d="M81.7609 99.3613C80.1822 96.0509 78.2458 92.909 75.9963 90.0117C75.7687 89.719 75.5338 89.4216 75.4182 89.0687C75.305 88.7304 75.3098 88.3667 75.2207 88.0235C75.0281 87.2805 74.3681 86.6844 73.6119 86.5651C74.9835 83.7111 73.9551 80.3356 72.8881 77.354C72.0982 75.1466 71.254 72.7526 69.6596 70.9775C69.3236 70.6042 68.5372 70.149 68.1362 69.6396C68.8238 69.907 69.4693 70.3381 70.0281 70.8234C71.0854 71.7398 71.9211 72.82 72.6015 74.005C74.4404 77.2034 75.1581 81.175 76.1131 84.8298C77.3667 89.6179 79.2501 94.2361 81.6706 98.5509C81.714 98.8182 81.7453 99.0892 81.7621 99.3601L81.7609 99.3613Z" fill="#473227"/>
</g>
<g style="mix-blend-mode:soft-light" opacity="0.41">
<path d="M102.006 97.8489C101.7 99.4336 101.393 101.023 101.064 102.61C101.291 100.981 101.505 99.3481 101.655 97.7092C101.903 95.0009 101.976 92.2311 101.294 89.5975C100.52 86.6037 98.8158 83.9508 97.1178 81.3665C94.9996 78.1404 92.8524 74.9335 90.6764 71.7483C88.0813 67.9466 85.4307 64.1592 82.2901 60.7946C80.1068 58.4572 77.6996 56.3414 75.5488 53.975C74.6601 52.9948 72.0445 50.9187 71.5845 49.1689C82.2865 58.9232 91.6386 70.1515 99.2951 82.4419C100.718 84.7275 102.111 87.1155 102.571 89.7685C103.035 92.4443 102.52 95.1827 102.006 97.8501V97.8489Z" fill="#473227"/>
</g>
<path d="M53.6522 83.4806C54.518 83.2265 55.3465 82.8471 56.104 82.3582C56.464 82.1258 56.8253 81.8452 56.9746 81.4442C57.124 81.0432 56.9626 80.5001 56.5507 80.3821C56.4002 80.3387 56.2388 80.3568 56.0835 80.3772C54.2446 80.6205 52.4551 81.2383 50.8571 82.18C50.367 82.469 49.8275 82.9868 50.0527 83.5095C50.2538 83.9743 50.8908 84.0128 51.3942 83.955C52.4395 83.8358 53.4739 83.6214 54.4807 83.3156" fill="#D94862"/>
<path d="M58.0875 77.3101C59.0027 76.9031 59.942 76.3407 60.3237 75.4146C60.4514 75.1063 60.4538 74.6596 60.1443 74.5343C59.995 74.4729 59.8252 74.5163 59.6686 74.5608C57.8864 75.069 56.1487 75.7362 54.4832 76.5502C54.093 76.7417 53.68 76.9669 53.4957 77.3607C52.5287 79.4283 57.6515 77.504 58.0863 77.3101H58.0875Z" fill="#D94862"/>
<path d="M69.2362 49.6456C69.9744 50.3236 70.8631 50.9618 71.8651 50.9438C72.1986 50.9377 72.6093 50.7631 72.6021 50.4296C72.5984 50.2682 72.4913 50.1285 72.3889 50.0045C71.2136 48.5714 69.9106 47.242 68.5004 46.0389C68.1705 45.7571 67.7984 45.4681 67.3636 45.4549C65.0816 45.391 68.8846 49.3241 69.2362 49.6468V49.6456Z" fill="#D94862"/>
<path d="M65.4984 78.7846C66.2065 78.917 66.9375 78.9327 67.6516 78.8327C68.1333 78.7653 68.6162 78.6401 69.0256 78.3775C69.8168 77.8694 70.2226 76.9048 70.278 75.9655C70.3334 75.0262 70.0854 74.0989 69.8192 73.1969C69.1352 70.8836 68.2513 68.5185 66.4871 66.8735C66.1042 66.517 65.6321 66.1823 65.1107 66.2208C64.7771 66.2449 64.4712 66.4219 64.2171 66.6399C62.9647 67.7153 62.872 69.6059 63.049 71.2461C63.2501 73.1126 63.6716 74.9563 64.305 76.7241C64.6194 77.6032 65.083 78.5582 65.9693 78.852C66.9038 79.1627 67.9479 78.6063 68.898 78.8641" fill="#D94862"/>
<path d="M102.956 147.935C102.956 147.935 104.675 157.326 103.351 160.095H77.5283L77.5946 154.46L102.956 147.935Z" fill="#E5805C"/>
</svg>
