<svg width="74" height="63" viewBox="0 0 74 63" fill="none" xmlns="http://www.w3.org/2000/svg">
<rect width="74" height="63" rx="10" fill="#EDC9B4"/>
<path fill-rule="evenodd" clip-rule="evenodd" d="M34.5471 54.5202C34.5471 54.5202 31.4206 56.4894 27.4555 53.7803C26.5714 55.6471 23.0882 55.4725 22.2231 53.2415C20.546 54.9186 15.5337 52.7065 17.3095 48.7983C14.4827 49.9821 9.62215 45.1823 13.3596 41.1262C7.9792 40.0524 7.26587 33.5413 11.1361 30.153C10.639 29.3562 10.3469 28.4114 10.3469 27.4021C10.3469 24.8978 12.115 22.8072 14.4713 22.3101C14.5813 20.7431 15.1315 19.0925 16.0194 18.0036C16.9756 16.8311 18.3225 16.3758 20.0641 15.5638C22.1776 14.5811 22.5912 11.9895 24.5111 10.0241C25.7101 8.8061 27.7894 7.00379 30.1722 7C32.1339 7 33.9741 7.90684 34.5471 9.22348C35.12 7.90684 36.9603 7 38.9219 7C41.3048 7.00379 43.3841 8.8061 44.5793 10.0279C46.4992 11.9933 46.9128 14.5811 49.0262 15.5676C50.7678 16.3796 52.111 16.8349 53.071 18.0073C53.9589 19.0963 54.5128 20.7468 54.6191 22.3139C56.9754 22.811 58.7435 24.9016 58.7435 27.4059C58.7435 28.4152 58.4551 29.36 57.9543 30.1568C61.8283 33.5451 61.115 40.0562 55.7308 41.13C59.4682 45.1861 54.6077 49.9859 51.7809 48.8021C53.5567 52.7103 48.5444 54.9186 46.8673 53.2453C46.006 55.4763 42.5228 55.6509 41.6349 53.7841C37.6698 56.4932 34.5433 54.524 34.5433 54.524L34.5471 54.5202Z" fill="#72130D"/>
<path fill-rule="evenodd" clip-rule="evenodd" d="M34.6077 17.1431C37.3359 17.1431 39.5631 15.2535 39.5631 12.939C39.5631 10.6244 37.3359 8.73486 34.6077 8.73486C31.8796 8.73486 29.6523 10.6244 29.6523 12.939C29.6523 15.2535 31.8796 17.1431 34.6077 17.1431Z" fill="#E3A64A"/>
<path fill-rule="evenodd" clip-rule="evenodd" d="M32.4897 23.7213C32.4897 23.7213 31.5373 24.8255 29.7768 25.1328C28.0162 25.4401 27.2118 27.2159 27.3901 29.1776C27.5685 31.1392 27.3294 31.7843 26.138 32.3648C24.9466 32.9491 23.3074 33.6511 24.0208 35.8594C24.7341 38.0677 24.9731 42.1428 21.6341 43.061C18.2951 43.9792 16.804 40.1204 16.804 40.1204C16.804 40.1204 18.4735 41.1942 19.6042 40.3367C20.7387 39.4792 20.1999 37.0584 17.817 35.0056C15.4304 32.9529 16.6825 30.1034 18.6518 29.1206C20.6173 28.1417 20.7387 26.7909 20.382 23.7251C20.0253 20.6593 20.4996 18.6976 23.8993 18.026C27.2991 17.3506 27.06 11.9589 31.0554 11.8944C35.0509 11.8337 37.1378 19.6804 32.4859 23.7251L32.4897 23.7213Z" fill="#440908"/>
<path fill-rule="evenodd" clip-rule="evenodd" d="M36.6032 23.7213C36.6032 23.7213 37.5556 24.8255 39.3162 25.1328C41.0767 25.4401 41.8811 27.2159 41.7028 29.1776C41.5245 31.1392 41.7635 31.7843 42.9549 32.3648C44.1464 32.9491 45.7855 33.6511 45.0722 35.8594C44.355 38.0677 44.1198 42.1428 47.4588 43.061C50.7978 43.9792 52.289 40.1204 52.289 40.1204C52.289 40.1204 50.6195 41.1942 49.485 40.3367C48.3505 39.4792 48.8893 37.0584 51.2721 35.0056C53.6587 32.9529 52.4066 30.1034 50.4373 29.1206C48.4681 28.1417 48.3505 26.7909 48.7071 23.7251C49.0638 20.6593 48.5895 18.6976 45.1898 18.026C41.7901 17.3506 42.0291 11.9589 38.0337 11.8944C34.0383 11.8337 31.9514 19.6804 36.6032 23.7251V23.7213Z" fill="#440908"/>
<path d="M38.7507 39.731C38.7507 39.731 38.1626 46.796 38.2726 47.7825C38.3788 48.769 47.3297 52.4268 49.0295 53.6599C50.7294 54.8931 50.7787 58.9454 50.2361 62.4021H20.1623C19.6197 58.9454 19.669 54.8931 21.3689 53.6599C23.0687 52.4268 32.0195 48.769 32.1258 47.7825C32.232 46.796 31.6439 39.731 31.6439 39.731H38.7507Z" fill="#E5805C"/>
<path d="M38.7508 39.731H31.644C31.644 39.731 31.9552 43.4798 32.0842 45.8967C34.209 45.7412 36.3262 45.3693 38.379 44.7471C38.5232 42.4477 38.7508 39.731 38.7508 39.731Z" fill="#CC6144"/>
<path d="M35.1989 62.9986H51.2983C51.2983 62.9986 50.8278 54.0099 50.2359 53.5622C49.6439 53.1144 41.5431 49.2632 41.5431 49.2632C41.5431 49.2632 39.4789 51.0655 35.1989 51.0655C30.9189 51.0655 28.8548 49.2632 28.8548 49.2632C28.8548 49.2632 20.7539 53.1182 20.162 53.5622C19.5701 54.0061 19.0996 62.9986 19.0996 62.9986H35.1989Z" fill="#FFECE3"/>
<path d="M35.0813 54.3021C37.6766 52.7464 40.3858 51.3387 43.1139 50.0145C42.1805 49.5667 41.5431 49.2632 41.5431 49.2632C41.5431 49.2632 39.4789 51.0655 35.1989 51.0655C30.9189 51.0655 28.8548 49.2632 28.8548 49.2632C28.8548 49.2632 20.7539 53.1182 20.162 53.5622C19.5701 54.0061 19.0996 62.9986 19.0996 62.9986H25.4551C28.096 59.5648 31.2794 56.6242 35.0775 54.3058L35.0813 54.3021Z" fill="#F9F7ED"/>
<path d="M44.5603 30.8203C44.5603 30.8203 46.5599 28.4792 48.4343 30.0273C50.3163 31.5791 49.1628 37.1416 43.7407 36.9064L44.5603 30.8203Z" fill="#E5805C"/>
<path d="M45.2131 35.4341C45.5129 36.0071 47.1141 35.8249 47.9944 34.1896C48.8747 32.558 48.5521 30.9264 48.1196 31.1162C47.687 31.3059 44.496 34.053 45.2169 35.4303L45.2131 35.4341Z" fill="#D87350"/>
<path d="M48.2442 31.1887L48.2177 31.1128H48.1494L48.1152 31.1204C46.4268 31.7578 45.205 33.3363 44.8445 35.3435C44.8331 35.4004 44.8483 35.4573 44.8863 35.5028C44.9242 35.5484 44.9811 35.5749 45.038 35.5749C45.1215 35.5749 45.1898 35.5218 45.2126 35.4345C45.2164 35.4194 45.2202 35.4042 45.224 35.389C45.4478 35.5104 45.6944 35.5749 45.9449 35.5749C46.5026 35.5749 47.1249 35.2372 47.2501 34.4784C47.3336 33.9661 47.087 33.545 46.6468 33.4577C46.3812 33.4046 46.1004 33.526 45.8614 33.6967C46.4116 32.6571 47.1932 31.8527 48.1949 31.2987C48.2329 31.2759 48.2556 31.2304 48.2442 31.1887ZM46.7986 34.6074C46.6392 34.983 46.3053 35.2069 45.8993 35.2069C45.6982 35.2069 45.5009 35.1538 45.3188 35.0513C45.4099 34.7478 45.5123 34.4594 45.6299 34.1824C45.8462 34.0155 46.0815 33.8485 46.3622 33.7688C46.5596 33.7119 46.7037 33.7461 46.7872 33.8789C46.9086 34.0648 46.8897 34.3949 46.8024 34.6112L46.7986 34.6074Z" fill="#CC6144"/>
<path d="M47.1973 30.0241C46.742 29.8344 45.8579 30.138 45.8921 30.7185C45.8997 30.8589 46.0249 30.9689 46.1691 30.9272C46.5713 30.8172 46.7989 30.377 47.1973 30.2518C47.3187 30.2139 47.3036 30.0659 47.1973 30.0203V30.0241Z" fill="#F48462"/>
<path d="M25.8395 30.8203C25.8395 30.8203 23.8399 28.4792 21.9655 30.0273C20.0835 31.5791 21.237 37.1416 26.6591 36.9064L25.8395 30.8203Z" fill="#E5805C"/>
<path d="M22.1436 31.268C21.5441 31.2225 22.117 34.6981 23.4754 35.5746C24.8337 36.4549 25.5774 36.3448 25.3839 35.2103C25.1904 34.0758 23.3502 31.3553 22.1436 31.268Z" fill="#D87350"/>
<path d="M22.2839 31.1204L22.2498 31.1128C22.2043 31.1128 22.1663 31.1431 22.1549 31.1887L22.1436 31.2684L22.2005 31.2987C23.2022 31.8527 23.9876 32.6571 24.534 33.6967C24.2987 33.526 24.0142 33.4046 23.7486 33.4577C23.3084 33.545 23.058 33.9661 23.1453 34.4784C23.2705 35.2372 23.8889 35.5749 24.4505 35.5749C24.7047 35.5749 24.9514 35.5104 25.1714 35.389C25.1752 35.4042 25.179 35.4194 25.1828 35.4345C25.2018 35.518 25.2739 35.5749 25.3573 35.5749C25.4143 35.5749 25.4712 35.5484 25.5091 35.5028C25.5471 35.4573 25.5584 35.4042 25.5509 35.3435C25.1904 33.3363 23.9648 31.7578 22.2802 31.1204H22.2839ZM24.4998 35.2069C24.0938 35.2069 23.7561 34.983 23.6006 34.6074C23.5095 34.3949 23.4905 34.061 23.6158 33.8751C23.6765 33.784 23.7599 33.7423 23.8738 33.7423C23.9231 33.7423 23.98 33.7499 24.0407 33.7688C24.3177 33.8485 24.5567 34.0155 24.773 34.1824C24.8906 34.4556 24.9969 34.7478 25.0842 35.0513C24.902 35.1538 24.7009 35.2069 24.5036 35.2069H24.4998Z" fill="#CC6144"/>
<path d="M35.1987 16.0449C34.417 16.0449 26.8891 18.1508 26.1871 22.0513C25.4852 25.9519 24.3924 31.2943 25.9936 35.8589C27.591 40.4235 34.1059 42.9088 35.1987 42.9088C36.2914 42.9088 42.8063 40.4235 44.4037 35.8589C46.0011 31.2943 44.9122 25.9519 44.2102 22.0513C43.5082 18.1508 35.9803 16.0449 35.1987 16.0449Z" fill="#E5805C"/>
<path d="M28.016 31.6317C27.9325 26.2209 29.5034 21.22 32.2125 16.9097C29.75 17.8696 26.6273 19.6074 26.1871 22.0548C25.4852 25.9553 24.3924 31.2978 25.9936 35.8623C27.462 40.0551 33.0776 42.491 34.8268 42.8591C34.5764 42.7149 34.3298 42.5631 34.0907 42.4C30.5354 39.9792 28.1147 35.98 28.016 31.6317Z" fill="#CC6144"/>
<path d="M36.8116 28.3469C36.2691 29.7281 35.8251 31.5949 36.4057 33.0291C36.4967 33.253 36.8534 33.3099 36.9217 33.0291C37.1038 32.2892 36.9634 31.5531 36.9103 30.7981C36.8534 29.9861 36.8268 29.1665 36.8951 28.3545C36.8989 28.3052 36.8268 28.3014 36.8116 28.3431V28.3469Z" fill="#F48462"/>
<path d="M45.1932 30.9987C44.9732 32.3571 44.6355 33.6585 44.165 34.9524C43.6338 36.417 42.7345 37.5856 41.9718 38.9175C41.9073 39.0313 42.0477 39.1982 42.1616 39.1072C44.552 37.2859 45.087 33.7875 45.216 30.9987C45.216 30.9835 45.1932 30.9835 45.1932 30.9987Z" fill="#F48462"/>
<path d="M31.9276 31.3353C31.146 31.95 30.0722 32.189 29.1008 31.969C28.0915 31.7413 27.6324 30.7244 27.1923 29.9162C27.1695 29.8745 27.0974 29.8935 27.1012 29.939C27.1885 31.1911 27.7311 32.0942 28.9566 32.4888C29.9887 32.8189 31.3812 32.2384 31.9466 31.3505C31.9542 31.3391 31.939 31.3277 31.9276 31.3353Z" fill="#CC6144"/>
<path d="M38.4697 31.3353C39.2514 31.95 40.3252 32.189 41.2965 31.969C42.3058 31.7413 42.7649 30.7244 43.2051 29.9162C43.2278 29.8745 43.2999 29.8935 43.2961 29.939C43.2051 31.1911 42.6625 32.0942 41.4407 32.4888C40.4086 32.8189 39.0161 32.2384 38.4508 31.3505C38.4432 31.3391 38.4584 31.3277 38.4697 31.3353Z" fill="#CC6144"/>
<g style="mix-blend-mode:multiply" opacity="0.4">
<path d="M44.7713 32.28C45.0635 33.3576 43.9669 34.5946 42.3164 35.0461C40.6659 35.4938 39.0912 34.9854 38.7991 33.9078C38.5069 32.8302 39.6035 31.5932 41.254 31.1455C42.9045 30.6978 44.4792 31.2062 44.7713 32.2838V32.28Z" fill="#E24D4D"/>
</g>
<g style="mix-blend-mode:multiply" opacity="0.4">
<path d="M25.6253 32.28C25.3293 33.3576 26.4297 34.5946 28.0802 35.0461C29.7269 35.4938 31.3054 34.9854 31.5975 33.9078C31.8897 32.8302 30.7931 31.5932 29.1426 31.1455C27.4921 30.6978 25.9174 31.2062 25.6253 32.2838V32.28Z" fill="#E24D4D"/>
</g>
<path d="M35.6122 35.8853C35.5553 35.7525 35.358 35.6842 35.2366 35.6235C35.043 35.5324 34.8533 35.5021 34.6484 35.5856C34.4663 35.6614 34.5574 35.9043 34.7167 35.9308C34.8685 35.9574 35.0165 35.9308 35.1721 35.9346C35.3011 35.9346 35.449 36.0067 35.5705 35.9726C35.6084 35.9612 35.6312 35.9233 35.6122 35.8853Z" fill="#CC6144"/>
<path d="M36.6513 35.8622C36.7461 35.8774 36.8637 35.7749 36.9472 35.737C37.0686 35.6839 37.1939 35.6877 37.2546 35.5549C37.2773 35.5055 37.2546 35.441 37.209 35.4145C37.0762 35.331 36.9548 35.4297 36.8448 35.5131C36.7613 35.5738 36.6019 35.6877 36.5981 35.7977C36.5981 35.8319 36.6209 35.8546 36.6513 35.8622Z" fill="#CC6144"/>
<path d="M39.9446 36.7881C37.4669 38.2337 34.7123 38.7763 31.8969 38.0478C31.8362 38.0326 31.8096 38.1237 31.8703 38.1427C34.5643 38.8408 37.6794 38.4879 39.9636 36.8222C39.9826 36.8071 39.9636 36.7805 39.9446 36.7919V36.7881Z" fill="#A8332D"/>
<path d="M31.8933 37.926C31.8554 37.9678 31.8174 38.0095 31.7833 38.055C31.7378 38.1119 31.734 38.1651 31.7529 38.2334C31.7681 38.2827 31.8402 38.3092 31.8744 38.2637C31.9123 38.2182 31.9351 38.1878 31.9502 38.1271C31.9616 38.0778 31.9768 38.0323 31.9958 37.9867C32.0185 37.926 31.9351 37.8843 31.8933 37.926Z" fill="#A8332D"/>
<path d="M39.7969 36.7501C39.7969 36.8336 39.8652 36.9019 39.9449 36.9208C40.0473 36.9436 40.0966 36.8146 40.0132 36.7539C39.9752 36.7235 39.9373 36.697 39.8917 36.678C39.8462 36.659 39.7969 36.7084 39.7969 36.7501Z" fill="#A8332D"/>
<path d="M32.808 38.2826C33.7945 38.8176 34.9745 38.5482 36.0331 38.4078C37.198 38.256 38.1656 37.831 39.1976 37.3036C39.228 37.2884 39.2052 37.2353 39.1748 37.2467C37.1487 37.96 34.8911 37.721 32.8118 38.256C32.8004 38.256 32.8004 38.275 32.8118 38.2788L32.808 38.2826Z" fill="#A8332D"/>
<path d="M32.3376 29.9391C32.3376 29.9391 31.8633 27.875 29.5677 27.1579C27.2721 26.4369 25.5912 28.4176 27.0824 29.4382C28.5774 30.4589 32.3376 29.9391 32.3376 29.9391Z" fill="#3F1D2B"/>
<path d="M27.0902 29.2255C27.0295 29.5784 27.242 31.7753 29.2643 32.1661C31.2905 32.5569 32.2505 31.2061 32.3529 30.2917C32.4592 29.3773 31.2146 27.9506 30.0725 27.6964C28.9342 27.4422 27.2837 28.1024 27.0864 29.2255H27.0902Z" fill="#F9F7ED"/>
<path d="M30.0758 27.6963C28.9678 27.4497 27.3856 28.0644 27.1162 29.1306C27.7081 28.9333 28.319 28.8308 28.9527 28.7891C30.0492 28.7284 31.1268 28.8498 32.0412 29.4948C32.1171 29.548 32.1854 29.6087 32.2575 29.6694C31.9464 28.8346 30.9788 27.8974 30.0758 27.6963Z" fill="#E8E5DD"/>
<path d="M31.5897 29.9387C31.5897 30.8569 30.846 31.6044 29.924 31.6044C29.002 31.6044 28.2583 30.8569 28.2583 29.9387C28.2583 29.0204 29.002 28.2729 29.924 28.2729C30.846 28.2729 31.5897 29.0166 31.5897 29.9387Z" fill="#725F28"/>
<path d="M30.1941 28.8952C30.5735 28.937 30.9909 28.9787 31.3665 29.1077C31.0781 28.6106 30.5431 28.2729 29.9247 28.2729C29.3897 28.2729 28.9154 28.5272 28.6118 28.918C29.1316 28.8269 29.6818 28.8345 30.1941 28.8952Z" fill="#3D3F26"/>
<path d="M31.4682 29.5095C31.4682 29.7257 31.2936 29.9003 31.0773 29.9003C30.8611 29.9003 30.6865 29.7257 30.6865 29.5095C30.6865 29.2932 30.8611 29.1187 31.0773 29.1187C31.2936 29.1187 31.4682 29.2932 31.4682 29.5095Z" fill="#A59568"/>
<path d="M38.0591 29.9391C38.0591 29.9391 38.5334 27.875 40.8289 27.1579C43.1245 26.4369 44.8054 28.4176 43.3142 29.4382C41.8193 30.4589 38.0591 29.9391 38.0591 29.9391Z" fill="#3F1D2B"/>
<path d="M43.307 29.2255C43.3678 29.5784 43.1553 31.7753 41.1329 32.1661C39.1067 32.5569 38.1468 31.2061 38.0405 30.2917C37.9343 29.3773 39.1826 27.9506 40.3209 27.6964C41.463 27.4422 43.1097 28.1024 43.307 29.2255Z" fill="#F9F7ED"/>
<path d="M40.3204 27.6963C41.4284 27.4497 43.0106 28.0644 43.28 29.1306C42.6881 28.9333 42.0772 28.8308 41.4435 28.7891C40.347 28.7284 39.2694 28.8498 38.3549 29.4948C38.2791 29.548 38.2108 29.6087 38.1387 29.6694C38.4498 28.8346 39.4174 27.8974 40.3204 27.6963Z" fill="#E8E5DD"/>
<path d="M38.8066 29.9387C38.8066 30.8569 39.5503 31.6044 40.4724 31.6044C41.3944 31.6044 42.1381 30.8569 42.1381 29.9387C42.1381 29.0204 41.3944 28.2729 40.4724 28.2729C39.5503 28.2729 38.8066 29.0166 38.8066 29.9387Z" fill="#725F28"/>
<path d="M40.2032 28.8952C39.8238 28.937 39.4064 28.9787 39.0308 29.1077C39.3191 28.6106 39.8541 28.2729 40.4726 28.2729C41.0076 28.2729 41.4819 28.5272 41.7854 28.918C41.2656 28.8269 40.7154 28.8345 40.2032 28.8952Z" fill="#3D3F26"/>
<path d="M41.2051 29.5095C41.2051 29.7257 41.3796 29.9003 41.5959 29.9003C41.8122 29.9003 41.9867 29.7257 41.9867 29.5095C41.9867 29.2932 41.8122 29.1187 41.5959 29.1187C41.3796 29.1187 41.2051 29.2932 41.2051 29.5095Z" fill="#A59568"/>
<path d="M44.1606 24.7521C42.7984 23.0105 39.2849 23.6062 37.8848 24.9911C37.7064 25.1695 37.8962 25.4085 38.1086 25.3744C39.0269 25.2416 39.8389 24.7141 40.7533 24.5206C41.7398 24.312 43.2234 24.1981 44.0468 24.8621C44.1264 24.9266 44.2213 24.8318 44.1568 24.7521H44.1606Z" fill="#3F1D2B"/>
<path d="M26.3496 24.8665C27.1427 24.2291 28.41 24.3429 29.3661 24.4757C30.3982 24.6199 31.2709 25.2308 32.2878 25.3788C32.5002 25.4091 32.69 25.1701 32.5116 24.9955C31.1153 23.6106 27.598 23.0149 26.2396 24.7565C26.1751 24.8362 26.27 24.931 26.3496 24.8665Z" fill="#3F1D2B"/>
<path d="M36.2761 39.327C36.1433 39.2891 35.9726 39.3042 35.8625 39.3953C35.8094 39.437 35.7639 39.4902 35.7259 39.5433C35.6842 39.6078 35.6766 39.6761 35.669 39.752C35.6576 39.881 35.8208 39.9607 35.9232 39.9C35.965 39.8772 36.0067 39.8582 36.0409 39.8241C36.0712 39.7975 36.094 39.7634 36.1281 39.7368C36.1661 39.7064 36.204 39.6344 36.2723 39.6116C36.4013 39.5661 36.4203 39.3725 36.2723 39.3308L36.2761 39.327Z" fill="#CC6144"/>
</svg>
