<svg width="160" height="160" viewBox="0 0 160 160" fill="none" xmlns="http://www.w3.org/2000/svg">
<path d="M0 10C0 4.47715 4.47715 0 10 0H150C155.523 0 160 4.47715 160 10V160H0V10Z" fill="#EDC9B4"/>
<path d="M64.4126 32.3022L81.2039 79.7233L54.839 87.0469L38 39.4915L64.4126 32.3022Z" fill="#FFE7D2"/>
<path d="M80.0665 76.5098L81.2044 79.7234L54.8396 87.0469L53.6978 83.823L80.0665 76.5098Z" fill="#569E5A"/>
<path d="M48.0115 67.7628C48.0115 67.7628 51.805 68.7535 60.9368 67.1144C69.3286 65.6083 74.3957 60.4935 74.3957 60.4935L64.4126 32.3022L38 39.4915L48.0115 67.7628Z" fill="#569E5A"/>
<path d="M65.8389 36.3291L67.1564 40.0503L40.7515 47.2615L39.4302 43.53L65.8389 36.3291Z" fill="#296D58"/>
<path d="M56.631 75.1143L58.6666 80.862L55.143 81.8385L53.1074 76.0894L56.631 75.1143Z" fill="#46B2B7"/>
<path d="M59.8868 56.1801L46.0728 55.4593L46.149 53.9895L59.963 54.7102L59.8868 56.1801ZM58.3278 55.5678C58.2852 56.3906 58.134 57.1733 57.8731 57.916C57.6135 58.6587 57.2945 59.2516 56.9186 59.6933L55.1684 58.7918C55.5056 58.3668 55.7897 57.8592 56.0222 57.2663C56.2547 56.6748 56.3865 56.0703 56.4187 55.4529C56.4433 54.9827 56.4162 54.6004 56.3387 54.3072C56.2612 54.014 56.1423 53.7931 55.9822 53.6472C55.8233 53.5012 55.636 53.4224 55.4203 53.4108C55.1465 53.3966 54.9217 53.4935 54.75 53.7001C54.5769 53.9068 54.4296 54.1845 54.3082 54.5319C54.1868 54.8794 54.0693 55.263 53.953 55.6854C53.8381 56.1064 53.6999 56.5275 53.541 56.946C53.3821 57.3645 53.1845 57.7455 52.9507 58.0865C52.7169 58.4275 52.4173 58.7 52.053 58.9015C51.6888 59.103 51.2328 59.1909 50.6839 59.1612C50.0962 59.1302 49.5679 58.9429 49.0991 58.5993C48.6302 58.2557 48.2685 57.7559 48.0128 57.0984C47.757 56.4423 47.655 55.6285 47.7054 54.6585C47.739 54.0114 47.8488 53.3798 48.0335 52.7598C48.2182 52.1411 48.4752 51.5999 48.8033 51.1349L50.5728 51.9642C50.2731 52.4305 50.0445 52.8993 49.8882 53.3721C49.7307 53.8448 49.6402 54.3124 49.6157 54.7722C49.5912 55.2333 49.626 55.613 49.7177 55.9127C49.8107 56.2124 49.9386 56.4306 50.1039 56.5663C50.2693 56.7032 50.4643 56.7768 50.6891 56.7884C50.9538 56.8026 51.1721 56.7058 51.3452 56.4991C51.5183 56.2924 51.6629 56.0147 51.7792 55.6673C51.8954 55.3198 52.0143 54.9349 52.1344 54.5139C52.2545 54.0928 52.3888 53.673 52.5387 53.2532C52.6885 52.8334 52.8797 52.4537 53.1135 52.1114C53.3472 51.7704 53.6469 51.4979 54.0111 51.2964C54.3754 51.0949 54.8275 51.0071 55.3661 51.0355C55.9447 51.0652 56.4652 51.2551 56.9277 51.6038C57.3913 51.9525 57.753 52.455 58.0126 53.1124C58.2735 53.7699 58.3782 54.5875 58.3265 55.5678H58.3278Z" fill="#FFE7D2"/>
<path d="M74.3686 71.3854C74.7768 71.326 75.3347 71.3259 75.5311 71.8788C75.7222 72.4174 75.2831 72.7894 74.0896 73.1898L73.5445 71.6514L72.9504 71.8155L73.5019 73.3732C73.4076 73.4003 73.3107 73.4287 73.2087 73.4571C73.1273 73.4791 73.0485 73.5011 72.9723 73.5204L72.4208 71.9627L71.8189 72.1293L72.3627 73.6651C71.1072 73.9234 70.6332 73.7439 70.4614 73.2582C70.2599 72.6899 70.7288 72.451 71.0091 72.3644L70.6603 71.3776C69.9512 71.6049 69.1065 72.2094 69.5637 73.5024C69.9473 74.586 70.9535 75.0174 72.7282 74.6945L72.9233 75.2435L73.5252 75.0769L73.3417 74.5602C73.427 74.5382 73.5122 74.5163 73.6001 74.4917C73.6931 74.4659 73.7835 74.4401 73.8713 74.4142L74.0547 74.9309L74.6489 74.7669L74.4577 74.227C76.1304 73.6393 76.8795 72.885 76.452 71.6786C76.0141 70.4425 74.9292 70.2487 74.025 70.4102L74.3712 71.3867L74.3686 71.3854Z" fill="#569E5A"/>
<path d="M64.413 32.3022L55.0073 34.8623L55.3806 87.3194L69.1817 83.0635L64.8638 33.5771L64.413 32.3022Z" fill="#296D58"/>
<path d="M84.0639 33.3908L80.9433 83.2376L56.6929 81.654L56.9086 31L84.0639 33.3908Z" fill="#FFE7D2"/>
<path d="M81.1332 80.1986L80.9433 83.2378L56.6929 81.6542L56.7058 78.5698L81.1332 80.1986Z" fill="#569E5A"/>
<path d="M56.7739 62.4965C56.7739 62.4965 59.7899 64.6367 68.2604 66.0756C75.9741 67.3853 82.1235 64.3694 82.1235 64.3694L84.0636 33.3895L56.9083 31L56.7739 62.4965Z" fill="#569E5A"/>
<path d="M83.7692 38.0834L83.5031 42.3367L56.8696 40.1009L56.8877 35.7739L83.7692 38.0834Z" fill="#296D58"/>
<path d="M61.9291 71.8827L61.8374 77.5194L58.5425 77.2972L58.5916 71.6489L61.9291 71.8827Z" fill="#46B2B7"/>
<path d="M72.3901 54.3307L58.9609 51.0125L59.3136 49.5839L72.7427 52.9021L72.3901 54.3307ZM70.9731 53.4343C70.7755 54.2338 70.4784 54.9739 70.0832 55.6546C69.688 56.3353 69.263 56.8571 68.8097 57.2201L67.261 56.0033C67.6717 55.6507 68.0476 55.2051 68.3873 54.6678C68.727 54.1305 68.9711 53.5622 69.1196 52.9615C69.232 52.5043 69.2785 52.1246 69.2578 51.821C69.2372 51.5175 69.1623 51.2798 69.0331 51.1055C68.9039 50.9311 68.7347 50.82 68.5255 50.7671C68.2594 50.7012 68.0205 50.7541 67.8125 50.9246C67.6033 51.0951 67.4069 51.3393 67.2222 51.6583C67.0375 51.976 66.849 52.3312 66.6565 52.7239C66.464 53.1165 66.2496 53.5027 66.0133 53.8838C65.7769 54.2648 65.5121 54.6019 65.2176 54.8925C64.9231 55.1832 64.5783 55.3937 64.183 55.5241C63.7878 55.6533 63.3228 55.6533 62.7893 55.5203C62.2184 55.3795 61.7354 55.0953 61.3401 54.6691C60.9449 54.2428 60.684 53.6836 60.5574 52.99C60.4308 52.2964 60.4838 51.4787 60.7163 50.5359C60.8713 49.9068 61.0986 49.3062 61.397 48.7327C61.6953 48.1605 62.0492 47.6762 62.46 47.2822L64.0409 48.4305C63.6586 48.8309 63.346 49.2494 63.1019 49.6834C62.8578 50.1187 62.6808 50.5604 62.5698 51.0073C62.4587 51.4555 62.4212 51.8339 62.4548 52.1465C62.4897 52.4578 62.5736 52.6968 62.7106 52.8608C62.8462 53.0261 63.0244 53.1359 63.2427 53.1902C63.4997 53.2535 63.7322 53.2005 63.9415 53.0287C64.1507 52.8582 64.3445 52.6128 64.5253 52.2938C64.7048 51.9747 64.8947 51.6195 65.091 51.2282C65.2887 50.8381 65.5005 50.4506 65.7265 50.067C65.9526 49.6834 66.2135 49.3463 66.5067 49.0543C66.8012 48.7637 67.146 48.5532 67.5413 48.424C67.9365 48.2949 68.3976 48.2949 68.9207 48.424C69.4826 48.5635 69.9579 48.8477 70.3467 49.2765C70.7355 49.7066 70.9964 50.2685 71.1281 50.9621C71.2599 51.657 71.2082 52.4798 70.9731 53.4317V53.4343Z" fill="#FFE7D2"/>
<path d="M78.2033 74.076C78.5649 74.1496 79.0325 74.3201 79.0015 74.8613C78.9718 75.387 78.4758 75.5756 77.3404 75.5601L77.4205 74.0553L76.8651 74.0166L76.7863 75.5394C76.6972 75.5342 76.6068 75.5291 76.5125 75.5226C76.4363 75.5174 76.364 75.5123 76.2929 75.5058L76.3704 73.9817L75.8086 73.9429L75.7349 75.4451C74.5957 75.2875 74.2586 74.9866 74.2806 74.5112C74.3064 73.9533 74.7817 73.8887 75.0478 73.899L75.0943 72.9277C74.4188 72.9083 73.4991 73.1796 73.4436 74.4493C73.3971 75.5084 74.0933 76.1878 75.6859 76.4461L75.66 76.9783L76.218 77.0157L76.2438 76.5146C76.3213 76.5223 76.4014 76.5288 76.4828 76.5339C76.5693 76.5404 76.6533 76.5443 76.736 76.5482L76.7101 77.048L77.2617 77.0855L77.2888 76.5624C78.8852 76.5611 79.7713 76.1361 79.8398 74.962C79.9108 73.7518 79.0712 73.2493 78.2562 73.1124L78.2033 74.0721V74.076Z" fill="#569E5A"/>
<path d="M70.1012 82.5295L71.8487 39.5039L57.9185 81.7339L70.1012 82.5295Z" fill="#296D58"/>
<path d="M99.3363 41.2431C94.521 58.4025 89.7045 75.5619 84.8867 92.7212C77.6058 88.8412 69.9154 86.3083 61.791 85.0761C65.5936 67.8418 69.3974 50.6075 73.2039 33.3745C82.4042 34.3097 91.124 36.9291 99.3375 41.2444L99.3363 41.2431Z" fill="#FFE7D2"/>
<path d="M85.7675 89.5803C85.4148 90.8357 85.2379 91.4648 84.8853 92.7202C77.6043 88.8402 69.9139 86.3073 61.7896 85.075C62.0685 83.8118 62.208 83.1802 62.487 81.917C70.6773 83.135 78.4284 85.6744 85.7675 89.5816V89.5803Z" fill="#569E5A"/>
<path d="M66.1147 65.4794C69.1992 67.9193 73.3324 69.2652 76.856 70.695C81.0189 72.3845 85.7631 73.5934 90.3587 73.2305C93.3514 62.568 96.3442 51.9069 99.3369 41.2444C91.1234 36.9291 82.4048 34.3097 73.2032 33.3745C70.8395 44.0757 68.4771 54.7782 66.1147 65.4807V65.4794Z" fill="#569E5A"/>
<path d="M97.9772 46.087C97.5665 47.5504 97.1557 49.0151 96.745 50.4786C88.7007 46.2394 80.1643 43.6316 71.1577 42.6357C71.4819 41.1672 71.8061 39.6986 72.1303 38.23C81.2299 39.1974 89.8528 41.8104 97.9772 46.087Z" fill="#296D58"/>
<path d="M69.2655 75.5859C68.8147 77.5194 68.3639 79.4517 67.9144 81.3853C66.8307 81.1489 65.7354 80.9423 64.6401 80.7653C65.0741 78.8343 65.5094 76.9033 65.9434 74.9736C67.0542 75.148 68.165 75.3521 69.2655 75.5859Z" fill="#46B2B7"/>
<path d="M84.5157 81.9722C84.8334 82.1828 85.2235 82.5367 85.0698 83.0972C84.9199 83.641 84.4239 83.6449 83.3738 83.2251C83.5431 82.6025 83.627 82.2912 83.7949 81.6687C83.5921 81.5731 83.4901 81.5266 83.2873 81.4336C83.1181 82.0639 83.0329 82.3791 82.8624 83.0094C82.781 82.9732 82.6983 82.9358 82.6105 82.897C82.5407 82.866 82.4749 82.835 82.409 82.804C82.5782 82.1737 82.6622 81.8585 82.8314 81.2282C82.6247 81.1352 82.5214 81.0887 82.3134 80.9983C82.1481 81.6196 82.0641 81.9309 81.8988 82.5522C80.8655 82.0058 80.6136 81.5938 80.7428 81.1017C80.8952 80.5243 81.3602 80.6057 81.6069 80.7038C81.7128 80.3021 81.7671 80.1006 81.873 79.6989C81.2401 79.4613 80.3088 79.4755 79.9613 80.7813C79.6152 82.0768 80.6188 83.0946 81.6211 83.5893C81.5617 83.8102 81.5333 83.92 81.4739 84.1409C81.6792 84.2313 81.7826 84.2778 81.9879 84.3695C82.0435 84.1628 82.0719 84.0582 82.1274 83.8515C82.1985 83.8864 82.2708 83.92 82.3457 83.9536C82.4245 83.9897 82.502 84.0233 82.5782 84.0569C82.5227 84.2636 82.4942 84.3669 82.4387 84.5736C82.6402 84.6666 82.7409 84.7131 82.9424 84.8074C83.0006 84.5904 83.0303 84.4832 83.0884 84.2662C83.9912 84.6924 85.4766 84.8732 85.8099 83.5286C86.1134 82.3042 85.505 81.4207 84.7843 80.9802C84.6758 81.3768 84.6216 81.5757 84.5131 81.9722H84.5157Z" fill="#569E5A"/>
<path d="M67.4854 103.142C67.4854 103.142 69.6178 109.756 71.3241 112.136C73.0303 114.517 78.5043 119.137 78.5043 119.137C78.5043 119.137 78.5521 119.234 78.6334 119.403C78.4578 115.347 77.7874 110.457 77.5097 110.179C77.1545 109.824 67.4866 103.141 67.4866 103.141L67.4854 103.142Z" fill="#E06655"/>
<path d="M101.253 121.2C100.685 118.925 96.7748 97.4556 96.3473 96.1769C95.921 94.8969 90.6602 80.1116 90.234 79.684C89.8077 79.2565 74.0252 72.2907 72.6044 71.5803C71.1824 70.8699 63.647 71.2961 61.3724 72.2907C59.0978 73.2866 50.7087 78.6171 49.6431 79.3288C48.5762 80.0392 47.6526 82.8124 49.6431 83.949C51.6335 85.0869 58.0309 83.7359 58.0309 83.7359C58.0309 83.7359 51.9176 89.7071 50.9218 91.8396C49.9259 93.9721 47.4382 98.3791 46.7989 99.304C46.1595 100.227 47.7947 102.219 49.3576 102.29C50.9218 102.361 52.0584 101.223 52.0584 101.223C52.0584 101.223 50.6363 105.346 50.139 106.555C49.6418 107.764 51.2059 109.541 53.0543 109.114C54.9026 108.688 57.4613 104.494 57.4613 104.494C57.4613 104.494 58.9544 109.684 59.3096 110.891C59.6648 112.1 62.0815 111.673 62.9353 110.678C63.7877 109.682 63.9311 107.834 63.9311 107.621C63.9311 107.408 63.789 105.701 63.789 105.701L67.4857 103.143C67.4857 103.143 77.1536 109.826 77.5088 110.181C77.7865 110.459 78.4568 115.349 78.6325 119.404C79.0523 120.29 80.3633 123.2 80.4227 125.11C80.4937 127.384 72.6032 157.597 73.0294 158.237C73.4556 158.877 91.7258 160.299 95.3514 159.944C98.977 159.588 99.6874 159.304 99.6874 159.304C99.6874 159.304 99.9987 149.28 100.245 145.946C100.504 142.447 101.607 133.143 101.891 132.006C102.175 130.868 101.82 123.474 101.252 121.2H101.253Z" fill="#E5805C"/>
<path d="M57.4626 104.777C57.4458 104.777 57.429 104.776 57.4122 104.773C57.2585 104.746 57.1564 104.599 57.1836 104.444C57.2042 104.33 57.6912 101.632 58.1923 100.273C58.7103 98.8677 62.549 94.6247 63.8432 94.5434C64.3651 94.5111 66.7171 94.6196 69.4425 94.7448C72.8408 94.9011 76.6924 95.0794 78.1429 95.0406C78.2953 95.0329 78.4297 95.1595 78.4335 95.3158C78.4374 95.472 78.3147 95.6025 78.1584 95.6064C76.6872 95.6464 72.8253 95.4682 69.4166 95.3106C66.8217 95.1905 64.3689 95.0781 63.8794 95.1078C62.8887 95.1698 59.2101 99.1506 58.7245 100.468C58.2414 101.78 57.7467 104.516 57.7428 104.543C57.7183 104.68 57.5982 104.777 57.4639 104.777H57.4626Z" fill="#E06655"/>
<path d="M52.0585 101.506C52.0133 101.506 51.9668 101.496 51.9241 101.473C51.7859 101.399 51.7356 101.226 51.8092 101.089C51.9229 100.879 54.6004 95.9173 55.7306 94.1736C56.6412 92.7696 61.2885 86.7648 62.8669 86.6524C63.5605 86.6034 65.7408 86.5556 68.0476 86.5039C70.0962 86.4587 72.2157 86.4122 73.0424 86.367C74.759 86.2727 78.4802 86.3631 78.639 86.367C78.7953 86.3709 78.9193 86.5013 78.9154 86.6576C78.9116 86.8139 78.7837 86.9405 78.6248 86.934C78.5861 86.934 74.7667 86.841 73.0734 86.934C72.2364 86.9805 70.1129 87.027 68.0605 87.0709C65.8609 87.1187 63.5876 87.1691 62.9082 87.2182C61.8142 87.297 57.4988 92.4893 56.2059 94.4823C55.0874 96.2067 52.3349 101.307 52.3078 101.358C52.2561 101.453 52.1592 101.506 52.0585 101.506Z" fill="#E06655"/>
<path d="M58.0308 84.0187C57.9481 84.0187 57.8668 83.9825 57.8112 83.914C57.7131 83.7926 57.7311 83.6144 57.8526 83.5162C58.0398 83.3638 62.4572 79.7924 64.2164 79.4992C65.8814 79.2215 73.9734 78.9697 77.1535 79.4992C80.2275 80.012 84.7018 80.158 84.7457 80.1593C84.902 80.1644 85.0247 80.2949 85.0195 80.4512C85.0143 80.6074 84.8826 80.7366 84.7276 80.725C84.6824 80.7237 80.1707 80.5764 77.0605 80.0572C73.927 79.5354 65.9511 79.7834 64.3107 80.0572C62.6975 80.3259 58.2555 83.9192 58.2103 83.9554C58.1574 83.998 58.0941 84.0187 58.0321 84.0187H58.0308Z" fill="#E06655"/>
<path d="M51.3245 78.4986C51.3245 78.4986 52.9365 77.8915 53.3627 78.6032C53.789 79.3136 53.1264 81.1529 52.7944 81.6024C52.4625 82.0532 49.05 84.0901 48.2453 83.7349C47.4393 83.3797 47.1551 80.7254 48.2453 79.9194C49.3354 79.1134 51.3258 78.4973 51.3258 78.4973L51.3245 78.4986Z" fill="#D94862"/>
<path d="M48.7918 95.9087C48.7918 95.9087 49.5719 96.6385 49.8199 97.4561C50.0679 98.2737 49.0992 99.5188 48.3268 100.477C47.5544 101.436 46.8337 102.681 46.2654 102.147C45.697 101.614 45.7681 100.938 45.9102 100.441C46.0522 99.9438 48.7918 95.9087 48.7918 95.9087Z" fill="#D94862"/>
<path d="M51.224 103.612C51.224 103.612 52.2806 104.083 52.3155 105.114C52.3516 106.144 51.3377 107.777 50.7268 108.779C50.3871 109.336 48.85 108.8 49.1858 108.116C49.9066 106.644 51.3196 103.404 51.224 103.612Z" fill="#D94862"/>
<path d="M58.785 109.083C58.785 109.083 60.2859 109.22 60.3931 110.074C60.5003 110.927 60.2523 112.523 60.1812 112.63C60.1102 112.738 59.3443 112.635 59.095 112.173C58.8457 111.711 58.7837 109.083 58.7837 109.083H58.785Z" fill="#D94862"/>
<path d="M77.452 136.865C77.452 136.865 86.4082 137.836 89.9524 138.408C92.8625 138.877 98.6102 139.462 100.574 139.657C100.949 139.695 101.227 140.024 101.199 140.401C101.086 141.9 100.811 145.374 100.677 145.554C100.505 145.782 76.2133 143.152 76.2701 142.296C76.327 141.438 77.4507 136.866 77.4507 136.866L77.452 136.865Z" fill="#BF755A"/>
<path d="M103.967 143.933C103.291 147.845 100.363 150.439 97.4283 149.727C94.4925 149.015 92.6609 145.266 93.3364 141.353C94.012 137.441 96.9401 134.847 99.8747 135.559C102.811 136.271 104.642 140.02 103.967 143.933Z" fill="#E89938"/>
<path d="M103.813 143.895C103.199 147.443 100.656 149.824 98.1323 149.212C95.6084 148.599 94.0585 145.226 94.6707 141.677C95.2842 138.129 97.8275 135.749 100.351 136.361C102.875 136.973 104.425 140.347 103.813 143.895Z" fill="#FFE7D2"/>
<path d="M98.7292 142.549L101.223 138.53L99.756 143.026C99.6578 143.326 99.3362 143.49 99.0366 143.392C98.7369 143.294 98.5729 142.972 98.671 142.673C98.6852 142.629 98.7059 142.586 98.7292 142.549Z" fill="#344973"/>
<path d="M99.3529 142.222L101.72 142.644L99.4213 143.353C99.1139 143.447 98.7871 143.276 98.6928 142.968C98.5985 142.661 98.7703 142.334 99.0777 142.24C99.1681 142.211 99.2637 142.207 99.3516 142.223L99.3529 142.222Z" fill="#344973"/>
<path d="M87.1757 61.5368L74.311 56.4542L74.8522 55.0851L87.7169 60.1676L87.1757 61.5368ZM85.8931 60.4595C85.5909 61.2255 85.1969 61.9204 84.7152 62.5417C84.2321 63.1629 83.7426 63.624 83.244 63.9224L81.8723 62.5107C82.3269 62.2149 82.7583 61.8235 83.1665 61.3366C83.5746 60.8496 83.8924 60.3188 84.1197 59.744C84.2928 59.3061 84.3884 58.9354 84.409 58.6319C84.4284 58.3283 84.3858 58.0829 84.2812 57.8931C84.1765 57.7045 84.0241 57.5702 83.8226 57.4901C83.5669 57.3893 83.3241 57.41 83.0942 57.5508C82.8642 57.6916 82.6369 57.9086 82.4109 58.1992C82.1848 58.4898 81.9511 58.8166 81.7069 59.1782C81.4641 59.5412 81.1993 59.8951 80.9152 60.2425C80.631 60.5887 80.3236 60.8871 79.9929 61.1364C79.6623 61.3856 79.2929 61.5484 78.8834 61.6233C78.474 61.6982 78.0142 61.6362 77.5027 61.4334C76.955 61.2177 76.5146 60.8716 76.18 60.3963C75.8455 59.9222 75.6621 59.3319 75.6285 58.628C75.5949 57.9241 75.7577 57.1207 76.1142 56.2165C76.3518 55.6146 76.6566 55.0489 77.0286 54.5206C77.4006 53.9923 77.8165 53.5609 78.2764 53.2251L79.6894 54.5749C79.258 54.921 78.8912 55.293 78.5915 55.6921C78.2919 56.0899 78.0568 56.5046 77.8876 56.9334C77.7184 57.3622 77.6292 57.7329 77.6215 58.0468C77.6137 58.3606 77.6667 58.6073 77.7791 58.7895C77.8914 58.9716 78.0529 59.1033 78.2634 59.186C78.5101 59.2829 78.7478 59.2609 78.9777 59.1201C79.2076 58.9793 79.4337 58.7623 79.6545 58.4691C79.8754 58.1772 80.1105 57.8504 80.3585 57.4888C80.6065 57.1271 80.8687 56.7719 81.1438 56.4219C81.4189 56.0719 81.7224 55.7722 82.0531 55.5229C82.3838 55.2736 82.7532 55.1109 83.1626 55.036C83.5721 54.9611 84.028 55.0218 84.5292 55.2194C85.0678 55.4325 85.5005 55.7774 85.8285 56.2553C86.1566 56.7332 86.34 57.3247 86.3775 58.0313C86.4149 58.7365 86.2535 59.5464 85.8931 60.4583V60.4595Z" fill="#FFE7D2"/>
<path d="M99.7427 158.042H73.0059V159.998H99.7427V158.042Z" fill="#E5805C"/>
</svg>
