<svg width="160" height="160" viewBox="0 0 160 160" fill="none" xmlns="http://www.w3.org/2000/svg">
<path d="M0 10C0 4.47715 4.47715 0 10 0H150C155.523 0 160 4.47715 160 10V160H0V10Z" fill="#EDC9B4"/>
<path d="M64.4127 32.3024L81.2039 79.7234L54.8391 87.047L38 39.4916L64.4127 32.3024Z" fill="#FFE7D2"/>
<path d="M80.0663 76.5096L81.2042 79.7232L54.8394 87.0468L53.6976 83.8229L80.0663 76.5096Z" fill="#569E5A"/>
<path d="M48.0115 67.7629C48.0115 67.7629 51.805 68.7536 60.9369 67.1145C69.3286 65.6085 74.3957 60.4936 74.3957 60.4936L64.4127 32.3024L38 39.4916L48.0115 67.7629Z" fill="#569E5A"/>
<path d="M65.8388 36.3292L67.1563 40.0504L40.7514 47.2616L39.4301 43.5301L65.8388 36.3292Z" fill="#296D58"/>
<path d="M56.6308 75.1144L58.6664 80.8622L55.1428 81.8386L53.1072 76.0896L56.6308 75.1144Z" fill="#46B2B7"/>
<path d="M59.887 56.1801L46.0729 55.4593L46.1491 53.9895L59.9632 54.7102L59.887 56.1801ZM58.328 55.5678C58.2853 56.3906 58.1342 57.1733 57.8733 57.916C57.6137 58.6587 57.2947 59.2516 56.9188 59.6933L55.1686 58.7918C55.5057 58.3668 55.7899 57.8592 56.0224 57.2663C56.2549 56.6748 56.3866 56.0703 56.4189 55.4529C56.4435 54.9827 56.4163 54.6004 56.3388 54.3072C56.2613 54.014 56.1425 53.7931 55.9824 53.6472C55.8235 53.5012 55.6362 53.4224 55.4205 53.4108C55.1467 53.3966 54.9219 53.4935 54.7501 53.7001C54.5771 53.9068 54.4298 54.1845 54.3084 54.5319C54.187 54.8794 54.0694 55.263 53.9532 55.6854C53.8382 56.1064 53.7 56.5275 53.5412 56.946C53.3823 57.3645 53.1847 57.7455 52.9509 58.0865C52.7171 58.4275 52.4174 58.7 52.0532 58.9015C51.689 59.103 51.233 59.1909 50.6841 59.1612C50.0964 59.1302 49.5681 58.9429 49.0992 58.5993C48.6304 58.2557 48.2687 57.7559 48.013 57.0984C47.7572 56.4423 47.6552 55.6285 47.7056 54.6585C47.7391 54.0114 47.8489 53.3798 48.0336 52.7598C48.2183 52.1411 48.4754 51.5999 48.8035 51.1349L50.573 51.9642C50.2733 52.4305 50.0447 52.8993 49.8884 53.3721C49.7308 53.8448 49.6404 54.3124 49.6159 54.7722C49.5913 55.2333 49.6262 55.613 49.7179 55.9127C49.8109 56.2124 49.9388 56.4306 50.1041 56.5663C50.2695 56.7032 50.4645 56.7768 50.6892 56.7884C50.954 56.8026 51.1723 56.7058 51.3454 56.4991C51.5185 56.2924 51.6631 56.0147 51.7794 55.6673C51.8956 55.3198 52.0145 54.9349 52.1346 54.5139C52.2547 54.0928 52.389 53.673 52.5389 53.2532C52.6887 52.8334 52.8799 52.4537 53.1136 52.1114C53.3474 51.7704 53.6471 51.4979 54.0113 51.2964C54.3756 51.0949 54.8276 51.0071 55.3662 51.0355C55.9449 51.0652 56.4654 51.2551 56.9278 51.6038C57.3915 51.9525 57.7532 52.455 58.0128 53.1124C58.2737 53.7699 58.3783 54.5875 58.3267 55.5678H58.328Z" fill="#FFE7D2"/>
<path d="M74.3687 71.3852C74.7769 71.3258 75.3349 71.3258 75.5312 71.8786C75.7224 72.4173 75.2832 72.7893 74.0897 73.1897L73.5447 71.6513L72.9505 71.8154L73.502 73.3731C73.4077 73.4002 73.3109 73.4286 73.2088 73.457C73.1275 73.479 73.0487 73.5009 72.9725 73.5203L72.4209 71.9626L71.819 72.1292L72.3628 73.665C71.1073 73.9233 70.6333 73.7438 70.4615 73.2581C70.26 72.6898 70.7289 72.4508 71.0092 72.3643L70.6604 71.3775C69.9513 71.6048 69.1066 72.2093 69.5638 73.5022C69.9475 74.5859 70.9536 75.0173 72.7283 74.6944L72.9234 75.2434L73.5253 75.0767L73.3419 74.5601C73.4271 74.5381 73.5124 74.5162 73.6002 74.4916C73.6932 74.4658 73.7836 74.44 73.8714 74.4141L74.0549 74.9308L74.649 74.7667L74.4578 74.2268C76.1305 73.6391 76.8797 72.8848 76.4521 71.6784C76.0143 70.4423 74.9293 70.2486 74.0251 70.4101L74.3713 71.3865L74.3687 71.3852Z" fill="#569E5A"/>
<path d="M64.413 32.3024L55.0073 34.8624L55.3806 87.3195L69.1817 83.0636L64.8638 33.5772L64.413 32.3024Z" fill="#296D58"/>
<path d="M84.0638 33.3908L80.9432 83.2376L56.6928 81.654L56.9085 31L84.0638 33.3908Z" fill="#FFE7D2"/>
<path d="M81.1331 80.1983L80.9432 83.2375L56.6928 81.654L56.7057 78.5696L81.1331 80.1983Z" fill="#569E5A"/>
<path d="M56.774 62.4965C56.774 62.4965 59.79 64.6367 68.2605 66.0756C75.9741 67.3853 82.1236 64.3694 82.1236 64.3694L84.0636 33.3895L56.9083 31L56.774 62.4965Z" fill="#569E5A"/>
<path d="M83.7692 38.0835L83.5031 42.3368L56.8696 40.101L56.8877 35.774L83.7692 38.0835Z" fill="#296D58"/>
<path d="M61.9291 71.8825L61.8374 77.5192L58.5424 77.297L58.5915 71.6487L61.9291 71.8825Z" fill="#46B2B7"/>
<path d="M72.3899 54.3307L58.9608 51.0125L59.3134 49.5839L72.7425 52.9021L72.3899 54.3307ZM70.973 53.4343C70.7754 54.2338 70.4783 54.9739 70.0831 55.6546C69.6878 56.3353 69.2629 56.8571 68.8095 57.2201L67.2608 56.0033C67.6716 55.6507 68.0474 55.2051 68.3871 54.6678C68.7268 54.1305 68.971 53.5622 69.1195 52.9615C69.2319 52.5043 69.2784 52.1246 69.2577 51.821C69.237 51.5175 69.1621 51.2798 69.033 51.1055C68.9038 50.9311 68.7346 50.82 68.5253 50.7671C68.2593 50.7012 68.0203 50.7541 67.8124 50.9246C67.6031 51.0951 67.4068 51.3393 67.2221 51.6583C67.0374 51.976 66.8488 52.3312 66.6563 52.7239C66.4639 53.1165 66.2495 53.5027 66.0131 53.8838C65.7767 54.2648 65.512 54.6019 65.2175 54.8925C64.923 55.1832 64.5781 55.3937 64.1829 55.5241C63.7876 55.6533 63.3226 55.6533 62.7892 55.5203C62.2183 55.3795 61.7352 55.0953 61.34 54.6691C60.9447 54.2428 60.6838 53.6836 60.5572 52.99C60.4307 52.2964 60.4836 51.4787 60.7161 50.5359C60.8711 49.9068 61.0984 49.3062 61.3968 48.7327C61.6952 48.1605 62.0491 47.6762 62.4598 47.2822L64.0408 48.4305C63.6585 48.8309 63.3459 49.2494 63.1018 49.6834C62.8576 50.1187 62.6807 50.5604 62.5696 51.0073C62.4585 51.4555 62.4211 51.8339 62.4547 52.1465C62.4895 52.4578 62.5735 52.6968 62.7104 52.8608C62.846 53.0261 63.0243 53.1359 63.2426 53.1902C63.4996 53.2535 63.7321 53.2005 63.9413 53.0287C64.1506 52.8582 64.3443 52.6128 64.5251 52.2938C64.7047 51.9747 64.8946 51.6195 65.0909 51.2282C65.2885 50.8381 65.5003 50.4506 65.7264 50.067C65.9524 49.6834 66.2133 49.3463 66.5065 49.0543C66.801 48.7637 67.1459 48.5532 67.5411 48.424C67.9364 48.2949 68.3975 48.2949 68.9206 48.424C69.4824 48.5635 69.9578 48.8477 70.3465 49.2765C70.7353 49.7066 70.9962 50.2685 71.128 50.9621C71.2597 51.657 71.2081 52.4798 70.973 53.4317V53.4343Z" fill="#FFE7D2"/>
<path d="M78.2034 74.076C78.5651 74.1496 79.0326 74.3201 79.0016 74.8613C78.9719 75.387 78.4759 75.5756 77.3406 75.5601L77.4207 74.0553L76.8653 74.0166L76.7865 75.5394C76.6974 75.5342 76.607 75.5291 76.5127 75.5226C76.4365 75.5174 76.3641 75.5123 76.2931 75.5058L76.3706 73.9817L75.8087 73.9429L75.7351 75.4451C74.5959 75.2875 74.2588 74.9866 74.2807 74.5112C74.3066 73.9533 74.7819 73.8887 75.0479 73.899L75.0944 72.9277C74.4189 72.9083 73.4993 73.1796 73.4437 74.4493C73.3972 75.5084 74.0934 76.1878 75.686 76.4461L75.6602 76.9783L76.2182 77.0157L76.244 76.5146C76.3215 76.5223 76.4016 76.5288 76.483 76.5339C76.5695 76.5404 76.6534 76.5443 76.7361 76.5482L76.7103 77.048L77.2618 77.0855L77.2889 76.5624C78.8854 76.5611 79.7715 76.1361 79.8399 74.962C79.911 73.7518 79.0714 73.2493 78.2564 73.1124L78.2034 74.0721V74.076Z" fill="#569E5A"/>
<path d="M70.1013 82.5295L71.8489 39.5039L57.9186 81.7339L70.1013 82.5295Z" fill="#296D58"/>
<path d="M99.3362 41.243C94.5209 58.4024 89.7044 75.5618 84.8866 92.7211C77.6057 88.841 69.9153 86.3082 61.7909 85.0759C65.5935 67.8417 69.3974 50.6074 73.2038 33.3744C82.4041 34.3095 91.1239 36.929 99.3375 41.2443L99.3362 41.243Z" fill="#FFE7D2"/>
<path d="M85.7675 89.5804C85.4149 90.8359 85.2379 91.4649 84.8853 92.7203C77.6044 88.8403 69.914 86.3074 61.7896 85.0752C62.0686 83.8119 62.2081 83.1803 62.4871 81.9171C70.6774 83.1351 78.4284 85.6745 85.7675 89.5817V89.5804Z" fill="#569E5A"/>
<path d="M66.115 65.4793C69.1994 67.9192 73.3326 69.265 76.8562 70.6949C81.0191 72.3843 85.7633 73.5933 90.3589 73.2304C93.3517 62.5679 96.3444 51.9068 99.3371 41.2443C91.1236 36.929 82.4051 34.3095 73.2034 33.3744C70.8398 44.0756 68.4774 54.7781 66.115 65.4806V65.4793Z" fill="#569E5A"/>
<path d="M97.9774 46.0872C97.5667 47.5507 97.156 49.0154 96.7452 50.4788C88.7009 46.2397 80.1645 43.6318 71.1579 42.636C71.4821 41.1674 71.8063 39.6988 72.1305 38.2302C81.2301 39.1977 89.853 41.8106 97.9774 46.0872Z" fill="#296D58"/>
<path d="M69.2655 75.5859C68.8147 77.5194 68.364 79.4517 67.9145 81.3853C66.8308 81.1489 65.7355 80.9423 64.6402 80.7653C65.0742 78.8343 65.5094 76.9033 65.9434 74.9736C67.0542 75.148 68.165 75.3521 69.2655 75.5859Z" fill="#46B2B7"/>
<path d="M84.5156 81.9721C84.8334 82.1826 85.2234 82.5365 85.0697 83.0971C84.9199 83.6409 84.4239 83.6448 83.3738 83.225C83.543 82.6024 83.627 82.2911 83.7949 81.6686C83.5921 81.573 83.4901 81.5265 83.2873 81.4335C83.1181 82.0638 83.0328 82.379 82.8623 83.0093C82.781 82.9731 82.6983 82.9357 82.6105 82.8969C82.5407 82.8659 82.4748 82.8349 82.409 82.8039C82.5782 82.1736 82.6621 81.8584 82.8313 81.2281C82.6247 81.1351 82.5213 81.0886 82.3134 80.9982C82.1481 81.6195 82.0641 81.9308 81.8988 82.552C80.8655 82.0057 80.6136 81.5936 80.7428 81.1015C80.8952 80.5242 81.3602 80.6055 81.6069 80.7037C81.7128 80.302 81.767 80.1005 81.8729 79.6988C81.24 79.4612 80.3088 79.4754 79.9613 80.7812C79.6152 82.0767 80.6188 83.0945 81.6211 83.5892C81.5617 83.8101 81.5332 83.9199 81.4738 84.1407C81.6792 84.2312 81.7825 84.2777 81.9879 84.3694C82.0434 84.1627 82.0719 84.0581 82.1274 83.8514C82.1984 83.8863 82.2708 83.9199 82.3457 83.9535C82.4245 83.9896 82.502 84.0232 82.5782 84.0568C82.5226 84.2635 82.4942 84.3668 82.4387 84.5734C82.6402 84.6664 82.7409 84.7129 82.9424 84.8072C83.0005 84.5902 83.0302 84.483 83.0884 84.266C83.9912 84.6923 85.4766 84.8731 85.8098 83.5285C86.1134 82.304 85.505 81.4206 84.7843 80.9801C84.6758 81.3766 84.6215 81.5756 84.513 81.9721H84.5156Z" fill="#569E5A"/>
<path d="M67.4856 103.143C67.4856 103.143 69.6181 109.756 71.3243 112.136C73.0306 114.517 78.5045 119.137 78.5045 119.137C78.5045 119.137 78.5523 119.234 78.6337 119.403C78.458 115.347 77.7877 110.457 77.51 110.18C77.1548 109.824 67.4869 103.141 67.4869 103.141L67.4856 103.143Z" fill="#E06655"/>
<path d="M101.253 121.2C100.685 118.925 96.775 97.4557 96.3474 96.177C95.9212 94.897 90.6604 80.1117 90.2341 79.6841C89.8079 79.2566 74.0254 72.2908 72.6046 71.5804C71.1825 70.87 63.6471 71.2963 61.3725 72.2908C59.098 73.2867 50.7088 78.6173 49.6432 79.3289C48.5763 80.0393 47.6528 82.8125 49.6432 83.9491C51.6336 85.0871 58.0311 83.736 58.0311 83.736C58.0311 83.736 51.9178 89.7072 50.9219 91.8397C49.9261 93.9722 47.4384 98.3793 46.799 99.3041C46.1597 100.228 47.7949 102.219 49.3578 102.29C50.9219 102.361 52.0586 101.223 52.0586 101.223C52.0586 101.223 50.6365 105.346 50.1392 106.555C49.6419 107.764 51.2061 109.542 53.0544 109.114C54.9027 108.688 57.4615 104.494 57.4615 104.494C57.4615 104.494 58.9546 109.684 59.3098 110.891C59.665 112.1 62.0816 111.673 62.9354 110.678C63.7879 109.682 63.9313 107.834 63.9313 107.621C63.9313 107.408 63.7892 105.702 63.7892 105.702L67.4858 103.143C67.4858 103.143 77.1537 109.826 77.5089 110.181C77.7866 110.459 78.457 115.349 78.6327 119.404C79.0524 120.291 80.3634 123.201 80.4229 125.11C80.4939 127.384 72.6033 157.597 73.0295 158.237C73.4558 158.877 91.726 160.299 95.3516 159.944C98.9772 159.589 99.6876 159.304 99.6876 159.304C99.6876 159.304 99.9989 149.28 100.246 145.946C100.504 142.447 101.607 133.144 101.891 132.006C102.175 130.868 101.82 123.474 101.252 121.2H101.253Z" fill="#E5805C"/>
<path d="M57.4627 104.777C57.4459 104.777 57.4292 104.776 57.4124 104.773C57.2587 104.746 57.1566 104.599 57.1837 104.444C57.2044 104.33 57.6914 101.632 58.1925 100.273C58.7105 98.8681 62.5492 94.6251 63.8434 94.5437C64.3652 94.5114 66.7173 94.6199 69.4427 94.7452C72.8409 94.9015 76.6926 95.0798 78.1431 95.041C78.2955 95.0333 78.4298 95.1598 78.4337 95.3161C78.4376 95.4724 78.3149 95.6029 78.1586 95.6067C76.6874 95.6468 72.8254 95.4685 69.4168 95.311C66.8219 95.1908 64.3691 95.0785 63.8796 95.1082C62.8889 95.1702 59.2103 99.151 58.7247 100.468C58.2416 101.781 57.7469 104.516 57.743 104.544C57.7185 104.68 57.5984 104.777 57.464 104.777H57.4627Z" fill="#E06655"/>
<path d="M52.0585 101.506C52.0133 101.506 51.9668 101.496 51.9242 101.473C51.786 101.399 51.7356 101.226 51.8092 101.089C51.9229 100.879 54.6004 95.9175 55.7306 94.1738C56.6412 92.7698 61.2885 86.7649 62.8669 86.6526C63.5605 86.6035 65.7408 86.5557 68.0476 86.504C70.0962 86.4588 72.2158 86.4123 73.0424 86.3671C74.759 86.2728 78.4802 86.3632 78.6391 86.3671C78.7953 86.371 78.9193 86.5015 78.9155 86.6577C78.9116 86.814 78.7837 86.9406 78.6248 86.9341C78.5861 86.9341 74.7667 86.8411 73.0734 86.9341C72.2364 86.9806 70.113 87.0271 68.0606 87.0711C65.8609 87.1189 63.5876 87.1692 62.9082 87.2183C61.8142 87.2971 57.4989 92.4895 56.2059 94.4825C55.0874 96.2068 52.3349 101.307 52.3078 101.358C52.2561 101.453 52.1593 101.506 52.0585 101.506Z" fill="#E06655"/>
<path d="M58.0308 84.0189C57.9481 84.0189 57.8667 83.9827 57.8112 83.9143C57.713 83.7929 57.7311 83.6146 57.8525 83.5165C58.0398 83.364 62.4572 79.7927 64.2164 79.4995C65.8813 79.2218 73.9734 78.9699 77.1534 79.4995C80.2275 80.0122 84.7017 80.1582 84.7457 80.1595C84.9019 80.1647 85.0246 80.2951 85.0195 80.4514C85.0143 80.6077 84.8826 80.7369 84.7276 80.7252C84.6824 80.7239 80.1707 80.5767 77.0604 80.0575C73.9269 79.5356 65.9511 79.7836 64.3107 80.0575C62.6974 80.3261 58.2555 83.9194 58.2103 83.9556C58.1574 83.9982 58.0941 84.0189 58.0321 84.0189H58.0308Z" fill="#E06655"/>
<path d="M51.3247 78.4987C51.3247 78.4987 52.9367 77.8917 53.3629 78.6034C53.7891 79.3138 53.1265 81.153 52.7946 81.6025C52.4626 82.0533 49.0501 84.0902 48.2455 83.735C47.4395 83.3798 47.1553 80.7255 48.2455 79.9195C49.3356 79.1136 51.326 78.4974 51.326 78.4974L51.3247 78.4987Z" fill="#D94862"/>
<path d="M48.792 95.9089C48.792 95.9089 49.5721 96.6387 49.8201 97.4563C50.0681 98.2739 49.0994 99.5191 48.327 100.477C47.5546 101.436 46.8338 102.681 46.2655 102.148C45.6972 101.614 45.7682 100.939 45.9103 100.441C46.0524 99.944 48.792 95.9089 48.792 95.9089Z" fill="#D94862"/>
<path d="M51.224 103.612C51.224 103.612 52.2806 104.083 52.3154 105.114C52.3516 106.145 51.3377 107.777 50.7267 108.78C50.387 109.336 48.85 108.8 49.1858 108.116C49.9065 106.644 51.3196 103.404 51.224 103.612Z" fill="#D94862"/>
<path d="M58.7853 109.083C58.7853 109.083 60.2862 109.22 60.3934 110.074C60.5006 110.927 60.2526 112.523 60.1816 112.63C60.1106 112.738 59.3446 112.635 59.0953 112.173C58.8461 111.711 58.7841 109.083 58.7841 109.083H58.7853Z" fill="#D94862"/>
<path d="M77.4519 136.865C77.4519 136.865 86.4081 137.836 89.9523 138.408C92.8624 138.877 98.6102 139.462 100.573 139.657C100.949 139.695 101.227 140.024 101.199 140.401C101.086 141.899 100.811 145.374 100.677 145.553C100.505 145.782 76.2132 143.152 76.2701 142.296C76.3269 141.438 77.4506 136.866 77.4506 136.866L77.4519 136.865Z" fill="#BF755A"/>
<path d="M103.967 143.933C103.291 147.845 100.363 150.439 97.4285 149.727C94.4926 149.015 92.6611 145.266 93.3366 141.353C94.0121 137.441 96.9403 134.847 99.8748 135.559C102.811 136.271 104.642 140.02 103.967 143.933Z" fill="#E89938"/>
<path d="M103.813 143.895C103.199 147.443 100.656 149.824 98.1323 149.212C95.6085 148.599 94.0585 145.226 94.6707 141.678C95.2843 138.129 97.8275 135.749 100.351 136.361C102.875 136.973 104.425 140.347 103.813 143.895Z" fill="#FFE7D2"/>
<path d="M98.7293 142.549L101.223 138.53L99.7561 143.026C99.6579 143.326 99.3363 143.49 99.0367 143.392C98.737 143.294 98.573 142.972 98.6711 142.673C98.6853 142.629 98.706 142.586 98.7293 142.549Z" fill="#344973"/>
<path d="M99.3529 142.222L101.72 142.644L99.4213 143.353C99.1139 143.447 98.7871 143.276 98.6929 142.968C98.5986 142.661 98.7704 142.334 99.0778 142.24C99.1682 142.211 99.2638 142.207 99.3516 142.223L99.3529 142.222Z" fill="#344973"/>
<path d="M87.1755 61.5365L74.3108 56.4539L74.852 55.0848L87.7167 60.1674L87.1755 61.5365ZM85.8929 60.4593C85.5907 61.2252 85.1967 61.9201 84.7149 62.5414C84.2319 63.1627 83.7423 63.6238 83.2438 63.9222L81.8721 62.5104C82.3267 62.2146 82.7581 61.8233 83.1663 61.3363C83.5744 60.8494 83.8922 60.3185 84.1195 59.7437C84.2926 59.3059 84.3882 58.9352 84.4088 58.6316C84.4282 58.3281 84.3856 58.0827 84.2809 57.8928C84.1763 57.7042 84.0239 57.5699 83.8224 57.4898C83.5667 57.3891 83.3238 57.4097 83.0939 57.5505C82.864 57.6913 82.6367 57.9083 82.4107 58.1989C82.1846 58.4896 81.9508 58.8163 81.7067 59.178C81.4639 59.5409 81.1991 59.8949 80.9149 60.2423C80.6308 60.5885 80.3234 60.8868 79.9927 61.1361C79.6621 61.3854 79.2927 61.5481 78.8832 61.6231C78.4738 61.698 78.0139 61.636 77.5024 61.4332C76.9548 61.2175 76.5144 60.8713 76.1798 60.396C75.8453 59.922 75.6619 59.3317 75.6283 58.6278C75.5947 57.9238 75.7575 57.1204 76.1139 56.2163C76.3516 55.6144 76.6564 55.0486 77.0284 54.5204C77.4004 53.9921 77.8163 53.5607 78.2761 53.2249L79.6892 54.5746C79.2578 54.9208 78.891 55.2928 78.5913 55.6919C78.2916 56.0897 78.0566 56.5043 77.8874 56.9331C77.7182 57.362 77.629 57.7327 77.6213 58.0465C77.6135 58.3604 77.6665 58.6071 77.7789 58.7892C77.8912 58.9713 78.0527 59.1031 78.2632 59.1857C78.5099 59.2826 78.7476 59.2607 78.9775 59.1199C79.2074 58.9791 79.4334 58.7621 79.6543 58.4689C79.8752 58.177 80.1103 57.8502 80.3583 57.4885C80.6062 57.1269 80.8684 56.7717 81.1436 56.4216C81.4187 56.0716 81.7222 55.772 82.0529 55.5227C82.3835 55.2734 82.7529 55.1106 83.1624 55.0357C83.5718 54.9608 84.0278 55.0215 84.5289 55.2191C85.0676 55.4323 85.5003 55.7771 85.8283 56.255C86.1564 56.7329 86.3398 57.3245 86.3773 58.031C86.4147 58.7363 86.2533 59.5461 85.8929 60.458V60.4593Z" fill="#FFE7D2"/>
<path d="M99.7427 158.042H73.0059V159.999H99.7427V158.042Z" fill="#E5805C"/>
</svg>