<svg width="74" height="63" viewBox="0 0 74 63" fill="none" xmlns="http://www.w3.org/2000/svg">
<rect width="74" height="63" rx="10" fill="#EDC9B4"/>
<path d="M35.3585 14.5312C35.3585 14.5312 26.3184 28.5672 26.3184 37.8452C26.3184 40.6999 27.5078 41.6515 28.6973 41.6515C29.6489 41.6515 30.3626 40.9378 30.3626 39.7483C30.3626 37.8452 29.1731 38.321 29.1731 35.2283C28.6973 26.1882 35.3585 14.5312 35.3585 14.5312Z" stroke="#1E1E1E" stroke-miterlimit="10" stroke-linecap="round" stroke-linejoin="round"/>
<path d="M66.0469 35.2288H52.7247C49.3941 35.2288 48.2046 34.5151 46.7772 34.5151C46.5393 34.5151 46.5393 34.5151 46.3014 34.5151C45.5878 34.753 45.3499 35.4667 45.5877 36.1804C45.5877 36.4183 45.8256 36.6562 45.8256 36.6562C46.0635 37.132 46.7772 38.0836 46.7772 39.7489C46.7772 42.8415 44.6362 44.2689 42.733 44.2689C42.0193 44.2689 37.7371 44.031 37.7371 37.8457C37.7371 36.6562 38.2129 35.9425 37.7371 35.2288C37.4992 34.9909 37.4992 34.753 37.0235 34.753C36.7856 34.753 36.7856 34.753 36.5477 34.753C36.3098 34.753 36.0719 34.753 35.834 34.753C34.8824 34.753 33.9308 34.753 32.9792 34.753C32.7413 34.753 32.5034 34.753 32.2655 34.753C32.0276 34.753 32.0276 34.753 31.7897 34.753C31.5518 34.9909 31.3139 35.7046 31.5518 36.1804C31.5518 36.4183 31.7897 36.6562 31.7897 36.6562C32.0276 37.132 32.7413 38.0836 32.7413 39.7489C32.7413 42.8415 30.6002 44.2689 28.6971 44.2689C27.9834 44.2689 23.7012 44.031 23.7012 37.8457C23.7012 36.1804 24.4149 35.4667 22.9875 34.753C22.7496 34.753 22.7496 34.753 22.5117 34.753C21.3222 34.753 9.42738 35.4667 8 35.4667" stroke="#1E1E1E" stroke-miterlimit="10" stroke-linecap="round" stroke-linejoin="round"/>
<path d="M54.628 11.9146C54.628 11.9146 42.4953 23.0957 40.1163 32.1358C39.4026 34.9906 40.1163 36.1801 41.3058 36.418C42.2574 36.6559 42.9711 36.1801 43.209 34.9906C43.6847 33.3253 42.2574 33.3253 43.209 30.2326C45.5879 21.4304 54.628 11.9146 54.628 11.9146Z" stroke="#1E1E1E" stroke-miterlimit="10" stroke-linecap="round" stroke-linejoin="round"/>
<path d="M50.1079 22.3826L53.9143 21.6689L52.7248 25.4753" stroke="#1E1E1E" stroke-miterlimit="10" stroke-linecap="round" stroke-linejoin="round"/>
<path d="M54.151 21.6689C50.8205 23.5721 48.6794 26.9027 48.2036 30.709" stroke="#1E1E1E" stroke-miterlimit="10" stroke-linecap="round" stroke-linejoin="round"/>
<path d="M12.7571 37.8454C12.5193 37.8454 12.5193 37.8454 12.2814 37.6075C12.2814 37.6075 12.0435 37.3697 12.0435 37.1318C12.0435 36.8939 12.0435 36.8939 12.2814 36.656C12.5193 36.4181 12.7571 36.4181 12.995 36.656C12.995 36.656 13.2329 36.8939 13.2329 37.1318C13.2329 37.3697 13.2329 37.3697 12.995 37.6075C12.995 37.6075 12.995 37.8454 12.7571 37.8454Z" fill="#1E1E1E"/>
<path d="M49.869 37.8454C49.6311 37.8454 49.6311 37.8454 49.3932 37.6075C49.3932 37.6075 49.1553 37.3697 49.1553 37.1318C49.1553 36.8939 49.1553 36.8939 49.3932 36.656C49.6311 36.4181 49.869 36.4181 50.1069 36.656C50.1069 36.656 50.3448 36.8939 50.3448 37.1318C50.3448 37.3697 50.3448 37.3697 50.1069 37.6075L49.869 37.8454Z" fill="#1E1E1E"/>
<path d="M62.241 37.8454C62.0031 37.8454 62.0031 37.8454 61.7652 37.6075C61.7652 37.6075 61.5273 37.3697 61.5273 37.1318C61.5273 36.8939 61.5273 36.8939 61.7652 36.656C62.0031 36.4181 62.241 36.4181 62.4789 36.656C62.4789 36.656 62.7168 36.8939 62.7168 37.1318C62.7168 37.3697 62.7168 37.3697 62.4789 37.6075L62.241 37.8454Z" fill="#1E1E1E"/>
<path d="M35.3577 42.365C35.1198 42.365 35.1198 42.365 34.8819 42.1271C34.8819 42.1271 34.644 41.8892 34.644 41.6513C34.644 41.4134 34.644 41.4134 34.8819 41.1755C35.1198 40.9376 35.3577 40.9376 35.5956 41.1755C35.5956 41.1755 35.8335 41.4134 35.8335 41.6513C35.8335 41.8892 35.8335 41.8892 35.5956 42.1271L35.3577 42.365Z" fill="#1E1E1E"/>
<path d="M18.9432 41.4148C18.7053 41.4148 18.7053 41.4148 18.4674 41.1769C18.4674 41.1769 18.2295 40.939 18.2295 40.7011C18.2295 40.4632 18.2295 40.4632 18.4674 40.2253C18.7053 39.9874 18.9432 39.9874 19.1811 40.2253C19.1811 40.2253 19.419 40.4632 19.419 40.7011C19.419 40.939 19.419 40.939 19.1811 41.1769C19.1811 41.4148 19.1811 41.4148 18.9432 41.4148Z" fill="#1E1E1E"/>
<path d="M56.0555 41.4148C55.8176 41.4148 55.8176 41.4148 55.5797 41.1769C55.5797 41.1769 55.3418 40.939 55.3418 40.7011C55.3418 40.4632 55.3418 40.4632 55.5797 40.2253C55.8176 39.9874 56.0555 39.9874 56.2934 40.2253C56.2934 40.2253 56.5313 40.4632 56.5313 40.7011C56.5313 40.939 56.5313 40.939 56.2934 41.1769C56.2934 41.4148 56.0555 41.4148 56.0555 41.4148Z" fill="#1E1E1E"/>
<path d="M18.9432 48.5505C18.7053 48.5505 18.7053 48.5505 18.4674 48.3126C18.4674 48.3126 18.2295 48.0747 18.2295 47.8368C18.2295 47.5989 18.2295 47.5989 18.4674 47.361C18.7053 47.1231 18.9432 47.1231 19.1811 47.361C19.1811 47.361 19.419 47.5989 19.419 47.8368C19.419 48.0747 19.419 48.0747 19.1811 48.3126C19.1811 48.5505 19.1811 48.5505 18.9432 48.5505Z" fill="#1E1E1E"/>
<path d="M31.3143 48.5505C31.0764 48.5505 31.0764 48.5505 30.8385 48.3126C30.8385 48.3126 30.6006 48.0747 30.6006 47.8368C30.6006 47.5989 30.6006 47.5989 30.8385 47.361C31.0764 47.1231 31.3143 47.1231 31.5522 47.361C31.5522 47.361 31.7901 47.5989 31.7901 47.8368C31.7901 48.0747 31.7901 48.0747 31.5522 48.3126C31.5522 48.5505 31.5522 48.5505 31.3143 48.5505Z" fill="#1E1E1E"/>
<path d="M43.6844 48.5505C43.4465 48.5505 43.4465 48.5505 43.2086 48.3126C43.2086 48.3126 42.9707 48.0747 42.9707 47.8368C42.9707 47.5989 42.9707 47.5989 43.2086 47.361C43.4465 47.1231 43.6844 47.1231 43.9223 47.361C43.9223 47.361 44.1602 47.5989 44.1602 47.8368C44.1602 48.0747 44.1602 48.0747 43.9223 48.3126C43.9223 48.5505 43.9223 48.5505 43.6844 48.5505Z" fill="#1E1E1E"/>
<path d="M56.0555 48.5505C55.8176 48.5505 55.8176 48.5505 55.5797 48.3126C55.5797 48.3126 55.3418 48.0747 55.3418 47.8368C55.3418 47.5989 55.3418 47.5989 55.5797 47.361C55.8176 47.1231 56.0555 47.1231 56.2934 47.361C56.2934 47.361 56.5313 47.5989 56.5313 47.8368C56.5313 48.0747 56.5313 48.0747 56.2934 48.3126C56.2934 48.5505 56.0555 48.5505 56.0555 48.5505Z" fill="#1E1E1E"/>
<path d="M56.0556 53.3086C54.3903 53.3086 53.4387 52.5949 52.7251 52.1191C52.0114 51.6433 51.2977 51.1675 49.8703 51.1675C48.4429 51.1675 47.9671 51.6433 47.0155 52.1191C46.3018 52.8328 45.3502 53.3086 43.685 53.3086C42.0197 53.3086 41.0681 52.5949 40.3544 52.1191C39.6407 51.6433 38.927 51.1675 37.4996 51.1675C36.0723 51.1675 35.5965 51.6433 34.6449 52.1191C33.9312 52.8328 32.9796 53.3086 31.3143 53.3086C29.649 53.3086 28.6974 52.5949 27.9837 52.1191C27.2701 51.6433 26.5564 51.1675 25.129 51.1675C24.4153 51.1675 23.7016 51.4054 23.2258 51.6433C22.9879 51.8812 22.75 51.6433 22.5121 51.4054C22.2742 51.1675 22.5121 50.9296 22.75 50.6917C23.4637 50.2159 24.1774 49.978 25.129 49.978C26.7943 49.978 27.7459 50.6917 28.4595 51.1675C29.1732 51.6433 29.8869 52.1191 31.3143 52.1191C32.7417 52.1191 33.2175 51.6433 34.1691 51.1675C34.8828 50.4538 35.8344 49.978 37.4996 49.978C39.1649 49.978 40.1165 50.6917 40.8302 51.1675C41.5439 51.6433 42.2576 52.1191 43.685 52.1191C45.1123 52.1191 45.5881 51.6433 46.5397 51.1675C47.2534 50.4538 48.205 49.978 49.8703 49.978C51.5356 49.978 52.4872 50.6917 53.2008 51.1675C53.9145 51.6433 54.6282 52.1191 56.0556 52.1191C57.483 52.1191 57.9588 51.6433 58.9104 51.1675C59.6241 50.4538 60.5757 49.978 62.2409 49.978C62.4788 49.978 62.7167 50.2159 62.7167 50.4538C62.7167 50.6917 62.4788 50.9296 62.2409 50.9296C60.8136 50.9296 60.3378 51.4054 59.3862 51.8812C58.6725 52.5949 57.7209 53.3086 56.0556 53.3086Z" fill="#1E1E1E"/>
<path d="M18.9429 53.3086C17.2776 53.3086 16.326 52.5949 15.6123 52.1191C14.8986 51.6433 14.1849 51.1675 12.7575 51.1675C12.5196 51.1675 12.2817 50.9296 12.2817 50.6917C12.2817 50.2159 12.5196 49.978 12.7575 49.978C14.4228 49.978 15.3744 50.6917 16.0881 51.1675C16.8018 51.6433 17.5155 52.1191 18.9429 52.1191C19.8944 52.1191 20.6081 51.8812 20.846 51.6433C21.0839 51.4054 21.3218 51.6433 21.5597 51.8812C21.7976 52.1191 21.5597 52.357 21.3218 52.5949C20.846 53.0707 19.8944 53.3086 18.9429 53.3086Z" fill="#1E1E1E"/>
</svg>
