<svg width="74" height="63" viewBox="0 0 74 63" fill="none" xmlns="http://www.w3.org/2000/svg">
<rect width="74" height="63" rx="10" fill="#EDC9B4"/>
<path d="M14.539 38.3201C14.3202 38.3201 14.3202 38.3201 14.1015 38.1014C14.1015 38.1014 13.8828 37.8827 13.8828 37.664C13.8828 37.4453 13.8828 37.4452 14.1015 37.2265C14.3202 37.0078 14.539 37.0078 14.7577 37.2265C14.7577 37.2265 14.9764 37.4453 14.9764 37.664C14.9764 37.8827 14.9764 37.8827 14.7577 38.1014C14.7577 38.1014 14.7577 38.3201 14.539 38.3201Z" fill="#1E1E1E"/>
<path d="M25.9125 35.9139C25.6938 35.9139 25.6938 35.9139 25.4751 35.6951C25.4751 35.6951 25.2563 35.4764 25.2563 35.2577C25.2563 35.039 25.2563 35.039 25.4751 34.8203C25.6938 34.6016 25.9125 34.6016 26.1312 34.8203C26.1312 34.8203 26.3499 35.039 26.3499 35.2577C26.3499 35.4764 26.3499 35.4764 26.1312 35.6951C26.1312 35.6951 26.1312 35.9139 25.9125 35.9139Z" fill="#1E1E1E"/>
<path d="M28.5375 43.5672C28.3188 43.5672 28.3188 43.5672 28.1001 43.3485C28.1001 43.3485 27.8813 43.1297 27.8813 42.911C27.8813 42.6923 27.8813 42.6923 28.1001 42.4736C28.3188 42.2549 28.5375 42.2549 28.7562 42.4736C28.7562 42.4736 28.9749 42.6923 28.9749 42.911C28.9749 43.1297 28.9749 43.1297 28.7562 43.3485C28.7562 43.3485 28.7562 43.5672 28.5375 43.5672Z" fill="#1E1E1E"/>
<path d="M48.6591 38.3201C48.4404 38.3201 48.4404 38.3201 48.2216 38.1014C48.2216 38.1014 48.0029 37.8827 48.0029 37.664C48.0029 37.4453 48.0029 37.4452 48.2216 37.2265C48.4404 37.0078 48.6591 37.0078 48.8778 37.2265C48.8778 37.2265 49.0965 37.4453 49.0965 37.664C49.0965 37.8827 49.0965 37.8827 48.8778 38.1014L48.6591 38.3201Z" fill="#1E1E1E"/>
<path d="M42.9721 42.9119C42.7533 42.9119 42.7533 42.9119 42.5346 42.6932C42.5346 42.6932 42.3159 42.4745 42.3159 42.2558C42.3159 42.037 42.3159 42.037 42.5346 41.8183C42.7533 41.5996 42.9721 41.5996 43.1908 41.8183C43.1908 41.8183 43.4095 42.037 43.4095 42.2558C43.4095 42.4745 43.4095 42.4745 43.1908 42.6932L42.9721 42.9119Z" fill="#1E1E1E"/>
<path d="M43.6288 36.5701C43.4101 36.5701 43.4101 36.5701 43.1914 36.3514C43.1914 36.3514 42.9727 36.1327 42.9727 35.914C42.9727 35.6952 42.9727 35.6952 43.1914 35.4765C43.4101 35.2578 43.6288 35.2578 43.8475 35.4765C43.8475 35.4765 44.0662 35.6952 44.0662 35.914C44.0662 36.1327 44.0662 36.1327 43.8475 36.3514L43.6288 36.5701Z" fill="#1E1E1E"/>
<path d="M60.0326 38.3201C59.8139 38.3201 59.8139 38.3201 59.5952 38.1014C59.5952 38.1014 59.3765 37.8827 59.3765 37.664C59.3765 37.4453 59.3765 37.4452 59.5952 37.2265C59.8139 37.0078 60.0326 37.0078 60.2513 37.2265C60.2513 37.2265 60.47 37.4453 60.47 37.664C60.47 37.8827 60.47 37.8827 60.2513 38.1014L60.0326 38.3201Z" fill="#1E1E1E"/>
<path d="M35.3173 42.4744C35.0986 42.4744 35.0986 42.4744 34.8798 42.2557C34.8798 42.2557 34.6611 42.037 34.6611 41.8183C34.6611 41.5995 34.6611 41.5995 34.8798 41.3808C35.0986 41.1621 35.3173 41.1621 35.536 41.3808C35.536 41.3808 35.7547 41.5995 35.7547 41.8183C35.7547 42.037 35.7547 42.037 35.536 42.2557L35.3173 42.4744Z" fill="#1E1E1E"/>
<path d="M20.2255 41.6014C20.0068 41.6014 20.0068 41.6014 19.7881 41.3826C19.7881 41.3826 19.5693 41.1639 19.5693 40.9452C19.5693 40.7265 19.5693 40.7265 19.7881 40.5078C20.0068 40.2891 20.2255 40.2891 20.4442 40.5078C20.4442 40.5078 20.6629 40.7265 20.6629 40.9452C20.6629 41.1639 20.6629 41.1639 20.4442 41.3826C20.4442 41.6014 20.4442 41.6014 20.2255 41.6014Z" fill="#1E1E1E"/>
<path d="M54.3456 41.6014C54.1269 41.6014 54.1269 41.6014 53.9082 41.3826C53.9082 41.3826 53.6895 41.1639 53.6895 40.9452C53.6895 40.7265 53.6895 40.7265 53.9082 40.5078C54.1269 40.2891 54.3456 40.2891 54.5643 40.5078C54.5643 40.5078 54.783 40.7265 54.783 40.9452C54.783 41.1639 54.783 41.1639 54.5643 41.3826C54.5643 41.6014 54.3456 41.6014 54.3456 41.6014Z" fill="#1E1E1E"/>
<path d="M20.2255 48.1619C20.0068 48.1619 20.0068 48.1619 19.7881 47.9432C19.7881 47.9432 19.5693 47.7245 19.5693 47.5058C19.5693 47.287 19.5693 47.287 19.7881 47.0683C20.0068 46.8496 20.2255 46.8496 20.4442 47.0683C20.4442 47.0683 20.6629 47.287 20.6629 47.5058C20.6629 47.7245 20.6629 47.7245 20.4442 47.9432C20.4442 48.1619 20.4442 48.1619 20.2255 48.1619Z" fill="#1E1E1E"/>
<path d="M31.599 48.1619C31.3803 48.1619 31.3803 48.1619 31.1616 47.9432C31.1616 47.9432 30.9429 47.7245 30.9429 47.5058C30.9429 47.287 30.9429 47.287 31.1616 47.0683C31.3803 46.8496 31.599 46.8496 31.8177 47.0683C31.8177 47.0683 32.0364 47.287 32.0364 47.5058C32.0364 47.7245 32.0364 47.7245 31.8177 47.9432C31.8177 48.1619 31.8177 48.1619 31.599 48.1619Z" fill="#1E1E1E"/>
<path d="M42.9721 48.1619C42.7533 48.1619 42.7533 48.1619 42.5346 47.9432C42.5346 47.9432 42.3159 47.7245 42.3159 47.5058C42.3159 47.287 42.3159 47.287 42.5346 47.0683C42.7533 46.8496 42.9721 46.8496 43.1908 47.0683C43.1908 47.0683 43.4095 47.287 43.4095 47.5058C43.4095 47.7245 43.4095 47.7245 43.1908 47.9432C43.1908 48.1619 43.1908 48.1619 42.9721 48.1619Z" fill="#1E1E1E"/>
<path d="M54.3456 48.1619C54.1269 48.1619 54.1269 48.1619 53.9082 47.9432C53.9082 47.9432 53.6895 47.7245 53.6895 47.5058C53.6895 47.287 53.6895 47.287 53.9082 47.0683C54.1269 46.8496 54.3456 46.8496 54.5643 47.0683C54.5643 47.0683 54.783 47.287 54.783 47.5058C54.783 47.7245 54.783 47.7245 54.5643 47.9432C54.5643 48.1619 54.3456 48.1619 54.3456 48.1619Z" fill="#1E1E1E"/>
<path d="M54.3457 52.5346C52.8147 52.5346 51.9398 51.8785 51.2837 51.4411C50.6276 51.0036 49.9714 50.5662 48.6591 50.5662C47.3469 50.5662 46.9094 51.0036 46.0346 51.4411C45.3784 52.0972 44.5036 52.5346 42.9726 52.5346C41.4416 52.5346 40.5667 51.8785 39.9106 51.4411C39.2545 51.0036 38.5983 50.5662 37.286 50.5662C35.9738 50.5662 35.5363 51.0036 34.6615 51.4411C34.0053 52.0972 33.1305 52.5346 31.5995 52.5346C30.0685 52.5346 29.1936 51.8785 28.5375 51.4411C27.8814 51.0036 27.2252 50.5662 25.9129 50.5662C25.2568 50.5662 24.6007 50.7849 24.1632 51.0037C23.9445 51.2224 23.7258 51.0037 23.5071 50.7849C23.2884 50.5662 23.5071 50.3475 23.7258 50.1288C24.382 49.6914 25.0381 49.4727 25.9129 49.4727C27.4439 49.4727 28.3188 50.1288 28.9749 50.5662C29.6311 51.0037 30.2872 51.4411 31.5995 51.4411C32.9118 51.4411 33.3492 51.0037 34.2241 50.5662C34.8802 49.9101 35.7551 49.4727 37.286 49.4727C38.817 49.4727 39.6919 50.1288 40.348 50.5662C41.0042 51.0037 41.6603 51.4411 42.9726 51.4411C44.2849 51.4411 44.7223 51.0037 45.5972 50.5662C46.2533 49.9101 47.1281 49.4727 48.6591 49.4727C50.1901 49.4727 51.065 50.1288 51.7211 50.5662C52.3773 51.0037 53.0334 51.4411 54.3457 51.4411C55.658 51.4411 56.0954 51.0037 56.9703 50.5662C57.6264 49.9101 58.5012 49.4727 60.0322 49.4727C60.251 49.4727 60.4697 49.6914 60.4697 49.9101C60.4697 50.1288 60.251 50.3475 60.0322 50.3475C58.72 50.3475 58.2825 50.7849 57.4077 51.2224C56.7515 51.8785 55.8767 52.5346 54.3457 52.5346Z" fill="#1E1E1E"/>
<path d="M20.226 52.5346C18.695 52.5346 17.8202 51.8785 17.164 51.4411C16.5079 51.0036 15.8518 50.5662 14.5395 50.5662C14.3208 50.5662 14.1021 50.3475 14.1021 50.1288C14.1021 49.6914 14.3208 49.4727 14.5395 49.4727C16.0705 49.4727 16.9453 50.1288 17.6015 50.5662C18.2576 51.0037 18.9137 51.4411 20.226 51.4411C21.1009 51.4411 21.757 51.2224 21.9757 51.0037C22.1944 50.7849 22.4132 51.0036 22.6319 51.2224C22.8506 51.4411 22.6319 51.6598 22.4132 51.8785C21.9757 52.3159 21.1009 52.5346 20.226 52.5346Z" fill="#1E1E1E"/>
<path d="M63.3125 31.7586C55.0014 31.5399 45.5967 32.1961 41.4412 31.3212C40.785 31.1025 40.1289 31.1025 39.6915 31.1025C38.5979 31.1025 37.5043 32.4148 37.723 33.7271C37.723 34.1645 37.9418 34.3832 38.1605 34.3832C38.5979 34.8206 39.0353 35.6955 39.0353 37.0078C39.0353 40.0698 37.0669 40.9446 35.3172 40.9446C34.2236 40.9446 30.9429 40.5072 30.9429 34.8206C30.9429 34.3832 30.9429 33.9458 30.9429 33.7271C31.1616 32.8522 31.1616 31.7586 29.6306 31.1025C29.4119 30.8838 29.1932 30.8838 28.9745 30.8838C28.3184 30.8838 27.8809 30.8838 27.2248 31.1025C23.288 31.7586 15.8517 31.3212 11.4774 31.5399C10.6026 31.5399 10.6026 32.8522 11.4774 32.8522C15.4143 32.6335 23.288 33.0709 27.4435 32.4148C27.8809 32.4148 28.9745 32.1961 29.1932 32.1961C29.8494 32.4148 29.8494 32.6335 29.6306 33.5084C29.6306 33.9458 29.4119 34.3832 29.4119 34.8206C29.4119 42.0382 34.6611 42.2569 35.0985 42.2569C37.5043 42.2569 40.1289 40.5072 40.1289 36.7891C40.1289 35.0393 39.4727 33.9458 39.0353 33.2896C38.3792 32.4148 39.4728 31.9774 39.4728 31.9774C39.9102 31.9774 40.3476 31.9774 41.0037 32.1961C45.1593 33.0709 55.2201 32.4148 63.0938 32.6335C64.1874 33.0709 64.1874 31.7586 63.3125 31.7586Z" fill="#1E1E1E"/>
<path d="M37.0661 21.2628C36.6287 21.0441 36.1913 21.0441 35.9726 21.4815C33.5667 26.9494 32.4731 31.5423 32.4731 35.0417C32.4731 39.1973 34.6603 39.8534 35.5351 39.8534C37.0661 39.8534 37.941 38.7599 37.941 37.2289C37.941 36.1353 37.5036 35.6979 37.2848 35.2605C36.8474 34.823 36.6287 34.1669 36.6287 32.4172C36.6287 29.7926 37.2848 26.5119 38.3784 23.0125C38.3784 22.3564 37.7223 21.9189 37.0661 21.2628ZM35.5351 38.5412C34.0041 38.5412 33.7854 36.7915 33.7854 35.2605C33.7854 32.4172 34.6603 28.6991 36.41 24.3248C35.5351 27.3868 35.0977 30.0113 35.0977 32.4172C35.0977 34.6043 35.5351 35.2605 35.9726 35.9166C36.1913 36.354 36.41 36.5727 36.41 37.2289C36.41 38.5412 35.7538 38.5412 35.5351 38.5412Z" fill="#1E1E1E"/>
<path d="M39.4735 19.9493C39.6922 20.3868 40.3484 20.3868 40.5671 19.9493C44.0665 14.4815 48.4408 10.1072 48.4408 10.1072C49.0969 9.4511 48.2221 8.57624 47.5659 9.23238C47.5659 9.23238 43.1917 13.1692 39.0361 18.4183C38.8174 18.6371 38.8174 18.8558 39.0361 19.0745L39.4735 19.9493Z" fill="#1E1E1E"/>
<path d="M46.6904 30.2293C47.3465 30.8855 48.2214 30.0106 47.5652 29.3545L30.0682 11.8574C29.412 11.2012 28.5372 12.0761 29.1933 12.7322L46.6904 30.2293Z" fill="#1E1E1E"/>
</svg>
