<svg width="134" height="134" viewBox="0 0 134 134" fill="none" xmlns="http://www.w3.org/2000/svg">
<path d="M0 10C0 4.47715 4.47715 0 10 0H124C129.523 0 134 4.47715 134 10V134H0V10Z" fill="#EDC9B4"/>
<g opacity="0.6">
<path d="M53.2826 49.8459C53.2826 49.8459 55.0406 43.8279 62.2635 42.4386C69.4864 41.0494 83.7545 39.5877 90.0095 51.4656C97.4893 65.6481 90.161 75.0044 95.3033 84.0972C104.594 100.532 90.2136 102.757 96.7913 113.173C104.126 124.781 95.9485 132.478 95.9485 132.478H40.2655C40.2655 132.478 33.1479 130.852 37.7766 120.436C42.4054 110.019 44.486 108.169 41.714 102.612C38.9355 97.055 28.8221 90.0823 36.0779 80.4956C43.3338 70.909 38.6984 42.2082 53.2826 49.8459Z" fill="#72130D"/>
<path d="M54.4675 59.4981C50.5367 61.4734 50.2602 67.2544 49.2264 71.014C47.8701 75.9588 46.1384 80.6599 50.3984 84.6829C50.9384 85.1965 51.9918 84.8673 51.9457 84.0442C51.8338 82.2072 51.2807 80.4427 51.1622 78.6188C51.0174 76.367 51.8272 74.0493 52.1762 71.8304C52.828 67.6692 52.9268 63.7977 55.0667 60.0973C55.2971 59.7023 54.8494 59.3138 54.4741 59.5047L54.4675 59.4981Z" fill="#440908"/>
<path d="M55.8898 57.3716C60.2025 55.3832 65.0814 54.277 69.8089 55.1593C73.9175 55.9297 77.0713 58.4054 79.5536 61.7041C85.6177 69.7764 78.9676 78.4347 80.0343 87.2246C80.1725 88.3505 81.7396 89.088 82.3782 87.8633C84.9395 82.9383 86.0852 77.1046 86.4144 71.5936C86.7239 66.3855 84.9132 62.0728 81.654 58.0959C78.8162 54.6326 74.8261 51.9528 70.2698 51.775C64.9629 51.5709 59.6889 53.7371 55.5606 56.9371C55.2972 57.1412 55.633 57.4901 55.8964 57.3716H55.8898Z" fill="#440908"/>
<path d="M82.6752 67.2282C81.5888 73.3054 81.3715 80.2452 83.9789 85.8879C85.4998 89.5751 89.4043 91.5306 88.5352 95.8697C87.4488 100.209 82.8925 102.381 82.0233 106.721C80.9369 111.06 85.0587 114.101 87.2315 117.354C91.1359 123.214 90.9187 128.205 84.6241 131.675L60.1044 132.979C51.8609 132.327 37.5335 130.371 42.5244 118.658C45.5597 112.146 52.0716 110.414 56.1933 104.989C59.2287 101.084 56.4106 96.7454 53.5925 93.4862C49.9053 89.3644 47.298 86.3225 47.9498 80.4625C48.8189 73.0816 53.5925 67.0109 58.5834 61.8027L82.6686 67.2282H82.6752Z" fill="#440908"/>
<path d="M57.5957 51.3008C64.8318 49.4507 72.6144 46.9355 79.9822 49.5494C84.9401 51.3074 88.1796 56.0744 89.4174 60.9928C90.6289 65.8191 89.2528 71.0075 88.6602 75.8206C88.1401 80.0477 88.6602 83.2279 90.3985 87.0862C91.3729 89.2525 94.2832 90.7537 94.2371 93.0911C94.191 95.2968 91.5705 98.1478 90.8265 100.248C89.4503 104.12 88.489 107.359 89.4372 111.455C90.0759 114.207 90.5302 116.9 90.8199 119.711C91.0898 122.365 90.8791 125.005 91.2018 127.658C91.261 128.126 91.8404 128.218 92.0116 127.77C94.0527 122.562 92.4198 118.039 90.6158 113.055C88.4298 107.037 92.8412 102.059 96.1531 97.2062C99.0502 92.9726 95.7054 89.4171 93.605 85.8616C92.1565 83.4122 89.0685 81.4699 89.0882 78.5465C89.108 75.8469 89.6874 73.1474 90.0298 70.4808C91.0767 62.3426 89.3055 52.6967 80.7328 49.2597C73.3255 46.2968 64.7396 48.5881 57.5365 51.1033C57.4179 51.1428 57.464 51.3272 57.5891 51.2942L57.5957 51.3008Z" fill="#992317"/>
<path d="M57.3055 49.1213C62.7441 44.3543 68.7358 43.3404 75.7085 44.4268C78.5858 44.8745 81.371 45.7765 83.8335 47.3699C94.1576 54.053 92.2811 69.6906 90.477 79.9225C90.4638 79.9949 90.5758 80.0278 90.5889 79.9554C92.8013 69.3416 94.4341 54.0859 84.0508 47.0078C81.4039 45.2037 78.2435 44.3478 75.1094 43.8934C68.0971 42.8795 62.4676 44.1041 57.2331 49.0423C57.1804 49.095 57.2594 49.174 57.3187 49.1279L57.3055 49.1213Z" fill="#992317"/>
<path d="M67.9066 50.5242C73.0094 50.8995 78.3295 51.5514 82.662 54.4814C88.7458 58.5965 89.2857 66.8993 89.4701 73.5494C89.4701 73.5757 89.5096 73.5757 89.5096 73.5494C89.6808 66.761 89.4635 59.8541 84.1171 54.9357C79.8241 50.9917 73.444 50.4189 67.9066 50.3662C67.8013 50.3662 67.8079 50.5176 67.9066 50.5242Z" fill="#992317"/>
<path d="M95.0597 95.4087C92.5446 100.413 89.4631 106.556 92.1758 112.139C93.3742 114.608 95.1585 116.702 96.4161 119.138C98.5165 123.214 96.64 126.256 94.533 129.778C94.3421 130.101 94.7635 130.378 95.0268 130.16C97.193 128.369 99.2671 126.374 100.064 123.609C100.742 121.252 99.1091 118.895 97.7132 117.203C95.1058 114.042 92.4392 111.83 92.0639 107.451C91.7215 103.402 93.7627 99.1485 95.1651 95.4482C95.1914 95.3889 95.0861 95.3428 95.0597 95.4021V95.4087Z" fill="#992317"/>
<path d="M86.8491 83.9455C88.0277 87.0598 90.0425 90.0293 90.3454 93.3939C90.6746 97.0416 88.2779 100.854 86.9676 104.146C85.6837 107.359 85.0845 110.684 85.2821 114.134C85.473 117.426 87.3298 120.389 88.91 123.174C88.9956 123.332 89.226 123.194 89.147 123.036C87.1783 119.105 85.5323 115.794 85.8286 111.27C86.0985 107.076 88.054 103.119 90.0293 99.5041C90.8128 98.0687 91.9256 96.8769 92.268 95.2638C92.5247 94.0523 92.3601 92.8276 92.1099 91.6359C91.4976 88.6861 88.9297 86.1446 87.2442 83.7875C87.1125 83.6031 86.7569 83.7084 86.8491 83.9521V83.9455Z" fill="#992317"/>
<path d="M51.3865 52.6444C47.831 50.195 45.4805 55.8246 44.664 58.3332C42.669 64.4433 44.0846 71.4885 40.6147 77.0522C38.7974 79.9559 36.2691 82.392 35.8279 85.9739C35.3934 89.4767 36.9736 92.3013 39.2188 94.8363C40.2855 96.0412 41.4246 97.1868 42.4978 98.3918C44.4072 100.525 45.408 102.355 45.2566 105.259C45.0459 109.308 43.1233 112.871 42.0237 116.703C42.0106 116.755 42.083 116.768 42.1027 116.722C44.0253 111.692 48.0154 106.793 45.0459 101.46C43.4723 98.6354 41.2797 96.2914 39.5744 93.5523C37.1185 89.5952 36.8353 85.5064 38.7053 81.2661C40.0419 78.2308 41.9513 75.7353 42.6887 72.4366C43.3538 69.4605 43.3142 66.3594 43.8673 63.3635C44.5587 59.6368 46.2179 51.6501 51.3141 52.8156C51.426 52.8419 51.4787 52.697 51.3931 52.6378L51.3865 52.6444Z" fill="#992317"/>
<path d="M52.2092 54.7903C48.6537 56.5614 47.7516 60.2025 47.4685 63.9029C47.2776 66.3917 47.4487 68.9135 47.3829 71.4089C47.2907 74.7274 46.2833 77.3282 44.6373 80.1989C43.2414 82.6351 42.0036 84.6301 41.5361 87.4482C41.1279 89.9107 41.727 92.3205 42.7081 94.5723C44.1369 97.8315 47.3105 99.741 48.4298 103.257C49.6479 107.063 47.4553 111.04 45.6381 114.239C45.5854 114.325 45.7237 114.404 45.7763 114.318C48.4364 110.032 50.4248 105.614 48.364 100.663C47.3302 98.1739 45.6183 95.9879 44.5319 93.5057C43.011 90.0226 43.09 86.342 44.2159 82.7536C45.0389 80.1265 46.7508 77.8747 47.4619 75.1883C47.9557 73.3249 47.9623 71.3102 47.9952 69.4007C48.0874 64.3177 47.5343 58.1746 52.2816 54.9285C52.3672 54.8693 52.2948 54.7442 52.2026 54.7903H52.2092Z" fill="#992317"/>
<path d="M48.0878 81.8909C47.2121 85.8086 47.2186 89.3772 48.924 93.0644C50.0762 95.5599 51.9264 97.6536 52.8416 100.268C54.2375 104.277 51.9791 107.438 49.1149 109.92C48.9964 110.019 49.1544 110.23 49.2795 110.137C53.2959 107.063 57.7271 103.902 54.8564 98.4635C53.4276 95.764 50.7017 93.9928 49.2334 91.2274C47.7125 88.3567 47.7981 85.0316 48.2063 81.9041C48.2129 81.8383 48.1075 81.8251 48.0878 81.8909Z" fill="#992317"/>
<path d="M54.0663 51.2089C54.0465 53.0722 54.0136 55.0409 54.5667 56.8319C55.1197 58.6162 56.1271 60.5322 57.0555 62.1453C57.365 62.6853 58.109 62.4021 58.1551 61.8491C58.2999 60.1701 57.2004 58.8335 56.3642 57.4639C55.1592 55.4952 55.0934 53.2961 54.3757 51.1694C54.323 51.0048 54.0663 51.0311 54.0663 51.2089Z" fill="#440908"/>
<path d="M73.5289 93.5C73.5289 93.5 72.5083 105.76 72.6927 107.472C72.877 109.184 88.4093 115.531 91.359 117.671C94.3088 119.811 94.3944 126.843 93.4528 132.841H41.2726C40.3311 126.843 40.4167 119.811 43.3664 117.671C46.3162 115.531 61.8484 109.184 62.0328 107.472C62.2171 105.76 61.1966 93.5 61.1966 93.5H73.5289Z" fill="#E5805C"/>
<path d="M73.5286 93.5H61.1963C61.1963 93.5 61.7362 100.005 61.9601 104.199C65.6472 103.929 69.3213 103.284 72.8833 102.204C73.1401 98.2143 73.5286 93.5 73.5286 93.5Z" fill="#CC6144"/>
<path d="M67.3657 133.874H95.3027C95.3027 133.874 94.4862 118.276 93.4591 117.499C92.432 116.729 78.3746 110.039 78.3746 110.039C78.3746 110.039 74.7927 113.167 67.3657 113.167C59.9387 113.167 56.3568 110.039 56.3568 110.039C56.3568 110.039 42.2994 116.722 41.2723 117.499C40.2452 118.269 39.4287 133.874 39.4287 133.874H67.3657Z" fill="#FFECE3"/>
<path d="M67.1616 118.783C71.6652 116.083 76.3664 113.641 81.1005 111.343C79.4807 110.566 78.3746 110.039 78.3746 110.039C78.3746 110.039 74.7927 113.167 67.3657 113.167C59.9387 113.167 56.3568 110.039 56.3568 110.039C56.3568 110.039 42.2994 116.722 41.2723 117.499C40.2452 118.269 39.4287 133.874 39.4287 133.874H50.4573C55.04 127.915 60.5642 122.813 67.155 118.79L67.1616 118.783Z" fill="#F9F7ED"/>
<path d="M83.6107 78.041C83.6107 78.041 87.0806 73.9785 90.3332 76.6649C93.599 79.3579 91.5974 89.0104 82.1885 88.6022L83.6107 78.041Z" fill="#E5805C"/>
<path d="M84.7437 86.0408C85.2639 87.035 88.0424 86.719 89.57 83.8878C91.0975 81.0565 90.5378 78.2253 89.7872 78.5545C89.0366 78.8837 83.4927 83.6507 84.7503 86.0408H84.7437Z" fill="#D87350"/>
<path d="M90.0045 78.6732L89.9585 78.5415H89.8399L89.7807 78.5547C86.8573 79.6608 84.7306 82.3999 84.105 85.8829C84.0853 85.9817 84.1116 86.0805 84.1775 86.1595C84.2433 86.2385 84.3421 86.2846 84.4408 86.2846C84.5857 86.2846 84.7042 86.1924 84.7437 86.041C84.7503 86.0146 84.7569 85.9883 84.7635 85.962C85.1519 86.1727 85.5799 86.2846 86.0145 86.2846C86.9824 86.2846 88.0622 85.6986 88.2795 84.3817C88.4309 83.4929 87.9963 82.762 87.2326 82.6106C86.7717 82.5184 86.2844 82.7291 85.8696 83.0254C86.8243 81.2213 88.1807 79.8254 89.9189 78.8641C89.9848 78.8246 90.0243 78.7456 90.0045 78.6732ZM87.4959 84.6056C87.2194 85.2574 86.64 85.6459 85.9355 85.6459C85.5865 85.6459 85.2441 85.5537 84.9281 85.376C85.0861 84.8492 85.2639 84.3488 85.468 83.8682C85.8433 83.5785 86.2515 83.2888 86.7388 83.1505C87.0811 83.0517 87.3248 83.111 87.4762 83.3414C87.6869 83.6641 87.654 84.2369 87.5025 84.6122L87.4959 84.6056Z" fill="#CC6144"/>
<path d="M88.1866 76.652C87.3965 76.3228 85.8623 76.8495 85.9216 77.8569C85.9348 78.1006 86.152 78.2915 86.4022 78.2191C87.1002 78.0281 87.4952 77.2644 88.1866 77.0471C88.3973 76.9812 88.3709 76.7244 88.1866 76.6454V76.652Z" fill="#F48462"/>
<path d="M51.1241 78.041C51.1241 78.041 47.6542 73.9785 44.4016 76.6649C41.1358 79.3579 43.1374 89.0104 52.5463 88.6022L51.1241 78.041Z" fill="#E5805C"/>
<path d="M44.7108 78.8113C43.6704 78.7323 44.6647 84.7635 47.0218 86.2844C49.379 87.812 50.6695 87.621 50.3337 85.6524C49.9979 83.6837 46.8046 78.9628 44.7108 78.8113Z" fill="#D87350"/>
<path d="M44.9546 78.5547L44.8953 78.5415C44.8163 78.5415 44.7504 78.5942 44.7307 78.6732L44.7109 78.8049L44.8097 78.8641C46.5479 79.8254 47.9043 81.2213 48.859 83.0254C48.4508 82.7291 47.957 82.5184 47.4961 82.6106C46.7323 82.762 46.2977 83.4929 46.4492 84.3817C46.6665 85.6986 47.7397 86.2846 48.7142 86.2846C49.1553 86.2846 49.5833 86.1727 49.9652 85.962C49.9718 85.9883 49.9783 86.0146 49.9849 86.041C50.0244 86.1858 50.1429 86.2846 50.2878 86.2846C50.3866 86.2846 50.4853 86.2385 50.5512 86.1595C50.617 86.0805 50.6434 85.9817 50.6236 85.8829C49.9981 82.3999 47.8714 79.6608 44.948 78.5547H44.9546ZM48.7998 85.6459C48.0952 85.6459 47.5092 85.2574 47.2393 84.6056C47.0813 84.2369 47.0483 83.6575 47.2656 83.3348C47.371 83.1768 47.5158 83.1044 47.7134 83.1044C47.799 83.1044 47.8977 83.1176 48.0031 83.1505C48.4837 83.2888 48.8985 83.5785 49.2738 83.8682C49.4779 84.3422 49.6623 84.8492 49.8137 85.376C49.4977 85.5537 49.1487 85.6459 48.8063 85.6459H48.7998Z" fill="#CC6144"/>
<path d="M67.3666 52.3945C66.0102 52.3945 52.9471 56.0488 51.729 62.8174C50.5109 69.586 48.6146 78.8566 51.3932 86.7775C54.1652 94.6984 65.4703 99.0111 67.3666 99.0111C69.2629 99.0111 80.568 94.6984 83.34 86.7775C86.112 78.8566 84.2223 69.586 83.0042 62.8174C81.7861 56.0488 68.7229 52.3945 67.3666 52.3945Z" fill="#E5805C"/>
<path d="M54.9026 79.4429C54.7577 70.0538 57.4836 61.3757 62.1848 53.896C57.9116 55.5618 52.4928 58.5774 51.729 62.8242C50.5109 69.5929 48.6146 78.8635 51.3932 86.7843C53.9413 94.0599 63.686 98.287 66.7213 98.9257C66.2868 98.6755 65.8588 98.4121 65.444 98.129C59.2745 93.9283 55.0738 86.9885 54.9026 79.4429Z" fill="#CC6144"/>
<path d="M70.1642 73.7406C69.2226 76.1372 68.4523 79.3833 69.4663 81.8721C69.6243 82.2606 70.2432 82.3593 70.3617 81.8721C70.6778 80.5816 70.4341 79.3108 70.342 78.0006C70.2432 76.5915 70.1971 75.1693 70.3156 73.7603C70.3222 73.6681 70.1971 73.6681 70.1708 73.7406H70.1642Z" fill="#F48462"/>
<path d="M84.7032 78.343C84.3214 80.7002 83.7354 82.9586 82.9189 85.2038C81.9971 87.7453 80.4366 89.7733 79.1132 92.0843C79.0013 92.2819 79.2449 92.5716 79.4424 92.4135C83.5905 89.2531 84.5189 83.1824 84.7493 78.343C84.7493 78.3167 84.7098 78.3167 84.7098 78.343H84.7032Z" fill="#F48462"/>
<path d="M61.6909 78.9285C60.3345 79.9951 58.4711 80.4099 56.7856 80.0281C55.0342 79.633 54.2375 77.8684 53.4737 76.466C53.4342 76.3935 53.3091 76.4265 53.3157 76.5055C53.4671 78.6783 54.4087 80.2453 56.5354 80.9301C58.3263 81.5029 60.7427 80.4955 61.7238 78.9548C61.7369 78.9351 61.7106 78.9153 61.6909 78.9285Z" fill="#CC6144"/>
<path d="M73.0423 78.9285C74.3987 79.9951 76.262 80.4099 77.9476 80.0281C79.699 79.633 80.4957 77.8684 81.2595 76.466C81.299 76.3935 81.4241 76.4265 81.4175 76.5055C81.2661 78.6783 80.3245 80.2453 78.1978 80.9301C76.4069 81.5029 73.9905 80.4955 73.0094 78.9548C72.9962 78.9351 73.0226 78.9153 73.0423 78.9285Z" fill="#CC6144"/>
<g style="mix-blend-mode:multiply" opacity="0.4">
<path d="M83.9786 80.568C84.4856 82.4379 82.5827 84.5844 79.7186 85.3613C76.8544 86.1383 74.122 85.256 73.615 83.386C73.108 81.5161 75.0108 79.3696 77.875 78.5927C80.7391 77.8158 83.4716 78.698 83.9786 80.568Z" fill="#E24D4D"/>
</g>
<g style="mix-blend-mode:multiply" opacity="0.4">
<path d="M50.7546 80.568C50.2476 82.4379 52.1505 84.5844 55.0146 85.3613C57.8788 86.1383 60.6112 85.256 61.1182 83.386C61.6252 81.5161 59.7224 79.3696 56.8582 78.5927C53.9941 77.8158 51.2616 78.698 50.7546 80.568Z" fill="#E24D4D"/>
</g>
<path d="M68.0842 86.8297C67.9855 86.5992 67.6431 86.4741 67.4324 86.3754C67.0966 86.2174 66.7674 86.1647 66.4119 86.3095C66.0958 86.4412 66.2538 86.8626 66.5304 86.9087C66.7937 86.9548 67.0505 86.9087 67.3205 86.9153C67.5443 86.9153 67.8011 87.0404 68.0118 86.9811C68.0777 86.9614 68.1172 86.8955 68.0842 86.8297Z" fill="#CC6144"/>
<path d="M69.8881 86.7836C70.0527 86.8099 70.2568 86.6321 70.4017 86.5663C70.6058 86.4741 70.8296 86.4807 70.935 86.2502C70.9745 86.1646 70.9284 86.0527 70.856 86.0066C70.6255 85.8618 70.4148 86.033 70.2239 86.1778C70.079 86.2832 69.8025 86.4807 69.7959 86.6716C69.7959 86.7309 69.8354 86.7704 69.8881 86.7836Z" fill="#CC6144"/>
<path d="M75.5581 89.2788C70.5936 88.9496 65.8924 90.2335 62.0801 93.5388C62.0011 93.6112 61.8826 93.4861 61.9682 93.4137C65.6159 90.2466 70.7319 88.3899 75.5647 89.2129C75.6042 89.2195 75.6042 89.2788 75.5647 89.2788H75.5581Z" fill="#A8332D"/>
<path d="M62.1659 93.7293C62.0737 93.6964 61.9815 93.6569 61.8959 93.6174C61.784 93.5647 61.7379 93.4857 61.7181 93.3672C61.705 93.2816 61.7906 93.1828 61.8827 93.2223C61.9815 93.2684 62.0408 93.2948 62.1066 93.3804C62.1593 93.4462 62.2251 93.5055 62.2844 93.5647C62.3634 93.6372 62.2646 93.7688 62.1725 93.7359L62.1659 93.7293Z" fill="#A8332D"/>
<path d="M75.3609 89.4496C75.295 89.3245 75.3477 89.1599 75.4597 89.0743C75.6045 88.9624 75.7823 89.1204 75.6967 89.2784C75.6572 89.3509 75.6243 89.4299 75.5716 89.4891C75.5123 89.555 75.4004 89.5155 75.3675 89.4496H75.3609Z" fill="#A8332D"/>
<path d="M63.3119 92.4656C64.4313 90.8722 66.4724 90.3784 68.2238 89.7792C70.153 89.1142 71.9834 89.0286 73.9916 89.0484C74.0509 89.0484 74.0574 89.1471 73.9982 89.1537C70.2978 89.608 66.9794 91.7282 63.3317 92.4985C63.3119 92.4985 63.2988 92.4788 63.3119 92.4656Z" fill="#A8332D"/>
<path d="M62.4021 76.5054C62.4021 76.5054 61.579 72.9235 57.5956 71.6791C53.6121 70.4281 50.6953 73.8651 53.2829 75.6363C55.8771 77.4074 62.4021 76.5054 62.4021 76.5054Z" fill="#3F1D2B"/>
<path d="M53.2953 75.2682C53.1899 75.8871 53.5586 79.6928 57.068 80.371C60.584 81.0491 62.2498 78.7051 62.4276 77.1183C62.612 75.5315 60.4523 73.0559 58.4705 72.6147C56.4952 72.1736 53.6311 73.3192 53.2887 75.2682H53.2953Z" fill="#F9F7ED"/>
<path d="M58.4775 72.6146C56.5549 72.1866 53.8093 73.2533 53.3418 75.1035C54.3689 74.7611 55.429 74.5833 56.5286 74.5175C58.4314 74.4121 60.3014 74.6228 61.8882 75.7421C62.0198 75.8343 62.1384 75.9397 62.2635 76.045C61.7236 74.5965 60.0446 72.9702 58.4775 72.6212V72.6146Z" fill="#E8E5DD"/>
<path d="M61.1052 76.5057C61.1052 78.0991 59.8147 79.3962 58.2147 79.3962C56.6147 79.3962 55.3242 78.1057 55.3242 76.5057C55.3242 74.9057 56.6147 73.6152 58.2147 73.6152C59.8147 73.6152 61.1052 74.9057 61.1052 76.5057Z" fill="#725F28"/>
<path d="M58.6822 74.7014C59.3406 74.7738 60.0648 74.8463 60.7167 75.0701C60.2163 74.2076 59.2879 73.6216 58.2147 73.6216C57.2863 73.6216 56.4633 74.0627 55.9365 74.7409C56.8386 74.5829 57.7933 74.5961 58.6822 74.7014Z" fill="#3D3F26"/>
<path d="M60.8944 75.7685C60.8944 76.1438 60.5916 76.4467 60.2163 76.4467C59.841 76.4467 59.5381 76.1438 59.5381 75.7685C59.5381 75.3932 59.841 75.0903 60.2163 75.0903C60.5916 75.0903 60.8944 75.3932 60.8944 75.7685Z" fill="#A59568"/>
<path d="M72.3311 76.5054C72.3311 76.5054 73.1541 72.9235 77.1376 71.6791C81.121 70.4281 84.0379 73.8651 81.4502 75.6363C78.8561 77.4074 72.3311 76.5054 72.3311 76.5054Z" fill="#3F1D2B"/>
<path d="M81.4364 75.2682C81.5417 75.8871 81.1796 79.6928 77.6636 80.371C74.1476 81.0491 72.4818 78.7051 72.304 77.1183C72.1196 75.5315 74.2793 73.0559 76.2611 72.6147C78.2364 72.1736 81.1006 73.3192 81.4429 75.2682H81.4364Z" fill="#F9F7ED"/>
<path d="M76.2557 72.6146C78.1783 72.1866 80.9239 73.2533 81.3914 75.1035C80.3642 74.7611 79.3042 74.5833 78.2046 74.5175C76.3018 74.4121 74.4318 74.6228 72.845 75.7421C72.7133 75.8343 72.5948 75.9397 72.4697 76.045C73.0096 74.5965 74.6886 72.9702 76.2557 72.6212V72.6146Z" fill="#E8E5DD"/>
<path d="M73.6279 76.5057C73.6279 78.0991 74.9184 79.3962 76.5184 79.3962C78.1184 79.3962 79.4089 78.1057 79.4089 76.5057C79.4089 74.9057 78.1184 73.6152 76.5184 73.6152C74.9184 73.6152 73.6279 74.9057 73.6279 76.5057Z" fill="#725F28"/>
<path d="M76.0511 74.7014C75.3927 74.7738 74.6684 74.8463 74.0166 75.0701C74.517 74.2076 75.4454 73.6216 76.5186 73.6216C77.447 73.6216 78.27 74.0627 78.7968 74.7409C77.8947 74.5829 76.94 74.5961 76.0511 74.7014Z" fill="#3D3F26"/>
<path d="M77.79 75.7685C77.79 76.1438 78.0929 76.4467 78.4682 76.4467C78.8435 76.4467 79.1464 76.1438 79.1464 75.7685C79.1464 75.3932 78.8435 75.0903 78.4682 75.0903C78.0929 75.0903 77.79 75.3932 77.79 75.7685Z" fill="#A59568"/>
<path d="M82.911 67.5106C80.5472 64.4884 74.4502 65.5221 72.0272 67.9254C71.7177 68.2348 72.0469 68.6497 72.4157 68.597C74.009 68.3665 75.4181 67.4513 76.9983 67.1155C78.7168 66.7534 81.2846 66.5559 82.7134 67.7081C82.8517 67.82 83.0163 67.6554 82.9044 67.5172L82.911 67.5106Z" fill="#3F1D2B"/>
<path d="M52.0112 67.7018C53.3873 66.5956 55.5864 66.7931 57.2457 67.0236C59.0366 67.2738 60.551 68.3338 62.3155 68.5906C62.6843 68.6433 63.0135 68.2285 62.704 67.919C60.281 65.5158 54.1774 64.4821 51.8202 67.5042C51.7083 67.6425 51.8729 67.8071 52.0112 67.6952V67.7018Z" fill="#3F1D2B"/>
<path d="M69.2361 92.7954C69.0057 92.7295 68.7094 92.7559 68.5184 92.9139C68.4262 92.9863 68.3472 93.0785 68.2814 93.1707C68.209 93.2826 68.1958 93.4011 68.1826 93.5328C68.1629 93.7567 68.446 93.8949 68.6238 93.7896C68.6962 93.7501 68.7686 93.7106 68.8279 93.6579C68.8806 93.6118 68.9201 93.5526 68.9793 93.5065C69.0452 93.4538 69.111 93.3287 69.2295 93.2892C69.4534 93.2102 69.4863 92.8744 69.2295 92.802L69.2361 92.7954Z" fill="#CC6144"/>
</g>
<path d="M37.4348 40.3843C34.518 42.083 32.5888 45.1052 32.2728 48.4698C32.1806 49.4311 32.8851 50.2804 33.8464 50.3726C34.2217 50.4055 34.5838 50.3199 34.8867 50.1422C35.3608 49.8656 35.6966 49.3784 35.7492 48.7924C35.9599 46.5472 37.2505 44.5324 39.1928 43.3999C41.1352 42.2674 43.5252 42.1489 45.5795 43.0773C46.4552 43.4723 47.489 43.0773 47.8906 42.2015C48.2857 41.3258 47.8906 40.2921 47.0149 39.8905C43.9335 38.5012 40.3516 38.6856 37.4348 40.3777V40.3843Z" fill="#72130D"/>
<path d="M34.1426 34.7285C29.9747 37.1515 27.0184 41.2469 26.0373 45.9744C25.8398 46.9159 26.4456 47.8443 27.3937 48.0419C27.8348 48.134 28.2694 48.0484 28.6249 47.8443C29.0398 47.6007 29.3492 47.1991 29.4546 46.6921C30.2381 42.9391 32.5887 39.6799 35.9005 37.7507C39.2124 35.8215 43.2091 35.3935 46.8567 36.5721C47.772 36.8684 48.7596 36.3614 49.0559 35.4462C49.3522 34.531 48.8452 33.5433 47.93 33.247C43.3342 31.7656 38.3104 32.3055 34.1426 34.7285Z" fill="#72130D"/>
<path d="M87.198 42.0963C86.2631 41.5169 86.0326 40.4437 86.6384 39.456C87.2178 38.5211 88.3174 38.1919 89.2523 38.7713C90.1873 39.3507 90.4375 40.5095 89.8647 41.4445C89.2523 42.4321 88.133 42.6757 87.198 42.0963ZM98.0621 24.4571C98.7666 24.8917 99.4448 25.5304 99.0234 26.2744C98.8653 26.5312 98.6151 26.8801 98.3189 27.2423C96.9032 29.1319 93.4926 33.4907 91.3725 36.4536L90.3585 35.8281C92.0375 32.5887 94.3815 27.7558 95.4745 25.5172C95.6588 25.1616 95.8958 24.6612 96.0539 24.4044C96.4687 23.7263 97.3378 24.0094 98.0621 24.4637V24.4571Z" fill="#72130D"/>
<path d="M95.9292 47.4888C94.9942 46.9094 94.7374 45.8164 95.3432 44.8287C95.9226 43.8938 97.0221 43.5646 97.9834 44.1637C98.8921 44.7234 99.1423 45.8888 98.5694 46.8238C97.9571 47.8114 96.8378 48.055 95.9292 47.4888ZM99.9192 42.4848C99.1686 41.5498 98.26 39.3046 99.1554 37.8494C99.7678 36.8618 100.861 36.4272 103.343 36.1244C105.463 35.8873 106.655 35.5845 107.254 34.6232C107.833 33.6882 107.708 32.4964 106.563 31.7919C104.844 30.7319 102.836 31.7195 102.5 31.5088C102.112 31.2652 101.75 30.2183 102.138 29.5994C102.362 29.2372 102.652 29.0529 103.225 28.9409C104.489 28.75 105.806 29.2438 106.609 29.7376C108.973 31.1993 109.473 34.3466 108.222 36.3746C107.55 37.4675 106.602 38.1786 104.37 38.4815C102.395 38.7712 101.387 38.8305 100.861 39.6864C100.426 40.391 100.505 41.0823 100.802 42.1621L99.9192 42.4782V42.4848Z" fill="#72130D"/>
</svg>
