<svg width="134" height="134" viewBox="0 0 134 134" fill="none" xmlns="http://www.w3.org/2000/svg">
<path d="M0 10C0 4.47715 4.47715 0 10 0H124C129.523 0 134 4.47715 134 10V134H0V10Z" fill="#EDC9B4"/>
<path d="M69.22 100.333C68.8241 103.582 65.0414 104.958 65.1482 100.886C64.6643 102.275 61.6231 102.721 61.9435 100.377C60.492 103.4 56.238 100.471 58.0603 99.3403C56.9669 101.816 51.9086 99.8367 53.8754 98.1778C52.9077 99.6482 48.5909 99.5979 49.5271 97.2981C49.5837 99.378 45.4114 99.6105 45.3674 97.5683C44.7076 99.2649 39.7624 99.5351 40.862 96.7703C39.9446 98.9884 36.2373 94.7156 39.6996 94.4014C37.029 96.0917 36.5012 92.1582 38.9895 91.2282C37.5129 91.3853 34.2328 91.1025 36.407 88.9535C34.8863 88.4445 32.4672 85.5729 35.1251 86.1824C32.8693 86.4589 30.4815 84.2094 33.5291 83.2606C31.3738 81.9222 32.2786 79.8234 34.7984 79.836C32.354 79.0506 30.3496 75.7705 34.0946 75.4689C31.6691 74.2122 31.3361 71.6862 34.6476 71.4348C31.644 69.9582 34.3648 68.3244 36.4133 68.3998C35.3325 67.4133 33.6171 64.8245 36.6772 65.3711C35.3073 64.2967 34.7481 61.1926 37.249 61.4942C35.4707 61.0229 35.4456 57.8748 37.714 58.2832C36.0677 57.0202 37.4878 55.242 39.2723 56.0211C37.8145 55.1791 37.9465 52.628 39.9698 52.9799C39.0084 52.496 37.9402 50.8309 38.468 49.7061C39.0398 48.4871 40.2525 48.751 41.4401 48.7887C39.5551 46.7026 45.0281 47.4629 45.9141 47.7833C43.2498 46.9539 46.6241 44.7735 48.9428 46.2062C47.4913 43.6801 51.1797 43.1335 52.7192 44.1074C52.4427 40.8965 56.2317 41.3426 57.633 43.1335C55.7416 40.6326 60.7622 40.2933 62.2766 41.8076C62.5028 39.7655 66.0279 39.6209 66.0216 41.8139C65.9588 38.936 68.755 40.7834 69.2262 42.3794C69.6912 40.7771 72.4937 38.936 72.4309 41.8139C72.4309 39.6209 75.9497 39.7655 76.1759 41.8076C77.6903 40.2996 82.7171 40.6326 80.8195 43.1335C82.2207 41.3489 86.0035 40.8965 85.7333 44.1074C87.2728 43.1335 90.9612 43.6801 89.5097 46.2062C91.8284 44.7735 95.2027 46.9539 92.5384 47.7833C93.4244 47.4629 98.8974 46.7026 97.0123 48.7887C98.2062 48.7447 99.4127 48.4808 99.9845 49.7061C100.512 50.8246 99.4441 52.496 98.4827 52.9799C100.506 52.628 100.632 55.1729 99.1802 56.0211C100.965 55.242 102.385 57.0202 100.739 58.2832C103.001 57.8748 102.975 61.0229 101.204 61.4942C103.698 61.1926 103.139 64.2967 101.775 65.3711C104.835 64.8245 103.12 67.4133 102.039 68.3998C104.081 68.3244 106.808 69.9519 103.805 71.4348C107.116 71.6862 106.783 74.2122 104.358 75.4689C108.103 75.7705 106.098 79.0506 103.654 79.836C106.174 79.8234 107.079 81.9222 104.923 83.2606C107.977 84.2031 105.589 86.4589 103.327 86.1824C105.985 85.5729 103.566 88.4508 102.046 88.9535C104.22 91.0962 100.946 91.3853 99.463 91.2282C101.945 92.1582 101.423 96.0917 98.7529 94.4014C102.215 94.7156 98.5078 98.9884 97.5967 96.7703C98.6964 99.5414 93.7449 99.2649 93.0851 97.5683C93.0411 99.6105 88.8751 99.3843 88.9253 97.2981C89.8616 99.5917 85.5448 99.6482 84.5771 98.1778C86.5439 99.8367 81.4856 101.816 80.3922 99.3403C82.2082 100.471 77.9604 103.4 76.5089 100.377C76.8231 102.721 73.7881 102.275 73.3043 100.886C73.4111 104.958 69.6284 103.582 69.2325 100.333H69.22Z" fill="#72130D"/>
<path d="M62.987 97.4112C61.6549 97.8259 55.874 98.448 58.7644 95.9597C56.9862 95.7523 54.3156 96.3744 52.9835 95.545C53.4297 95.3376 53.8758 94.5082 54.5418 94.3008C53.2097 94.0935 52.0975 94.0935 50.9853 93.8861C51.4315 93.4714 51.4315 92.8493 52.0975 92.4346C50.7654 92.8493 47.6487 93.0567 46.7627 91.6052C45.8768 90.1537 46.7627 89.1231 48.541 89.1231C43.2062 86.4275 46.5365 83.5307 51.2115 85.397C49.8794 84.7749 46.3166 83.116 46.7627 81.2561C47.2089 79.5972 49.8794 80.4266 50.7654 81.0487C49.8794 79.5972 47.8749 77.5299 47.8749 75.871C48.7672 75.6637 49.4333 75.6637 50.3193 76.2857C48.541 74.6269 46.5365 70.9007 50.9853 72.1448C49.427 70.9007 47.8749 67.7966 50.9853 67.7966C49.2071 66.3451 46.9827 61.7895 51.4315 63.241C49.4333 60.9663 51.6514 58.478 52.5437 60.759C51.8776 59.1001 53.2097 55.1665 55.2142 58.0633C54.7681 54.9592 57.4386 55.1665 57.8847 58.0633C58.5508 56.6118 58.3309 54.9592 59.2168 53.715C60.549 54.1298 60.9951 55.7886 61.2213 57.0265C61.8874 55.9897 62.1136 54.9529 63.2195 54.3308C63.4394 54.9529 63.8856 55.575 63.6656 56.4044C64.1118 54.9529 64.9978 53.3003 66.3362 52.6782C66.7823 53.093 67.2284 53.715 67.0022 54.7518C67.4484 51.4404 71.2311 52.4709 69.4466 54.9592C71.451 50.6109 77.4519 53.5077 73.4492 56.2033C75.6736 52.6845 81.0084 55.1665 77.2319 57.2401C80.3423 54.5445 84.5712 57.6549 79.9025 58.4843C81.0147 58.0696 83.9051 57.0328 85.0173 58.0696C86.1295 58.899 85.6834 59.7284 84.1313 59.9358C88.134 60.3505 89.9123 62.0094 85.4635 63.662C89.2462 64.2841 91.6905 65.5282 87.2417 67.1808C90.7982 68.2176 91.0245 70.2849 87.4679 71.3217C91.6905 73.1879 93.0289 75.0479 87.6879 76.4994C93.0226 77.3288 89.686 80.2256 86.3557 81.055C91.9167 80.0182 91.0245 83.7444 87.0218 85.4033C93.2488 84.1591 90.1385 88.9221 86.1295 89.9589C87.6879 89.5441 89.2399 89.9589 89.02 91.4104C88.5738 93.0692 83.9051 93.8924 82.573 94.106C84.3513 93.6913 85.6834 94.9355 84.3513 96.387C83.2391 97.4238 79.6825 97.0091 78.3441 96.387C81.4608 96.387 77.4582 99.9058 74.5614 98.2469C77.4519 100.528 67.0022 100.321 69.0004 96.387L62.9996 97.4238L62.987 97.4112Z" fill="#440908"/>
<path d="M44.853 56.9448C43.5271 57.8245 40.4356 59.9358 41.4849 61.8523C42.4526 63.6306 45.6824 60.5013 46.2416 59.7159C45.984 59.5651 45.7327 59.4143 45.475 59.2698C44.8592 60.7087 43.4831 61.89 43.5648 63.5552C43.5774 63.8379 43.8099 64.1333 44.1178 64.1081C45.4185 63.995 46.2165 62.9645 47.4544 62.7886C47.2219 62.6064 46.9831 62.4304 46.7506 62.2482C46.8197 64.2087 45.6258 66.4708 48.6168 66.5085C49.1635 66.5148 49.2892 65.6665 48.7488 65.5471C46.826 65.1386 47.8942 63.5677 47.8691 62.2482C47.8691 61.9717 47.6177 61.6512 47.3098 61.6889C46.0468 61.846 45.2111 62.82 43.9733 63.0148C44.2057 63.1907 44.4445 63.3729 44.677 63.5489C44.5074 62.1288 45.7955 60.8784 46.2919 59.6028C46.4867 59.1127 45.7452 58.8613 45.4813 59.2635C45.1797 59.7222 44.7713 60.0992 44.3628 60.4699C44.1869 60.627 41.6232 62.4932 42.0253 60.7276C42.3269 59.408 44.0801 58.1387 45.1232 57.391C45.3933 57.1962 45.142 56.75 44.8592 56.9385L44.853 56.9448Z" fill="#440908"/>
<path d="M66.2927 39.8282C64.1751 38.5401 61.2406 37.4279 58.8026 38.3767C58.5324 38.4836 58.413 38.7977 58.6329 39.0239C60.65 41.1164 63.5216 39.5329 65.9219 40.6137V39.7905C64.4767 40.4378 60.4678 41.2169 60.1473 43.1083C59.7766 45.3075 63.8609 44.9745 65.0045 44.9557C64.9543 44.5975 64.9103 44.2393 64.86 43.8812C62.9623 44.5347 59.6132 45.6846 59.808 48.1792C60.0153 50.9188 63.8735 49.5553 65.2496 48.8766C65.0925 48.6064 64.9291 48.33 64.772 48.0598C63.1886 49.084 61.9067 50.7869 64.1877 51.7294C64.5835 51.8928 64.8474 51.2393 64.4767 51.0445C62.9309 50.2402 64.8034 49.1468 65.2496 48.8766C65.7837 48.5562 65.3187 47.8084 64.772 48.0598C64.2128 48.3111 63.6661 48.4996 63.0817 48.663C61.4669 49.1154 60.8196 47.312 62.0826 46.382C62.9875 45.716 64.106 45.3013 65.1616 44.9368C65.7271 44.742 65.658 43.8498 65.0171 43.8623C64.4327 43.8749 63.8483 43.8875 63.264 43.8875C61.7936 43.8749 61.0898 43.0894 62.5539 42.304C63.7918 41.6379 65.149 41.2106 66.4246 40.62C66.7325 40.4755 66.7451 39.9351 66.4246 39.7968C65.0171 39.1873 63.5907 39.313 62.0826 39.3695C61.5297 39.3947 60.9767 39.357 60.4301 39.2439C60.4992 39.0805 60.5683 38.9171 60.6374 38.7475C61.2909 38.7412 61.9381 38.8103 62.579 38.9611C63.7918 39.1873 64.9857 39.69 66.0476 40.2869C66.3429 40.4566 66.6006 40.0105 66.3115 39.8345L66.2927 39.8282Z" fill="#440908"/>
<path d="M92.7838 47.8083C91.2255 45.9232 87.9203 44.987 85.6393 45.9232C85.3943 46.0237 85.3 46.2437 85.4068 46.4887C86.6196 49.153 90.1635 49.2095 92.6078 49.9636V49.3038C91.1689 49.5614 86.2426 49.3918 86.0792 51.6664C85.8907 54.2301 89.6671 54.8459 91.5396 55.0659C91.4831 54.8459 91.4202 54.626 91.3637 54.4061C90.3143 54.9402 87.2794 55.3989 87.7695 57.1332C88.1905 58.6161 91.6527 58.0757 92.633 57.906C92.5576 57.7238 92.4759 57.5353 92.4005 57.3531C90.9427 58.1825 89.8808 58.924 89.4346 60.6017C89.3592 60.8845 89.7865 60.9976 89.8682 60.7211C90.3269 59.1313 91.3448 58.5156 92.7021 57.8746C92.9723 57.749 92.8466 57.284 92.5513 57.3091C91.4579 57.4034 90.3772 57.3217 89.2901 57.1646C87.0908 56.8378 90.8107 55.3863 90.3646 55.5685C90.817 55.3863 91.2694 55.2292 91.7093 55.0219C91.9732 54.8962 91.9229 54.4186 91.6276 54.3747C90.8799 54.2678 85.0801 52.8352 87.3987 51.0883C88.8 50.0264 91.1249 50.2212 92.7901 49.9699C93.1545 49.9133 93.0791 49.4043 92.7901 49.3101C90.9678 48.6943 89.0576 48.4304 87.3548 47.4878C85.432 46.4259 87.5181 46.1934 88.4795 46.2311C89.9687 46.2939 91.5836 46.8909 92.6204 47.9779C92.721 48.0848 92.8718 47.9277 92.7775 47.8209L92.7838 47.8083Z" fill="#440908"/>
<path d="M102.392 72.1131C102.298 70.7119 102.046 69.3107 102.002 67.9094C101.99 67.5764 101.475 67.4821 101.405 67.8277C101.097 69.4552 100.991 72.1257 102.103 73.4767C102.668 74.1679 103.611 73.7155 104.07 73.1751C104.811 72.2954 105.1 71.0198 105.402 69.939H104.378C104.623 70.8439 104.579 71.7864 104.811 72.6975C104.893 73.0243 105.308 73.2065 105.597 73.018C105.948 72.7918 106.596 72.264 106.966 72.7666C107.174 73.0431 107.249 73.483 107.4 73.8034C107.601 74.2307 108.229 73.9982 108.242 73.5772C108.261 72.8043 107.94 72.0377 107.268 71.623C106.558 71.1895 105.641 71.711 105.056 72.1006C105.32 72.2074 105.584 72.3142 105.842 72.421C105.597 71.5162 105.634 70.5737 105.402 69.6688C105.27 69.1536 104.522 69.1724 104.378 69.6688C104.164 70.4229 103.938 71.1769 103.605 71.8869C103.454 72.2074 103.259 72.5467 102.964 72.7541C102.712 72.93 102.48 72.0377 102.442 71.9246C102.046 70.5925 102.235 69.1913 101.996 67.8403C101.801 67.8968 101.606 67.9471 101.412 68.0037C101.676 69.3861 101.965 70.7685 102.178 72.1571C102.197 72.2828 102.411 72.2514 102.398 72.1257L102.392 72.1131Z" fill="#440908"/>
<path d="M96.7861 79.3334C96.717 79.478 96.6542 79.6225 96.585 79.767C96.7296 79.8487 96.8678 79.9304 97.0123 80.0121C97.2762 79.0947 97.5402 78.3469 98.2062 77.6117C97.9989 77.5866 97.7915 77.5552 97.5841 77.53C98.3507 78.5354 98.1434 79.8864 98.3507 81.0803C98.4073 81.4196 98.8974 81.5201 99.1173 81.2814C99.6389 80.7158 100.06 80.0686 100.575 79.5031C101.235 78.7805 101.392 81.0363 101.461 81.3505C101.518 81.6018 101.813 81.6898 102.027 81.583C104.144 80.4708 104.427 81.9034 104.678 83.6628C104.741 84.0901 105.344 83.9393 105.382 83.5686C105.64 80.9043 103.968 79.7293 101.637 80.9169C101.826 80.9923 102.014 81.0677 102.203 81.1494C102.02 80.3137 102.203 78.5417 101.04 78.3532C99.997 78.1898 99.0105 79.9932 98.4576 80.6341C98.7152 80.7033 98.9728 80.7724 99.2304 80.8352C98.9477 79.4905 99.1111 78.1647 98.1936 77.0525C98.0617 76.8954 97.7601 76.9017 97.6344 77.0525C96.9306 77.8819 96.3651 78.8245 96.5034 79.9429C96.5348 80.2194 96.9181 80.3011 97.006 80.0121C97.1066 79.6727 97.0877 79.7042 97.0312 79.3272C97.0123 79.1952 96.805 79.2078 96.7798 79.3272L96.7861 79.3334Z" fill="#440908"/>
<path d="M94.8829 90.7382C93.6262 90.6691 92.5454 90.6188 91.4395 91.2597C91.0499 91.486 91.1567 92.0452 91.5589 92.1834C92.2878 92.4222 92.9475 92.7992 93.5948 93.2014C94.5373 93.792 96.4161 95.2373 94.154 95.5137C94.242 95.8468 94.3362 96.1798 94.4242 96.5128C94.8578 96.2238 95.329 96.0102 95.838 95.8845C96.1082 95.8531 96.3784 95.8216 96.6486 95.7902C97.7545 96.959 97.6854 97.8073 96.4287 98.3351C96.0705 98.599 96.2904 99.1143 96.724 99.0388C97.7671 98.8629 98.5588 99.3719 97.4278 99.9877C96.8748 100.289 96.215 100.302 95.6055 100.358C95.2474 100.39 95.1154 100.937 95.5175 101.024C97.8236 101.533 100.5 98.31 96.6235 98.2848C96.6863 98.5236 96.7491 98.7624 96.8183 99.0011C97.7922 98.266 99.1243 97.0721 98.2069 95.7965C97.2455 94.4581 95.084 95.0802 93.8838 95.5954C93.2743 95.8593 93.7518 96.6511 94.2922 96.5694C99.0803 95.8782 93.8901 91.8504 91.8165 91.2158C91.8605 91.5237 91.8982 91.8316 91.9359 92.1332C92.8596 91.5048 93.8084 91.5174 94.8703 91.4922C95.3542 91.4797 95.3542 90.7696 94.8703 90.7445L94.8829 90.7382Z" fill="#440908"/>
<path d="M53.3854 95.6268C52.0281 94.2507 50.2687 93.2076 48.3208 93.0254C48.0192 93.0003 47.7553 93.3019 47.7616 93.5846C47.8056 95.432 49.7849 96.0855 51.3684 95.9913C51.9276 95.9598 52.1098 95.0927 51.5066 94.9733C49.9545 94.6591 46.8756 94.7345 46.5048 96.7453C46.0713 99.1268 49.7598 99.02 51.1861 98.7812C51.0793 98.5236 50.9662 98.2659 50.8594 98.0083C49.2319 98.7749 45.5623 98.6744 45.311 101.081C45.0785 103.337 49.8414 102.382 50.9285 102.445C51.2427 102.463 51.3181 102.036 51.0793 101.885C49.898 101.138 48.0946 101.766 46.7939 101.175C46.0776 100.848 48.5973 99.6672 48.7418 99.6043C49.4393 99.309 50.3127 98.8754 51.073 98.7937C51.5066 98.7498 51.6951 98.0523 51.1861 97.9643C50.1556 97.7884 48.7292 97.8512 47.9187 97.1223C47.0767 96.3746 50.8154 95.8719 51.2301 95.9724C51.2741 95.6331 51.3244 95.2938 51.3684 94.9545C50.2687 94.9859 49.1565 94.6152 48.8612 93.4401C48.679 93.6789 48.503 93.9114 48.3208 94.1502C50.1682 93.9177 51.7517 94.7157 53.1215 95.897C53.3037 96.0541 53.5613 95.8028 53.3854 95.6331V95.6268Z" fill="#440908"/>
<path d="M45.424 81.9536C44.1547 80.0622 41.7041 76.7256 39.0273 77.7875C38.6126 77.9509 38.4555 78.4159 38.7697 78.7678C39.5049 79.5972 40.8621 80.257 41.547 79.0128C42.1817 77.8692 40.6045 76.889 39.6871 76.8073C37.513 76.6125 35.0309 80.8539 37.7266 80.8728C38.2858 80.8728 38.8954 80.1753 38.7446 79.6223C38.4932 78.6987 36.7652 79.2642 36.2877 79.5281C35.2257 80.1125 34.0318 81.099 33.6863 82.3054C33.3155 83.5873 34.899 83.581 35.6656 83.3925C36.1369 83.2794 36.0049 82.6071 35.5588 82.5819C33.9816 82.4814 35.9358 80.8477 36.495 80.4266C36.7526 80.2381 37.0417 80.1062 37.3559 80.0245C37.6324 79.6035 37.9025 79.1762 38.1539 78.7426C38.3236 78.529 39.3289 77.6493 39.5991 77.9446C39.5614 78.2525 39.5237 78.5604 39.4797 78.862C41.4465 77.9195 43.8091 80.9608 44.8396 82.2992C45.0973 82.6322 45.6691 82.3306 45.424 81.9598V81.9536Z" fill="#440908"/>
<path d="M47.0327 77.4292C48.1386 75.7137 46.9761 71.3466 44.3998 72.2578C42.5839 72.8987 43.3819 75.9023 45.2167 75.5127C46.4169 75.255 46.0964 73.1061 45.9456 72.352C45.6691 71.001 44.4313 70.9005 43.3316 71.1896C42.1692 71.4975 41.3712 72.019 40.3218 70.9948C39.6997 70.3853 39.1593 69.9517 38.2859 69.8072C37.0103 69.5935 35.7787 70.3161 36.6522 71.598C36.9161 71.9876 37.5004 71.7425 37.4062 71.2775C37.8712 70.5486 38.4367 70.4544 39.1153 71.001C39.3101 71.2084 39.4924 71.422 39.6557 71.6545C39.9636 72.0504 40.3029 72.44 40.7742 72.6348C41.6162 72.9804 42.4582 72.5971 43.2562 72.2829C44.3119 71.8682 45.0219 72.3206 45.091 73.5019C45.1602 74.7461 44.1045 74.4822 44.2616 73.5208C44.6826 72.8359 45.2167 72.7542 45.8451 73.2757C46.2284 73.6276 46.4609 74.2874 46.6305 74.7524C46.9133 75.5064 47.0829 76.4866 46.6996 77.2344C46.5928 77.448 46.8944 77.6302 47.0264 77.4229L47.0327 77.4292Z" fill="#440908"/>
<path d="M88.7879 61.5254C87.5124 62.8135 86.042 66.5774 88.3921 67.4948C90.9935 68.5065 91.5213 62.9267 91.6847 61.5254H90.8176C90.8176 62.4114 90.7736 64.1143 92.0366 64.1394C93.1739 64.1645 93.9782 62.2166 94.3489 61.4374C94.1102 61.406 93.8651 61.3746 93.6263 61.3432C94.2295 62.9267 95.6308 62.9518 96.7304 61.783C97.5724 60.8845 97.5787 58.5093 95.7942 59.1376C95.4926 59.2445 95.4171 59.6466 95.7062 59.8226C96.3534 60.2247 96.7179 60.3064 96.1963 61.1107C95.6999 61.8836 94.726 62.2292 94.3866 61.1358C94.2861 60.8154 93.8337 60.7337 93.664 61.0416C93.3373 61.6197 92.998 62.1726 92.5707 62.6816C91.6847 63.731 91.7161 62.2606 91.6847 61.5317C91.6658 61.0667 90.9055 60.9159 90.8364 61.4186C90.6228 62.9832 90.4028 64.9877 89.3723 66.2444C88.191 67.6833 87.9899 64.8997 88.0967 64.2902C88.2413 63.4545 88.5429 62.4994 89.0833 61.827C89.2466 61.6259 88.9827 61.3432 88.7942 61.538L88.7879 61.5254Z" fill="#440908"/>
<path d="M79.7269 56.9698C79.5824 56.0398 79.3374 55.2984 78.8284 54.5129C78.6336 54.2176 78.0743 54.2993 78.1058 54.7077C78.2503 56.3289 81.0339 59.8289 82.9002 58.2454C84.8669 56.5677 82.6362 53.3505 80.8517 52.5147C80.6318 52.4079 80.2736 52.5273 80.305 52.8289C80.481 54.5255 81.4926 56.0587 83.1515 54.6135C84.5339 53.407 84.0375 51.7796 82.2592 51.6476C82.0016 51.6288 81.9073 51.9178 81.9953 52.1126C82.3975 53.0237 83.8176 53.6458 84.5842 52.6907C85.6461 51.3774 84.5653 49.8316 83.9055 48.5686C83.6668 48.1162 82.9818 48.5184 83.2269 48.9645C83.3589 49.2159 83.4908 49.4609 83.6353 49.706C83.7107 49.8442 83.7861 49.9887 83.8615 50.127C84.5904 51.1072 84.1443 51.6602 82.5294 51.7984C82.4415 51.9555 82.3535 52.1063 82.2655 52.2634C83.5411 52.3011 83.472 53.2059 82.8248 53.9725C81.7942 55.2041 81.1156 53.9348 81.0339 52.8226C80.8517 52.9295 80.6695 53.03 80.4873 53.1368C81.6811 53.7589 83.2206 55.7382 82.6048 57.1709C81.7691 59.1062 79.1174 55.3675 78.8661 54.6072C78.6524 54.7329 78.4388 54.8585 78.2189 54.9842C78.8472 55.5874 79.0797 56.2723 79.2871 57.0892C79.3625 57.3783 79.7646 57.2463 79.7207 56.9698H79.7269Z" fill="#440908"/>
<path d="M100.576 53.3C100.337 52.9607 99.828 52.967 99.5264 53.2372C99.1431 53.5828 99.0488 54.1295 99.0677 54.6259C99.1431 56.335 100.865 56.8565 102.266 56.3413C102.109 56.0711 101.952 55.8009 101.795 55.5244C100.274 57.1582 102.166 58.7479 103.912 57.9122C103.774 57.8933 103.63 57.8745 103.485 57.8556C103.68 58.0881 103.906 58.1698 104.139 58.3583C104.358 58.5406 104.635 58.3206 104.522 58.063C104.396 57.7865 104.208 57.6797 104.032 57.4284C103.95 57.3027 103.793 57.2147 103.636 57.265C102.85 57.5415 101.493 57.1519 102.48 56.2031C102.832 55.87 102.473 55.2479 102.008 55.3862C101.173 55.6375 100.35 55.625 99.9725 54.7264C99.8531 54.4436 99.8217 54.1295 99.8971 53.8279C99.9725 53.52 100.218 53.6205 100.456 53.5891C100.582 53.5702 100.651 53.388 100.582 53.2875L100.576 53.3Z" fill="#440908"/>
<path d="M52.6314 53.7339C50.363 51.6666 46.907 50.2214 44.1611 52.2259C42.7284 53.2752 43.6144 55.2043 45.2167 54.1926C47.2149 52.9422 41.3523 47.4943 39.4609 51.8363C39.197 52.4395 39.9699 52.9171 40.3532 52.3578C42.2572 49.5742 35.8919 48.883 34.654 50.3282C34.4341 50.5858 34.5409 51.1514 34.9745 51.0948C35.4017 51.0383 40.5103 50.1523 39.4609 51.8363C39.7751 51.9682 40.0893 52.1002 40.4035 52.2321C41.2581 49.9826 43.8783 51.4907 44.7329 52.8228C44.5381 52.5149 47.4411 52.0185 47.4851 52.0185C49.2885 51.8865 51.0605 52.8919 52.4177 53.9413C52.5685 54.0544 52.7759 53.8596 52.6314 53.7276V53.7339Z" fill="#440908"/>
<path d="M36.8096 69.9642C37.0672 69.317 37.1049 68.9525 36.9541 68.2802C36.9164 68.1168 36.7279 68.0665 36.5959 68.1356C35.3392 68.7703 33.6049 70.58 34.0322 72.1132C34.5349 73.9354 36.2943 72.1257 36.42 71.1015C36.4577 70.7936 36.0304 70.5611 35.7854 70.737C34.6983 71.5288 33.2028 73.018 33.6552 74.5449C34.1516 76.2478 35.9047 76.0153 37.262 75.5314C37.1615 75.2989 37.0609 75.0602 36.9667 74.8277C33.7997 76.4174 35.71 78.8994 38.6947 78.3528C39.034 78.2899 38.946 77.7558 38.613 77.7621C38.1606 77.8061 37.7144 77.7621 37.2746 77.6427C36.1938 77.404 36.1875 76.7002 37.262 75.5377C37.7144 75.3555 37.5511 74.6832 37.0546 74.79C36.0744 75.0099 34.4407 75.1921 34.6543 73.6652C34.78 72.7604 35.5152 71.9749 36.2126 71.4659C36.0053 71.3089 35.7979 71.1518 35.5969 70.9884C34.9182 71.3528 34.8303 71.202 35.3392 70.536C35.5529 70.1841 35.7916 69.8448 36.0556 69.5306C36.4012 69.0907 37.1489 68.0539 36.6399 69.9139C36.6085 70.0333 36.7782 70.071 36.8222 69.9642H36.8096Z" fill="#992317"/>
<path d="M41.1578 77.0585C41.2018 77.2659 41.4532 77.379 41.6102 77.5046C41.8365 77.6743 42.0627 77.8188 42.3266 77.9194C42.5088 77.9885 42.5905 77.6931 42.4083 77.6303C42.1695 77.5486 41.9558 77.4167 41.7485 77.2721C41.5725 77.1528 41.4154 76.9642 41.1955 76.9957C41.1641 76.9957 41.1515 77.0397 41.1578 77.0648V77.0585Z" fill="#992317"/>
<path d="M37.7963 59.6404C36.018 60.1368 34.4597 61.425 35.7039 63.2284C36.7218 64.705 39.3169 62.9268 40.2469 62.2858C40.0647 62.1413 39.8762 62.0031 39.694 61.8585C38.5566 64.7113 40.6114 67.2185 42.7227 64.1898C42.4713 64.1206 42.22 64.0578 41.9749 63.9887C41.5728 68.073 45.3429 67.8971 47.1777 65.0381C46.9578 65.0066 46.7442 64.9815 46.5305 64.9501C46.8887 66.7535 46.9075 68.7328 49.2953 67.9725C49.6786 67.8468 49.6346 67.1745 49.1948 67.2373C47.6176 67.451 47.3851 65.9555 47.2154 64.7616C47.1652 64.416 46.7253 64.4662 46.5682 64.6736C45.3429 66.3011 42.509 67.2562 42.7792 63.9824C42.8043 63.6431 42.3142 63.4357 42.0943 63.6996C40.1778 64.0641 39.6186 63.5111 40.4229 62.0533C40.5297 61.7329 40.1464 61.4627 39.8699 61.6261C39.5871 61.802 39.2918 61.9717 38.9965 62.1225C37.6015 63.109 37.2559 62.4743 37.966 60.206C38.3241 60.074 38.1859 59.521 37.8089 59.6279L37.7963 59.6404Z" fill="#992317"/>
<path d="M48.2146 58.7167C47.825 57.6171 47.6553 56.3666 47.6176 55.2105C47.5862 54.3056 48.1203 53.0552 49.1131 54.2239C49.6472 54.8523 50.0745 55.5623 50.7217 56.0839C51.0233 56.3289 51.438 56.2473 51.57 55.8577C51.8402 55.0659 51.947 54.2239 52.1669 53.4196C52.6382 51.6665 54.2342 53.9286 54.7684 54.5067C55.1391 54.9089 55.7926 54.4879 55.6606 53.9852C55.271 52.4834 56.955 52.4205 57.087 53.9852C57.1436 54.6575 58.1929 54.6638 58.1364 53.9852C57.8913 50.8999 53.8007 51.0319 54.6301 54.2742C54.9254 54.0983 55.2271 53.9286 55.5224 53.7527C54.894 53.0678 53.4991 50.8559 52.2612 51.4906C50.8474 52.2132 50.9793 54.2805 50.596 55.5938C50.8474 55.4932 51.0924 55.3927 51.3438 55.2922C50.64 54.7769 48.4282 51.2204 47.2783 53.2437C46.386 54.8272 47.0521 57.3783 47.8752 58.8675C47.9758 59.0497 48.29 58.9241 48.2208 58.723L48.2146 58.7167Z" fill="#992317"/>
<path d="M48.5282 44.9368C48.8423 44.874 49.0308 44.6164 49.2948 44.4342C49.7912 44.0886 50.363 43.8623 50.9285 43.6801C51.582 43.4665 52.889 43.4853 52.1978 44.6164C51.8396 45.1945 51.1359 45.7097 50.4949 45.9422C50.6646 46.2376 50.8342 46.5266 51.0039 46.8219C51.5946 46.2753 52.2732 45.9359 53.0524 45.7411C53.5425 45.6155 54.0452 45.6783 54.4976 45.8982C55.6035 46.4323 54.9877 47.9718 54.818 48.795C54.6987 49.3856 55.6035 49.637 55.7229 49.0463C56.0245 47.5697 56.5083 45.4835 54.6044 44.8614C53.0586 44.3525 51.4123 45.0248 50.2561 46.0867C49.8791 46.4323 50.2687 47.1424 50.7651 46.9664C51.7265 46.6209 52.4868 45.9611 53.0963 45.1568C53.555 44.5473 53.7498 43.2717 52.9015 42.8444C52.0595 42.4171 51.1044 42.6433 50.275 43.0203C49.7158 43.2717 48.1323 43.9126 48.2014 44.7169C48.214 44.8803 48.3459 44.9871 48.5093 44.9494L48.5282 44.9368Z" fill="#992317"/>
<path d="M75.4849 45.8981C75.9121 45.5085 76.3583 45.5588 76.817 45.7975C76.7856 45.5713 76.7604 45.3388 76.729 45.1126C76.1886 45.8101 75.3089 46.0929 74.6366 46.6521C74.4292 46.8218 74.4355 47.2114 74.6366 47.3873C75.2335 47.9026 75.8556 48.3675 76.4085 48.9268C76.6725 49.197 76.905 49.4986 77.0118 49.863C77.2066 50.5228 75.8367 50.6988 75.4597 50.7679C74.8691 50.8747 75.1141 51.8235 75.7111 51.6727C76.8295 51.39 78.2245 50.8621 77.8601 49.4546C77.5584 48.2733 76.1761 47.2679 75.2649 46.5641C75.3026 46.8343 75.334 47.1108 75.3718 47.381C76.0441 46.7464 76.8798 46.4196 77.4139 45.6405C77.5396 45.4582 77.4642 45.1315 77.2568 45.0435C76.685 44.7922 74.5486 44.5471 75.045 45.7787C75.1204 45.9609 75.3278 46.0363 75.4849 45.8918V45.8981Z" fill="#992317"/>
<path d="M92.5134 70.3729C92.4569 71.5857 91.8599 75.1045 93.7953 75.3118C95.9317 75.5381 96.0448 72.0695 96.1265 70.662C96.1516 70.2284 95.4918 70.153 95.385 70.5614C95.1148 71.5605 94.8572 74.0928 96.6417 73.5273C98.131 73.056 98.2001 70.1342 98.087 68.9214C97.8859 68.9466 97.6911 68.978 97.49 69.0031C97.9362 71.4914 99.8213 69.732 100.286 68.2491C100.349 68.048 100.035 67.9098 99.9406 68.1046C99.6139 68.7895 98.4263 70.4672 98.0744 68.846C97.999 68.513 97.4335 68.5884 97.4775 68.9277C97.5906 69.7823 97.3329 70.6934 97.0753 71.504C97.0502 71.5731 96.3527 73.2634 96.0762 72.3271C95.938 71.8622 96.0322 71.2464 96.1139 70.7751C95.8626 70.7437 95.6175 70.706 95.3725 70.6745C95.3913 71.2526 94.6436 75.6574 93.5691 74.1242C92.8967 73.1691 93.1983 71.4851 93.192 70.3855C93.192 69.9457 92.5386 69.9519 92.5134 70.3855V70.3729Z" fill="#992317"/>
<path d="M100.173 66.7473C100.142 67.1431 100.475 67.4322 100.864 67.3254C101.398 67.1808 101.8 66.5839 102.064 66.1378C102.718 65.0256 102.85 63.2599 101.222 63.0274C100.726 62.9583 100.512 63.7186 101.015 63.7877C102.027 63.9322 101.926 64.8559 101.599 65.6162C101.43 66.0121 100.845 67.1494 100.305 66.6907C100.255 66.6467 100.186 66.6782 100.179 66.741L100.173 66.7473Z" fill="#992317"/>
<path d="M96.1836 83.9832C95.8066 84.8377 94.5875 87.3952 96.3972 87.502C97.8864 87.5899 99.5579 85.2085 100.306 84.2094C100.054 84.1402 99.8029 84.0711 99.5516 84.002C99.6144 84.9885 99.1494 85.9311 99.0301 86.905C98.9986 87.1689 99.2751 87.4014 99.5202 87.3952C100.582 87.37 101.072 86.6411 101.644 85.818C101.374 85.7803 101.104 85.7488 100.833 85.7111C100.978 86.7856 100.903 87.967 101.644 88.8404C102.392 89.7264 103.824 88.8907 104.547 88.4696C104.333 88.4131 104.113 88.3565 103.9 88.3C104.164 88.7838 104.447 89.1797 104.824 89.5819C105.043 89.8206 105.376 89.5693 105.326 89.2928C105.219 88.7273 104.962 88.3565 104.717 87.8287C104.604 87.5837 104.283 87.5522 104.07 87.6591C103.271 88.0486 102.373 88.5199 102.015 87.3952C101.833 86.8296 101.77 86.1824 101.707 85.6043C101.669 85.2713 101.223 84.9571 100.953 85.2901C100.582 85.7551 100.205 86.3521 99.5265 86.4149C99.6898 86.5783 99.8532 86.7417 100.017 86.905C100.061 85.9185 100.381 84.9948 100.362 84.002C100.356 83.6753 99.9035 83.4302 99.671 83.713C98.9861 84.5487 98.232 85.3216 97.3649 85.9688C97.2958 86.019 96.3909 86.6034 96.347 86.4903C96.1207 85.8871 96.6171 84.8063 96.8057 84.2345C96.925 83.8763 96.3407 83.6187 96.1899 83.9769L96.1836 83.9832Z" fill="#992317"/>
<path d="M87.5123 94.4704C86.2367 94.8035 83.8364 95.6266 84.515 97.386C85.1057 98.9192 87.7071 98.3788 88.9324 98.5108C88.8319 98.2657 88.7251 98.0144 88.6245 97.7693C87.7448 98.5045 85.866 99.2271 86.4253 100.679C87.1479 102.545 89.9189 101.037 90.4656 102.96C90.5724 103.343 91.1819 103.274 91.1694 102.865C91.1317 101.979 90.6541 101.489 89.8435 101.169C89.0644 100.861 88.3103 101.037 87.6254 100.415C87.0976 99.9309 88.9827 98.6302 89.234 98.3851C89.4477 98.1715 89.3723 97.7191 89.0392 97.6625C88.2098 97.5117 87.3678 97.4551 86.5446 97.2729C84.7287 96.8708 87.3112 95.4884 87.8328 95.2622C88.2915 95.0611 87.9585 94.351 87.4998 94.4767L87.5123 94.4704Z" fill="#992317"/>
<path d="M47.0648 90.8638C48.3404 90.5371 45.9024 87.213 45.1798 86.9491C42.4338 85.95 42.5909 89.8396 43.5649 91.2974C43.9168 91.8189 44.7211 91.6241 44.7462 90.9769C44.7902 89.8144 44.2624 88.231 42.7794 88.8782C41.2525 89.5443 40.3477 91.2345 40.4482 92.862C40.8001 92.7175 41.152 92.5729 41.4976 92.4284C38.9527 90.4114 36.898 94.5649 37.5452 96.7641C37.7023 97.2919 38.5066 97.1914 38.5066 96.6322C38.5066 95.8027 39.0721 91.8503 40.6304 93.2956C40.9823 93.6223 41.7489 93.4338 41.6861 92.862C41.5918 92.0577 41.7552 91.4356 42.1699 90.7444C42.7983 89.7076 43.6277 89.6322 43.4769 90.9769C43.8728 90.8701 44.2686 90.7633 44.6582 90.6565C44.476 90.336 44.344 90.0155 44.2184 89.6699C44.1241 89.3809 44.0613 89.0918 44.0299 88.7902C43.9105 88.1996 44.3001 87.9608 45.1798 88.0802C45.3369 88.1996 47.0837 90.3988 46.914 90.5245C46.7507 90.6439 46.8386 90.9204 47.0586 90.8701L47.0648 90.8638Z" fill="#992317"/>
<path d="M38.148 88.3251C38.0286 87.6401 37.8275 86.3834 37.0043 86.1509C36.0807 85.8933 35.4649 87.1312 35.3078 87.8286C35.1507 88.5513 35.5717 89.3367 36.3069 89.4812C37.1929 89.6572 37.7018 88.7649 37.8841 88.0486C37.9406 87.8224 37.8149 87.5333 37.5636 87.4893C35.5968 87.106 33.5986 89.764 34.937 91.448C35.0062 91.1904 35.0753 90.9265 35.1444 90.6688C34.1013 90.8196 33.4101 90.9265 32.7441 91.8816C32.2351 92.6168 31.7073 93.6347 32.1911 94.5018C32.3796 94.8474 32.8697 94.6715 32.8886 94.3133C32.9263 93.6724 32.9766 93.1571 33.2656 92.5665C33.4353 92.2209 34.4218 90.8699 34.9433 91.448C35.2889 91.8376 35.7853 91.4103 35.7225 90.9956C35.5968 90.1284 35.8356 87.8412 37.3248 88.369C37.218 88.1805 37.1112 87.992 37.0043 87.8035C36.7907 87.8601 36.5708 87.9166 36.3571 87.9732C36.3697 87.1877 36.709 86.9615 37.3814 87.2883C37.6139 87.6087 37.7647 88.036 37.8966 88.3942C37.9532 88.5513 38.1794 88.4947 38.148 88.3251Z" fill="#72130D"/>
<path d="M34.1458 66.0623C34.5165 65.7167 33.9007 63.0775 34.0264 62.3926C33.8127 62.512 33.5991 62.6377 33.3854 62.7571C35.1134 63.3729 35.6664 65.9052 35.9806 67.4949C36.1188 68.1987 37.1619 67.9976 37.187 67.3315C37.2122 66.6466 37.3001 65.968 37.4824 65.3082C37.828 64.0389 38.4437 67.3818 38.3935 66.8289C38.4312 67.2373 38.4249 67.652 38.4249 68.0604C38.4249 68.6825 39.2857 68.6385 39.3612 68.0604C40.0398 66.8351 40.6116 66.6592 41.064 67.5326C41.4222 68.0227 41.573 68.6323 41.617 69.2229C41.6672 69.8261 42.4841 69.8136 42.5407 69.2229C43.1941 69.2732 43.5272 69.5748 43.5397 70.134C43.59 70.3979 43.6529 70.6619 43.7094 70.9258C43.8288 71.4473 44.608 71.2274 44.5074 70.7058C44.2938 69.6376 44.2121 68.2301 42.9554 67.8908C42.0128 67.6332 41.7049 68.4877 41.6107 69.2229H42.5344C42.3584 66.3136 38.9401 64.1081 38.4123 68.0604H39.3486C39.3486 66.9608 39.468 63.8253 37.7148 63.8253C36.1754 63.8253 35.968 66.2445 35.9492 67.3378C36.3513 67.2813 36.7535 67.231 37.1556 67.1745C36.7409 65.1763 35.9177 62.3047 33.6556 61.758C33.31 61.6763 33.021 61.9214 32.9959 62.2607C32.8828 63.7122 33.2849 65.1511 33.731 66.5272C33.7876 66.6969 33.9887 66.7535 34.1143 66.6278C34.284 66.4707 34.2589 66.4895 34.372 66.2508C34.4411 66.1 34.2651 65.9492 34.1332 66.0685L34.1458 66.0623Z" fill="#72130D"/>
<path d="M51.1172 42.5239C49.3263 41.7699 46.1845 41.1038 44.7707 42.8758C44.1863 43.6047 44.224 44.5975 44.8461 45.2699C45.6001 46.0867 47.1899 45.9234 48.1764 45.9108C48.0947 45.6092 48.0131 45.3139 47.9314 45.0122C46.6432 45.804 45.3048 46.3883 44.3811 47.6262C44.1989 47.865 44.3497 48.2106 44.5696 48.3551C45.6755 49.0714 47.0956 48.8264 48.2958 48.4871C48.1764 48.2106 48.0633 47.9278 47.9439 47.6451C47.0579 48.0472 46.2474 48.6379 46.1343 49.6684C46.0149 50.7492 47.4727 50.8874 48.1764 50.856C48.8048 50.8246 48.8111 49.9009 48.1764 49.882C46.7061 49.838 47.4224 48.839 48.2958 48.4934C48.8362 48.2797 48.6414 47.4754 48.0508 47.6074C47.1019 47.8147 45.9834 47.9655 45.1037 47.444C45.1666 47.6891 45.2294 47.9278 45.2922 48.1729C46.0526 47.067 47.2904 46.514 48.4152 45.8542C48.8299 45.6092 48.6477 44.962 48.1701 44.9557C47.5543 44.9557 46.9386 44.9557 46.3228 44.8551C44.6576 44.585 45.2985 43.0392 46.4736 42.6056C47.8434 42.0904 49.6719 42.3857 51.0292 42.8318C51.2177 42.8947 51.2805 42.6119 51.1109 42.5428L51.1172 42.5239Z" fill="#72130D"/>
<path d="M81.5299 45.5339C80.38 45.6973 75.0013 43.2027 76.5847 42.0528C77.9483 41.0663 81.6367 42.1659 82.8369 43.1147C82.8997 42.8822 82.9626 42.6435 83.0254 42.411C81.0712 43.077 79.6134 41.2736 78.8468 39.709C78.696 39.9101 78.5389 40.1049 78.3881 40.306C79.6637 40.5008 80.8199 40.9972 82.02 41.4559C82.3468 41.5815 82.6547 41.148 82.4662 40.8715C81.9823 40.1426 81.4168 39.5331 80.7947 38.9236C80.6754 39.1309 80.556 39.3383 80.4303 39.5456C81.1906 39.6525 81.9446 39.6776 82.705 39.7404C83.0003 39.7656 83.0568 39.2943 82.7741 39.2252C82.0577 39.0492 81.354 38.955 80.6251 38.8293C80.2669 38.7665 79.9904 39.1686 80.2606 39.4514C80.8199 40.0295 81.3351 40.6013 81.775 41.2736C81.9258 41.0788 82.0766 40.8841 82.2211 40.6893C81.0272 40.2243 79.8773 39.7153 78.5955 39.5205C78.2373 39.464 77.9734 39.7781 78.1368 40.1175C79.073 42.0402 80.933 43.9944 83.2391 43.2216C83.5093 43.1336 83.6915 42.7314 83.4213 42.5178C82.0326 41.4119 76.6476 39.5959 75.6485 42.0088C75.0955 43.3347 76.5282 44.2018 77.5147 44.7359C78.4698 45.2512 80.468 46.2314 81.5488 45.603C81.5865 45.5779 81.5613 45.5276 81.5236 45.5339H81.5299Z" fill="#72130D"/>
<path d="M108.04 64.466C106.972 63.2533 106.029 61.9526 104.842 60.8467C104.716 60.7273 104.471 60.6959 104.352 60.8467C103.535 61.8458 103.547 62.8826 103.566 64.1393C103.573 64.7174 104.465 64.7174 104.458 64.1393C104.396 57.5038 96.7988 62.0343 97.6094 63.5926C97.7853 63.9256 98.2566 63.7434 98.2754 63.4104C98.3257 62.6124 99.9783 61.8583 100.563 61.6133C102.63 60.7524 103.554 62.1599 103.56 64.133H104.452C104.452 63.9256 104.251 61.1797 105.414 62.2165C106.262 62.9768 106.997 63.8754 107.814 64.6734C107.952 64.8116 108.153 64.6043 108.028 64.4597L108.04 64.466Z" fill="#72130D"/>
<path d="M98.7098 96.5379C99.1245 96.01 99.5518 95.4948 100.029 95.0172C100.331 94.7156 100.67 94.4203 101.085 94.2883C101.764 94.0684 101.148 95.4697 101.129 95.5011C101.003 95.7398 100.815 95.9409 100.639 96.142C100.23 96.607 100.896 97.2856 101.324 96.8269C101.94 96.1671 102.706 96.142 103.027 97.0783C103.391 98.1213 102.524 98.9005 101.801 99.4786C101.531 99.6985 101.877 100.038 102.141 99.9184C103.498 99.3278 104.151 97.8197 103.567 96.4499C103.001 95.1366 101.531 95.3503 100.645 96.142C100.871 96.3682 101.098 96.5944 101.33 96.8269C101.927 96.1986 103.096 93.5092 101.299 93.4966C99.9477 93.4903 98.9549 95.2309 98.2825 96.1986C98.1003 96.4625 98.5276 96.7892 98.7224 96.5379H98.7098Z" fill="#72130D"/>
<path d="M103.843 79.0001C104.245 78.2021 104.836 77.6115 105.684 77.3099C105.583 77.2659 105.477 77.2282 105.376 77.1842C105.596 77.6806 105.426 78.2147 105.294 78.6985C105.225 78.9562 105.54 79.2578 105.785 79.0755C106.438 78.5854 107.01 77.8879 107.808 77.6366C108.857 77.3099 107.77 79.7102 107.701 79.9867C107.626 80.2946 107.984 80.6464 108.279 80.4328C109.083 79.8547 109.618 77.7686 108.706 77.0648C107.481 76.1223 106.199 77.844 105.382 78.5477C105.565 78.6545 105.753 78.7614 105.935 78.8745C106.074 78.2021 106.18 77.5361 105.847 76.9077C105.772 76.7632 105.609 76.7506 105.477 76.8072C104.534 77.2093 103.881 77.9068 103.604 78.8933C103.566 79.0378 103.774 79.1321 103.843 78.9939V79.0001Z" fill="#72130D"/>
<path d="M95.2027 46.0238C95.7368 45.1943 93.77 44.0633 93.2359 43.8057C92.5259 43.4726 90.9361 43.4664 91.1435 44.6665C91.3383 45.785 93.0474 46.2563 93.946 46.5705C95.1901 47.004 96.5977 47.425 97.9235 47.4753C98.4262 47.4941 98.5456 46.6898 98.0429 46.5893C96.7987 46.3317 93.6381 46.6961 93.8077 48.6189C93.9711 50.4914 96.5097 51.0444 98.0617 50.9878C98.3822 50.9753 98.5393 50.5228 98.2314 50.3595C97.3831 49.8945 96.3715 49.8128 95.4918 49.4169C94.3419 48.8954 94.9514 47.9717 95.8436 47.6198C96.4469 47.381 97.1569 47.3433 97.7915 47.4627C97.8293 47.1674 97.8732 46.8721 97.9109 46.5767C96.4217 46.539 94.8194 46.0112 93.437 45.496C93.0537 45.3514 92.6955 45.1755 92.35 44.9619C91.665 44.5471 91.9855 44.1387 92.7584 44.2769C93.7826 44.4592 94.5932 45.1881 95.1273 46.0301C95.1399 46.0552 95.1776 46.0552 95.1901 46.0301L95.2027 46.0238Z" fill="#72130D"/>
<path d="M61.4411 100.283C60.2409 99.397 58.6386 98.8817 57.2248 98.4859C56.1377 98.1842 54.3406 97.7758 53.5175 98.8315C51.2742 101.716 57.4573 102.011 58.8711 101.791C59.2607 101.728 59.223 101.125 58.8711 101.037C57.5327 100.71 55.8047 100.654 55.258 102.218C54.6548 103.94 57.1494 104.681 58.3307 104.694C58.7706 104.694 58.8208 104.091 58.4312 103.959C57.7589 103.733 56.3451 103.444 56.2508 102.539C56.144 101.452 58.1485 101.64 58.6637 101.797C58.7014 101.54 58.7329 101.288 58.7706 101.031C57.828 101.081 56.8792 100.974 55.9618 100.786C55.1952 100.622 53.3101 99.5792 55.013 99.1456C56.8038 98.6932 59.7508 99.5981 61.3154 100.515C61.4662 100.603 61.5793 100.39 61.4474 100.289L61.4411 100.283Z" fill="#72130D"/>
<path d="M48.3209 94.8035C47.3784 92.8493 44.8335 93.5279 43.5391 94.728C42.9673 95.2622 42.5651 96.1356 43.049 96.8519C43.7402 97.8761 45.5561 97.4866 46.5301 97.2729C46.4673 97.0404 46.4044 96.8079 46.3416 96.5754C45.1288 96.921 43.6271 97.4928 42.8416 98.5359C42.0185 99.6355 43.049 100.295 44.1172 100.276C43.9852 100.05 43.8596 99.824 43.7276 99.5978C43.2815 100.49 42.0939 100.779 41.5032 101.602C41.3147 101.866 41.5032 102.275 41.8048 102.344C42.3264 102.463 42.6845 102.501 43.1998 102.363C43.6082 102.256 43.5265 101.609 43.0992 101.627C42.7976 101.558 42.496 101.489 42.1944 101.42C42.2572 101.653 42.3138 101.879 42.3766 102.111C42.8542 101.294 43.8344 100.88 44.4377 100.145C44.6324 99.9057 44.601 99.4659 44.2366 99.3905C43.294 99.1957 43.6585 98.9758 44.2491 98.4354C44.8021 97.9264 45.6692 97.3106 46.4421 97.2855C46.9071 97.2666 46.9071 96.5629 46.4421 96.5629C45.3802 96.5629 43.1181 96.6257 44.5508 95.2307C45.487 94.3196 47.1333 93.6913 48.0382 94.9794C48.1638 95.1616 48.4277 95.0045 48.3272 94.8097L48.3209 94.8035Z" fill="#72130D"/>
<path d="M69.4593 38.7851C70.1443 38.2824 70.9674 37.5975 71.8408 37.497C72.7205 37.3965 71.7214 38.427 71.6775 38.4647C71.4324 38.6469 71.1434 38.7788 70.8669 38.9108C70.4019 39.137 69.9055 39.3004 69.4216 39.4826C69.0698 39.6146 69.208 40.1738 69.5787 40.0607C70.094 39.9036 70.6093 39.8094 71.1496 39.7968C71.489 39.7905 71.8974 39.8408 72.1173 40.1361C72.4378 40.5634 71.866 40.9216 71.5895 41.1164C70.7663 41.7007 69.3965 41.9709 68.8184 42.8192C68.6739 43.0329 68.9127 43.2842 69.1389 43.2339C69.9369 43.0454 70.7035 42.5113 71.4073 42.0966C71.9288 41.7824 72.7959 41.2923 72.8776 40.6074C73.1038 38.7223 70.4647 39.137 69.4216 39.4826C69.4719 39.6774 69.5285 39.8659 69.5787 40.0607C70.4019 39.7277 73.3489 38.8291 72.5634 37.4216C71.8911 36.2089 69.8804 37.9494 69.252 38.4333C69.0446 38.5903 69.2457 38.9485 69.4593 38.7914V38.7851Z" fill="#72130D"/>
<path d="M74.9829 95.4634C74.9829 95.4634 74.0089 107.163 74.1848 108.797C74.3608 110.431 89.1838 116.488 91.9989 118.53C94.8139 120.573 94.8956 127.284 93.9971 133.008H44.1995C43.3009 127.284 43.3826 120.573 46.1977 118.53C49.0127 116.482 63.8358 110.431 64.0117 108.797C64.1876 107.157 63.2137 95.4634 63.2137 95.4634H74.9829Z" fill="#E5805C"/>
<path d="M74.9831 95.4634H63.2139C63.2139 95.4634 63.7291 101.672 63.9428 105.674C67.4616 105.417 70.9678 104.801 74.3673 103.77C74.6123 99.9624 74.9831 95.4634 74.9831 95.4634Z" fill="#CC6144"/>
<path d="M69.1008 133.994H95.7621C95.7621 133.994 94.983 119.108 94.0027 118.367C93.0225 117.632 79.607 111.248 79.607 111.248C79.607 111.248 76.1887 114.232 69.1008 114.232C62.0129 114.232 58.5946 111.248 58.5946 111.248C58.5946 111.248 45.1791 117.632 44.1989 118.367C43.2186 119.102 42.4395 133.994 42.4395 133.994H69.1008Z" fill="#FFECE3"/>
<path d="M68.9001 119.592C73.1981 117.016 77.6846 114.685 82.2025 112.492C80.6568 111.75 79.6011 111.248 79.6011 111.248C79.6011 111.248 76.1828 114.232 69.0949 114.232C62.007 114.232 58.5887 111.248 58.5887 111.248C58.5887 111.248 45.1732 117.632 44.193 118.367C43.2128 119.102 42.4336 133.994 42.4336 133.994H52.9586C57.332 128.308 62.604 123.438 68.8939 119.598L68.9001 119.592Z" fill="#F9F7ED"/>
<path d="M84.6024 80.7031C84.6024 80.7031 87.9138 76.8261 91.0179 79.3835C94.1346 81.9535 92.2244 91.1653 83.2451 90.7757L84.6024 80.6968V80.7031Z" fill="#E5805C"/>
<path d="M85.6764 88.3438C86.1728 89.2989 88.8245 88.991 90.276 86.289C91.7338 83.5871 91.1997 80.8851 90.4834 81.1993C89.767 81.5135 84.4762 86.0628 85.6764 88.3438Z" fill="#D87350"/>
<path d="M90.7034 81.3127L90.6594 81.187H90.5463L90.4898 81.1996C87.6998 82.2552 85.6702 84.8692 85.0733 88.1932C85.0544 88.2875 85.0733 88.3817 85.1424 88.4571C85.2052 88.5325 85.2995 88.5765 85.3938 88.5765C85.532 88.5765 85.6451 88.4886 85.6828 88.344C85.6828 88.3189 85.6954 88.2938 85.7017 88.2686C86.0724 88.4697 86.4808 88.5765 86.8955 88.5765C87.8192 88.5765 88.8497 88.0173 89.0571 86.7606C89.1953 85.9123 88.7869 85.2148 88.058 85.0703C87.6181 84.9823 87.1532 85.1834 86.7573 85.4661C87.6684 83.7444 88.9628 82.4123 90.6217 81.4949C90.6846 81.4572 90.7223 81.3818 90.7034 81.3127ZM88.3093 86.9742C88.0454 87.5963 87.4862 87.967 86.8201 87.967C86.4871 87.967 86.1604 87.879 85.8587 87.7094C86.0095 87.2067 86.1792 86.7291 86.374 86.2704C86.7322 85.994 87.1217 85.7175 87.5867 85.5855C87.9135 85.4913 88.146 85.5478 88.2905 85.7678C88.4979 86.0757 88.4602 86.6223 88.3156 86.9805L88.3093 86.9742Z" fill="#CC6144"/>
<path d="M88.963 79.3834C88.2089 79.0692 86.7448 79.5719 86.8014 80.5333C86.814 80.7658 87.0213 80.948 87.2601 80.8789C87.9262 80.6967 88.3032 79.9678 88.963 79.7604C89.164 79.6976 89.1389 79.4525 88.963 79.3771V79.3834Z" fill="#F48462"/>
<path d="M53.5933 80.7031C53.5933 80.7031 50.2818 76.8261 47.1777 79.3835C44.061 81.9535 45.9713 91.1653 54.9505 90.7757L53.5933 80.6968V80.7031Z" fill="#E5805C"/>
<path d="M47.4791 81.4382C46.4863 81.3628 47.4351 87.1186 49.6846 88.5701C51.9342 90.0279 53.1658 89.8457 52.8453 87.9669C52.5248 86.0881 49.4773 81.5828 47.4791 81.4382Z" fill="#D87350"/>
<path d="M47.7052 81.1996L47.6486 81.187C47.5732 81.187 47.5104 81.2373 47.4915 81.3127L47.4727 81.4446L47.5669 81.4949C49.2258 82.4123 50.5265 83.7444 51.4313 85.4661C51.0417 85.1834 50.5705 84.9823 50.1306 85.0703C49.4017 85.2148 48.987 85.9123 49.1315 86.7606C49.3389 88.0173 50.3631 88.5765 51.2931 88.5765C51.7141 88.5765 52.1225 88.4697 52.487 88.2686C52.4933 88.2938 52.4995 88.3189 52.5058 88.344C52.5435 88.4823 52.6566 88.5765 52.7949 88.5765C52.8891 88.5765 52.9834 88.5325 53.0462 88.4571C53.1091 88.3817 53.1279 88.2938 53.1153 88.1932C52.5184 84.8692 50.4888 82.2552 47.6989 81.1996H47.7052ZM51.3811 87.967C50.7087 87.967 50.1495 87.5963 49.8918 86.9742C49.741 86.6223 49.7096 86.0694 49.917 85.7615C50.0175 85.6107 50.1558 85.5415 50.3505 85.5415C50.4322 85.5415 50.5265 85.5541 50.627 85.5855C51.0857 85.7175 51.4816 85.994 51.8398 86.2704C52.0346 86.7229 52.2105 87.2067 52.355 87.7094C52.0534 87.879 51.7204 87.967 51.3936 87.967H51.3811Z" fill="#CC6144"/>
<path d="M69.1009 56.2349C67.8065 56.2349 55.3398 59.7223 54.1774 66.1818C53.0149 72.6414 51.2052 81.4887 53.8569 89.0478C56.5023 96.607 67.2912 100.723 69.1009 100.723C70.9106 100.723 81.6996 96.607 84.345 89.0478C86.9903 81.4887 85.1807 72.6414 84.0245 66.1818C82.862 59.7223 70.3953 56.2349 69.1009 56.2349Z" fill="#E5805C"/>
<path d="M57.2061 82.0479C57.0741 73.0874 59.6692 64.8057 64.1557 57.6675C60.0777 59.2572 54.9063 62.1351 54.1774 66.188C53.0149 72.6476 51.2052 81.4949 53.8569 89.0541C56.2887 95.9975 65.5884 100.032 68.4851 100.641C68.0704 100.396 67.662 100.151 67.2661 99.8807C61.3784 95.8718 57.3694 89.2489 57.2061 82.0479Z" fill="#CC6144"/>
<path d="M71.7647 76.6061C70.8662 78.8933 70.131 81.9849 71.0987 84.3664C71.2495 84.7434 71.8401 84.8314 71.9533 84.3664C72.2549 83.1348 72.0224 81.922 71.9344 80.6716C71.8401 79.3269 71.7962 77.9697 71.9093 76.625C71.9156 76.5433 71.7962 76.537 71.771 76.6061H71.7647Z" fill="#F48462"/>
<path d="M85.6459 80.9983C85.2815 83.2479 84.7222 85.4031 83.9431 87.5459C83.0634 89.9713 81.5741 91.9067 80.3111 94.1122C80.2043 94.3007 80.4368 94.5772 80.6253 94.4264C84.584 91.4103 85.4637 85.6168 85.6899 80.9983C85.6899 80.9732 85.6522 80.9732 85.6522 80.9983H85.6459Z" fill="#F48462"/>
<path d="M63.6776 81.5574C62.3831 82.5753 60.6049 82.9712 58.9963 82.6067C57.3248 82.2297 56.5645 80.5457 55.8356 79.2073C55.7979 79.1382 55.6785 79.1696 55.6848 79.245C55.8293 81.3186 56.7279 82.8141 58.7575 83.4676C60.4666 84.0143 62.7727 83.0529 63.709 81.5825C63.7215 81.5637 63.6964 81.5448 63.6776 81.5574Z" fill="#CC6144"/>
<path d="M74.5172 81.5574C75.8116 82.5753 77.5899 82.9712 79.1985 82.6067C80.8699 82.2297 81.6303 80.5457 82.3592 79.2073C82.3969 79.1382 82.5162 79.1696 82.51 79.245C82.3654 81.3186 81.4669 82.8141 79.4373 83.4676C77.7281 84.0143 75.4221 83.0529 74.4858 81.5825C74.4732 81.5637 74.4984 81.5448 74.5172 81.5574Z" fill="#CC6144"/>
<g style="mix-blend-mode:multiply" opacity="0.4">
<path d="M84.9538 83.1221C85.4376 84.9067 83.6217 86.9551 80.8883 87.6966C78.1549 88.4381 75.5472 87.596 75.0634 85.8115C74.5795 84.027 76.3955 81.9785 79.1289 81.237C81.8622 80.4956 84.4699 81.3376 84.9538 83.1221Z" fill="#E24D4D"/>
</g>
<g style="mix-blend-mode:multiply" opacity="0.4">
<path d="M53.247 83.1221C52.7631 84.9067 54.5791 86.9551 57.3125 87.6966C60.0458 88.4381 62.6535 87.596 63.1374 85.8115C63.6212 84.027 61.8052 81.9785 59.0719 81.237C56.3385 80.4956 53.7308 81.3376 53.247 83.1221Z" fill="#E24D4D"/>
</g>
<path d="M69.7792 89.098C69.685 88.878 69.3582 88.7649 69.1571 88.6644C68.8367 88.5136 68.5225 88.4633 68.1832 88.6016C67.8816 88.7272 68.0324 89.1294 68.2963 89.1734C68.5476 89.2173 68.7927 89.1734 69.0503 89.1796C69.264 89.1796 69.509 89.299 69.7101 89.2425C69.7729 89.2236 69.8106 89.1608 69.7792 89.098Z" fill="#CC6144"/>
<path d="M71.5011 89.0537C71.6581 89.0788 71.8529 88.9092 71.9912 88.8463C72.186 88.7583 72.3996 88.7646 72.5001 88.5447C72.5316 88.463 72.4939 88.3562 72.4247 88.3122C72.2048 88.174 72.0037 88.3373 71.8215 88.4756C71.6833 88.5761 71.4194 88.7646 71.4131 88.9469C71.4131 89.0034 71.4508 89.0411 71.5011 89.0537Z" fill="#CC6144"/>
<path d="M76.9548 90.5869C72.8516 92.981 68.2897 93.8795 63.6273 92.6731C63.5267 92.6479 63.4827 92.7987 63.5833 92.8302C68.0446 93.9863 73.2035 93.402 76.9862 90.6435C77.0176 90.6183 76.9862 90.5743 76.9548 90.5932V90.5869Z" fill="#A8332D"/>
<path d="M63.6208 92.4722C63.558 92.5413 63.4952 92.6105 63.4386 92.6859C63.3632 92.7801 63.3569 92.8681 63.3946 92.9812C63.4198 93.0629 63.5391 93.1069 63.5957 93.0315C63.6585 92.9561 63.6962 92.9058 63.7214 92.8053C63.7402 92.7236 63.7654 92.6482 63.7968 92.5728C63.8345 92.4722 63.6962 92.4031 63.6271 92.4722H63.6208Z" fill="#A8332D"/>
<path d="M76.7158 90.5243C76.7158 90.6625 76.8289 90.7756 76.9609 90.807C77.1305 90.8447 77.2185 90.6311 77.0803 90.5305C77.0112 90.4866 76.9546 90.4363 76.8792 90.4049C76.7975 90.3735 76.7221 90.4551 76.7221 90.5243H76.7158Z" fill="#A8332D"/>
<path d="M65.1358 93.0628C66.7695 93.9488 68.7237 93.5026 70.4768 93.2701C72.4059 93.0188 74.0082 92.315 75.7174 91.4416C75.7676 91.4165 75.7299 91.3285 75.6797 91.3474C72.3242 92.5287 68.5855 92.1328 65.1421 93.0188C65.1232 93.0188 65.1232 93.0502 65.1421 93.0565L65.1358 93.0628Z" fill="#A8332D"/>
<path d="M64.356 79.2454C64.356 79.2454 63.5642 75.8271 59.7689 74.6395C55.9673 73.4457 53.1837 76.7257 55.6532 78.416C58.1289 80.1063 64.356 79.2454 64.356 79.2454Z" fill="#3F1D2B"/>
<path d="M55.6725 78.0641C55.572 78.6485 55.9238 82.2867 59.273 82.9339C62.6285 83.5811 64.2182 81.3441 64.3879 79.8298C64.5638 78.3154 62.5028 75.9528 60.6114 75.5318C58.7263 75.1108 55.993 76.2041 55.6662 78.0641H55.6725Z" fill="#F9F7ED"/>
<path d="M60.6112 75.5317C58.7764 75.1233 56.1561 76.1412 55.71 77.9069C56.6902 77.5802 57.7019 77.4105 58.7512 77.3414C60.5672 77.2408 62.3517 77.4419 63.8661 78.5101C63.9918 78.5981 64.1049 78.6986 64.2242 78.7992C63.709 77.4168 62.1067 75.8647 60.6112 75.5317Z" fill="#E8E5DD"/>
<path d="M63.1244 79.2453C63.1244 80.766 61.8928 82.0038 60.3659 82.0038C58.839 82.0038 57.6074 80.766 57.6074 79.2453C57.6074 77.7247 58.8453 76.4868 60.3659 76.4868C61.8866 76.4868 63.1244 77.7184 63.1244 79.2453Z" fill="#725F28"/>
<path d="M60.8126 77.5173C61.441 77.5864 62.1322 77.6556 62.7543 77.8692C62.2767 77.0461 61.3907 76.4868 60.3665 76.4868C59.4805 76.4868 58.6951 76.9078 58.1924 77.555C59.0532 77.4042 59.9644 77.4168 60.8126 77.5173Z" fill="#3D3F26"/>
<path d="M62.9233 78.5349C62.9233 78.8931 62.6343 79.1821 62.2761 79.1821C61.918 79.1821 61.6289 78.8931 61.6289 78.5349C61.6289 78.1767 61.918 77.8877 62.2761 77.8877C62.6343 77.8877 62.9233 78.1767 62.9233 78.5349Z" fill="#A59568"/>
<path d="M73.8379 79.2454C73.8379 79.2454 74.6233 75.8271 78.4249 74.6395C82.2265 73.4457 85.0101 76.7257 82.5407 78.416C80.0649 80.1063 73.8379 79.2454 73.8379 79.2454Z" fill="#3F1D2B"/>
<path d="M82.5286 78.0641C82.6292 78.6485 82.2836 82.2867 78.9281 82.9339C75.5727 83.5811 73.9829 81.3441 73.8133 79.8298C73.6373 78.3154 75.6983 75.9528 77.5897 75.5318C79.4748 75.1108 82.2082 76.2041 82.5349 78.0641H82.5286Z" fill="#F9F7ED"/>
<path d="M77.5838 75.5317C79.4186 75.1233 82.0388 76.1412 82.485 77.9069C81.5047 77.5802 80.4931 77.4105 79.4437 77.3414C77.6278 77.2408 75.8432 77.4419 74.3289 78.5101C74.2032 78.5981 74.0901 78.6986 73.9707 78.7992C74.486 77.4168 76.0883 75.8647 77.5838 75.5317Z" fill="#E8E5DD"/>
<path d="M75.0762 79.2453C75.0762 80.766 76.3078 82.0038 77.8347 82.0038C79.3616 82.0038 80.5932 80.766 80.5932 79.2453C80.5932 77.7247 79.3616 76.4868 77.8347 76.4868C76.3078 76.4868 75.0762 77.7184 75.0762 79.2453Z" fill="#725F28"/>
<path d="M77.3821 77.5173C76.7537 77.5864 76.0625 77.6556 75.4404 77.8692C75.918 77.0461 76.804 76.4868 77.8282 76.4868C78.7142 76.4868 79.4996 76.9078 80.0023 77.555C79.1415 77.4042 78.2304 77.4168 77.3821 77.5173Z" fill="#3D3F26"/>
<path d="M79.0479 78.5349C79.0479 78.8931 79.3369 79.1821 79.6951 79.1821C80.0532 79.1821 80.3423 78.8931 80.3423 78.5349C80.3423 78.1767 80.0532 77.8877 79.6951 77.8877C79.3369 77.8877 79.0479 78.1767 79.0479 78.5349Z" fill="#A59568"/>
<path d="M83.9361 70.6555C81.6803 67.7713 75.8617 68.7579 73.5431 71.0514C73.2477 71.3467 73.5619 71.7426 73.9138 71.6923C75.4344 71.4724 76.7791 70.599 78.2872 70.2785C79.9272 69.9329 82.3778 69.7444 83.7413 70.844C83.8733 70.9508 84.0304 70.7937 83.9299 70.6618L83.9361 70.6555Z" fill="#3F1D2B"/>
<path d="M54.4406 70.844C55.7539 69.7884 57.8526 69.9769 59.436 70.1968C61.1452 70.4356 62.5904 71.4472 64.2744 71.6923C64.6263 71.7426 64.9405 71.3467 64.6452 71.0514C62.3328 68.7579 56.5079 67.7713 54.2584 70.6555C54.1578 70.7875 54.3086 70.9446 54.4406 70.8377V70.844Z" fill="#3F1D2B"/>
<path d="M70.8784 94.7909C70.6522 94.7281 70.3757 94.7532 70.1935 94.904C70.1055 94.9731 70.0301 95.0611 69.9673 95.1491C69.8981 95.2559 69.8856 95.369 69.873 95.4947C69.8542 95.7083 70.1244 95.8403 70.294 95.7397C70.3631 95.702 70.4322 95.6706 70.4888 95.6141C70.5391 95.5701 70.5768 95.5135 70.6333 95.4695C70.6962 95.4193 70.759 95.2999 70.8721 95.2622C71.0857 95.1868 71.1172 94.8663 70.8721 94.7972L70.8784 94.7909Z" fill="#CC6144"/>
<path d="M32 21.2817L34.7366 18.9102C36.5829 17.3099 39.5503 17.9567 40.3663 20.2701C40.3828 20.3198 40.3993 20.3613 40.4158 20.411C40.6713 21.2153 40.6383 22.1108 40.2427 22.8488C38.8167 25.5271 34.8355 23.2302 35.1734 20.6349C35.4784 18.2552 38.215 16.8041 40.5724 17.1192C43.1276 17.4674 45.5674 19.756 44.8668 22.5337C44.5041 23.9765 43.21 25.071 41.7263 24.9964C39.4184 24.8803 38.4622 22.343 38.8332 20.2949C39.2948 17.7742 41.4214 15.6515 43.9354 15.2121C47.0264 14.6648 50.4306 16.7129 51.0983 19.9218C51.2796 20.809 51.1889 21.746 50.7933 22.5669C49.1035 26.0826 44.2733 23.7443 44.3063 20.6183C44.331 17.9318 47.2324 15.8671 49.8701 16.2154C52.4748 16.5553 54.8239 19.0429 54.148 21.8289C53.942 22.683 53.4309 23.4541 52.7468 24.0014C50.3234 25.95 47.4632 24.1175 46.9027 21.7294C46.5153 20.0794 47.1335 18.28 48.2957 17.0528C49.6311 15.6349 51.7742 14.9384 53.6123 15.5769C55.9449 16.3812 57.4121 19.5404 55.4504 21.6465C54.6508 22.5089 53.4062 22.8903 52.2852 22.542C49.4168 21.6382 49.969 17.3762 52.3676 16.0993C54.5849 14.9218 57.3874 15.7676 59.3739 17.3099C60.7999 18.421 62.028 20.0047 61.8137 21.9118C61.723 22.7162 61.3274 23.479 60.668 23.9433C59.0524 25.0959 57.2473 23.9765 56.456 22.5089C54.8239 19.4741 57.3132 15.1209 60.7422 15.0131C64.1711 14.9053 66.9159 19.1092 65.4652 22.2352C64.9707 23.2966 63.9651 24.2336 62.8028 24.2087C61.6818 24.1755 60.7587 23.2717 60.2723 22.2601C58.9288 19.4326 60.7422 15.5852 63.7672 14.8472C67.361 13.9683 71.4411 17.7742 69.9327 21.6216C69.4464 22.8571 68.3831 23.8355 67.0643 23.9102C64.9707 24.0263 63.7343 21.8787 63.8084 19.955C63.9403 16.4724 67.9957 13.761 71.2433 14.9965C74.4909 16.232 75.7521 20.9583 73.5513 23.6614C71.3422 22.2352 70.5262 19.0014 71.7873 16.6963C73.0485 14.3829 76.1972 13.3381 78.5793 14.4409C80.9614 15.5437 82.2143 18.6283 81.2829 21.0992C80.607 22.8986 78.6782 24.3911 76.634 23.2966C75.818 22.8654 75.2328 22.0528 75.0349 21.149C74.4662 18.5537 76.5351 16.4144 78.8513 15.8257C81.5961 15.1291 84.9509 16.5553 85.4619 19.5736C85.6845 20.8754 85.2229 22.2435 84.275 23.1473C81.8187 25.4856 78.4062 23.1888 78.2001 20.4608C78.0353 18.3381 79.5849 16.29 81.5796 15.5769C83.5744 14.8638 85.8741 15.3613 87.6297 16.5553C88.726 17.3099 89.6822 18.3961 89.9212 19.7062C90.2509 21.4558 88.998 23.5868 86.8302 23.0312C86.2944 22.8986 85.8163 22.5835 85.4619 22.1523C84.209 20.6017 84.7448 18.4707 85.9895 17.1606C87.5968 15.4608 90.6136 15.0296 92.1879 17.028C92.8803 17.9069 93.0369 19.1424 92.6083 20.1789C91.4791 22.8903 87.8523 21.8123 87.3165 19.557C86.8797 17.7328 88.3798 15.7593 90.2344 15.5189C92.8226 15.1872 95.4273 17.9732 94.4217 20.7178C94.092 21.605 93.3666 22.343 92.4352 22.4591C90.5229 22.7079 89.4514 20.4193 90.0613 18.7775C90.6136 17.3099 92.0808 16.3812 93.5727 15.9003C96.0785 15.1043 99.2519 15.5106 100.488 18.0313C101.296 19.6896 100.686 21.746 98.9634 22.4011C96.573 23.3132 94.7349 20.4608 95.4603 18.3629C96.095 16.5388 98.0814 15.4608 100.002 15.3696C101.519 15.295 103.151 15.7842 103.967 17.1523C104.362 17.824 104.453 18.6697 104.181 19.4077C103.34 21.6797 100.134 20.751 99.73 18.7858C99.3755 17.086 100.843 15.353 102.549 15.096C104.255 14.8389 105.986 15.8174 107 17.227" stroke="#72130D" stroke-width="2" stroke-miterlimit="10"/>
</svg>
