<svg width="340" height="321" viewBox="0 0 340 321" fill="none" xmlns="http://www.w3.org/2000/svg">
<path d="M267.137 173.696C234.663 173.696 229.386 170.287 229.386 163.524V157.476C229.386 150.713 234.663 147.304 267.137 147.304C307.39 147.304 340 114.34 340 73.6519C340 32.9633 307.39 0 267.137 0C226.884 0 194.274 32.9633 194.274 73.6519C194.274 142.135 190.113 146.369 173.74 146.369H166.233C149.86 146.369 145.726 142.108 145.726 73.6519C145.726 32.9633 113.116 0 72.8631 0C32.6103 0 0 32.9633 0 73.6519C0 114.34 32.6103 147.304 72.8631 147.304C105.337 147.304 110.586 150.713 110.586 157.476V163.524C110.586 170.287 105.337 173.696 72.8631 173.696C32.6103 173.696 0 206.66 0 247.348C0 288.037 32.6103 321 72.8631 321C113.116 321 145.726 288.037 145.726 247.348C145.726 178.865 149.887 174.631 166.233 174.631H173.74C190.113 174.631 194.274 178.892 194.274 247.348C194.274 288.037 226.884 321 267.137 321C307.39 321 340 288.064 340 247.376C340 206.687 307.39 173.696 267.137 173.696Z" fill="#7375A6"/>
</svg>
