<svg width="63" height="63" viewBox="0 0 63 63" fill="none" xmlns="http://www.w3.org/2000/svg">
<rect width="63" height="63" rx="10" fill="#DAE1FE"/>
<path d="M29.923 14.3945C29.923 14.3945 21.3574 27.6937 21.3574 36.4847C21.3574 39.1896 22.4845 40.0913 23.6115 40.0913C24.5132 40.0913 25.1894 39.415 25.1894 38.288C25.1894 36.4847 24.0623 36.9355 24.0623 34.0052C23.6115 25.4396 29.923 14.3945 29.923 14.3945Z" stroke="#1E1E1E" stroke-miterlimit="10" stroke-linecap="round" stroke-linejoin="round"/>
<path d="M59 34.0053H46.377C43.2213 34.0053 42.0943 33.3291 40.7418 33.3291C40.5164 33.3291 40.5164 33.3291 40.291 33.3291C39.6148 33.5545 39.3893 34.2307 39.6148 34.907C39.6148 35.1324 39.8402 35.3578 39.8402 35.3578C40.0656 35.8086 40.7418 36.7103 40.7418 38.2881C40.7418 41.2184 38.7131 42.5709 36.9098 42.5709C36.2336 42.5709 32.1762 42.3455 32.1762 36.4848C32.1762 35.3578 32.627 34.6816 32.1762 34.0053C31.9508 33.7799 31.9508 33.5545 31.5 33.5545C31.2746 33.5545 31.2746 33.5545 31.0492 33.5545C30.8238 33.5545 30.5984 33.5545 30.3729 33.5545C29.4713 33.5545 28.5697 33.5545 27.668 33.5545C27.4426 33.5545 27.2172 33.5545 26.9918 33.5545C26.7664 33.5545 26.7664 33.5545 26.541 33.5545C26.3156 33.7799 26.0902 34.4562 26.3156 34.907C26.3156 35.1324 26.541 35.3578 26.541 35.3578C26.7664 35.8086 27.4426 36.7103 27.4426 38.2881C27.4426 41.2184 25.4139 42.5709 23.6107 42.5709C22.9344 42.5709 18.877 42.3455 18.877 36.4848C18.877 34.907 19.5533 34.2307 18.2008 33.5545C17.9754 33.5545 17.9754 33.5545 17.75 33.5545C16.623 33.5545 5.35246 34.2307 4 34.2307" stroke="#1E1E1E" stroke-miterlimit="10" stroke-linecap="round" stroke-linejoin="round"/>
<path d="M48.1819 11.915C48.1819 11.915 36.686 22.5093 34.4319 31.0749C33.7557 33.7798 34.4319 34.9068 35.559 35.1323C36.4606 35.3577 37.1368 34.9068 37.3622 33.7798C37.8131 32.2019 36.4606 32.2019 37.3622 29.2716C39.6163 20.9314 48.1819 11.915 48.1819 11.915Z" stroke="#1E1E1E" stroke-miterlimit="10" stroke-linecap="round" stroke-linejoin="round"/>
<path d="M43.8965 21.8335L47.503 21.1572L46.376 24.7638" stroke="#1E1E1E" stroke-miterlimit="10" stroke-linecap="round" stroke-linejoin="round"/>
<path d="M47.729 21.1572C44.5733 22.9605 42.5446 26.1162 42.0938 29.7228" stroke="#1E1E1E" stroke-miterlimit="10" stroke-linecap="round" stroke-linejoin="round"/>
<path d="M8.50826 36.4846C8.28285 36.4846 8.28285 36.4846 8.05744 36.2592C8.05744 36.2592 7.83203 36.0338 7.83203 35.8084C7.83203 35.5829 7.83203 35.5829 8.05744 35.3575C8.28285 35.1321 8.50826 35.1321 8.73367 35.3575C8.73367 35.3575 8.95908 35.5829 8.95908 35.8084C8.95908 36.0338 8.95908 36.0338 8.73367 36.2592C8.73367 36.2592 8.73367 36.4846 8.50826 36.4846Z" fill="#1E1E1E"/>
<path d="M43.6723 36.4846C43.4469 36.4846 43.4469 36.4846 43.2215 36.2592C43.2215 36.2592 42.9961 36.0338 42.9961 35.8084C42.9961 35.5829 42.9961 35.5829 43.2215 35.3575C43.4469 35.1321 43.6723 35.1321 43.8977 35.3575C43.8977 35.3575 44.1231 35.5829 44.1231 35.8084C44.1231 36.0338 44.1231 36.0338 43.8977 36.2592L43.6723 36.4846Z" fill="#1E1E1E"/>
<path d="M55.395 36.4846C55.1696 36.4846 55.1696 36.4846 54.9442 36.2592C54.9442 36.2592 54.7188 36.0338 54.7188 35.8084C54.7188 35.5829 54.7188 35.5829 54.9442 35.3575C55.1696 35.1321 55.395 35.1321 55.6204 35.3575C55.6204 35.3575 55.8458 35.5829 55.8458 35.8084C55.8458 36.0338 55.8458 36.0338 55.6204 36.2592L55.395 36.4846Z" fill="#1E1E1E"/>
<path d="M29.9223 40.7668C29.6969 40.7668 29.6969 40.7668 29.4715 40.5414C29.4715 40.5414 29.2461 40.316 29.2461 40.0906C29.2461 39.8652 29.2461 39.8652 29.4715 39.6398C29.6969 39.4144 29.9223 39.4144 30.1477 39.6398C30.1477 39.6398 30.3731 39.8652 30.3731 40.0906C30.3731 40.316 30.3731 40.316 30.1477 40.5414L29.9223 40.7668Z" fill="#1E1E1E"/>
<path d="M14.3676 39.8664C14.1422 39.8664 14.1422 39.8664 13.9168 39.641C13.9168 39.641 13.6914 39.4156 13.6914 39.1902C13.6914 38.9648 13.6914 38.9648 13.9168 38.7394C14.1422 38.514 14.3676 38.514 14.593 38.7394C14.593 38.7394 14.8185 38.9648 14.8185 39.1902C14.8185 39.4156 14.8185 39.4156 14.593 39.641C14.593 39.8664 14.593 39.8664 14.3676 39.8664Z" fill="#1E1E1E"/>
<path d="M49.5297 39.8664C49.3043 39.8664 49.3043 39.8664 49.0789 39.641C49.0789 39.641 48.8535 39.4156 48.8535 39.1902C48.8535 38.9648 48.8535 38.9648 49.0789 38.7394C49.3043 38.514 49.5297 38.514 49.7552 38.7394C49.7552 38.7394 49.9806 38.9648 49.9806 39.1902C49.9806 39.4156 49.9806 39.4156 49.7552 39.641C49.7552 39.8664 49.5297 39.8664 49.5297 39.8664Z" fill="#1E1E1E"/>
<path d="M14.3676 46.6281C14.1422 46.6281 14.1422 46.6281 13.9168 46.4027C13.9168 46.4027 13.6914 46.1773 13.6914 45.9519C13.6914 45.7265 13.6914 45.7265 13.9168 45.5011C14.1422 45.2757 14.3676 45.2757 14.593 45.5011C14.593 45.5011 14.8185 45.7265 14.8185 45.9519C14.8185 46.1773 14.8185 46.1773 14.593 46.4027C14.593 46.6281 14.593 46.6281 14.3676 46.6281Z" fill="#1E1E1E"/>
<path d="M26.0883 46.6281C25.8629 46.6281 25.8629 46.6281 25.6375 46.4027C25.6375 46.4027 25.4121 46.1773 25.4121 45.9519C25.4121 45.7265 25.4121 45.7265 25.6375 45.5011C25.8629 45.2757 26.0883 45.2757 26.3137 45.5011C26.3137 45.5011 26.5392 45.7265 26.5392 45.9519C26.5392 46.1773 26.5392 46.1773 26.3137 46.4027C26.3137 46.6281 26.3137 46.6281 26.0883 46.6281Z" fill="#1E1E1E"/>
<path d="M37.809 46.6281C37.5836 46.6281 37.5836 46.6281 37.3582 46.4027C37.3582 46.4027 37.1328 46.1773 37.1328 45.9519C37.1328 45.7265 37.1328 45.7265 37.3582 45.5011C37.5836 45.2757 37.809 45.2757 38.0345 45.5011C38.0345 45.5011 38.2599 45.7265 38.2599 45.9519C38.2599 46.1773 38.2599 46.1773 38.0345 46.4027C38.0345 46.6281 38.0345 46.6281 37.809 46.6281Z" fill="#1E1E1E"/>
<path d="M49.5297 46.6281C49.3043 46.6281 49.3043 46.6281 49.0789 46.4027C49.0789 46.4027 48.8535 46.1773 48.8535 45.9519C48.8535 45.7265 48.8535 45.7265 49.0789 45.5011C49.3043 45.2757 49.5297 45.2757 49.7552 45.5011C49.7552 45.5011 49.9806 45.7265 49.9806 45.9519C49.9806 46.1773 49.9806 46.1773 49.7552 46.4027C49.7552 46.6281 49.5297 46.6281 49.5297 46.6281Z" fill="#1E1E1E"/>
<path d="M49.5324 51.1362C47.9545 51.1362 47.0529 50.46 46.3767 50.0092C45.7004 49.5583 45.0242 49.1075 43.6718 49.1075C42.3193 49.1075 41.8685 49.5583 40.9668 50.0092C40.2906 50.6854 39.389 51.1362 37.8111 51.1362C36.2332 51.1362 35.3316 50.46 34.6554 50.0092C33.9791 49.5583 33.3029 49.1075 31.9504 49.1075C30.598 49.1075 30.1472 49.5583 29.2455 50.0092C28.5693 50.6854 27.6677 51.1362 26.0898 51.1362C24.5119 51.1362 23.6103 50.46 22.934 50.0092C22.2578 49.5583 21.5816 49.1075 20.2291 49.1075C19.5529 49.1075 18.8767 49.3329 18.4258 49.5583C18.2004 49.7837 17.975 49.5583 17.7496 49.3329C17.5242 49.1075 17.7496 48.8821 17.975 48.6567C18.6513 48.2059 19.3275 47.9805 20.2291 47.9805C21.807 47.9805 22.7086 48.6567 23.3849 49.1075C24.0611 49.5583 24.7373 50.0092 26.0898 50.0092C27.4422 50.0092 27.8931 49.5583 28.7947 49.1075C29.4709 48.4313 30.3726 47.9805 31.9504 47.9805C33.5283 47.9805 34.4299 48.6567 35.1062 49.1075C35.7824 49.5583 36.4586 50.0092 37.8111 50.0092C39.1636 50.0092 39.6144 49.5583 40.516 49.1075C41.1922 48.4313 42.0939 47.9805 43.6718 47.9805C45.2496 47.9805 46.1513 48.6567 46.8275 49.1075C47.5037 49.5583 48.1799 50.0092 49.5324 50.0092C50.8849 50.0092 51.3357 49.5583 52.2373 49.1075C52.9136 48.4313 53.8152 47.9805 55.3931 47.9805C55.6185 47.9805 55.8439 48.2059 55.8439 48.4313C55.8439 48.6567 55.6185 48.8821 55.3931 48.8821C54.0406 48.8821 53.5898 49.3329 52.6881 49.7837C52.0119 50.46 51.1103 51.1362 49.5324 51.1362Z" fill="#1E1E1E"/>
<path d="M14.3681 51.1362C12.7902 51.1362 11.8886 50.46 11.2124 50.0092C10.5361 49.5583 9.85992 49.1075 8.50746 49.1075C8.28205 49.1075 8.05664 48.8821 8.05664 48.6567C8.05664 48.2059 8.28205 47.9805 8.50746 47.9805C10.0853 47.9805 10.987 48.6567 11.6632 49.1075C12.3394 49.5583 13.0157 50.0092 14.3681 50.0092C15.2698 50.0092 15.946 49.7837 16.1714 49.5583C16.3968 49.3329 16.6222 49.5583 16.8476 49.7837C17.073 50.0092 16.8476 50.2346 16.6222 50.46C16.1714 50.9108 15.2698 51.1362 14.3681 51.1362Z" fill="#1E1E1E"/>
</svg>
