<svg width="74" height="64" viewBox="0 0 74 64" fill="none" xmlns="http://www.w3.org/2000/svg">
<rect width="74" height="63" rx="10" fill="#EDC9B4"/>
<path fill-rule="evenodd" clip-rule="evenodd" d="M47.6305 37.3644C47.6305 37.3644 47.9076 40.9121 49.5078 42.2352C51.108 43.5583 54.8665 45.3653 55.3543 51.3523C55.8422 57.3394 51.9432 61.9994 51.9432 61.9994C51.9432 61.9994 52.3647 59.2518 50.6201 56.43C48.255 52.6013 37.4283 54.7439 34.0563 45.0843C30.1963 34.0352 41.8152 20.6132 47.6266 37.3605L47.6305 37.3644Z" fill="#72130D"/>
<path d="M37.5926 39.3945C37.5926 39.3945 36.9876 46.6617 37.1008 47.6765C37.2101 48.6912 46.417 52.4536 48.1655 53.722C49.914 54.9905 49.9647 59.1588 49.4066 62.7143H18.4723C17.9142 59.1588 17.9649 54.9905 19.7134 53.722C21.4619 52.4536 30.6688 48.6912 30.7781 47.6765C30.8874 46.6617 30.2825 39.3945 30.2825 39.3945H37.5926Z" fill="#E5805C"/>
<path d="M37.5928 39.3945H30.2827C30.2827 39.3945 30.6028 43.2506 30.7355 45.7367C32.9211 45.5767 35.0989 45.1942 37.2103 44.5542C37.3587 42.189 37.5928 39.3945 37.5928 39.3945Z" fill="#CC6144"/>
<path d="M33.9389 63.3272H50.4988C50.4988 63.3272 50.0149 54.0812 49.406 53.6207C48.7972 53.1602 40.4645 49.1987 40.4645 49.1987C40.4645 49.1987 38.3413 51.0526 33.9389 51.0526C29.5364 51.0526 27.4132 49.1987 27.4132 49.1987C27.4132 49.1987 19.0806 53.1641 18.4717 53.6207C17.8629 54.0773 17.3789 63.3272 17.3789 63.3272H33.9389Z" fill="#FFECE3"/>
<path d="M33.8145 54.3857C36.484 52.7855 39.2707 51.3375 42.0769 49.9754C41.1168 49.5149 40.4611 49.2026 40.4611 49.2026C40.4611 49.2026 38.3379 51.0565 33.9354 51.0565C29.533 51.0565 27.4098 49.2026 27.4098 49.2026C27.4098 49.2026 19.0771 53.168 18.4683 53.6246C17.8594 54.0813 17.3755 63.3311 17.3755 63.3311H23.9128C26.6292 59.799 29.9038 56.7742 33.8106 54.3896L33.8145 54.3857Z" fill="#F9F7ED"/>
<path d="M43.5681 30.2302C43.5681 30.2302 45.6249 27.8221 47.553 29.4145C49.4888 31.0107 48.3023 36.7324 42.7251 36.4904L43.5681 30.2302Z" fill="#E5805C"/>
<path d="M44.2356 34.9721C44.5439 35.5615 46.1909 35.3741 47.0964 33.692C48.0019 32.0138 47.6701 30.3355 47.2252 30.5307C46.7803 30.7258 43.4979 33.5515 44.2395 34.9682L44.2356 34.9721Z" fill="#D87350"/>
<path d="M47.3577 30.6049L47.3304 30.5269H47.2602L47.225 30.5347C45.4882 31.1903 44.2315 32.8139 43.8607 34.8786C43.849 34.9371 43.8646 34.9957 43.9037 35.0425C43.9427 35.0893 44.0012 35.1167 44.0598 35.1167C44.1456 35.1167 44.2159 35.062 44.2393 34.9722C44.2432 34.9566 44.2471 34.941 44.251 34.9254C44.4813 35.0503 44.735 35.1167 44.9926 35.1167C45.5663 35.1167 46.2064 34.7693 46.3352 33.9887C46.421 33.4618 46.1673 33.0286 45.7146 32.9388C45.4414 32.8842 45.1526 33.0091 44.9067 33.1847C45.4726 32.1153 46.2766 31.2879 47.307 30.7181C47.346 30.6947 47.3694 30.6478 47.3577 30.6049ZM45.8707 34.1214C45.7068 34.5078 45.3633 34.7381 44.9457 34.7381C44.7389 34.7381 44.5359 34.6834 44.3486 34.5781C44.4423 34.2658 44.5476 33.9692 44.6686 33.6843C44.8911 33.5126 45.1331 33.3408 45.4219 33.2589C45.6248 33.2003 45.7732 33.2355 45.859 33.3721C45.9839 33.5633 45.9644 33.9029 45.8746 34.1253L45.8707 34.1214Z" fill="#CC6144"/>
<path d="M46.2762 29.4066C45.8079 29.2115 44.8985 29.5237 44.9336 30.1208C44.9414 30.2653 45.0702 30.3784 45.2185 30.3355C45.6322 30.2223 45.8664 29.7696 46.2762 29.6408C46.4011 29.6018 46.3855 29.4495 46.2762 29.4027V29.4066Z" fill="#F48462"/>
<path d="M24.3069 30.2302C24.3069 30.2302 22.2501 27.8221 20.3221 29.4145C18.3863 31.0107 19.5727 36.7324 25.15 36.4904L24.3069 30.2302Z" fill="#E5805C"/>
<path d="M20.5097 30.6865C19.8931 30.6397 20.4824 34.2147 21.8796 35.1163C23.2769 36.0217 24.0418 35.9086 23.8428 34.7416C23.6437 33.5746 21.7508 30.7763 20.5097 30.6865Z" fill="#D87350"/>
<path d="M20.6503 30.5347L20.6151 30.5269C20.5683 30.5269 20.5293 30.5581 20.5176 30.6049L20.5059 30.6869L20.5644 30.7181C21.5948 31.2879 22.4027 32.1153 22.9647 33.1847C22.7227 33.0091 22.43 32.8842 22.1568 32.9388C21.704 33.0286 21.4465 33.4618 21.5362 33.9887C21.665 34.7693 22.3012 35.1167 22.8788 35.1167C23.1403 35.1167 23.394 35.0503 23.6204 34.9254C23.6243 34.941 23.6282 34.9566 23.6321 34.9722C23.6516 35.0581 23.7257 35.1167 23.8116 35.1167C23.8702 35.1167 23.9287 35.0893 23.9677 35.0425C24.0068 34.9957 24.0185 34.941 24.0107 34.8786C23.6399 32.8139 22.3792 31.1903 20.6464 30.5347H20.6503ZM22.9335 34.7381C22.5158 34.7381 22.1685 34.5078 22.0085 34.1214C21.9148 33.9029 21.8953 33.5594 22.0241 33.3682C22.0865 33.2745 22.1724 33.2316 22.2895 33.2316C22.3402 33.2316 22.3988 33.2394 22.4612 33.2589C22.7461 33.3408 22.992 33.5126 23.2145 33.6843C23.3355 33.9653 23.4447 34.2658 23.5345 34.5781C23.3472 34.6834 23.1403 34.7381 22.9374 34.7381H22.9335Z" fill="#CC6144"/>
<path d="M33.9388 15.0293C33.1349 15.0293 25.3915 17.1954 24.6695 21.2076C23.9474 25.2197 22.8234 30.715 24.4704 35.4102C26.1136 40.1054 32.8148 42.6618 33.9388 42.6618C35.0629 42.6618 41.7641 40.1054 43.4073 35.4102C45.0504 30.715 43.9302 25.2197 43.2082 21.2076C42.4862 17.1954 34.7428 15.0293 33.9388 15.0293Z" fill="#E5805C"/>
<path d="M26.5507 31.0626C26.4648 25.4971 28.0806 20.3531 30.8673 15.9194C28.3343 16.9069 25.1222 18.6944 24.6695 21.2118C23.9474 25.2239 22.8234 30.7192 24.4704 35.4144C25.9809 39.7271 31.7571 42.2327 33.5564 42.6113C33.2988 42.463 33.0451 42.3069 32.7992 42.139C29.1422 39.649 26.6522 35.5354 26.5507 31.0626Z" fill="#CC6144"/>
<path d="M35.5933 27.6823C35.0352 29.103 34.5785 31.0232 35.1757 32.4985C35.2694 32.7288 35.6362 32.7873 35.7065 32.4985C35.8938 31.7374 35.7494 30.9803 35.6948 30.2036C35.6362 29.3684 35.6089 28.5254 35.6792 27.6901C35.6831 27.6394 35.6089 27.6355 35.5933 27.6784V27.6823Z" fill="#F48462"/>
<path d="M44.2151 30.4106C43.9887 31.8079 43.6413 33.1466 43.1574 34.4774C42.611 35.984 41.686 37.1861 40.9015 38.556C40.8352 38.6731 40.9796 38.8448 41.0967 38.7511C43.5555 36.8777 44.1058 33.2793 44.2385 30.4106C44.2385 30.395 44.2151 30.395 44.2151 30.4106Z" fill="#F48462"/>
<path d="M30.5706 30.7574C29.7666 31.3897 28.6621 31.6356 27.6629 31.4092C26.6248 31.175 26.1525 30.1291 25.6998 29.2977C25.6764 29.2548 25.6022 29.2743 25.6061 29.3212C25.6959 30.6091 26.254 31.538 27.5146 31.9439C28.5762 32.2835 30.0086 31.6863 30.5901 30.773C30.5979 30.7613 30.5823 30.7496 30.5706 30.7574Z" fill="#CC6144"/>
<path d="M37.3034 30.7574C38.1073 31.3897 39.2119 31.6356 40.211 31.4092C41.2492 31.175 41.7214 30.1291 42.1742 29.2977C42.1976 29.2548 42.2717 29.2743 42.2678 29.3212C42.1742 30.6091 41.616 31.538 40.3593 31.9439C39.2977 32.2835 37.8654 31.6863 37.2838 30.773C37.276 30.7613 37.2916 30.7496 37.3034 30.7574Z" fill="#CC6144"/>
<g style="mix-blend-mode:multiply" opacity="0.4">
<path d="M43.782 31.7331C44.0825 32.8416 42.9545 34.1139 41.2568 34.5783C39.559 35.0389 37.9393 34.5159 37.6388 33.4075C37.3383 32.2991 38.4662 31.0267 40.164 30.5662C41.8617 30.1056 43.4814 30.6286 43.782 31.737V31.7331Z" fill="#E24D4D"/>
</g>
<g style="mix-blend-mode:multiply" opacity="0.4">
<path d="M24.092 31.7331C23.7875 32.8416 24.9194 34.1139 26.6171 34.5783C28.311 35.0389 29.9346 34.5159 30.2351 33.4075C30.5356 32.2991 29.4077 31.0267 27.7099 30.5662C26.0122 30.1056 24.3925 30.6286 24.092 31.737V31.7331Z" fill="#E24D4D"/>
</g>
<path d="M34.3604 35.4412C34.3019 35.3046 34.0989 35.2343 33.974 35.1719C33.775 35.0782 33.5798 35.047 33.3691 35.1329C33.1818 35.2109 33.2754 35.4607 33.4393 35.488C33.5955 35.5153 33.7477 35.488 33.9077 35.4919C34.0404 35.4919 34.1926 35.5661 34.3175 35.531C34.3565 35.5192 34.3799 35.4802 34.3604 35.4412Z" fill="#CC6144"/>
<path d="M35.4301 35.414C35.5277 35.4296 35.6487 35.3242 35.7346 35.2852C35.8594 35.2306 35.9882 35.2345 36.0507 35.0979C36.0741 35.0471 36.0507 34.9808 36.0039 34.9535C35.8673 34.8676 35.7424 34.9691 35.6292 35.0549C35.5433 35.1174 35.3794 35.2345 35.3755 35.3477C35.3755 35.3828 35.3989 35.4062 35.4301 35.414Z" fill="#CC6144"/>
<path d="M38.8178 36.3657C36.2692 37.8527 33.4357 38.4108 30.5397 37.6615C30.4773 37.6459 30.45 37.7395 30.5124 37.7591C33.2835 38.4772 36.4877 38.1142 38.8373 36.4009C38.8568 36.3852 38.8373 36.3579 38.8178 36.3696V36.3657Z" fill="#A8332D"/>
<path d="M30.5354 37.5364C30.4963 37.5793 30.4573 37.6222 30.4222 37.6691C30.3753 37.7276 30.3714 37.7823 30.3909 37.8525C30.4066 37.9032 30.4807 37.9306 30.5158 37.8837C30.5549 37.8369 30.5783 37.8057 30.5939 37.7432C30.6056 37.6925 30.6212 37.6456 30.6407 37.5988C30.6641 37.5364 30.5783 37.4934 30.5354 37.5364Z" fill="#A8332D"/>
<path d="M38.6689 36.327C38.6689 36.4129 38.7392 36.4831 38.8212 36.5026C38.9265 36.526 38.9773 36.3933 38.8914 36.3309C38.8524 36.2997 38.8134 36.2724 38.7665 36.2528C38.7197 36.2333 38.6689 36.2841 38.6689 36.327Z" fill="#A8332D"/>
<path d="M31.4761 37.9035C32.4908 38.4539 33.7046 38.1767 34.7935 38.0323C35.9917 37.8762 36.987 37.4391 38.0485 36.8966C38.0798 36.881 38.0563 36.8263 38.0251 36.8381C35.941 37.5718 33.6188 37.3259 31.48 37.8762C31.4683 37.8762 31.4683 37.8957 31.48 37.8996L31.4761 37.9035Z" fill="#A8332D"/>
<path d="M30.9924 29.3248C30.9924 29.3248 30.5045 27.2017 28.1432 26.464C25.782 25.7225 24.053 27.7598 25.5869 28.8097C27.1246 29.8595 30.9924 29.3248 30.9924 29.3248Z" fill="#3F1D2B"/>
<path d="M25.5948 28.5916C25.5324 28.9546 25.7509 31.2143 27.8312 31.6163C29.9153 32.0183 30.9027 30.6289 31.0081 29.6883C31.1174 28.7477 29.8373 27.2802 28.6625 27.0187C27.4916 26.7572 25.7939 27.4363 25.5909 28.5916H25.5948Z" fill="#F9F7ED"/>
<path d="M28.6663 27.0187C27.5267 26.765 25.8992 27.3973 25.6221 28.494C26.2309 28.291 26.8593 28.1856 27.5111 28.1427C28.639 28.0803 29.7474 28.2052 30.688 28.8686C30.7661 28.9233 30.8363 28.9857 30.9105 29.0482C30.5904 28.1895 29.5952 27.2255 28.6663 27.0187Z" fill="#E8E5DD"/>
<path d="M30.2236 29.3252C30.2236 30.2697 29.4586 31.0386 28.5102 31.0386C27.5618 31.0386 26.7969 30.2697 26.7969 29.3252C26.7969 28.3807 27.5618 27.6118 28.5102 27.6118C29.4586 27.6118 30.2236 28.3768 30.2236 29.3252Z" fill="#725F28"/>
<path d="M28.7911 28.2519C29.1814 28.2948 29.6107 28.3378 29.9971 28.4705C29.7005 27.9592 29.1501 27.6118 28.514 27.6118C27.9637 27.6118 27.4758 27.8733 27.1636 28.2753C27.6983 28.1816 28.2642 28.1894 28.7911 28.2519Z" fill="#3D3F26"/>
<path d="M30.1023 28.8844C30.1023 29.1069 29.9228 29.2864 29.7003 29.2864C29.4779 29.2864 29.2983 29.1069 29.2983 28.8844C29.2983 28.662 29.4779 28.4824 29.7003 28.4824C29.9228 28.4824 30.1023 28.662 30.1023 28.8844Z" fill="#A59568"/>
<path d="M36.8818 29.3248C36.8818 29.3248 37.3697 27.2017 39.7309 26.464C42.0922 25.7225 43.8212 27.7598 42.2873 28.8097C40.7496 29.8595 36.8818 29.3248 36.8818 29.3248Z" fill="#3F1D2B"/>
<path d="M42.2797 28.5916C42.3421 28.9546 42.1236 31.2143 40.0433 31.6163C37.9592 32.0183 36.9718 30.6289 36.8625 29.6883C36.7532 28.7477 38.0372 27.2802 39.2081 27.0187C40.3829 26.7572 42.0767 27.4363 42.2797 28.5916Z" fill="#F9F7ED"/>
<path d="M39.208 27.0187C40.3477 26.765 41.9752 27.3973 42.2523 28.494C41.6434 28.291 41.0151 28.1856 40.3633 28.1427C39.2353 28.0803 38.1269 28.2052 37.1863 28.8686C37.1083 28.9233 37.038 28.9857 36.9639 29.0482C37.2839 28.1895 38.2791 27.2255 39.208 27.0187Z" fill="#E8E5DD"/>
<path d="M37.6504 29.3252C37.6504 30.2697 38.4154 31.0386 39.3638 31.0386C40.3122 31.0386 41.0771 30.2697 41.0771 29.3252C41.0771 28.3807 40.3122 27.6118 39.3638 27.6118C38.4154 27.6118 37.6504 28.3768 37.6504 29.3252Z" fill="#725F28"/>
<path d="M39.0829 28.2519C38.6927 28.2948 38.2633 28.3378 37.877 28.4705C38.1736 27.9592 38.7239 27.6118 39.3601 27.6118C39.9104 27.6118 40.3982 27.8733 40.7105 28.2753C40.1758 28.1816 39.6098 28.1894 39.0829 28.2519Z" fill="#3D3F26"/>
<path d="M40.1177 28.8844C40.1177 29.1069 40.2972 29.2864 40.5197 29.2864C40.7421 29.2864 40.9217 29.1069 40.9217 28.8844C40.9217 28.662 40.7421 28.4824 40.5197 28.4824C40.2972 28.4824 40.1177 28.662 40.1177 28.8844Z" fill="#A59568"/>
<path d="M43.1537 23.9898C41.7526 22.1984 38.1385 22.8112 36.6983 24.2357C36.5149 24.4192 36.71 24.665 36.9286 24.6299C37.8731 24.4933 38.7083 23.9508 39.6489 23.7518C40.6637 23.5371 42.1897 23.42 43.0366 24.103C43.1186 24.1694 43.2162 24.0718 43.1498 23.9898H43.1537Z" fill="#3F1D2B"/>
<path d="M24.8334 24.103C25.6491 23.4473 26.9526 23.5644 27.9362 23.701C28.9978 23.8493 29.8954 24.4777 30.9414 24.6299C31.16 24.6611 31.3551 24.4152 31.1717 24.2357C29.7354 22.8112 26.1174 22.1984 24.7202 23.9898C24.6538 24.0718 24.7514 24.1694 24.8334 24.103Z" fill="#3F1D2B"/>
<path d="M35.0435 38.9809C34.9069 38.9419 34.7313 38.9575 34.6181 39.0511C34.5634 39.0941 34.5166 39.1487 34.4776 39.2034C34.4346 39.2697 34.4268 39.3399 34.419 39.418C34.4073 39.5507 34.5752 39.6327 34.6805 39.5702C34.7235 39.5468 34.7664 39.5273 34.8015 39.4922C34.8327 39.4648 34.8562 39.4297 34.8913 39.4024C34.9303 39.3712 34.9693 39.297 35.0396 39.2736C35.1723 39.2268 35.1918 39.0277 35.0396 38.9848L35.0435 38.9809Z" fill="#CC6144"/>
<path fill-rule="evenodd" clip-rule="evenodd" d="M20.716 30.9328C11.1891 -0.493288 55.0068 -1.39876 46.0497 30.7571C45.2184 33.3955 43.4855 21.3941 43.4855 21.3122C43.466 20.5316 42.0414 16.6326 40.2539 16.2306C37.6585 15.6452 32.3935 12.4331 29.0526 13.4127C25.2044 14.5406 23.4363 20.0047 23.409 21.3122C23.409 21.398 22.6363 25.6248 21.8557 28.4896C21.3171 30.4761 21.0166 32.0724 20.7199 30.9289L20.716 30.9328Z" fill="#72130D"/>
<path fill-rule="evenodd" clip-rule="evenodd" d="M45.5933 27.2055C45.5777 27.3577 45.968 27.7129 45.7143 28.794C45.5035 29.6955 44.7034 31.1162 44.3053 32.7749C43.7121 35.2455 43.1384 37.6106 43.1306 37.634C42.3695 35.464 43.5833 29.4965 43.8136 27.0533C43.8955 25.7185 43.6497 23.6539 44.239 23.7007C45.0508 23.3455 45.6245 26.5537 45.5894 27.1977L45.5933 27.2055Z" fill="#72130D"/>
<path fill-rule="evenodd" clip-rule="evenodd" d="M21.7309 28.4078C21.7817 29.5084 22.3242 29.5201 22.9369 31.214C23.9283 33.9694 25.1499 37.9425 25.1616 37.9699C25.829 36.1277 24.3537 31.0617 24.018 28.9854C23.8775 27.8536 24.0376 26.1012 23.4482 26.1402C22.6208 25.8397 21.6685 27.8575 21.7309 28.4078Z" fill="#72130D"/>
<path fill-rule="evenodd" clip-rule="evenodd" d="M32.5615 15.9686C35.5433 15.4339 41.3001 16.2691 41.9714 20.5662C42.6427 24.8672 41.8114 26.5494 44.4263 28.3954C47.0412 30.2415 45.4098 33.3209 45.1718 33.9219C47.0569 32.7237 51.0417 27.1075 48.0287 23.6183C45.0156 20.1291 48.3409 18.2908 46.1241 13.0141C43.9072 7.73743 32.2571 8.43214 32.5615 15.9647V15.9686Z" fill="#440908"/>
<path fill-rule="evenodd" clip-rule="evenodd" d="M37.3855 15.7391C37.3855 15.7391 27.3278 15.0912 26.0047 19.9074C24.6816 24.7235 25.4115 26.7725 22.1838 28.4937C18.9522 30.2149 20.4197 33.9773 20.6148 34.6993C18.6126 33.0445 14.7839 26.0271 18.6829 22.4911C22.5819 18.9512 19.0146 16.3557 22.2345 10.6536C25.4544 4.95149 38.7125 7.17614 37.3855 15.7391Z" fill="#440908"/>
<path fill-rule="evenodd" clip-rule="evenodd" d="M19.0339 30.9367C19.0339 31.0265 18.9598 31.0967 18.8739 31.0928C18.788 31.0928 18.7256 31.0148 18.7256 30.9211C18.7646 29.9103 19.0964 29.0594 19.5998 28.3725C20.1736 27.588 20.9737 27.0221 21.8206 26.6865C22.5036 26.4172 23.011 25.8044 23.3778 24.9536C23.8032 23.9701 24.0413 22.6743 24.1467 21.2185C24.2209 20.2116 24.3848 19.2671 24.6385 18.4046C25.1224 16.7419 25.9342 15.3837 27.0348 14.4704C28.1394 13.5572 29.5366 13.0927 31.1875 13.2332C31.8237 13.2879 32.4989 13.4284 33.2092 13.6703C33.2912 13.6977 33.3341 13.7874 33.3107 13.8772C33.2873 13.9631 33.2014 14.0138 33.1194 13.9865C32.4325 13.7523 31.7808 13.6157 31.1641 13.565C29.5873 13.4323 28.2642 13.8694 27.2183 14.7358C26.1684 15.6062 25.3956 16.9097 24.9273 18.506C24.6814 19.3451 24.5214 20.2662 24.4511 21.2498C24.3418 22.7407 24.096 24.0754 23.6549 25.098C23.2529 26.0269 22.6909 26.6982 21.926 27.0026C21.1298 27.3188 20.3765 27.8495 19.8379 28.5833C19.3735 29.2195 19.0651 30.0078 19.03 30.9406L19.0339 30.9367Z" fill="#992317"/>
<path fill-rule="evenodd" clip-rule="evenodd" d="M33.2758 11.2582C33.3499 11.3011 33.3772 11.4026 33.3343 11.4806C33.2953 11.5587 33.2016 11.5899 33.1275 11.547C32.8816 11.3987 32.6201 11.266 32.3547 11.1489C30.8716 10.4971 29.1348 10.3098 27.5932 10.622C26.0671 10.9303 24.7441 11.7265 24.0649 13.0418C23.9947 13.1784 23.9322 13.3189 23.8776 13.4594C23.2102 15.2196 23.1204 17.1672 23.0385 18.9352C22.9409 21.0193 22.8551 22.8576 21.8637 23.9309C21.1378 24.7153 20.5289 25.0978 20.0294 25.4101C19.3268 25.8511 18.8585 26.1438 18.6282 27.3108C18.6126 27.4005 18.5306 27.4552 18.4487 27.4357C18.3667 27.4161 18.3121 27.3303 18.3316 27.2405C18.5892 25.933 19.1044 25.6091 19.8771 25.1251C20.3611 24.8207 20.9543 24.4499 21.6491 23.6967C22.5584 22.7171 22.6443 20.9334 22.738 18.9196C22.8199 17.1242 22.9136 15.1455 23.6005 13.3384C23.6629 13.1784 23.7293 13.0262 23.8035 12.8857C24.5294 11.4767 25.9344 10.6259 27.5424 10.302C29.1387 9.98194 30.9379 10.1732 32.4757 10.8484C32.7528 10.9694 33.0221 11.1099 33.2836 11.2621L33.2758 11.2582Z" fill="#992317"/>
<path fill-rule="evenodd" clip-rule="evenodd" d="M47.7438 30.9487C47.7321 31.0385 47.658 31.1048 47.5721 31.0931C47.4901 31.0814 47.4277 30.9994 47.4394 30.9097C47.5448 29.9769 47.3652 29.1924 46.9984 28.564C46.5769 27.8381 45.9134 27.3073 45.1679 26.9951C44.442 26.6867 43.9736 26.0076 43.7121 25.0709C43.4272 24.0484 43.3843 22.7097 43.5053 21.2188C43.6224 19.7669 43.5248 18.4516 43.2204 17.3354C42.9238 16.2543 42.4281 15.3605 41.7412 14.7127C41.0543 14.0687 40.1722 13.6667 39.0989 13.5652C38.2013 13.4794 37.167 13.6081 36.0039 13.9789C35.922 14.0062 35.84 13.9555 35.8166 13.8696C35.7932 13.7838 35.84 13.6901 35.9181 13.6667C37.1202 13.2842 38.1896 13.1554 39.1262 13.2413C40.2659 13.3467 41.2065 13.7799 41.9441 14.4707C42.6779 15.1615 43.2009 16.106 43.517 17.2456C43.837 18.4009 43.9385 19.7591 43.8175 21.25C43.7004 22.7058 43.7395 24.0015 44.0127 24.9812C44.2468 25.8242 44.6566 26.4291 45.285 26.6945C46.0851 27.0341 46.8032 27.6039 47.2599 28.3962C47.6619 29.087 47.8609 29.9456 47.7438 30.9565V30.9487Z" fill="#992317"/>
<path fill-rule="evenodd" clip-rule="evenodd" d="M35.9883 11.7734C35.9141 11.8164 35.8205 11.7851 35.7814 11.7071C35.7424 11.6251 35.7697 11.5276 35.8439 11.4846C36.3708 11.1841 36.925 10.9616 37.4948 10.8133C38.9037 10.4465 40.3868 10.5323 41.6631 11.0007C42.9471 11.4768 44.0243 12.3394 44.6098 13.5258C44.7659 13.8381 44.8869 14.1776 44.9688 14.5367C45.3591 16.2657 45.3045 17.9166 45.2537 19.388C45.1913 21.1755 45.1406 22.6937 45.925 23.7085C46.4441 24.3798 46.9008 24.7466 47.2754 25.0511C47.9975 25.6365 48.4424 25.9917 48.5009 27.6153C48.5009 27.705 48.4385 27.7831 48.3565 27.787C48.2707 27.787 48.2004 27.7206 48.1965 27.6309C48.1419 26.1634 47.7438 25.8395 47.092 25.3126C46.7017 25.0003 46.2334 24.6178 45.6909 23.9192C44.8283 22.8069 44.883 21.2301 44.9454 19.3763C44.9961 17.9244 45.0508 16.2969 44.6722 14.6147C44.5981 14.2869 44.4849 13.9747 44.3405 13.682C43.7941 12.5735 42.7754 11.7617 41.5616 11.3129C40.34 10.8602 38.9154 10.7782 37.5611 11.1295C37.0186 11.27 36.4839 11.4846 35.9805 11.7734H35.9883Z" fill="#992317"/>
</svg>
