<svg width="74" height="63" viewBox="0 0 74 63" fill="none" xmlns="http://www.w3.org/2000/svg">
<rect width="74" height="63" rx="10" fill="#EDC9B4"/>
<path d="M51.3923 27.7492C51.3923 27.1102 50.9664 25.8323 50.9664 25.8323C49.9014 22.6375 47.1326 20.5076 43.7248 20.5076H31.3715C31.1585 20.0816 30.7325 19.8687 30.3065 19.8687H30.0935C25.6208 19.8687 22 23.4894 22 27.9622V35.2038C22 39.6765 25.6208 43.2973 30.0935 43.2973H43.5118C47.9845 43.2973 51.6053 39.6765 51.6053 35.2038V27.9622C51.3923 27.9622 51.3923 27.9622 51.3923 27.7492ZM47.5586 23.4894C48.1975 23.9154 48.8365 24.7674 49.2625 25.4063H34.7793L32.6494 22.2115H43.9378C45.2157 22.4245 46.4936 22.8505 47.5586 23.4894ZM49.9014 35.4168C49.9014 39.0376 46.9196 41.8064 43.5118 41.8064H30.0935C26.4727 41.8064 23.7039 38.8246 23.7039 35.4168V28.1752C23.7039 24.5544 26.6857 21.7855 30.0935 21.7855H30.3065L33.9273 27.1102H49.9014C49.9014 27.3232 49.9014 27.5362 49.9014 27.7492C49.9014 27.9622 49.9014 27.9622 49.9014 27.9622V35.4168Z" fill="#1E1E1E"/>
<path d="M32.2234 36.0562C33.1645 36.0562 33.9273 35.2934 33.9273 34.3523C33.9273 33.4113 33.1645 32.6484 32.2234 32.6484C31.2824 32.6484 30.5195 33.4113 30.5195 34.3523C30.5195 35.2934 31.2824 36.0562 32.2234 36.0562Z" fill="#1E1E1E"/>
<path d="M36.6966 36.0562C37.6376 36.0562 38.4005 35.2934 38.4005 34.3523C38.4005 33.4113 37.6376 32.6484 36.6966 32.6484C35.7555 32.6484 34.9927 33.4113 34.9927 34.3523C34.9927 35.2934 35.7555 36.0562 36.6966 36.0562Z" fill="#1E1E1E"/>
<path d="M41.1687 36.0562C42.1098 36.0562 42.8727 35.2934 42.8727 34.3523C42.8727 33.4113 42.1098 32.6484 41.1687 32.6484C40.2277 32.6484 39.4648 33.4113 39.4648 34.3523C39.4648 35.2934 40.2277 36.0562 41.1687 36.0562Z" fill="#1E1E1E"/>
</svg>
