<svg width="74" height="63" viewBox="0 0 74 63" fill="none" xmlns="http://www.w3.org/2000/svg">
<rect width="74" height="63" rx="10" fill="#EDC9B4"/>
<path d="M11.7323 39.0975C11.4882 39.0975 11.4882 39.0975 11.2441 38.8534C11.2441 38.8534 11 38.6093 11 38.3652C11 38.121 11 38.121 11.2441 37.8769C11.4882 37.6328 11.7323 37.6328 11.9764 37.8769C11.9764 37.8769 12.2206 38.121 12.2206 38.3652C12.2206 38.6093 12.2206 38.6093 11.9764 38.8534C11.9764 39.0975 11.7323 39.0975 11.7323 39.0975Z" fill="#1E1E1E"/>
<path d="M24.4267 39.0975C24.1826 39.0975 24.1826 39.0975 23.9384 38.8534C23.9384 38.8534 23.6943 38.6093 23.6943 38.3652C23.6943 38.121 23.6943 38.121 23.9384 37.8769C24.1826 37.6328 24.4267 37.6328 24.6708 37.8769C24.6708 37.8769 24.9149 38.121 24.9149 38.3652C24.9149 38.6093 24.9149 38.6093 24.6708 38.8534C24.6708 39.0975 24.4267 39.0975 24.4267 39.0975Z" fill="#1E1E1E"/>
<path d="M49.5697 39.0975C49.3256 39.0975 49.3256 39.0975 49.0815 38.8534C49.0815 38.8534 48.8374 38.6093 48.8374 38.3652C48.8374 38.121 48.8374 38.121 49.0815 37.8769C49.3256 37.6328 49.5697 37.6328 49.8138 37.8769C49.8138 37.8769 50.058 38.121 50.058 38.3652C50.058 38.6093 50.058 38.6093 49.8138 38.8534C49.8138 39.0975 49.8138 39.0975 49.5697 39.0975Z" fill="#1E1E1E"/>
<path d="M62.2641 39.0975C62.02 39.0975 62.02 39.0975 61.7759 38.8534C61.7759 38.8534 61.5317 38.6093 61.5317 38.3652C61.5317 38.121 61.5317 38.121 61.7759 37.8769C62.02 37.6328 62.2641 37.6328 62.5082 37.8769C62.5082 37.8769 62.7523 38.121 62.7523 38.3652C62.7523 38.6093 62.7523 38.6093 62.5082 38.8534C62.5082 39.0975 62.5082 39.0975 62.2641 39.0975Z" fill="#1E1E1E"/>
<path d="M11.7323 46.4222C11.4882 46.4222 11.4882 46.4222 11.2441 46.1781C11.2441 46.1781 11 45.934 11 45.6899C11 45.4458 11 45.4457 11.2441 45.2016C11.4882 44.9575 11.7323 44.9575 11.9764 45.2016C11.9764 45.2016 12.2206 45.4458 12.2206 45.6899C12.2206 45.934 12.2206 45.934 11.9764 46.1781C11.9764 46.4222 11.7323 46.4222 11.7323 46.4222Z" fill="#1E1E1E"/>
<path d="M24.4267 46.4222C24.1826 46.4222 24.1826 46.4222 23.9384 46.1781C23.9384 46.1781 23.6943 45.934 23.6943 45.6899C23.6943 45.4458 23.6943 45.4457 23.9384 45.2016C24.1826 44.9575 24.4267 44.9575 24.6708 45.2016C24.6708 45.2016 24.9149 45.4458 24.9149 45.6899C24.9149 45.934 24.9149 45.934 24.6708 46.1781C24.6708 46.4222 24.4267 46.4222 24.4267 46.4222Z" fill="#1E1E1E"/>
<path d="M49.5697 46.4222C49.3256 46.4222 49.3256 46.4222 49.0815 46.1781C49.0815 46.1781 48.8374 45.934 48.8374 45.6899C48.8374 45.4458 48.8374 45.4457 49.0815 45.2016C49.3256 44.9575 49.5697 44.9575 49.8138 45.2016C49.8138 45.2016 50.058 45.4458 50.058 45.6899C50.058 45.934 50.058 45.934 49.8138 46.1781C49.8138 46.4222 49.8138 46.4222 49.5697 46.4222Z" fill="#1E1E1E"/>
<path d="M62.2636 46.4222C62.0195 46.4222 62.0195 46.4222 61.7754 46.1781C61.7754 46.1781 61.5312 45.934 61.5312 45.6899C61.5312 45.4458 61.5313 45.4457 61.7754 45.2016C62.0195 44.9575 62.2636 44.9575 62.5077 45.2016C62.5077 45.2016 62.7518 45.4458 62.7518 45.6899C62.7518 45.934 62.7518 45.934 62.5077 46.1781C62.5077 46.4222 62.5077 46.4222 62.2636 46.4222Z" fill="#1E1E1E"/>
<path d="M18.0795 42.7596C17.8354 42.7596 17.8354 42.7596 17.5913 42.5155C17.5913 42.5155 17.3472 42.2714 17.3472 42.0273C17.3472 41.7832 17.3472 41.7832 17.5913 41.539C17.8354 41.2949 18.0795 41.2949 18.3236 41.539C18.3236 41.539 18.5677 41.7832 18.5677 42.0273C18.5677 42.2714 18.5677 42.2714 18.3236 42.5155C18.3236 42.7596 18.0795 42.7596 18.0795 42.7596Z" fill="#1E1E1E"/>
<path d="M55.9169 42.7596C55.6728 42.7596 55.6728 42.7596 55.4287 42.5155C55.4287 42.5155 55.1846 42.2714 55.1846 42.0273C55.1846 41.7832 55.1846 41.7832 55.4287 41.539C55.6728 41.2949 55.9169 41.2949 56.161 41.539C56.161 41.539 56.4051 41.7832 56.4051 42.0273C56.4051 42.2714 56.4051 42.2714 56.161 42.5155C56.161 42.7596 56.161 42.7596 55.9169 42.7596Z" fill="#1E1E1E"/>
<path d="M18.0795 50.0833C17.8354 50.0833 17.8354 50.0833 17.5913 49.8392C17.5913 49.8392 17.3472 49.5951 17.3472 49.351C17.3472 49.1069 17.3472 49.1069 17.5913 48.8628C17.8354 48.6187 18.0795 48.6187 18.3236 48.8628C18.3236 48.8628 18.5677 49.1069 18.5677 49.351C18.5677 49.5951 18.5677 49.5951 18.3236 49.8392C18.3236 50.0833 18.0795 50.0833 18.0795 50.0833Z" fill="#1E1E1E"/>
<path d="M30.5292 50.0833C30.2851 50.0833 30.2851 50.0833 30.041 49.8392C30.041 49.8392 29.7969 49.5951 29.7969 49.351C29.7969 49.1069 29.7969 49.1069 30.041 48.8628C30.2851 48.6187 30.5292 48.6187 30.7733 48.8628C30.7733 48.8628 31.0174 49.1069 31.0174 49.351C31.0174 49.5951 31.0174 49.5951 30.7733 49.8392C31.0174 50.0833 30.7733 50.0833 30.5292 50.0833Z" fill="#1E1E1E"/>
<path d="M43.2226 50.0833C42.9785 50.0833 42.9785 50.0833 42.7343 49.8392C42.7343 49.8392 42.4902 49.5951 42.4902 49.351C42.4902 49.1069 42.4902 49.1069 42.7343 48.8628C42.9785 48.6187 43.2226 48.6187 43.4667 48.8628C43.4667 48.8628 43.7108 49.1069 43.7108 49.351C43.7108 49.5951 43.7108 49.5951 43.4667 49.8392C43.4667 50.0833 43.4667 50.0833 43.2226 50.0833Z" fill="#1E1E1E"/>
<path d="M55.9169 50.0833C55.6728 50.0833 55.6728 50.0833 55.4287 49.8392C55.4287 49.8392 55.1846 49.5951 55.1846 49.351C55.1846 49.1069 55.1846 49.1069 55.4287 48.8628C55.6728 48.6187 55.9169 48.6187 56.161 48.8628C56.161 48.8628 56.4051 49.1069 56.4051 49.351C56.4051 49.5951 56.4051 49.5951 56.161 49.8392C56.161 50.0833 56.161 50.0833 55.9169 50.0833Z" fill="#1E1E1E"/>
<path d="M55.9168 54.9654C54.208 54.9654 53.2316 54.2331 52.4992 53.7449C51.7669 53.2566 51.0346 52.7684 49.5699 52.7684C48.1052 52.7684 47.617 53.2566 46.6406 53.7449C45.9082 54.4772 44.9318 54.9654 43.223 54.9654C41.5142 54.9654 40.5378 54.2331 39.8054 53.7449C39.0731 53.2566 38.3408 52.7684 36.8761 52.7684C35.4115 52.7684 34.9232 53.2566 33.9468 53.7449C33.2144 54.4772 32.238 54.9654 30.5292 54.9654C28.8204 54.9654 27.844 54.2331 27.1117 53.7449C26.3793 53.2566 25.647 52.7684 24.1823 52.7684C23.45 52.7684 22.7177 53.0125 22.2294 53.2566C21.9853 53.5007 21.7412 53.2566 21.4971 53.0125C21.253 52.7684 21.4971 52.5243 21.7412 52.2802C22.4736 51.792 23.2059 51.5479 24.1823 51.5479C25.8911 51.5479 26.8676 52.2802 27.5999 52.7684C28.3322 53.2566 29.0646 53.7449 30.5292 53.7449C31.9939 53.7449 32.4821 53.2566 33.4586 52.7684C34.1909 52.0361 35.1673 51.5479 36.8761 51.5479C38.5849 51.5479 39.5613 52.2802 40.2937 52.7684C41.026 53.2566 41.7583 53.7449 43.223 53.7449C44.6877 53.7449 45.1759 53.2566 46.1523 52.7684C46.8847 52.0361 47.8611 51.5479 49.5699 51.5479C51.2787 51.5479 52.2551 52.2802 52.9874 52.7684C53.7198 53.2566 54.4521 53.7449 55.9168 53.7449C57.3815 53.7449 57.8697 53.2566 58.8461 52.7684C59.5785 52.0361 60.5549 51.5479 62.2637 51.5479C62.5078 51.5479 62.7519 51.792 62.7519 52.0361C62.7519 52.2802 62.5078 52.5243 62.2637 52.5243C60.799 52.5243 60.3108 53.0125 59.3343 53.5007C58.602 54.2331 57.6256 54.9654 55.9168 54.9654Z" fill="#1E1E1E"/>
<path d="M18.0788 54.964C16.37 54.964 15.3935 54.2316 14.6612 53.7434C13.9289 53.2552 13.1965 52.767 11.7319 52.767C11.4878 52.767 11.2437 52.5229 11.2437 52.2787C11.2437 52.0346 11.4878 51.7905 11.7319 51.7905C13.4407 51.7905 14.4171 52.5229 15.1494 53.0111C15.8818 53.4993 16.6141 53.9875 18.0788 53.9875C19.0552 53.9875 19.7875 53.7434 20.0317 53.4993C20.2758 53.2552 20.5199 53.4993 20.764 53.7434C21.0081 53.9875 20.764 54.2316 20.5199 54.4758C19.7875 54.7199 19.0552 54.964 18.0788 54.964Z" fill="#1E1E1E"/>
<path d="M55.9158 36.6564C54.2071 36.6564 53.2306 35.924 52.4983 35.4358C51.7659 34.9476 51.0336 34.4594 49.5689 34.4594C48.1043 34.4594 47.6161 34.9476 46.6396 35.4358C45.9073 36.1681 44.9308 36.6564 43.222 36.6564C42.9779 36.6564 42.9779 36.6564 42.7338 36.6564C42.4897 36.6564 42.2456 36.4122 42.2456 36.1681C42.2456 35.924 42.4897 35.6799 42.7338 35.6799H42.9779C44.4426 35.6799 44.9308 35.1917 45.9073 34.7035C46.6396 34.2152 47.6161 33.4829 49.3248 33.4829C51.0336 33.4829 52.0101 34.2152 52.7424 34.7035C53.4747 35.1917 54.2071 35.6799 55.6717 35.6799C57.1364 35.6799 57.6246 35.1917 58.6011 34.7035C59.3334 34.2152 60.3098 33.4829 62.0186 33.4829C62.2627 33.4829 62.5068 33.727 62.5068 33.9711C62.5068 34.2152 62.2627 34.4594 62.0186 34.4594C60.5539 34.4594 60.0657 34.9476 59.0893 35.4358C58.6011 35.924 57.6246 36.6564 55.9158 36.6564Z" fill="#1E1E1E"/>
<path d="M30.5289 36.6564C28.8201 36.6564 27.8437 35.924 27.1113 35.4358C26.379 34.9476 25.6467 34.4594 24.182 34.4594C22.7173 34.4594 22.2291 34.9476 21.2527 35.4358C20.5203 36.1681 19.5439 36.6564 17.8351 36.6564C16.1263 36.6564 15.1499 35.924 14.4176 35.4358C13.6852 34.9476 12.9529 34.4594 11.4882 34.4594C11.2441 34.4594 11 34.2152 11 33.9711C11 33.727 11.2441 33.4829 11.4882 33.4829C13.197 33.4829 14.1734 34.2152 14.9058 34.7035C15.6381 35.1917 16.3704 35.6799 17.8351 35.6799C19.2998 35.6799 19.788 35.1917 20.7644 34.7035C21.4968 34.2152 22.4732 33.4829 24.182 33.4829C25.8908 33.4829 26.8672 34.2152 27.5996 34.7035C28.3319 35.1917 29.0642 35.6799 30.5289 35.6799H30.773C31.0171 35.6799 31.2612 35.924 31.2612 36.1681C31.2612 36.4122 31.0171 36.6564 30.773 36.6564C31.0171 36.6564 30.773 36.6564 30.5289 36.6564Z" fill="#1E1E1E"/>
<path d="M36.8753 47.8854C33.7019 47.8854 31.0167 45.2002 31.0167 41.7826C31.0167 41.2944 31.0167 40.5621 31.9931 37.3886C32.2372 36.6563 32.4813 36.1681 32.7254 35.4358C32.9695 34.4593 33.4578 33.2388 33.7019 32.2623C33.946 31.7741 33.7019 31.0418 33.4578 30.7976C33.2137 30.3094 32.4813 30.0653 31.9931 30.0653H11.7319C11.4878 30.0653 11.2437 29.8212 11.2437 29.5771C11.2437 29.333 11.4878 29.0889 11.7319 29.0889H31.9931C32.9695 29.0889 33.7019 29.5771 34.1901 30.3094C34.6783 31.0418 34.9224 32.0182 34.6783 32.7505C34.4342 33.9711 33.946 34.9475 33.7019 36.1681C33.4578 36.9004 33.2137 37.3886 32.9695 38.121C31.9931 41.0503 31.9931 41.7826 31.9931 42.2709C31.9931 45.2002 34.1901 47.3972 36.6312 47.3972C39.3164 47.3972 41.2693 45.2002 41.2693 42.2709C41.2693 41.7826 41.2693 41.0503 40.2929 38.121C40.0488 37.3886 39.8047 36.9004 39.5605 36.1681C39.3164 35.1916 38.8282 33.9711 38.5841 32.7505C38.34 31.7741 38.5841 31.0418 39.0723 30.3094C39.5606 29.5771 40.537 29.0889 41.2693 29.0889H61.5306C61.7747 29.0889 62.0188 29.333 62.0188 29.5771C62.0188 29.8212 61.7747 30.0653 61.5306 30.0653H41.2693C40.7811 30.0653 40.2929 30.3094 39.8047 30.7976C39.5605 31.2859 39.3164 31.7741 39.5605 32.2623C39.8047 33.2388 40.2929 34.4593 40.537 35.4358C40.7811 36.1681 41.0252 36.6563 41.2693 37.3886C42.2458 40.5621 42.2458 41.2944 42.2458 41.7826C42.734 45.2002 40.2929 47.8854 36.8753 47.8854Z" fill="#1E1E1E"/>
<path d="M36.8751 44.9568C35.1664 44.9568 33.9458 43.4922 33.9458 41.7834C33.9458 41.2952 34.1899 40.3187 34.6781 39.3423C34.9222 38.6099 35.1664 37.8776 35.4105 37.3894C35.4105 37.1453 35.8987 36.9012 36.1428 37.1453C36.3869 37.1453 36.631 37.6335 36.3869 37.8776C36.1428 38.6099 35.8987 39.3423 35.6546 40.0746C35.4105 41.051 34.9222 41.7834 34.9222 42.2716C34.9222 43.4922 35.6546 44.4686 36.8751 44.4686C37.8516 44.4686 38.828 43.4922 38.828 42.2716C38.828 42.2716 38.828 41.5393 37.8516 38.854C36.3869 33.9718 35.8987 28.8455 36.631 23.7192C37.3634 17.8605 39.5604 12.0018 42.7338 7.1196C42.9779 6.87549 43.222 6.87549 43.4661 6.87549C43.7102 7.1196 43.7102 7.36371 43.7102 7.60782C40.5368 12.49 38.3398 17.8605 37.6075 23.7192C37.1192 28.6014 37.3634 33.7277 38.828 38.3658C39.5604 41.0511 39.8045 41.7834 39.8045 42.0275C39.8045 43.7363 38.5839 44.9568 36.8751 44.9568Z" fill="#1E1E1E"/>
<path d="M37.1205 23.9638C36.8764 23.9638 36.6323 23.7197 36.6323 23.4756C36.6323 22.9874 35.6559 14.4435 37.1205 7.85248C37.1205 7.60837 37.3647 7.36426 37.8529 7.36426C38.097 7.36426 38.3411 7.60837 38.3411 8.09659C36.8764 14.4435 37.8529 23.2315 37.8529 23.2315C37.6088 23.7197 37.6088 23.9638 37.1205 23.9638Z" fill="#1E1E1E"/>
</svg>
