<svg width="134" height="134" viewBox="0 0 134 134" fill="none" xmlns="http://www.w3.org/2000/svg">
<path d="M0 10C0 4.47715 4.47715 0 10 0H124C129.523 0 134 4.47715 134 10V134H0V10Z" fill="#EDC9B4"/>
<path d="M53.4319 45.6836C53.4319 45.6836 55.2796 39.3586 62.871 37.8984C70.4625 36.4383 85.7838 35.2134 92.0327 47.386C99.6934 62.306 97.2783 73.2191 97.5966 81.6825C98.3509 101.509 98.2748 132.532 98.2748 132.532H38.2974C38.2974 132.532 36.2836 132.567 35.647 120.609C35.2179 112.595 34.6089 91.6061 35.3425 77.9041C36.0276 65.2747 38.1036 37.6562 53.4319 45.6836Z" fill="#72130D"/>
<path d="M54.677 55.828C50.5456 57.9041 50.255 63.98 49.1685 67.9314C47.743 73.1285 45.923 78.0695 50.4003 82.2978C50.9678 82.8375 52.075 82.4915 52.0266 81.6265C51.9089 79.6958 51.3276 77.8411 51.2031 75.9243C51.0508 73.5575 51.902 71.1216 52.2688 68.7895C52.9539 64.416 53.0577 60.3469 55.3067 56.4577C55.549 56.0425 55.0784 55.6342 54.6839 55.8349L54.677 55.828Z" fill="#440908"/>
<path d="M56.1722 53.5934C60.7049 51.5035 65.8328 50.3409 70.8015 51.2682C75.1197 52.0779 78.4345 54.6799 81.0434 58.1469C87.4169 66.6311 80.4275 75.7311 81.5486 84.9696C81.6939 86.1529 83.3409 86.928 84.0122 85.6408C86.7041 80.4645 87.9082 74.3332 88.2543 68.541C88.5795 63.0672 86.6765 58.5344 83.251 54.3546C80.2684 50.7146 76.0747 47.8981 71.2859 47.7112C65.7083 47.4967 60.1652 49.7735 55.8262 53.1367C55.5494 53.3512 55.9023 53.718 56.1791 53.5934H56.1722Z" fill="#440908"/>
<path d="M84.3232 63.9522C83.1814 70.3396 82.953 77.6335 85.6934 83.5641C87.292 87.4394 91.3957 89.4947 90.4822 94.0551C89.3404 98.6155 84.5516 100.899 83.6381 105.46C82.4963 110.02 86.8283 113.217 89.112 116.636C93.2157 122.795 92.9873 128.04 86.3716 131.687L60.6008 133.057C51.9367 132.372 36.8783 130.317 42.1238 118.006C45.3141 111.162 52.1581 109.342 56.4902 103.64C59.6804 99.5359 56.7185 94.9755 53.7567 91.55C49.8814 87.218 47.141 84.0208 47.8261 77.8618C48.7396 70.1043 53.7567 63.7239 59.0022 58.25L84.3163 63.9522H84.3232Z" fill="#440908"/>
<path d="M68.8021 46.4039C74.1653 46.7983 79.7568 47.4834 84.3103 50.5629C90.7046 54.888 91.272 63.6144 91.4658 70.6038C91.4658 70.6315 91.5073 70.6315 91.5073 70.6038C91.6872 63.4691 91.4589 56.2098 85.8397 51.0404C81.3277 46.8952 74.622 46.2932 68.8021 46.2378C68.6914 46.2378 68.6983 46.397 68.8021 46.4039Z" fill="#992317"/>
<path d="M91.2441 87.731V116.311" stroke="#992317" stroke-miterlimit="10"/>
<path d="M47.1904 69.5161C47.1904 69.5161 43.502 91.8753 43.9933 108.954" stroke="#992317" stroke-miterlimit="10"/>
<path d="M54.261 47.1164C54.2403 49.0748 54.2057 51.144 54.787 53.0263C55.3683 54.9016 56.4271 56.9154 57.4028 58.6109C57.7281 59.1783 58.51 58.8808 58.5585 58.2995C58.7107 56.5348 57.5551 55.13 56.6762 53.6906C55.4098 51.6215 55.3406 49.3101 54.5863 47.0749C54.5309 46.9019 54.261 46.9296 54.261 47.1164Z" fill="#440908"/>
<path d="M74.7175 91.5635C74.7175 91.5635 73.6448 104.449 73.8386 106.248C74.0324 108.047 90.3571 114.718 93.4574 116.968C96.5576 119.217 96.6476 126.607 95.658 132.912H40.8154C39.8258 126.607 39.9158 119.217 43.016 116.968C46.1163 114.718 62.441 108.047 62.6348 106.248C62.8286 104.449 61.7559 91.5635 61.7559 91.5635H74.7175Z" fill="#E5805C"/>
<path d="M74.7164 91.5635H61.7549C61.7549 91.5635 62.3223 98.4006 62.5576 102.809C66.4329 102.525 70.2944 101.847 74.0382 100.712C74.3081 96.5183 74.7164 91.5635 74.7164 91.5635Z" fill="#CC6144"/>
<path d="M68.2345 134H97.5969C97.5969 134 96.7388 117.606 95.6592 116.79C94.5797 115.98 79.805 108.949 79.805 108.949C79.805 108.949 76.0405 112.236 68.2345 112.236C60.4285 112.236 56.6639 108.949 56.6639 108.949C56.6639 108.949 41.8893 115.973 40.8097 116.79C39.7302 117.599 38.8721 134 38.8721 134H68.2345Z" fill="#FFECE3"/>
<path d="M68.0199 118.139C72.7534 115.302 77.6944 112.735 82.67 110.319C80.9676 109.503 79.805 108.949 79.805 108.949C79.805 108.949 76.0405 112.236 68.2345 112.236C60.4285 112.236 56.6639 108.949 56.6639 108.949C56.6639 108.949 41.8893 115.973 40.8097 116.79C39.7302 117.599 38.8721 134 38.8721 134H50.4634C55.2799 127.738 61.0859 122.374 68.013 118.146L68.0199 118.139Z" fill="#F9F7ED"/>
<path d="M85.3131 75.3158C85.3131 75.3158 88.9601 71.046 92.3786 73.8695C95.8111 76.6998 93.7073 86.8449 83.8184 86.4158L85.3131 75.3158Z" fill="#E5805C"/>
<path d="M86.4969 83.7239C87.0436 84.7689 89.964 84.4367 91.5694 81.461C93.1749 78.4853 92.5867 75.5096 91.7978 75.8556C91.0089 76.2017 85.1821 81.2119 86.5039 83.7239H86.4969Z" fill="#D87350"/>
<path d="M92.0324 75.9812L91.984 75.8428H91.8594L91.7972 75.8566C88.7246 77.0192 86.4894 79.898 85.8319 83.5588C85.8112 83.6626 85.8389 83.7664 85.9081 83.8494C85.9773 83.9325 86.0811 83.9809 86.1849 83.9809C86.3371 83.9809 86.4617 83.884 86.5032 83.7249C86.5101 83.6972 86.517 83.6695 86.524 83.6418C86.9322 83.8633 87.3821 83.9809 87.8388 83.9809C88.8561 83.9809 89.991 83.365 90.2193 81.981C90.3785 81.0468 89.9218 80.2786 89.119 80.1195C88.6346 80.0226 88.1225 80.244 87.6866 80.5554C88.69 78.6593 90.1155 77.1922 91.9425 76.1819C92.0117 76.1403 92.0532 76.0573 92.0324 75.9812ZM89.3958 82.2163C89.1052 82.9014 88.4962 83.3097 87.7558 83.3097C87.389 83.3097 87.0291 83.2128 86.697 83.0259C86.863 82.4723 87.0499 81.9464 87.2644 81.4412C87.6589 81.1367 88.0879 80.8322 88.6 80.6869C88.9599 80.5831 89.2159 80.6454 89.3751 80.8876C89.5965 81.2267 89.5619 81.8287 89.4028 82.2232L89.3958 82.2163Z" fill="#CC6144"/>
<path d="M90.1147 73.8562C89.2843 73.5102 87.6719 74.0638 87.7342 75.1226C87.748 75.3787 87.9764 75.5794 88.2394 75.5032C88.9729 75.3026 89.3881 74.4998 90.1147 74.2714C90.3362 74.2022 90.3085 73.9324 90.1147 73.8493V73.8562Z" fill="#F48462"/>
<path d="M51.1618 75.3158C51.1618 75.3158 47.5148 71.046 44.0962 73.8695C40.6638 76.6998 42.7676 86.8449 52.6565 86.4158L51.1618 75.3158Z" fill="#E5805C"/>
<path d="M44.4212 76.1253C43.3278 76.0423 44.3727 82.3812 46.8502 83.9797C49.3276 85.5852 50.684 85.3845 50.331 83.3154C49.9781 81.2463 46.6218 76.2845 44.4212 76.1253Z" fill="#D87350"/>
<path d="M44.6769 75.8566L44.6147 75.8428C44.5316 75.8428 44.4624 75.8981 44.4417 75.9812L44.4209 76.1196L44.5247 76.1819C46.3516 77.1922 47.7772 78.6593 48.7806 80.5554C48.3516 80.244 47.8326 80.0226 47.3481 80.1195C46.5454 80.2786 46.0887 81.0468 46.2478 81.981C46.4762 83.365 47.6042 83.9809 48.6284 83.9809C49.092 83.9809 49.5418 83.8633 49.9432 83.6418C49.9501 83.6695 49.9571 83.6972 49.964 83.7249C50.0055 83.8771 50.1301 83.9809 50.2823 83.9809C50.3861 83.9809 50.4899 83.9325 50.5591 83.8494C50.6283 83.7664 50.656 83.6626 50.6352 83.5588C49.9778 79.898 47.7426 77.0192 44.67 75.8566H44.6769ZM48.7253 83.3097C47.9848 83.3097 47.3689 82.9014 47.0852 82.2163C46.9191 81.8287 46.8845 81.2198 47.1129 80.8807C47.2236 80.7146 47.3758 80.6385 47.5834 80.6385C47.6734 80.6385 47.7772 80.6523 47.8879 80.6869C48.3931 80.8322 48.8291 81.1367 49.2235 81.4412C49.438 81.9395 49.6318 82.4723 49.791 83.0259C49.4588 83.2128 49.092 83.3097 48.7322 83.3097H48.7253Z" fill="#CC6144"/>
<path d="M68.2344 48.3613C66.8088 48.3613 53.0791 52.202 51.7989 59.316C50.5186 66.43 48.5256 76.1736 51.446 84.4986C54.3594 92.8236 66.2413 97.3563 68.2344 97.3563C70.2274 97.3563 82.1094 92.8236 85.0228 84.4986C87.9362 76.1736 85.9501 66.43 84.6698 59.316C83.3896 52.202 69.6599 48.3613 68.2344 48.3613Z" fill="#E5805C"/>
<path d="M55.1413 76.7898C54.989 66.9216 57.854 57.8008 62.795 49.9395C58.3038 51.6903 52.6085 54.8597 51.8057 59.3232C50.5255 66.4372 48.5325 76.1808 51.4528 84.5058C54.1309 92.1527 64.3728 96.5954 67.563 97.2667C67.1063 97.0037 66.6565 96.7269 66.2205 96.4293C59.7363 92.0143 55.3212 84.7204 55.1413 76.7898Z" fill="#CC6144"/>
<path d="M71.1754 70.7959C70.1858 73.3149 69.3762 76.7266 70.4419 79.3424C70.6079 79.7507 71.2584 79.8545 71.383 79.3424C71.7152 77.986 71.4591 76.6504 71.3623 75.2733C71.2584 73.7924 71.21 72.2976 71.3346 70.8167C71.3415 70.7198 71.21 70.7198 71.1823 70.7959H71.1754Z" fill="#F48462"/>
<path d="M86.4616 75.634C86.0602 78.1115 85.4443 80.4851 84.5862 82.8449C83.6174 85.5161 81.9773 87.6475 80.5863 90.0765C80.4687 90.2841 80.7247 90.5886 80.9323 90.4225C85.2921 87.1008 86.2678 80.7204 86.51 75.634C86.51 75.6064 86.4685 75.6064 86.4685 75.634H86.4616Z" fill="#F48462"/>
<path d="M62.2705 76.25C60.845 77.3711 58.8866 77.8071 57.115 77.4057C55.2742 76.9905 54.4369 75.1359 53.6341 73.6619C53.5926 73.5857 53.4611 73.6203 53.468 73.7034C53.6272 75.9871 54.6168 77.6341 56.852 78.3538C58.7343 78.9558 61.274 77.897 62.3051 76.2777C62.319 76.2569 62.2913 76.2362 62.2705 76.25Z" fill="#CC6144"/>
<path d="M74.2083 76.25C75.6338 77.3711 77.5922 77.8071 79.3638 77.4057C81.2046 76.9905 82.0419 75.1359 82.8447 73.6619C82.8862 73.5857 83.0177 73.6203 83.0107 73.7034C82.8516 75.9871 81.862 77.6341 79.6268 78.3538C77.7445 78.9558 75.2048 77.897 74.1736 76.2777C74.1598 76.2569 74.1875 76.2362 74.2083 76.25Z" fill="#CC6144"/>
<g style="mix-blend-mode:multiply" opacity="0.4">
<path d="M85.6961 77.9727C86.229 79.938 84.229 82.194 81.2187 83.0106C78.2085 83.8272 75.3366 82.8999 74.8037 80.9346C74.2709 78.9692 76.2708 76.7132 79.2811 75.8966C82.2914 75.0801 85.1633 76.0074 85.6961 77.9727Z" fill="#E24D4D"/>
</g>
<g style="mix-blend-mode:multiply" opacity="0.4">
<path d="M50.7832 77.9727C50.2503 79.938 52.2503 82.194 55.2606 83.0106C58.2709 83.8272 61.1427 82.8999 61.6756 80.9346C62.2085 78.9692 60.2085 76.7132 57.1982 75.8966C54.1879 75.0801 51.3161 76.0074 50.7832 77.9727Z" fill="#E24D4D"/>
</g>
<path d="M68.99 84.5534C68.8862 84.3112 68.5264 84.1797 68.3049 84.0759C67.952 83.9099 67.606 83.8545 67.2323 84.0067C66.9001 84.1451 67.0662 84.588 67.3568 84.6365C67.6337 84.6849 67.9035 84.6365 68.1873 84.6434C68.4226 84.6434 68.6924 84.7749 68.9139 84.7126C68.9831 84.6918 69.0246 84.6226 68.99 84.5534Z" fill="#CC6144"/>
<path d="M70.8869 84.5057C71.0599 84.5334 71.2745 84.3465 71.4267 84.2773C71.6412 84.1804 71.8765 84.1874 71.9872 83.9451C72.0288 83.8552 71.9803 83.7375 71.9042 83.6891C71.662 83.5369 71.4405 83.7168 71.2399 83.869C71.0876 83.9798 70.797 84.1874 70.79 84.388C70.79 84.4503 70.8316 84.4918 70.8869 84.5057Z" fill="#CC6144"/>
<path d="M76.8924 86.1934C72.3735 88.83 67.3494 89.8195 62.2146 88.4909C62.1039 88.4632 62.0555 88.6362 62.1662 88.6639C67.0795 89.9372 72.761 89.2936 76.927 86.2556C76.9616 86.228 76.927 86.1795 76.8924 86.2003V86.1934Z" fill="#A8332D"/>
<path d="M62.2076 88.269C62.1384 88.3451 62.0692 88.4212 62.0069 88.5043C61.9238 88.6081 61.9169 88.705 61.9584 88.8295C61.9861 88.9195 62.1176 88.9679 62.1799 88.8849C62.2491 88.8019 62.2906 88.7465 62.3183 88.6358C62.339 88.5458 62.3667 88.4628 62.4013 88.3797C62.4428 88.269 62.2906 88.1929 62.2145 88.269H62.2076Z" fill="#A8332D"/>
<path d="M76.6221 86.1245C76.6221 86.2767 76.7466 86.4082 76.892 86.4359C77.0788 86.4774 77.1688 86.2421 77.0234 86.1314C76.9473 86.0829 76.885 86.0276 76.802 85.993C76.712 85.9584 76.629 86.0483 76.629 86.1245H76.6221Z" fill="#A8332D"/>
<path d="M63.8759 88.9199C65.6752 89.8957 67.8274 89.4044 69.7512 89.1483C71.8757 88.8715 73.6403 88.0964 75.5226 87.1345C75.578 87.1068 75.5365 87.01 75.4811 87.0307C71.7857 88.3317 67.6682 87.8957 63.8759 88.8715C63.8552 88.8715 63.8552 88.9061 63.8759 88.913V88.9199Z" fill="#A8332D"/>
<path d="M63.018 73.7028C63.018 73.7028 62.1529 69.9382 57.9662 68.6303C53.7795 67.3155 50.7138 70.9278 53.4335 72.7893C56.16 74.6509 63.018 73.7028 63.018 73.7028Z" fill="#3F1D2B"/>
<path d="M53.4464 72.4084C53.3357 73.0589 53.7232 77.0587 57.4117 77.7715C61.1071 78.4843 62.8579 76.0207 63.0447 74.3529C63.2385 72.6852 60.9687 70.0832 58.8857 69.6195C56.8096 69.1559 53.7993 70.36 53.4395 72.4084H53.4464Z" fill="#F9F7ED"/>
<path d="M58.8938 69.6126C56.8732 69.1628 53.9874 70.2838 53.4961 72.2284C54.5756 71.8686 55.6898 71.6817 56.8455 71.6125C58.8454 71.5018 60.8107 71.7232 62.4785 72.8997C62.6169 72.9966 62.7415 73.1073 62.873 73.218C62.3055 71.6956 60.5409 69.9863 58.8938 69.6195V69.6126Z" fill="#E8E5DD"/>
<path d="M61.655 73.702C61.655 75.3767 60.2987 76.74 58.6171 76.74C56.9355 76.74 55.5791 75.3836 55.5791 73.702C55.5791 72.0204 56.9355 70.6641 58.6171 70.6641C60.2987 70.6641 61.655 72.0204 61.655 73.702Z" fill="#725F28"/>
<path d="M59.1152 71.8073C59.8072 71.8834 60.5685 71.9595 61.2536 72.1948C60.7276 71.2883 59.7519 70.6724 58.6239 70.6724C57.6481 70.6724 56.7831 71.136 56.2295 71.8488C57.1776 71.6827 58.181 71.6966 59.1152 71.8073Z" fill="#3D3F26"/>
<path d="M61.4402 72.9266C61.4402 73.3211 61.1219 73.6394 60.7274 73.6394C60.333 73.6394 60.0146 73.3211 60.0146 72.9266C60.0146 72.5322 60.333 72.2139 60.7274 72.2139C61.1219 72.2139 61.4402 72.5322 61.4402 72.9266Z" fill="#A59568"/>
<path d="M73.4609 73.7028C73.4609 73.7028 74.326 69.9382 78.5127 68.6303C82.6994 67.3155 85.7651 70.9278 83.0454 72.7893C80.3189 74.6509 73.4609 73.7028 73.4609 73.7028Z" fill="#3F1D2B"/>
<path d="M83.0318 72.4084C83.1425 73.0589 82.7619 77.0587 79.0665 77.7715C75.3711 78.4843 73.6203 76.0207 73.4335 74.3529C73.2397 72.6852 75.5095 70.0832 77.5925 69.6195C79.6686 69.1559 82.6789 70.36 83.0387 72.4084H83.0318Z" fill="#F9F7ED"/>
<path d="M77.5856 69.6126C79.6063 69.1628 82.492 70.2838 82.9833 72.2284C81.9038 71.8686 80.7896 71.6817 79.6339 71.6125C77.634 71.5018 75.6687 71.7232 74.0009 72.8997C73.8625 72.9966 73.7379 73.1073 73.6064 73.218C74.1739 71.6956 75.9386 69.9863 77.5856 69.6195V69.6126Z" fill="#E8E5DD"/>
<path d="M74.8242 73.702C74.8242 75.3767 76.1806 76.74 77.8622 76.74C79.5438 76.74 80.9002 75.3836 80.9002 73.702C80.9002 72.0204 79.5438 70.6641 77.8622 70.6641C76.1806 70.6641 74.8242 72.0204 74.8242 73.702Z" fill="#725F28"/>
<path d="M77.3639 71.8073C76.6719 71.8834 75.9107 71.9595 75.2256 72.1948C75.7515 71.2883 76.7273 70.6724 77.8553 70.6724C78.831 70.6724 79.696 71.136 80.2496 71.8488C79.3016 71.6827 78.2982 71.6966 77.3639 71.8073Z" fill="#3D3F26"/>
<path d="M79.1914 72.9266C79.1914 73.3211 79.5097 73.6394 79.9042 73.6394C80.2986 73.6394 80.617 73.3211 80.617 72.9266C80.617 72.5322 80.2986 72.2139 79.9042 72.2139C79.5097 72.2139 79.1914 72.5322 79.1914 72.9266Z" fill="#A59568"/>
<path d="M84.5819 64.2497C82.0976 61.0733 75.6895 62.1598 73.1428 64.6856C72.8176 65.0109 73.1636 65.4468 73.5511 65.3915C75.2258 65.1493 76.7067 64.1874 78.3676 63.8344C80.1737 63.4538 82.8726 63.2462 84.3743 64.4573C84.5196 64.5749 84.6926 64.4019 84.575 64.2566L84.5819 64.2497Z" fill="#3F1D2B"/>
<path d="M52.098 64.4504C53.5443 63.2878 55.8557 63.4954 57.5996 63.7376C59.4819 64.0006 61.0735 65.1148 62.9281 65.3847C63.3156 65.44 63.6617 65.004 63.3364 64.6788C60.7898 62.1529 54.3748 61.0664 51.8973 64.2428C51.7797 64.3881 51.9527 64.5611 52.098 64.4435V64.4504Z" fill="#3F1D2B"/>
<path d="M70.201 90.823C69.9588 90.7538 69.6474 90.7814 69.4467 90.9475C69.3499 91.0237 69.2668 91.1205 69.1976 91.2174C69.1215 91.3351 69.1076 91.4596 69.0938 91.598C69.073 91.8333 69.3706 91.9786 69.5575 91.8679C69.6336 91.8264 69.7097 91.7849 69.772 91.7295C69.8273 91.6811 69.8689 91.6188 69.9312 91.5704C70.0004 91.515 70.0696 91.3835 70.1941 91.342C70.4294 91.2589 70.464 90.906 70.1941 90.8299L70.201 90.823Z" fill="#CC6144"/>
<path d="M50.6911 50.583C50.6911 50.583 35.003 59.7661 38.8783 117.294" stroke="#992317" stroke-miterlimit="10"/>
<path d="M60.0117 43.9056C60.0117 43.9056 92.1837 31.4908 95.0141 67.0122" stroke="#992317" stroke-miterlimit="10"/>
<path d="M32 24H106" stroke="#72130D" stroke-width="2" stroke-linecap="round" stroke-linejoin="round"/>
</svg>
