<svg width="134" height="134" viewBox="0 0 134 134" fill="none" xmlns="http://www.w3.org/2000/svg">
<path d="M0 10C0 4.47715 4.47715 0 10 0H124C129.523 0 134 4.47715 134 10V134H0V10Z" fill="#EDC9B4"/>
<path d="M34.2772 130.798C26.9535 115.398 37.7581 110.748 41.2529 106.327C47.4697 98.4603 32.7804 100.075 31.1375 88.3101C29.3692 75.6537 45.3185 76.2454 41.2529 67.0907C38.9346 61.8555 36.9714 50.5288 46.1957 41.9658C55.42 33.4029 65.9114 38.5128 65.9114 38.5128C65.9114 38.5128 76.4027 33.4029 85.627 41.9658C94.8513 50.5288 92.8881 61.8555 90.5698 67.0907C86.5111 76.2454 102.454 75.6537 100.685 88.3101C99.0423 100.075 84.353 98.4603 90.5698 106.327C94.0646 110.748 104.869 115.398 97.5455 130.798H34.2772Z" fill="#72130D"/>
<path d="M78.54 55.6316C79.3894 60.4909 80.2735 65.4198 81.2482 70.2652C81.7146 72.5904 82.55 74.7764 82.738 77.1573C82.919 79.4407 81.8747 81.3274 81.276 83.4577C81.0323 84.3279 81.9722 84.9336 82.7101 84.5646C87.3536 82.2463 86.3859 76.3776 85.1607 72.2771C84.2765 69.3184 83.1348 66.4293 82.2228 63.4705C81.3874 60.7694 80.4963 57.8315 78.8115 55.5272C78.7141 55.3949 78.5192 55.4715 78.547 55.6386L78.54 55.6316Z" fill="#440908"/>
<path d="M50.4906 55.8338C47.0306 56.3002 45.8123 61.8209 45.1231 64.536C44.0928 68.5738 41.3568 77.3734 45.3111 80.4505C45.8471 80.8682 46.599 80.8752 46.9749 80.2347C48.0749 78.3759 47.6433 76.4197 47.6502 74.3381C47.6641 71.637 48.1654 68.9497 48.4856 66.2764C48.9242 62.6493 49.6273 59.5723 50.79 56.1401C50.8596 55.9382 50.6507 55.8129 50.4836 55.8338H50.4906Z" fill="#440908"/>
<path d="M80.3502 58.0261C80.1204 63.9923 78.5123 69.7288 81.7286 75.0058C83.7962 78.4449 88.8435 82.5802 85.8569 86.9382C82.4178 91.2963 75.3029 91.7557 76.9111 99.1004C78.2895 105.067 84.026 107.587 86.0867 113.093C88.1543 118.83 88.1543 124.107 82.1881 126.634L58.0935 126.864C53.276 125.715 38.8165 123.425 43.4112 115.621C45.7086 111.492 53.276 108.735 53.9652 103.688C54.4247 99.3301 47.7693 95.6543 45.4788 92.445C42.2625 88.0869 44.7896 85.5598 47.087 81.6612C51.4451 74.0869 51.6748 65.3708 51.9045 56.8774L80.3571 58.0261H80.3502Z" fill="#440908"/>
<path d="M69.0367 45.454C73.6175 45.9483 78.5047 46.3869 82.264 49.3247C86.6568 52.7569 85.9816 59.1408 85.3132 64.0001C84.8468 67.4044 83.5658 70.746 85.3968 73.9554C86.3993 75.7167 88.5365 76.9141 90.0333 78.216C92.4072 80.2766 93.5838 83.5278 92.6648 86.5492C90.7921 92.7312 77.0218 93.5596 79.2078 101.433C80.1128 104.698 84.262 106.926 86.8309 108.715C89.4972 110.567 91.9408 112.565 93.1521 115.677C94.4192 118.921 92.637 122.708 91.2934 125.605C91.2377 125.723 91.4117 125.834 91.4744 125.709C93.368 121.755 94.7882 117.814 92.6996 113.651C90.7155 109.69 85.3898 107.56 82.2013 104.789C79.3958 102.352 78.3793 99.2334 81.2893 96.4975C83.2526 94.6526 86.0442 93.8451 88.3485 92.5363C91.5509 90.7192 94.0363 87.7187 93.8692 83.9037C93.6604 79.2324 89.4346 77.0812 86.5733 74.1294C83.9975 71.47 85.6613 67.3208 86.0999 64.2159C86.4271 61.8907 86.6568 59.5794 86.5803 57.2263C86.2531 47.3963 77.0148 45.7882 69.0437 45.1616C68.8557 45.1477 68.8626 45.4331 69.0437 45.454H69.0367Z" fill="#992317"/>
<path d="M88.7737 74.6095C94.4336 78.2505 101.284 84.328 95.3526 91.1575C92.2685 94.708 85.9264 95.4947 84.4853 100.451C83.1904 104.907 89.2193 108.987 92.1989 111.061C95.283 113.212 97.8658 115.384 98.2347 119.387C98.6246 123.627 95.3804 126.99 92.1641 129.176C92.1432 129.189 92.1641 129.224 92.185 129.21C96.3342 126.481 100.414 121.274 97.7335 116.06C95.0045 110.755 80.7677 105.227 87.3535 98.2515C91.1129 94.2624 97.9493 93.072 98.4784 86.5488C98.9727 80.4504 93.5773 77.0321 88.8364 74.4981C88.7668 74.4633 88.7041 74.5607 88.7737 74.6095Z" fill="#992317"/>
<path d="M68.5427 43.1495C75.2747 41.7084 84.0743 40.8591 88.1121 47.7512C90.9804 52.6384 89.407 58.4166 88.0982 63.4917C86.9983 67.7732 86.6014 71.0522 88.3001 75.2083C88.3071 75.2362 88.3488 75.2222 88.3419 75.1944C85.9122 69.256 88.6691 63.7841 89.8735 57.9014C90.6532 54.0655 90.2494 49.4151 87.7432 46.2336C83.1832 40.4484 74.8431 41.068 68.5009 42.9824C68.3965 43.0172 68.4383 43.1634 68.5427 43.1426V43.1495Z" fill="#992317"/>
<path d="M63.7322 45.7042C54.675 44.5624 45.7222 48.3705 43.5014 57.8942C42.1717 63.6028 44.7823 69.5203 41.5382 74.8599C38.7744 79.4129 32.7107 81.1394 33.4486 87.4398C33.9151 91.4497 38.0573 94.8332 41.1414 96.9634C43.2925 98.4463 45.6456 99.8247 47.0728 102.08C49.0917 105.276 44.1488 108.36 42.116 109.926C38.5585 112.655 34.8271 115.983 33.2189 120.271C31.5759 124.657 35.21 128.055 38.8301 129.774C39.1712 129.934 39.4427 129.482 39.1224 129.273C36.5884 127.588 33.9499 126.168 33.5113 122.833C33.1075 119.791 35.6833 116.853 37.5978 114.848C40.5496 111.75 44.6083 109.662 47.2398 106.299C49.1613 103.849 47.8664 101.426 45.9032 99.5323C42.478 96.2255 38.2662 94.4433 35.4188 90.4194C31.0051 84.1399 37.8206 80.0255 41.4546 75.9599C44.3159 72.7575 44.0305 68.1279 43.8564 64.1528C43.5988 58.1935 44.9912 52.7077 50.0176 49.0458C53.8953 46.2193 59.1096 45.8225 63.7322 46.1985C64.0594 46.2263 64.0455 45.739 63.7322 45.6972V45.7042Z" fill="#992317"/>
<path d="M64.4905 43.8245C57.849 40.455 48.757 39.9259 43.654 46.2263C39.0036 51.9697 40.5352 62.1269 42.199 68.657C42.2408 68.838 42.5471 68.8032 42.5262 68.6153C41.6699 61.8206 39.9922 54.3785 43.3268 47.9528C47.4273 40.0443 57.5427 41.7081 64.3165 44.2492C64.5601 44.3397 64.7203 43.9498 64.4905 43.8315V43.8245Z" fill="#992317"/>
<path d="M43.1464 75.8349C40.4313 79.6361 36.1429 83.9384 37.577 89.0483C38.7953 93.3994 45.1374 95.836 48.0962 98.7182C50.8252 101.378 52.5865 105.499 49.6974 108.673C47.936 110.602 45.3463 111.521 43.5571 113.449C40.9395 116.276 42.4223 120.327 43.8704 123.314C43.933 123.439 44.1489 123.349 44.1001 123.217C43.2926 121.198 42.478 119.234 42.5059 117.021C42.5477 113.686 45.9171 112.057 48.2981 110.47C51.5631 108.298 52.6074 105.478 51.0967 101.802C49.4537 97.8132 45.2349 95.5506 41.942 93.1279C38.7674 90.7888 37.215 88.1294 38.5307 84.1403C39.5054 81.1816 41.6287 78.5152 43.1951 75.8489C43.209 75.828 43.1742 75.8071 43.1603 75.828L43.1464 75.8349Z" fill="#992317"/>
<path d="M64.4075 41.5831C62.2563 39.7313 59.1792 38.5339 56.311 38.9237C56.1648 38.9446 56.2135 39.1604 56.3458 39.1674C59.2071 39.3414 62.0057 39.9053 64.3588 41.6527C64.3936 41.6806 64.4423 41.6179 64.4075 41.5901V41.5831Z" fill="#992317"/>
<path d="M67.1504 41.3604C69.6357 39.62 72.7198 39.7314 75.6228 39.6896C75.8386 39.6896 75.8386 39.3624 75.6228 39.3554C72.6989 39.3137 69.5034 39.4111 67.0668 41.2212C66.9833 41.2838 67.0668 41.43 67.1504 41.3674V41.3604Z" fill="#992317"/>
<path d="M65.4724 43.219C65.3053 44.862 64.9712 46.2892 64.4073 47.8555C63.9269 49.1922 63.3004 50.4662 63.2447 51.9003C63.2168 52.6452 64.3029 52.7566 64.5117 52.0744C64.999 50.4732 65.5003 48.872 65.9528 47.2638C66.2939 46.0316 66.6141 44.2494 65.8205 43.1355C65.7091 42.9754 65.4933 43.038 65.4724 43.233V43.219Z" fill="#440908"/>
<path d="M71.2515 91.3101C71.2515 91.3101 70.1724 104.273 70.3673 106.083C70.5623 107.893 86.985 114.604 90.1039 116.867C93.2227 119.129 93.3132 126.564 92.3177 132.906H37.1459C36.1504 126.564 36.2409 119.129 39.3598 116.867C42.4786 114.604 58.9014 107.893 59.0963 106.083C59.2912 104.273 58.2121 91.3101 58.2121 91.3101H71.2515Z" fill="#E5805C"/>
<path d="M71.2512 91.3101H58.2119C58.2119 91.3101 58.7828 98.1883 59.0195 102.623C62.918 102.337 66.7957 101.655 70.569 100.513C70.8335 96.2947 71.2512 91.3101 71.2512 91.3101Z" fill="#CC6144"/>
<path d="M64.7338 133.999H94.2725C94.2725 133.999 93.4092 117.507 92.3232 116.686C91.2372 115.871 76.3739 108.798 76.3739 108.798C76.3739 108.798 72.5867 112.105 64.7338 112.105C56.881 112.105 53.1008 108.798 53.1008 108.798C53.1008 108.798 38.2375 115.871 37.1514 116.686C36.0654 117.5 35.2021 133.999 35.2021 133.999H64.7408H64.7338Z" fill="#FFECE3"/>
<path d="M64.518 118.043C69.2799 115.189 74.2505 112.606 79.256 110.176C77.5434 109.355 76.3739 108.798 76.3739 108.798C76.3739 108.798 72.5867 112.105 64.7338 112.105C56.881 112.105 53.1008 108.798 53.1008 108.798C53.1008 108.798 38.2375 115.871 37.1514 116.686C36.0654 117.5 35.2021 133.999 35.2021 133.999H46.8631C51.7084 127.699 57.5493 122.304 64.518 118.05V118.043Z" fill="#F9F7ED"/>
<path d="M81.909 74.9572C81.909 74.9572 85.5778 70.6618 89.0169 73.5022C92.47 76.3496 90.3536 86.5555 80.4053 86.1239L81.909 74.9572Z" fill="#E5805C"/>
<path d="M83.1057 83.4232C83.6557 84.4744 86.5936 84.1402 88.2087 81.1467C89.8238 78.1531 89.2321 75.1596 88.4384 75.5077C87.6448 75.8558 81.79 80.8961 83.1127 83.4232H83.1057Z" fill="#D87350"/>
<path d="M88.6693 75.6329L88.6206 75.4937H88.4953L88.4326 75.5076C85.3416 76.6771 83.093 79.5732 82.4316 83.256C82.4107 83.3604 82.4386 83.4648 82.5082 83.5484C82.5778 83.6319 82.6822 83.6807 82.7866 83.6807C82.9398 83.6807 83.0651 83.5832 83.1069 83.4231C83.1138 83.3952 83.1208 83.3674 83.1278 83.3395C83.5385 83.5623 83.991 83.6807 84.4505 83.6807C85.4739 83.6807 86.6156 83.0611 86.8453 81.6687C86.9985 80.7289 86.546 79.9561 85.7384 79.796C85.2511 79.6985 84.7359 79.9213 84.2973 80.2346C85.3068 78.3271 86.7409 76.8512 88.5788 75.8348C88.6484 75.793 88.6902 75.7095 88.6693 75.6329ZM86.0169 81.9054C85.7245 82.5946 85.1119 83.0054 84.367 83.0054C83.998 83.0054 83.636 82.9079 83.3018 82.7199C83.4689 82.163 83.6569 81.6339 83.8727 81.1257C84.2695 80.8194 84.7011 80.5131 85.2163 80.3669C85.5783 80.2624 85.8359 80.3251 85.996 80.5688C86.2257 80.9099 86.184 81.5156 86.0238 81.9124L86.0169 81.9054Z" fill="#CC6144"/>
<path d="M86.7476 73.4955C85.9052 73.1474 84.2831 73.7044 84.3528 74.7695C84.3667 75.0271 84.5964 75.229 84.861 75.1524C85.5989 74.9505 86.0166 74.143 86.7476 73.9132C86.9704 73.8436 86.9425 73.5721 86.7476 73.4886V73.4955Z" fill="#F48462"/>
<path d="M47.5601 74.9572C47.5601 74.9572 43.8912 70.6618 40.4521 73.5022C36.9991 76.3496 39.1155 86.5555 49.0638 86.1239L47.5601 74.9572Z" fill="#E5805C"/>
<path d="M40.7792 75.7718C39.6793 75.6883 40.7305 82.0652 43.2228 83.6734C45.7151 85.2885 47.0796 85.0866 46.7246 83.0051C46.3695 80.9235 42.9931 75.9319 40.7792 75.7718Z" fill="#D87350"/>
<path d="M41.0369 75.5076L40.9742 75.4937C40.8907 75.4937 40.8211 75.5493 40.8002 75.6329L40.7793 75.7791L40.8837 75.8348C42.7216 76.8512 44.1627 78.3271 45.1652 80.2346C44.7336 79.9213 44.2114 79.6985 43.7241 79.796C42.9166 79.9561 42.4571 80.7289 42.6172 81.6687C42.8469 83.0611 43.9817 83.6807 45.012 83.6807C45.4785 83.6807 45.931 83.5623 46.3348 83.3395C46.3417 83.3674 46.3487 83.3952 46.3556 83.4231C46.3974 83.5762 46.5227 83.6807 46.6759 83.6807C46.7803 83.6807 46.8847 83.6319 46.9544 83.5484C47.024 83.4648 47.0449 83.3604 47.0309 83.256C46.3696 79.5732 44.1209 76.6771 41.0299 75.5076H41.0369ZM45.1025 83.0054C44.3576 83.0054 43.738 82.5946 43.4526 81.9054C43.2855 81.5156 43.2507 80.9029 43.4805 80.5618C43.5918 80.3947 43.745 80.3181 43.9538 80.3181C44.0444 80.3181 44.1488 80.3321 44.2602 80.3669C44.7684 80.5131 45.207 80.8194 45.6038 81.1257C45.8196 81.6269 46.0145 82.163 46.1746 82.7199C45.8405 82.9079 45.4715 83.0054 45.1095 83.0054H45.1025Z" fill="#CC6144"/>
<path d="M64.7348 47.8486C63.3007 47.8486 49.4886 51.7124 48.2007 58.8691C46.9128 66.0257 44.9078 75.8279 47.8456 84.2028C50.7765 92.5778 62.7298 97.1377 64.7348 97.1377C66.7398 97.1377 78.6931 92.5778 81.624 84.2028C84.5549 75.8279 82.5499 66.0257 81.2689 58.8691C79.981 51.7124 66.1689 47.8486 64.7348 47.8486Z" fill="#E5805C"/>
<path d="M51.5562 76.4476C51.41 66.5201 54.2852 57.3446 59.2559 49.436C54.7378 51.1904 49.0082 54.3858 48.2007 58.8762C46.9128 66.0328 44.9078 75.8349 47.8456 84.2099C50.5398 91.9026 60.8432 96.3721 64.0526 97.0474C63.5931 96.7828 63.1406 96.5043 62.702 96.205C56.1788 91.7634 51.7372 84.4257 51.5562 76.4476Z" fill="#CC6144"/>
<path d="M67.6936 70.4183C66.698 72.9524 65.8835 76.3845 66.9556 79.0161C67.1227 79.4268 67.7771 79.5313 67.9024 79.0161C68.2366 77.6516 67.979 76.308 67.8815 74.9226C67.7771 73.4328 67.7284 71.929 67.8537 70.4392C67.8607 70.3418 67.7284 70.3418 67.7005 70.4183H67.6936Z" fill="#F48462"/>
<path d="M83.0654 75.2846C82.6616 77.7769 82.042 80.1647 81.1788 82.5387C80.2041 85.2259 78.5542 87.3701 77.1549 89.8137C77.0365 90.0226 77.2941 90.3289 77.503 90.1618C81.8889 86.8202 82.8705 80.4014 83.1141 75.2846C83.1141 75.2567 83.0723 75.2567 83.0723 75.2846H83.0654Z" fill="#F48462"/>
<path d="M58.7267 75.904C57.2926 77.0318 55.3224 77.4704 53.5402 77.0666C51.6884 76.6489 50.846 74.7832 50.0384 73.3003C49.9967 73.2237 49.8644 73.2585 49.8714 73.3421C50.0315 75.6395 51.027 77.2963 53.2756 78.0204C55.1692 78.626 57.7242 77.5609 58.7615 75.9318C58.7754 75.911 58.7476 75.8901 58.7267 75.904Z" fill="#CC6144"/>
<path d="M70.7358 75.904C72.1699 77.0318 74.1401 77.4704 75.9223 77.0666C77.7741 76.6489 78.6165 74.7832 79.4241 73.3003C79.4658 73.2237 79.5981 73.2585 79.5912 73.3421C79.431 75.6395 78.4355 77.2963 76.1869 78.0204C74.2933 78.626 71.7383 77.5609 70.701 75.9318C70.6871 75.911 70.7149 75.8901 70.7358 75.904Z" fill="#CC6144"/>
<g style="mix-blend-mode:multiply" opacity="0.4">
<path d="M82.2991 77.6373C82.8352 79.6145 80.8232 81.884 77.7949 82.7055C74.7665 83.527 71.8774 82.5941 71.3413 80.617C70.8053 78.6398 72.8172 76.3703 75.8456 75.5488C78.8739 74.7273 81.7631 75.6602 82.2991 77.6373Z" fill="#E24D4D"/>
</g>
<g style="mix-blend-mode:multiply" opacity="0.4">
<path d="M47.1704 77.6373C46.6344 79.6145 48.6463 81.884 51.6747 82.7055C54.703 83.527 57.5922 82.5941 58.1282 80.617C58.6643 78.6398 56.6523 76.3703 53.624 75.5488C50.5956 74.7273 47.7065 75.6602 47.1704 77.6373Z" fill="#E24D4D"/>
</g>
<path d="M65.4939 84.2579C65.3894 84.0143 65.0344 83.882 64.8046 83.7776C64.4496 83.6105 64.1015 83.5548 63.7256 83.708C63.3914 83.8472 63.5585 84.2927 63.8509 84.3415C64.1293 84.3902 64.4009 84.3415 64.6863 84.3484C64.923 84.3484 65.1945 84.4807 65.4173 84.4181C65.4869 84.3972 65.5287 84.3275 65.4939 84.2579Z" fill="#CC6144"/>
<path d="M67.3943 84.2097C67.5684 84.2375 67.7842 84.0496 67.9374 83.9799C68.1601 83.8825 68.3899 83.8894 68.5013 83.6458C68.543 83.5553 68.4943 83.4369 68.4177 83.3882C68.1741 83.235 67.9513 83.416 67.7494 83.5692C67.5962 83.6806 67.3038 83.8894 67.2969 84.0913C67.2969 84.154 67.3386 84.1957 67.3943 84.2097Z" fill="#CC6144"/>
<path d="M73.444 85.9082C68.898 88.5606 63.8438 89.5562 58.6782 88.2195C58.5668 88.1917 58.5181 88.3657 58.6295 88.3935C63.5723 89.6745 69.2879 89.0271 73.4788 85.9709C73.5137 85.943 73.4788 85.8943 73.444 85.9152V85.9082Z" fill="#A8332D"/>
<path d="M58.671 87.9967C58.6014 88.0733 58.5318 88.1499 58.4691 88.2334C58.3856 88.3378 58.3856 88.4353 58.4204 88.5606C58.4482 88.6511 58.5805 88.6999 58.6432 88.6163C58.7128 88.5328 58.7546 88.4771 58.7824 88.3657C58.8033 88.2752 58.8311 88.1917 58.8659 88.1081C58.9077 87.9967 58.7546 87.9201 58.678 87.9967H58.671Z" fill="#A8332D"/>
<path d="M73.1729 85.8387C73.1729 85.9918 73.2982 86.1241 73.4444 86.152C73.6323 86.1937 73.7228 85.957 73.5697 85.8456C73.4931 85.7969 73.4304 85.7412 73.3469 85.7064C73.2564 85.6716 73.1729 85.7621 73.1729 85.8387Z" fill="#A8332D"/>
<path d="M60.3495 88.651C62.1596 89.6326 64.3247 89.1383 66.267 88.8808C68.4043 88.6023 70.1795 87.8226 72.0731 86.8549C72.1288 86.827 72.094 86.7296 72.0313 86.7505C68.3138 88.0593 64.1715 87.6207 60.3565 88.6093C60.3356 88.6093 60.3356 88.6441 60.3565 88.651H60.3495Z" fill="#A8332D"/>
<path d="M59.486 73.3424C59.486 73.3424 58.6157 69.5552 54.4039 68.2394C50.192 66.9167 47.108 70.5507 49.844 72.4234C52.5869 74.2961 59.486 73.3424 59.486 73.3424Z" fill="#3F1D2B"/>
<path d="M49.8578 72.0336C49.7464 72.688 50.1293 76.7119 53.8469 77.4289C57.5644 78.146 59.3258 75.6676 59.5137 73.9899C59.7086 72.3121 57.4252 69.6945 55.3297 69.228C53.2412 68.7616 50.2128 69.9729 49.8508 72.0336H49.8578Z" fill="#F9F7ED"/>
<path d="M55.3364 69.2279C53.3036 68.7754 50.4005 69.9032 49.9062 71.8595C50.9923 71.4975 52.1131 71.3095 53.2757 71.2329C55.2807 71.1215 57.2648 71.3443 58.9426 72.5278C59.0818 72.6253 59.2071 72.7366 59.3394 72.848C58.7685 71.3164 56.9933 69.5969 55.3364 69.2279Z" fill="#E8E5DD"/>
<path d="M58.1144 73.3423C58.1144 75.0271 56.7499 76.3985 55.0582 76.3985C53.3665 76.3985 52.002 75.034 52.002 73.3423C52.002 71.6506 53.3665 70.2861 55.0582 70.2861C56.7499 70.2861 58.1144 71.6506 58.1144 73.3423Z" fill="#725F28"/>
<path d="M55.5525 71.4279C56.2486 71.5044 57.0144 71.581 57.7036 71.8177C57.1745 70.9057 56.1929 70.2861 55.0582 70.2861C54.0766 70.2861 53.2064 70.7526 52.6494 71.4696C53.6032 71.3025 54.6126 71.3165 55.5525 71.4279Z" fill="#3D3F26"/>
<path d="M57.8912 72.5623C57.8912 72.9591 57.5709 73.2793 57.1741 73.2793C56.7773 73.2793 56.457 72.9591 56.457 72.5623C56.457 72.1655 56.7773 71.8452 57.1741 71.8452C57.5709 71.8452 57.8912 72.1655 57.8912 72.5623Z" fill="#A59568"/>
<path d="M69.9844 73.3424C69.9844 73.3424 70.8546 69.5552 75.0664 68.2394C79.2783 66.9167 82.3623 70.5507 79.6264 72.4234C76.8835 74.2961 69.9844 73.3424 69.9844 73.3424Z" fill="#3F1D2B"/>
<path d="M79.6129 72.0336C79.7243 72.688 79.3344 76.7119 75.6238 77.4289C71.9063 78.146 70.1449 75.6676 69.957 73.9899C69.762 72.3121 72.0455 69.6945 74.141 69.228C76.2295 68.7616 79.2579 69.9729 79.6199 72.0336H79.6129Z" fill="#F9F7ED"/>
<path d="M74.1339 69.2279C76.1667 68.7754 79.0697 69.9032 79.564 71.8595C78.478 71.4975 77.3571 71.3095 76.1945 71.2329C74.1826 71.1215 72.2055 71.3443 70.5277 72.5278C70.3884 72.6253 70.2631 72.7366 70.1309 72.848C70.7017 71.3164 72.477 69.5969 74.1339 69.2279Z" fill="#E8E5DD"/>
<path d="M71.3555 73.3423C71.3555 75.0271 72.72 76.3985 74.4117 76.3985C76.1034 76.3985 77.4679 75.034 77.4679 73.3423C77.4679 71.6506 76.1034 70.2861 74.4117 70.2861C72.72 70.2861 71.3555 71.6506 71.3555 73.3423Z" fill="#725F28"/>
<path d="M73.9178 71.4279C73.2216 71.5044 72.4558 71.581 71.7666 71.8177C72.2957 70.9057 73.2773 70.2861 74.4121 70.2861C75.3937 70.2861 76.2639 70.7526 76.8208 71.4696C75.8671 71.3025 74.8576 71.3165 73.9178 71.4279Z" fill="#3D3F26"/>
<path d="M75.7559 72.5623C75.7559 72.9591 76.0761 73.2793 76.4729 73.2793C76.8697 73.2793 77.19 72.9591 77.19 72.5623C77.19 72.1655 76.8697 71.8452 76.4729 71.8452C76.0761 71.8452 75.7559 72.1655 75.7559 72.5623Z" fill="#A59568"/>
<path d="M81.172 63.8322C78.6727 60.6368 72.2262 61.7298 69.6573 64.2708C69.3301 64.598 69.6782 65.0366 70.068 64.9809C71.7528 64.7372 73.2426 63.7695 74.9134 63.4145C76.7304 63.0316 79.4455 62.8228 80.9562 64.0411C81.1024 64.1594 81.2764 63.9854 81.1581 63.8392L81.172 63.8322Z" fill="#3F1D2B"/>
<path d="M48.4999 64.0342C49.9549 62.8647 52.2801 63.0735 54.0345 63.3172C55.9281 63.5817 57.5293 64.7025 59.395 64.9741C59.7849 65.0298 60.133 64.5912 59.8058 64.264C57.2439 61.7229 50.7903 60.6299 48.298 63.8254C48.1866 63.9716 48.3537 64.1456 48.4999 64.0273V64.0342Z" fill="#3F1D2B"/>
<path d="M66.7126 90.5654C66.4689 90.4957 66.1556 90.5236 65.9537 90.6907C65.8563 90.7673 65.7727 90.8647 65.7031 90.9622C65.6265 91.0805 65.6126 91.2058 65.5987 91.3451C65.5778 91.5818 65.8772 91.728 66.0651 91.6166C66.1417 91.5748 66.2183 91.533 66.2809 91.4774C66.3366 91.4286 66.3784 91.366 66.4411 91.3172C66.5107 91.2615 66.5803 91.1293 66.7056 91.0875C66.9423 91.004 66.9771 90.6489 66.7056 90.5723L66.7126 90.5654Z" fill="#CC6144"/>
<path d="M34.0061 26.0306C34.8454 27.6308 36.7507 28.2371 38.3925 27.9684C40.0159 27.6996 41.3392 26.5806 42.3377 25.2804C43.4711 24.049 44.341 22.5237 45.2722 20.9423C47.1039 17.5792 50.0384 14.71 53.7202 13.5911C57.4511 12.2596 62.5971 13.0223 63.859 17.4792C64.4778 19.367 64.6064 21.186 65.3906 22.505C66.9283 25.1179 71.2595 25.4555 73.03 22.8113C74.1082 21.3798 74.8188 19.5358 76.2585 18.2543C77.3612 17.1479 79.3399 16.4603 80.9021 17.1854C84.0877 18.2856 84.9086 23.9615 88.5721 23.2551C90.6856 22.7613 92.3948 21.2611 94.9433 21.211C96.8547 21.0735 98.9928 23.5739 97.498 25.2617C98.2882 24.1178 97.2529 22.63 96.1318 22.2737C93.3873 21.6736 91.5801 24.6741 88.9519 25.0992C86.1645 25.8243 84.0142 23.4864 82.6787 21.4111C81.3738 19.417 79.6156 17.6292 77.4776 19.6545C75.7316 21.2298 74.7269 24.9116 72.0743 25.9555C69.1888 27.2495 65.5315 26.2993 63.81 23.4614C62.0151 20.3047 62.9769 16.0727 59.0439 15.0976C54.0571 13.9849 49.1501 17.4855 46.8405 21.9237C45.9216 23.4489 45.0088 25.1304 43.6916 26.5744C42.301 27.9058 40.4693 29.0185 38.4476 28.9998C36.573 28.9873 34.5452 27.9183 34 26.0368L34.0061 26.0306Z" fill="#72130D"/>
</svg>
