<svg width="134" height="134" viewBox="0 0 134 134" fill="none" xmlns="http://www.w3.org/2000/svg">
<path d="M0 10C0 4.47715 4.47715 0 10 0H124C129.523 0 134 4.47715 134 10V134H0V10Z" fill="#EDC9B4"/>
<path d="M67.8016 128.36C70.493 133.249 72.023 133.986 74.2206 127.63C77.3988 129.827 80.8204 132.032 84.9792 132.275C88.8876 132.275 91.0921 130.078 88.6442 126.406C92.8029 126.649 99.8895 126.649 102.087 122.254C105.265 116.384 96.4679 111.746 92.0658 110.028C95.2439 110.515 100.133 109.298 99.6461 105.382C99.4027 101.961 95.0005 100.493 92.3161 99.2694C95.0075 99.5128 99.8965 98.5392 99.8965 95.1176C100.14 92.1828 96.4749 90.7154 94.2773 89.7418C103.325 86.0768 99.1663 78.4964 92.0797 75.5616C94.2773 75.3182 97.6989 73.8508 97.6989 71.1595C97.4555 68.2247 92.0797 67.7379 92.0797 65.5403C92.0797 63.3427 96.9687 63.5861 95.9881 60.1645C95.2579 57.7165 91.0991 56.0057 89.3883 54.2949C93.7905 53.0709 93.5471 48.6757 89.3883 47.4517C86.4535 46.4711 83.0319 46.4711 80.0971 45.9843C86.9264 35.7126 68.351 34.4886 65.8752 41.0884C63.3994 34.4886 44.8241 35.7126 51.6673 45.9774C48.7325 46.4642 45.3109 46.4642 42.3761 47.4447C38.2173 48.6687 37.9739 53.0709 42.3761 54.2879C40.6653 55.9987 36.5065 57.7095 35.7763 60.1575C34.7957 63.5791 39.6847 63.3357 39.6847 65.5333C39.6847 67.7309 34.3089 68.2247 34.0655 71.1525C34.0655 73.8439 37.4871 75.3113 39.6847 75.5547C32.5981 78.4895 28.4394 86.0629 37.4871 89.7348C35.2895 90.7154 31.6175 92.1759 31.8679 95.1106C31.8679 98.5322 36.7569 99.5128 39.4483 99.2625C36.7569 100.486 32.3617 101.954 32.1183 105.375C31.6315 109.284 36.5204 110.508 39.6986 110.021C35.2965 111.732 26.4991 116.377 29.6773 122.247C31.8749 126.649 38.9684 126.649 43.1202 126.399C40.6792 130.064 42.8768 132.268 46.7852 132.268C50.944 132.025 54.3656 129.82 57.5438 127.623C59.7414 133.979 65.1242 133.242 67.8086 128.353L67.8016 128.36Z" fill="#72130D"/>
<path d="M50.7287 57.5568C46.9385 56.3606 47.6479 63.2386 47.6339 65.0467C47.6339 66.2499 46.3613 67.1887 45.6311 68.065C44.7618 69.1151 44.2819 70.2139 44.0663 71.5492C43.6699 73.9832 45.026 76.6746 46.8481 78.1976C47.5783 78.8027 48.3503 78.9139 49.2126 78.5036C49.3308 78.448 49.456 78.3923 49.5742 78.3298C50.1515 78.0585 50.2627 77.3839 50.1862 76.8276C49.9359 75.089 48.2251 74.171 47.7939 72.3211C47.3279 70.3252 49.2891 68.6005 49.7064 66.7228C49.9706 65.5475 49.6786 64.247 49.5186 63.0786C49.1987 60.8184 49.3169 59.6987 50.8121 57.8975C50.9095 57.7793 50.8817 57.5985 50.7217 57.5498L50.7287 57.5568Z" fill="#440908"/>
<path d="M79.9236 57.5705C82.4203 59.7542 81.8709 62.5152 81.0433 65.436C80.8138 66.2358 81.4536 67.1121 82.3021 67.0912C85.9462 66.9869 84.3397 73.392 82.2742 74.6438C80.4591 75.7426 82.0726 78.4896 83.9294 77.4812C88.5054 74.9915 89.1105 63.8991 82.2951 64.4833C82.7124 65.0327 83.1366 65.589 83.5539 66.1384C84.1172 63.5931 84.4997 56.3396 80.0001 57.2646C79.868 57.2924 79.8124 57.4871 79.9167 57.5775L79.9236 57.5705Z" fill="#440908"/>
<path d="M81.0847 124.194C83.1502 124.194 86.8152 123.276 87.2742 120.988C87.9627 117.553 82.6912 115.487 80.3962 114.569C82.6912 113.651 86.3562 111.586 86.1267 108.839C85.8972 105.855 81.7732 104.715 79.4782 104.256C81.0847 102.649 86.1267 100.361 86.5857 98.0663C86.8152 95.3193 83.3727 94.6308 81.3142 94.4013C83.3797 92.1063 86.1267 89.3593 86.1267 86.1464C85.8972 81.7929 81.7732 80.6454 78.1013 81.1044L52.6966 79.4214C46.0481 82.6274 44.4416 91.3413 52.2376 94.5473C45.8186 98.2123 44.6711 108.074 54.0736 108.296C44.2191 109.444 41.6946 121.823 53.6146 121.134L81.0847 124.194Z" fill="#440908"/>
<path d="M66.1675 44.2526C65.7989 45.1706 65.8615 46.3389 65.625 47.3195C65.3816 48.3418 65.0756 49.3224 65.1243 50.3795C65.1521 51.0054 66.0145 50.9845 66.0771 50.3795C66.2092 49.1625 66.4804 47.9663 66.6334 46.7493C66.7308 45.9634 66.9811 44.8159 66.2996 44.2178C66.2509 44.1761 66.1883 44.197 66.1605 44.2526H66.1675Z" fill="#440908"/>
<path d="M52.0006 51.7769C50.6653 50.7268 45.4356 48.404 44.1768 50.6294C42.6329 53.3695 47.0003 55.0594 48.9545 55.7618C48.9893 55.4836 49.031 55.2124 49.0658 54.9342C46.7222 55.1846 42.16 55.6644 41.3324 58.4671C40.9291 59.8163 41.3046 60.6577 42.3408 61.5618C42.7025 61.8817 43.2519 62.1669 43.7039 62.3407C44.8027 62.751 44.2533 62.3616 43.3979 63.0849C39.2809 66.5621 36.7981 74.0242 44.2464 74.7962C44.6706 74.8379 44.6706 74.1703 44.2464 74.1285C36.5825 73.4053 40.7413 64.8722 45.22 62.7163C45.5121 62.5772 45.3939 62.1738 45.1365 62.0834C44.5245 61.8956 43.9265 61.6522 43.3631 61.3462C39.3157 59.3503 43.4744 57.0692 44.6497 56.5755C46.0337 55.9983 47.5845 55.8661 49.0589 55.7757C49.5596 55.7479 49.6013 55.122 49.1701 54.9481C48.433 54.6491 47.7166 54.3222 47.0073 53.9606C46.3605 53.6337 42.4799 50.9076 46.5135 50.5738C48.4121 50.4138 50.1716 51.3666 51.9311 51.8812C51.9867 51.8951 52.0423 51.8186 51.9936 51.7769H52.0006Z" fill="#992317"/>
<path d="M46.924 80.2142C45.3593 79.5396 43.9197 80.7636 42.9878 81.9737C41.583 83.7958 41.4022 85.9864 42.96 87.8502C43.0574 87.9685 44.4065 89.3315 44.2605 89.4706C43.7389 89.9644 43.2104 90.4164 42.7235 90.938C42.188 91.5083 41.8056 92.3845 41.9377 93.1773C42.3063 95.3819 44.4274 96.2234 46.3885 96.6963V95.8687C43.718 96.2929 42.1046 97.9481 41.7638 100.591C41.437 103.108 44.6638 104.52 46.5276 105.118C46.4511 104.833 46.3746 104.548 46.2981 104.263C43.3981 106.606 39.8722 109.736 42.0698 113.79C43.6485 116.704 48.3706 116.767 51.1593 116.523C51.7922 116.468 51.813 115.536 51.1593 115.529C48.7322 115.473 46.1312 115.411 44.0032 114.124C39.7053 111.53 44.8168 106.829 47.0284 104.993C47.3413 104.736 47.1396 104.242 46.7989 104.131C45.0602 103.588 42.9878 102.83 42.7027 100.591C42.4106 98.2402 44.8168 97.0023 46.6111 96.6894C47.0284 96.6198 47.0075 95.9522 46.6111 95.8618C45.0602 95.514 42.9739 94.9507 42.7305 93.0661C42.5427 91.6265 44.4761 90.5277 45.3941 89.714C45.5957 89.5402 45.5679 89.2133 45.3941 89.0325C44.0171 87.5929 42.0003 85.7708 43.0713 83.3994C43.6068 82.2171 45.2828 80.3116 46.7641 80.5828C46.9797 80.6245 47.1535 80.3046 46.924 80.2003V80.2142Z" fill="#992317"/>
<path d="M44.448 78.6702C42.3825 78.3433 40.6787 78.8093 39.4756 80.5827C37.9108 82.8916 39.6077 85.6386 41.2698 87.259C41.082 87.0781 38.4741 89.1923 38.1403 89.4983C37.3197 90.2494 36.7772 91.223 36.4573 92.2731C35.7341 94.6377 37.9943 96.3484 39.8094 97.2525C39.9554 96.9118 40.0945 96.5779 40.2406 96.2372C38.5993 95.5974 35.6854 96.2094 35.7967 98.5391C35.9357 101.383 38.5784 102.677 40.8943 103.741C40.943 103.359 40.9986 102.969 41.0473 102.587C37.737 103.901 33.7868 105.48 33.4391 109.506C33.1122 113.331 38.4741 114.423 41.2142 114.604V113.296C38.1959 113.658 33.7103 115.731 33.7799 119.43C33.8425 122.706 37.2988 124.097 40.1154 124.57C40.783 124.681 41.0125 123.819 40.3936 123.568C38.5993 122.838 36.5338 122.525 35.3168 120.849C32.9523 117.601 39.0166 114.84 41.2211 114.611C42.0557 114.527 42.0696 113.373 41.2211 113.303C38.8149 113.102 35.0386 112.531 34.7465 109.513C34.4475 106.356 39.1348 104.722 41.388 103.811C41.8331 103.63 42.0974 102.907 41.541 102.656C40.9777 102.399 40.4214 102.135 39.872 101.849C39.4617 101.634 39.0653 101.397 38.6897 101.133C36.9024 100.132 37.3197 98.859 39.9554 97.3082C40.5466 97.5238 40.9499 96.564 40.3866 96.2928C34.9899 93.7197 38.5437 89.5678 42.4104 87.8362C42.6538 87.7249 42.7024 87.3216 42.5008 87.1547C41.3046 86.1671 40.3031 85.1587 39.7259 83.6705C38.4811 80.4436 41.8749 78.6424 44.4411 78.9206C44.5801 78.9345 44.6149 78.698 44.4758 78.6772L44.448 78.6702Z" fill="#992317"/>
<path d="M84.7559 83.3015C87.0926 82.8356 91.0567 82.3835 90.3473 86.2502C89.8953 88.726 87.03 90.6037 85.3679 92.2867C85.0897 92.5718 85.3053 92.996 85.6739 93.0238C88.713 93.2673 90.8828 95.5622 89.1442 98.6152C88.3166 100.062 86.5919 101.035 85.2427 101.926C84.8463 102.19 84.9437 102.99 85.514 102.92C86.8005 102.76 87.7324 102.99 88.7756 103.887C91.008 105.806 88.1358 108.136 86.8979 109.082C85.7017 109.986 84.4708 110.772 83.4137 111.85C83.0869 112.183 83.1842 112.691 83.5528 112.934C86.1816 114.701 89.8814 117.316 85.973 120.237C83.9909 121.718 81.1187 121.69 78.7681 121.676C78.2326 121.676 78.1631 122.413 78.6429 122.573C81.5986 123.554 86.5363 122.838 88.2957 119.917C90.6881 115.939 87.3917 113.665 84.2552 111.745C84.3039 112.107 84.3456 112.469 84.3943 112.83C86.1538 110.876 90.549 108.977 90.5699 105.917C90.5907 103.031 88.0523 101.508 85.3679 101.87C85.507 102.197 85.6391 102.517 85.7782 102.844C88.3166 101.126 90.7924 99.3455 90.8272 96.0212C90.8619 93.4133 87.7533 92.2658 85.667 92.1545C85.7713 92.3979 85.8686 92.6483 85.973 92.8917C88.1497 90.5481 91.7452 87.968 90.9315 84.3169C90.3751 81.8202 86.3068 82.5574 84.6516 82.9399C84.4152 82.9955 84.5195 83.3502 84.749 83.3015H84.7559Z" fill="#992317"/>
<path d="M68.7468 50.0527C70.0682 49.1208 71.3617 48.3141 72.9056 47.7786C77.7668 46.1026 78.2675 51.8818 77.8224 54.9417C77.7876 55.199 78.0171 55.4424 78.2814 55.2964C80.5764 54.0098 86.3068 52.1599 85.5349 57.4175C85.1941 59.7681 83.386 61.8614 82.5653 64.0729C82.4193 64.4693 82.9478 64.678 83.2191 64.4485C85.4445 62.5569 90.716 64.4972 88.9634 68.1204C88.2471 69.6017 86.6546 70.7423 85.5349 71.9037C85.3054 72.1401 85.4514 72.6547 85.827 72.613C87.2944 72.46 92.0443 72.008 90.5073 75.1723C89.7354 76.7648 88.115 77.9471 87.0579 79.3658C86.8562 79.6301 87.1275 80.0334 87.4335 80.0195C89.4294 79.943 91.3627 80.1377 93.1292 81.1461C97.1906 83.455 92.8093 87.9824 90.7925 89.8462C90.5421 90.0757 90.6534 90.5694 91.0011 90.632C94.1584 91.2162 96.5299 93.4347 94.5061 96.7867C93.5186 98.428 91.5783 99.5616 90.0831 100.681C89.7354 100.939 89.798 101.391 90.1944 101.557C93.2961 102.795 95.2085 105.494 92.5519 108.484C91.5296 109.632 90.0762 110.438 88.8104 111.294C88.4836 111.516 88.5253 112.017 88.9217 112.135C90.8272 112.692 92.7814 113.199 94.3392 114.5C98.0599 117.601 92.6493 119.271 90.5421 119.66C90.1109 119.743 90.2083 120.488 90.6464 120.439C92.9483 120.161 96.21 119.41 96.1126 116.537C96.0083 113.477 91.4601 112.01 89.1582 111.252C89.1929 111.53 89.2277 111.815 89.2694 112.094C91.3001 110.779 94.6105 109.006 94.8121 106.238C95.0277 103.234 93.0388 101.676 90.4447 100.639C90.4795 100.932 90.5212 101.224 90.556 101.516C92.6423 99.944 96.0431 97.9481 96.2517 94.9994C96.4743 91.8908 94.068 90.2287 91.2445 89.7279C91.314 89.9922 91.3836 90.2565 91.4531 90.5138C93.3726 88.7126 96.6898 85.5761 95.3615 82.5648C94.0124 79.5049 90.4308 79.0181 87.4265 79.1432C87.5517 79.3588 87.6769 79.5814 87.802 79.797C89.1095 78.0375 92.4963 75.7217 91.481 73.1763C90.716 71.2499 87.3709 71.6185 85.82 71.7785C85.9174 72.0149 86.0147 72.2514 86.1121 72.4878C87.5795 70.9509 91.9817 67.4806 89.7076 64.8936C88.0246 62.9811 84.7073 62.1326 82.6488 63.8921C82.8644 64.0173 83.08 64.1425 83.3025 64.2677C84.1927 61.8475 87.5308 57.9391 86.1399 55.1434C84.8464 52.5424 81.9603 53.0292 79.6375 53.8985C79.2202 54.0515 78.8238 54.2671 78.4274 54.4619C78.8586 54.2393 78.5943 52.0208 78.5735 51.6175C78.497 50.0527 77.8154 48.8287 76.661 47.8273C74.213 45.7062 70.5272 48.2585 68.5382 49.712C68.3435 49.8511 68.5312 50.1779 68.7259 50.0319L68.7468 50.0527Z" fill="#992317"/>
<path d="M65.7843 48.1888C64.9984 44.2526 60.7006 41.9159 56.966 43.8353C53.2801 45.7339 55.3526 49.0303 58.642 49.7535C59.0176 49.837 59.414 49.3293 59.0523 49.0442C55.1926 45.9494 46.6108 54.267 51.1312 55.8665C51.4302 55.9708 51.5902 55.5257 51.3398 55.3727C48.4746 53.6202 55.7351 47.3543 58.4473 49.6423C58.5864 49.4058 58.7255 49.1694 58.8576 48.9329C57.7032 48.6478 56.7435 48.2931 55.9785 47.2986C54.4346 45.2888 57.8005 44.3221 58.7394 44.0578C61.7298 43.2024 64.6924 45.5461 65.5269 48.2514C65.5756 48.4044 65.7982 48.3418 65.7704 48.1818L65.7843 48.1888Z" fill="#992317"/>
<path d="M72.601 91.3486C72.601 91.3486 71.5231 104.298 71.7178 106.106C71.9125 107.914 88.3181 114.618 91.4337 116.878C94.5493 119.139 94.6397 126.566 93.6452 132.902H38.5311C37.5366 126.566 37.627 119.139 40.7426 116.878C43.8582 114.611 60.2568 107.914 60.4585 106.106C60.6532 104.298 59.5753 91.3486 59.5753 91.3486H72.601Z" fill="#E5805C"/>
<path d="M72.6009 91.3486H59.5752C59.5752 91.3486 60.1455 98.2196 60.3819 102.65C64.2764 102.365 68.1501 101.683 71.9194 100.542C72.1906 96.328 72.6009 91.3486 72.6009 91.3486Z" fill="#CC6144"/>
<path d="M66.0918 133.993H95.5996C95.5996 133.993 94.7372 117.518 93.6523 116.697C92.5674 115.884 77.7196 108.818 77.7196 108.818C77.7196 108.818 73.9364 112.121 66.0918 112.121C58.2471 112.121 54.4639 108.818 54.4639 108.818C54.4639 108.818 39.6161 115.877 38.5312 116.697C37.4463 117.511 36.584 133.993 36.584 133.993H66.0918Z" fill="#FFECE3"/>
<path d="M65.8762 118.06C70.633 115.209 75.5985 112.629 80.5988 110.202C78.888 109.381 77.7196 108.825 77.7196 108.825C77.7196 108.825 73.9364 112.128 66.0918 112.128C58.2471 112.128 54.4639 108.825 54.4639 108.825C54.4639 108.825 39.6161 115.883 38.5312 116.704C37.4463 117.518 36.584 134 36.584 134H48.2327C53.073 127.706 58.9078 122.316 65.8692 118.067L65.8762 118.06Z" fill="#F9F7ED"/>
<path d="M83.2473 75.0182C83.2473 75.0182 86.9123 70.7273 90.3478 73.5647C93.7972 76.4091 91.683 86.6043 81.7451 86.1731L83.2473 75.0182Z" fill="#E5805C"/>
<path d="M84.4433 83.4746C84.9927 84.5247 87.9275 84.1909 89.534 81.1935C91.1474 78.2031 90.5563 75.2126 89.7635 75.5604C88.9706 75.9081 83.115 80.9431 84.4433 83.4676V83.4746Z" fill="#D87350"/>
<path d="M89.9997 75.6928L89.951 75.5537H89.8258L89.7632 75.5676C86.6755 76.736 84.4292 79.629 83.7685 83.3079C83.7476 83.4123 83.7754 83.5166 83.845 83.6C83.9145 83.6835 84.0189 83.7322 84.1232 83.7322C84.2762 83.7322 84.4014 83.6348 84.4431 83.4748C84.45 83.447 84.457 83.4192 84.4639 83.3914C84.8743 83.6139 85.3263 83.7322 85.7853 83.7322C86.8076 83.7322 87.9481 83.1132 88.1776 81.7223C88.3306 80.7835 87.8786 80.0115 87.0719 79.8516C86.5851 79.7542 86.0704 79.9768 85.6392 80.2897C86.6476 78.3842 88.0803 76.9098 89.9162 75.8945C89.9858 75.8528 90.0275 75.7693 90.0067 75.6928H89.9997ZM87.35 81.9588C87.058 82.6473 86.446 83.0576 85.7018 83.0576C85.3333 83.0576 84.9716 82.9602 84.6378 82.7724C84.8047 82.2161 84.9925 81.6875 85.2081 81.1799C85.6045 80.8739 86.0357 80.5679 86.5503 80.4218C86.9119 80.3175 87.1692 80.3801 87.3292 80.6235C87.5587 80.9643 87.517 81.5693 87.357 81.9657L87.35 81.9588Z" fill="#CC6144"/>
<path d="M88.0806 73.5579C87.2461 73.2102 85.6257 73.7665 85.6883 74.8306C85.7022 75.0879 85.9317 75.2896 86.196 75.2131C86.9331 75.0114 87.3504 74.2047 88.0806 73.9752C88.3032 73.9056 88.2753 73.6344 88.0806 73.551V73.5579Z" fill="#F48462"/>
<path d="M48.934 75.0182C48.934 75.0182 45.269 70.7273 41.8334 73.5647C38.3771 76.4091 40.4982 86.6043 50.4361 86.1731L48.934 75.0182Z" fill="#E5805C"/>
<path d="M42.1606 75.8319C41.0618 75.7484 42.1119 82.1187 44.6016 83.7252C47.0844 85.3386 48.4544 85.1369 48.0997 83.0576C47.7451 80.9782 44.3721 75.9918 42.1606 75.8319Z" fill="#D87350"/>
<path d="M42.4175 75.5676L42.3549 75.5537C42.2714 75.5537 42.2019 75.6093 42.181 75.6928L42.1602 75.8388L42.2645 75.8945C44.1005 76.9098 45.5331 78.3842 46.5415 80.2897C46.1103 79.9768 45.5887 79.7542 45.1019 79.8516C44.2952 80.0115 43.8362 80.7835 43.9961 81.7223C44.2256 83.1132 45.3662 83.7322 46.3885 83.7322C46.8544 83.7322 47.3065 83.6139 47.7098 83.3914C47.7168 83.4192 47.7237 83.447 47.7307 83.4748C47.7724 83.6278 47.8976 83.7322 48.0506 83.7322C48.1549 83.7322 48.2662 83.6835 48.3288 83.6C48.3983 83.5166 48.4261 83.4123 48.4053 83.3079C47.7446 79.629 45.4983 76.736 42.4105 75.5676H42.4175ZM46.4789 83.0506C45.7348 83.0506 45.1158 82.6403 44.8307 81.9518C44.6638 81.5624 44.629 80.9504 44.8585 80.6096C44.9698 80.4427 45.1228 80.3662 45.3314 80.3662C45.4218 80.3662 45.5261 80.3801 45.6374 80.4149C46.1451 80.5609 46.5832 80.8669 46.9726 81.1729C47.1882 81.6736 47.383 82.2091 47.5429 82.7655C47.2091 82.9533 46.8405 83.0506 46.4789 83.0506Z" fill="#CC6144"/>
<path d="M66.0906 47.9385C64.658 47.9385 50.8603 51.7982 49.5737 58.9474C48.2872 66.0966 46.2843 75.8885 49.219 84.2547C52.1469 92.6209 64.0877 97.1761 66.0906 97.1761C68.0935 97.1761 80.0343 92.6209 82.9621 84.2547C85.8899 75.8885 83.8871 66.0966 82.6074 58.9474C81.3209 51.7982 67.5232 47.9385 66.0906 47.9385Z" fill="#E5805C"/>
<path d="M52.9258 76.4999C52.7728 66.5829 55.6519 57.4169 60.6174 49.5166C56.104 51.2761 50.3804 54.4612 49.5737 58.9469C48.2872 66.096 46.2843 75.8879 49.219 84.2541C51.9104 91.9388 62.1961 96.4036 65.409 97.0782C64.95 96.8139 64.498 96.5357 64.0599 96.2367C57.5435 91.7997 53.1066 84.4697 52.9258 76.4999Z" fill="#CC6144"/>
<path d="M69.0458 70.4779C68.0513 73.0093 67.2376 76.4378 68.3086 79.0666C68.4755 79.4769 69.1292 79.5812 69.2544 79.0666C69.5882 77.7035 69.3309 76.3613 69.2336 74.9774C69.1292 73.4891 69.0806 71.987 69.2057 70.4987C69.2127 70.4014 69.0806 70.4014 69.0527 70.4779H69.0458Z" fill="#F48462"/>
<path d="M84.402 75.3456C83.9986 77.8353 83.3796 80.2206 82.5173 82.5921C81.5437 85.2765 79.8955 87.4185 78.4976 89.8595C78.3794 90.0682 78.6367 90.3742 78.8453 90.2073C83.2266 86.8691 84.2003 80.4571 84.4506 75.3456C84.4506 75.3178 84.4089 75.3178 84.4089 75.3456H84.402Z" fill="#F48462"/>
<path d="M60.0895 75.9579C58.6569 77.0845 56.6888 77.5226 54.9084 77.1193C53.0585 76.702 52.2171 74.8382 51.4103 73.3569C51.3686 73.2804 51.2365 73.3082 51.2434 73.3986C51.4034 75.6936 52.3979 77.3488 54.6442 78.072C56.5358 78.6771 59.0881 77.613 60.1243 75.9857C60.1382 75.9648 60.1104 75.944 60.0895 75.9579Z" fill="#CC6144"/>
<path d="M72.0854 75.9579C73.518 77.0845 75.4861 77.5226 77.2665 77.1193C79.1164 76.702 79.9578 74.8382 80.7646 73.3569C80.8063 73.2804 80.9384 73.3082 80.9315 73.3986C80.7715 75.6936 79.777 77.3488 77.5307 78.072C75.6391 78.6771 73.0868 77.613 72.0506 75.9857C72.0367 75.9648 72.0645 75.944 72.0854 75.9579Z" fill="#CC6144"/>
<g style="mix-blend-mode:multiply" opacity="0.4">
<path d="M83.6362 77.6962C84.1717 79.6713 82.1619 81.9385 79.1367 82.7661C76.1115 83.5867 73.2254 82.6548 72.6899 80.6797C72.1544 78.7046 74.1642 76.4375 77.1894 75.6169C80.2146 74.7962 83.1007 75.7281 83.6362 77.7032V77.6962Z" fill="#E24D4D"/>
</g>
<g style="mix-blend-mode:multiply" opacity="0.4">
<path d="M48.5444 77.6962C48.0089 79.6713 50.0187 81.9385 53.0439 82.7661C56.0621 83.5867 58.9552 82.6548 59.4907 80.6797C60.0262 78.7046 58.0164 76.4375 54.9912 75.6169C51.966 74.7962 49.0799 75.7281 48.5444 77.7032V77.6962Z" fill="#E24D4D"/>
</g>
<path d="M66.8492 84.3032C66.7449 84.0598 66.3833 83.9276 66.1607 83.8233C65.8061 83.6564 65.4583 83.6008 65.0828 83.7538C64.749 83.8928 64.9089 84.3379 65.208 84.3866C65.4862 84.4353 65.7574 84.3866 66.0425 84.3936C66.279 84.3936 66.5502 84.5257 66.7727 84.4631C66.8423 84.4422 66.884 84.3727 66.8492 84.3032Z" fill="#CC6144"/>
<path d="M68.7478 84.2542C68.9216 84.282 69.1372 84.0942 69.2902 84.0247C69.5127 83.9273 69.7422 83.9343 69.8535 83.6908C69.8883 83.6004 69.8466 83.4822 69.7701 83.4335C69.5267 83.2805 69.3041 83.4614 69.1024 83.6143C68.9494 83.7256 68.6573 83.9343 68.6504 84.1359C68.6504 84.1985 68.6921 84.2402 68.7478 84.2542Z" fill="#CC6144"/>
<path d="M74.7908 85.9517C70.2495 88.6013 65.2006 89.5958 60.0404 88.2605C59.9291 88.2327 59.8804 88.4066 59.9917 88.4344C64.9294 89.714 70.639 89.0673 74.8256 86.0143C74.8603 85.9934 74.8256 85.9378 74.7908 85.9586V85.9517Z" fill="#A8332D"/>
<path d="M60.034 88.045C59.9645 88.1215 59.8949 88.198 59.8323 88.2815C59.7489 88.3858 59.7489 88.4832 59.7836 88.6083C59.8115 88.6987 59.9436 88.7474 60.0062 88.664C60.0757 88.5805 60.1175 88.5249 60.1453 88.4136C60.1661 88.3232 60.194 88.2398 60.2287 88.1563C60.2705 88.045 60.1175 87.9685 60.041 88.045H60.034Z" fill="#A8332D"/>
<path d="M74.5195 85.8888C74.5195 86.0418 74.6447 86.174 74.7908 86.2018C74.9785 86.2435 75.0759 86.0071 74.9229 85.8958C74.8464 85.8401 74.7838 85.7915 74.7003 85.7567C74.6099 85.7219 74.5265 85.8123 74.5265 85.8888H74.5195Z" fill="#A8332D"/>
<path d="M61.7099 88.6983C63.518 89.6789 65.6809 89.1852 67.6212 88.9278C69.7562 88.6497 71.5296 87.8708 73.4212 86.9041C73.4768 86.8763 73.4351 86.7789 73.3795 86.7998C69.6658 88.1072 65.5279 87.6691 61.7168 88.6566C61.696 88.6566 61.696 88.6914 61.7168 88.6983H61.7099Z" fill="#A8332D"/>
<path d="M60.8469 73.4056C60.8469 73.4056 59.9706 69.6224 55.7701 68.308C51.5627 66.9866 48.4818 70.6168 51.2149 72.4876C53.955 74.3583 60.8469 73.4056 60.8469 73.4056Z" fill="#3F1D2B"/>
<path d="M51.2289 72.0984C51.1176 72.7522 51.5001 76.7718 55.2138 77.4881C58.9275 78.2045 60.6869 75.7287 60.8747 74.0526C61.0694 72.3766 58.7884 69.7617 56.6951 69.2958C54.6087 68.8298 51.5835 70.0399 51.2219 72.0984H51.2289Z" fill="#F9F7ED"/>
<path d="M56.7018 69.2957C54.6711 68.8437 51.7711 69.9703 51.2773 71.9245C52.3622 71.5629 53.4819 71.3751 54.6433 71.2986C56.6531 71.1873 58.6282 71.4099 60.3112 72.5921C60.4503 72.6895 60.5755 72.8007 60.7076 72.912C60.1373 71.382 58.3639 69.6643 56.7088 69.2957H56.7018Z" fill="#E8E5DD"/>
<path d="M59.4771 73.406C59.4771 75.089 58.114 76.459 56.4241 76.459C54.7342 76.459 53.3711 75.096 53.3711 73.406C53.3711 71.7161 54.7342 70.353 56.4241 70.353C58.114 70.353 59.4771 71.7231 59.4771 73.406Z" fill="#725F28"/>
<path d="M56.9176 71.4936C57.613 71.5701 58.378 71.6466 59.0665 71.883C58.538 70.972 57.5574 70.353 56.4238 70.353C55.4432 70.353 54.5739 70.819 54.0176 71.5353C54.9703 71.3684 55.9787 71.3823 56.9176 71.4936Z" fill="#3D3F26"/>
<path d="M59.2539 72.6196C59.2539 73.016 58.934 73.3359 58.5376 73.3359C58.1412 73.3359 57.8213 73.016 57.8213 72.6196C57.8213 72.2232 58.1412 71.9033 58.5376 71.9033C58.934 71.9033 59.2539 72.2232 59.2539 72.6196Z" fill="#A59568"/>
<path d="M71.335 73.4056C71.335 73.4056 72.2043 69.6224 76.4117 68.308C80.6192 66.9866 83.7 70.6168 80.9669 72.4876C78.2268 74.3583 71.335 73.4056 71.335 73.4056Z" fill="#3F1D2B"/>
<path d="M80.9524 72.0984C81.0637 72.7522 80.6742 76.7718 76.9675 77.4881C73.2538 78.2045 71.4943 75.7287 71.3066 74.0526C71.1119 72.3766 73.3929 69.7617 75.4862 69.2958C77.5725 68.8298 80.5977 70.0399 80.9594 72.0984H80.9524Z" fill="#F9F7ED"/>
<path d="M75.4793 69.2957C77.51 68.8437 80.41 69.9703 80.9038 71.9245C79.8189 71.5629 78.6992 71.3751 77.5378 71.2986C75.528 71.1873 73.5529 71.4099 71.8769 72.5921C71.7378 72.6895 71.6126 72.8007 71.4805 72.912C72.0507 71.382 73.8241 69.6643 75.4793 69.2957Z" fill="#E8E5DD"/>
<path d="M72.7041 73.406C72.7041 75.089 74.0672 76.459 75.7571 76.459C77.447 76.459 78.8101 75.096 78.8101 73.406C78.8101 71.7161 77.447 70.353 75.7571 70.353C74.0672 70.353 72.7041 71.7231 72.7041 73.406Z" fill="#725F28"/>
<path d="M75.2632 71.4936C74.5677 71.5701 73.8027 71.6466 73.1143 71.883C73.6428 70.972 74.6234 70.353 75.757 70.353C76.7375 70.353 77.6068 70.819 78.1632 71.5353C77.2104 71.3684 76.202 71.3823 75.2632 71.4936Z" fill="#3D3F26"/>
<path d="M77.0996 72.6196C77.0996 73.016 77.4195 73.3359 77.8159 73.3359C78.2123 73.3359 78.5322 73.016 78.5322 72.6196C78.5322 72.2232 78.2123 71.9033 77.8159 71.9033C77.4195 71.9033 77.0996 72.2232 77.0996 72.6196Z" fill="#A59568"/>
<path d="M82.5104 63.899C80.0138 60.7069 73.5739 61.7987 71.0077 64.3371C70.6809 64.664 71.0286 65.1021 71.418 65.0395C73.101 64.7961 74.5893 63.8295 76.2583 63.4748C78.0735 63.0923 80.7857 62.8836 82.2948 64.1007C82.4409 64.2189 82.6147 64.045 82.5035 63.899H82.5104Z" fill="#3F1D2B"/>
<path d="M49.8728 64.1075C51.3263 62.9392 53.6491 63.1478 55.4016 63.3912C57.2932 63.6555 58.8928 64.7751 60.7566 65.0464C61.146 65.102 61.4937 64.6639 61.1669 64.344C58.6076 61.8056 52.1609 60.7137 49.6642 63.9058C49.5529 64.0519 49.7198 64.2257 49.8659 64.1075H49.8728Z" fill="#3F1D2B"/>
<path d="M68.0659 90.6107C67.8225 90.5412 67.5095 90.569 67.3079 90.7359C67.2105 90.8124 67.127 90.9098 67.0575 91.0141C66.981 91.1323 66.9671 91.2575 66.9532 91.3966C66.9323 91.633 67.2314 91.7791 67.4191 91.6678C67.4956 91.6261 67.5721 91.5844 67.6347 91.5287C67.6904 91.4801 67.7321 91.4175 67.7947 91.3688C67.8642 91.3131 67.9338 91.181 68.0589 91.1393C68.2954 91.0558 68.3302 90.7012 68.0589 90.6247L68.0659 90.6107Z" fill="#CC6144"/>
<path d="M35 21.0289C38.2346 22.0032 43.5564 22.5444 44.5287 18.4372C44.8398 16.9217 43.4397 15.247 41.871 15.852C40.4968 16.4059 39.706 18.2462 40.1338 19.6726C41.2811 24.0981 47.3938 24.9896 48.9754 20.3348C49.1504 19.8254 49.3578 19.2077 48.8004 18.8384C48.4179 18.5582 47.7114 18.52 47.4002 18.8894C47.2187 19.1122 47.1345 19.4051 47.0761 19.7235C46.7131 21.6848 48.3661 23.404 50.3431 23.9262C51.9247 24.3719 53.7008 23.958 55.1852 23.0538C56.6502 22.0732 58.7828 20.3667 58.3355 18.4309C57.8234 17.2401 55.801 17.2974 54.9454 18.1507C53.636 19.5707 54.7898 21.9458 56.2937 22.831C59.1458 24.4165 63.612 23.1748 65.8937 20.9971C67.4818 19.558 67.0604 16.1258 64.3574 16.788C63.6703 16.979 63.0091 17.4439 62.7239 18.0361C62.0174 19.3606 62.6396 21.1754 63.7092 22.2069C65.5631 23.9962 68.5319 24.1682 70.9367 23.3149C73.4842 22.4107 75.6233 20.3985 77.367 18.329C77.8401 17.6986 78.5272 17.1255 78.7087 16.3423C78.8514 15.7564 78.5272 15.0942 78.1707 14.9732C77.7883 14.7886 76.9715 14.9732 76.453 15.4317C75.2668 16.4951 75.176 18.2781 75.714 19.7108C77.5744 24.6266 85.7613 24.6967 89.4172 21.8567C91.3229 20.3667 91.8868 17.3547 89.9487 15.8074C87.5503 14.0308 85.2297 16.7243 85.3399 19.1441C85.2946 20.9015 86.6882 22.4234 88.3671 23.2385C90.0654 24.0854 92.0489 24.3719 94 24.3592C91.1155 24.6457 87.7189 24.2892 85.6122 22.0414C83.3046 19.6726 84.1343 14.9923 87.4596 13.8907C90.571 12.9738 93.5074 16.0048 93.1184 18.9912C92.0748 26.3014 80.5108 27.4857 75.727 23.1302C73.2184 20.8188 72.4535 16.4378 75.2084 13.9735C77.6781 11.8658 81.2173 13.3622 80.6274 16.718C80.5043 17.342 80.1737 17.966 79.8107 18.399C78.8838 19.5771 77.9179 20.7041 76.8225 21.7484C73.9055 24.6521 69.4264 26.677 65.213 25.2698C61.9072 24.2955 59.3467 20.4622 61.0191 17.1573C63.2554 13.2412 69.1153 14.432 68.8041 19.1313C68.3828 24.3592 59.444 27.0145 55.2954 24.4547C52.7609 22.9583 51.3349 19.125 53.5971 16.8071C55.0037 15.4699 57.1428 15.2279 58.88 16.2022C62.4841 18.7174 58.9837 23.1239 56.2483 24.6776C53.461 26.4987 49.4162 26.5433 46.9206 24.1554C45.1445 22.6081 44.4055 19.5643 46.0001 17.6158C47.5558 15.8774 50.8033 16.8007 51.1274 19.1059C51.2636 20.857 50.2783 22.538 49.0402 23.7543C46.4863 26.3077 42.072 25.62 39.8032 23.0475C38.6365 21.8121 37.9299 20.0419 38.2281 18.3163C38.5781 16.0748 40.808 13.7188 43.31 14.4638C46.4668 15.4826 46.2853 19.6853 43.7379 21.2136C41.0996 23.0156 37.729 22.035 35.0389 21.0353L35 21.0289Z" fill="#72130D"/>
</svg>
