<svg width="134" height="134" viewBox="0 0 134 134" fill="none" xmlns="http://www.w3.org/2000/svg">
<path d="M0 10C0 4.47715 4.47715 0 10 0H124C129.523 0 134 4.47715 134 10V134H0V10Z" fill="#DAE1FE"/>
<path d="M69.2209 100.333C68.8251 103.581 65.0423 104.957 65.1492 100.886C64.6653 102.274 61.6241 102.72 61.9445 100.377C60.493 103.399 56.239 100.471 58.0613 99.3398C56.9679 101.816 51.9096 99.8362 53.8764 98.1774C52.9087 99.6477 48.5919 99.5975 49.5281 97.2977C49.5847 99.3775 45.4124 99.61 45.3684 97.5678C44.7086 99.2644 39.7634 99.5346 40.863 96.7698C39.9456 98.9879 36.2383 94.7151 39.7006 94.4009C37.03 96.0912 36.5022 92.1577 38.9905 91.2277C37.5139 91.3848 34.2338 91.102 36.4079 88.953C34.8873 88.4441 32.4681 85.5724 35.1261 86.182C32.8703 86.4584 30.4825 84.2089 33.5301 83.2601C31.3748 81.9217 32.2796 79.8229 34.7993 79.8355C32.355 79.0501 30.3506 75.77 34.0956 75.4684C31.6701 74.2117 31.3371 71.6857 34.6485 71.4343C31.645 69.9577 34.3658 68.324 36.4142 68.3994C35.3335 67.4128 33.618 64.824 36.6781 65.3707C35.3083 64.2962 34.7491 61.1921 37.25 61.4937C35.4717 61.0224 35.4466 57.8743 37.7149 58.2828C36.0686 57.0197 37.4887 55.2415 39.2733 56.0207C37.8155 55.1787 37.9474 52.6275 39.9708 52.9794C39.0094 52.4956 37.9411 50.8304 38.469 49.7056C39.0408 48.4866 40.2535 48.7505 41.4411 48.7882C39.556 46.7021 45.0291 47.4624 45.915 47.7828C43.2508 46.9534 46.6251 44.773 48.9437 46.2057C47.4922 43.6797 51.1807 43.133 52.7202 44.1069C52.4437 40.896 56.2327 41.3422 57.634 43.133C55.7426 40.6321 60.7632 40.2928 62.2775 41.8071C62.5038 39.765 66.0289 39.6204 66.0226 41.8134C65.9597 38.9355 68.7559 40.7829 69.2272 42.3789C69.6922 40.7766 72.4947 38.9355 72.4319 41.8134C72.4319 39.6204 75.9507 39.765 76.1769 41.8071C77.6912 40.2991 82.7181 40.6321 80.8205 43.133C82.2217 41.3484 86.0044 40.896 85.7342 44.1069C87.2737 43.133 90.9622 43.6797 89.5107 46.2057C91.8293 44.773 95.2036 46.9534 92.5394 47.7828C93.4254 47.4624 98.8984 46.7021 97.0133 48.7882C98.2072 48.7442 99.4137 48.4803 99.9855 49.7056C100.513 50.8241 99.4451 52.4956 98.4837 52.9794C100.507 52.6275 100.633 55.1724 99.1812 56.0207C100.966 55.2415 102.386 57.0197 100.74 58.2828C103.002 57.8743 102.976 61.0224 101.204 61.4937C103.699 61.1921 103.14 64.2962 101.776 65.3707C104.836 64.824 103.121 67.4128 102.04 68.3994C104.082 68.324 106.809 69.9514 103.806 71.4343C107.117 71.6857 106.784 74.2117 104.359 75.4684C108.104 75.77 106.099 79.0501 103.655 79.8355C106.175 79.8229 107.08 81.9217 104.924 83.2601C107.978 84.2026 105.59 86.4584 103.328 86.182C105.986 85.5724 103.567 88.4503 102.046 88.953C104.221 91.0957 100.947 91.3848 99.4639 91.2277C101.946 92.1577 101.424 96.0912 98.7539 94.4009C102.216 94.7151 98.5088 98.9879 97.5977 96.7698C98.6973 99.5409 93.7458 99.2644 93.0861 97.5678C93.0421 99.61 88.876 99.3838 88.9263 97.2977C89.8626 99.5912 85.5457 99.6477 84.5781 98.1774C86.5448 99.8362 81.4865 101.816 80.3932 99.3398C82.2091 100.471 77.9614 103.399 76.5099 100.377C76.8241 102.72 73.7891 102.274 73.3053 100.886C73.4121 104.957 69.6294 103.581 69.2335 100.333H69.2209Z" fill="#72130D"/>
<path d="M62.987 97.4112C61.6549 97.8259 55.874 98.448 58.7644 95.9597C56.9862 95.7523 54.3156 96.3744 52.9835 95.545C53.4297 95.3376 53.8758 94.5082 54.5418 94.3008C53.2097 94.0935 52.0975 94.0935 50.9853 93.8861C51.4315 93.4714 51.4315 92.8493 52.0975 92.4346C50.7654 92.8493 47.6487 93.0567 46.7627 91.6052C45.8768 90.1537 46.7627 89.1231 48.541 89.1231C43.2062 86.4275 46.5365 83.5307 51.2115 85.397C49.8794 84.7749 46.3166 83.116 46.7627 81.2561C47.2089 79.5972 49.8794 80.4266 50.7654 81.0487C49.8794 79.5972 47.8749 77.5299 47.8749 75.871C48.7672 75.6637 49.4333 75.6637 50.3193 76.2857C48.541 74.6269 46.5365 70.9007 50.9853 72.1448C49.427 70.9007 47.8749 67.7966 50.9853 67.7966C49.2071 66.3451 46.9827 61.7895 51.4315 63.241C49.4333 60.9663 51.6514 58.478 52.5437 60.759C51.8776 59.1001 53.2097 55.1665 55.2142 58.0633C54.7681 54.9592 57.4386 55.1665 57.8847 58.0633C58.5508 56.6118 58.3309 54.9592 59.2168 53.715C60.549 54.1298 60.9951 55.7886 61.2213 57.0265C61.8874 55.9897 62.1136 54.9529 63.2195 54.3308C63.4394 54.9529 63.8856 55.575 63.6656 56.4044C64.1118 54.9529 64.9978 53.3003 66.3362 52.6782C66.7823 53.093 67.2284 53.715 67.0022 54.7518C67.4484 51.4404 71.2311 52.4709 69.4466 54.9592C71.451 50.6109 77.4519 53.5077 73.4492 56.2033C75.6736 52.6845 81.0084 55.1665 77.2319 57.2401C80.3423 54.5445 84.5712 57.6549 79.9025 58.4843C81.0147 58.0696 83.9051 57.0328 85.0173 58.0696C86.1295 58.899 85.6834 59.7284 84.1313 59.9358C88.134 60.3505 89.9123 62.0094 85.4635 63.662C89.2462 64.2841 91.6905 65.5282 87.2417 67.1808C90.7982 68.2176 91.0245 70.2849 87.4679 71.3217C91.6905 73.1879 93.0289 75.0479 87.6879 76.4994C93.0226 77.3288 89.686 80.2256 86.3557 81.055C91.9167 80.0182 91.0245 83.7444 87.0218 85.4033C93.2488 84.1591 90.1385 88.9221 86.1295 89.9589C87.6879 89.5441 89.2399 89.9589 89.02 91.4104C88.5738 93.0692 83.9051 93.8924 82.573 94.106C84.3513 93.6913 85.6834 94.9355 84.3513 96.387C83.2391 97.4238 79.6825 97.0091 78.3441 96.387C81.4608 96.387 77.4582 99.9058 74.5614 98.2469C77.4519 100.528 67.0022 100.321 69.0004 96.387L62.9996 97.4238L62.987 97.4112Z" fill="#440908"/>
<path d="M44.853 56.9443C43.5271 57.824 40.4356 59.9353 41.4849 61.8518C42.4526 63.6301 45.6824 60.5009 46.2416 59.7154C45.984 59.5646 45.7327 59.4138 45.475 59.2693C44.8592 60.7082 43.4831 61.8895 43.5648 63.5547C43.5774 63.8374 43.8099 64.1328 44.1178 64.1076C45.4185 63.9945 46.2165 62.964 47.4544 62.7881C47.2219 62.6059 46.9831 62.4299 46.7506 62.2477C46.8197 64.2082 45.6258 66.4703 48.6168 66.508C49.1635 66.5143 49.2892 65.666 48.7488 65.5466C46.826 65.1382 47.8942 63.5673 47.8691 62.2477C47.8691 61.9712 47.6177 61.6508 47.3098 61.6885C46.0468 61.8455 45.2111 62.8195 43.9733 63.0143C44.2057 63.1902 44.4445 63.3725 44.677 63.5484C44.5074 62.1283 45.7955 60.8779 46.2919 59.6023C46.4867 59.1122 45.7452 58.8608 45.4813 59.263C45.1797 59.7217 44.7713 60.0987 44.3628 60.4694C44.1869 60.6265 41.6232 62.4928 42.0253 60.7271C42.3269 59.4075 44.0801 58.1382 45.1232 57.3905C45.3933 57.1957 45.142 56.7495 44.8592 56.9381L44.853 56.9443Z" fill="#440908"/>
<path d="M66.2917 39.8282C64.1741 38.5401 61.2397 37.4279 58.8016 38.3767C58.5314 38.4836 58.412 38.7977 58.632 39.0239C60.649 41.1164 63.5206 39.5329 65.921 40.6137V39.7905C64.4757 40.4378 60.4668 41.2169 60.1463 43.1083C59.7756 45.3075 63.8599 44.9745 65.0035 44.9557C64.9533 44.5975 64.9093 44.2393 64.859 43.8812C62.9614 44.5347 59.6122 45.6846 59.807 48.1792C60.0144 50.9188 63.8725 49.5553 65.2486 48.8766C65.0915 48.6064 64.9281 48.33 64.771 48.0598C63.1876 49.084 61.9057 50.7869 64.1867 51.7294C64.5825 51.8928 64.8465 51.2393 64.4757 51.0445C62.93 50.2402 64.8025 49.1468 65.2486 48.8766C65.7827 48.5562 65.3177 47.8084 64.771 48.0598C64.2118 48.3111 63.6651 48.4996 63.0808 48.663C61.4659 49.1154 60.8187 47.312 62.0817 46.382C62.9865 45.716 64.105 45.3013 65.1606 44.9368C65.7262 44.742 65.657 43.8498 65.0161 43.8623C64.4317 43.8749 63.8474 43.8875 63.263 43.8875C61.7926 43.8749 61.0889 43.0894 62.5529 42.304C63.7908 41.6379 65.1481 41.2106 66.4236 40.62C66.7315 40.4755 66.7441 39.9351 66.4236 39.7968C65.0161 39.1873 63.5897 39.313 62.0817 39.3695C61.5287 39.3947 60.9758 39.357 60.4291 39.2439C60.4982 39.0805 60.5673 38.9171 60.6364 38.7475C61.2899 38.7412 61.9371 38.8103 62.5781 38.9611C63.7908 39.1873 64.9847 39.69 66.0466 40.2869C66.342 40.4566 66.5996 40.0105 66.3105 39.8345L66.2917 39.8282Z" fill="#440908"/>
<path d="M92.7838 47.8088C91.2255 45.9237 87.9203 44.9874 85.6393 45.9237C85.3943 46.0242 85.3 46.2442 85.4068 46.4892C86.6196 49.1535 90.1635 49.21 92.6078 49.9641V49.3043C91.1689 49.5619 86.2426 49.3922 86.0792 51.6669C85.8907 54.2306 89.6671 54.8464 91.5396 55.0663C91.4831 54.8464 91.4202 54.6265 91.3637 54.4066C90.3143 54.9407 87.2794 55.3994 87.7695 57.1336C88.1905 58.6166 91.6527 58.0762 92.633 57.9065C92.5576 57.7243 92.4759 57.5358 92.4005 57.3536C90.9427 58.183 89.8808 58.9245 89.4346 60.6022C89.3592 60.885 89.7865 60.9981 89.8682 60.7216C90.3269 59.1318 91.3448 58.516 92.7021 57.8751C92.9723 57.7494 92.8466 57.2845 92.5513 57.3096C91.4579 57.4038 90.3772 57.3222 89.2901 57.1651C87.0908 56.8383 90.8107 55.3868 90.3646 55.569C90.817 55.3868 91.2694 55.2297 91.7093 55.0224C91.9732 54.8967 91.9229 54.4191 91.6276 54.3751C90.8799 54.2683 85.0801 52.8357 87.3987 51.0888C88.8 50.0269 91.1249 50.2217 92.7901 49.9703C93.1545 49.9138 93.0791 49.4048 92.7901 49.3106C90.9678 48.6948 89.0576 48.4309 87.3548 47.4883C85.432 46.4264 87.5181 46.1939 88.4795 46.2316C89.9687 46.2944 91.5836 46.8914 92.6204 47.9784C92.721 48.0853 92.8718 47.9282 92.7775 47.8213L92.7838 47.8088Z" fill="#440908"/>
<path d="M102.392 72.1136C102.298 70.7124 102.046 69.3111 102.002 67.9099C101.99 67.5769 101.475 67.4826 101.405 67.8282C101.097 69.4557 100.991 72.1262 102.103 73.4772C102.668 74.1684 103.611 73.716 104.07 73.1756C104.811 72.2959 105.1 71.0203 105.402 69.9395H104.378C104.623 70.8443 104.579 71.7869 104.811 72.698C104.893 73.0248 105.308 73.207 105.597 73.0185C105.948 72.7923 106.596 72.2644 106.966 72.7671C107.174 73.0436 107.249 73.4835 107.4 73.8039C107.601 74.2312 108.229 73.9987 108.242 73.5777C108.261 72.8048 107.94 72.0382 107.268 71.6235C106.558 71.1899 105.641 71.7115 105.056 72.1011C105.32 72.2079 105.584 72.3147 105.842 72.4215C105.597 71.5167 105.634 70.5742 105.402 69.6693C105.27 69.1541 104.522 69.1729 104.378 69.6693C104.164 70.4233 103.938 71.1774 103.605 71.8874C103.454 72.2079 103.259 72.5472 102.964 72.7546C102.712 72.9305 102.48 72.0382 102.442 71.9251C102.046 70.593 102.235 69.1918 101.996 67.8408C101.801 67.8973 101.606 67.9476 101.412 68.0042C101.676 69.3866 101.965 70.7689 102.178 72.1576C102.197 72.2833 102.411 72.2519 102.398 72.1262L102.392 72.1136Z" fill="#440908"/>
<path d="M96.7861 79.3329C96.717 79.4775 96.6542 79.622 96.585 79.7665C96.7296 79.8482 96.8678 79.9299 97.0123 80.0116C97.2762 79.0942 97.5402 78.3464 98.2062 77.6112C97.9989 77.5861 97.7915 77.5547 97.5841 77.5296C98.3507 78.5349 98.1434 79.8859 98.3507 81.0798C98.4073 81.4191 98.8974 81.5196 99.1173 81.2809C99.6389 80.7153 100.06 80.0681 100.575 79.5026C101.235 78.78 101.392 81.0358 101.461 81.35C101.518 81.6013 101.813 81.6893 102.027 81.5825C104.144 80.4703 104.427 81.9029 104.678 83.6623C104.741 84.0896 105.344 83.9388 105.382 83.5681C105.64 80.9038 103.968 79.7288 101.637 80.9164C101.826 80.9918 102.014 81.0672 102.203 81.1489C102.02 80.3132 102.203 78.5412 101.04 78.3527C99.997 78.1893 99.0105 79.9927 98.4576 80.6336C98.7152 80.7028 98.9728 80.7719 99.2304 80.8347C98.9477 79.49 99.1111 78.1642 98.1936 77.052C98.0617 76.8949 97.7601 76.9012 97.6344 77.052C96.9306 77.8814 96.3651 78.824 96.5034 79.9425C96.5348 80.2189 96.9181 80.3006 97.006 80.0116C97.1066 79.6723 97.0877 79.7037 97.0312 79.3267C97.0123 79.1947 96.805 79.2073 96.7798 79.3267L96.7861 79.3329Z" fill="#440908"/>
<path d="M94.8819 90.7382C93.6252 90.6691 92.5444 90.6188 91.4385 91.2597C91.0489 91.486 91.1557 92.0452 91.5579 92.1834C92.2868 92.4222 92.9466 92.7992 93.5938 93.2014C94.5363 93.792 96.4151 95.2373 94.153 95.5137C94.241 95.8468 94.3352 96.1798 94.4232 96.5128C94.8568 96.2238 95.3281 96.0102 95.837 95.8845C96.1072 95.8531 96.3774 95.8216 96.6476 95.7902C97.7535 96.959 97.6844 97.8073 96.4277 98.3351C96.0695 98.599 96.2895 99.1143 96.723 99.0388C97.7661 98.8629 98.5578 99.3719 97.4268 99.9877C96.8738 100.289 96.214 100.302 95.6045 100.358C95.2464 100.39 95.1144 100.937 95.5166 101.024C97.8226 101.533 100.499 98.31 96.6225 98.2848C96.6853 98.5236 96.7482 98.7624 96.8173 99.0011C97.7912 98.266 99.1234 97.0721 98.206 95.7965C97.2446 94.4581 95.083 95.0802 93.8828 95.5954C93.2733 95.8593 93.7509 96.6511 94.2913 96.5694C99.0794 95.8782 93.8891 91.8504 91.8155 91.2158C91.8595 91.5237 91.8972 91.8316 91.9349 92.1332C92.8586 91.5048 93.8074 91.5174 94.8694 91.4922C95.3532 91.4797 95.3532 90.7696 94.8694 90.7445L94.8819 90.7382Z" fill="#440908"/>
<path d="M53.3854 95.6263C52.0281 94.2502 50.2687 93.2071 48.3208 93.0249C48.0192 92.9998 47.7553 93.3014 47.7616 93.5841C47.8056 95.4315 49.7849 96.085 51.3684 95.9908C51.9276 95.9594 52.1098 95.0922 51.5066 94.9728C49.9545 94.6586 46.8756 94.734 46.5048 96.7448C46.0713 99.1263 49.7598 99.0195 51.1861 98.7807C51.0793 98.5231 50.9662 98.2654 50.8594 98.0078C49.2319 98.7744 45.5623 98.6739 45.311 101.08C45.0785 103.336 49.8414 102.381 50.9285 102.444C51.2427 102.463 51.3181 102.036 51.0793 101.885C49.898 101.137 48.0946 101.765 46.7939 101.175C46.0776 100.848 48.5973 99.6667 48.7418 99.6038C49.4393 99.3085 50.3127 98.8749 51.073 98.7933C51.5066 98.7493 51.6951 98.0518 51.1861 97.9638C50.1556 97.7879 48.7292 97.8507 47.9187 97.1218C47.0767 96.3741 50.8154 95.8714 51.2301 95.9719C51.2741 95.6326 51.3244 95.2933 51.3684 94.954C50.2687 94.9854 49.1565 94.6147 48.8612 93.4396C48.679 93.6784 48.503 93.9109 48.3208 94.1497C50.1682 93.9172 51.7517 94.7152 53.1215 95.8965C53.3037 96.0536 53.5613 95.8023 53.3854 95.6326V95.6263Z" fill="#440908"/>
<path d="M45.424 81.9536C44.1547 80.0622 41.7041 76.7256 39.0273 77.7875C38.6126 77.9509 38.4555 78.4159 38.7697 78.7678C39.5049 79.5972 40.8621 80.257 41.547 79.0128C42.1817 77.8692 40.6045 76.889 39.6871 76.8073C37.513 76.6125 35.0309 80.8539 37.7266 80.8728C38.2858 80.8728 38.8954 80.1753 38.7446 79.6223C38.4932 78.6987 36.7652 79.2642 36.2877 79.5281C35.2257 80.1125 34.0318 81.099 33.6863 82.3054C33.3155 83.5873 34.899 83.581 35.6656 83.3925C36.1369 83.2794 36.0049 82.6071 35.5588 82.5819C33.9816 82.4814 35.9358 80.8477 36.495 80.4266C36.7526 80.2381 37.0417 80.1062 37.3559 80.0245C37.6324 79.6035 37.9025 79.1762 38.1539 78.7426C38.3236 78.529 39.3289 77.6493 39.5991 77.9446C39.5614 78.2525 39.5237 78.5604 39.4797 78.862C41.4465 77.9195 43.8091 80.9608 44.8396 82.2992C45.0973 82.6322 45.6691 82.3306 45.424 81.9598V81.9536Z" fill="#440908"/>
<path d="M47.0337 77.4297C48.1396 75.7142 46.9771 71.3471 44.4008 72.2583C42.5849 72.8992 43.3829 75.9027 45.2177 75.5132C46.4179 75.2555 46.0974 73.1065 45.9466 72.3525C45.6701 71.0015 44.4322 70.901 43.3326 71.19C42.1701 71.4979 41.3721 72.0195 40.3228 70.9953C39.7007 70.3857 39.1603 69.9522 38.2869 69.8077C37.0113 69.594 35.7797 70.3166 36.6531 71.5985C36.9171 71.9881 37.5014 71.743 37.4072 71.278C37.8722 70.5491 38.4377 70.4549 39.1163 71.0015C39.3111 71.2089 39.4933 71.4225 39.6567 71.655C39.9646 72.0509 40.3039 72.4405 40.7752 72.6353C41.6172 72.9809 42.4592 72.5976 43.2572 72.2834C44.3129 71.8687 45.0229 72.3211 45.092 73.5024C45.1611 74.7466 44.1055 74.4827 44.2626 73.5213C44.6836 72.8363 45.2177 72.7547 45.8461 73.2762C46.2294 73.6281 46.4618 74.2879 46.6315 74.7528C46.9143 75.5069 47.0839 76.4871 46.7006 77.2349C46.5938 77.4485 46.8954 77.6307 47.0274 77.4234L47.0337 77.4297Z" fill="#440908"/>
<path d="M88.787 61.5254C87.5114 62.8135 86.041 66.5774 88.3911 67.4948C90.9925 68.5065 91.5203 62.9267 91.6837 61.5254H90.8166C90.8166 62.4114 90.7726 64.1143 92.0356 64.1394C93.1729 64.1645 93.9772 62.2166 94.348 61.4374C94.1092 61.406 93.8641 61.3746 93.6253 61.3432C94.2286 62.9267 95.6298 62.9518 96.7294 61.783C97.5714 60.8845 97.5777 58.5093 95.7932 59.1376C95.4916 59.2445 95.4162 59.6466 95.7052 59.8226C96.3524 60.2247 96.7169 60.3064 96.1953 61.1107C95.6989 61.8836 94.725 62.2292 94.3857 61.1358C94.2851 60.8154 93.8327 60.7337 93.663 61.0416C93.3363 61.6197 92.997 62.1726 92.5697 62.6816C91.6837 63.731 91.7151 62.2606 91.6837 61.5317C91.6649 61.0667 90.9045 60.9159 90.8354 61.4186C90.6218 62.9832 90.4019 64.9877 89.3713 66.2444C88.19 67.6833 87.989 64.8997 88.0958 64.2902C88.2403 63.4545 88.5419 62.4994 89.0823 61.827C89.2457 61.6259 88.9818 61.3432 88.7933 61.538L88.787 61.5254Z" fill="#440908"/>
<path d="M79.726 56.9698C79.5814 56.0398 79.3364 55.2984 78.8274 54.5129C78.6326 54.2176 78.0734 54.2993 78.1048 54.7077C78.2493 56.3289 81.033 59.8289 82.8992 58.2454C84.8659 56.5677 82.6353 53.3505 80.8507 52.5147C80.6308 52.4079 80.2726 52.5273 80.304 52.8289C80.48 54.5255 81.4917 56.0587 83.1505 54.6135C84.5329 53.407 84.0365 51.7796 82.2583 51.6476C82.0006 51.6288 81.9064 51.9178 81.9943 52.1126C82.3965 53.0237 83.8166 53.6458 84.5832 52.6907C85.6451 51.3774 84.5643 49.8316 83.9046 48.5686C83.6658 48.1162 82.9809 48.5184 83.2259 48.9645C83.3579 49.2159 83.4898 49.4609 83.6344 49.706C83.7098 49.8442 83.7852 49.9887 83.8606 50.127C84.5895 51.1072 84.1433 51.6602 82.5284 51.7984C82.4405 51.9555 82.3525 52.1063 82.2645 52.2634C83.5401 52.3011 83.471 53.2059 82.8238 53.9725C81.7933 55.2041 81.1146 53.9348 81.0329 52.8226C80.8507 52.9295 80.6685 53.03 80.4863 53.1368C81.6802 53.7589 83.2196 55.7382 82.6039 57.1709C81.7681 59.1062 79.1164 55.3675 78.8651 54.6072C78.6515 54.7329 78.4378 54.8585 78.2179 54.9842C78.8463 55.5874 79.0787 56.2723 79.2861 57.0892C79.3615 57.3783 79.7637 57.2463 79.7197 56.9698H79.726Z" fill="#440908"/>
<path d="M100.575 53.3005C100.336 52.9612 99.827 52.9675 99.5254 53.2377C99.1421 53.5833 99.0479 54.13 99.0667 54.6264C99.1421 56.3355 100.864 56.857 102.265 56.3418C102.108 56.0716 101.951 55.8014 101.794 55.5249C100.273 57.1586 102.165 58.7484 103.911 57.9127C103.773 57.8938 103.629 57.875 103.484 57.8561C103.679 58.0886 103.905 58.1703 104.138 58.3588C104.358 58.541 104.634 58.3211 104.521 58.0635C104.395 57.787 104.207 57.6802 104.031 57.4288C103.949 57.3032 103.792 57.2152 103.635 57.2655C102.849 57.5419 101.492 57.1524 102.479 56.2035C102.831 55.8705 102.472 55.2484 102.007 55.3867C101.172 55.638 100.349 55.6254 99.9716 54.7269C99.8522 54.4441 99.8207 54.13 99.8962 53.8283C99.9716 53.5204 100.217 53.621 100.455 53.5896C100.581 53.5707 100.65 53.3885 100.581 53.2879L100.575 53.3005Z" fill="#440908"/>
<path d="M52.6314 53.7334C50.363 51.6661 46.907 50.2209 44.1611 52.2254C42.7284 53.2747 43.6144 55.2038 45.2167 54.1921C47.2149 52.9417 41.3523 47.4938 39.4609 51.8358C39.197 52.439 39.9699 52.9166 40.3532 52.3573C42.2572 49.5737 35.8919 48.8825 34.654 50.3277C34.4341 50.5854 34.5409 51.1509 34.9745 51.0943C35.4017 51.0378 40.5103 50.1518 39.4609 51.8358C39.7751 51.9677 40.0893 52.0997 40.4035 52.2317C41.2581 49.9821 43.8783 51.4902 44.7329 52.8223C44.5381 52.5144 47.4411 52.018 47.4851 52.018C49.2885 51.8861 51.0605 52.8914 52.4177 53.9408C52.5685 54.0539 52.7759 53.8591 52.6314 53.7272V53.7334Z" fill="#440908"/>
<path d="M36.8096 69.9642C37.0672 69.317 37.1049 68.9525 36.9541 68.2802C36.9164 68.1168 36.7279 68.0665 36.5959 68.1356C35.3392 68.7703 33.6049 70.58 34.0322 72.1132C34.5349 73.9354 36.2943 72.1257 36.42 71.1015C36.4577 70.7936 36.0304 70.5611 35.7854 70.737C34.6983 71.5288 33.2028 73.018 33.6552 74.5449C34.1516 76.2478 35.9047 76.0153 37.262 75.5314C37.1615 75.2989 37.0609 75.0602 36.9667 74.8277C33.7997 76.4174 35.71 78.8994 38.6947 78.3528C39.034 78.2899 38.946 77.7558 38.613 77.7621C38.1606 77.8061 37.7144 77.7621 37.2746 77.6427C36.1938 77.404 36.1875 76.7002 37.262 75.5377C37.7144 75.3555 37.5511 74.6832 37.0546 74.79C36.0744 75.0099 34.4407 75.1921 34.6543 73.6652C34.78 72.7604 35.5152 71.9749 36.2126 71.4659C36.0053 71.3089 35.7979 71.1518 35.5969 70.9884C34.9182 71.3528 34.8303 71.202 35.3392 70.536C35.5529 70.1841 35.7916 69.8448 36.0556 69.5306C36.4012 69.0907 37.1489 68.0539 36.6399 69.9139C36.6085 70.0333 36.7782 70.071 36.8222 69.9642H36.8096Z" fill="#992317"/>
<path d="M41.1578 77.0585C41.2018 77.2659 41.4532 77.379 41.6102 77.5046C41.8365 77.6743 42.0627 77.8188 42.3266 77.9194C42.5088 77.9885 42.5905 77.6931 42.4083 77.6303C42.1695 77.5486 41.9558 77.4167 41.7485 77.2721C41.5725 77.1528 41.4154 76.9642 41.1955 76.9957C41.1641 76.9957 41.1515 77.0397 41.1578 77.0648V77.0585Z" fill="#992317"/>
<path d="M37.7963 59.6404C36.018 60.1368 34.4597 61.425 35.7039 63.2284C36.7218 64.705 39.3169 62.9268 40.2469 62.2858C40.0647 62.1413 39.8762 62.0031 39.694 61.8585C38.5566 64.7113 40.6114 67.2185 42.7227 64.1898C42.4713 64.1206 42.22 64.0578 41.9749 63.9887C41.5728 68.073 45.3429 67.8971 47.1777 65.0381C46.9578 65.0066 46.7442 64.9815 46.5305 64.9501C46.8887 66.7535 46.9075 68.7328 49.2953 67.9725C49.6786 67.8468 49.6346 67.1745 49.1948 67.2373C47.6176 67.451 47.3851 65.9555 47.2154 64.7616C47.1652 64.416 46.7253 64.4662 46.5682 64.6736C45.3429 66.3011 42.509 67.2562 42.7792 63.9824C42.8043 63.6431 42.3142 63.4357 42.0943 63.6996C40.1778 64.0641 39.6186 63.5111 40.4229 62.0533C40.5297 61.7329 40.1464 61.4627 39.8699 61.6261C39.5871 61.802 39.2918 61.9717 38.9965 62.1225C37.6015 63.109 37.2559 62.4743 37.966 60.206C38.3241 60.074 38.1859 59.521 37.8089 59.6279L37.7963 59.6404Z" fill="#992317"/>
<path d="M48.2146 58.7172C47.825 57.6176 47.6553 56.3671 47.6176 55.211C47.5862 54.3061 48.1203 53.0557 49.1131 54.2244C49.6472 54.8528 50.0745 55.5628 50.7217 56.0844C51.0233 56.3294 51.438 56.2477 51.57 55.8582C51.8402 55.0664 51.947 54.2244 52.1669 53.4201C52.6382 51.667 54.2342 53.9291 54.7684 54.5072C55.1391 54.9093 55.7926 54.4883 55.6606 53.9857C55.271 52.4839 56.955 52.421 57.087 53.9857C57.1436 54.658 58.1929 54.6643 58.1364 53.9857C57.8913 50.9004 53.8007 51.0324 54.6301 54.2747C54.9254 54.0988 55.2271 53.9291 55.5224 53.7532C54.894 53.0682 53.4991 50.8564 52.2612 51.4911C50.8474 52.2137 50.9793 54.281 50.596 55.5943C50.8474 55.4937 51.0924 55.3932 51.3438 55.2926C50.64 54.7774 48.4282 51.2209 47.2783 53.2442C46.386 54.8277 47.0521 57.3788 47.8752 58.868C47.9758 59.0502 48.29 58.9246 48.2208 58.7235L48.2146 58.7172Z" fill="#992317"/>
<path d="M48.5282 44.9364C48.8423 44.8735 49.0308 44.6159 49.2948 44.4337C49.7912 44.0881 50.363 43.8619 50.9285 43.6796C51.582 43.466 52.889 43.4848 52.1978 44.6159C51.8396 45.194 51.1359 45.7092 50.4949 45.9417C50.6646 46.2371 50.8342 46.5261 51.0039 46.8214C51.5946 46.2748 52.2732 45.9354 53.0524 45.7407C53.5425 45.615 54.0452 45.6778 54.4976 45.8977C55.6035 46.4319 54.9877 47.9713 54.818 48.7945C54.6987 49.3851 55.6035 49.6365 55.7229 49.0458C56.0245 47.5692 56.5083 45.483 54.6044 44.861C53.0586 44.352 51.4123 45.0243 50.2561 46.0863C49.8791 46.4319 50.2687 47.1419 50.7651 46.966C51.7265 46.6204 52.4868 45.9606 53.0963 45.1563C53.555 44.5468 53.7498 43.2712 52.9015 42.8439C52.0595 42.4166 51.1044 42.6428 50.275 43.0199C49.7158 43.2712 48.1323 43.9121 48.2014 44.7164C48.214 44.8798 48.3459 44.9866 48.5093 44.9489L48.5282 44.9364Z" fill="#992317"/>
<path d="M75.4858 45.8981C75.9131 45.5085 76.3593 45.5588 76.818 45.7975C76.7865 45.5713 76.7614 45.3388 76.73 45.1126C76.1896 45.8101 75.3099 46.0929 74.6375 46.6521C74.4302 46.8218 74.4365 47.2114 74.6375 47.3873C75.2345 47.9026 75.8566 48.3675 76.4095 48.9268C76.6734 49.197 76.9059 49.4986 77.0127 49.863C77.2075 50.5228 75.8377 50.6988 75.4607 50.7679C74.87 50.8747 75.1151 51.8235 75.712 51.6727C76.8305 51.39 78.2255 50.8621 77.861 49.4546C77.5594 48.2733 76.177 47.2679 75.2659 46.5641C75.3036 46.8343 75.335 47.1108 75.3727 47.381C76.0451 46.7464 76.8808 46.4196 77.4149 45.6405C77.5406 45.4582 77.4652 45.1315 77.2578 45.0435C76.686 44.7922 74.5496 44.5471 75.046 45.7787C75.1214 45.9609 75.3287 46.0363 75.4858 45.8918V45.8981Z" fill="#992317"/>
<path d="M92.5134 70.3729C92.4569 71.5857 91.8599 75.1045 93.7953 75.3118C95.9317 75.5381 96.0448 72.0695 96.1265 70.662C96.1516 70.2284 95.4918 70.153 95.385 70.5614C95.1148 71.5605 94.8572 74.0928 96.6417 73.5273C98.131 73.056 98.2001 70.1342 98.087 68.9214C97.8859 68.9466 97.6911 68.978 97.49 69.0031C97.9362 71.4914 99.8213 69.732 100.286 68.2491C100.349 68.048 100.035 67.9098 99.9406 68.1046C99.6139 68.7895 98.4263 70.4672 98.0744 68.846C97.999 68.513 97.4335 68.5884 97.4775 68.9277C97.5906 69.7823 97.3329 70.6934 97.0753 71.504C97.0502 71.5731 96.3527 73.2634 96.0762 72.3271C95.938 71.8622 96.0322 71.2464 96.1139 70.7751C95.8626 70.7437 95.6175 70.706 95.3725 70.6745C95.3913 71.2526 94.6436 75.6574 93.5691 74.1242C92.8967 73.1691 93.1983 71.4851 93.192 70.3855C93.192 69.9457 92.5386 69.9519 92.5134 70.3855V70.3729Z" fill="#992317"/>
<path d="M100.174 66.7468C100.143 67.1427 100.476 67.4317 100.865 67.3249C101.399 67.1804 101.801 66.5834 102.065 66.1373C102.719 65.0251 102.851 63.2594 101.223 63.0269C100.727 62.9578 100.513 63.7181 101.016 63.7872C102.028 63.9317 101.927 64.8554 101.6 65.6157C101.431 66.0116 100.846 67.1489 100.306 66.6902C100.256 66.6463 100.187 66.6777 100.18 66.7405L100.174 66.7468Z" fill="#992317"/>
<path d="M96.1836 83.9832C95.8066 84.8377 94.5875 87.3952 96.3972 87.502C97.8864 87.5899 99.5579 85.2085 100.306 84.2094C100.054 84.1402 99.8029 84.0711 99.5516 84.002C99.6144 84.9885 99.1494 85.9311 99.0301 86.905C98.9986 87.1689 99.2751 87.4014 99.5202 87.3952C100.582 87.37 101.072 86.6411 101.644 85.818C101.374 85.7803 101.104 85.7488 100.833 85.7111C100.978 86.7856 100.903 87.967 101.644 88.8404C102.392 89.7264 103.824 88.8907 104.547 88.4696C104.333 88.4131 104.113 88.3565 103.9 88.3C104.164 88.7838 104.447 89.1797 104.824 89.5819C105.043 89.8206 105.376 89.5693 105.326 89.2928C105.219 88.7273 104.962 88.3565 104.717 87.8287C104.604 87.5837 104.283 87.5522 104.07 87.6591C103.271 88.0486 102.373 88.5199 102.015 87.3952C101.833 86.8296 101.77 86.1824 101.707 85.6043C101.669 85.2713 101.223 84.9571 100.953 85.2901C100.582 85.7551 100.205 86.3521 99.5265 86.4149C99.6898 86.5783 99.8532 86.7417 100.017 86.905C100.061 85.9185 100.381 84.9948 100.362 84.002C100.356 83.6753 99.9035 83.4302 99.671 83.713C98.9861 84.5487 98.232 85.3216 97.3649 85.9688C97.2958 86.019 96.3909 86.6034 96.347 86.4903C96.1207 85.8871 96.6171 84.8063 96.8057 84.2345C96.925 83.8763 96.3407 83.6187 96.1899 83.9769L96.1836 83.9832Z" fill="#992317"/>
<path d="M87.5123 94.4704C86.2367 94.8035 83.8364 95.6266 84.515 97.386C85.1057 98.9192 87.7071 98.3788 88.9324 98.5108C88.8319 98.2657 88.7251 98.0144 88.6245 97.7693C87.7448 98.5045 85.866 99.2271 86.4253 100.679C87.1479 102.545 89.9189 101.037 90.4656 102.96C90.5724 103.343 91.1819 103.274 91.1694 102.865C91.1317 101.979 90.6541 101.489 89.8435 101.169C89.0644 100.861 88.3103 101.037 87.6254 100.415C87.0976 99.9309 88.9827 98.6302 89.234 98.3851C89.4477 98.1715 89.3723 97.7191 89.0392 97.6625C88.2098 97.5117 87.3678 97.4551 86.5446 97.2729C84.7287 96.8708 87.3112 95.4884 87.8328 95.2622C88.2915 95.0611 87.9585 94.351 87.4998 94.4767L87.5123 94.4704Z" fill="#992317"/>
<path d="M47.0639 90.8638C48.3394 90.5371 45.9014 87.213 45.1788 86.9491C42.4329 85.95 42.5899 89.8396 43.5639 91.2974C43.9158 91.8189 44.7201 91.6241 44.7452 90.9769C44.7892 89.8144 44.2614 88.231 42.7785 88.8782C41.2515 89.5443 40.3467 91.2345 40.4472 92.862C40.7991 92.7175 41.151 92.5729 41.4966 92.4284C38.9517 90.4114 36.897 94.5649 37.5442 96.7641C37.7013 97.2919 38.5056 97.1914 38.5056 96.6322C38.5056 95.8027 39.0711 91.8503 40.6295 93.2956C40.9813 93.6223 41.7479 93.4338 41.6851 92.862C41.5909 92.0577 41.7542 91.4356 42.1689 90.7444C42.7973 89.7076 43.6267 89.6322 43.4759 90.9769C43.8718 90.8701 44.2677 90.7633 44.6573 90.6565C44.475 90.336 44.3431 90.0155 44.2174 89.6699C44.1231 89.3809 44.0603 89.0918 44.0289 88.7902C43.9095 88.1996 44.2991 87.9608 45.1788 88.0802C45.3359 88.1996 47.0827 90.3988 46.9131 90.5245C46.7497 90.6439 46.8377 90.9204 47.0576 90.8701L47.0639 90.8638Z" fill="#992317"/>
<path d="M38.148 88.3251C38.0286 87.6401 37.8275 86.3834 37.0043 86.1509C36.0807 85.8933 35.4649 87.1312 35.3078 87.8286C35.1507 88.5513 35.5717 89.3367 36.3069 89.4812C37.1929 89.6572 37.7018 88.7649 37.8841 88.0486C37.9406 87.8224 37.8149 87.5333 37.5636 87.4893C35.5968 87.106 33.5986 89.764 34.937 91.448C35.0062 91.1904 35.0753 90.9265 35.1444 90.6688C34.1013 90.8196 33.4101 90.9265 32.7441 91.8816C32.2351 92.6168 31.7073 93.6347 32.1911 94.5018C32.3796 94.8474 32.8697 94.6715 32.8886 94.3133C32.9263 93.6724 32.9766 93.1571 33.2656 92.5665C33.4353 92.2209 34.4218 90.8699 34.9433 91.448C35.2889 91.8376 35.7853 91.4103 35.7225 90.9956C35.5968 90.1284 35.8356 87.8412 37.3248 88.369C37.218 88.1805 37.1112 87.992 37.0043 87.8035C36.7907 87.8601 36.5708 87.9166 36.3571 87.9732C36.3697 87.1877 36.709 86.9615 37.3814 87.2883C37.6139 87.6087 37.7647 88.036 37.8966 88.3942C37.9532 88.5513 38.1794 88.4947 38.148 88.3251Z" fill="#72130D"/>
<path d="M34.1458 66.0623C34.5165 65.7167 33.9007 63.0775 34.0264 62.3926C33.8127 62.512 33.5991 62.6377 33.3854 62.7571C35.1134 63.3729 35.6664 65.9052 35.9806 67.4949C36.1188 68.1987 37.1619 67.9976 37.187 67.3315C37.2122 66.6466 37.3001 65.968 37.4824 65.3082C37.828 64.0389 38.4437 67.3818 38.3935 66.8289C38.4312 67.2373 38.4249 67.652 38.4249 68.0604C38.4249 68.6825 39.2857 68.6385 39.3612 68.0604C40.0398 66.8351 40.6116 66.6592 41.064 67.5326C41.4222 68.0227 41.573 68.6323 41.617 69.2229C41.6672 69.8261 42.4841 69.8136 42.5407 69.2229C43.1941 69.2732 43.5272 69.5748 43.5397 70.134C43.59 70.3979 43.6529 70.6619 43.7094 70.9258C43.8288 71.4473 44.608 71.2274 44.5074 70.7058C44.2938 69.6376 44.2121 68.2301 42.9554 67.8908C42.0128 67.6332 41.7049 68.4877 41.6107 69.2229H42.5344C42.3584 66.3136 38.9401 64.1081 38.4123 68.0604H39.3486C39.3486 66.9608 39.468 63.8253 37.7148 63.8253C36.1754 63.8253 35.968 66.2445 35.9492 67.3378C36.3513 67.2813 36.7535 67.231 37.1556 67.1745C36.7409 65.1763 35.9177 62.3047 33.6556 61.758C33.31 61.6763 33.021 61.9214 32.9959 62.2607C32.8828 63.7122 33.2849 65.1511 33.731 66.5272C33.7876 66.6969 33.9887 66.7535 34.1143 66.6278C34.284 66.4707 34.2589 66.4895 34.372 66.2508C34.4411 66.1 34.2651 65.9492 34.1332 66.0685L34.1458 66.0623Z" fill="#72130D"/>
<path d="M51.1181 42.5239C49.3273 41.7699 46.1855 41.1038 44.7717 42.8758C44.1873 43.6047 44.225 44.5975 44.8471 45.2699C45.6011 46.0867 47.1909 45.9234 48.1774 45.9108C48.0957 45.6092 48.014 45.3139 47.9323 45.0122C46.6442 45.804 45.3058 46.3883 44.3821 47.6262C44.1999 47.865 44.3507 48.2106 44.5706 48.3551C45.6765 49.0714 47.0966 48.8264 48.2968 48.4871C48.1774 48.2106 48.0643 47.9278 47.9449 47.6451C47.0589 48.0472 46.2483 48.6379 46.1352 49.6684C46.0158 50.7492 47.4736 50.8874 48.1774 50.856C48.8058 50.8246 48.812 49.9009 48.1774 49.882C46.707 49.838 47.4234 48.839 48.2968 48.4934C48.8372 48.2797 48.6424 47.4754 48.0517 47.6074C47.1029 47.8147 45.9844 47.9655 45.1047 47.444C45.1676 47.6891 45.2304 47.9278 45.2932 48.1729C46.0535 47.067 47.2914 46.514 48.4162 45.8542C48.8309 45.6092 48.6487 44.962 48.1711 44.9557C47.5553 44.9557 46.9395 44.9557 46.3237 44.8551C44.6586 44.585 45.2995 43.0392 46.4745 42.6056C47.8444 42.0904 49.6729 42.3857 51.0302 42.8318C51.2187 42.8947 51.2815 42.6119 51.1118 42.5428L51.1181 42.5239Z" fill="#72130D"/>
<path d="M81.5299 45.5334C80.38 45.6968 75.0013 43.2022 76.5847 42.0523C77.9483 41.0658 81.6367 42.1654 82.8369 43.1142C82.8997 42.8818 82.9626 42.643 83.0254 42.4105C81.0712 43.0765 79.6134 41.2731 78.8468 39.7085C78.696 39.9096 78.5389 40.1044 78.3881 40.3055C79.6637 40.5003 80.8199 40.9967 82.02 41.4554C82.3468 41.581 82.6547 41.1475 82.4662 40.871C81.9823 40.1421 81.4168 39.5326 80.7947 38.9231C80.6754 39.1304 80.556 39.3378 80.4303 39.5452C81.1906 39.652 81.9446 39.6771 82.705 39.7399C83.0003 39.7651 83.0568 39.2938 82.7741 39.2247C82.0577 39.0488 81.354 38.9545 80.6251 38.8288C80.2669 38.766 79.9904 39.1681 80.2606 39.4509C80.8199 40.029 81.3351 40.6008 81.775 41.2731C81.9258 41.0784 82.0766 40.8836 82.2211 40.6888C81.0272 40.2238 79.8773 39.7148 78.5955 39.52C78.2373 39.4635 77.9734 39.7777 78.1368 40.117C79.073 42.0397 80.933 43.9939 83.2391 43.2211C83.5093 43.1331 83.6915 42.7309 83.4213 42.5173C82.0326 41.4114 76.6476 39.5954 75.6485 42.0083C75.0955 43.3342 76.5282 44.2013 77.5147 44.7354C78.4698 45.2507 80.468 46.2309 81.5488 45.6026C81.5865 45.5774 81.5613 45.5271 81.5236 45.5334H81.5299Z" fill="#72130D"/>
<path d="M108.04 64.4665C106.972 63.2538 106.029 61.9531 104.842 60.8472C104.716 60.7278 104.471 60.6963 104.352 60.8472C103.535 61.8462 103.547 62.883 103.566 64.1398C103.573 64.7179 104.465 64.7179 104.458 64.1398C104.396 57.5043 96.7988 62.0348 97.6094 63.5931C97.7853 63.9261 98.2566 63.7439 98.2754 63.4109C98.3257 62.6128 99.9783 61.8588 100.563 61.6138C102.63 60.7529 103.554 62.1604 103.56 64.1335H104.452C104.452 63.9261 104.251 61.1802 105.414 62.217C106.262 62.9773 106.997 63.8759 107.814 64.6739C107.952 64.8121 108.153 64.6047 108.028 64.4602L108.04 64.4665Z" fill="#72130D"/>
<path d="M98.7098 96.5374C99.1245 96.0096 99.5518 95.4943 100.029 95.0167C100.331 94.7151 100.67 94.4198 101.085 94.2878C101.764 94.0679 101.148 95.4692 101.129 95.5006C101.003 95.7394 100.815 95.9404 100.639 96.1415C100.23 96.6065 100.896 97.2851 101.324 96.8264C101.94 96.1666 102.706 96.1415 103.027 97.0778C103.391 98.1208 102.524 98.9 101.801 99.4781C101.531 99.698 101.877 100.037 102.141 99.918C103.498 99.3273 104.151 97.8192 103.567 96.4494C103.001 95.1361 101.531 95.3498 100.645 96.1415C100.871 96.3677 101.098 96.5939 101.33 96.8264C101.927 96.1981 103.096 93.5087 101.299 93.4961C99.9477 93.4898 98.9549 95.2304 98.2825 96.1981C98.1003 96.462 98.5276 96.7887 98.7224 96.5374H98.7098Z" fill="#72130D"/>
<path d="M103.843 79.0006C104.245 78.2026 104.836 77.612 105.684 77.3103C105.583 77.2664 105.477 77.2287 105.376 77.1847C105.596 77.6811 105.426 78.2152 105.294 78.699C105.225 78.9566 105.54 79.2583 105.785 79.076C106.438 78.5859 107.01 77.8884 107.808 77.6371C108.857 77.3103 107.77 79.7107 107.701 79.9872C107.626 80.2951 107.984 80.6469 108.279 80.4333C109.083 79.8552 109.618 77.769 108.706 77.0653C107.481 76.1227 106.199 77.8444 105.382 78.5482C105.565 78.655 105.753 78.7619 105.935 78.875C106.074 78.2026 106.18 77.5366 105.847 76.9082C105.772 76.7637 105.609 76.7511 105.477 76.8077C104.534 77.2098 103.881 77.9073 103.604 78.8938C103.566 79.0383 103.774 79.1326 103.843 78.9943V79.0006Z" fill="#72130D"/>
<path d="M95.2027 46.0243C95.7368 45.1948 93.77 44.0638 93.2359 43.8062C92.5259 43.4731 90.9361 43.4668 91.1435 44.667C91.3383 45.7855 93.0474 46.2568 93.946 46.5709C95.1901 47.0045 96.5977 47.4255 97.9235 47.4758C98.4262 47.4946 98.5456 46.6903 98.0429 46.5898C96.7987 46.3322 93.6381 46.6966 93.8077 48.6194C93.9711 50.4919 96.5097 51.0449 98.0617 50.9883C98.3822 50.9757 98.5393 50.5233 98.2314 50.36C97.3831 49.895 96.3715 49.8133 95.4918 49.4174C94.3419 48.8959 94.9514 47.9722 95.8436 47.6203C96.4469 47.3815 97.1569 47.3438 97.7915 47.4632C97.8293 47.1679 97.8732 46.8726 97.9109 46.5772C96.4217 46.5395 94.8194 46.0117 93.437 45.4964C93.0537 45.3519 92.6955 45.176 92.35 44.9623C91.665 44.5476 91.9855 44.1392 92.7584 44.2774C93.7826 44.4597 94.5932 45.1886 95.1273 46.0306C95.1399 46.0557 95.1776 46.0557 95.1901 46.0306L95.2027 46.0243Z" fill="#72130D"/>
<path d="M61.4421 100.283C60.2419 99.397 58.6396 98.8817 57.2258 98.4859C56.1387 98.1842 54.3416 97.7758 53.5184 98.8315C51.2752 101.716 57.4583 102.011 58.8721 101.791C59.2617 101.728 59.224 101.125 58.8721 101.037C57.5337 100.71 55.8057 100.654 55.259 102.218C54.6558 103.94 57.1504 104.681 58.3317 104.694C58.7715 104.694 58.8218 104.091 58.4322 103.959C57.7599 103.733 56.3461 103.444 56.2518 102.539C56.145 101.452 58.1495 101.64 58.6647 101.797C58.7024 101.54 58.7338 101.288 58.7715 101.031C57.829 101.081 56.8802 100.974 55.9628 100.786C55.1962 100.622 53.3111 99.5792 55.0139 99.1456C56.8048 98.6932 59.7518 99.5981 61.3164 100.515C61.4672 100.603 61.5803 100.39 61.4483 100.289L61.4421 100.283Z" fill="#72130D"/>
<path d="M48.3209 94.8035C47.3784 92.8493 44.8335 93.5279 43.5391 94.728C42.9673 95.2622 42.5651 96.1356 43.049 96.8519C43.7402 97.8761 45.5561 97.4866 46.5301 97.2729C46.4673 97.0404 46.4044 96.8079 46.3416 96.5754C45.1288 96.921 43.6271 97.4928 42.8416 98.5359C42.0185 99.6355 43.049 100.295 44.1172 100.276C43.9852 100.05 43.8596 99.824 43.7276 99.5978C43.2815 100.49 42.0939 100.779 41.5032 101.602C41.3147 101.866 41.5032 102.275 41.8048 102.344C42.3264 102.463 42.6845 102.501 43.1998 102.363C43.6082 102.256 43.5265 101.609 43.0992 101.627C42.7976 101.558 42.496 101.489 42.1944 101.42C42.2572 101.653 42.3138 101.879 42.3766 102.111C42.8542 101.294 43.8344 100.88 44.4377 100.145C44.6324 99.9057 44.601 99.4659 44.2366 99.3905C43.294 99.1957 43.6585 98.9758 44.2491 98.4354C44.8021 97.9264 45.6692 97.3106 46.4421 97.2855C46.9071 97.2666 46.9071 96.5629 46.4421 96.5629C45.3802 96.5629 43.1181 96.6257 44.5508 95.2307C45.487 94.3196 47.1333 93.6913 48.0382 94.9794C48.1638 95.1616 48.4277 95.0045 48.3272 94.8097L48.3209 94.8035Z" fill="#72130D"/>
<path d="M69.4584 38.7851C70.1433 38.2824 70.9664 37.5975 71.8399 37.497C72.7196 37.3965 71.7205 38.427 71.6765 38.4647C71.4314 38.6469 71.1424 38.7788 70.8659 38.9108C70.4009 39.137 69.9045 39.3004 69.4207 39.4826C69.0688 39.6146 69.207 40.1738 69.5778 40.0607C70.093 39.9036 70.6083 39.8094 71.1487 39.7968C71.488 39.7905 71.8964 39.8408 72.1163 40.1361C72.4368 40.5634 71.865 40.9216 71.5885 41.1164C70.7654 41.7007 69.3955 41.9709 68.8174 42.8192C68.6729 43.0329 68.9117 43.2842 69.1379 43.2339C69.9359 43.0454 70.7025 42.5113 71.4063 42.0966C71.9278 41.7824 72.795 41.2923 72.8767 40.6074C73.1029 38.7223 70.4638 39.137 69.4207 39.4826C69.4709 39.6774 69.5275 39.8659 69.5778 40.0607C70.4009 39.7277 73.3479 38.8291 72.5625 37.4216C71.8901 36.2089 69.8794 37.9494 69.251 38.4333C69.0437 38.5903 69.2447 38.9485 69.4584 38.7914V38.7851Z" fill="#72130D"/>
<path d="M74.9829 95.4629C74.9829 95.4629 74.0089 107.163 74.1848 108.797C74.3608 110.43 89.1838 116.488 91.9989 118.53C94.8139 120.572 94.8956 127.283 93.9971 133.007H44.1995C43.3009 127.283 43.3826 120.572 46.1977 118.53C49.0127 116.482 63.8358 110.43 64.0117 108.797C64.1876 107.157 63.2137 95.4629 63.2137 95.4629H74.9829Z" fill="#E5805C"/>
<path d="M74.9821 95.4629H63.2129C63.2129 95.4629 63.7281 101.671 63.9418 105.674C67.4606 105.416 70.9669 104.8 74.3663 103.77C74.6113 99.9619 74.9821 95.4629 74.9821 95.4629Z" fill="#CC6144"/>
<path d="M69.1008 133.995H95.7621C95.7621 133.995 94.983 119.109 94.0027 118.367C93.0225 117.632 79.607 111.248 79.607 111.248C79.607 111.248 76.1887 114.233 69.1008 114.233C62.0129 114.233 58.5946 111.248 58.5946 111.248C58.5946 111.248 45.1791 117.632 44.1989 118.367C43.2186 119.103 42.4395 133.995 42.4395 133.995H69.1008Z" fill="#FFECE3"/>
<path d="M68.9001 119.593C73.1981 117.016 77.6846 114.685 82.2025 112.492C80.6568 111.751 79.6011 111.248 79.6011 111.248C79.6011 111.248 76.1828 114.233 69.0949 114.233C62.007 114.233 58.5887 111.248 58.5887 111.248C58.5887 111.248 45.1732 117.632 44.193 118.367C43.2128 119.103 42.4336 133.995 42.4336 133.995H52.9586C57.332 128.308 62.604 123.438 68.8939 119.599L68.9001 119.593Z" fill="#F9F7ED"/>
<path d="M84.6014 80.7031C84.6014 80.7031 87.9129 76.8261 91.017 79.3835C94.1336 81.9535 92.2234 91.1653 83.2441 90.7757L84.6014 80.6968V80.7031Z" fill="#E5805C"/>
<path d="M85.6764 88.3443C86.1728 89.2994 88.8245 88.9915 90.276 86.2895C91.7338 83.5876 91.1997 80.8856 90.4834 81.1998C89.767 81.514 84.4762 86.0633 85.6764 88.3443Z" fill="#D87350"/>
<path d="M90.7034 81.3122L90.6594 81.1865H90.5463L90.4898 81.1991C87.6998 82.2547 85.6702 84.8687 85.0733 88.1927C85.0544 88.287 85.0733 88.3813 85.1424 88.4567C85.2052 88.5321 85.2995 88.576 85.3938 88.576C85.532 88.576 85.6451 88.4881 85.6828 88.3435C85.6828 88.3184 85.6954 88.2933 85.7017 88.2681C86.0724 88.4692 86.4808 88.576 86.8955 88.576C87.8192 88.576 88.8497 88.0168 89.0571 86.7601C89.1953 85.9118 88.7869 85.2143 88.058 85.0698C87.6181 84.9818 87.1532 85.1829 86.7573 85.4657C87.6684 83.7439 88.9628 82.4118 90.6217 81.4944C90.6846 81.4567 90.7223 81.3813 90.7034 81.3122ZM88.3093 86.9737C88.0454 87.5958 87.4862 87.9665 86.8201 87.9665C86.4871 87.9665 86.1604 87.8786 85.8587 87.7089C86.0095 87.2062 86.1792 86.7287 86.374 86.27C86.7322 85.9935 87.1217 85.717 87.5867 85.585C87.9135 85.4908 88.146 85.5473 88.2905 85.7673C88.4979 86.0752 88.4602 86.6218 88.3156 86.98L88.3093 86.9737Z" fill="#CC6144"/>
<path d="M88.962 79.3834C88.2079 79.0692 86.7439 79.5719 86.8004 80.5333C86.813 80.7658 87.0203 80.948 87.2591 80.8789C87.9252 80.6967 88.3022 79.9678 88.962 79.7604C89.1631 79.6976 89.1379 79.4525 88.962 79.3771V79.3834Z" fill="#F48462"/>
<path d="M53.5923 80.7031C53.5923 80.7031 50.2808 76.8261 47.1767 79.3835C44.0601 81.9535 45.9703 91.1653 54.9495 90.7757L53.5923 80.6968V80.7031Z" fill="#E5805C"/>
<path d="M47.4781 81.4382C46.4853 81.3628 47.4341 87.1186 49.6837 88.5701C51.9332 90.0279 53.1648 89.8457 52.8443 87.9669C52.5239 86.0881 49.4763 81.5828 47.4781 81.4382Z" fill="#D87350"/>
<path d="M47.7052 81.1991L47.6486 81.1865C47.5732 81.1865 47.5104 81.2368 47.4915 81.3122L47.4727 81.4441L47.5669 81.4944C49.2258 82.4118 50.5265 83.7439 51.4313 85.4657C51.0417 85.1829 50.5705 84.9818 50.1306 85.0698C49.4017 85.2143 48.987 85.9118 49.1315 86.7601C49.3389 88.0168 50.3631 88.576 51.2931 88.576C51.7141 88.576 52.1225 88.4692 52.487 88.2681C52.4933 88.2933 52.4995 88.3184 52.5058 88.3435C52.5435 88.4818 52.6566 88.576 52.7949 88.576C52.8891 88.576 52.9834 88.5321 53.0462 88.4567C53.1091 88.3813 53.1279 88.2933 53.1153 88.1927C52.5184 84.8687 50.4888 82.2547 47.6989 81.1991H47.7052ZM51.3811 87.9665C50.7087 87.9665 50.1495 87.5958 49.8918 86.9737C49.741 86.6218 49.7096 86.0689 49.917 85.761C50.0175 85.6102 50.1558 85.5411 50.3505 85.5411C50.4322 85.5411 50.5265 85.5536 50.627 85.585C51.0857 85.717 51.4816 85.9935 51.8398 86.27C52.0346 86.7224 52.2105 87.2062 52.355 87.7089C52.0534 87.8786 51.7204 87.9665 51.3936 87.9665H51.3811Z" fill="#CC6144"/>
<path d="M69.1009 56.2344C67.8065 56.2344 55.3398 59.7218 54.1774 66.1813C53.0149 72.6409 51.2052 81.4882 53.8569 89.0474C56.5023 96.6065 67.2912 100.722 69.1009 100.722C70.9106 100.722 81.6996 96.6065 84.345 89.0474C86.9903 81.4882 85.1807 72.6409 84.0245 66.1813C82.862 59.7218 70.3953 56.2344 69.1009 56.2344Z" fill="#E5805C"/>
<path d="M57.2061 82.0474C57.0741 73.087 59.6692 64.8052 64.1557 57.667C60.0777 59.2567 54.9063 62.1346 54.1774 66.1876C53.0149 72.6471 51.2052 81.4944 53.8569 89.0536C56.2887 95.997 65.5884 100.031 68.4851 100.641C68.0704 100.396 67.662 100.15 67.2661 99.8802C61.3784 95.8713 57.3694 89.2484 57.2061 82.0474Z" fill="#CC6144"/>
<path d="M71.7657 76.6061C70.8672 78.8933 70.132 81.9849 71.0997 84.3664C71.2505 84.7434 71.8411 84.8314 71.9542 84.3664C72.2558 83.1348 72.0234 81.922 71.9354 80.6716C71.8411 79.3269 71.7971 77.9697 71.9102 76.625C71.9165 76.5433 71.7971 76.537 71.772 76.6061H71.7657Z" fill="#F48462"/>
<path d="M85.6449 80.9983C85.2805 83.2479 84.7213 85.4031 83.9421 87.5459C83.0624 89.9713 81.5732 91.9067 80.3102 94.1122C80.2033 94.3007 80.4358 94.5772 80.6243 94.4264C84.583 91.4103 85.4627 85.6168 85.6889 80.9983C85.6889 80.9732 85.6512 80.9732 85.6512 80.9983H85.6449Z" fill="#F48462"/>
<path d="M63.6785 81.5574C62.3841 82.5753 60.6058 82.9712 58.9972 82.6067C57.3258 82.2297 56.5655 80.5457 55.8366 79.2073C55.7989 79.1382 55.6795 79.1696 55.6858 79.245C55.8303 81.3186 56.7289 82.8141 58.7585 83.4676C60.4676 84.0143 62.7737 83.0529 63.7099 81.5825C63.7225 81.5637 63.6974 81.5448 63.6785 81.5574Z" fill="#CC6144"/>
<path d="M74.5172 81.5574C75.8116 82.5753 77.5899 82.9712 79.1985 82.6067C80.8699 82.2297 81.6303 80.5457 82.3592 79.2073C82.3969 79.1382 82.5162 79.1696 82.51 79.245C82.3654 81.3186 81.4669 82.8141 79.4373 83.4676C77.7281 84.0143 75.4221 83.0529 74.4858 81.5825C74.4732 81.5637 74.4984 81.5448 74.5172 81.5574Z" fill="#CC6144"/>
<g style="mix-blend-mode:multiply" opacity="0.4">
<path d="M84.9548 83.1221C85.4386 84.9067 83.6226 86.9551 80.8893 87.6966C78.1559 88.4381 75.5482 87.596 75.0644 85.8115C74.5805 84.027 76.3965 81.9785 79.1299 81.237C81.8632 80.4956 84.4709 81.3376 84.9548 83.1221Z" fill="#E24D4D"/>
</g>
<g style="mix-blend-mode:multiply" opacity="0.4">
<path d="M53.248 83.1221C52.7641 84.9067 54.5801 86.9551 57.3134 87.6966C60.0468 88.4381 62.6545 87.596 63.1384 85.8115C63.6222 84.027 61.8062 81.9785 59.0729 81.237C56.3395 80.4956 53.7318 81.3376 53.248 83.1221Z" fill="#E24D4D"/>
</g>
<path d="M69.7802 89.098C69.6859 88.878 69.3592 88.7649 69.1581 88.6644C68.8376 88.5136 68.5235 88.4633 68.1842 88.6016C67.8825 88.7272 68.0333 89.1294 68.2973 89.1734C68.5486 89.2173 68.7937 89.1734 69.0513 89.1796C69.2649 89.1796 69.51 89.299 69.7111 89.2425C69.7739 89.2236 69.8116 89.1608 69.7802 89.098Z" fill="#CC6144"/>
<path d="M71.502 89.0537C71.6591 89.0788 71.8539 88.9092 71.9922 88.8463C72.1869 88.7583 72.4006 88.7646 72.5011 88.5447C72.5325 88.463 72.4948 88.3562 72.4257 88.3122C72.2058 88.174 72.0047 88.3373 71.8225 88.4756C71.6843 88.5761 71.4203 88.7646 71.4141 88.9469C71.4141 89.0034 71.4518 89.0411 71.502 89.0537Z" fill="#CC6144"/>
<path d="M76.9558 90.5869C72.8526 92.981 68.2907 93.8795 63.6282 92.6731C63.5277 92.6479 63.4837 92.7987 63.5843 92.8302C68.0456 93.9863 73.2045 93.402 76.9872 90.6435C77.0186 90.6183 76.9872 90.5743 76.9558 90.5932V90.5869Z" fill="#A8332D"/>
<path d="M63.6218 92.4722C63.559 92.5413 63.4961 92.6105 63.4396 92.6859C63.3642 92.7801 63.3579 92.8681 63.3956 92.9812C63.4207 93.0629 63.5401 93.1069 63.5967 93.0315C63.6595 92.9561 63.6972 92.9058 63.7223 92.8053C63.7412 92.7236 63.7663 92.6482 63.7977 92.5728C63.8355 92.4722 63.6972 92.4031 63.6281 92.4722H63.6218Z" fill="#A8332D"/>
<path d="M76.7168 90.5238C76.7168 90.662 76.8299 90.7751 76.9619 90.8065C77.1315 90.8442 77.2195 90.6306 77.0812 90.5301C77.0121 90.4861 76.9556 90.4358 76.8802 90.4044C76.7985 90.373 76.7231 90.4547 76.7231 90.5238H76.7168Z" fill="#A8332D"/>
<path d="M65.1368 93.0628C66.7705 93.9488 68.7247 93.5026 70.4778 93.2701C72.4069 93.0188 74.0092 92.315 75.7184 91.4416C75.7686 91.4165 75.7309 91.3285 75.6806 91.3474C72.3252 92.5287 68.5865 92.1328 65.143 93.0188C65.1242 93.0188 65.1242 93.0502 65.143 93.0565L65.1368 93.0628Z" fill="#A8332D"/>
<path d="M64.3569 79.2454C64.3569 79.2454 63.5652 75.8271 59.7699 74.6395C55.9683 73.4457 53.1847 76.7257 55.6541 78.416C58.1299 80.1063 64.3569 79.2454 64.3569 79.2454Z" fill="#3F1D2B"/>
<path d="M55.6725 78.0636C55.572 78.648 55.9238 82.2862 59.273 82.9334C62.6285 83.5806 64.2182 81.3436 64.3879 79.8293C64.5638 78.3149 62.5028 75.9523 60.6114 75.5313C58.7263 75.1103 55.993 76.2037 55.6662 78.0636H55.6725Z" fill="#F9F7ED"/>
<path d="M60.6121 75.5312C58.7773 75.1228 56.1571 76.1407 55.7109 77.9064C56.6912 77.5797 57.7028 77.41 58.7522 77.3409C60.5682 77.2404 62.3527 77.4414 63.8671 78.5096C63.9927 78.5976 64.1058 78.6982 64.2252 78.7987C63.71 77.4163 62.1076 75.8643 60.6121 75.5312Z" fill="#E8E5DD"/>
<path d="M63.1264 79.2448C63.1264 80.7655 61.8948 82.0033 60.3679 82.0033C58.841 82.0033 57.6094 80.7655 57.6094 79.2448C57.6094 77.7242 58.8472 76.4863 60.3679 76.4863C61.8885 76.4863 63.1264 77.7179 63.1264 79.2448Z" fill="#725F28"/>
<path d="M60.8136 77.5168C61.442 77.586 62.1332 77.6551 62.7553 77.8687C62.2777 77.0456 61.3917 76.4863 60.3675 76.4863C59.4815 76.4863 58.696 76.9073 58.1934 77.5545C59.0542 77.4037 59.9653 77.4163 60.8136 77.5168Z" fill="#3D3F26"/>
<path d="M62.9253 78.5349C62.9253 78.8931 62.6362 79.1821 62.2781 79.1821C61.9199 79.1821 61.6309 78.8931 61.6309 78.5349C61.6309 78.1767 61.9199 77.8877 62.2781 77.8877C62.6362 77.8877 62.9253 78.1767 62.9253 78.5349Z" fill="#A59568"/>
<path d="M73.8398 79.2454C73.8398 79.2454 74.6253 75.8271 78.4269 74.6395C82.2285 73.4457 85.0121 76.7257 82.5426 78.416C80.0669 80.1063 73.8398 79.2454 73.8398 79.2454Z" fill="#3F1D2B"/>
<path d="M82.5286 78.0636C82.6292 78.648 82.2836 82.2862 78.9281 82.9334C75.5727 83.5806 73.9829 81.3436 73.8133 79.8293C73.6373 78.3149 75.6983 75.9523 77.5897 75.5313C79.4748 75.1103 82.2082 76.2037 82.5349 78.0636H82.5286Z" fill="#F9F7ED"/>
<path d="M77.5838 75.5312C79.4186 75.1228 82.0388 76.1407 82.485 77.9064C81.5047 77.5797 80.4931 77.41 79.4437 77.3409C77.6278 77.2404 75.8432 77.4414 74.3289 78.5096C74.2032 78.5976 74.0901 78.6982 73.9707 78.7987C74.486 77.4163 76.0883 75.8643 77.5838 75.5312Z" fill="#E8E5DD"/>
<path d="M75.0781 79.2448C75.0781 80.7655 76.3097 82.0033 77.8366 82.0033C79.3635 82.0033 80.5951 80.7655 80.5951 79.2448C80.5951 77.7242 79.3635 76.4863 77.8366 76.4863C76.3097 76.4863 75.0781 77.7179 75.0781 79.2448Z" fill="#725F28"/>
<path d="M77.383 77.5168C76.7547 77.586 76.0635 77.6551 75.4414 77.8687C75.919 77.0456 76.805 76.4863 77.8292 76.4863C78.7152 76.4863 79.5006 76.9073 80.0033 77.5545C79.1425 77.4037 78.2313 77.4163 77.383 77.5168Z" fill="#3D3F26"/>
<path d="M79.0488 78.5349C79.0488 78.8931 79.3379 79.1821 79.696 79.1821C80.0542 79.1821 80.3433 78.8931 80.3433 78.5349C80.3433 78.1767 80.0542 77.8877 79.696 77.8877C79.3379 77.8877 79.0488 78.1767 79.0488 78.5349Z" fill="#A59568"/>
<path d="M83.9361 70.6555C81.6803 67.7713 75.8617 68.7579 73.5431 71.0514C73.2477 71.3467 73.5619 71.7426 73.9138 71.6923C75.4344 71.4724 76.7791 70.599 78.2872 70.2785C79.9272 69.9329 82.3778 69.7444 83.7413 70.844C83.8733 70.9508 84.0304 70.7937 83.9299 70.6618L83.9361 70.6555Z" fill="#3F1D2B"/>
<path d="M54.4416 70.844C55.7548 69.7884 57.8536 69.9769 59.437 70.1968C61.1462 70.4356 62.5914 71.4472 64.2754 71.6923C64.6273 71.7426 64.9415 71.3467 64.6461 71.0514C62.3338 68.7579 56.5089 67.7713 54.2593 70.6555C54.1588 70.7875 54.3096 70.9446 54.4416 70.8377V70.844Z" fill="#3F1D2B"/>
<path d="M70.8794 94.7909C70.6532 94.7281 70.3767 94.7532 70.1944 94.904C70.1065 94.9731 70.0311 95.0611 69.9682 95.1491C69.8991 95.2559 69.8866 95.369 69.874 95.4947C69.8551 95.7083 70.1253 95.8403 70.295 95.7397C70.3641 95.702 70.4332 95.6706 70.4898 95.6141C70.54 95.5701 70.5777 95.5135 70.6343 95.4695C70.6971 95.4193 70.76 95.2999 70.8731 95.2622C71.0867 95.1868 71.1181 94.8663 70.8731 94.7972L70.8794 94.7909Z" fill="#CC6144"/>
<path d="M32 21.2817L34.7366 18.9102C36.5829 17.3099 39.5503 17.9567 40.3663 20.2701C40.3828 20.3198 40.3993 20.3613 40.4158 20.411C40.6713 21.2153 40.6383 22.1108 40.2427 22.8488C38.8167 25.5271 34.8355 23.2302 35.1734 20.6349C35.4784 18.2552 38.215 16.8041 40.5724 17.1192C43.1276 17.4674 45.5674 19.756 44.8668 22.5337C44.5041 23.9765 43.21 25.071 41.7263 24.9964C39.4184 24.8803 38.4622 22.343 38.8332 20.2949C39.2948 17.7742 41.4214 15.6515 43.9354 15.2121C47.0264 14.6648 50.4306 16.7129 51.0983 19.9218C51.2796 20.809 51.1889 21.746 50.7933 22.5669C49.1035 26.0826 44.2733 23.7443 44.3063 20.6183C44.331 17.9318 47.2324 15.8671 49.8701 16.2154C52.4748 16.5553 54.8239 19.0429 54.148 21.8289C53.942 22.683 53.4309 23.4541 52.7468 24.0014C50.3234 25.95 47.4632 24.1175 46.9027 21.7294C46.5153 20.0794 47.1335 18.28 48.2957 17.0528C49.6311 15.6349 51.7742 14.9384 53.6123 15.5769C55.9449 16.3812 57.4121 19.5404 55.4504 21.6465C54.6508 22.5089 53.4062 22.8903 52.2852 22.542C49.4168 21.6382 49.969 17.3762 52.3676 16.0993C54.5849 14.9218 57.3874 15.7676 59.3739 17.3099C60.7999 18.421 62.028 20.0047 61.8137 21.9118C61.723 22.7162 61.3274 23.479 60.668 23.9433C59.0524 25.0959 57.2473 23.9765 56.456 22.5089C54.8239 19.4741 57.3132 15.1209 60.7422 15.0131C64.1711 14.9053 66.9159 19.1092 65.4652 22.2352C64.9707 23.2966 63.9651 24.2336 62.8028 24.2087C61.6818 24.1755 60.7587 23.2717 60.2723 22.2601C58.9288 19.4326 60.7422 15.5852 63.7672 14.8472C67.361 13.9683 71.4411 17.7742 69.9327 21.6216C69.4464 22.8571 68.3831 23.8355 67.0643 23.9102C64.9707 24.0263 63.7343 21.8787 63.8084 19.955C63.9403 16.4724 67.9957 13.761 71.2433 14.9965C74.4909 16.232 75.7521 20.9583 73.5513 23.6614C71.3422 22.2352 70.5262 19.0014 71.7873 16.6963C73.0485 14.3829 76.1972 13.3381 78.5793 14.4409C80.9614 15.5437 82.2143 18.6283 81.2829 21.0992C80.607 22.8986 78.6782 24.3911 76.634 23.2966C75.818 22.8654 75.2328 22.0528 75.0349 21.149C74.4662 18.5537 76.5351 16.4144 78.8513 15.8257C81.5961 15.1291 84.9509 16.5553 85.4619 19.5736C85.6845 20.8754 85.2229 22.2435 84.275 23.1473C81.8187 25.4856 78.4062 23.1888 78.2001 20.4608C78.0353 18.3381 79.5849 16.29 81.5796 15.5769C83.5744 14.8638 85.8741 15.3613 87.6297 16.5553C88.726 17.3099 89.6822 18.3961 89.9212 19.7062C90.2509 21.4558 88.998 23.5868 86.8302 23.0312C86.2944 22.8986 85.8163 22.5835 85.4619 22.1523C84.209 20.6017 84.7448 18.4707 85.9895 17.1606C87.5968 15.4608 90.6136 15.0296 92.1879 17.028C92.8803 17.9069 93.0369 19.1424 92.6083 20.1789C91.4791 22.8903 87.8523 21.8123 87.3165 19.557C86.8797 17.7328 88.3798 15.7593 90.2344 15.5189C92.8226 15.1872 95.4273 17.9732 94.4217 20.7178C94.092 21.605 93.3666 22.343 92.4352 22.4591C90.5229 22.7079 89.4514 20.4193 90.0613 18.7775C90.6136 17.3099 92.0808 16.3812 93.5727 15.9003C96.0785 15.1043 99.2519 15.5106 100.488 18.0313C101.296 19.6896 100.686 21.746 98.9634 22.4011C96.573 23.3132 94.7349 20.4608 95.4603 18.3629C96.095 16.5388 98.0814 15.4608 100.002 15.3696C101.519 15.295 103.151 15.7842 103.967 17.1523C104.362 17.824 104.453 18.6697 104.181 19.4077C103.34 21.6797 100.134 20.751 99.73 18.7858C99.3755 17.086 100.843 15.353 102.549 15.096C104.255 14.8389 105.986 15.8174 107 17.227" stroke="#72130D" stroke-width="2" stroke-miterlimit="10"/>
</svg>
