<svg width="160" height="160" viewBox="0 0 160 160" fill="none" xmlns="http://www.w3.org/2000/svg">
<path d="M0 10C0 4.47715 4.47715 0 10 0H150C155.523 0 160 4.47715 160 10V160H0V10Z" fill="#DAE1FE"/>
<path d="M52.915 157.327C52.915 157.327 55.2645 129.619 55.6411 126.096C56.0178 122.572 57.4384 115.953 55.6096 108.897C53.7807 101.842 47.1416 88.5247 47.0014 85.2576C46.8611 81.9905 57.6772 69.1597 59.1092 67.8428C60.5412 66.5258 68.1585 60.7032 69.3427 60.8738C70.527 61.0444 71.5103 62.264 71.5103 62.264C71.5103 62.264 72.9852 61.7977 73.8964 62.029C74.8077 62.2603 76.457 63.9071 76.457 63.9071C76.457 63.9071 77.1724 80.9554 77.2925 81.5026C77.4125 82.0499 79.8556 95.8539 80.1804 98.6495C80.5052 101.446 79.1782 107.184 78.0659 112.589C76.9537 117.993 80.8932 138.638 82.1495 144.386C83.4058 150.133 84.1275 156.714 83.8494 158.065C83.5714 159.416 52.6331 160.588 52.915 157.325V157.327Z" fill="#E5805C"/>
<path d="M71.354 44.0602C71.6927 41.5729 71.6384 39.4117 71.5486 38.1377C69.2168 38.8556 66.885 39.5722 64.5544 40.2901C64.0198 42.6864 63.2514 46.8344 62.8886 52.178C62.5373 57.3586 61.9382 69.0405 61.832 75.3257C62.7698 77.7839 63.7746 80.2182 64.8426 82.6296C65.8726 83.3702 66.8799 83.8821 67.3185 83.8113C68.3195 83.6496 70.8105 48.0426 71.354 44.0602Z" fill="#296D58"/>
<path d="M81.2559 38.5445C79.647 40.7487 74.1719 48.2953 72.855 50.7067C71.576 53.0499 65.9062 65.3815 63.7615 70.3662C63.6781 73.3299 63.6806 76.2988 63.7728 79.2714C63.7678 79.2714 63.764 79.2714 63.7589 79.2701C63.7867 80.0853 63.8247 80.9005 63.8676 81.7157C66.1767 82.4007 69.5854 82.8077 69.5854 82.8077C69.5854 82.8077 83.2478 47.5862 84.4813 44.8184C85.7148 42.0505 83.2996 39.0084 83.2996 39.0084L83.3539 38.7505C82.655 38.681 81.9548 38.6115 81.2559 38.542V38.5445Z" fill="#296D58"/>
<path d="M63.2832 78.9536C66.3531 80.5347 69.4231 82.1171 72.4917 83.6982C77.1769 77.8641 90.3186 61.4806 92.1461 58.9782C94.3769 55.9234 95.6243 50.8818 95.6243 50.8818C95.6243 50.8818 87.4307 54.5433 75.6198 65.4947C71.7941 69.0423 65.3383 76.4663 63.2832 78.9536Z" fill="#296D58"/>
<path d="M76.748 70.662C76.748 70.662 80.2869 73.8052 81.0073 73.5765C81.7277 73.3477 83.3075 70.6544 83.2645 69.9643C83.2216 69.2743 80.7355 67.1661 79.7396 67.3658C78.7437 67.5655 76.748 70.662 76.748 70.662Z" fill="#FFCAB3"/>
<path d="M72.736 108.59C72.6854 108.601 72.6298 108.593 72.5818 108.566C72.4794 108.506 72.444 108.373 72.5034 108.271C72.5376 108.213 75.8514 102.461 75.3876 98.9577C75.2233 97.714 74.949 96.3996 74.6836 95.1282C74.1768 92.6965 73.6523 90.1826 73.8469 87.9785C74.1427 84.633 76.951 80.9084 77.0698 80.7517C77.1418 80.6569 77.2771 80.6392 77.3719 80.7112C77.4667 80.7833 77.4844 80.9185 77.4123 81.0133C77.3832 81.0512 74.5598 84.7973 74.2754 88.0164C74.0858 90.1574 74.604 92.6396 75.1058 95.0397C75.3724 96.3187 75.648 97.6407 75.8148 98.8995C76.2988 102.55 73.0153 108.246 72.8763 108.486C72.8447 108.54 72.7929 108.576 72.736 108.588V108.59Z" fill="#E06655"/>
<path d="M77.7164 112.402C77.7012 112.406 77.6861 112.407 77.6696 112.407C77.6216 112.407 77.1742 112.394 76.0848 111.968C75.032 111.556 71.6625 110.845 71.6284 110.838C71.5121 110.814 71.4375 110.699 71.4615 110.582C71.4855 110.466 71.6006 110.392 71.7168 110.416C71.8571 110.445 75.1558 111.141 76.2415 111.566C77.2538 111.961 77.6684 111.975 77.6722 111.975C77.7897 111.978 77.8845 112.075 77.8832 112.194C77.882 112.296 77.8099 112.381 77.7151 112.401L77.7164 112.402Z" fill="#E06655"/>
<path d="M64.1275 81.5554C61.8462 82.0546 59.1617 81.8903 57.2735 81.113C55.4573 80.3661 51.6721 79.8745 51.6329 79.8694C51.5153 79.8542 51.4319 79.7468 51.4471 79.628C51.4623 79.5105 51.5697 79.427 51.6885 79.4422C51.8465 79.4624 55.5686 79.9452 57.4378 80.7149C59.4019 81.5225 62.2709 81.6375 64.5749 81.0018C64.6899 80.9664 64.8087 81.0372 64.8403 81.1522C64.8719 81.2672 64.8049 81.386 64.6899 81.4176C64.5066 81.4682 64.3196 81.515 64.13 81.5554H64.1275Z" fill="#E06655"/>
<path d="M63.0706 81.7384C63.0074 81.7523 62.9379 81.7384 62.8835 81.6917C62.8645 81.6752 60.9359 80.0221 59.5355 79.1083C58.1491 78.2034 54.9692 77.253 54.9376 77.2441C54.8238 77.21 54.7581 77.0899 54.7922 76.9762C54.8264 76.8624 54.9464 76.798 55.0602 76.8308C55.1929 76.87 58.3323 77.8091 59.7706 78.7481C61.195 79.6771 63.1451 81.3492 63.1641 81.3656C63.2538 81.4427 63.2652 81.5792 63.1868 81.6689C63.1552 81.7056 63.1135 81.7296 63.0693 81.7384H63.0706Z" fill="#E06655"/>
<path d="M84.7384 25C86.9894 40.0565 91.4685 54.5833 98.1063 68.2849C90.1743 70.7255 82.2435 73.1673 74.3115 75.6078C67.704 61.891 63.2552 47.354 61.0371 32.2925C68.9375 29.8621 76.838 27.4317 84.7384 25Z" fill="#FFE7D2"/>
<path d="M96.7787 65.5032C97.2097 66.436 97.6533 67.3636 98.1058 68.285C90.1738 70.7255 82.243 73.1673 74.311 75.6078C73.8598 74.6852 73.4187 73.7563 72.9902 72.8223C80.9197 70.3817 88.8492 67.9425 96.7787 65.502V65.5032Z" fill="#569E5A"/>
<path d="M61.3872 34.5447C61.4276 34.7937 61.4681 35.0427 61.5098 35.2904C61.5654 35.6215 61.6223 35.9527 61.6804 36.2825C61.7032 36.4127 61.7259 36.5442 61.7487 36.6743C63.0707 44.1274 64.9437 51.4439 67.3602 58.586C71.1202 59.2685 75.3327 58.4445 78.9208 57.6583C82.9576 56.7736 87.864 54.366 91.1702 51.4313C88.2368 42.8534 86.087 34.0215 84.7384 25C76.838 27.4317 68.9375 29.8621 61.0371 32.2925C61.1117 32.8019 61.19 33.3087 61.2697 33.8167C61.3076 34.0594 61.348 34.3021 61.3872 34.5447Z" fill="#569E5A"/>
<path d="M86.0152 32.3078C85.7827 31.1463 85.564 29.9823 85.3593 28.8145C77.5145 31.2284 69.494 33.7031 61.6504 36.1171C61.6605 36.1727 61.6693 36.2283 61.6795 36.2826C61.7022 36.4128 61.725 36.5443 61.7477 36.6744C61.9234 37.6628 62.1092 38.6499 62.3038 39.6332C70.1587 37.2166 78.1603 34.7243 86.0165 32.3078H86.0152Z" fill="#296D58"/>
<path d="M75.1874 65.0003C75.8837 66.6951 76.6042 68.3786 77.3498 70.052C76.2932 70.3768 75.2354 70.7029 74.1788 71.0277C73.4331 69.353 72.714 67.6708 72.0176 65.9747C73.0742 65.6499 74.1308 65.3251 75.1874 64.999V65.0003Z" fill="#46B2B7"/>
<path d="M91.2283 61.1324C91.5999 61.0679 92.1092 61.0502 92.3152 61.5381C92.5162 62.0133 92.132 62.3583 91.0577 62.7527C90.8251 62.2105 90.7114 61.9387 90.4851 61.394C90.2703 61.4597 90.1628 61.4926 89.948 61.5596C90.1768 62.1106 90.293 62.3849 90.5281 62.9334C90.4422 62.9612 90.355 62.989 90.264 63.0168C90.1907 63.0396 90.1199 63.061 90.0504 63.0813C89.8153 62.5327 89.699 62.2572 89.4702 61.7062C89.2529 61.7732 89.1442 61.806 88.9268 61.873C89.153 62.4165 89.2668 62.6869 89.4981 63.2279C88.3606 63.4971 87.9157 63.3517 87.735 62.9233C87.5239 62.4215 87.9435 62.1928 88.1963 62.1081C88.0509 61.7593 87.9789 61.5849 87.8361 61.2348C87.1978 61.4597 86.437 62.0474 86.9248 63.1697C87.4304 64.335 88.7852 64.3729 89.8899 64.1341C89.9745 64.3274 90.0162 64.4235 90.1009 64.6156C90.3183 64.5486 90.427 64.5158 90.6444 64.4488C90.5648 64.268 90.5243 64.177 90.446 63.995C90.5231 63.9736 90.6001 63.9508 90.6798 63.9268C90.7632 63.9015 90.8453 63.875 90.925 63.8484C91.0046 64.0292 91.0438 64.1202 91.1234 64.3009C91.3382 64.2352 91.4457 64.2023 91.6605 64.1353C91.5771 63.9458 91.5354 63.851 91.4533 63.6614C92.4467 63.2949 93.6764 62.5593 93.1506 61.327C92.6881 60.2426 91.6934 60.0935 90.8731 60.2654C91.0147 60.6117 91.0855 60.7848 91.2296 61.1299L91.2283 61.1324Z" fill="#569E5A"/>
<path d="M79.7481 45.6184C80.5254 45.4844 81.5706 45.4667 81.8853 46.5461C82.3327 48.0791 80.0274 48.7945 79.0264 49.1989C78.7256 48.1967 78.4375 47.1894 78.1607 46.1808C77.7044 46.3211 77.4756 46.3919 77.0194 46.5322C77.305 47.5521 77.597 48.5695 77.8965 49.5869C77.7145 49.6451 77.5287 49.7045 77.3328 49.7651C77.1761 49.8132 77.0257 49.8574 76.8791 49.9016C76.5796 48.8855 76.2876 47.8681 76.002 46.8469C75.5394 46.9884 75.3094 47.0605 74.8468 47.202C75.1223 48.2093 75.4105 49.2128 75.71 50.2125C74.7229 50.4881 72.5289 50.9178 72.151 49.4934C71.859 48.3926 72.7513 47.8832 73.291 47.7012C73.0774 46.9252 72.9738 46.536 72.7703 45.7561C70.9326 46.3957 69.8482 48.0753 70.4283 50.0154C71.2119 52.6328 74.0582 52.6973 76.3255 52.2208C76.4595 52.648 76.5277 52.8616 76.6655 53.2888C77.1281 53.146 77.3594 53.0752 77.8219 52.9337C77.693 52.533 77.6286 52.3321 77.5022 51.9289C77.6652 51.8834 77.8295 51.8354 77.9989 51.7835C78.1771 51.7292 78.3502 51.6736 78.5209 51.618C78.6473 52.0199 78.7117 52.2208 78.8406 52.6215C79.2969 52.4812 79.5256 52.4104 79.9832 52.2701C79.8479 51.8505 79.7809 51.6407 79.6482 51.2211C81.8701 50.3667 84.4042 48.8703 83.6496 46.11C83.091 44.0664 81.1927 43.2739 79.235 43.6973C79.4359 44.4683 79.5383 44.8537 79.7506 45.6222L79.7481 45.6184Z" fill="#FFE7D2"/>
<path d="M100.553 28.343C96.8027 43.0987 95.3126 58.2272 96.1316 73.429C87.8734 72.6113 79.6153 71.7935 71.3572 70.9758C70.5711 55.7715 72.0941 40.6455 75.8756 25.8975C84.1008 26.7127 92.3273 27.5279 100.553 28.343Z" fill="#FFE7D2"/>
<path d="M95.9855 70.3506C96.0222 71.3769 96.0714 72.4044 96.1334 73.4294C87.8753 72.6117 79.6171 71.794 71.359 70.9762C71.2996 69.9512 71.2529 68.9237 71.2188 67.8975C79.4743 68.7152 87.7312 69.5329 95.9868 70.3519L95.9855 70.3506Z" fill="#569E5A"/>
<path d="M75.3286 28.1095C75.2692 28.3547 75.2111 28.5999 75.1529 28.8451C75.0758 29.1724 75 29.4985 74.9254 29.8258C74.8964 29.9548 74.866 30.0837 74.837 30.2139C73.1712 37.5986 72.0691 45.0694 71.5332 52.5894C74.7358 54.6735 78.9395 55.543 82.5529 56.2066C86.6175 56.9522 92.0736 56.6312 96.257 55.203C96.87 46.1588 98.3057 37.1828 100.552 28.3421C92.3263 27.5269 84.0998 26.7117 75.8746 25.8965C75.7469 26.3944 75.6218 26.8937 75.4992 27.3916C75.4411 27.6305 75.3842 27.8694 75.3261 28.1083L75.3286 28.1095Z" fill="#569E5A"/>
<path d="M98.9036 35.576C99.1387 34.4158 99.3876 33.2568 99.6505 32.1004C91.4821 31.2903 83.1292 30.47 74.9634 29.6611C74.9508 29.7155 74.9381 29.7711 74.9255 29.8254C74.8964 29.9543 74.8661 30.0833 74.837 30.2134C74.6158 31.1929 74.406 32.1737 74.2051 33.157C82.3836 33.9671 90.7251 34.7659 98.9048 35.576H98.9036Z" fill="#296D58"/>
<path d="M76.2696 61.5324C76.2557 63.365 76.2696 65.1951 76.3088 67.0277C75.2079 66.919 74.1071 66.8091 73.0063 66.7004C72.9671 64.8678 72.9545 63.0377 72.9684 61.2051C74.0679 61.3138 75.1687 61.4237 76.2683 61.5324H76.2696Z" fill="#46B2B7"/>
<path d="M92.5582 64.1723C92.9259 64.2557 93.4024 64.4377 93.4037 64.9673C93.4037 65.483 92.9171 65.6523 91.7746 65.6005C91.7708 65.0103 91.7695 64.7158 91.772 64.1268C91.5483 64.1041 91.4371 64.094 91.2134 64.0712C91.2109 64.6678 91.2121 64.966 91.2159 65.5626C91.1262 65.555 91.0352 65.5461 90.9392 65.5373C90.8621 65.5297 90.7887 65.5221 90.7167 65.5133C90.7129 64.9167 90.7117 64.6185 90.7142 64.0219C90.4879 63.9992 90.3742 63.9878 90.148 63.9663C90.1454 64.554 90.1467 64.8485 90.1505 65.4362C88.9966 65.2441 88.6427 64.9382 88.6427 64.4731C88.6427 63.9284 89.1166 63.8804 89.3833 63.8993C89.3833 63.5214 89.3859 63.3331 89.3896 62.9552C88.7135 62.9148 87.7858 63.1625 87.801 64.3872C87.8161 65.6574 89.0509 66.2173 90.1619 66.4233C90.1644 66.6343 90.1669 66.7392 90.1695 66.949C90.3957 66.9718 90.5094 66.9832 90.7357 67.0046C90.7319 66.8062 90.7306 66.7076 90.7281 66.5092C90.8077 66.5193 90.8873 66.5282 90.9707 66.5358C91.058 66.5446 91.1426 66.5522 91.2273 66.5585C91.2298 66.7557 91.2311 66.8555 91.2349 67.0527C91.4586 67.0754 91.5698 67.0855 91.7935 67.1083C91.7897 66.901 91.7885 66.7974 91.7859 66.5914C92.8438 66.6369 94.2619 66.4346 94.2543 65.0962C94.2467 63.917 93.3885 63.395 92.5657 63.2358C92.562 63.6099 92.5607 63.797 92.5594 64.1711L92.5582 64.1723Z" fill="#569E5A"/>
<path d="M87.9742 45.4256C88.7426 45.6025 89.7133 45.9918 89.5869 47.1078C89.4061 48.6952 87.0035 48.4626 85.9242 48.4475C86.0354 47.4073 86.158 46.3672 86.2932 45.3295C85.818 45.2828 85.5804 45.2587 85.1052 45.212C84.9738 46.2635 84.8486 47.3138 84.7324 48.3679C84.5415 48.3514 84.3481 48.3337 84.1447 48.3135C83.9816 48.2971 83.8262 48.2806 83.6732 48.263C83.7908 47.2102 83.9146 46.1586 84.0473 45.1071C83.5658 45.0591 83.3257 45.035 82.8441 44.9883C82.7089 46.0234 82.5863 47.061 82.4751 48.0987C81.4589 47.971 79.2687 47.5185 79.4721 46.0588C79.6289 44.9301 80.6488 44.8063 81.2163 44.848C81.3199 44.0492 81.3743 43.6511 81.4893 42.8536C79.548 42.7323 77.8974 43.8609 77.6825 45.8755C77.3918 48.5916 79.9928 49.7531 82.2665 50.1904C82.2248 50.6365 82.2046 50.8602 82.1667 51.3063C82.6482 51.3544 82.8884 51.3784 83.3699 51.4252C83.4053 51.0055 83.4243 50.7945 83.4634 50.3749C83.6315 50.3951 83.8021 50.4153 83.9778 50.433C84.1636 50.452 84.3443 50.4671 84.5238 50.4823C84.4846 50.9019 84.4669 51.1117 84.4303 51.5313C84.9055 51.5781 85.1444 51.6021 85.6196 51.6489C85.6575 51.2103 85.6765 50.9904 85.7169 50.5518C88.0968 50.6239 91.0125 50.2245 91.3841 47.3871C91.6596 45.2865 90.2163 43.8205 88.2472 43.4539C88.1334 44.2426 88.0803 44.6382 87.978 45.4281L87.9742 45.4256Z" fill="#FFE7D2"/>
<path d="M112.177 37.9661C103.258 50.304 96.3031 63.821 91.4663 78.2569C84.0891 74.4565 76.7119 70.6548 69.3359 66.8543C74.2031 52.4285 81.1885 38.9254 90.1341 26.6064C97.4823 30.393 104.829 34.1795 112.177 37.9661Z" fill="#FFE7D2"/>
<path d="M92.4634 75.3405C92.1197 76.3086 91.7873 77.2818 91.4663 78.2575C84.0891 74.4571 76.7119 70.6554 69.3359 66.8549C69.6582 65.8792 69.9931 64.9073 70.3382 63.9404C77.7128 67.7409 85.0875 71.5413 92.4622 75.3405H92.4634Z" fill="#569E5A"/>
<path d="M88.8089 28.4621C88.6636 28.6681 88.5182 28.8741 88.3742 29.0814C88.1821 29.3569 87.9912 29.6337 87.8016 29.9105C87.7271 30.0192 87.6512 30.1291 87.5767 30.2378C83.3098 36.4902 79.5334 43.0307 76.2676 49.8252C78.4781 52.9419 82.0662 55.2991 85.1816 57.2454C88.6863 59.4357 93.877 61.1444 98.293 61.358C102.193 53.1745 106.832 45.3575 112.177 37.9651C104.828 34.1786 97.4816 30.392 90.1335 26.6055C89.8314 27.0213 89.5319 27.4396 89.2336 27.858C89.0908 28.0577 88.9505 28.2599 88.8089 28.4608V28.4621Z" fill="#569E5A"/>
<path d="M107.98 44.0851C108.626 43.0929 109.283 42.1071 109.953 41.1289C102.657 37.3689 95.1925 33.5305 87.8974 29.7705C87.8658 29.8173 87.833 29.8628 87.8014 29.9095C87.7268 30.0182 87.651 30.1282 87.5764 30.2369C87.0102 31.066 86.4541 31.9014 85.9043 32.7406C93.2094 36.5057 100.673 40.3187 107.978 44.0838L107.98 44.0851Z" fill="#296D58"/>
<path d="M77.38 59.8824C76.6925 61.5811 76.0302 63.2873 75.3932 65.0062C74.4099 64.4994 73.4266 63.9925 72.4434 63.4857C73.0816 61.7681 73.7439 60.0619 74.4314 58.3633C75.4147 58.8701 76.3967 59.3756 77.38 59.8824Z" fill="#46B2B7"/>
<path d="M91.5516 68.3343C91.8625 68.5479 92.2391 68.8916 92.0445 69.3845C91.8549 69.8648 91.3405 69.8433 90.2966 69.3744C90.5101 68.8246 90.6176 68.5504 90.8362 68.0031C90.6365 67.9008 90.5367 67.8489 90.337 67.7453C90.1158 68.2989 90.0059 68.5769 89.791 69.133C89.7101 69.0926 89.6292 69.0521 89.5433 69.0079C89.475 68.9725 89.4093 68.9384 89.3461 68.9043C89.5622 68.3482 89.6709 68.0701 89.8934 67.5165C89.6912 67.4129 89.5901 67.3598 89.3878 67.2562C89.1692 67.8022 89.0618 68.0764 88.8494 68.6237C87.8472 68.0208 87.6311 67.6063 87.8017 67.1728C88.0014 66.666 88.4614 66.7961 88.7016 66.9124C88.8418 66.5611 88.9126 66.3866 89.0554 66.0366C88.4412 65.7509 87.4882 65.6397 87.0509 66.7822C86.5972 67.969 87.5401 68.9435 88.4955 69.5451C88.421 69.7422 88.3831 69.8408 88.3098 70.0367C88.512 70.1403 88.6131 70.1934 88.8153 70.2971C88.8848 70.1113 88.9202 70.019 88.991 69.8345C89.0605 69.8724 89.1325 69.9103 89.2058 69.9482C89.2842 69.9887 89.36 70.0266 89.4359 70.0645C89.3651 70.249 89.331 70.3413 89.2614 70.5271C89.4611 70.6294 89.561 70.6813 89.7607 70.7849C89.834 70.5915 89.8706 70.4942 89.9439 70.3008C90.9108 70.7331 92.3036 71.0667 92.7889 69.8193C93.2161 68.7197 92.6107 67.9185 91.9042 67.4685C91.7626 67.8148 91.6931 67.988 91.5541 68.3355L91.5516 68.3343Z" fill="#569E5A"/>
<path d="M93.3834 51.3958L84.6816 43.3589L85.5373 42.4337L94.239 50.4707L93.3834 51.3958ZM92.6908 50.1395C92.2118 50.6577 91.6835 51.0912 91.1059 51.4375C90.5283 51.7851 89.9937 51.9999 89.5046 52.0846L88.8461 50.5326C89.2998 50.4378 89.7662 50.2583 90.2427 49.9955C90.7204 49.7326 91.1375 49.4065 91.4964 49.0185C91.7707 48.7227 91.9615 48.4561 92.0715 48.2197C92.1814 47.9834 92.2231 47.7736 92.1979 47.5903C92.1726 47.4071 92.093 47.2529 91.9565 47.1277C91.7833 46.9685 91.5836 46.9091 91.3561 46.9508C91.1286 46.9925 90.8809 47.0949 90.6104 47.2567C90.34 47.4184 90.0518 47.608 89.746 47.8216C89.4388 48.0365 89.1191 48.2374 88.7842 48.4257C88.4492 48.614 88.1118 48.7569 87.7705 48.8542C87.4293 48.9515 87.0842 48.9667 86.7329 48.8997C86.3828 48.8327 86.034 48.6406 85.6889 48.3208C85.3186 47.9783 85.0734 47.5663 84.9534 47.0835C84.8333 46.6007 84.8687 46.0737 85.0595 45.5011C85.2504 44.9286 85.6283 44.3371 86.1932 43.7267C86.5699 43.3197 86.9882 42.962 87.4482 42.6562C87.9083 42.3503 88.3747 42.1329 88.8448 42.0078L89.5564 43.5219C89.1039 43.6647 88.6969 43.8493 88.3342 44.0742C87.9715 44.2992 87.6568 44.557 87.3888 44.8477C87.1209 45.1384 86.9351 45.4064 86.8327 45.6541C86.7291 45.9018 86.695 46.1166 86.7291 46.2961C86.7632 46.4756 86.8504 46.6323 86.9933 46.7625C87.1601 46.9167 87.3572 46.9723 87.5835 46.9306C87.811 46.8889 88.0574 46.7852 88.3254 46.6197C88.592 46.4541 88.8802 46.2658 89.1899 46.0547C89.4995 45.8436 89.818 45.6402 90.1466 45.4455C90.4752 45.2509 90.8101 45.1056 91.1501 45.0082C91.4914 44.9109 91.8364 44.8957 92.1877 44.9627C92.5391 45.0297 92.8829 45.2193 93.2229 45.5327C93.5868 45.8689 93.827 46.2784 93.9407 46.7612C94.0545 47.244 94.0178 47.7736 93.8295 48.3486C93.6412 48.9237 93.262 49.5202 92.692 50.137L92.6908 50.1395Z" fill="#FFE7D2"/>
<path d="M123.294 55.5169C110.555 63.8533 99.2285 73.9921 89.5536 85.7473C84.0216 79.5607 78.4897 73.3753 72.959 67.1887C82.6604 55.4537 94.0087 45.3389 106.766 37.0303C112.275 43.1929 117.786 49.3542 123.295 55.5169H123.294Z" fill="#FFE7D2"/>
<path d="M91.5265 83.3788C90.8591 84.1598 90.2019 84.9498 89.5536 85.7473C84.0216 79.5606 78.4897 73.3753 72.959 67.1886C73.6086 66.3937 74.2684 65.605 74.9369 64.8252C80.4664 71.0093 85.997 77.1947 91.5265 83.3788Z" fill="#569E5A"/>
<path d="M104.867 38.2888C104.658 38.4291 104.448 38.5706 104.24 38.7122C103.962 38.9005 103.685 39.0914 103.41 39.2809C103.301 39.3555 103.191 39.4313 103.082 39.5072C96.8627 43.822 90.9984 48.5805 85.5195 53.7611C86.47 57.4617 88.98 60.9449 91.193 63.8771C93.6829 67.1745 97.9206 70.6261 101.969 72.4044C108.536 66.1545 115.662 60.5126 123.294 55.5178C117.785 49.3552 112.274 43.1939 106.765 37.0312C106.334 37.3118 105.906 37.5949 105.477 37.8793C105.273 38.0158 105.069 38.1536 104.866 38.2901L104.867 38.2888Z" fill="#569E5A"/>
<path d="M117.19 59.732C118.148 59.0356 119.114 58.3505 120.089 57.6756C114.618 51.556 109.018 45.3036 103.549 39.1865C103.502 39.2181 103.457 39.2497 103.41 39.2813C103.301 39.3559 103.191 39.4317 103.083 39.5075C102.257 40.0801 101.44 40.6602 100.627 41.2492C106.105 47.3751 111.711 53.6047 117.19 59.732Z" fill="#296D58"/>
<path d="M82.9629 63.5515C81.7142 64.8925 80.4857 66.2499 79.2762 67.6262C78.5394 66.8022 77.8013 65.9769 77.0645 65.1528C78.274 63.7765 79.5025 62.4191 80.7524 61.0781C81.4893 61.9022 82.2261 62.7262 82.9629 63.5502V63.5515Z" fill="#46B2B7"/>
<path d="M105.128 61.6234L96.4258 53.5864L97.2814 52.6613L105.983 60.6982L105.128 61.6234ZM104.436 60.3671C103.957 60.8853 103.429 61.3188 102.851 61.6651C102.274 62.0114 101.739 62.2275 101.25 62.3122L100.591 60.7601C101.045 60.6653 101.512 60.4859 101.988 60.223C102.465 59.9601 102.883 59.634 103.242 59.246C103.516 58.9503 103.707 58.6836 103.817 58.4473C103.927 58.2109 103.969 58.0011 103.943 57.8179C103.918 57.6346 103.838 57.4804 103.702 57.3553C103.529 57.196 103.329 57.1366 103.102 57.1783C102.874 57.22 102.626 57.3224 102.356 57.4842C102.085 57.646 101.797 57.8343 101.491 58.0491C101.186 58.264 100.864 58.465 100.53 58.6533C100.196 58.8416 99.8572 58.9844 99.5172 59.0817C99.176 59.179 98.8309 59.1929 98.4796 59.1272C98.1295 59.0602 97.7806 58.8681 97.4356 58.5484C97.0653 58.2059 96.8201 57.7938 96.7 57.311C96.58 56.8282 96.6154 56.3012 96.8062 55.7287C96.997 55.1561 97.3749 54.5647 97.9399 53.9542C98.3165 53.5472 98.7349 53.1896 99.1949 52.8837C99.655 52.5766 100.121 52.3605 100.591 52.2354L101.303 53.7495C100.851 53.8923 100.444 54.0768 100.081 54.3018C99.7182 54.5267 99.4035 54.7846 99.1355 55.0753C98.8676 55.3647 98.6818 55.6339 98.5794 55.8816C98.477 56.1293 98.4416 56.3442 98.4758 56.5237C98.5099 56.7031 98.5971 56.8598 98.7399 56.99C98.9068 57.1442 99.1039 57.1998 99.3301 57.1581C99.5576 57.1164 99.8041 57.0128 100.071 56.8472C100.337 56.6816 100.626 56.4933 100.935 56.2823C101.245 56.0712 101.563 55.8677 101.892 55.6731C102.221 55.4784 102.556 55.3331 102.896 55.237C103.237 55.1397 103.582 55.1246 103.933 55.1915C104.285 55.2585 104.628 55.4481 104.968 55.7615C105.332 56.0977 105.571 56.5072 105.686 56.99C105.801 57.4728 105.763 58.0024 105.575 58.5774C105.387 59.1525 105.007 59.749 104.437 60.3658L104.436 60.3671Z" fill="#FFE7D2"/>
<path d="M94.348 77.9377L88.9766 72.9758L89.5049 72.4045L94.8763 77.3664L94.348 77.9377ZM93.9208 77.1617C93.6251 77.4814 93.299 77.7494 92.9426 77.963C92.5862 78.1778 92.2563 78.3105 91.9542 78.3624L91.5473 77.4043C91.8278 77.3462 92.1147 77.235 92.4092 77.0732C92.7037 76.9114 92.9615 76.7105 93.184 76.4703C93.3533 76.2871 93.4709 76.1228 93.5391 75.9774C93.6061 75.8321 93.6327 75.7019 93.6175 75.5894C93.6023 75.4769 93.553 75.3809 93.4683 75.3038C93.3622 75.2052 93.2383 75.1686 93.098 75.1951C92.9577 75.2204 92.8048 75.2836 92.638 75.3834C92.4712 75.4833 92.293 75.5995 92.1046 75.7322C91.9151 75.865 91.7179 75.9888 91.5106 76.1051C91.3046 76.2214 91.0961 76.3098 90.885 76.3692C90.6752 76.4286 90.4616 76.4388 90.2442 76.397C90.0281 76.3566 89.8132 76.2365 89.5996 76.0394C89.3709 75.8283 89.2192 75.5743 89.1459 75.276C89.0714 74.9777 89.0941 74.6529 89.2116 74.299C89.3292 73.9464 89.563 73.5799 89.9118 73.2033C90.1444 72.9517 90.4022 72.7318 90.6866 72.5422C90.9709 72.3527 91.2578 72.22 91.5485 72.1416L91.9871 73.0769C91.7078 73.1653 91.4563 73.2791 91.2326 73.4181C91.0089 73.5571 90.8142 73.7164 90.6487 73.8959C90.4831 74.0753 90.3693 74.2409 90.3049 74.3938C90.2417 74.5467 90.2202 74.6794 90.2404 74.7894C90.2607 74.8994 90.315 74.9967 90.4035 75.0776C90.5058 75.1724 90.6284 75.2077 90.7687 75.1812C90.909 75.1547 91.0619 75.0915 91.2262 74.9891C91.3906 74.8867 91.5688 74.7704 91.7596 74.6403C91.9504 74.5101 92.1476 74.385 92.3498 74.2649C92.552 74.1448 92.7593 74.0551 92.9691 73.9957C93.1802 73.9363 93.3925 73.9262 93.6099 73.9679C93.826 74.0083 94.0396 74.1259 94.2482 74.3192C94.4731 74.5265 94.621 74.7793 94.6905 75.0776C94.7613 75.3758 94.7385 75.7019 94.6223 76.0571C94.506 76.4122 94.2722 76.78 93.9195 77.1617H93.9208Z" fill="#569E5A"/>
<path d="M81.1994 30.5605C83.4503 45.617 87.9294 60.1439 94.5673 73.8455C86.6352 76.286 78.7045 78.7278 70.7724 81.1683C64.1649 67.4516 59.7161 52.9146 57.498 37.8531C65.3985 35.4226 73.2989 32.991 81.1994 30.5605Z" fill="#FFE7D2"/>
<path d="M93.2397 71.0638C93.6707 71.9965 94.1143 72.9242 94.5667 73.8455C86.6347 76.2861 78.7039 78.7279 70.7719 81.1684C70.3207 80.2458 69.8796 79.3168 69.4512 78.3828C77.3807 75.9423 85.3102 73.503 93.2397 71.0625V71.0638Z" fill="#569E5A"/>
<path d="M57.8481 40.1053C57.8886 40.3543 57.929 40.6032 57.9707 40.851C58.0263 41.1821 58.0832 41.5132 58.1414 41.8431C58.1641 41.9733 58.1869 42.1047 58.2096 42.2349C59.5316 49.6879 61.4047 57.0044 63.8212 64.1466C67.5812 64.829 71.7937 64.005 75.3818 63.2189C79.4186 62.3342 84.3249 59.9265 87.6312 56.9918C84.6977 48.4139 82.5479 39.5833 81.1994 30.5605C73.2989 32.9922 65.3985 35.4226 57.498 37.8531C57.5726 38.3624 57.651 38.8692 57.7306 39.3773C57.7685 39.6199 57.809 39.8626 57.8481 40.1053Z" fill="#569E5A"/>
<path d="M82.4781 37.8683C82.2456 36.7068 82.0269 35.5428 81.8222 34.375C73.9773 36.789 65.9568 39.2636 58.1133 41.6776C58.1234 41.7332 58.1322 41.7888 58.1424 41.8432C58.1651 41.9734 58.1878 42.1048 58.2106 42.235C58.3863 43.2233 58.5721 44.2104 58.7667 45.1937C66.6216 42.7772 74.6232 40.2848 82.4794 37.8683H82.4781Z" fill="#296D58"/>
<path d="M71.6483 70.5608C72.3447 72.2557 73.0651 73.9391 73.8108 75.6125C72.7542 75.9373 71.6963 76.2634 70.6397 76.5882C69.894 74.9136 69.1749 73.2314 68.4785 71.5353C69.5351 71.2105 70.5917 70.8856 71.6483 70.5596V70.5608Z" fill="#46B2B7"/>
<path d="M87.6892 66.6929C88.0608 66.6285 88.5701 66.6108 88.7762 67.0986C88.9771 67.5738 88.5929 67.9189 87.5186 68.3132C87.2861 67.771 87.1723 67.4993 86.9461 66.9546C86.7312 67.0203 86.6238 67.0531 86.4089 67.1201C86.6377 67.6712 86.754 67.9454 86.989 68.4939C86.9031 68.5217 86.8159 68.5496 86.7249 68.5774C86.6516 68.6001 86.5808 68.6216 86.5113 68.6418C86.2762 68.0933 86.1599 67.8178 85.9312 67.2667C85.7138 67.3337 85.6051 67.3666 85.3877 67.4336C85.614 67.977 85.7277 68.2475 85.959 68.7884C84.8215 69.0576 84.3766 68.9123 84.1959 68.4838C83.9848 67.9821 84.4044 67.7533 84.6572 67.6686C84.5119 67.3198 84.4398 67.1454 84.297 66.7953C83.6588 67.0203 82.8979 67.608 83.3858 68.7303C83.8913 69.8956 85.2462 69.9335 86.3508 69.6946C86.4355 69.888 86.4772 69.984 86.5619 70.1762C86.7792 70.1092 86.8879 70.0763 87.1053 70.0093C87.0257 69.8286 86.9853 69.7376 86.9069 69.5556C86.984 69.5341 87.0611 69.5114 87.1407 69.4873C87.2241 69.4621 87.3063 69.4355 87.3859 69.409C87.4655 69.5897 87.5047 69.6807 87.5843 69.8614C87.7992 69.7957 87.9066 69.7629 88.1215 69.6959C88.0381 69.5063 87.9963 69.4115 87.9142 69.2219C88.9076 68.8554 90.1373 68.1198 89.6116 66.8876C89.149 65.8032 88.1543 65.654 87.3341 65.8259C87.4756 66.1722 87.5464 66.3454 87.6905 66.6904L87.6892 66.6929Z" fill="#569E5A"/>
<path d="M76.209 51.1789C76.9863 51.045 78.0315 51.0273 78.3462 52.1066C78.7936 53.6397 76.4883 54.355 75.4874 54.7595C75.1866 53.7572 74.8984 52.7499 74.6216 51.7414C74.1653 51.8816 73.9366 51.9524 73.4803 52.0927C73.766 53.1126 74.0579 54.1301 74.3575 55.1475C74.1755 55.2056 73.9897 55.265 73.7938 55.3257C73.6371 55.3737 73.4867 55.4179 73.34 55.4622C73.0405 54.446 72.7486 53.4286 72.4629 52.4074C72.0003 52.549 71.7703 52.621 71.3077 52.7626C71.5833 53.7699 71.8714 54.7734 72.171 55.7731C71.1839 56.0486 68.9898 56.4783 68.6119 55.054C68.32 53.9531 69.2123 53.4438 69.7519 53.2618C69.5383 52.4858 69.4347 52.0965 69.2312 51.3167C67.3935 51.9562 66.3091 53.6359 66.8893 55.5759C67.6729 58.1934 70.5191 58.2579 72.7865 57.7814C72.9204 58.2086 72.9887 58.4222 73.1264 58.8493C73.589 58.7065 73.8203 58.6358 74.2829 58.4942C74.154 58.0936 74.0895 57.8926 73.9631 57.4894C74.1262 57.4439 74.2905 57.3959 74.4598 57.3441C74.638 57.2897 74.8112 57.2341 74.9818 57.1785C75.1082 57.5804 75.1726 57.7814 75.3016 58.182C75.7578 58.0417 75.9866 57.971 76.4441 57.8307C76.3089 57.4111 76.2419 57.2013 76.1092 56.7817C78.3311 55.9273 80.8651 54.4309 80.1106 51.6706C79.552 49.6269 77.6536 48.8345 75.6959 49.2579C75.8968 50.0288 75.9992 50.4143 76.2115 51.1827L76.209 51.1789Z" fill="#FFE7D2"/>
<path d="M97.0135 33.9046C93.2636 48.6602 91.7735 63.7887 92.5925 78.9905C84.3344 78.1728 76.0763 77.3551 67.8182 76.5373C67.032 61.333 68.555 46.2071 72.3365 31.459C80.5617 32.2742 88.7883 33.0894 97.0135 33.9046Z" fill="#FFE7D2"/>
<path d="M92.4464 75.9122C92.4831 76.9384 92.5324 77.9659 92.5943 78.9909C84.3362 78.1732 76.0781 77.3555 67.82 76.5378C67.7606 75.5128 67.7138 74.4852 67.6797 73.459C75.9353 74.2767 84.1921 75.0944 92.4477 75.9134L92.4464 75.9122Z" fill="#569E5A"/>
<path d="M71.7895 33.671C71.7301 33.9162 71.672 34.1614 71.6139 34.4066C71.5368 34.734 71.4609 35.06 71.3864 35.3874C71.3573 35.5163 71.327 35.6452 71.2979 35.7754C69.6321 43.1602 68.53 50.6309 67.9941 58.1509C71.1968 60.235 75.4004 61.1045 79.0138 61.7681C83.0784 62.5138 88.5345 62.1927 92.7179 60.7646C93.3309 51.7203 94.7666 42.7443 97.0125 33.9036C88.7873 33.0884 80.5608 32.2732 72.3355 31.458C72.2079 31.956 72.0828 32.4552 71.9602 32.9532C71.902 33.192 71.8451 33.4309 71.787 33.6698L71.7895 33.671Z" fill="#569E5A"/>
<path d="M95.3645 41.1385C95.5996 39.9783 95.8486 38.8193 96.1115 37.6629C87.9431 36.8528 79.5902 36.0325 71.4243 35.2236C71.4117 35.278 71.3991 35.3336 71.3864 35.3879C71.3574 35.5169 71.327 35.6458 71.2979 35.7759C71.0768 36.7554 70.867 37.7362 70.666 38.7195C78.8445 39.5296 87.186 40.3284 95.3658 41.1385H95.3645Z" fill="#296D58"/>
<path d="M72.7305 67.0939C72.7166 68.9266 72.7305 70.7566 72.7697 72.5892C71.6689 72.4805 70.568 72.3706 69.4672 72.2619C69.428 70.4293 69.4154 68.5992 69.4293 66.7666C70.5289 66.8753 71.6297 66.9853 72.7292 67.0939H72.7305Z" fill="#46B2B7"/>
<path d="M89.0191 69.7338C89.3869 69.8173 89.8634 69.9993 89.8646 70.5288C89.8646 71.0445 89.378 71.2138 88.2355 71.162C88.2317 70.5718 88.2304 70.2773 88.233 69.6883C88.0093 69.6656 87.898 69.6555 87.6743 69.6327C87.6718 70.2293 87.6731 70.5276 87.6769 71.1241C87.5871 71.1165 87.4961 71.1077 87.4001 71.0988C87.323 71.0912 87.2497 71.0837 87.1776 71.0748C87.1739 70.4783 87.1726 70.18 87.1751 69.5834C86.9489 69.5607 86.8351 69.5493 86.6089 69.5278C86.6064 70.1155 86.6076 70.41 86.6114 70.9977C85.4575 70.8056 85.1036 70.4997 85.1036 70.0346C85.1036 69.4899 85.5776 69.4419 85.8443 69.4608C85.8443 69.083 85.8468 68.8946 85.8506 68.5167C85.1744 68.4763 84.2467 68.724 84.2619 69.9487C84.2771 71.2189 85.5119 71.7788 86.6228 71.9848C86.6253 72.1959 86.6279 72.3008 86.6304 72.5106C86.8566 72.5333 86.9704 72.5447 87.1966 72.5662C87.1928 72.3677 87.1915 72.2692 87.189 72.0707C87.2686 72.0808 87.3483 72.0897 87.4317 72.0973C87.5189 72.1061 87.6036 72.1137 87.6882 72.12C87.6908 72.3172 87.692 72.417 87.6958 72.6142C87.9195 72.637 88.0308 72.6471 88.2545 72.6698C88.2507 72.4625 88.2494 72.3589 88.2469 72.1529C89.3047 72.1984 90.7228 71.9962 90.7152 70.6577C90.7076 69.4785 89.8495 68.9566 89.0267 68.7973C89.0229 69.1714 89.0216 69.3585 89.0204 69.7326L89.0191 69.7338Z" fill="#569E5A"/>
<path d="M84.4351 50.9871C85.2035 51.164 86.1742 51.5533 86.0478 52.6693C85.8671 54.2567 83.4645 54.0242 82.3851 54.009C82.4963 52.9688 82.6189 51.9287 82.7542 50.891C82.279 50.8443 82.0413 50.8203 81.5661 50.7735C81.4347 51.825 81.3096 52.8753 81.1933 53.9294C81.0024 53.9129 80.8091 53.8953 80.6056 53.875C80.4426 53.8586 80.2871 53.8422 80.1342 53.8245C80.2517 52.7717 80.3756 51.7201 80.5083 50.6686C80.0267 50.6206 79.7866 50.5966 79.3051 50.5498C79.1698 51.5849 79.0472 52.6225 78.936 53.6602C77.9199 53.5325 75.7296 53.0801 75.9331 51.6203C76.0898 50.4917 77.1097 50.3678 77.6772 50.4095C77.7808 49.6107 77.8352 49.2126 77.9502 48.4151C76.0089 48.2938 74.3583 49.4224 74.1434 51.437C73.8527 54.1531 76.4538 55.3146 78.7275 55.7519C78.6858 56.198 78.6656 56.4217 78.6276 56.8679C79.1092 56.9159 79.3493 56.9399 79.8308 56.9867C79.8662 56.5671 79.8852 56.356 79.9244 55.9364C80.0925 55.9566 80.2631 55.9768 80.4388 55.9945C80.6246 56.0135 80.8053 56.0287 80.9848 56.0438C80.9456 56.4634 80.9279 56.6732 80.8912 57.0928C81.3664 57.1396 81.6053 57.1636 82.0805 57.2104C82.1184 56.7718 82.1374 56.5519 82.1778 56.1133C84.5577 56.1854 87.4734 55.786 87.845 52.9486C88.1205 50.8481 86.6772 49.382 84.7081 49.0155C84.5944 49.8041 84.5413 50.1997 84.4389 50.9896L84.4351 50.9871Z" fill="#FFE7D2"/>
<path d="M108.638 43.5276C99.7191 55.8655 92.764 69.3825 87.9272 83.8184C80.55 80.018 73.1728 76.2163 65.7969 72.4158C70.664 57.99 77.6494 44.4869 86.5951 32.168C93.9432 35.9545 101.29 39.7411 108.638 43.5276Z" fill="#FFE7D2"/>
<path d="M88.9244 80.902C88.5806 81.8702 88.2482 82.8433 87.9272 83.819C80.55 80.0186 73.1728 76.2169 65.7969 72.4164C66.1192 71.4407 66.4541 70.4688 66.7991 69.502C74.1738 73.3024 81.5485 77.1028 88.9231 80.902H88.9244Z" fill="#569E5A"/>
<path d="M85.2699 34.0236C85.1245 34.2296 84.9792 34.4356 84.8351 34.6429C84.643 34.9184 84.4521 35.1952 84.2626 35.472C84.188 35.5807 84.1122 35.6907 84.0376 35.7993C79.7708 42.0517 75.9943 48.5922 72.7285 55.3868C74.939 58.5035 78.5271 60.8606 81.6426 62.8069C85.1473 64.9972 90.338 66.706 94.7539 66.9196C98.6542 58.736 103.293 50.919 108.638 43.5266C101.289 39.7401 93.9425 35.9535 86.5944 32.167C86.2923 32.5828 85.9928 33.0011 85.6945 33.4195C85.5517 33.6192 85.4114 33.8214 85.2699 34.0223V34.0236Z" fill="#569E5A"/>
<path d="M104.441 49.6466C105.087 48.6545 105.744 47.6686 106.414 46.6904C99.1178 42.9304 91.6534 39.092 84.3584 35.332C84.3268 35.3788 84.2939 35.4243 84.2623 35.4711C84.1877 35.5797 84.1119 35.6897 84.0373 35.7984C83.4711 36.6275 82.915 37.4629 82.3652 38.3021C89.6704 42.0672 97.1335 45.8803 104.439 49.6453L104.441 49.6466Z" fill="#296D58"/>
<path d="M73.841 65.4449C73.1534 67.1436 72.4912 68.8498 71.8542 70.5687C70.8709 70.0619 69.8876 69.555 68.9043 69.0482C69.5425 67.3306 70.2048 65.6244 70.8924 63.9258C71.8756 64.4326 72.8577 64.9381 73.841 65.4449Z" fill="#46B2B7"/>
<path d="M88.0125 73.8958C88.3234 74.1094 88.7001 74.4532 88.5054 74.9461C88.3158 75.4263 87.8014 75.4048 86.7575 74.936C86.9711 74.3862 87.0785 74.1119 87.2972 73.5647C87.0975 73.4623 86.9976 73.4105 86.7979 73.3068C86.5768 73.8604 86.4668 74.1385 86.2519 74.6946C86.1711 74.6541 86.0902 74.6137 86.0042 74.5694C85.936 74.534 85.8703 74.4999 85.8071 74.4658C86.0232 73.9097 86.1319 73.6316 86.3543 73.0781C86.1521 72.9744 86.051 72.9213 85.8488 72.8177C85.6301 73.3637 85.5227 73.638 85.3104 74.1852C84.3081 73.5823 84.092 73.1678 84.2626 72.7343C84.4623 72.2275 84.9224 72.3577 85.1625 72.4739C85.3028 72.1226 85.3736 71.9482 85.5164 71.5981C84.9021 71.3124 83.9492 71.2012 83.5119 72.3438C83.0582 73.5305 84.001 74.505 84.9565 75.1066C84.8819 75.3037 84.844 75.4023 84.7707 75.5982C84.9729 75.7019 85.074 75.7549 85.2762 75.8586C85.3458 75.6728 85.3811 75.5805 85.4519 75.396C85.5214 75.4339 85.5935 75.4718 85.6668 75.5097C85.7451 75.5502 85.821 75.5881 85.8968 75.626C85.826 75.8105 85.7919 75.9028 85.7224 76.0886C85.9221 76.191 86.0219 76.2428 86.2216 76.3464C86.2949 76.1531 86.3316 76.0557 86.4049 75.8624C87.3717 76.2946 88.7645 76.6283 89.2498 75.3808C89.677 74.2813 89.0716 73.48 88.3651 73.03C88.2236 73.3763 88.1541 73.5495 88.015 73.8971L88.0125 73.8958Z" fill="#569E5A"/>
<path d="M89.8443 56.9573L81.1426 48.9204L81.9982 47.9953L90.6999 56.0322L89.8443 56.9573ZM89.1517 55.7011C88.6727 56.2192 88.1444 56.6527 87.5668 56.999C86.9892 57.3466 86.4546 57.5615 85.9655 57.6461L85.307 56.0941C85.7607 55.9993 86.2271 55.8199 86.7036 55.557C87.1813 55.2941 87.5984 54.968 87.9573 54.58C88.2316 54.2843 88.4225 54.0176 88.5324 53.7812C88.6424 53.5449 88.6841 53.3351 88.6588 53.1518C88.6335 52.9686 88.5539 52.8144 88.4174 52.6893C88.2442 52.53 88.0446 52.4706 87.8171 52.5123C87.5896 52.554 87.3418 52.6564 87.0714 52.8182C86.8009 52.98 86.5127 53.1695 86.2069 53.3831C85.8998 53.598 85.58 53.7989 85.2451 53.9873C84.9102 54.1756 84.5727 54.3184 84.2315 54.4157C83.8902 54.513 83.5452 54.5282 83.1938 54.4612C82.8437 54.3942 82.4949 54.2021 82.1499 53.8824C81.7796 53.5398 81.5344 53.1278 81.4143 52.645C81.2942 52.1622 81.3296 51.6352 81.5205 51.0627C81.7113 50.4901 82.0892 49.8986 82.6542 49.2882C83.0308 48.8812 83.4491 48.5236 83.9092 48.2177C84.3692 47.9118 84.8356 47.6945 85.3058 47.5693L86.0173 49.0834C85.5648 49.2263 85.1579 49.4108 84.7952 49.6358C84.4324 49.8607 84.1177 50.1186 83.8498 50.4092C83.5818 50.6999 83.3961 50.9679 83.2937 51.2156C83.19 51.4633 83.1559 51.6782 83.19 51.8576C83.2242 52.0371 83.3114 52.1938 83.4542 52.324C83.621 52.4782 83.8182 52.5338 84.0444 52.4921C84.2719 52.4504 84.5184 52.3468 84.7863 52.1812C85.053 52.0156 85.3411 51.8273 85.6508 51.6162C85.9604 51.4052 86.2789 51.2017 86.6075 51.0071C86.9361 50.8124 87.2711 50.6671 87.6111 50.5698C87.9523 50.4724 88.2973 50.4573 88.6487 50.5243C89 50.5912 89.3438 50.7808 89.6838 51.0943C90.0478 51.4305 90.2879 51.8399 90.4017 52.3227C90.5154 52.8055 90.4788 53.3351 90.2904 53.9102C90.1021 54.4852 89.723 55.0818 89.153 55.6985L89.1517 55.7011Z" fill="#FFE7D2"/>
<path d="M119.755 61.0774C107.016 69.4139 95.6894 79.5526 86.0145 91.3079C80.4826 85.1212 74.9506 78.9359 69.4199 72.7492C79.1214 61.0142 90.4696 50.8995 103.227 42.5908C108.736 48.7534 114.247 54.9148 119.756 61.0774H119.755Z" fill="#FFE7D2"/>
<path d="M87.9874 88.9393C87.3201 89.7204 86.6629 90.5103 86.0145 91.3078C80.4826 85.1212 74.9506 78.9358 69.4199 72.7492C70.0695 71.9542 70.7293 71.1655 71.3979 70.3857C76.9273 76.5698 82.458 82.7552 87.9874 88.9393Z" fill="#569E5A"/>
<path d="M101.328 43.8493C101.119 43.9896 100.909 44.1312 100.701 44.2727C100.423 44.4611 100.146 44.6519 99.8705 44.8415C99.7618 44.916 99.6519 44.9919 99.5432 45.0677C93.3237 49.3826 87.4593 54.141 81.9805 59.3216C82.9309 63.0222 85.4409 66.5054 87.654 69.4376C90.1438 72.735 94.3815 76.1867 98.4297 77.9649C104.997 71.7151 112.122 66.0732 119.755 61.0784C114.246 54.9158 108.735 48.7544 103.226 42.5918C102.795 42.8724 102.367 43.1555 101.938 43.4399C101.733 43.5763 101.53 43.7141 101.326 43.8506L101.328 43.8493Z" fill="#569E5A"/>
<path d="M113.651 65.2925C114.609 64.5961 115.574 63.9111 116.55 63.2362C111.079 57.1165 105.479 50.8642 100.01 44.7471C99.9632 44.7787 99.9177 44.8103 99.8709 44.8419C99.7622 44.9164 99.6523 44.9923 99.5436 45.0681C98.7183 45.6406 97.9006 46.2207 97.0879 46.8097C102.565 52.9357 108.172 59.1653 113.651 65.2925Z" fill="#296D58"/>
<path d="M79.4239 69.1121C78.1752 70.453 76.9467 71.8104 75.7372 73.1868C75.0003 72.3627 74.2622 71.5374 73.5254 70.7134C74.7349 69.337 75.9634 67.9796 77.2134 66.6387C77.9502 67.4627 78.687 68.2868 79.4239 69.1108V69.1121Z" fill="#46B2B7"/>
<path d="M101.588 67.1839L92.8867 59.147L93.7424 58.2218L102.444 66.2588L101.588 67.1839ZM100.897 65.9276C100.418 66.4458 99.8898 66.8793 99.3122 67.2256C98.7346 67.5719 98.2 67.788 97.7109 67.8727L97.0524 66.3207C97.5062 66.2259 97.9725 66.0464 98.449 65.7835C98.9255 65.5207 99.3438 65.1946 99.7028 64.8066C99.977 64.5108 100.168 64.2442 100.278 64.0078C100.388 63.7715 100.429 63.5617 100.404 63.3784C100.379 63.1951 100.299 63.0409 100.163 62.9158C99.9897 62.7566 99.79 62.6972 99.5625 62.7389C99.335 62.7806 99.0872 62.883 98.8168 63.0447C98.5463 63.2065 98.2582 63.3948 97.9523 63.6097C97.6464 63.8245 97.3254 64.0255 96.9905 64.2138C96.6568 64.4021 96.3181 64.545 95.9781 64.6423C95.6369 64.7396 95.2919 64.7535 94.9405 64.6878C94.5904 64.6208 94.2416 64.4287 93.8965 64.1089C93.5262 63.7664 93.281 63.3544 93.161 62.8716C93.0409 62.3888 93.0763 61.8618 93.2671 61.2892C93.458 60.7167 93.8359 60.1252 94.4008 59.5148C94.7775 59.1078 95.1958 58.7501 95.6559 58.4443C96.1159 58.1371 96.5823 57.921 97.0524 57.7959L97.764 59.31C97.3115 59.4528 96.9046 59.6374 96.5418 59.8623C96.1791 60.0873 95.8644 60.3451 95.5965 60.6358C95.3285 60.9252 95.1427 61.1944 95.0403 61.4422C94.938 61.6899 94.9026 61.9047 94.9367 62.0842C94.9708 62.2637 95.058 62.4204 95.2009 62.5506C95.3677 62.7048 95.5649 62.7604 95.7911 62.7187C96.0186 62.677 96.265 62.5733 96.5317 62.4078C96.7984 62.2422 97.0865 62.0539 97.3962 61.8428C97.7058 61.6317 98.0243 61.4283 98.3529 61.2336C98.6816 61.039 99.0165 60.8936 99.3565 60.7976C99.6977 60.7003 100.043 60.6851 100.394 60.7521C100.745 60.8191 101.089 61.0087 101.429 61.3221C101.793 61.6583 102.032 62.0678 102.147 62.5506C102.262 63.0334 102.224 63.5629 102.036 64.138C101.848 64.713 101.468 65.3096 100.898 65.9264L100.897 65.9276Z" fill="#FFE7D2"/>
<path d="M90.8089 83.4982L85.4375 78.5363L85.9658 77.965L91.3372 82.927L90.8089 83.4982ZM90.3817 82.7222C90.086 83.042 89.7599 83.3099 89.4035 83.5235C89.0471 83.7384 88.7172 83.8711 88.4152 83.9229L88.0082 82.9649C88.2888 82.9068 88.5757 82.7955 88.8702 82.6338C89.1646 82.472 89.4225 82.271 89.6449 82.0309C89.8143 81.8476 89.9318 81.6833 90.0001 81.538C90.067 81.3926 90.0936 81.2625 90.0784 81.15C90.0633 81.0375 90.014 80.9414 89.9293 80.8643C89.8231 80.7658 89.6993 80.7291 89.559 80.7557C89.4187 80.7809 89.2658 80.8441 89.0989 80.944C88.9321 81.0438 88.7539 81.1601 88.5656 81.2928C88.376 81.4255 88.1788 81.5494 87.9716 81.6656C87.7655 81.7819 87.557 81.8704 87.3459 81.9298C87.1361 81.9892 86.9225 81.9993 86.7052 81.9576C86.489 81.9171 86.2742 81.7971 86.0606 81.5999C85.8318 81.3888 85.6802 81.1348 85.6069 80.8365C85.5323 80.5383 85.555 80.2135 85.6726 79.8596C85.7901 79.507 86.0239 79.1404 86.3728 78.7638C86.6053 78.5123 86.8631 78.2924 87.1475 78.1028C87.4319 77.9132 87.7188 77.7805 88.0095 77.7021L88.448 78.6374C88.1687 78.7259 87.9172 78.8396 87.6935 78.9787C87.4698 79.1177 87.2752 79.2769 87.1096 79.4564C86.944 79.6359 86.8303 79.8014 86.7658 79.9544C86.7026 80.1073 86.6811 80.24 86.7014 80.35C86.7216 80.4599 86.7759 80.5572 86.8644 80.6381C86.9668 80.7329 87.0894 80.7683 87.2297 80.7418C87.37 80.7152 87.5229 80.652 87.6872 80.5496C87.8515 80.4473 88.0297 80.331 88.2205 80.2008C88.4114 80.0706 88.6085 79.9455 88.8108 79.8254C89.013 79.7054 89.2203 79.6156 89.4301 79.5562C89.6411 79.4968 89.8535 79.4867 90.0708 79.5284C90.287 79.5689 90.5006 79.6864 90.7091 79.8798C90.9341 80.0871 91.0819 80.3398 91.1514 80.6381C91.2222 80.9364 91.1995 81.2625 91.0832 81.6176C90.9669 81.9728 90.7331 82.3405 90.3805 82.7222H90.3817Z" fill="#569E5A"/>
<path d="M77.2814 37.375C79.5323 52.4315 84.0115 66.9583 90.6493 80.6599C82.7173 83.1005 74.7865 85.5423 66.8545 87.9828C60.247 74.266 55.7982 59.729 53.5801 44.6675C61.4805 42.2371 69.3809 39.8054 77.2814 37.375Z" fill="#FFE7D2"/>
<path d="M89.3217 77.8782C89.7527 78.811 90.1963 79.7386 90.6488 80.66C82.7167 83.1005 74.786 85.5423 66.8539 87.9828C66.4027 87.0602 65.9617 86.1313 65.5332 85.1973C73.4627 82.7567 81.3922 80.3175 89.3217 77.877V77.8782Z" fill="#569E5A"/>
<path d="M53.9302 46.9197C53.9706 47.1687 54.0111 47.4177 54.0528 47.6654C54.1084 47.9965 54.1652 48.3277 54.2234 48.6575C54.2461 48.7877 54.2689 48.9192 54.2916 49.0493C55.6136 56.5024 57.4867 63.8189 59.9032 70.961C63.6632 71.6435 67.8757 70.8195 71.4638 70.0333C75.5006 69.1486 80.4069 66.741 83.7132 63.8063C80.7798 55.2284 78.6299 46.3977 77.2814 37.375C69.3809 39.8067 61.4805 42.2371 53.5801 44.6675C53.6546 45.1769 53.733 45.6837 53.8126 46.1917C53.8505 46.4344 53.891 46.6771 53.9302 46.9197Z" fill="#569E5A"/>
<path d="M78.5582 44.6828C78.3256 43.5213 78.107 42.3573 77.9022 41.1895C70.0574 43.6034 62.0369 46.0781 54.1934 48.4921C54.2035 48.5477 54.2123 48.6033 54.2224 48.6576C54.2452 48.7878 54.2679 48.9193 54.2907 49.0494C54.4664 50.0378 54.6521 51.0249 54.8468 52.0082C62.7017 49.5916 70.7033 47.0993 78.5595 44.6828H78.5582Z" fill="#296D58"/>
<path d="M67.7303 77.3753C68.4267 79.0701 69.1471 80.7536 69.8928 82.427C68.8362 82.7518 67.7784 83.0779 66.7218 83.4027C65.9761 81.728 65.2569 80.0458 64.5605 78.3497C65.6171 78.0249 66.6737 77.7001 67.7303 77.374V77.3753Z" fill="#46B2B7"/>
<path d="M83.7713 73.5074C84.1428 73.4429 84.6522 73.4252 84.8582 73.9131C85.0591 74.3883 84.6749 74.7333 83.6006 75.1277C83.3681 74.5855 83.2543 74.3137 83.0281 73.769C82.8132 73.8347 82.7058 73.8676 82.491 73.9346C82.7197 74.4856 82.836 74.7599 83.0711 75.3084C82.9851 75.3362 82.8979 75.364 82.8069 75.3918C82.7336 75.4146 82.6628 75.436 82.5933 75.4563C82.3583 74.9077 82.242 74.6322 82.0132 74.0812C81.7958 74.1482 81.6871 74.181 81.4698 74.248C81.696 74.7915 81.8097 75.0619 82.041 75.6029C80.9035 75.8721 80.4587 75.7267 80.2779 75.2983C80.0669 74.7965 80.4865 74.5678 80.7392 74.4831C80.5939 74.1343 80.5219 73.9599 80.379 73.6098C79.7408 73.8347 78.9799 74.4224 79.4678 75.5447C79.9733 76.71 81.3282 76.7479 82.4328 76.5091C82.5175 76.7024 82.5592 76.7985 82.6439 76.9906C82.8613 76.9236 82.97 76.8908 83.1874 76.8238C83.1077 76.643 83.0673 76.552 82.9889 76.37C83.066 76.3486 83.1431 76.3258 83.2227 76.3018C83.3062 76.2765 83.3883 76.25 83.4679 76.2234C83.5476 76.4042 83.5867 76.4952 83.6664 76.6759C83.8812 76.6102 83.9886 76.5773 84.2035 76.5103C84.1201 76.3208 84.0784 76.226 83.9962 76.0364C84.9896 75.6699 86.2194 74.9343 85.6936 73.702C85.231 72.6176 84.2364 72.4685 83.4161 72.6404C83.5577 72.9867 83.6284 73.1598 83.7725 73.5049L83.7713 73.5074Z" fill="#569E5A"/>
<path d="M72.291 57.9934C73.0683 57.8594 74.1135 57.8417 74.4283 58.9211C74.8757 60.4541 72.5704 61.1695 71.5694 61.5739C71.2686 60.5717 70.9804 59.5644 70.7036 58.5558C70.2474 58.6961 70.0186 58.7669 69.5624 58.9072C69.848 59.9271 70.1399 60.9445 70.4395 61.9619C70.2575 62.0201 70.0717 62.0795 69.8758 62.1401C69.7191 62.1882 69.5687 62.2324 69.4221 62.2766C69.1225 61.2605 68.8306 60.2431 68.5449 59.2219C68.0824 59.3634 67.8523 59.4355 67.3898 59.577C67.6653 60.5843 67.9535 61.5878 68.253 62.5875C67.2659 62.8631 65.0718 63.2928 64.6939 61.8684C64.402 60.7676 65.2943 60.2582 65.834 60.0762C65.6204 59.3002 65.5167 58.911 65.3132 58.1311C63.4756 58.7707 62.3912 60.4503 62.9713 62.3904C63.7549 65.0078 66.6011 65.0723 68.8685 64.5958C69.0025 65.023 69.0707 65.2366 69.2085 65.6638C69.6711 65.521 69.9023 65.4502 70.3649 65.3087C70.236 64.908 70.1715 64.7071 70.0452 64.3039C70.2082 64.2584 70.3725 64.2104 70.5419 64.1585C70.7201 64.1042 70.8932 64.0486 71.0638 63.993C71.1902 64.3949 71.2547 64.5958 71.3836 64.9965C71.8398 64.8562 72.0686 64.7854 72.5261 64.6451C72.3909 64.2255 72.3239 64.0157 72.1912 63.5961C74.4131 62.7417 76.9471 61.2453 76.1926 58.485C75.634 56.4414 73.7357 55.6489 71.7779 56.0723C71.9789 56.8433 72.0812 57.2287 72.2936 57.9972L72.291 57.9934Z" fill="#FFE7D2"/>
<path d="M93.0955 40.7171C89.3456 55.4727 87.8555 70.6012 88.6745 85.803C80.4164 84.9853 72.1583 84.1676 63.9002 83.3498C63.1141 68.1455 64.637 53.0196 68.4185 38.2715C76.6438 39.0867 84.8703 39.9019 93.0955 40.7171Z" fill="#FFE7D2"/>
<path d="M88.5285 82.7247C88.5651 83.7509 88.6144 84.7784 88.6763 85.8034C80.4182 84.9857 72.1601 84.168 63.902 83.3503C63.8426 82.3253 63.7958 81.2977 63.7617 80.2715C72.0173 81.0892 80.2741 81.9069 88.5297 82.7259L88.5285 82.7247Z" fill="#569E5A"/>
<path d="M67.8716 40.4835C67.8122 40.7287 67.754 40.9739 67.6959 41.2191C67.6188 41.5465 67.543 41.8725 67.4684 42.1999C67.4393 42.3288 67.409 42.4577 67.3799 42.5879C65.7141 49.9727 64.6121 57.4434 64.0762 64.9634C67.2788 67.0475 71.4824 67.917 75.0958 68.5806C79.1604 69.3263 84.6165 69.0052 88.7999 67.5771C89.4129 58.5328 90.8487 49.5568 93.0946 40.7161C84.8693 39.9009 76.6428 39.0857 68.4176 38.2705C68.2899 38.7685 68.1648 39.2677 68.0422 39.7657C67.984 40.0045 67.9272 40.2434 67.869 40.4823L67.8716 40.4835Z" fill="#569E5A"/>
<path d="M91.4465 47.9501C91.6816 46.7898 91.9306 45.6309 92.1935 44.4744C84.0251 43.6643 75.6722 42.844 67.5064 42.0352C67.4937 42.0895 67.4811 42.1451 67.4685 42.1995C67.4394 42.3284 67.409 42.4573 67.38 42.5875C67.1588 43.567 66.949 44.5477 66.748 45.531C74.9265 46.3412 83.2681 47.1399 91.4478 47.9501H91.4465Z" fill="#296D58"/>
<path d="M68.8125 73.9064C68.7986 75.7391 68.8125 77.5691 68.8517 79.4017C67.7509 79.293 66.6501 79.1831 65.5492 79.0744C65.5101 77.2418 65.4974 75.4117 65.5113 73.5791C66.6109 73.6878 67.7117 73.7978 68.8113 73.9064H68.8125Z" fill="#46B2B7"/>
<path d="M85.0992 76.5473C85.467 76.6307 85.9434 76.8127 85.9447 77.3423C85.9447 77.858 85.4581 78.0273 84.3156 77.9755C84.3118 77.3853 84.3105 77.0908 84.3131 76.5018C84.0893 76.4791 83.9781 76.469 83.7544 76.4462C83.7519 77.0428 83.7532 77.341 83.7569 77.9376C83.6672 77.93 83.5762 77.9211 83.4802 77.9123C83.4031 77.9047 83.3298 77.8971 83.2577 77.8883C83.2539 77.2917 83.2527 76.9935 83.2552 76.3969C83.029 76.3742 82.9152 76.3628 82.689 76.3413C82.6865 76.929 82.6877 77.2235 82.6915 77.8112C81.5376 77.6191 81.1837 77.3132 81.1837 76.8481C81.1837 76.3034 81.6577 76.2554 81.9243 76.2743C81.9243 75.8964 81.9269 75.7081 81.9307 75.3302C81.2545 75.2898 80.3268 75.5375 80.342 76.7622C80.3571 78.0324 81.5919 78.5923 82.7029 78.7983C82.7054 79.0093 82.7079 79.1142 82.7105 79.324C82.9367 79.3468 83.0504 79.3582 83.2767 79.3796C83.2729 79.1812 83.2716 79.0826 83.2691 78.8842C83.3487 78.8943 83.4283 78.9032 83.5118 78.9108C83.599 78.9196 83.6836 78.9272 83.7683 78.9335C83.7709 79.1307 83.7721 79.2305 83.7759 79.4277C83.9996 79.4504 84.1108 79.4605 84.3345 79.4833C84.3307 79.276 84.3295 79.1724 84.327 78.9664C85.3848 79.0119 86.8029 78.8096 86.7953 77.4712C86.7877 76.292 85.9295 75.77 85.1068 75.6108C85.103 75.9849 85.1017 76.172 85.1004 76.5461L85.0992 76.5473Z" fill="#569E5A"/>
<path d="M80.5171 57.7996C81.2856 57.9765 82.2562 58.3658 82.1298 59.4818C81.9491 61.0692 79.5465 60.8367 78.4671 60.8215C78.5784 59.7813 78.701 58.7412 78.8362 57.7035C78.361 57.6568 78.1234 57.6328 77.6482 57.586C77.5167 58.6375 77.3916 59.6878 77.2753 60.7419C77.0845 60.7255 76.8911 60.7078 76.6876 60.6875C76.5246 60.6711 76.3691 60.6547 76.2162 60.637C76.3337 59.5842 76.4576 58.5326 76.5903 57.4811C76.1088 57.4331 75.8686 57.4091 75.3871 57.3623C75.2519 58.3974 75.1293 59.435 75.0181 60.4727C74.0019 60.345 71.8116 59.8926 72.0151 58.4328C72.1718 57.3042 73.1918 57.1803 73.7592 57.222C73.8629 56.4232 73.9172 56.0251 74.0322 55.2276C72.0909 55.1063 70.4403 56.2349 70.2255 58.2495C69.9348 60.9656 72.5358 62.1271 74.8095 62.5644C74.7678 63.0105 74.7476 63.2342 74.7097 63.6804C75.1912 63.7284 75.4313 63.7524 75.9129 63.7992C75.9483 63.3796 75.9672 63.1685 76.0064 62.7489C76.1745 62.7691 76.3451 62.7893 76.5208 62.807C76.7066 62.826 76.8873 62.8412 77.0668 62.8563C77.0276 63.2759 77.0099 63.4857 76.9733 63.9053C77.4485 63.9521 77.6873 63.9761 78.1626 64.0229C78.2005 63.5843 78.2194 63.3644 78.2599 62.9258C80.6397 62.9979 83.5555 62.5985 83.9271 59.7611C84.2026 57.6606 82.7592 56.1945 80.7901 55.828C80.6764 56.6166 80.6233 57.0122 80.5209 57.8021L80.5171 57.7996Z" fill="#FFE7D2"/>
<path d="M104.72 50.3411C95.8011 62.679 88.846 76.196 84.0092 90.6319C76.632 86.8315 69.2548 83.0298 61.8789 79.2293C66.7461 64.8035 73.7315 51.3004 82.6771 38.9814C90.0252 42.768 97.3721 46.5545 104.72 50.3411Z" fill="#FFE7D2"/>
<path d="M85.0064 87.7145C84.6626 88.6827 84.3302 89.6558 84.0092 90.6315C76.632 86.8311 69.2548 83.0294 61.8789 79.2289C62.2012 78.2532 62.5361 77.2813 62.8812 76.3145C70.2558 80.1149 77.6305 83.9153 85.0052 87.7145H85.0064Z" fill="#569E5A"/>
<path d="M81.3519 40.8361C81.2066 41.0421 81.0612 41.2481 80.9171 41.4554C80.725 41.7309 80.5342 42.0077 80.3446 42.2845C80.27 42.3932 80.1942 42.5032 80.1196 42.6118C75.8528 48.8642 72.0764 55.4047 68.8105 62.1993C71.0211 65.316 74.6092 67.6731 77.7246 69.6194C81.2293 71.8097 86.42 73.5185 90.836 73.7321C94.7363 65.5485 99.3747 57.7315 104.72 50.3391C97.3714 46.5526 90.0246 42.766 82.6764 38.9795C82.3744 39.3953 82.0748 39.8136 81.7766 40.232C81.6337 40.4317 81.4935 40.6339 81.3519 40.8348V40.8361Z" fill="#569E5A"/>
<path d="M100.523 56.4591C101.169 55.467 101.826 54.4811 102.496 53.5029C95.1998 49.7429 87.7354 45.9045 80.4404 42.1445C80.4088 42.1913 80.3759 42.2368 80.3443 42.2836C80.2698 42.3922 80.1939 42.5022 80.1194 42.6109C79.5532 43.44 78.997 44.2754 78.4473 45.1146C85.7524 48.8797 93.2156 52.6928 100.521 56.4578L100.523 56.4591Z" fill="#296D58"/>
<path d="M69.923 72.2574C69.2354 73.9561 68.5732 75.6623 67.9362 77.3812C66.9529 76.8744 65.9696 76.3675 64.9863 75.8607C65.6246 74.1431 66.2868 72.4369 66.9744 70.7383C67.9577 71.2451 68.9397 71.7506 69.923 72.2574Z" fill="#46B2B7"/>
<path d="M84.0945 80.7083C84.4055 80.9219 84.7821 81.2657 84.5875 81.7586C84.3979 82.2388 83.8835 82.2173 82.8395 81.7485C83.0531 81.1987 83.1605 80.9244 83.3792 80.3772C83.1795 80.2748 83.0797 80.223 82.88 80.1193C82.6588 80.6729 82.5488 80.951 82.334 81.5071C82.2531 81.4666 82.1722 81.4262 82.0863 81.3819C82.018 81.3465 81.9523 81.3124 81.8891 81.2783C82.1052 80.7222 82.2139 80.4441 82.4363 79.8906C82.2341 79.7869 82.133 79.7338 81.9308 79.6302C81.7122 80.1762 81.6047 80.4505 81.3924 80.9977C80.3901 80.3948 80.174 79.9803 80.3446 79.5468C80.5443 79.04 81.0044 79.1702 81.2445 79.2864C81.3848 78.9351 81.4556 78.7607 81.5984 78.4106C80.9842 78.1249 80.0312 78.0137 79.5939 79.1563C79.1402 80.343 80.083 81.3175 81.0385 81.9191C80.9639 82.1162 80.926 82.2148 80.8527 82.4107C81.0549 82.5144 81.1561 82.5674 81.3583 82.6711C81.4278 82.4853 81.4632 82.393 81.5339 82.2085C81.6035 82.2464 81.6755 82.2843 81.7488 82.3222C81.8272 82.3627 81.903 82.4006 81.9788 82.4385C81.9081 82.623 81.8739 82.7153 81.8044 82.9011C82.0041 83.0035 82.104 83.0553 82.3036 83.1589C82.3769 82.9656 82.4136 82.8682 82.4869 82.6749C83.4538 83.1071 84.8465 83.4408 85.3319 82.1933C85.7591 81.0938 85.1537 80.2925 84.4472 79.8425C84.3056 80.1888 84.2361 80.362 84.0971 80.7096L84.0945 80.7083Z" fill="#569E5A"/>
<path d="M85.9263 63.7708L77.2246 55.7339L78.0802 54.8087L86.782 62.8457L85.9263 63.7708ZM85.2337 62.5145C84.7547 63.0327 84.2264 63.4662 83.6488 63.8125C83.0713 64.1601 82.5366 64.3749 82.0475 64.4596L81.3891 62.9076C81.8428 62.8128 82.3092 62.6333 82.7856 62.3705C83.2634 62.1076 83.6804 61.7815 84.0394 61.3935C84.3136 61.0977 84.5045 60.8311 84.6144 60.5947C84.7244 60.3584 84.7661 60.1486 84.7408 59.9653C84.7155 59.7821 84.6359 59.6279 84.4994 59.5027C84.3263 59.3435 84.1266 59.2841 83.8991 59.3258C83.6716 59.3675 83.4239 59.4699 83.1534 59.6317C82.8829 59.7934 82.5948 59.983 82.2889 60.1966C81.9818 60.4115 81.662 60.6124 81.3271 60.8007C80.9922 60.989 80.6547 61.1319 80.3135 61.2292C79.9723 61.3265 79.6272 61.3417 79.2759 61.2747C78.9258 61.2077 78.5769 61.0156 78.2319 60.6958C77.8616 60.3533 77.6164 59.9413 77.4963 59.4585C77.3763 58.9757 77.4117 58.4487 77.6025 57.8761C77.7934 57.3036 78.1712 56.7121 78.7362 56.1017C79.1128 55.6947 79.5312 55.337 79.9912 55.0312C80.4513 54.7253 80.9176 54.5079 81.3878 54.3828L82.0993 55.8969C81.6469 56.0397 81.2399 56.2243 80.8772 56.4492C80.5145 56.6742 80.1998 56.932 79.9318 57.2227C79.6639 57.5134 79.4781 57.7814 79.3757 58.0291C79.2721 58.2768 79.2379 58.4916 79.2721 58.6711C79.3062 58.8506 79.3934 59.0073 79.5362 59.1375C79.7031 59.2917 79.9002 59.3473 80.1264 59.3056C80.3539 59.2639 80.6004 59.1602 80.8683 58.9947C81.135 58.8291 81.4232 58.6408 81.7328 58.4297C82.0425 58.2186 82.361 58.0152 82.6896 57.8205C83.0182 57.6259 83.3531 57.4806 83.6931 57.3832C84.0343 57.2859 84.3794 57.2707 84.7307 57.3377C85.0821 57.4047 85.4258 57.5943 85.7658 57.9077C86.1298 58.2439 86.37 58.6534 86.4837 59.1362C86.5975 59.619 86.5608 60.1486 86.3725 60.7236C86.1842 61.2987 85.805 61.8952 85.235 62.512L85.2337 62.5145Z" fill="#FFE7D2"/>
<path d="M115.837 67.8909C103.098 76.2274 91.7714 86.3661 82.0965 98.1213C76.5646 91.9347 71.0326 85.7493 65.502 79.5627C75.2034 67.8277 86.5517 57.713 99.3091 49.4043C104.818 55.5669 110.329 61.7283 115.838 67.8909H115.837Z" fill="#FFE7D2"/>
<path d="M84.0694 95.7528C83.4021 96.5339 82.7449 97.3238 82.0965 98.1213C76.5646 91.9347 71.0326 85.7493 65.502 79.5626C66.1516 78.7677 66.8113 77.979 67.4799 77.1992C73.0093 83.3833 78.54 89.5687 84.0694 95.7528Z" fill="#569E5A"/>
<path d="M97.4098 50.6628C97.2012 50.8031 96.9914 50.9447 96.7829 51.0862C96.5049 51.2745 96.2281 51.4654 95.9525 51.655C95.8439 51.7295 95.7339 51.8054 95.6252 51.8812C89.4057 56.196 83.5414 60.9545 78.0625 66.1351C79.0129 69.8357 81.523 73.3189 83.736 76.2511C86.2258 79.5485 90.4636 83.0001 94.5117 84.7784C101.079 78.5286 108.204 72.8867 115.837 67.8919C110.328 61.7292 104.817 55.5679 99.3081 49.4053C98.8771 49.6859 98.4487 49.969 98.0202 50.2533C97.8155 50.3898 97.612 50.5276 97.4085 50.6641L97.4098 50.6628Z" fill="#569E5A"/>
<path d="M109.733 72.106C110.691 71.4096 111.657 70.7246 112.632 70.0497C107.161 63.93 101.561 57.6777 96.092 51.5605C96.0452 51.5921 95.9997 51.6237 95.953 51.6553C95.8443 51.7299 95.7343 51.8057 95.6256 51.8816C94.8003 52.4541 93.9826 53.0342 93.1699 53.6232C98.6475 59.7491 104.254 65.9787 109.733 72.106Z" fill="#296D58"/>
<path d="M75.5059 75.9255C74.2572 77.2665 73.0287 78.6239 71.8192 80.0002C71.0824 79.1762 70.3443 78.3509 69.6074 77.5269C70.8169 76.1505 72.0454 74.7931 73.2954 73.4521C74.0322 74.2762 74.7691 75.1002 75.5059 75.9243V75.9255Z" fill="#46B2B7"/>
<path d="M97.6705 73.9974L88.9688 65.9604L89.8244 65.0353L98.5261 73.0722L97.6705 73.9974ZM96.9791 72.7411C96.5001 73.2593 95.9718 73.6928 95.3943 74.0391C94.8167 74.3854 94.282 74.6015 93.7929 74.6862L93.1345 73.1342C93.5882 73.0394 94.0545 72.8599 94.531 72.597C95.0075 72.3341 95.4258 72.0081 95.7848 71.62C96.059 71.3243 96.2499 71.0576 96.3598 70.8213C96.4698 70.5849 96.5115 70.3751 96.4862 70.1919C96.461 70.0086 96.3813 69.8544 96.2448 69.7293C96.0717 69.5701 95.872 69.5107 95.6445 69.5524C95.417 69.5941 95.1693 69.6964 94.8988 69.8582C94.6283 70.02 94.3402 70.2083 94.0343 70.4232C93.7285 70.638 93.4075 70.839 93.0725 71.0273C92.7389 71.2156 92.4001 71.3584 92.0602 71.4557C91.7189 71.5531 91.3739 71.567 91.0225 71.5012C90.6724 71.4343 90.3236 71.2422 89.9786 70.9224C89.6083 70.5799 89.3631 70.1679 89.243 69.6851C89.1229 69.2023 89.1583 68.6752 89.3492 68.1027C89.54 67.5302 89.9179 66.9387 90.4829 66.3282C90.8595 65.9213 91.2778 65.5636 91.7379 65.2577C92.1979 64.9506 92.6643 64.7345 93.1345 64.6094L93.846 66.1235C93.3935 66.2663 92.9866 66.4508 92.6239 66.6758C92.2611 66.9008 91.9464 67.1586 91.6785 67.4493C91.4105 67.7387 91.2248 68.0079 91.1224 68.2556C91.02 68.5034 90.9846 68.7182 91.0187 68.8977C91.0529 69.0771 91.1401 69.2339 91.2829 69.364C91.4497 69.5182 91.6469 69.5738 91.8731 69.5321C92.1006 69.4904 92.3471 69.3868 92.6137 69.2212C92.8804 69.0557 93.1686 68.8673 93.4782 68.6563C93.7879 68.4452 94.1064 68.2417 94.435 68.0471C94.7636 67.8525 95.0985 67.7071 95.4385 67.6111C95.7797 67.5137 96.1248 67.4986 96.4761 67.5656C96.8275 67.6325 97.1712 67.8221 97.5112 68.1356C97.8752 68.4718 98.1141 68.8812 98.2291 69.364C98.3441 69.8468 98.3062 70.3764 98.1179 70.9515C97.9296 71.5265 97.5504 72.1231 96.9804 72.7398L96.9791 72.7411Z" fill="#FFE7D2"/>
<path d="M86.891 90.3117L81.5195 85.3498L82.0478 84.7785L87.4193 89.7405L86.891 90.3117ZM86.4638 89.5357C86.168 89.8555 85.842 90.1234 85.4855 90.337C85.1291 90.5519 84.7993 90.6846 84.4972 90.7364L84.0902 89.7784C84.3708 89.7202 84.6577 89.609 84.9522 89.4472C85.2467 89.2855 85.5045 89.0845 85.7269 88.8444C85.8963 88.6611 86.0138 88.4968 86.0821 88.3515C86.1491 88.2061 86.1756 88.0759 86.1605 87.9635C86.1453 87.851 86.096 87.7549 86.0113 87.6778C85.9052 87.5792 85.7813 87.5426 85.641 87.5691C85.5007 87.5944 85.3478 87.6576 85.181 87.7574C85.0141 87.8573 84.8359 87.9736 84.6476 88.1063C84.458 88.239 84.2609 88.3628 84.0536 88.4791C83.8476 88.5954 83.639 88.6839 83.428 88.7433C83.2182 88.8027 83.0046 88.8128 82.7872 88.7711C82.5711 88.7306 82.3562 88.6106 82.1426 88.4134C81.9139 88.2023 81.7622 87.9483 81.6889 87.65C81.6143 87.3517 81.6371 87.0269 81.7546 86.673C81.8722 86.3204 82.106 85.9539 82.4548 85.5773C82.6873 85.3258 82.9452 85.1059 83.2295 84.9163C83.5139 84.7267 83.8008 84.594 84.0915 84.5156L84.5301 85.4509C84.2507 85.5394 83.9992 85.6531 83.7755 85.7921C83.5518 85.9312 83.3572 86.0904 83.1916 86.2699C83.0261 86.4493 82.9123 86.6149 82.8479 86.7678C82.7847 86.9208 82.7632 87.0535 82.7834 87.1634C82.8036 87.2734 82.858 87.3707 82.9464 87.4516C83.0488 87.5464 83.1714 87.5818 83.3117 87.5552C83.452 87.5287 83.6049 87.4655 83.7692 87.3631C83.9335 87.2607 84.1117 87.1445 84.3026 87.0143C84.4934 86.8841 84.6906 86.759 84.8928 86.6389C85.095 86.5189 85.3023 86.4291 85.5121 86.3697C85.7232 86.3103 85.9355 86.3002 86.1529 86.3419C86.369 86.3824 86.5826 86.4999 86.7911 86.6933C87.0161 86.9005 87.164 87.1533 87.2335 87.4516C87.3043 87.7499 87.2815 88.0759 87.1652 88.4311C87.049 88.7862 86.8151 89.154 86.4625 89.5357H86.4638Z" fill="#569E5A"/>
<path d="M52.9141 157.208V160H83.8788V156.568H53.5511C53.1984 156.568 52.9141 156.855 52.9141 157.208Z" fill="#E5805C"/>
<path d="M71.8063 108.225C71.8063 108.225 74.8447 103.761 75.5107 100.246C76.1768 96.7311 72.9931 90.0427 74.4289 85.786C75.8646 81.5293 80.4765 77.3775 82.2004 74.7676C84.1935 71.7507 84.038 68.9892 82.5075 67.604C80.977 66.2175 78.1623 67.2337 77.4293 68.356C76.6962 69.477 71.8013 74.7474 70.2821 76.6571C68.7629 78.5668 66.469 80.8594 63.8692 81.4282C61.2695 81.9969 55.2749 80.1529 53.7242 80.2768C52.1747 80.4007 49.7266 81.0073 49.7266 81.0073C49.7266 81.0073 58.6811 105.574 71.8063 108.226V108.225Z" fill="#E5805C"/>
<path d="M77.7647 72.7513C77.7761 72.764 77.7862 72.7753 77.7976 72.788C78.1148 73.1406 78.5003 73.4376 78.9325 73.6373C79.7743 74.0266 80.6855 73.8812 81.3591 73.4667C82.0328 73.0521 82.5105 72.4 82.9579 71.744C84.1055 70.0631 85.1634 68.1951 85.1798 65.9707C85.1836 65.4879 85.1154 64.9444 84.7627 64.5438C84.5378 64.2872 84.2256 64.128 83.9185 64.0294C82.4031 63.5466 81.0571 64.3959 80.0498 65.3388C78.9035 66.413 77.9126 67.6529 77.105 69.0267C76.8257 69.5007 76.5805 70.0226 76.5552 70.5813C76.5375 70.9617 76.6146 71.2524 76.8168 71.5696C77.0885 71.9968 77.4285 72.3747 77.766 72.7501L77.7647 72.7513Z" fill="#D94862"/>
</svg>
