<svg width="74" height="63" viewBox="0 0 74 63" fill="none" xmlns="http://www.w3.org/2000/svg">
<rect width="74" height="63" rx="10" fill="#DAE1FE"/>
<path fill-rule="evenodd" clip-rule="evenodd" d="M40.4695 12.6118C43.9719 11.1408 52.1714 14.2463 53.0665 27.1624C53.8253 38.0899 60.9119 41.0125 60.2036 48.7178C59.8729 52.337 58.2034 56.034 55.67 58.3728C50.9183 62.7664 42.353 64.7317 39.6406 59.9606C36.5312 54.4968 33.2778 15.6278 40.4695 12.6079V12.6118Z" fill="#440908"/>
<path fill-rule="evenodd" clip-rule="evenodd" d="M30.2771 12.6118C26.7746 11.1408 18.5751 14.2463 17.68 27.1624C17.0924 35.6344 12.6988 39.6933 11.0838 44.7757C9.36373 50.1927 12.1618 60.0618 20.8205 61.918C25.0312 62.8209 29.6427 63.8132 31.1021 59.9645C33.3319 54.0882 37.4648 15.6317 30.2732 12.6118H30.2771Z" fill="#440908"/>
<path fill-rule="evenodd" clip-rule="evenodd" d="M20.4425 32.2761C20.3763 31.5522 17.4187 30.6961 16.4303 33.066C15.4418 35.4321 17.2202 38.7906 20.5748 39.0513" fill="#E4AE7C"/>
<path fill-rule="evenodd" clip-rule="evenodd" d="M17.813 34.7896C17.813 34.8946 17.7274 34.9841 17.6184 34.9841C17.5094 34.9841 17.4238 34.8985 17.4238 34.7896C17.4238 34.1085 17.56 33.6571 17.778 33.3925C17.9531 33.1784 18.1788 33.0773 18.4279 33.0695C18.6575 33.0656 18.9065 33.1434 19.1517 33.2835C19.7237 33.6065 20.3153 34.2875 20.6344 35.023C20.8367 35.4823 21.0002 35.9687 21.043 36.2411C21.0586 36.3306 21.0586 36.4084 21.0469 36.4668V36.4785C21.0119 36.6303 20.9224 36.7003 20.7667 36.6653C20.7044 36.6536 20.6422 36.6108 20.5721 36.5408C20.3114 36.2761 19.9962 36.1711 19.7471 36.1944C19.6576 36.2022 19.5798 36.2294 19.5175 36.2722C19.463 36.3112 19.4241 36.3656 19.4046 36.4357C19.3579 36.5991 19.4085 36.8404 19.6226 37.1556C19.6809 37.2451 19.6576 37.3658 19.5681 37.4241C19.4786 37.4825 19.3618 37.4592 19.2996 37.3736C19.0155 36.9494 18.9532 36.5914 19.0349 36.3267C19.0816 36.175 19.1711 36.0504 19.2957 35.9648C19.4124 35.8831 19.5564 35.8286 19.7121 35.813C19.9884 35.7858 20.3153 35.8675 20.611 36.0738C20.541 35.8247 20.4203 35.4978 20.2802 35.1787C19.9884 34.5171 19.4669 33.9062 18.961 33.6182C18.7742 33.5131 18.5913 33.4509 18.4356 33.4547C18.2994 33.4547 18.1749 33.5131 18.0776 33.6338C17.9142 33.8361 17.813 34.2019 17.813 34.7896Z" fill="#D67F54"/>
<path fill-rule="evenodd" clip-rule="evenodd" d="M57.8915 38.3469C59.6583 41.4096 61.0632 44.2037 60.2304 48.4338C59.4754 47.0796 58.0939 44.4761 54.4592 43.8612C32.6235 40.1798 55.1052 13.433 28.5957 18.8423C28.5957 18.8423 28.1832 15.0597 29.2534 12.0904C31.3354 6.29587 37.92 6.31144 42.5198 7.93034C49.8243 10.4988 52.0736 19.3716 53.5913 26.6527C54.7666 32.2838 55.0195 33.3696 57.8915 38.3508V38.3469Z" fill="#72130D"/>
<path fill-rule="evenodd" clip-rule="evenodd" d="M30.0627 10.9732C27.5798 7.8911 17.5435 12.0979 16.6484 25.014C15.8429 36.642 7.45651 39.8176 10.7721 50.5739C12.2704 41.0551 18.7148 42.8024 23.9023 35.1516C28.5255 28.3296 33.2732 14.9582 30.0627 10.9693V10.9732Z" fill="#72130D"/>
<path fill-rule="evenodd" clip-rule="evenodd" d="M31.074 12.7907C30.9922 12.8608 30.8716 12.853 30.8015 12.7712C30.7315 12.6895 30.7393 12.5689 30.821 12.4988C31.5137 11.8956 32.868 10.9617 34.5686 10.2573C36.2031 9.57627 38.1605 9.10539 40.1686 9.32331C42.1844 9.54513 44.2469 10.4635 46.076 12.565C47.0878 13.7286 48.0296 15.258 48.8507 17.2349C50.9327 22.2394 51.1739 25.8742 51.3646 28.7034C51.602 32.2836 51.7538 34.5446 55.5792 36.6655C55.6726 36.7161 55.7037 36.8329 55.6531 36.9263C55.6026 37.0196 55.4858 37.0508 55.3924 37.0002C51.3841 34.7781 51.2284 32.4354 50.9794 28.7306C50.7926 25.9287 50.5513 22.3328 48.4965 17.3828C47.691 15.4448 46.7726 13.9504 45.7841 12.8141C44.029 10.7943 42.0521 9.91483 40.1258 9.7008C38.1917 9.49065 36.2965 9.94986 34.7126 10.6075C33.0548 11.2963 31.7394 12.2031 31.0662 12.7868L31.074 12.7907Z" fill="#992317"/>
<path fill-rule="evenodd" clip-rule="evenodd" d="M30.8997 15.1683C30.8063 15.215 30.6895 15.1761 30.6428 15.0827C30.5961 14.9893 30.6351 14.8725 30.7284 14.8258C38.7023 10.8175 42.7651 13.1291 45.0144 17.5966C46.7734 21.0991 47.3961 25.9246 47.9253 30.0341C48.3612 33.4315 48.7348 36.3346 49.622 37.5371C50.8829 39.2455 52.6691 39.8292 54.4826 40.4207C55.9147 40.8877 57.3702 41.3625 58.631 42.3938C58.7128 42.4599 58.7244 42.5806 58.6583 42.6662C58.5921 42.7479 58.4715 42.7596 58.3859 42.6934C57.1795 41.7088 55.7591 41.2457 54.362 40.7865C52.4901 40.1756 50.6455 39.5763 49.3107 37.7628C48.3651 36.4786 47.9837 33.5287 47.5401 30.0808C47.0147 25.9986 46.3998 21.208 44.6681 17.764C42.5199 13.4871 38.6089 11.2884 30.8997 15.1644V15.1683Z" fill="#992317"/>
<path fill-rule="evenodd" clip-rule="evenodd" d="M30.8143 14.8027C30.9194 14.8027 31.0089 14.8845 31.0089 14.9934C31.0089 15.0985 30.9272 15.188 30.8182 15.188C27.02 15.2464 25.8136 18.8967 24.4438 23.0451C24.0274 24.3021 23.5993 25.6019 23.074 26.8783C22.2723 28.8202 21.2099 30.5675 19.7817 32.1825C18.3535 33.7936 16.5595 35.2646 14.2907 36.6578C14.2012 36.7123 14.0805 36.6851 14.0261 36.5917C13.9716 36.5022 13.9988 36.3815 14.0883 36.327C16.3221 34.9533 18.0889 33.5056 19.4898 31.9257C20.8908 30.3457 21.9298 28.6334 22.7159 26.7304C23.2296 25.4812 23.6616 24.1814 24.0741 22.9244C25.4906 18.6398 26.7359 14.865 30.8104 14.8027H30.8143Z" fill="#992317"/>
<path fill-rule="evenodd" clip-rule="evenodd" d="M30.8139 12.3513C30.9189 12.3707 30.989 12.468 30.9695 12.5731C30.9501 12.6782 30.8528 12.7482 30.7477 12.7288C25.1205 11.7597 23.56 15.196 20.5868 21.7494C20.2677 22.4577 19.8824 23.1037 19.431 23.7302C18.9835 24.3529 18.4698 24.9522 17.8899 25.5709C17.816 25.6488 17.6954 25.6527 17.6175 25.5787C17.5397 25.5048 17.5358 25.3841 17.6097 25.3063C18.1779 24.6992 18.6838 24.1116 19.1197 23.5045C19.5555 22.9013 19.9252 22.2748 20.2366 21.5938C23.2914 14.8574 24.8948 11.3278 30.8139 12.3513Z" fill="#992317"/>
<path d="M38.8814 39.1328C38.8814 39.1328 38.2782 46.3789 38.3911 47.3907C38.5001 48.4025 47.6803 52.154 49.4237 53.4188C51.1671 54.6835 51.2177 58.8397 50.6612 62.385H19.8166C19.2601 58.8397 19.3107 54.6835 21.0541 53.4188C22.7976 52.154 31.9778 48.4025 32.0868 47.3907C32.1957 46.3789 31.5925 39.1328 31.5925 39.1328H38.8814Z" fill="#E5805C"/>
<path d="M38.8807 39.1328H31.5918C31.5918 39.1328 31.9109 42.9777 32.0432 45.4566C34.2225 45.2971 36.394 44.9157 38.4993 44.2775C38.6472 41.9192 38.8807 39.1328 38.8807 39.1328Z" fill="#CC6144"/>
<path d="M35.2385 62.9967H51.7505C51.7505 62.9967 51.2679 53.7775 50.6608 53.3183C50.0537 52.8591 41.7452 48.9092 41.7452 48.9092C41.7452 48.9092 39.6282 50.7577 35.2385 50.7577C30.8488 50.7577 28.7318 48.9092 28.7318 48.9092C28.7318 48.9092 20.4233 52.863 19.8162 53.3183C19.2091 53.7736 18.7266 62.9967 18.7266 62.9967H35.2385Z" fill="#FFECE3"/>
<path d="M35.1179 54.0811C37.7797 52.4856 40.5583 51.0418 43.3563 49.6836C42.399 49.2244 41.7452 48.9131 41.7452 48.9131C41.7452 48.9131 39.6282 50.7616 35.2385 50.7616C30.8488 50.7616 28.7318 48.9131 28.7318 48.9131C28.7318 48.9131 20.4233 52.8669 19.8162 53.3222C19.2091 53.7776 18.7266 63.0006 18.7266 63.0006H25.2449C27.9535 59.4787 31.2185 56.4627 35.114 54.085L35.1179 54.0811Z" fill="#F9F7ED"/>
<path d="M44.8406 29.9948C44.8406 29.9948 46.8914 27.5937 48.8139 29.1814C50.7441 30.7731 49.5611 36.4781 44 36.2369L44.8406 29.9948Z" fill="#E5805C"/>
<path d="M45.5107 34.7234C45.8181 35.311 47.4603 35.1242 48.3632 33.4469C49.266 31.7736 48.9352 30.1002 48.4916 30.2948C48.048 30.4894 44.7752 33.3069 45.5146 34.7195L45.5107 34.7234Z" fill="#D87350"/>
<path d="M48.6196 30.3688L48.5923 30.291H48.5223L48.4872 30.2988C46.7555 30.9526 45.5024 32.5715 45.1327 34.6301C45.121 34.6885 45.1366 34.7469 45.1755 34.7936C45.2144 34.8403 45.2728 34.8675 45.3312 34.8675C45.4168 34.8675 45.4868 34.813 45.5102 34.7235C45.5141 34.708 45.518 34.6924 45.5219 34.6768C45.7515 34.8014 46.0044 34.8675 46.2613 34.8675C46.8333 34.8675 47.4715 34.5212 47.6 33.7428C47.6856 33.2175 47.4326 32.7855 46.9812 32.696C46.7088 32.6415 46.4208 32.7661 46.1756 32.9412C46.7399 31.8749 47.5416 31.0499 48.569 30.4817C48.6079 30.4584 48.6312 30.4117 48.6196 30.3688ZM47.1369 33.8752C46.9734 34.2604 46.631 34.49 46.2146 34.49C46.0083 34.49 45.8059 34.4355 45.6191 34.3305C45.7125 34.0191 45.8176 33.7234 45.9383 33.4393C46.1601 33.2681 46.4014 33.0968 46.6893 33.0151C46.8917 32.9567 47.0396 32.9918 47.1252 33.128C47.2497 33.3187 47.2303 33.6572 47.1408 33.879L47.1369 33.8752Z" fill="#CC6144"/>
<path d="M47.5448 29.174C47.0778 28.9794 46.171 29.2908 46.2061 29.8862C46.2138 30.0302 46.3423 30.143 46.4902 30.1002C46.9027 29.9874 47.1362 29.5359 47.5448 29.4075C47.6693 29.3686 47.6537 29.2168 47.5448 29.1701V29.174Z" fill="#F48462"/>
<path d="M25.6391 29.9948C25.6391 29.9948 23.5882 27.5937 21.6658 29.1814C19.7356 30.7731 20.9186 36.4781 26.4797 36.2369L25.6391 29.9948Z" fill="#E5805C"/>
<path d="M21.8484 30.4497C21.2335 30.403 21.8211 33.9677 23.2143 34.8666C24.6075 35.7695 25.3702 35.6566 25.1718 34.493C24.9733 33.3294 23.0859 30.5392 21.8484 30.4497Z" fill="#D87350"/>
<path d="M21.9916 30.2988L21.9566 30.291C21.9099 30.291 21.871 30.3221 21.8593 30.3688L21.8477 30.4506L21.906 30.4817C22.9334 31.0499 23.739 31.8749 24.2993 32.9412C24.0581 32.7661 23.7662 32.6415 23.4938 32.696C23.0424 32.7855 22.7855 33.2175 22.875 33.7428C23.0035 34.5212 23.6378 34.8675 24.2137 34.8675C24.4745 34.8675 24.7274 34.8014 24.9531 34.6768C24.957 34.6924 24.9609 34.708 24.9648 34.7235C24.9843 34.8091 25.0582 34.8675 25.1438 34.8675C25.2022 34.8675 25.2606 34.8403 25.2995 34.7936C25.3384 34.7469 25.3501 34.6924 25.3423 34.6301C24.9726 32.5715 23.7156 30.9526 21.9878 30.2988H21.9916ZM24.2643 34.49C23.8479 34.49 23.5016 34.2604 23.342 33.8752C23.2486 33.6572 23.2292 33.3148 23.3576 33.1241C23.4199 33.0307 23.5055 32.9879 23.6222 32.9879C23.6728 32.9879 23.7312 32.9957 23.7934 33.0151C24.0775 33.0968 24.3227 33.2681 24.5445 33.4393C24.6652 33.7195 24.7741 34.0191 24.8636 34.3305C24.6768 34.4355 24.4706 34.49 24.2682 34.49H24.2643Z" fill="#CC6144"/>
<path d="M35.239 14.8379C34.4373 14.8379 26.7165 16.9977 25.9965 20.9983C25.2766 24.9988 24.1558 30.4781 25.798 35.1597C27.4364 39.8413 34.1182 42.3902 35.239 42.3902C36.3598 42.3902 43.0416 39.8413 44.68 35.1597C46.3183 30.4781 45.2014 24.9988 44.4815 20.9983C43.7616 16.9977 36.0407 14.8379 35.239 14.8379Z" fill="#E5805C"/>
<path d="M27.8723 30.8249C27.7866 25.2755 29.3978 20.1464 32.1763 15.7256C29.6507 16.7102 26.4479 18.4925 25.9965 21.0026C25.2766 25.0031 24.1558 30.4824 25.798 35.164C27.3041 39.4642 33.0636 41.9626 34.8576 42.3401C34.6008 42.1922 34.3478 42.0365 34.1027 41.8692C30.4563 39.3864 27.9734 35.2846 27.8723 30.8249Z" fill="#CC6144"/>
<path d="M36.892 27.4542C36.3356 28.8708 35.8802 30.7854 36.4757 32.2564C36.569 32.486 36.9349 32.5444 37.0049 32.2564C37.1917 31.4976 37.0477 30.7426 36.9932 29.9682C36.9349 29.1354 36.9076 28.2948 36.9777 27.462C36.9816 27.4114 36.9076 27.4075 36.892 27.4503V27.4542Z" fill="#F48462"/>
<path d="M45.4847 30.1748C45.259 31.5679 44.9126 32.9028 44.4301 34.2298C43.8853 35.7319 42.963 36.9305 42.1808 38.2965C42.1146 38.4132 42.2586 38.5845 42.3753 38.4911C44.827 36.6231 45.3757 33.0351 45.5081 30.1748C45.5081 30.1592 45.4847 30.1592 45.4847 30.1748Z" fill="#F48462"/>
<path d="M31.8799 30.5212C31.0783 31.1516 29.9769 31.3968 28.9807 31.1711C27.9455 30.9376 27.4747 29.8947 27.0232 29.0657C26.9999 29.0229 26.9259 29.0424 26.9298 29.0891C27.0193 30.3733 27.5758 31.2995 28.8328 31.7042C29.8913 32.0428 31.3195 31.4474 31.8994 30.5368C31.9072 30.5251 31.8916 30.5134 31.8799 30.5212Z" fill="#CC6144"/>
<path d="M38.5938 30.5212C39.3955 31.1516 40.4968 31.3968 41.493 31.1711C42.5282 30.9376 42.9991 29.8947 43.4505 29.0657C43.4739 29.0229 43.5478 29.0424 43.5439 29.0891C43.4505 30.3733 42.894 31.2995 41.6409 31.7042C40.5824 32.0428 39.1542 31.4474 38.5744 30.5368C38.5666 30.5251 38.5821 30.5134 38.5938 30.5212Z" fill="#CC6144"/>
<g style="mix-blend-mode:multiply" opacity="0.4">
<path d="M45.0584 31.4895C45.3581 32.5947 44.2334 33.8634 42.5406 34.3265C40.8478 34.7857 39.2327 34.2642 38.9331 33.159C38.6334 32.0538 39.7581 30.7851 41.4509 30.3259C43.1438 29.8667 44.7588 30.3882 45.0584 31.4934V31.4895Z" fill="#E24D4D"/>
</g>
<g style="mix-blend-mode:multiply" opacity="0.4">
<path d="M25.4204 31.4895C25.1169 32.5947 26.2454 33.8634 27.9383 34.3265C29.6272 34.7857 31.2461 34.2642 31.5458 33.159C31.8454 32.0538 30.7208 30.7851 29.0279 30.3259C27.3351 29.8667 25.7201 30.3882 25.4204 31.4934V31.4895Z" fill="#E24D4D"/>
</g>
<path d="M35.66 35.1906C35.6016 35.0544 35.3992 34.9844 35.2747 34.9221C35.0762 34.8287 34.8817 34.7976 34.6715 34.8832C34.4847 34.961 34.5781 35.2101 34.7416 35.2373C34.8972 35.2646 35.049 35.2373 35.2086 35.2412C35.3409 35.2412 35.4926 35.3152 35.6172 35.2801C35.6561 35.2685 35.6794 35.2296 35.66 35.1906Z" fill="#CC6144"/>
<path d="M36.7264 35.1636C36.8236 35.1791 36.9443 35.0741 37.0299 35.0351C37.1544 34.9807 37.2829 34.9845 37.3451 34.8483C37.3685 34.7978 37.3451 34.7316 37.2984 34.7044C37.1622 34.6187 37.0377 34.7199 36.9248 34.8055C36.8392 34.8678 36.6758 34.9845 36.6719 35.0974C36.6719 35.1324 36.6952 35.1558 36.7264 35.1636Z" fill="#CC6144"/>
<path d="M40.1075 36.1133C37.5663 37.596 34.7411 38.1525 31.8535 37.4053C31.7912 37.3897 31.764 37.4831 31.8263 37.5026C34.5893 38.2186 37.7843 37.8567 40.127 36.1483C40.1464 36.1327 40.127 36.1055 40.1075 36.1172V36.1133Z" fill="#A8332D"/>
<path d="M31.8464 37.28C31.8075 37.3228 31.7686 37.3656 31.7336 37.4123C31.6869 37.4707 31.683 37.5251 31.7024 37.5952C31.718 37.6458 31.7919 37.673 31.827 37.6263C31.8659 37.5796 31.8892 37.5485 31.9048 37.4862C31.9165 37.4356 31.932 37.3889 31.9515 37.3422C31.9748 37.28 31.8892 37.2372 31.8464 37.28Z" fill="#A8332D"/>
<path d="M39.9551 36.0743C39.9551 36.1599 40.0251 36.23 40.1068 36.2494C40.2119 36.2728 40.2625 36.1405 40.1769 36.0782C40.138 36.0471 40.0991 36.0198 40.0524 36.0004C40.0057 35.9809 39.9551 36.0315 39.9551 36.0743Z" fill="#A8332D"/>
<path d="M32.7881 37.6461C33.7999 38.1948 35.0102 37.9185 36.0959 37.7745C37.2906 37.6188 38.283 37.183 39.3415 36.642C39.3726 36.6265 39.3493 36.572 39.3181 36.5837C37.24 37.3153 34.9245 37.0701 32.792 37.6188C32.7803 37.6188 32.7803 37.6383 32.792 37.6422L32.7881 37.6461Z" fill="#A8332D"/>
<path d="M32.3012 29.089C32.3012 29.089 31.8147 26.972 29.4603 26.2365C27.1059 25.4971 25.382 27.5285 26.9113 28.5754C28.4446 29.6222 32.3012 29.089 32.3012 29.089Z" fill="#3F1D2B"/>
<path d="M26.9229 28.3613C26.8607 28.7232 27.0786 30.9764 29.1528 31.3773C31.2309 31.7781 32.2155 30.3927 32.3205 29.4548C32.4295 28.5169 31.1531 27.0537 29.9817 26.793C28.8142 26.5322 27.1214 27.2094 26.919 28.3613H26.9229Z" fill="#F9F7ED"/>
<path d="M29.9846 26.789C28.8483 26.5361 27.2255 27.1665 26.9492 28.26C27.5563 28.0577 28.1828 27.9526 28.8327 27.9098C29.9574 27.8475 31.0626 27.9721 32.0005 28.6336C32.0783 28.6881 32.1484 28.7504 32.2223 28.8126C31.9032 27.9565 30.9108 26.9953 29.9846 26.789Z" fill="#E8E5DD"/>
<path d="M31.5379 29.0883C31.5379 30.03 30.7751 30.7967 29.8295 30.7967C28.8838 30.7967 28.1211 30.03 28.1211 29.0883C28.1211 28.1465 28.8838 27.3799 29.8295 27.3799C30.7751 27.3799 31.5379 28.1426 31.5379 29.0883Z" fill="#725F28"/>
<path d="M30.1052 28.023C30.4944 28.0658 30.9224 28.1086 31.3077 28.2409C31.0119 27.7311 30.4632 27.3848 29.8289 27.3848C29.2802 27.3848 28.7937 27.6455 28.4824 28.0463C29.0156 27.9529 29.5798 27.9607 30.1052 28.023Z" fill="#3D3F26"/>
<path d="M31.413 28.6528C31.413 28.8746 31.234 29.0536 31.0122 29.0536C30.7903 29.0536 30.6113 28.8746 30.6113 28.6528C30.6113 28.431 30.7903 28.252 31.0122 28.252C31.234 28.252 31.413 28.431 31.413 28.6528Z" fill="#A59568"/>
<path d="M38.1738 29.089C38.1738 29.089 38.6603 26.972 41.0147 26.2365C43.3691 25.4971 45.093 27.5285 43.5637 28.5754C42.0304 29.6222 38.1738 29.089 38.1738 29.089Z" fill="#3F1D2B"/>
<path d="M43.5545 28.3613C43.6168 28.7232 43.3988 30.9764 41.3246 31.3773C39.2465 31.7781 38.262 30.3927 38.153 29.4548C38.044 28.5169 39.3244 27.0537 40.4918 26.793C41.6632 26.5322 43.3521 27.2094 43.5545 28.3613Z" fill="#F9F7ED"/>
<path d="M40.4935 26.789C41.6299 26.5361 43.2526 27.1665 43.5289 28.26C42.9219 28.0577 42.2953 27.9526 41.6454 27.9098C40.5208 27.8475 39.4155 27.9721 38.4777 28.6336C38.3998 28.6881 38.3298 28.7504 38.2559 28.8126C38.575 27.9565 39.5673 26.9953 40.4935 26.789Z" fill="#E8E5DD"/>
<path d="M38.9395 29.0883C38.9395 30.03 39.7022 30.7967 40.6479 30.7967C41.5935 30.7967 42.3563 30.03 42.3563 29.0883C42.3563 28.1465 41.5935 27.3799 40.6479 27.3799C39.7022 27.3799 38.9395 28.1426 38.9395 29.0883Z" fill="#725F28"/>
<path d="M40.3685 28.023C39.9794 28.0658 39.5513 28.1086 39.166 28.2409C39.4618 27.7311 40.0105 27.3848 40.6448 27.3848C41.1935 27.3848 41.68 27.6455 41.9913 28.0463C41.4582 27.9529 40.8939 27.9607 40.3685 28.023Z" fill="#3D3F26"/>
<path d="M41.4004 28.6528C41.4004 28.8746 41.5794 29.0536 41.8012 29.0536C42.023 29.0536 42.2021 28.8746 42.2021 28.6528C42.2021 28.431 42.023 28.252 41.8012 28.252C41.5794 28.252 41.4004 28.431 41.4004 28.6528Z" fill="#A59568"/>
<path d="M44.4273 23.7728C43.0302 21.9865 39.4266 22.5975 37.9906 24.0179C37.8077 24.2008 38.0023 24.446 38.2202 24.411C39.162 24.2748 39.9948 23.7339 40.9326 23.5354C41.9444 23.3213 43.466 23.2046 44.3105 23.8856C44.3922 23.9518 44.4895 23.8545 44.4234 23.7728H44.4273Z" fill="#3F1D2B"/>
<path d="M26.164 23.8856C26.9774 23.2318 28.2772 23.3486 29.2578 23.4848C30.3163 23.6327 31.2114 24.2592 32.2544 24.411C32.4723 24.4421 32.6669 24.1969 32.484 24.0179C31.0519 22.5975 27.4444 21.9865 26.0512 23.7728C25.985 23.8545 26.0823 23.9518 26.164 23.8856Z" fill="#3F1D2B"/>
<path d="M36.34 38.7162C36.2038 38.6773 36.0287 38.6928 35.9158 38.7862C35.8614 38.829 35.8147 38.8835 35.7758 38.938C35.7329 39.0042 35.7252 39.0742 35.7174 39.152C35.7057 39.2844 35.873 39.3661 35.9781 39.3038C36.0209 39.2805 36.0637 39.261 36.0987 39.226C36.1299 39.1987 36.1532 39.1637 36.1883 39.1365C36.2272 39.1053 36.2661 39.0314 36.3361 39.008C36.4684 38.9613 36.4879 38.7629 36.3361 38.7201L36.34 38.7162Z" fill="#CC6144"/>
</svg>
