<svg width="134" height="134" viewBox="0 0 134 134" fill="none" xmlns="http://www.w3.org/2000/svg">
<path d="M0 10C0 4.47715 4.47715 0 10 0H124C129.523 0 134 4.47715 134 10V134H0V10Z" fill="#DAE1FE"/>
<path d="M67.8016 128.36C70.493 133.249 72.023 133.986 74.2206 127.63C77.3988 129.827 80.8204 132.032 84.9792 132.275C88.8876 132.275 91.0921 130.078 88.6442 126.406C92.8029 126.649 99.8895 126.649 102.087 122.254C105.265 116.384 96.4679 111.746 92.0658 110.028C95.2439 110.515 100.133 109.298 99.6461 105.382C99.4027 101.961 95.0005 100.493 92.3161 99.2694C95.0075 99.5128 99.8965 98.5392 99.8965 95.1176C100.14 92.1828 96.4749 90.7154 94.2773 89.7418C103.325 86.0768 99.1663 78.4964 92.0797 75.5616C94.2773 75.3182 97.6989 73.8508 97.6989 71.1595C97.4555 68.2247 92.0797 67.7379 92.0797 65.5403C92.0797 63.3427 96.9687 63.5861 95.9881 60.1645C95.2579 57.7165 91.0991 56.0057 89.3883 54.2949C93.7905 53.0709 93.5471 48.6757 89.3883 47.4517C86.4535 46.4711 83.0319 46.4711 80.0971 45.9843C86.9264 35.7126 68.351 34.4886 65.8752 41.0884C63.3994 34.4886 44.8241 35.7126 51.6673 45.9774C48.7325 46.4642 45.3109 46.4642 42.3761 47.4447C38.2173 48.6687 37.9739 53.0709 42.3761 54.2879C40.6653 55.9987 36.5065 57.7095 35.7763 60.1575C34.7957 63.5791 39.6847 63.3357 39.6847 65.5333C39.6847 67.7309 34.3089 68.2247 34.0655 71.1525C34.0655 73.8439 37.4871 75.3113 39.6847 75.5547C32.5981 78.4895 28.4394 86.0629 37.4871 89.7348C35.2895 90.7154 31.6175 92.1759 31.8679 95.1106C31.8679 98.5322 36.7569 99.5128 39.4483 99.2625C36.7569 100.486 32.3617 101.954 32.1183 105.375C31.6315 109.284 36.5204 110.508 39.6986 110.021C35.2965 111.732 26.4991 116.377 29.6773 122.247C31.8749 126.649 38.9684 126.649 43.1202 126.399C40.6792 130.064 42.8768 132.268 46.7852 132.268C50.944 132.025 54.3656 129.82 57.5438 127.623C59.7414 133.979 65.1242 133.242 67.8086 128.353L67.8016 128.36Z" fill="#72130D"/>
<path d="M50.7277 57.5568C46.9375 56.3606 47.6469 63.2386 47.633 65.0467C47.633 66.2499 46.3603 67.1887 45.6301 68.065C44.7608 69.1151 44.2809 70.2139 44.0653 71.5492C43.6689 73.9832 45.025 76.6746 46.8471 78.1976C47.5773 78.8027 48.3493 78.9139 49.2116 78.5036C49.3299 78.448 49.455 78.3923 49.5733 78.3298C50.1505 78.0585 50.2618 77.3839 50.1853 76.8276C49.9349 75.089 48.2241 74.171 47.7929 72.3211C47.327 70.3252 49.2881 68.6005 49.7054 66.7228C49.9697 65.5475 49.6776 64.247 49.5176 63.0786C49.1977 60.8184 49.3159 59.6987 50.8112 57.8975C50.9085 57.7793 50.8807 57.5985 50.7208 57.5498L50.7277 57.5568Z" fill="#440908"/>
<path d="M79.9226 57.5705C82.4193 59.7542 81.8699 62.5152 81.0423 65.436C80.8128 66.2358 81.4526 67.1121 82.3011 67.0912C85.9452 66.9869 84.3387 73.392 82.2733 74.6438C80.4581 75.7426 82.0716 78.4896 83.9284 77.4812C88.5045 74.9915 89.1095 63.8991 82.2941 64.4833C82.7114 65.0327 83.1356 65.589 83.5529 66.1384C84.1162 63.5931 84.4987 56.3396 79.9991 57.2646C79.867 57.2924 79.8114 57.4871 79.9157 57.5775L79.9226 57.5705Z" fill="#440908"/>
<path d="M81.0847 124.195C83.1502 124.195 86.8152 123.277 87.2742 120.989C87.9627 117.553 82.6912 115.488 80.3962 114.57C82.6912 113.652 86.3562 111.586 86.1267 108.839C85.8972 105.856 81.7732 104.715 79.4782 104.256C81.0847 102.65 86.1267 100.362 86.5857 98.0668C86.8152 95.3198 83.3727 94.6313 81.3142 94.4018C83.3797 92.1068 86.1267 89.3598 86.1267 86.1468C85.8972 81.7933 81.7732 80.6459 78.1013 81.1049L52.6966 79.4219C46.0481 82.6279 44.4416 91.3418 52.2376 94.5478C45.8186 98.2128 44.6711 108.074 54.0736 108.297C44.2191 109.444 41.6946 121.823 53.6146 121.135L81.0847 124.195Z" fill="#440908"/>
<path d="M66.1675 44.2521C65.7989 45.1701 65.8615 46.3385 65.625 47.319C65.3816 48.3413 65.0756 49.3219 65.1243 50.379C65.1521 51.0049 66.0145 50.984 66.0771 50.379C66.2092 49.162 66.4804 47.9658 66.6334 46.7488C66.7308 45.9629 66.9811 44.8154 66.2996 44.2173C66.2509 44.1756 66.1883 44.1965 66.1605 44.2521H66.1675Z" fill="#440908"/>
<path d="M52.0016 51.7779C50.6663 50.7277 45.4366 48.405 44.1778 50.6304C42.6339 53.3704 47.0013 55.0604 48.9555 55.7628C48.9903 55.4846 49.032 55.2134 49.0668 54.9352C46.7231 55.1856 42.161 55.6654 41.3334 58.4681C40.9301 59.8172 41.3056 60.6587 42.3418 61.5628C42.7035 61.8827 43.2529 62.1678 43.7049 62.3417C44.8037 62.752 44.2543 62.3626 43.3989 63.0858C39.2819 66.5631 36.7991 74.0252 44.2473 74.7971C44.6716 74.8389 44.6716 74.1712 44.2473 74.1295C36.5835 73.4063 40.7423 64.8731 45.221 62.7172C45.5131 62.5782 45.3948 62.1748 45.1375 62.0844C44.5255 61.8966 43.9274 61.6532 43.3641 61.3472C39.3166 59.3513 43.4754 57.0702 44.6507 56.5765C46.0346 55.9992 47.5855 55.8671 49.0598 55.7767C49.5606 55.7489 49.6023 55.123 49.1711 54.9491C48.4339 54.6501 47.7176 54.3232 47.0083 53.9616C46.3615 53.6347 42.4809 50.9086 46.5145 50.5747C48.4131 50.4148 50.1725 51.3676 51.932 51.8822C51.9877 51.8961 52.0433 51.8196 51.9946 51.7779H52.0016Z" fill="#992317"/>
<path d="M46.924 80.2147C45.3593 79.5401 43.9197 80.7641 42.9878 81.9742C41.583 83.7963 41.4022 85.9869 42.96 87.8507C43.0574 87.9689 44.4065 89.332 44.2605 89.4711C43.7389 89.9649 43.2104 90.4169 42.7235 90.9385C42.188 91.5088 41.8056 92.385 41.9377 93.1778C42.3063 95.3824 44.4274 96.2239 46.3885 96.6968V95.8692C43.718 96.2934 42.1046 97.9486 41.7638 100.591C41.437 103.109 44.6638 104.521 46.5276 105.119C46.4511 104.834 46.3746 104.548 46.2981 104.263C43.3981 106.607 39.8722 109.736 42.0698 113.791C43.6485 116.705 48.3706 116.767 51.1593 116.524C51.7922 116.468 51.813 115.536 51.1593 115.529C48.7322 115.474 46.1312 115.411 44.0032 114.125C39.7053 111.531 44.8168 106.829 47.0284 104.993C47.3413 104.736 47.1396 104.242 46.7989 104.131C45.0602 103.589 42.9878 102.831 42.7027 100.591C42.4106 98.2407 44.8168 97.0028 46.6111 96.6898C47.0284 96.6203 47.0075 95.9527 46.6111 95.8623C45.0602 95.5145 42.9739 94.9512 42.7305 93.0666C42.5427 91.627 44.4761 90.5282 45.3941 89.7145C45.5957 89.5407 45.5679 89.2138 45.3941 89.033C44.0171 87.5934 42.0003 85.7713 43.0713 83.3999C43.6068 82.2176 45.2828 80.3121 46.7641 80.5833C46.9797 80.625 47.1535 80.3051 46.924 80.2008V80.2147Z" fill="#992317"/>
<path d="M44.449 78.6712C42.3835 78.3443 40.6797 78.8103 39.4765 80.5837C37.9118 82.8925 39.6087 85.6396 41.2708 87.2599C41.083 87.0791 38.4751 89.1933 38.1413 89.4993C37.3207 90.2504 36.7782 91.224 36.4583 92.2741C35.735 94.6386 37.9952 96.3494 39.8104 97.2535C39.9564 96.9127 40.0955 96.5789 40.2415 96.2382C38.6003 95.5983 35.6864 96.2103 35.7976 98.5401C35.9367 101.384 38.5794 102.678 40.8953 103.742C40.9439 103.36 40.9996 102.97 41.0483 102.588C37.7379 103.902 33.7878 105.481 33.4401 109.507C33.1132 113.332 38.4751 114.424 41.2152 114.605V113.297C38.1969 113.659 33.7113 115.732 33.7808 119.431C33.8434 122.707 37.2998 124.098 40.1164 124.571C40.784 124.682 41.0135 123.82 40.3945 123.569C38.6003 122.839 36.5348 122.526 35.3178 120.85C32.9533 117.602 39.0176 114.841 41.2221 114.612C42.0567 114.528 42.0706 113.374 41.2221 113.304C38.8159 113.103 35.0396 112.532 34.7475 109.514C34.4485 106.357 39.1358 104.723 41.389 103.812C41.8341 103.631 42.0984 102.907 41.542 102.657C40.9787 102.4 40.4224 102.136 39.8729 101.85C39.4626 101.635 39.0662 101.398 38.6907 101.134C36.9034 100.133 37.3207 98.86 39.9564 97.3091C40.5475 97.5247 40.9509 96.565 40.3876 96.2938C34.9909 93.7206 38.5446 89.5688 42.4113 87.8372C42.6547 87.7259 42.7034 87.3225 42.5017 87.1556C41.3056 86.1681 40.3041 85.1597 39.7269 83.6714C38.4821 80.4446 41.8758 78.6434 44.442 78.9215C44.5811 78.9354 44.6159 78.699 44.4768 78.6781L44.449 78.6712Z" fill="#992317"/>
<path d="M84.7569 83.302C87.0936 82.836 91.0576 82.384 90.3483 86.2507C89.8962 88.7265 87.031 90.6042 85.3689 92.2872C85.0907 92.5723 85.3063 92.9965 85.6749 93.0243C88.714 93.2677 90.8838 95.5627 89.1452 98.6157C88.3176 100.062 86.5929 101.036 85.2437 101.926C84.8473 102.19 84.9447 102.99 85.5149 102.921C86.8015 102.761 87.7334 102.99 88.7766 103.887C91.009 105.807 88.1368 108.136 86.8989 109.082C85.7027 109.986 84.4718 110.772 83.4147 111.85C83.0878 112.184 83.1852 112.692 83.5538 112.935C86.1826 114.701 89.8823 117.316 85.9739 120.237C83.9919 121.718 81.1197 121.691 78.7691 121.677C78.2336 121.677 78.1641 122.414 78.6439 122.574C81.5996 123.554 86.5372 122.838 88.2967 119.917C90.6891 115.939 87.3926 113.665 84.2562 111.746C84.3049 112.107 84.3466 112.469 84.3953 112.831C86.1547 110.876 90.55 108.978 90.5708 105.918C90.5917 103.032 88.0533 101.509 85.3689 101.87C85.508 102.197 85.6401 102.517 85.7792 102.844C88.3176 101.126 90.7934 99.3459 90.8281 96.0217C90.8629 93.4138 87.7543 92.2663 85.6679 92.155C85.7722 92.3984 85.8696 92.6488 85.9739 92.8922C88.1507 90.5485 91.7461 87.9684 90.9325 84.3173C90.3761 81.8207 86.3077 82.5579 84.6526 82.9404C84.4161 82.996 84.5204 83.3507 84.7499 83.302H84.7569Z" fill="#992317"/>
<path d="M68.7478 50.0527C70.0691 49.1208 71.3627 48.3141 72.9066 47.7786C77.7677 46.1026 78.2684 51.8818 77.8234 54.9417C77.7886 55.199 78.0181 55.4424 78.2824 55.2964C80.5773 54.0098 86.3078 52.1599 85.5359 57.4175C85.1951 59.7681 83.3869 61.8614 82.5663 64.0729C82.4203 64.4693 82.9488 64.678 83.22 64.4485C85.4455 62.5569 90.7169 64.4972 88.9644 68.1204C88.2481 69.6017 86.6555 70.7423 85.5359 71.9037C85.3064 72.1401 85.4524 72.6547 85.828 72.613C87.2953 72.46 92.0452 72.008 90.5083 75.1723C89.7364 76.7648 88.116 77.9471 87.0589 79.3658C86.8572 79.6301 87.1284 80.0334 87.4344 80.0195C89.4304 79.943 91.3637 80.1377 93.1301 81.1461C97.1915 83.455 92.8102 87.9824 90.7934 89.8462C90.5431 90.0757 90.6543 90.5694 91.0021 90.632C94.1594 91.2162 96.5309 93.4347 94.5071 96.7867C93.5196 98.428 91.5793 99.5616 90.0841 100.681C89.7364 100.939 89.799 101.391 90.1954 101.557C93.297 102.795 95.2095 105.494 92.5529 108.484C91.5306 109.632 90.0771 110.438 88.8114 111.294C88.4846 111.516 88.5263 112.017 88.9227 112.135C90.8282 112.692 92.7824 113.199 94.3402 114.5C98.0609 117.601 92.6503 119.271 90.5431 119.66C90.1119 119.743 90.2093 120.488 90.6474 120.439C92.9493 120.161 96.211 119.41 96.1136 116.537C96.0093 113.477 91.4611 112.01 89.1591 111.252C89.1939 111.53 89.2287 111.815 89.2704 112.094C91.3011 110.779 94.6114 109.006 94.8131 106.238C95.0287 103.234 93.0397 101.676 90.4457 100.639C90.4805 100.932 90.5222 101.224 90.557 101.516C92.6433 99.944 96.0441 97.9481 96.2527 94.9994C96.4752 91.8908 94.069 90.2287 91.2455 89.7279C91.315 89.9922 91.3846 90.2565 91.4541 90.5138C93.3735 88.7126 96.6908 85.5761 95.3625 82.5648C94.0134 79.5049 90.4318 79.0181 87.4275 79.1432C87.5527 79.3588 87.6778 79.5814 87.803 79.797C89.1105 78.0375 92.4973 75.7217 91.4819 73.1763C90.7169 71.2499 87.3718 71.6185 85.821 71.7785C85.9184 72.0149 86.0157 72.2514 86.1131 72.4878C87.5805 70.9509 91.9827 67.4806 89.7085 64.8936C88.0256 62.9811 84.7083 62.1326 82.6498 63.8921C82.8654 64.0173 83.0809 64.1425 83.3035 64.2677C84.1937 61.8475 87.5318 57.9391 86.1409 55.1434C84.8474 52.5424 81.9613 53.0292 79.6385 53.8985C79.2212 54.0515 78.8248 54.2671 78.4284 54.4619C78.8596 54.2393 78.5953 52.0208 78.5744 51.6175C78.4979 50.0527 77.8164 48.8287 76.662 47.8273C74.214 45.7062 70.5281 48.2585 68.5392 49.712C68.3444 49.8511 68.5322 50.1779 68.7269 50.0319L68.7478 50.0527Z" fill="#992317"/>
<path d="M65.7852 48.1893C64.9994 44.253 60.7015 41.9163 56.967 43.8358C53.2811 45.7343 55.3535 49.0308 58.643 49.754C59.0185 49.8375 59.415 49.3298 59.0533 49.0447C55.1936 45.9499 46.6118 54.2675 51.1322 55.867C51.4312 55.9713 51.5912 55.5262 51.3408 55.3732C48.4756 53.6207 55.736 47.3547 58.4483 49.6428C58.5874 49.4063 58.7265 49.1699 58.8586 48.9334C57.7042 48.6483 56.7444 48.2936 55.9794 47.2991C54.4356 45.2893 57.8015 44.3226 58.7404 44.0583C61.7308 43.2029 64.6934 45.5466 65.5279 48.2519C65.5766 48.4049 65.7991 48.3423 65.7713 48.1823L65.7852 48.1893Z" fill="#992317"/>
<path d="M72.601 91.3486C72.601 91.3486 71.5231 104.298 71.7178 106.106C71.9125 107.914 88.3181 114.618 91.4337 116.878C94.5493 119.139 94.6397 126.566 93.6452 132.902H38.5311C37.5366 126.566 37.627 119.139 40.7426 116.878C43.8582 114.611 60.2568 107.914 60.4585 106.106C60.6532 104.298 59.5753 91.3486 59.5753 91.3486H72.601Z" fill="#E5805C"/>
<path d="M72.5999 91.3486H59.5742C59.5742 91.3486 60.1445 98.2196 60.3809 102.65C64.2754 102.365 68.1491 101.683 71.9184 100.542C72.1896 96.328 72.5999 91.3486 72.5999 91.3486Z" fill="#CC6144"/>
<path d="M66.0918 133.994H95.5996C95.5996 133.994 94.7372 117.518 93.6523 116.698C92.5674 115.884 77.7196 108.818 77.7196 108.818C77.7196 108.818 73.9364 112.122 66.0918 112.122C58.2471 112.122 54.4639 108.818 54.4639 108.818C54.4639 108.818 39.6161 115.877 38.5312 116.698C37.4463 117.511 36.584 133.994 36.584 133.994H66.0918Z" fill="#FFECE3"/>
<path d="M65.8762 118.061C70.633 115.209 75.5985 112.629 80.5988 110.202C78.888 109.382 77.7196 108.825 77.7196 108.825C77.7196 108.825 73.9364 112.129 66.0918 112.129C58.2471 112.129 54.4639 108.825 54.4639 108.825C54.4639 108.825 39.6161 115.884 38.5312 116.705C37.4463 117.518 36.584 134 36.584 134H48.2327C53.073 127.707 58.9078 122.317 65.8692 118.068L65.8762 118.061Z" fill="#F9F7ED"/>
<path d="M83.2483 75.0182C83.2483 75.0182 86.9133 70.7273 90.3488 73.5647C93.7982 76.4091 91.684 86.6043 81.7461 86.1731L83.2483 75.0182Z" fill="#E5805C"/>
<path d="M84.4452 83.475C84.9946 84.5252 87.9294 84.1913 89.5359 81.194C91.1493 78.2036 90.5582 75.2131 89.7654 75.5609C88.9726 75.9086 83.1169 80.9436 84.4452 83.4681V83.475Z" fill="#D87350"/>
<path d="M90.0017 75.6928L89.953 75.5537H89.8278L89.7652 75.5676C86.6774 76.736 84.4311 79.629 83.7704 83.3079C83.7496 83.4123 83.7774 83.5166 83.8469 83.6C83.9165 83.6835 84.0208 83.7322 84.1251 83.7322C84.2781 83.7322 84.4033 83.6348 84.445 83.4748C84.452 83.447 84.4589 83.4192 84.4659 83.3914C84.8762 83.6139 85.3282 83.7322 85.7872 83.7322C86.8095 83.7322 87.9501 83.1132 88.1796 81.7223C88.3326 80.7835 87.8805 80.0115 87.0738 79.8516C86.587 79.7542 86.0724 79.9768 85.6412 80.2897C86.6496 78.3842 88.0822 76.9098 89.9182 75.8945C89.9877 75.8528 90.0295 75.7693 90.0086 75.6928H90.0017ZM87.352 81.9588C87.0599 82.6473 86.4479 83.0576 85.7038 83.0576C85.3352 83.0576 84.9736 82.9602 84.6398 82.7724C84.8067 82.2161 84.9944 81.6875 85.21 81.1799C85.6064 80.8739 86.0376 80.5679 86.5522 80.4218C86.9139 80.3175 87.1712 80.3801 87.3311 80.6235C87.5606 80.9643 87.5189 81.5693 87.359 81.9657L87.352 81.9588Z" fill="#CC6144"/>
<path d="M88.0816 73.5574C87.2471 73.2097 85.6267 73.7661 85.6893 74.8301C85.7032 75.0874 85.9327 75.2891 86.1969 75.2126C86.9341 75.0109 87.3514 74.2042 88.0816 73.9747C88.3041 73.9051 88.2763 73.6339 88.0816 73.5505V73.5574Z" fill="#F48462"/>
<path d="M48.9349 75.0182C48.9349 75.0182 45.2699 70.7273 41.8344 73.5647C38.3781 76.4091 40.4992 86.6043 50.4371 86.1731L48.9349 75.0182Z" fill="#E5805C"/>
<path d="M42.1606 75.8319C41.0618 75.7484 42.1119 82.1187 44.6016 83.7252C47.0844 85.3386 48.4544 85.1369 48.0997 83.0576C47.7451 80.9782 44.3721 75.9918 42.1606 75.8319Z" fill="#D87350"/>
<path d="M42.4194 75.5676L42.3568 75.5537C42.2734 75.5537 42.2038 75.6093 42.183 75.6928L42.1621 75.8388L42.2664 75.8945C44.1024 76.9098 45.535 78.3842 46.5434 80.2897C46.1122 79.9768 45.5907 79.7542 45.1038 79.8516C44.2971 80.0115 43.8381 80.7835 43.9981 81.7223C44.2276 83.1132 45.3681 83.7322 46.3904 83.7322C46.8564 83.7322 47.3084 83.6139 47.7118 83.3914C47.7187 83.4192 47.7257 83.447 47.7326 83.4748C47.7744 83.6278 47.8995 83.7322 48.0525 83.7322C48.1569 83.7322 48.2681 83.6835 48.3307 83.6C48.4003 83.5166 48.4281 83.4123 48.4072 83.3079C47.7465 79.629 45.5003 76.736 42.4125 75.5676H42.4194ZM46.4808 83.0506C45.7367 83.0506 45.1178 82.6403 44.8326 81.9518C44.6657 81.5624 44.6309 80.9504 44.8604 80.6096C44.9717 80.4427 45.1247 80.3662 45.3333 80.3662C45.4238 80.3662 45.5281 80.3801 45.6393 80.4149C46.147 80.5609 46.5851 80.8669 46.9746 81.1729C47.1902 81.6736 47.3849 82.2091 47.5449 82.7655C47.2111 82.9533 46.8425 83.0506 46.4808 83.0506Z" fill="#CC6144"/>
<path d="M66.0916 47.9385C64.6589 47.9385 50.8613 51.7982 49.5747 58.9474C48.2881 66.0966 46.2852 75.8885 49.22 84.2547C52.1479 92.6209 64.0887 97.1761 66.0916 97.1761C68.0944 97.1761 80.0353 92.6209 82.9631 84.2547C85.8909 75.8885 83.888 66.0966 82.6084 58.9474C81.3218 51.7982 67.5242 47.9385 66.0916 47.9385Z" fill="#E5805C"/>
<path d="M52.9268 76.4999C52.7738 66.5829 55.6529 57.4169 60.6184 49.5166C56.1049 51.2761 50.3814 54.4612 49.5747 58.9469C48.2881 66.096 46.2852 75.8879 49.22 84.2541C51.9114 91.9388 62.1971 96.4036 65.41 97.0782C64.951 96.8139 64.499 96.5357 64.0609 96.2367C57.5445 91.7997 53.1076 84.4697 52.9268 76.4999Z" fill="#CC6144"/>
<path d="M69.0477 70.4779C68.0533 73.0093 67.2396 76.4378 68.3106 79.0666C68.4775 79.4769 69.1312 79.5812 69.2564 79.0666C69.5902 77.7035 69.3329 76.3613 69.2355 74.9774C69.1312 73.4891 69.0825 71.987 69.2077 70.4987C69.2147 70.4014 69.0825 70.4014 69.0547 70.4779H69.0477Z" fill="#F48462"/>
<path d="M84.4029 75.3461C83.9996 77.8358 83.3806 80.2211 82.5183 82.5926C81.5446 85.277 79.8964 87.419 78.4986 89.86C78.3804 90.0687 78.6377 90.3747 78.8463 90.2078C83.2276 86.8696 84.2012 80.4576 84.4516 75.3461C84.4516 75.3182 84.4099 75.3182 84.4099 75.3461H84.4029Z" fill="#F48462"/>
<path d="M60.0905 75.9579C58.6579 77.0845 56.6898 77.5226 54.9094 77.1193C53.0595 76.702 52.218 74.8382 51.4113 73.3569C51.3696 73.2804 51.2375 73.3082 51.2444 73.3986C51.4044 75.6936 52.3988 77.3488 54.6451 78.072C56.5368 78.6771 59.089 77.613 60.1253 75.9857C60.1392 75.9648 60.1113 75.944 60.0905 75.9579Z" fill="#CC6144"/>
<path d="M72.0873 75.9579C73.52 77.0845 75.4881 77.5226 77.2684 77.1193C79.1183 76.702 79.9598 74.8382 80.7665 73.3569C80.8082 73.2804 80.9404 73.3082 80.9334 73.3986C80.7735 75.6936 79.779 77.3488 77.5327 78.072C75.6411 78.6771 73.0888 77.613 72.0526 75.9857C72.0387 75.9648 72.0665 75.944 72.0873 75.9579Z" fill="#CC6144"/>
<g style="mix-blend-mode:multiply" opacity="0.4">
<path d="M83.6382 77.6958C84.1737 79.6708 82.1638 81.938 79.1386 82.7656C76.1134 83.5862 73.2273 82.6543 72.6918 80.6792C72.1563 78.7042 74.1662 76.437 77.1914 75.6164C80.2166 74.7957 83.1027 75.7276 83.6382 77.7027V77.6958Z" fill="#E24D4D"/>
</g>
<g style="mix-blend-mode:multiply" opacity="0.4">
<path d="M48.5453 77.6958C48.0099 79.6708 50.0197 81.938 53.0449 82.7656C56.0631 83.5862 58.9562 82.6543 59.4917 80.6792C60.0272 78.7042 58.0173 76.437 54.9921 75.6164C51.9669 74.7957 49.0808 75.7276 48.5453 77.7027V77.6958Z" fill="#E24D4D"/>
</g>
<path d="M66.8492 84.3032C66.7449 84.0598 66.3833 83.9276 66.1607 83.8233C65.8061 83.6564 65.4583 83.6008 65.0828 83.7538C64.749 83.8928 64.9089 84.3379 65.208 84.3866C65.4862 84.4353 65.7574 84.3866 66.0425 84.3936C66.279 84.3936 66.5502 84.5257 66.7727 84.4631C66.8423 84.4422 66.884 84.3727 66.8492 84.3032Z" fill="#CC6144"/>
<path d="M68.7478 84.2546C68.9216 84.2825 69.1372 84.0947 69.2902 84.0252C69.5127 83.9278 69.7422 83.9347 69.8535 83.6913C69.8883 83.6009 69.8466 83.4827 69.7701 83.434C69.5267 83.281 69.3041 83.4618 69.1024 83.6148C68.9494 83.7261 68.6573 83.9347 68.6504 84.1364C68.6504 84.199 68.6921 84.2407 68.7478 84.2546Z" fill="#CC6144"/>
<path d="M74.7918 85.9512C70.2505 88.6008 65.2016 89.5953 60.0414 88.2601C59.9301 88.2322 59.8814 88.4061 59.9927 88.4339C64.9303 89.7135 70.64 89.0668 74.8265 86.0138C74.8613 85.9929 74.8265 85.9373 74.7918 85.9581V85.9512Z" fill="#A8332D"/>
<path d="M60.034 88.0445C59.9645 88.121 59.8949 88.1975 59.8323 88.281C59.7489 88.3853 59.7489 88.4827 59.7836 88.6079C59.8115 88.6983 59.9436 88.7469 60.0062 88.6635C60.0757 88.58 60.1175 88.5244 60.1453 88.4131C60.1661 88.3227 60.194 88.2393 60.2287 88.1558C60.2705 88.0445 60.1175 87.968 60.041 88.0445H60.034Z" fill="#A8332D"/>
<path d="M74.5215 85.8888C74.5215 86.0418 74.6467 86.174 74.7927 86.2018C74.9805 86.2435 75.0778 86.0071 74.9248 85.8958C74.8483 85.8401 74.7858 85.7915 74.7023 85.7567C74.6119 85.7219 74.5284 85.8123 74.5284 85.8888H74.5215Z" fill="#A8332D"/>
<path d="M61.7099 88.6983C63.518 89.6789 65.6809 89.1852 67.6212 88.9278C69.7562 88.6497 71.5296 87.8708 73.4212 86.9041C73.4768 86.8763 73.4351 86.7789 73.3795 86.7998C69.6658 88.1072 65.5279 87.6691 61.7168 88.6566C61.696 88.6566 61.696 88.6914 61.7168 88.6983H61.7099Z" fill="#A8332D"/>
<path d="M60.8488 73.4051C60.8488 73.4051 59.9726 69.6219 55.7721 68.3075C51.5646 66.9861 48.4838 70.6164 51.2169 72.4871C53.957 74.3579 60.8488 73.4051 60.8488 73.4051Z" fill="#3F1D2B"/>
<path d="M51.2289 72.0984C51.1176 72.7522 51.5001 76.7718 55.2138 77.4881C58.9275 78.2045 60.6869 75.7287 60.8747 74.0526C61.0694 72.3766 58.7884 69.7617 56.6951 69.2958C54.6087 68.8298 51.5835 70.0399 51.2219 72.0984H51.2289Z" fill="#F9F7ED"/>
<path d="M56.7038 69.2957C54.6731 68.8437 51.7731 69.9703 51.2793 71.9245C52.3642 71.5629 53.4839 71.3751 54.6453 71.2986C56.6551 71.1873 58.6302 71.4099 60.3131 72.5921C60.4522 72.6895 60.5774 72.8007 60.7096 72.912C60.1393 71.382 58.3659 69.6643 56.7107 69.2957H56.7038Z" fill="#E8E5DD"/>
<path d="M59.4791 73.4055C59.4791 75.0885 58.116 76.4586 56.4261 76.4586C54.7361 76.4586 53.373 75.0955 53.373 73.4055C53.373 71.7156 54.7361 70.3525 56.4261 70.3525C58.116 70.3525 59.4791 71.7226 59.4791 73.4055Z" fill="#725F28"/>
<path d="M56.9195 71.4931C57.615 71.5696 58.38 71.6461 59.0685 71.8825C58.5399 70.9715 57.5594 70.3525 56.4258 70.3525C55.4452 70.3525 54.5759 70.8185 54.0195 71.5348C54.9723 71.3679 55.9807 71.3818 56.9195 71.4931Z" fill="#3D3F26"/>
<path d="M59.2549 72.6196C59.2549 73.016 58.935 73.3359 58.5386 73.3359C58.1422 73.3359 57.8223 73.016 57.8223 72.6196C57.8223 72.2232 58.1422 71.9033 58.5386 71.9033C58.935 71.9033 59.2549 72.2232 59.2549 72.6196Z" fill="#A59568"/>
<path d="M71.3359 73.4051C71.3359 73.4051 72.2052 69.6219 76.4127 68.3075C80.6201 66.9861 83.701 70.6164 80.9679 72.4871C78.2278 74.3579 71.3359 73.4051 71.3359 73.4051Z" fill="#3F1D2B"/>
<path d="M80.9544 72.0984C81.0656 72.7522 80.6762 76.7718 76.9695 77.4881C73.2558 78.2045 71.4963 75.7287 71.3085 74.0526C71.1138 72.3766 73.3949 69.7617 75.4882 69.2958C77.5745 68.8298 80.5997 70.0399 80.9613 72.0984H80.9544Z" fill="#F9F7ED"/>
<path d="M75.4812 69.2957C77.5119 68.8437 80.412 69.9703 80.9057 71.9245C79.8208 71.5629 78.7012 71.3751 77.5398 71.2986C75.5299 71.1873 73.5549 71.4099 71.8788 72.5921C71.7397 72.6895 71.6146 72.8007 71.4824 72.912C72.0527 71.382 73.8261 69.6643 75.4812 69.2957Z" fill="#E8E5DD"/>
<path d="M72.7051 73.4055C72.7051 75.0885 74.0682 76.4586 75.7581 76.4586C77.448 76.4586 78.8111 75.0955 78.8111 73.4055C78.8111 71.7156 77.448 70.3525 75.7581 70.3525C74.0682 70.3525 72.7051 71.7226 72.7051 73.4055Z" fill="#725F28"/>
<path d="M75.2642 71.4931C74.5687 71.5696 73.8037 71.6461 73.1152 71.8825C73.6438 70.9715 74.6244 70.3525 75.7579 70.3525C76.7385 70.3525 77.6078 70.8185 78.1642 71.5348C77.2114 71.3679 76.203 71.3818 75.2642 71.4931Z" fill="#3D3F26"/>
<path d="M77.1016 72.6196C77.1016 73.016 77.4215 73.3359 77.8179 73.3359C78.2143 73.3359 78.5342 73.016 78.5342 72.6196C78.5342 72.2232 78.2143 71.9033 77.8179 71.9033C77.4215 71.9033 77.1016 72.2232 77.1016 72.6196Z" fill="#A59568"/>
<path d="M82.5114 63.899C80.0147 60.7069 73.5749 61.7987 71.0087 64.3371C70.6818 64.664 71.0296 65.1021 71.419 65.0395C73.102 64.7961 74.5903 63.8295 76.2593 63.4748C78.0744 63.0923 80.7867 62.8836 82.2958 64.1007C82.4418 64.2189 82.6157 64.045 82.5044 63.899H82.5114Z" fill="#3F1D2B"/>
<path d="M49.8738 64.1075C51.3273 62.9392 53.6501 63.1478 55.4026 63.3912C57.2942 63.6555 58.8938 64.7751 60.7575 65.0464C61.147 65.102 61.4947 64.6639 61.1679 64.344C58.6086 61.8056 52.1618 60.7137 49.6652 63.9058C49.5539 64.0519 49.7208 64.2257 49.8669 64.1075H49.8738Z" fill="#3F1D2B"/>
<path d="M68.0669 90.6107C67.8235 90.5412 67.5105 90.569 67.3088 90.7359C67.2115 90.8124 67.128 90.9098 67.0585 91.0141C66.982 91.1323 66.9681 91.2575 66.9542 91.3966C66.9333 91.633 67.2323 91.7791 67.4201 91.6678C67.4966 91.6261 67.5731 91.5844 67.6357 91.5287C67.6913 91.4801 67.7331 91.4175 67.7957 91.3688C67.8652 91.3131 67.9347 91.181 68.0599 91.1393C68.2964 91.0558 68.3311 90.7012 68.0599 90.6247L68.0669 90.6107Z" fill="#CC6144"/>
<path d="M35 21.0289C38.2346 22.0032 43.5564 22.5444 44.5287 18.4372C44.8398 16.9217 43.4397 15.247 41.871 15.852C40.4968 16.4059 39.706 18.2462 40.1338 19.6726C41.2811 24.0981 47.3938 24.9896 48.9754 20.3348C49.1504 19.8254 49.3578 19.2077 48.8004 18.8384C48.4179 18.5582 47.7114 18.52 47.4002 18.8894C47.2187 19.1122 47.1345 19.4051 47.0761 19.7235C46.7131 21.6848 48.3661 23.404 50.3431 23.9262C51.9247 24.3719 53.7008 23.958 55.1852 23.0538C56.6502 22.0732 58.7828 20.3667 58.3355 18.4309C57.8234 17.2401 55.801 17.2974 54.9454 18.1507C53.636 19.5707 54.7898 21.9458 56.2937 22.831C59.1458 24.4165 63.612 23.1748 65.8937 20.9971C67.4818 19.558 67.0604 16.1258 64.3574 16.788C63.6703 16.979 63.0091 17.4439 62.7239 18.0361C62.0174 19.3606 62.6396 21.1754 63.7092 22.2069C65.5631 23.9962 68.5319 24.1682 70.9367 23.3149C73.4842 22.4107 75.6233 20.3985 77.367 18.329C77.8401 17.6986 78.5272 17.1255 78.7087 16.3423C78.8514 15.7564 78.5272 15.0942 78.1707 14.9732C77.7883 14.7886 76.9715 14.9732 76.453 15.4317C75.2668 16.4951 75.176 18.2781 75.714 19.7108C77.5744 24.6266 85.7613 24.6967 89.4172 21.8567C91.3229 20.3667 91.8868 17.3547 89.9487 15.8074C87.5503 14.0308 85.2297 16.7243 85.3399 19.1441C85.2946 20.9015 86.6882 22.4234 88.3671 23.2385C90.0654 24.0854 92.0489 24.3719 94 24.3592C91.1155 24.6457 87.7189 24.2892 85.6122 22.0414C83.3046 19.6726 84.1343 14.9923 87.4596 13.8907C90.571 12.9738 93.5074 16.0048 93.1184 18.9912C92.0748 26.3014 80.5108 27.4857 75.727 23.1302C73.2184 20.8188 72.4535 16.4378 75.2084 13.9735C77.6781 11.8658 81.2173 13.3622 80.6274 16.718C80.5043 17.342 80.1737 17.966 79.8107 18.399C78.8838 19.5771 77.9179 20.7041 76.8225 21.7484C73.9055 24.6521 69.4264 26.677 65.213 25.2698C61.9072 24.2955 59.3467 20.4622 61.0191 17.1573C63.2554 13.2412 69.1153 14.432 68.8041 19.1313C68.3828 24.3592 59.444 27.0145 55.2954 24.4547C52.7609 22.9583 51.3349 19.125 53.5971 16.8071C55.0037 15.4699 57.1428 15.2279 58.88 16.2022C62.4841 18.7174 58.9837 23.1239 56.2483 24.6776C53.461 26.4987 49.4162 26.5433 46.9206 24.1554C45.1445 22.6081 44.4055 19.5643 46.0001 17.6158C47.5558 15.8774 50.8033 16.8007 51.1274 19.1059C51.2636 20.857 50.2783 22.538 49.0402 23.7543C46.4863 26.3077 42.072 25.62 39.8032 23.0475C38.6365 21.8121 37.9299 20.0419 38.2281 18.3163C38.5781 16.0748 40.808 13.7188 43.31 14.4638C46.4668 15.4826 46.2853 19.6853 43.7379 21.2136C41.0996 23.0156 37.729 22.035 35.0389 21.0353L35 21.0289Z" fill="#72130D"/>
</svg>
