<svg width="74" height="64" viewBox="0 0 74 64" fill="none" xmlns="http://www.w3.org/2000/svg">
<rect width="74" height="63" rx="10" fill="#DAE1FE"/>
<path fill-rule="evenodd" clip-rule="evenodd" d="M47.631 37.3644C47.631 37.3644 47.9081 40.9121 49.5083 42.2352C51.1085 43.5583 54.8669 45.3653 55.3548 51.3523C55.8427 57.3394 51.9437 61.9994 51.9437 61.9994C51.9437 61.9994 52.3652 59.2518 50.6206 56.43C48.2555 52.6013 37.4288 54.7439 34.0567 45.0843C30.1968 34.0352 41.8157 20.6132 47.6271 37.3605L47.631 37.3644Z" fill="#72130D"/>
<path d="M37.5921 39.3945C37.5921 39.3945 36.9871 46.6617 37.1003 47.6765C37.2096 48.6912 46.4165 52.4536 48.165 53.722C49.9135 54.9905 49.9642 59.1588 49.4061 62.7143H18.4718C17.9137 59.1588 17.9645 54.9905 19.7129 53.722C21.4614 52.4536 30.6684 48.6912 30.7776 47.6765C30.8869 46.6617 30.282 39.3945 30.282 39.3945H37.5921Z" fill="#E5805C"/>
<path d="M37.5914 39.3945H30.2812C30.2812 39.3945 30.6013 43.2506 30.734 45.7367C32.9196 45.5767 35.0974 45.1942 37.2089 44.5542C37.3572 42.189 37.5914 39.3945 37.5914 39.3945Z" fill="#CC6144"/>
<path d="M33.9389 63.3277H50.4988C50.4988 63.3277 50.0149 54.0817 49.406 53.6212C48.7972 53.1607 40.4645 49.1992 40.4645 49.1992C40.4645 49.1992 38.3413 51.0531 33.9389 51.0531C29.5364 51.0531 27.4132 49.1992 27.4132 49.1992C27.4132 49.1992 19.0806 53.1646 18.4717 53.6212C17.8629 54.0778 17.3789 63.3277 17.3789 63.3277H33.9389Z" fill="#FFECE3"/>
<path d="M33.814 54.3862C36.4835 52.786 39.2702 51.338 42.0764 49.9759C41.1163 49.5154 40.4606 49.2031 40.4606 49.2031C40.4606 49.2031 38.3374 51.057 33.935 51.057C29.5325 51.057 27.4093 49.2031 27.4093 49.2031C27.4093 49.2031 19.0767 53.1685 18.4678 53.6251C17.859 54.0817 17.375 63.3316 17.375 63.3316H23.9123C26.6288 59.7995 29.9033 56.7747 33.8101 54.3901L33.814 54.3862Z" fill="#F9F7ED"/>
<path d="M43.5657 30.2302C43.5657 30.2302 45.6225 27.8221 47.5505 29.4145C49.4864 31.0107 48.2999 36.7324 42.7227 36.4904L43.5657 30.2302Z" fill="#E5805C"/>
<path d="M44.2336 34.9717C44.5419 35.561 46.189 35.3737 47.0944 33.6915C47.9999 32.0133 47.6682 30.335 47.2232 30.5302C46.7783 30.7253 43.496 33.551 44.2375 34.9678L44.2336 34.9717Z" fill="#D87350"/>
<path d="M47.3543 30.6054L47.327 30.5273H47.2567L47.2216 30.5351C45.4848 31.1908 44.2281 32.8144 43.8573 34.8791C43.8456 34.9376 43.8612 34.9962 43.9003 35.043C43.9393 35.0898 43.9978 35.1171 44.0564 35.1171C44.1422 35.1171 44.2125 35.0625 44.2359 34.9727C44.2398 34.9571 44.2437 34.9415 44.2476 34.9259C44.4779 35.0508 44.7316 35.1171 44.9892 35.1171C45.5629 35.1171 46.203 34.7698 46.3318 33.9892C46.4176 33.4623 46.1639 33.0291 45.7112 32.9393C45.438 32.8847 45.1492 33.0096 44.9033 33.1852C45.4692 32.1158 46.2732 31.2884 47.3036 30.7186C47.3426 30.6952 47.366 30.6483 47.3543 30.6054ZM45.8673 34.1219C45.7034 34.5083 45.3599 34.7386 44.9423 34.7386C44.7355 34.7386 44.5325 34.6839 44.3452 34.5785C44.4388 34.2663 44.5442 33.9697 44.6652 33.6848C44.8877 33.5131 45.1297 33.3413 45.4185 33.2594C45.6214 33.2008 45.7697 33.2359 45.8556 33.3726C45.9805 33.5638 45.961 33.9033 45.8712 34.1258L45.8673 34.1219Z" fill="#CC6144"/>
<path d="M46.2733 29.4066C45.8049 29.2115 44.8956 29.5237 44.9307 30.1208C44.9385 30.2653 45.0673 30.3784 45.2156 30.3355C45.6293 30.2223 45.8635 29.7696 46.2733 29.6408C46.3982 29.6018 46.3826 29.4495 46.2733 29.4027V29.4066Z" fill="#F48462"/>
<path d="M24.3055 30.2302C24.3055 30.2302 22.2487 27.8221 20.3206 29.4145C18.3848 31.0107 19.5713 36.7324 25.1485 36.4904L24.3055 30.2302Z" fill="#E5805C"/>
<path d="M20.5073 30.687C19.8906 30.6401 20.4799 34.2152 21.8772 35.1168C23.2744 36.0222 24.0394 35.909 23.8403 34.7421C23.6413 33.5751 21.7484 30.7767 20.5073 30.687Z" fill="#D87350"/>
<path d="M20.6483 30.5351L20.6132 30.5273C20.5664 30.5273 20.5273 30.5586 20.5156 30.6054L20.5039 30.6874L20.5624 30.7186C21.5928 31.2884 22.4007 32.1158 22.9627 33.1852C22.7207 33.0096 22.428 32.8847 22.1548 32.9393C21.7021 33.0291 21.4445 33.4623 21.5343 33.9892C21.6631 34.7698 22.2992 35.1171 22.8769 35.1171C23.1384 35.1171 23.392 35.0508 23.6184 34.9259C23.6223 34.9415 23.6262 34.9571 23.6301 34.9727C23.6496 35.0586 23.7238 35.1171 23.8097 35.1171C23.8682 35.1171 23.9267 35.0898 23.9658 35.043C24.0048 34.9962 24.0165 34.9415 24.0087 34.8791C23.6379 32.8144 22.3773 31.1908 20.6444 30.5351H20.6483ZM22.9315 34.7386C22.5139 34.7386 22.1665 34.5083 22.0065 34.1219C21.9128 33.9033 21.8933 33.5599 22.0221 33.3686C22.0846 33.275 22.1704 33.232 22.2875 33.232C22.3383 33.232 22.3968 33.2399 22.4593 33.2594C22.7442 33.3413 22.99 33.5131 23.2125 33.6848C23.3335 33.9658 23.4428 34.2663 23.5325 34.5785C23.3452 34.6839 23.1384 34.7386 22.9354 34.7386H22.9315Z" fill="#CC6144"/>
<path d="M33.9388 15.0293C33.1349 15.0293 25.3915 17.1954 24.6695 21.2076C23.9474 25.2197 22.8234 30.715 24.4704 35.4102C26.1136 40.1054 32.8148 42.6618 33.9388 42.6618C35.0629 42.6618 41.7641 40.1054 43.4073 35.4102C45.0504 30.715 43.9302 25.2197 43.2082 21.2076C42.4862 17.1954 34.7428 15.0293 33.9388 15.0293Z" fill="#E5805C"/>
<path d="M26.5507 31.0622C26.4648 25.4966 28.0806 20.3526 30.8673 15.9189C28.3343 16.9064 25.1222 18.6939 24.6695 21.2113C23.9474 25.2234 22.8234 30.7187 24.4704 35.4139C25.9809 39.7266 31.7571 42.2322 33.5564 42.6108C33.2988 42.4625 33.0451 42.3064 32.7992 42.1386C29.1422 39.6485 26.6522 35.5349 26.5507 31.0622Z" fill="#CC6144"/>
<path d="M35.5933 27.6819C35.0352 29.1025 34.5785 31.0227 35.1757 32.498C35.2694 32.7283 35.6362 32.7868 35.7065 32.498C35.8938 31.737 35.7494 30.9798 35.6948 30.2031C35.6362 29.3679 35.6089 28.5249 35.6792 27.6897C35.6831 27.6389 35.6089 27.635 35.5933 27.678V27.6819Z" fill="#F48462"/>
<path d="M44.2151 30.4101C43.9887 31.8074 43.6413 33.1461 43.1574 34.477C42.611 35.9835 41.686 37.1856 40.9015 38.5555C40.8352 38.6726 40.9796 38.8443 41.0967 38.7506C43.5555 36.8772 44.1058 33.2788 44.2385 30.4101C44.2385 30.3945 44.2151 30.3945 44.2151 30.4101Z" fill="#F48462"/>
<path d="M30.572 30.7579C29.7681 31.3902 28.6635 31.6361 27.6644 31.4097C26.6262 31.1755 26.154 30.1296 25.7012 29.2982C25.6778 29.2553 25.6037 29.2748 25.6076 29.3217C25.6973 30.6096 26.2555 31.5385 27.5161 31.9444C28.5777 32.2839 30.01 31.6868 30.5916 30.7735C30.5994 30.7618 30.5838 30.7501 30.572 30.7579Z" fill="#CC6144"/>
<path d="M37.3048 30.7579C38.1088 31.3902 39.2133 31.6361 40.2125 31.4097C41.2506 31.1755 41.7229 30.1296 42.1756 29.2982C42.199 29.2553 42.2732 29.2748 42.2693 29.3217C42.1756 30.6096 41.6175 31.5385 40.3608 31.9444C39.2992 32.2839 37.8668 31.6868 37.2853 30.7735C37.2775 30.7618 37.2931 30.7501 37.3048 30.7579Z" fill="#CC6144"/>
<g style="mix-blend-mode:multiply" opacity="0.4">
<path d="M43.7834 31.7326C44.0839 32.8411 42.956 34.1134 41.2582 34.5779C39.5605 35.0384 37.9408 34.5154 37.6403 33.407C37.3397 32.2986 38.4677 31.0262 40.1654 30.5657C41.8632 30.1051 43.4829 30.6281 43.7834 31.7366V31.7326Z" fill="#E24D4D"/>
</g>
<g style="mix-blend-mode:multiply" opacity="0.4">
<path d="M24.0925 31.7326C23.788 32.8411 24.9199 34.1134 26.6176 34.5779C28.3115 35.0384 29.9351 34.5154 30.2356 33.407C30.5361 32.2986 29.4082 31.0262 27.7104 30.5657C26.0127 30.1051 24.393 30.6281 24.0925 31.7366V31.7326Z" fill="#E24D4D"/>
</g>
<path d="M34.3604 35.4417C34.3019 35.3051 34.0989 35.2348 33.974 35.1724C33.775 35.0787 33.5798 35.0475 33.3691 35.1333C33.1818 35.2114 33.2754 35.4612 33.4393 35.4885C33.5955 35.5158 33.7477 35.4885 33.9077 35.4924C34.0404 35.4924 34.1926 35.5666 34.3175 35.5314C34.3565 35.5197 34.3799 35.4807 34.3604 35.4417Z" fill="#CC6144"/>
<path d="M35.4296 35.414C35.5272 35.4296 35.6482 35.3242 35.7341 35.2852C35.859 35.2306 35.9878 35.2345 36.0502 35.0979C36.0736 35.0471 36.0502 34.9808 36.0034 34.9535C35.8668 34.8676 35.7419 34.9691 35.6287 35.0549C35.5428 35.1174 35.3789 35.2345 35.375 35.3477C35.375 35.3828 35.3984 35.4062 35.4296 35.414Z" fill="#CC6144"/>
<path d="M38.8192 36.3662C36.2706 37.8532 33.4371 38.4113 30.5412 37.662C30.4787 37.6464 30.4514 37.74 30.5139 37.7595C33.2849 38.4777 36.4892 38.1147 38.8387 36.4013C38.8582 36.3857 38.8387 36.3584 38.8192 36.3701V36.3662Z" fill="#A8332D"/>
<path d="M30.5363 37.5369C30.4973 37.5798 30.4583 37.6227 30.4231 37.6696C30.3763 37.7281 30.3724 37.7827 30.3919 37.853C30.4075 37.9037 30.4817 37.931 30.5168 37.8842C30.5558 37.8374 30.5793 37.8062 30.5949 37.7437C30.6066 37.693 30.6222 37.6461 30.6417 37.5993C30.6651 37.5369 30.5793 37.4939 30.5363 37.5369Z" fill="#A8332D"/>
<path d="M38.6699 36.3265C38.6699 36.4124 38.7402 36.4826 38.8221 36.5021C38.9275 36.5256 38.9783 36.3929 38.8924 36.3304C38.8534 36.2992 38.8143 36.2719 38.7675 36.2524C38.7207 36.2328 38.6699 36.2836 38.6699 36.3265Z" fill="#A8332D"/>
<path d="M31.4775 37.904C32.4923 38.4543 33.7061 38.1772 34.795 38.0328C35.9932 37.8767 36.9884 37.4396 38.05 36.8971C38.0812 36.8815 38.0578 36.8268 38.0266 36.8385C35.9424 37.5723 33.6202 37.3264 31.4814 37.8767C31.4697 37.8767 31.4697 37.8962 31.4814 37.9001L31.4775 37.904Z" fill="#A8332D"/>
<path d="M30.9924 29.3253C30.9924 29.3253 30.5045 27.2022 28.1432 26.4645C25.782 25.723 24.053 27.7603 25.5869 28.8102C27.1246 29.86 30.9924 29.3253 30.9924 29.3253Z" fill="#3F1D2B"/>
<path d="M25.5948 28.5916C25.5324 28.9546 25.7509 31.2143 27.8312 31.6163C29.9153 32.0183 30.9027 30.6289 31.0081 29.6883C31.1174 28.7477 29.8373 27.2802 28.6625 27.0187C27.4916 26.7572 25.7939 27.4363 25.5909 28.5916H25.5948Z" fill="#F9F7ED"/>
<path d="M28.6673 27.0187C27.5277 26.765 25.9002 27.3973 25.623 28.494C26.2319 28.291 26.8603 28.1856 27.512 28.1427C28.64 28.0803 29.7484 28.2052 30.689 28.8686C30.7671 28.9233 30.8373 28.9857 30.9115 29.0482C30.5914 28.1895 29.5962 27.2255 28.6673 27.0187Z" fill="#E8E5DD"/>
<path d="M30.2236 29.3247C30.2236 30.2692 29.4586 31.0381 28.5102 31.0381C27.5618 31.0381 26.7969 30.2692 26.7969 29.3247C26.7969 28.3802 27.5618 27.6113 28.5102 27.6113C29.4586 27.6113 30.2236 28.3763 30.2236 29.3247Z" fill="#725F28"/>
<path d="M28.7916 28.2514C29.1819 28.2943 29.6112 28.3373 29.9976 28.47C29.7009 27.9587 29.1506 27.6113 28.5145 27.6113C27.9642 27.6113 27.4763 27.8728 27.1641 28.2748C27.6988 28.1811 28.2647 28.189 28.7916 28.2514Z" fill="#3D3F26"/>
<path d="M30.1028 28.8844C30.1028 29.1069 29.9233 29.2864 29.7008 29.2864C29.4784 29.2864 29.2988 29.1069 29.2988 28.8844C29.2988 28.662 29.4784 28.4824 29.7008 28.4824C29.9233 28.4824 30.1028 28.662 30.1028 28.8844Z" fill="#A59568"/>
<path d="M36.8828 29.3253C36.8828 29.3253 37.3707 27.2022 39.7319 26.4645C42.0932 25.723 43.8222 27.7603 42.2883 28.8102C40.7506 29.86 36.8828 29.3253 36.8828 29.3253Z" fill="#3F1D2B"/>
<path d="M42.2792 28.5916C42.3416 28.9546 42.1231 31.2143 40.0428 31.6163C37.9587 32.0183 36.9713 30.6289 36.862 29.6883C36.7527 28.7477 38.0368 27.2802 39.2076 27.0187C40.3824 26.7572 42.0763 27.4363 42.2792 28.5916Z" fill="#F9F7ED"/>
<path d="M39.209 27.0187C40.3486 26.765 41.9762 27.3973 42.2533 28.494C41.6444 28.291 41.016 28.1856 40.3643 28.1427C39.2363 28.0803 38.1279 28.2052 37.1873 28.8686C37.1093 28.9233 37.039 28.9857 36.9648 29.0482C37.2849 28.1895 38.2801 27.2255 39.209 27.0187Z" fill="#E8E5DD"/>
<path d="M37.6504 29.3247C37.6504 30.2692 38.4154 31.0381 39.3638 31.0381C40.3122 31.0381 41.0771 30.2692 41.0771 29.3247C41.0771 28.3802 40.3122 27.6113 39.3638 27.6113C38.4154 27.6113 37.6504 28.3763 37.6504 29.3247Z" fill="#725F28"/>
<path d="M39.0829 28.2514C38.6927 28.2943 38.2633 28.3373 37.877 28.47C38.1736 27.9587 38.7239 27.6113 39.3601 27.6113C39.9104 27.6113 40.3982 27.8728 40.7105 28.2748C40.1758 28.1811 39.6098 28.189 39.0829 28.2514Z" fill="#3D3F26"/>
<path d="M40.1172 28.8844C40.1172 29.1069 40.2967 29.2864 40.5192 29.2864C40.7416 29.2864 40.9212 29.1069 40.9212 28.8844C40.9212 28.662 40.7416 28.4824 40.5192 28.4824C40.2967 28.4824 40.1172 28.662 40.1172 28.8844Z" fill="#A59568"/>
<path d="M43.1552 23.9898C41.754 22.1984 38.14 22.8112 36.6998 24.2357C36.5164 24.4192 36.7115 24.665 36.9301 24.6299C37.8746 24.4933 38.7098 23.9508 39.6504 23.7518C40.6651 23.5371 42.1912 23.42 43.0381 24.103C43.12 24.1694 43.2176 24.0718 43.1513 23.9898H43.1552Z" fill="#3F1D2B"/>
<path d="M24.8344 24.103C25.6501 23.4473 26.9536 23.5644 27.9372 23.701C28.9987 23.8493 29.8964 24.4777 30.9424 24.6299C31.1609 24.6611 31.3561 24.4152 31.1726 24.2357C29.7364 22.8112 26.1184 22.1984 24.7212 23.9898C24.6548 24.0718 24.7524 24.1694 24.8344 24.103Z" fill="#3F1D2B"/>
<path d="M35.045 38.9809C34.9084 38.9419 34.7327 38.9575 34.6195 39.0511C34.5649 39.0941 34.5181 39.1487 34.479 39.2034C34.4361 39.2697 34.4283 39.3399 34.4205 39.418C34.4088 39.5507 34.5766 39.6327 34.682 39.5702C34.7249 39.5468 34.7679 39.5273 34.803 39.4922C34.8342 39.4648 34.8576 39.4297 34.8928 39.4024C34.9318 39.3712 34.9708 39.297 35.0411 39.2736C35.1738 39.2268 35.1933 39.0277 35.0411 38.9848L35.045 38.9809Z" fill="#CC6144"/>
<path fill-rule="evenodd" clip-rule="evenodd" d="M20.7155 30.9328C11.1886 -0.493288 55.0063 -1.39876 46.0492 30.7571C45.2179 33.3955 43.485 21.3941 43.485 21.3122C43.4655 20.5316 42.0409 16.6326 40.2534 16.2306C37.658 15.6452 32.393 12.4331 29.0521 13.4127C25.2039 14.5406 23.4359 20.0047 23.4085 21.3122C23.4085 21.398 22.6358 25.6248 21.8552 28.4896C21.3166 30.4761 21.0161 32.0724 20.7194 30.9289L20.7155 30.9328Z" fill="#72130D"/>
<path fill-rule="evenodd" clip-rule="evenodd" d="M45.5933 27.205C45.5777 27.3572 45.968 27.7124 45.7143 28.7935C45.5035 29.6951 44.7034 31.1157 44.3053 32.7744C43.7121 35.245 43.1384 37.6101 43.1306 37.6335C42.3695 35.4635 43.5833 29.496 43.8136 27.0528C43.8955 25.718 43.6497 23.6534 44.239 23.7002C45.0508 23.3451 45.6245 26.5532 45.5894 27.1972L45.5933 27.205Z" fill="#72130D"/>
<path fill-rule="evenodd" clip-rule="evenodd" d="M21.7314 28.4083C21.7822 29.5089 22.3247 29.5206 22.9374 31.2144C23.9288 33.9699 25.1504 37.943 25.1621 37.9704C25.8295 36.1282 24.3542 31.0622 24.0185 28.9859C23.878 27.8541 24.038 26.1017 23.4487 26.1407C22.6213 25.8402 21.669 27.858 21.7314 28.4083Z" fill="#72130D"/>
<path fill-rule="evenodd" clip-rule="evenodd" d="M32.5605 15.9691C35.5424 15.4344 41.2991 16.2696 41.9704 20.5667C42.6417 24.8677 41.8104 26.5498 44.4253 28.3959C47.0403 30.242 45.4089 33.3214 45.1708 33.9224C47.0559 32.7242 51.0407 27.108 48.0277 23.6188C45.0147 20.1296 48.3399 18.2913 46.1231 13.0146C43.9062 7.73792 32.2561 8.43263 32.5605 15.9652V15.9691Z" fill="#440908"/>
<path fill-rule="evenodd" clip-rule="evenodd" d="M37.3855 15.7391C37.3855 15.7391 27.3278 15.0912 26.0047 19.9074C24.6816 24.7235 25.4115 26.7725 22.1838 28.4937C18.9522 30.2149 20.4197 33.9773 20.6148 34.6993C18.6126 33.0445 14.7839 26.0271 18.6829 22.4911C22.5819 18.9512 19.0146 16.3557 22.2345 10.6536C25.4544 4.95149 38.7125 7.17614 37.3855 15.7391Z" fill="#440908"/>
<path fill-rule="evenodd" clip-rule="evenodd" d="M19.0349 30.9372C19.0349 31.027 18.9607 31.0972 18.8749 31.0933C18.789 31.0933 18.7266 31.0153 18.7266 30.9216C18.7656 29.9108 19.0973 29.0599 19.6008 28.373C20.1745 27.5885 20.9746 27.0226 21.8216 26.687C22.5046 26.4177 23.0119 25.8049 23.3788 24.9541C23.8042 23.9706 24.0423 22.6748 24.1477 21.219C24.2218 20.2121 24.3858 19.2676 24.6394 18.405C25.1234 16.7424 25.9352 15.3842 27.0358 14.4709C28.1403 13.5576 29.5376 13.0932 31.1885 13.2337C31.8247 13.2883 32.4999 13.4289 33.2102 13.6708C33.2921 13.6982 33.3351 13.7879 33.3117 13.8777C33.2882 13.9636 33.2024 14.0143 33.1204 13.987C32.4335 13.7528 31.7817 13.6162 31.1651 13.5655C29.5883 13.4328 28.2652 13.8699 27.2193 14.7363C26.1694 15.6067 25.3966 16.9102 24.9283 18.5065C24.6824 19.3456 24.5224 20.2667 24.4521 21.2502C24.3428 22.7411 24.0969 24.0759 23.6559 25.0985C23.2539 26.0274 22.6919 26.6987 21.9269 27.0031C21.1307 27.3192 20.3775 27.85 19.8389 28.5838C19.3744 29.2199 19.0661 30.0083 19.031 30.9411L19.0349 30.9372Z" fill="#F4EDEC"/>
<path fill-rule="evenodd" clip-rule="evenodd" d="M33.2763 11.2577C33.3504 11.3006 33.3777 11.4021 33.3348 11.4802C33.2958 11.5582 33.2021 11.5894 33.1279 11.5465C32.8821 11.3982 32.6206 11.2655 32.3552 11.1484C30.8721 10.4966 29.1353 10.3093 27.5936 10.6215C26.0676 10.9299 24.7445 11.726 24.0654 13.0413C23.9952 13.1779 23.9327 13.3184 23.8781 13.4589C23.2107 15.2191 23.1209 17.1667 23.039 18.9347C22.9414 21.0188 22.8555 22.8571 21.8642 23.9304C21.1383 24.7149 20.5294 25.0973 20.0298 25.4096C19.3273 25.8506 18.859 26.1433 18.6287 27.3103C18.6131 27.4 18.5311 27.4547 18.4492 27.4352C18.3672 27.4157 18.3126 27.3298 18.3321 27.24C18.5897 25.9326 19.1049 25.6086 19.8776 25.1247C20.3616 24.8202 20.9548 24.4495 21.6495 23.6962C22.5589 22.7166 22.6448 20.933 22.7385 18.9191C22.8204 17.1237 22.9141 15.145 23.601 13.3379C23.6634 13.1779 23.7298 13.0257 23.8039 12.8852C24.5299 11.4763 25.9349 10.6254 27.5429 10.3015C29.1392 9.98145 30.9384 10.1727 32.4762 10.8479C32.7533 10.9689 33.0226 11.1094 33.2841 11.2616L33.2763 11.2577Z" fill="#992317"/>
<path fill-rule="evenodd" clip-rule="evenodd" d="M47.7438 30.9487C47.7321 31.0385 47.658 31.1048 47.5721 31.0931C47.4901 31.0814 47.4277 30.9994 47.4394 30.9097C47.5448 29.9769 47.3652 29.1924 46.9984 28.564C46.5769 27.8381 45.9134 27.3073 45.1679 26.9951C44.442 26.6867 43.9736 26.0076 43.7121 25.0709C43.4272 24.0484 43.3843 22.7097 43.5053 21.2188C43.6224 19.7669 43.5248 18.4516 43.2204 17.3354C42.9238 16.2543 42.4281 15.3605 41.7412 14.7127C41.0543 14.0687 40.1722 13.6667 39.0989 13.5652C38.2013 13.4794 37.167 13.6081 36.0039 13.9789C35.922 14.0062 35.84 13.9555 35.8166 13.8696C35.7932 13.7838 35.84 13.6901 35.9181 13.6667C37.1202 13.2842 38.1896 13.1554 39.1262 13.2413C40.2659 13.3467 41.2065 13.7799 41.9441 14.4707C42.6779 15.1615 43.2009 16.106 43.517 17.2456C43.837 18.4009 43.9385 19.7591 43.8175 21.25C43.7004 22.7058 43.7395 24.0015 44.0127 24.9812C44.2468 25.8242 44.6566 26.4291 45.285 26.6945C46.0851 27.0341 46.8032 27.6039 47.2599 28.3962C47.6619 29.087 47.8609 29.9456 47.7438 30.9565V30.9487Z" fill="#FAF4F3"/>
<path fill-rule="evenodd" clip-rule="evenodd" d="M35.9883 11.7729C35.9141 11.8159 35.8205 11.7847 35.7814 11.7066C35.7424 11.6246 35.7697 11.5271 35.8439 11.4841C36.3708 11.1836 36.925 10.9611 37.4948 10.8128C38.9037 10.446 40.3868 10.5318 41.6631 11.0002C42.9471 11.4763 44.0243 12.3389 44.6098 13.5253C44.7659 13.8376 44.8869 14.1771 44.9688 14.5362C45.3591 16.2652 45.3045 17.9161 45.2537 19.3875C45.1913 21.175 45.1406 22.6932 45.925 23.708C46.4441 24.3793 46.9008 24.7462 47.2754 25.0506C47.9975 25.636 48.4424 25.9912 48.5009 27.6148C48.5009 27.7045 48.4385 27.7826 48.3565 27.7865C48.2707 27.7865 48.2004 27.7202 48.1965 27.6304C48.1419 26.1629 47.7438 25.839 47.092 25.3121C46.7017 24.9998 46.2334 24.6174 45.6909 23.9187C44.8283 22.8064 44.883 21.2297 44.9454 19.3758C44.9961 17.9239 45.0508 16.2964 44.6722 14.6143C44.5981 14.2864 44.4849 13.9742 44.3405 13.6815C43.7941 12.573 42.7754 11.7612 41.5616 11.3124C40.34 10.8597 38.9154 10.7777 37.5611 11.129C37.0186 11.2695 36.4839 11.4841 35.9805 11.7729H35.9883Z" fill="#992317"/>
</svg>
