<svg width="74" height="63" viewBox="0 0 74 63" fill="none" xmlns="http://www.w3.org/2000/svg">
<rect width="74" height="63" rx="10" fill="#DAE1FE"/>
<path fill-rule="evenodd" clip-rule="evenodd" d="M34.5471 54.5202C34.5471 54.5202 31.4206 56.4894 27.4555 53.7803C26.5714 55.6471 23.0882 55.4725 22.2231 53.2415C20.546 54.9186 15.5337 52.7065 17.3095 48.7983C14.4827 49.9821 9.62215 45.1823 13.3596 41.1262C7.9792 40.0524 7.26587 33.5413 11.1361 30.153C10.639 29.3562 10.3469 28.4114 10.3469 27.4021C10.3469 24.8978 12.115 22.8072 14.4713 22.3101C14.5813 20.7431 15.1315 19.0925 16.0194 18.0036C16.9756 16.8311 18.3225 16.3758 20.0641 15.5638C22.1776 14.5811 22.5912 11.9895 24.5111 10.0241C25.7101 8.8061 27.7894 7.00379 30.1722 7C32.1339 7 33.9741 7.90684 34.5471 9.22348C35.12 7.90684 36.9603 7 38.9219 7C41.3048 7.00379 43.3841 8.8061 44.5793 10.0279C46.4992 11.9933 46.9128 14.5811 49.0262 15.5676C50.7678 16.3796 52.111 16.8349 53.071 18.0073C53.9589 19.0963 54.5128 20.7468 54.6191 22.3139C56.9754 22.811 58.7435 24.9016 58.7435 27.4059C58.7435 28.4152 58.4551 29.36 57.9543 30.1568C61.8283 33.5451 61.115 40.0562 55.7308 41.13C59.4682 45.1861 54.6077 49.9859 51.7809 48.8021C53.5567 52.7103 48.5444 54.9186 46.8673 53.2453C46.006 55.4763 42.5228 55.6509 41.6349 53.7841C37.6698 56.4932 34.5433 54.524 34.5433 54.524L34.5471 54.5202Z" fill="#72130D"/>
<path fill-rule="evenodd" clip-rule="evenodd" d="M34.6077 17.1426C37.3359 17.1426 39.5631 15.253 39.5631 12.9385C39.5631 10.624 37.3359 8.73438 34.6077 8.73438C31.8796 8.73438 29.6523 10.624 29.6523 12.9385C29.6523 15.253 31.8796 17.1426 34.6077 17.1426Z" fill="#E3A64A"/>
<path fill-rule="evenodd" clip-rule="evenodd" d="M32.4897 23.7208C32.4897 23.7208 31.5373 24.825 29.7768 25.1323C28.0162 25.4397 27.2118 27.2154 27.3901 29.1771C27.5685 31.1387 27.3294 31.7838 26.138 32.3643C24.9466 32.9486 23.3074 33.6506 24.0208 35.8589C24.7341 38.0672 24.9731 42.1423 21.6341 43.0605C18.2951 43.9787 16.804 40.1199 16.804 40.1199C16.804 40.1199 18.4735 41.1937 19.6042 40.3362C20.7387 39.4787 20.1999 37.0579 17.817 35.0052C15.4304 32.9524 16.6825 30.1029 18.6518 29.1202C20.6173 28.1412 20.7387 26.7904 20.382 23.7246C20.0253 20.6588 20.4996 18.6971 23.8993 18.0255C27.2991 17.3501 27.06 11.9584 31.0554 11.8939C35.0509 11.8332 37.1378 19.6799 32.4859 23.7246L32.4897 23.7208Z" fill="#440908"/>
<path fill-rule="evenodd" clip-rule="evenodd" d="M36.6022 23.7208C36.6022 23.7208 37.5546 24.825 39.3152 25.1323C41.0758 25.4397 41.8802 27.2154 41.7018 29.1771C41.5235 31.1387 41.7625 31.7838 42.954 32.3643C44.1454 32.9486 45.7845 33.6506 45.0712 35.8589C44.3541 38.0672 44.1188 42.1423 47.4578 43.0605C50.7968 43.9787 52.288 40.1199 52.288 40.1199C52.288 40.1199 50.6185 41.1937 49.484 40.3362C48.3495 39.4787 48.8883 37.0579 51.2711 35.0052C53.6578 32.9524 52.4056 30.1029 50.4364 29.1202C48.4671 28.1412 48.3495 26.7904 48.7062 23.7246C49.0628 20.6588 48.5885 18.6971 45.1888 18.0255C41.7891 17.3501 42.0281 11.9584 38.0327 11.8939C34.0373 11.8332 31.9504 19.6799 36.6022 23.7246V23.7208Z" fill="#440908"/>
<path d="M38.7507 39.7314C38.7507 39.7314 38.1626 46.7965 38.2726 47.783C38.3788 48.7695 47.3297 52.4273 49.0295 53.6604C50.7294 54.8936 50.7787 58.9459 50.2361 62.4026H20.1623C19.6197 58.9459 19.669 54.8936 21.3689 53.6604C23.0687 52.4273 32.0195 48.7695 32.1258 47.783C32.232 46.7965 31.6439 39.7314 31.6439 39.7314H38.7507Z" fill="#E5805C"/>
<path d="M38.7513 39.7314H31.6445C31.6445 39.7314 31.9557 43.4802 32.0847 45.8972C34.2095 45.7417 36.3267 45.3698 38.3795 44.7475C38.5236 42.4482 38.7513 39.7314 38.7513 39.7314Z" fill="#CC6144"/>
<path d="M35.1989 62.9982H51.2983C51.2983 62.9982 50.8278 54.0094 50.2359 53.5617C49.6439 53.1139 41.5431 49.2627 41.5431 49.2627C41.5431 49.2627 39.4789 51.065 35.1989 51.065C30.9189 51.065 28.8548 49.2627 28.8548 49.2627C28.8548 49.2627 20.7539 53.1177 20.162 53.5617C19.5701 54.0056 19.0996 62.9982 19.0996 62.9982H35.1989Z" fill="#FFECE3"/>
<path d="M35.0813 54.3016C37.6766 52.7459 40.3858 51.3382 43.1139 50.014C42.1805 49.5662 41.5431 49.2627 41.5431 49.2627C41.5431 49.2627 39.4789 51.065 35.1989 51.065C30.9189 51.065 28.8548 49.2627 28.8548 49.2627C28.8548 49.2627 20.7539 53.1177 20.162 53.5617C19.5701 54.0056 19.0996 62.9982 19.0996 62.9982H25.4551C28.096 59.5643 31.2794 56.6237 35.0775 54.3054L35.0813 54.3016Z" fill="#F9F7ED"/>
<path d="M44.5598 30.8203C44.5598 30.8203 46.5594 28.4792 48.4338 30.0273C50.3158 31.5791 49.1623 37.1416 43.7402 36.9064L44.5598 30.8203Z" fill="#E5805C"/>
<path d="M45.2131 35.4346C45.5129 36.0075 47.1141 35.8254 47.9944 34.1901C48.8747 32.5585 48.5521 30.9269 48.1196 31.1167C47.687 31.3064 44.496 34.0535 45.2169 35.4308L45.2131 35.4346Z" fill="#D87350"/>
<path d="M48.2433 31.1892L48.2167 31.1133H48.1484L48.1143 31.1209C46.4258 31.7583 45.204 33.3368 44.8435 35.344C44.8322 35.4009 44.8473 35.4578 44.8853 35.5033C44.9232 35.5489 44.9801 35.5754 45.0371 35.5754C45.1205 35.5754 45.1888 35.5223 45.2116 35.435C45.2154 35.4198 45.2192 35.4047 45.223 35.3895C45.4468 35.5109 45.6935 35.5754 45.9439 35.5754C46.5017 35.5754 47.1239 35.2377 47.2491 34.4789C47.3326 33.9666 47.086 33.5454 46.6458 33.4582C46.3802 33.4051 46.0995 33.5265 45.8604 33.6972C46.4106 32.6576 47.1922 31.8532 48.1939 31.2992C48.2319 31.2764 48.2546 31.2309 48.2433 31.1892ZM46.7976 34.6079C46.6383 34.9835 46.3044 35.2074 45.8984 35.2074C45.6973 35.2074 45.5 35.1542 45.3178 35.0518C45.4089 34.7482 45.5113 34.4599 45.629 34.1829C45.8452 34.0159 46.0805 33.849 46.3613 33.7693C46.5586 33.7124 46.7028 33.7465 46.7862 33.8793C46.9077 34.0653 46.8887 34.3954 46.8014 34.6117L46.7976 34.6079Z" fill="#CC6144"/>
<path d="M47.1968 30.0241C46.7415 29.8344 45.8574 30.138 45.8916 30.7185C45.8992 30.8589 46.0244 30.9689 46.1686 30.9272C46.5708 30.8172 46.7984 30.377 47.1968 30.2518C47.3183 30.2139 47.3031 30.0659 47.1968 30.0203V30.0241Z" fill="#F48462"/>
<path d="M25.8385 30.8203C25.8385 30.8203 23.8389 28.4792 21.9645 30.0273C20.0825 31.5791 21.236 37.1416 26.6581 36.9064L25.8385 30.8203Z" fill="#E5805C"/>
<path d="M22.1431 31.268C21.5436 31.2225 22.1165 34.6981 23.4749 35.5746C24.8332 36.4549 25.5769 36.3448 25.3834 35.2103C25.1899 34.0758 23.3497 31.3553 22.1431 31.268Z" fill="#D87350"/>
<path d="M22.283 31.1209L22.2488 31.1133C22.2033 31.1133 22.1653 31.1436 22.154 31.1892L22.1426 31.2688L22.1995 31.2992C23.2012 31.8532 23.9866 32.6576 24.533 33.6972C24.2978 33.5265 24.0132 33.4051 23.7476 33.4582C23.3074 33.5454 23.057 33.9666 23.1443 34.4789C23.2695 35.2377 23.888 35.5754 24.4495 35.5754C24.7037 35.5754 24.9504 35.5109 25.1705 35.3895C25.1742 35.4047 25.178 35.4198 25.1818 35.435C25.2008 35.5185 25.2729 35.5754 25.3564 35.5754C25.4133 35.5754 25.4702 35.5489 25.5081 35.5033C25.5461 35.4578 25.5575 35.4047 25.5499 35.344C25.1894 33.3368 23.9639 31.7583 22.2792 31.1209H22.283ZM24.4989 35.2074C24.0929 35.2074 23.7552 34.9835 23.5996 34.6079C23.5085 34.3954 23.4896 34.0615 23.6148 33.8756C23.6755 33.7845 23.759 33.7428 23.8728 33.7428C23.9221 33.7428 23.979 33.7503 24.0397 33.7693C24.3167 33.849 24.5558 34.0159 24.772 34.1829C24.8897 34.4561 24.9959 34.7482 25.0832 35.0518C24.9011 35.1542 24.7 35.2074 24.5026 35.2074H24.4989Z" fill="#CC6144"/>
<path d="M35.1987 16.0449C34.417 16.0449 26.8891 18.1508 26.1871 22.0513C25.4852 25.9519 24.3924 31.2943 25.9936 35.8589C27.591 40.4235 34.1059 42.9088 35.1987 42.9088C36.2914 42.9088 42.8063 40.4235 44.4037 35.8589C46.0011 31.2943 44.9122 25.9519 44.2102 22.0513C43.5082 18.1508 35.9803 16.0449 35.1987 16.0449Z" fill="#E5805C"/>
<path d="M28.016 31.6321C27.9325 26.2214 29.5034 21.2205 32.2125 16.9102C29.75 17.8701 26.6273 19.6079 26.1871 22.0553C25.4852 25.9558 24.3924 31.2982 25.9936 35.8628C27.462 40.0556 33.0776 42.4915 34.8268 42.8596C34.5764 42.7154 34.3298 42.5636 34.0907 42.4005C30.5354 39.9797 28.1147 35.9804 28.016 31.6321Z" fill="#CC6144"/>
<path d="M36.8121 28.3469C36.2695 29.7281 35.8256 31.5949 36.4061 33.0291C36.4972 33.253 36.8539 33.3099 36.9222 33.0291C37.1043 32.2892 36.9639 31.5531 36.9108 30.7981C36.8539 29.9861 36.8273 29.1665 36.8956 28.3545C36.8994 28.3052 36.8273 28.3014 36.8121 28.3431V28.3469Z" fill="#F48462"/>
<path d="M45.1927 30.9987C44.9727 32.3571 44.635 33.6585 44.1645 34.9524C43.6333 36.417 42.734 37.5856 41.9714 38.9175C41.9069 39.0313 42.0472 39.1982 42.1611 39.1072C44.5515 37.2859 45.0865 33.7875 45.2155 30.9987C45.2155 30.9835 45.1927 30.9835 45.1927 30.9987Z" fill="#F48462"/>
<path d="M31.9281 31.3348C31.1465 31.9495 30.0727 32.1885 29.1013 31.9685C28.092 31.7408 27.6329 30.7239 27.1928 29.9157C27.17 29.874 27.0979 29.893 27.1017 29.9385C27.189 31.1906 27.7316 32.0937 28.9571 32.4883C29.9892 32.8184 31.3817 32.2379 31.9471 31.35C31.9547 31.3386 31.9395 31.3272 31.9281 31.3348Z" fill="#CC6144"/>
<path d="M38.4702 31.3348C39.2519 31.9495 40.3257 32.1885 41.297 31.9685C42.3063 31.7408 42.7654 30.7239 43.2056 29.9157C43.2283 29.874 43.3004 29.893 43.2966 29.9385C43.2056 31.1906 42.663 32.0937 41.4412 32.4883C40.4091 32.8184 39.0166 32.2379 38.4513 31.35C38.4437 31.3386 38.4589 31.3272 38.4702 31.3348Z" fill="#CC6144"/>
<g style="mix-blend-mode:multiply" opacity="0.4">
<path d="M44.7733 32.2805C45.0655 33.3581 43.9689 34.595 42.3184 35.0466C40.6678 35.4943 39.0932 34.9859 38.801 33.9083C38.5089 32.8307 39.6054 31.5937 41.256 31.146C42.9065 30.6983 44.4811 31.2067 44.7733 32.2843V32.2805Z" fill="#E24D4D"/>
</g>
<g style="mix-blend-mode:multiply" opacity="0.4">
<path d="M25.6262 32.2805C25.3303 33.3581 26.4306 34.595 28.0812 35.0466C29.7279 35.4943 31.3063 34.9859 31.5985 33.9083C31.8907 32.8307 30.7941 31.5937 29.1436 31.146C27.493 30.6983 25.9184 31.2067 25.6262 32.2843V32.2805Z" fill="#E24D4D"/>
</g>
<path d="M35.6132 35.8848C35.5563 35.752 35.359 35.6837 35.2375 35.623C35.044 35.532 34.8543 35.5016 34.6494 35.5851C34.4673 35.661 34.5583 35.9038 34.7177 35.9304C34.8695 35.9569 35.0175 35.9304 35.173 35.9342C35.302 35.9342 35.45 36.0062 35.5714 35.9721C35.6094 35.9607 35.6321 35.9228 35.6132 35.8848Z" fill="#CC6144"/>
<path d="M36.6527 35.8622C36.7476 35.8774 36.8652 35.7749 36.9487 35.737C37.0701 35.6839 37.1953 35.6877 37.256 35.5549C37.2788 35.5055 37.256 35.441 37.2105 35.4145C37.0777 35.331 36.9563 35.4297 36.8462 35.5131C36.7628 35.5738 36.6034 35.6877 36.5996 35.7977C36.5996 35.8319 36.6224 35.8546 36.6527 35.8622Z" fill="#CC6144"/>
<path d="M39.9466 36.7881C37.4689 38.2337 34.7142 38.7763 31.8988 38.0478C31.8381 38.0326 31.8115 38.1237 31.8723 38.1427C34.5662 38.8408 37.6814 38.4879 39.9656 36.8222C39.9845 36.8071 39.9656 36.7805 39.9466 36.7919V36.7881Z" fill="#A8332D"/>
<path d="M31.8953 37.926C31.8573 37.9678 31.8194 38.0095 31.7852 38.055C31.7397 38.1119 31.7359 38.1651 31.7549 38.2334C31.7701 38.2827 31.8422 38.3092 31.8763 38.2637C31.9143 38.2182 31.937 38.1878 31.9522 38.1271C31.9636 38.0778 31.9788 38.0323 31.9977 37.9867C32.0205 37.926 31.937 37.8843 31.8953 37.926Z" fill="#A8332D"/>
<path d="M39.7969 36.7501C39.7969 36.8336 39.8652 36.9019 39.9449 36.9208C40.0473 36.9436 40.0966 36.8146 40.0132 36.7539C39.9752 36.7235 39.9373 36.697 39.8917 36.678C39.8462 36.659 39.7969 36.7084 39.7969 36.7501Z" fill="#A8332D"/>
<path d="M32.8094 38.2826C33.796 38.8176 34.976 38.5482 36.0346 38.4078C37.1995 38.256 38.167 37.831 39.1991 37.3036C39.2294 37.2884 39.2067 37.2353 39.1763 37.2467C37.1501 37.96 34.8925 37.721 32.8132 38.256C32.8018 38.256 32.8018 38.275 32.8132 38.2788L32.8094 38.2826Z" fill="#A8332D"/>
<path d="M32.3376 29.9386C32.3376 29.9386 31.8633 27.8745 29.5677 27.1574C27.2721 26.4364 25.5912 28.4171 27.0824 29.4378C28.5774 30.4584 32.3376 29.9386 32.3376 29.9386Z" fill="#3F1D2B"/>
<path d="M27.0907 29.226C27.03 29.5789 27.2424 31.7758 29.2648 32.1666C31.291 32.5574 32.251 31.2066 32.3534 30.2922C32.4596 29.3778 31.2151 27.9511 30.073 27.6969C28.9347 27.4426 27.2842 28.1029 27.0869 29.226H27.0907Z" fill="#F9F7ED"/>
<path d="M30.0768 27.6968C28.9688 27.4502 27.3866 28.0649 27.1172 29.1311C27.7091 28.9338 28.32 28.8313 28.9536 28.7896C30.0502 28.7289 31.1278 28.8503 32.0422 29.4953C32.1181 29.5484 32.1864 29.6092 32.2585 29.6699C31.9474 28.8351 30.9798 27.8979 30.0768 27.6968Z" fill="#E8E5DD"/>
<path d="M31.5912 29.9391C31.5912 30.8574 30.8475 31.6049 29.9255 31.6049C29.0035 31.6049 28.2598 30.8574 28.2598 29.9391C28.2598 29.0209 29.0035 28.2734 29.9255 28.2734C30.8475 28.2734 31.5912 29.0171 31.5912 29.9391Z" fill="#725F28"/>
<path d="M30.1955 28.8957C30.5749 28.9374 30.9923 28.9792 31.368 29.1082C31.0796 28.6111 30.5446 28.2734 29.9261 28.2734C29.3911 28.2734 28.9168 28.5277 28.6133 28.9185C29.1331 28.8274 29.6833 28.835 30.1955 28.8957Z" fill="#3D3F26"/>
<path d="M31.4691 29.51C31.4691 29.7262 31.2946 29.9008 31.0783 29.9008C30.862 29.9008 30.6875 29.7262 30.6875 29.51C30.6875 29.2937 30.862 29.1191 31.0783 29.1191C31.2946 29.1191 31.4691 29.2937 31.4691 29.51Z" fill="#A59568"/>
<path d="M38.0605 29.9386C38.0605 29.9386 38.5348 27.8745 40.8304 27.1574C43.126 26.4364 44.8069 28.4171 43.3157 29.4378C41.8207 30.4584 38.0605 29.9386 38.0605 29.9386Z" fill="#3F1D2B"/>
<path d="M43.308 29.226C43.3687 29.5789 43.1563 31.7758 41.1339 32.1666C39.1077 32.5574 38.1477 31.2066 38.0415 30.2922C37.9353 29.3778 39.1836 27.9511 40.3219 27.6969C41.464 27.4426 43.1107 28.1029 43.308 29.226Z" fill="#F9F7ED"/>
<path d="M40.3224 27.6968C41.4303 27.4502 43.0125 28.0649 43.2819 29.1311C42.69 28.9338 42.0791 28.8313 41.4455 28.7896C40.3489 28.7289 39.2713 28.8503 38.3569 29.4953C38.281 29.5484 38.2127 29.6092 38.1406 29.6699C38.4518 28.8351 39.4193 27.8979 40.3224 27.6968Z" fill="#E8E5DD"/>
<path d="M38.8066 29.9391C38.8066 30.8574 39.5503 31.6049 40.4724 31.6049C41.3944 31.6049 42.1381 30.8574 42.1381 29.9391C42.1381 29.0209 41.3944 28.2734 40.4724 28.2734C39.5503 28.2734 38.8066 29.0171 38.8066 29.9391Z" fill="#725F28"/>
<path d="M40.2037 28.8957C39.8243 28.9374 39.4069 28.9792 39.0312 29.1082C39.3196 28.6111 39.8546 28.2734 40.4731 28.2734C41.0081 28.2734 41.4824 28.5277 41.7859 28.9185C41.2661 28.8274 40.7159 28.835 40.2037 28.8957Z" fill="#3D3F26"/>
<path d="M41.207 29.51C41.207 29.7262 41.3816 29.9008 41.5978 29.9008C41.8141 29.9008 41.9887 29.7262 41.9887 29.51C41.9887 29.2937 41.8141 29.1191 41.5978 29.1191C41.3816 29.1191 41.207 29.2937 41.207 29.51Z" fill="#A59568"/>
<path d="M44.1611 24.7521C42.7989 23.0105 39.2854 23.6062 37.8853 24.9911C37.7069 25.1695 37.8967 25.4085 38.1091 25.3744C39.0274 25.2416 39.8393 24.7141 40.7538 24.5206C41.7403 24.312 43.2239 24.1981 44.0473 24.8621C44.1269 24.9266 44.2218 24.8318 44.1573 24.7521H44.1611Z" fill="#3F1D2B"/>
<path d="M26.3501 24.866C27.1431 24.2286 28.4104 24.3424 29.3666 24.4752C30.3987 24.6194 31.2714 25.2303 32.2882 25.3783C32.5007 25.4086 32.6904 25.1696 32.5121 24.995C31.1158 23.6101 27.5985 23.0144 26.2401 24.756C26.1756 24.8357 26.2704 24.9305 26.3501 24.866Z" fill="#3F1D2B"/>
<path d="M36.2776 39.327C36.1448 39.2891 35.974 39.3042 35.864 39.3953C35.8109 39.437 35.7653 39.4902 35.7274 39.5433C35.6857 39.6078 35.6781 39.6761 35.6705 39.752C35.6591 39.881 35.8223 39.9607 35.9247 39.9C35.9664 39.8772 36.0082 39.8582 36.0423 39.8241C36.0727 39.7975 36.0955 39.7634 36.1296 39.7368C36.1675 39.7064 36.2055 39.6344 36.2738 39.6116C36.4028 39.5661 36.4218 39.3725 36.2738 39.3308L36.2776 39.327Z" fill="#CC6144"/>
</svg>
