<svg width="74" height="63" viewBox="0 0 74 63" fill="none" xmlns="http://www.w3.org/2000/svg">
<rect width="74" height="63" rx="10" fill="#DAE1FE"/>
<path fill-rule="evenodd" clip-rule="evenodd" d="M27.6692 18.1075C28.3027 19.8341 28.7779 32.8108 26.2396 33.7928C17.5 37.1825 18.6009 48.401 25.9743 52.6421C39.8895 60.6491 42.0833 15.4821 41.9685 13.2606C41.8774 11.538 43.6792 12.3696 43.5762 11.0628C43.0971 5.05954 37.9373 2.55686 34.1793 3.06374C28.9522 3.7686 24.6952 9.99758 27.6692 18.1075Z" fill="#72130D"/>
<path fill-rule="evenodd" clip-rule="evenodd" d="M35.8227 14.0844C37.9849 14.0844 39.747 12.5875 39.747 10.7541C39.747 8.92063 37.9849 7.42773 35.8227 7.42773C33.6606 7.42773 31.8984 8.92459 31.8984 10.7541C31.8984 12.5836 33.6606 14.0844 35.8227 14.0844Z" fill="#E3A64A"/>
<path fill-rule="evenodd" clip-rule="evenodd" d="M23.0514 45.5408C23.0792 45.6161 23.0435 45.7032 22.9643 45.7309C22.8891 45.7586 22.802 45.723 22.7703 45.6438C22.3228 44.4716 22.1129 42.9471 22.2753 41.5096C22.4179 40.2622 22.8376 39.0742 23.6217 38.2308C25.2769 36.4448 25.4234 36.3736 25.4234 36.3736C25.4947 36.334 25.5858 36.3577 25.6254 36.429C25.665 36.5003 25.6412 36.5914 25.57 36.631C25.57 36.631 25.463 36.6824 23.8395 38.4327C23.1029 39.2247 22.7069 40.3533 22.5723 41.5413C22.4139 42.9312 22.6159 44.4043 23.0475 45.5369L23.0514 45.5408Z" fill="#992317"/>
<path fill-rule="evenodd" clip-rule="evenodd" d="M23.9186 21.354C24.576 14.5271 27.9657 9.0109 35.7747 9.60093C44.3875 9.40294 47.8643 16.416 47.9396 24.1735C47.5594 23.9993 47.1753 23.8329 46.7872 23.6785C46.9258 22.5895 46.023 18.4039 45.2706 19.1206C34.8005 29.1392 23.1821 24.221 23.5741 23.8369C23.7642 23.6508 23.8909 21.6154 23.9186 21.3501V21.354Z" fill="#440908"/>
<path fill-rule="evenodd" clip-rule="evenodd" d="M24.5723 30.0311L25.384 31.4567C25.384 10.9719 40.6852 9.08699 45.1481 22.1548C46.3559 25.687 46.0311 27.77 46.0311 31.4567L46.8429 30.0311C48.3913 27.3027 49.1753 25.1643 49.1001 21.7786C49.0526 19.6125 48.6368 17.4702 47.9002 15.9773C43.6393 7.36046 29.4232 6.96843 24.2555 14.7972C21.242 19.363 22.0023 25.5049 24.5723 30.0271V30.0311Z" fill="#440908"/>
<path fill-rule="evenodd" clip-rule="evenodd" d="M43.945 20.8161C43.1174 22.1348 40.8444 24.6256 38.0605 24.8909C39.2525 23.9247 40.5315 22.6892 41.28 21.7229C42.1314 20.6221 42.4284 19.7905 43.4381 18.7411C43.8698 18.2936 44.1866 18.4679 44.2024 18.4797C45.228 18.9153 44.4994 19.8499 43.945 20.8201V20.8161Z" fill="#440908"/>
<path fill-rule="evenodd" clip-rule="evenodd" d="M25.7485 22.7444C25.6693 22.7286 25.6138 22.6533 25.6297 22.5702C25.6455 22.491 25.7207 22.4355 25.8039 22.4514C27.6967 22.7998 30.2192 22.8078 32.8645 22.1464C34.9751 21.6158 37.161 20.6615 39.1608 19.1052C43.6434 15.6205 43.4256 13.1812 43.4256 13.1732C43.4216 13.0901 43.481 13.0188 43.5642 13.0148C43.6474 13.0109 43.7186 13.0703 43.7226 13.1534C43.7226 13.1614 43.9483 15.7551 39.3429 19.3388C37.3075 20.9228 35.082 21.897 32.9357 22.4355C30.2509 23.1087 27.6809 23.1008 25.7524 22.7444H25.7485Z" fill="#992317"/>
<path fill-rule="evenodd" clip-rule="evenodd" d="M25.2252 21.8618C25.142 21.8538 25.0826 21.7826 25.0906 21.6994C25.0985 21.6162 25.1698 21.5569 25.2529 21.5648C26.6943 21.7113 28.7931 21.2282 30.8681 20.2976C32.7728 19.4422 34.6578 18.2147 35.9843 16.7495C38.7563 13.6964 38.8474 12.049 38.8474 12.0411C38.8513 11.958 38.9226 11.8986 39.0058 11.9025C39.0889 11.9065 39.1483 11.9778 39.1444 12.0609C39.1444 12.0649 39.0454 13.8152 36.2021 16.9475C34.8439 18.4443 32.9273 19.6957 30.9869 20.5629C28.8683 21.5133 26.7141 22.0043 25.2212 21.8538L25.2252 21.8618Z" fill="#992317"/>
<path fill-rule="evenodd" clip-rule="evenodd" d="M25.2306 20.3681C25.1554 20.3958 25.0683 20.3601 25.0406 20.2809C25.0128 20.2057 25.0485 20.1186 25.1277 20.0909C26.6721 19.5048 29.0441 18.1465 30.9844 16.2101C32.3783 14.8242 33.5465 13.1372 34.0296 11.2325C34.0494 11.1533 34.1286 11.1058 34.2118 11.1256C34.291 11.1454 34.3385 11.2246 34.3187 11.3077C33.8237 13.2758 32.6238 15.0024 31.1943 16.424C29.2183 18.3921 26.8027 19.7741 25.2306 20.372V20.3681Z" fill="#992317"/>
<path d="M39.509 38.3789C39.509 38.3789 38.8952 45.7523 39.01 46.7819C39.1209 47.8115 48.4624 51.6288 50.2364 52.9158C52.0105 54.2028 52.062 58.432 51.4957 62.0395H20.1093C19.543 58.432 19.5945 54.2028 21.3685 52.9158C23.1426 51.6288 32.4841 47.8115 32.5949 46.7819C32.7058 45.7523 32.092 38.3789 32.092 38.3789H39.509Z" fill="#E5805C"/>
<path d="M39.5088 38.3789H32.0918C32.0918 38.3789 32.4165 42.2913 32.5511 44.8138C34.7687 44.6514 36.9784 44.2634 39.1207 43.6139C39.2712 41.2142 39.5088 38.3789 39.5088 38.3789Z" fill="#CC6144"/>
<path d="M35.802 62.6611H52.604C52.604 62.6611 52.113 53.2801 51.4952 52.8128C50.8775 52.3455 42.423 48.3262 42.423 48.3262C42.423 48.3262 40.2688 50.2071 35.802 50.2071C31.3352 50.2071 29.181 48.3262 29.181 48.3262C29.181 48.3262 20.7265 52.3495 20.1088 52.8128C19.491 53.2761 19 62.6611 19 62.6611H35.802Z" fill="#FFECE3"/>
<path d="M35.6792 53.585C38.3878 51.9614 41.2152 50.4923 44.0624 49.1102C43.0883 48.643 42.423 48.3262 42.423 48.3262C42.423 48.3262 40.2688 50.2071 35.802 50.2071C31.3352 50.2071 29.181 48.3262 29.181 48.3262C29.181 48.3262 20.7265 52.3495 20.1088 52.8128C19.491 53.2761 19 62.6611 19 62.6611H25.6329C28.389 59.0774 31.7114 56.0084 35.6753 53.5889L35.6792 53.585Z" fill="#F9F7ED"/>
<path d="M45.5702 29.0811C45.5702 29.0811 47.6571 26.6378 49.6133 28.2535C51.5774 29.8731 50.3736 35.6784 44.7148 35.4328L45.5702 29.0811Z" fill="#E5805C"/>
<path d="M46.2508 33.8923C46.5636 34.4902 48.2347 34.3001 49.1534 32.5934C50.0721 30.8906 49.7355 29.1879 49.2841 29.3859C48.8327 29.5839 45.5023 32.4509 46.2547 33.8883L46.2508 33.8923Z" fill="#D87350"/>
<path d="M49.4152 29.461L49.3875 29.3818H49.3162L49.2806 29.3898C47.5184 30.055 46.2433 31.7024 45.8671 33.7972C45.8553 33.8566 45.8711 33.916 45.9107 33.9635C45.9503 34.011 46.0097 34.0387 46.0691 34.0387C46.1562 34.0387 46.2275 33.9833 46.2513 33.8922C46.2552 33.8764 46.2592 33.8605 46.2631 33.8447C46.4968 33.9714 46.7542 34.0387 47.0155 34.0387C47.5976 34.0387 48.2471 33.6863 48.3777 32.8943C48.4649 32.3597 48.2075 31.9202 47.7481 31.8291C47.4709 31.7736 47.1779 31.9004 46.9284 32.0786C47.5026 30.9935 48.3183 30.154 49.3638 29.5759C49.4034 29.5521 49.4271 29.5046 49.4152 29.461ZM47.9065 33.0289C47.7402 33.421 47.3917 33.6546 46.968 33.6546C46.7581 33.6546 46.5522 33.5992 46.3621 33.4922C46.4572 33.1755 46.5641 32.8745 46.6868 32.5854C46.9126 32.4112 47.1581 32.2369 47.4511 32.1538C47.657 32.0944 47.8075 32.13 47.8946 32.2686C48.0213 32.4627 48.0015 32.8072 47.9105 33.0329L47.9065 33.0289Z" fill="#CC6144"/>
<path d="M48.3222 28.2463C47.847 28.0483 46.9243 28.3651 46.96 28.971C46.9679 29.1175 47.0986 29.2324 47.2491 29.1888C47.6688 29.074 47.9064 28.6146 48.3222 28.4839C48.4489 28.4443 48.4331 28.2899 48.3222 28.2424V28.2463Z" fill="#F48462"/>
<path d="M26.0326 29.0811C26.0326 29.0811 23.9457 26.6378 21.9895 28.2535C20.0254 29.8731 21.2292 35.6784 26.888 35.4328L26.0326 29.0811Z" fill="#E5805C"/>
<path d="M22.1749 29.5444C21.5492 29.4969 22.1472 33.1242 23.5648 34.0389C24.9825 34.9576 25.7586 34.8428 25.5567 33.6588C25.3547 32.4748 23.4342 29.6355 22.1749 29.5444Z" fill="#D87350"/>
<path d="M22.3223 29.3898L22.2867 29.3818C22.2391 29.3818 22.1995 29.4135 22.1877 29.461L22.1758 29.5442L22.2352 29.5759C23.2806 30.154 24.1003 30.9935 24.6705 32.0786C24.425 31.9004 24.128 31.7736 23.8508 31.8291C23.3915 31.9202 23.1301 32.3597 23.2212 32.8943C23.3519 33.6863 23.9974 34.0387 24.5834 34.0387C24.8487 34.0387 25.1061 33.9714 25.3358 33.8447C25.3398 33.8605 25.3437 33.8764 25.3477 33.8922C25.3675 33.9793 25.4427 34.0387 25.5298 34.0387C25.5892 34.0387 25.6486 34.011 25.6882 33.9635C25.7278 33.916 25.7397 33.8605 25.7318 33.7972C25.3556 31.7024 24.0765 30.055 22.3183 29.3898H22.3223ZM24.6349 33.6546C24.2112 33.6546 23.8588 33.421 23.6964 33.0289C23.6014 32.8072 23.5816 32.4587 23.7122 32.2647C23.7756 32.1696 23.8627 32.1261 23.9815 32.1261C24.033 32.1261 24.0924 32.134 24.1557 32.1538C24.4448 32.2369 24.6943 32.4112 24.92 32.5854C25.0428 32.8705 25.1537 33.1755 25.2447 33.4922C25.0547 33.5992 24.8448 33.6546 24.6389 33.6546H24.6349Z" fill="#CC6144"/>
<path d="M35.8026 13.6572C34.9868 13.6572 27.1303 15.855 26.3977 19.9258C25.6651 23.9966 24.5247 29.5722 26.1958 34.336C27.8629 39.0998 34.6621 41.6936 35.8026 41.6936C36.943 41.6936 43.7422 39.0998 45.4094 34.336C47.0765 29.5722 45.94 23.9966 45.2074 19.9258C44.4748 15.855 36.6183 13.6572 35.8026 13.6572Z" fill="#E5805C"/>
<path d="M28.3064 29.9251C28.2193 24.2782 29.8587 19.059 32.6861 14.5605C30.1161 15.5624 26.8571 17.3761 26.3977 19.9302C25.6651 24.001 24.5247 29.5766 26.1958 34.3404C27.7283 38.7161 33.589 41.2584 35.4145 41.6425C35.1531 41.4921 34.8957 41.3337 34.6463 41.1634C30.9358 38.6369 28.4094 34.4632 28.3064 29.9251Z" fill="#CC6144"/>
<path d="M37.4863 26.4948C36.92 27.9363 36.4567 29.8845 37.0626 31.3814C37.1576 31.615 37.5299 31.6744 37.6012 31.3814C37.7912 30.6092 37.6447 29.841 37.5893 29.053C37.5299 28.2055 37.5022 27.3502 37.5734 26.5028C37.5774 26.4513 37.5022 26.4473 37.4863 26.4909V26.4948Z" fill="#F48462"/>
<path d="M46.2305 29.2629C46.0009 30.6805 45.6484 32.0388 45.1574 33.3891C44.603 34.9176 43.6645 36.1373 42.8686 37.5272C42.8012 37.646 42.9478 37.8203 43.0666 37.7252C45.5613 35.8245 46.1197 32.1734 46.2543 29.2629C46.2543 29.247 46.2305 29.247 46.2305 29.2629Z" fill="#F48462"/>
<path d="M32.3868 29.6165C31.571 30.258 30.4504 30.5075 29.4366 30.2778C28.3833 30.0402 27.9042 28.979 27.4448 28.1355C27.421 28.0919 27.3458 28.1117 27.3498 28.1593C27.4408 29.466 28.0071 30.4085 29.2862 30.8203C30.3633 31.1648 31.8166 30.559 32.4066 29.6324C32.4145 29.6205 32.3987 29.6086 32.3868 29.6165Z" fill="#CC6144"/>
<path d="M39.2172 29.6165C40.033 30.258 41.1537 30.5075 42.1674 30.2778C43.2207 30.0402 43.6999 28.979 44.1592 28.1355C44.183 28.0919 44.2582 28.1117 44.2543 28.1593C44.1592 29.466 43.593 30.4085 42.3179 30.8203C41.2408 31.1648 39.7875 30.559 39.1974 29.6324C39.1895 29.6205 39.2054 29.6086 39.2172 29.6165Z" fill="#CC6144"/>
<g style="mix-blend-mode:multiply" opacity="0.4">
<path d="M45.7938 30.6027C46.0987 31.7274 44.9543 33.0183 43.2318 33.4895C41.5092 33.9568 39.8658 33.4262 39.5609 32.3015C39.256 31.1769 40.4004 29.886 42.123 29.4187C43.8455 28.9514 45.4889 29.4821 45.7938 30.6067V30.6027Z" fill="#E24D4D"/>
</g>
<g style="mix-blend-mode:multiply" opacity="0.4">
<path d="M25.8119 30.6027C25.5031 31.7274 26.6514 33.0183 28.374 33.4895C30.0926 33.9568 31.7399 33.4262 32.0449 32.3015C32.3498 31.1769 31.2054 29.886 29.4828 29.4187C27.7602 28.9514 26.1168 29.4821 25.8119 30.6067V30.6027Z" fill="#E24D4D"/>
</g>
<path d="M36.2358 34.3688C36.1764 34.2302 35.9705 34.1589 35.8438 34.0956C35.6418 34.0005 35.4438 33.9688 35.23 34.056C35.0399 34.1352 35.1349 34.3886 35.3013 34.4163C35.4597 34.444 35.6141 34.4163 35.7764 34.4203C35.9111 34.4203 36.0655 34.4955 36.1922 34.4599C36.2318 34.448 36.2556 34.4084 36.2358 34.3688Z" fill="#CC6144"/>
<path d="M37.3152 34.3411C37.4142 34.357 37.537 34.2501 37.6241 34.2105C37.7508 34.155 37.8815 34.159 37.9448 34.0204C37.9686 33.9689 37.9448 33.9016 37.8973 33.8739C37.7587 33.7868 37.632 33.8897 37.5172 33.9768C37.43 34.0402 37.2637 34.159 37.2598 34.2738C37.2598 34.3095 37.2835 34.3332 37.3152 34.3411Z" fill="#CC6144"/>
<path d="M40.7575 35.3076C38.1717 36.8164 35.2968 37.3826 32.3585 36.6223C32.2951 36.6065 32.2674 36.7015 32.3308 36.7213C35.1423 37.4499 38.3934 37.0817 40.7773 35.3433C40.7971 35.3274 40.7773 35.2997 40.7575 35.3116V35.3076Z" fill="#A8332D"/>
<path d="M32.3491 36.4951C32.3095 36.5387 32.2699 36.5822 32.2343 36.6298C32.1868 36.6892 32.1828 36.7446 32.2026 36.8159C32.2185 36.8673 32.2937 36.8951 32.3293 36.8476C32.3689 36.8 32.3927 36.7684 32.4085 36.705C32.4204 36.6535 32.4363 36.606 32.4561 36.5585C32.4798 36.4951 32.3927 36.4516 32.3491 36.4951Z" fill="#A8332D"/>
<path d="M40.6016 35.2681C40.6016 35.3552 40.6728 35.4265 40.756 35.4463C40.8629 35.47 40.9144 35.3354 40.8273 35.272C40.7877 35.2404 40.7481 35.2126 40.7006 35.1928C40.653 35.173 40.6016 35.2245 40.6016 35.2681Z" fill="#A8332D"/>
<path d="M33.3077 36.8679C34.3373 37.4262 35.5688 37.1451 36.6736 36.9985C37.8893 36.8402 38.8991 36.3966 39.9762 35.8462C40.0079 35.8304 39.9841 35.7749 39.9525 35.7868C37.8378 36.5313 35.4817 36.2818 33.3116 36.8402C33.2998 36.8402 33.2998 36.86 33.3116 36.8639L33.3077 36.8679Z" fill="#A8332D"/>
<path d="M32.8142 28.1595C32.8142 28.1595 32.3192 26.0053 29.9235 25.2569C27.5277 24.5045 25.7735 26.5716 27.3297 27.6368C28.8899 28.702 32.8142 28.1595 32.8142 28.1595Z" fill="#3F1D2B"/>
<path d="M27.341 27.4201C27.2777 27.7884 27.4994 30.0812 29.6101 30.489C31.7247 30.8969 32.7266 29.4872 32.8335 28.5328C32.9443 27.5785 31.6455 26.0895 30.4536 25.8242C29.2656 25.5589 27.543 26.2479 27.3371 27.4201H27.341Z" fill="#F9F7ED"/>
<path d="M30.4579 25.8193C29.3016 25.5619 27.6503 26.2034 27.3691 27.3162C27.9869 27.1102 28.6244 27.0033 29.2857 26.9598C30.4302 26.8964 31.5548 27.0231 32.5091 27.6963C32.5883 27.7517 32.6596 27.8151 32.7349 27.8785C32.4101 27.0073 31.4004 26.0292 30.4579 25.8193Z" fill="#E8E5DD"/>
<path d="M32.0374 28.1593C32.0374 29.1176 31.2612 29.8977 30.299 29.8977C29.3367 29.8977 28.5605 29.1176 28.5605 28.1593C28.5605 27.201 29.3367 26.4209 30.299 26.4209C31.2612 26.4209 32.0374 27.197 32.0374 28.1593Z" fill="#725F28"/>
<path d="M30.579 27.0752C30.975 27.1188 31.4106 27.1623 31.8026 27.297C31.5017 26.7782 30.9433 26.4258 30.2979 26.4258C29.7395 26.4258 29.2445 26.6911 28.9277 27.099C29.4702 27.0039 30.0444 27.0119 30.579 27.0752Z" fill="#3D3F26"/>
<path d="M31.9095 27.7165C31.9095 27.9422 31.7273 28.1243 31.5016 28.1243C31.2759 28.1243 31.0938 27.9422 31.0938 27.7165C31.0938 27.4908 31.2759 27.3086 31.5016 27.3086C31.7273 27.3086 31.9095 27.4908 31.9095 27.7165Z" fill="#A59568"/>
<path d="M38.7891 28.1595C38.7891 28.1595 39.2841 26.0053 41.6798 25.2569C44.0756 24.5045 45.8298 26.5716 44.2736 27.6368C42.7134 28.702 38.7891 28.1595 38.7891 28.1595Z" fill="#3F1D2B"/>
<path d="M44.2647 27.4201C44.3281 27.7884 44.1063 30.0812 41.9957 30.489C39.8811 30.8969 38.8792 29.4872 38.7683 28.5328C38.6575 27.5785 39.9603 26.0895 41.1483 25.8242C42.3402 25.5589 44.0588 26.2479 44.2647 27.4201Z" fill="#F9F7ED"/>
<path d="M41.15 25.8193C42.3063 25.5619 43.9576 26.2034 44.2388 27.3162C43.621 27.1102 42.9835 27.0033 42.3221 26.9598C41.1777 26.8964 40.0531 27.0231 39.0988 27.6963C39.0196 27.7517 38.9483 27.8151 38.873 27.8785C39.1978 27.0073 40.2075 26.0292 41.15 25.8193Z" fill="#E8E5DD"/>
<path d="M39.5684 28.1593C39.5684 29.1176 40.3445 29.8977 41.3068 29.8977C42.269 29.8977 43.0452 29.1176 43.0452 28.1593C43.0452 27.201 42.269 26.4209 41.3068 26.4209C40.3445 26.4209 39.5684 27.197 39.5684 28.1593Z" fill="#725F28"/>
<path d="M41.0264 27.0752C40.6304 27.1188 40.1948 27.1623 39.8027 27.297C40.1037 26.7782 40.662 26.4258 41.3075 26.4258C41.8659 26.4258 42.3609 26.6911 42.6776 27.099C42.1351 27.0039 41.5609 27.0119 41.0264 27.0752Z" fill="#3D3F26"/>
<path d="M42.0723 27.7165C42.0723 27.9422 42.2544 28.1243 42.4801 28.1243C42.7059 28.1243 42.888 27.9422 42.888 27.7165C42.888 27.4908 42.7059 27.3086 42.4801 27.3086C42.2544 27.3086 42.0723 27.4908 42.0723 27.7165Z" fill="#A59568"/>
<path d="M45.1529 22.7511C43.7313 20.9335 40.0644 21.5552 38.6032 23.0006C38.4171 23.1867 38.6151 23.4362 38.8368 23.4005C39.7951 23.2619 40.6426 22.7115 41.5969 22.5095C42.6265 22.2917 44.1748 22.1729 45.0341 22.8659C45.1173 22.9332 45.2163 22.8342 45.149 22.7511H45.1529Z" fill="#3F1D2B"/>
<path d="M26.5688 22.8659C27.3964 22.2007 28.719 22.3195 29.7169 22.4581C30.794 22.6085 31.7048 23.2461 32.766 23.4005C32.9878 23.4322 33.1858 23.1827 32.9997 23.0006C31.5424 21.5552 27.8716 20.9335 26.4539 22.7511C26.3866 22.8342 26.4856 22.9332 26.5688 22.8659Z" fill="#3F1D2B"/>
<path d="M36.9271 37.9558C36.7886 37.9162 36.6104 37.932 36.4955 38.0271C36.4401 38.0706 36.3926 38.1261 36.353 38.1815C36.3094 38.2488 36.3015 38.3201 36.2936 38.3993C36.2817 38.5339 36.452 38.6171 36.5589 38.5537C36.6024 38.53 36.646 38.5102 36.6816 38.4745C36.7133 38.4468 36.7371 38.4112 36.7727 38.3835C36.8123 38.3518 36.8519 38.2765 36.9232 38.2528C37.0578 38.2053 37.0776 38.0033 36.9232 37.9597L36.9271 37.9558Z" fill="#CC6144"/>
</svg>
