<svg width="134" height="134" viewBox="0 0 134 134" fill="none" xmlns="http://www.w3.org/2000/svg">
<path d="M0 10C0 4.47715 4.47715 0 10 0H124C129.523 0 134 4.47715 134 10V134H0V10Z" fill="#DAE1FE"/>
<path d="M53.4319 45.6836C53.4319 45.6836 55.2796 39.3586 62.871 37.8984C70.4625 36.4383 85.7838 35.2134 92.0327 47.386C99.6934 62.306 97.2783 73.2191 97.5966 81.6825C98.3509 101.509 98.2748 132.532 98.2748 132.532H38.2974C38.2974 132.532 36.2836 132.567 35.647 120.609C35.2179 112.595 34.6089 91.6061 35.3425 77.9041C36.0276 65.2747 38.1036 37.6562 53.4319 45.6836Z" fill="#72130D"/>
<path d="M54.678 55.828C50.5466 57.9041 50.256 63.98 49.1695 67.9314C47.7439 73.1285 45.9239 78.0695 50.4013 82.2978C50.9688 82.8375 52.076 82.4915 52.0275 81.6265C51.9099 79.6958 51.3286 77.8411 51.204 75.9243C51.0518 73.5575 51.903 71.1216 52.2698 68.7895C52.9549 64.416 53.0587 60.3469 55.3077 56.4577C55.5499 56.0425 55.0794 55.6342 54.6849 55.8349L54.678 55.828Z" fill="#440908"/>
<path d="M56.1712 53.5934C60.704 51.5035 65.8318 50.3409 70.8005 51.2682C75.1187 52.0779 78.4335 54.6799 81.0424 58.1469C87.4159 66.6311 80.4265 75.7311 81.5476 84.9696C81.6929 86.1529 83.3399 86.928 84.0112 85.6408C86.7032 80.4645 87.9073 74.3332 88.2533 68.541C88.5785 63.0672 86.6755 58.5344 83.25 54.3546C80.2674 50.7146 76.0737 47.8981 71.285 47.7112C65.7073 47.4967 60.1642 49.7735 55.8252 53.1367C55.5484 53.3512 55.9014 53.718 56.1782 53.5934H56.1712Z" fill="#440908"/>
<path d="M84.3232 63.9522C83.1814 70.3396 82.953 77.6335 85.6934 83.5641C87.292 87.4394 91.3957 89.4947 90.4822 94.0551C89.3404 98.6155 84.5516 100.899 83.6381 105.46C82.4963 110.02 86.8283 113.217 89.112 116.636C93.2157 122.795 92.9873 128.04 86.3716 131.687L60.6008 133.057C51.9367 132.372 36.8783 130.317 42.1238 118.006C45.3141 111.162 52.1581 109.342 56.4902 103.64C59.6804 99.5359 56.7185 94.9755 53.7567 91.55C49.8814 87.218 47.141 84.0208 47.8261 77.8618C48.7396 70.1043 53.7567 63.7239 59.0022 58.25L84.3163 63.9522H84.3232Z" fill="#440908"/>
<path d="M68.8031 46.4034C74.1663 46.7978 79.7578 47.4829 84.3113 50.5624C90.7056 54.8876 91.273 63.6139 91.4668 70.6033C91.4668 70.631 91.5083 70.631 91.5083 70.6033C91.6882 63.4686 91.4599 56.2093 85.8407 51.0399C81.3287 46.8947 74.623 46.2927 68.8031 46.2373C68.6924 46.2373 68.6993 46.3965 68.8031 46.4034Z" fill="#992317"/>
<path d="M91.2441 87.7305V116.311" stroke="#992317" stroke-miterlimit="10"/>
<path d="M47.1914 69.5166C47.1914 69.5166 43.5029 91.8758 43.9943 108.955" stroke="#992317" stroke-miterlimit="10"/>
<path d="M54.261 47.1169C54.2403 49.0753 54.2057 51.1445 54.787 53.0268C55.3683 54.9021 56.4271 56.9159 57.4028 58.6114C57.7281 59.1788 58.51 58.8812 58.5585 58.3C58.7107 56.5353 57.5551 55.1305 56.6762 53.6911C55.4098 51.622 55.3406 49.3106 54.5863 47.0754C54.5309 46.9024 54.261 46.9301 54.261 47.1169Z" fill="#440908"/>
<path d="M74.7175 91.5635C74.7175 91.5635 73.6448 104.449 73.8386 106.248C74.0324 108.047 90.3571 114.718 93.4574 116.968C96.5576 119.217 96.6476 126.607 95.658 132.912H40.8154C39.8258 126.607 39.9158 119.217 43.016 116.968C46.1163 114.718 62.441 108.047 62.6348 106.248C62.8286 104.449 61.7559 91.5635 61.7559 91.5635H74.7175Z" fill="#E5805C"/>
<path d="M74.7174 91.5635H61.7559C61.7559 91.5635 62.3233 98.4006 62.5586 102.809C66.4339 102.525 70.2954 101.847 74.0392 100.712C74.3091 96.5183 74.7174 91.5635 74.7174 91.5635Z" fill="#CC6144"/>
<path d="M68.2335 134H97.5959C97.5959 134 96.7378 117.606 95.6582 116.79C94.5787 115.98 79.8041 108.949 79.8041 108.949C79.8041 108.949 76.0395 112.236 68.2335 112.236C60.4275 112.236 56.6629 108.949 56.6629 108.949C56.6629 108.949 41.8883 115.973 40.8087 116.79C39.7292 117.599 38.8711 134 38.8711 134H68.2335Z" fill="#FFECE3"/>
<path d="M68.019 118.139C72.7524 115.302 77.6934 112.735 82.669 110.319C80.9667 109.503 79.8041 108.949 79.8041 108.949C79.8041 108.949 76.0395 112.236 68.2335 112.236C60.4275 112.236 56.6629 108.949 56.6629 108.949C56.6629 108.949 41.8883 115.973 40.8087 116.79C39.7292 117.599 38.8711 134 38.8711 134H50.4624C55.2789 127.738 61.0849 122.374 68.0121 118.146L68.019 118.139Z" fill="#F9F7ED"/>
<path d="M85.3112 75.3158C85.3112 75.3158 88.9581 71.046 92.3767 73.8695C95.8091 76.6998 93.7054 86.8449 83.8164 86.4158L85.3112 75.3158Z" fill="#E5805C"/>
<path d="M86.494 83.7239C87.0407 84.7689 89.961 84.4367 91.5665 81.461C93.172 78.4853 92.5838 75.5096 91.7949 75.8556C91.006 76.2017 85.1792 81.2119 86.5009 83.7239H86.494Z" fill="#D87350"/>
<path d="M92.0295 75.9812L91.9811 75.8428H91.8565L91.7942 75.8566C88.7217 77.0192 86.4864 79.898 85.829 83.5588C85.8082 83.6626 85.8359 83.7664 85.9051 83.8494C85.9743 83.9325 86.0781 83.9809 86.1819 83.9809C86.3342 83.9809 86.4587 83.884 86.5003 83.7249C86.5072 83.6972 86.5141 83.6695 86.521 83.6418C86.9293 83.8633 87.3791 83.9809 87.8359 83.9809C88.8531 83.9809 89.9881 83.365 90.2164 81.981C90.3756 81.0468 89.9188 80.2786 89.1161 80.1195C88.6317 80.0226 88.1196 80.244 87.6836 80.5554C88.6871 78.6593 90.1126 77.1922 91.9395 76.1819C92.0087 76.1403 92.0503 76.0573 92.0295 75.9812ZM89.3929 82.2163C89.1023 82.9014 88.4933 83.3097 87.7528 83.3097C87.3861 83.3097 87.0262 83.2128 86.694 83.0259C86.8601 82.4723 87.047 81.9464 87.2615 81.4412C87.6559 81.1367 88.085 80.8322 88.5971 80.6869C88.9569 80.5831 89.213 80.6454 89.3722 80.8876C89.5936 81.2267 89.559 81.8287 89.3998 82.2232L89.3929 82.2163Z" fill="#CC6144"/>
<path d="M90.1128 73.8567C89.2823 73.5107 87.6699 74.0643 87.7322 75.1231C87.7461 75.3792 87.9744 75.5798 88.2374 75.5037C88.9709 75.303 89.3862 74.5003 90.1128 74.2719C90.3342 74.2027 90.3065 73.9328 90.1128 73.8498V73.8567Z" fill="#F48462"/>
<path d="M51.1608 75.3158C51.1608 75.3158 47.5138 71.046 44.0953 73.8695C40.6628 76.6998 42.7666 86.8449 52.6555 86.4158L51.1608 75.3158Z" fill="#E5805C"/>
<path d="M44.4202 76.1248C43.3268 76.0418 44.3718 82.3807 46.8492 83.9793C49.3266 85.5847 50.683 85.3841 50.3301 83.3149C49.9771 81.2458 46.6208 76.284 44.4202 76.1248Z" fill="#D87350"/>
<path d="M44.676 75.8566L44.6137 75.8428C44.5306 75.8428 44.4614 75.8981 44.4407 75.9812L44.4199 76.1196L44.5237 76.1819C46.3507 77.1922 47.7762 78.6593 48.7796 80.5554C48.3506 80.244 47.8316 80.0226 47.3472 80.1195C46.5444 80.2786 46.0877 81.0468 46.2469 81.981C46.4752 83.365 47.6032 83.9809 48.6274 83.9809C49.0911 83.9809 49.5409 83.8633 49.9422 83.6418C49.9492 83.6695 49.9561 83.6972 49.963 83.7249C50.0045 83.8771 50.1291 83.9809 50.2813 83.9809C50.3851 83.9809 50.4889 83.9325 50.5581 83.8494C50.6273 83.7664 50.655 83.6626 50.6343 83.5588C49.9768 79.898 47.7416 77.0192 44.669 75.8566H44.676ZM48.7243 83.3097C47.9838 83.3097 47.3679 82.9014 47.0842 82.2163C46.9181 81.8287 46.8835 81.2198 47.1119 80.8807C47.2226 80.7146 47.3748 80.6385 47.5825 80.6385C47.6724 80.6385 47.7762 80.6523 47.8869 80.6869C48.3921 80.8322 48.8281 81.1367 49.2225 81.4412C49.4371 81.9395 49.6308 82.4723 49.79 83.0259C49.4578 83.2128 49.0911 83.3097 48.7312 83.3097H48.7243Z" fill="#CC6144"/>
<path d="M68.2334 48.3613C66.8078 48.3613 53.0781 52.202 51.7979 59.316C50.5177 66.43 48.5246 76.1736 51.445 84.4986C54.3584 92.8236 66.2404 97.3563 68.2334 97.3563C70.2264 97.3563 82.1084 92.8236 85.0218 84.4986C87.9352 76.1736 85.9491 66.43 84.6688 59.316C83.3886 52.202 69.6589 48.3613 68.2334 48.3613Z" fill="#E5805C"/>
<path d="M55.1393 76.7898C54.9871 66.9216 57.852 57.8008 62.793 49.9395C58.3018 51.6903 52.6065 54.8597 51.8038 59.3232C50.5235 66.4372 48.5305 76.1808 51.4508 84.5058C54.129 92.1527 64.3708 96.5954 67.5611 97.2667C67.1043 97.0037 66.6545 96.7269 66.2185 96.4293C59.7343 92.0143 55.3192 84.7204 55.1393 76.7898Z" fill="#CC6144"/>
<path d="M71.1744 70.7959C70.1848 73.3149 69.3752 76.7266 70.4409 79.3424C70.607 79.7507 71.2575 79.8545 71.382 79.3424C71.7142 77.986 71.4582 76.6504 71.3613 75.2733C71.2575 73.7924 71.209 72.2976 71.3336 70.8167C71.3405 70.7198 71.209 70.7198 71.1813 70.7959H71.1744Z" fill="#F48462"/>
<path d="M86.4616 75.634C86.0602 78.1115 85.4443 80.4851 84.5862 82.8449C83.6174 85.5161 81.9773 87.6475 80.5863 90.0765C80.4687 90.2841 80.7247 90.5886 80.9323 90.4225C85.2921 87.1008 86.2678 80.7204 86.51 75.634C86.51 75.6064 86.4685 75.6064 86.4685 75.634H86.4616Z" fill="#F48462"/>
<path d="M62.2696 76.2495C60.844 77.3706 58.8856 77.8066 57.114 77.4052C55.2732 76.99 54.4359 75.1354 53.6331 73.6614C53.5916 73.5853 53.4601 73.6199 53.4671 73.7029C53.6262 75.9866 54.6158 77.6336 56.851 78.3533C58.7333 78.9553 61.273 77.8965 62.3042 76.2772C62.318 76.2565 62.2903 76.2357 62.2696 76.2495Z" fill="#CC6144"/>
<path d="M74.2063 76.2495C75.6319 77.3706 77.5903 77.8066 79.3618 77.4052C81.2026 76.99 82.04 75.1354 82.8427 73.6614C82.8842 73.5853 83.0157 73.6199 83.0088 73.7029C82.8496 75.9866 81.86 77.6336 79.6248 78.3533C77.7425 78.9553 75.2028 77.8965 74.1717 76.2772C74.1579 76.2565 74.1855 76.2357 74.2063 76.2495Z" fill="#CC6144"/>
<g style="mix-blend-mode:multiply" opacity="0.4">
<path d="M85.6932 77.9722C86.226 79.9376 84.2261 82.1935 81.2158 83.0101C78.2055 83.8267 75.3336 82.8994 74.8008 80.9341C74.2679 78.9687 76.2679 76.7127 79.2782 75.8962C82.2884 75.0796 85.1603 76.0069 85.6932 77.9722Z" fill="#E24D4D"/>
</g>
<g style="mix-blend-mode:multiply" opacity="0.4">
<path d="M50.7813 77.9722C50.2484 79.9376 52.2483 82.1935 55.2586 83.0101C58.2689 83.8267 61.1408 82.8994 61.6736 80.9341C62.2065 78.9687 60.2066 76.7127 57.1963 75.8962C54.186 75.0796 51.3141 76.0069 50.7813 77.9722Z" fill="#E24D4D"/>
</g>
<path d="M68.9881 84.5539C68.8843 84.3117 68.5244 84.1802 68.303 84.0764C67.95 83.9103 67.604 83.855 67.2303 84.0072C66.8982 84.1456 67.0642 84.5885 67.3549 84.637C67.6317 84.6854 67.9016 84.637 68.1853 84.6439C68.4206 84.6439 68.6905 84.7754 68.9119 84.7131C68.9811 84.6923 69.0227 84.6231 68.9881 84.5539Z" fill="#CC6144"/>
<path d="M70.8859 84.5052C71.0589 84.5329 71.2735 84.346 71.4257 84.2768C71.6402 84.18 71.8755 84.1869 71.9863 83.9447C72.0278 83.8547 71.9793 83.7371 71.9032 83.6886C71.661 83.5364 71.4396 83.7163 71.2389 83.8685C71.0866 83.9793 70.796 84.1869 70.7891 84.3876C70.7891 84.4498 70.8306 84.4914 70.8859 84.5052Z" fill="#CC6144"/>
<path d="M76.8904 86.1934C72.3715 88.83 67.3475 89.8195 62.2127 88.4909C62.102 88.4632 62.0535 88.6362 62.1642 88.6639C67.0776 89.9372 72.7591 89.2936 76.925 86.2556C76.9596 86.228 76.925 86.1795 76.8904 86.2003V86.1934Z" fill="#A8332D"/>
<path d="M62.2056 88.269C62.1364 88.3451 62.0672 88.4212 62.0049 88.5043C61.9219 88.6081 61.915 88.705 61.9565 88.8295C61.9842 88.9195 62.1156 88.9679 62.1779 88.8849C62.2471 88.8019 62.2886 88.7465 62.3163 88.6358C62.3371 88.5458 62.3648 88.4628 62.3994 88.3797C62.4409 88.269 62.2886 88.1929 62.2125 88.269H62.2056Z" fill="#A8332D"/>
<path d="M76.6211 86.1245C76.6211 86.2767 76.7457 86.4082 76.891 86.4359C77.0778 86.4774 77.1678 86.2421 77.0225 86.1314C76.9463 86.0829 76.8841 86.0276 76.801 85.993C76.7111 85.9584 76.628 86.0483 76.628 86.1245H76.6211Z" fill="#A8332D"/>
<path d="M63.873 88.9204C65.6722 89.8962 67.8244 89.4048 69.7482 89.1488C71.8727 88.872 73.6374 88.0969 75.5197 87.135C75.575 87.1073 75.5335 87.0105 75.4782 87.0312C71.7828 88.3322 67.6653 87.8962 63.873 88.872C63.8522 88.872 63.8522 88.9066 63.873 88.9135V88.9204Z" fill="#A8332D"/>
<path d="M63.015 73.7028C63.015 73.7028 62.15 69.9382 57.9633 68.6303C53.7766 67.3155 50.7109 70.9278 53.4305 72.7893C56.1571 74.6509 63.015 73.7028 63.015 73.7028Z" fill="#3F1D2B"/>
<path d="M53.4454 72.4084C53.3347 73.0589 53.7222 77.0587 57.4107 77.7715C61.1061 78.4843 62.8569 76.0207 63.0438 74.3529C63.2375 72.6852 60.9677 70.0832 58.8847 69.6195C56.8087 69.1559 53.7984 70.36 53.4385 72.4084H53.4454Z" fill="#F9F7ED"/>
<path d="M58.8919 69.6126C56.8712 69.1628 53.9855 70.2838 53.4941 72.2284C54.5737 71.8686 55.6878 71.6817 56.8435 71.6125C58.8435 71.5018 60.8088 71.7232 62.4766 72.8997C62.615 72.9966 62.7395 73.1073 62.871 73.218C62.3036 71.6956 60.5389 69.9863 58.8919 69.6195V69.6126Z" fill="#E8E5DD"/>
<path d="M61.6521 73.702C61.6521 75.3767 60.2957 76.74 58.6141 76.74C56.9325 76.74 55.5762 75.3836 55.5762 73.702C55.5762 72.0204 56.9325 70.6641 58.6141 70.6641C60.2957 70.6641 61.6521 72.0204 61.6521 73.702Z" fill="#725F28"/>
<path d="M59.1123 71.8068C59.8043 71.8829 60.5655 71.959 61.2506 72.1943C60.7247 71.2878 59.7489 70.6719 58.621 70.6719C57.6452 70.6719 56.7802 71.1355 56.2266 71.8483C57.1746 71.6822 58.1781 71.6961 59.1123 71.8068Z" fill="#3D3F26"/>
<path d="M61.4373 72.9266C61.4373 73.3211 61.1189 73.6394 60.7245 73.6394C60.33 73.6394 60.0117 73.3211 60.0117 72.9266C60.0117 72.5322 60.33 72.2139 60.7245 72.2139C61.1189 72.2139 61.4373 72.5322 61.4373 72.9266Z" fill="#A59568"/>
<path d="M73.459 73.7028C73.459 73.7028 74.324 69.9382 78.5107 68.6303C82.6975 67.3155 85.7631 70.9278 83.0435 72.7893C80.3169 74.6509 73.459 73.7028 73.459 73.7028Z" fill="#3F1D2B"/>
<path d="M83.0298 72.4084C83.1406 73.0589 82.7599 77.0587 79.0646 77.7715C75.3692 78.4843 73.6184 76.0207 73.4315 74.3529C73.2378 72.6852 75.5076 70.0832 77.5906 69.6195C79.6666 69.1559 82.6769 70.36 83.0368 72.4084H83.0298Z" fill="#F9F7ED"/>
<path d="M77.5826 69.6126C79.6033 69.1628 82.4891 70.2838 82.9804 72.2284C81.9008 71.8686 80.7867 71.6817 79.631 71.6125C77.6311 71.5018 75.6657 71.7232 73.998 72.8997C73.8596 72.9966 73.735 73.1073 73.6035 73.218C74.171 71.6956 75.9356 69.9863 77.5826 69.6195V69.6126Z" fill="#E8E5DD"/>
<path d="M74.8223 73.702C74.8223 75.3767 76.1786 76.74 77.8602 76.74C79.5418 76.74 80.8982 75.3836 80.8982 73.702C80.8982 72.0204 79.5418 70.6641 77.8602 70.6641C76.1786 70.6641 74.8223 72.0204 74.8223 73.702Z" fill="#725F28"/>
<path d="M77.361 71.8068C76.669 71.8829 75.9078 71.959 75.2227 72.1943C75.7486 71.2878 76.7243 70.6719 77.8523 70.6719C78.8281 70.6719 79.6931 71.1355 80.2467 71.8483C79.2987 71.6822 78.2952 71.6961 77.361 71.8068Z" fill="#3D3F26"/>
<path d="M79.1895 72.9266C79.1895 73.3211 79.5078 73.6394 79.9022 73.6394C80.2967 73.6394 80.615 73.3211 80.615 72.9266C80.615 72.5322 80.2967 72.2139 79.9022 72.2139C79.5078 72.2139 79.1895 72.5322 79.1895 72.9266Z" fill="#A59568"/>
<path d="M84.578 64.2497C82.0937 61.0733 75.6856 62.1598 73.1389 64.6856C72.8137 65.0109 73.1597 65.4468 73.5472 65.3915C75.2219 65.1493 76.7028 64.1874 78.3637 63.8344C80.1698 63.4538 82.8687 63.2462 84.3704 64.4573C84.5157 64.5749 84.6887 64.4019 84.5711 64.2566L84.578 64.2497Z" fill="#3F1D2B"/>
<path d="M52.0951 64.4504C53.5414 63.2878 55.8527 63.4954 57.5966 63.7376C59.4789 64.0006 61.0706 65.1148 62.9252 65.3847C63.3127 65.44 63.6587 65.004 63.3335 64.6788C60.7868 62.1529 54.3718 61.0664 51.8944 64.2428C51.7767 64.3881 51.9498 64.5611 52.0951 64.4435V64.4504Z" fill="#3F1D2B"/>
<path d="M70.2001 90.8225C69.9579 90.7533 69.6464 90.781 69.4458 90.947C69.3489 91.0232 69.2658 91.12 69.1966 91.2169C69.1205 91.3346 69.1067 91.4591 69.0928 91.5975C69.0721 91.8328 69.3696 91.9782 69.5565 91.8674C69.6326 91.8259 69.7087 91.7844 69.771 91.729C69.8264 91.6806 69.8679 91.6183 69.9302 91.5699C69.9994 91.5145 70.0686 91.383 70.1931 91.3415C70.4284 91.2585 70.463 90.9055 70.1931 90.8294L70.2001 90.8225Z" fill="#CC6144"/>
<path d="M50.6901 50.583C50.6901 50.583 35.002 59.7661 38.8773 117.294" stroke="#992317" stroke-miterlimit="10"/>
<path d="M60.0117 43.9061C60.0117 43.9061 92.1837 31.4913 95.0141 67.0127" stroke="#992317" stroke-miterlimit="10"/>
<path d="M32 24H106" stroke="#72130D" stroke-width="2" stroke-linecap="round" stroke-linejoin="round"/>
</svg>
