<svg width="160" height="161" viewBox="0 0 160 161" fill="none" xmlns="http://www.w3.org/2000/svg">
<path d="M0 10C0 4.47715 4.47715 0 10 0H150C155.523 0 160 4.47715 160 10V160H0V10Z" fill="#DAE1FE"/>
<path d="M96.6202 95.9061C94.7416 113.266 92.1922 131.137 96.9562 147.935C97.2573 149.001 90.463 152.965 89.549 153.485C86.7274 155.088 83.6976 156.322 80.5594 157.145C78.8542 157.592 73.6049 159.338 72.2116 157.824C70.9303 156.434 72.0105 151.307 71.9768 149.582C71.8985 145.377 71.5023 141.177 70.7954 137.032C70.0319 132.568 68.9072 128.143 68.6928 123.62C68.4941 119.415 69.0866 115.212 69.0914 111.002C69.0951 107.905 68.7783 104.828 68.293 101.77C68.1521 100.881 67.9968 99.9957 67.8306 99.1094C67.3453 96.5142 66.7697 93.9324 66.1941 91.3601C65.828 91.3625 65.4667 91.3396 65.109 91.2963C62.65 90.9916 60.3692 89.673 57.9764 88.8529C57.243 88.6012 56.4988 88.3977 55.7341 88.2833C53.5327 87.9545 51.223 88.3881 49.1072 87.6992C48.3208 87.4439 47.5838 86.9189 47.0359 86.2698C46.105 85.174 45.7161 83.7168 46.5422 82.5897C47.0504 81.8972 47.8753 81.5263 48.6761 81.2157C51.2242 80.2258 53.8952 79.5526 56.6084 79.2082C59.3576 78.859 62.1514 78.8445 64.9019 79.1781C65.5233 77.2874 66.1435 75.3968 66.7661 73.5062C66.8215 73.3388 66.8757 73.1702 66.9323 73.0028C67.2466 72.0454 67.5621 71.0893 67.8752 70.1319C68.6808 67.6825 69.4864 65.2331 70.2897 62.7812C71.4192 64.3588 72.5548 65.9436 73.7145 67.5151C78.6362 74.1926 83.9589 80.6147 90.8423 85.1607C92.9015 86.5227 95.2113 87.8413 96.2156 90.0957C97.0176 91.8912 96.831 93.954 96.619 95.9097L96.6202 95.9061Z" fill="#E5805C"/>
<g style="mix-blend-mode:multiply" opacity="0.45">
<path d="M76.6192 100.181C75.7245 101.176 74.6009 101.956 73.3317 102.392C72.2033 102.779 70.8895 102.892 69.8695 102.275C68.9567 101.722 68.4509 100.699 68.0571 99.7078C67.9789 99.5091 67.903 99.3104 67.8295 99.1093C66.8734 96.5202 66.2749 93.7878 65.108 91.295C65.0092 91.0831 64.9057 90.8723 64.7973 90.664C63.5533 88.2688 61.4495 86.0867 58.9025 85.4425C58.4221 85.3196 57.9271 85.2534 57.4177 85.2498C56.5904 85.2426 55.7643 85.4051 54.9406 85.3437C54.1904 85.2883 53.4666 85.0499 52.7248 84.9234C50.833 84.6031 49.0242 85.1137 47.3901 86.0542C47.2684 86.1229 47.1516 86.1951 47.0372 86.2686C46.1618 85.2365 45.7656 83.8842 46.411 82.7895C46.4508 82.7221 46.4941 82.6535 46.5435 82.5884C47.0517 81.896 47.8766 81.5251 48.6774 81.2144C51.5627 80.0933 54.6034 79.3791 57.6851 79.0865C59.0784 78.9541 60.4837 78.9071 61.883 78.9492C62.8922 78.9781 63.9013 79.054 64.9044 79.1756C65.4716 77.4524 66.0364 75.7291 66.6036 74.0059C68.4425 77.2043 69.1602 81.1759 70.1152 84.8307C71.5277 90.2269 73.7387 95.4063 76.6216 100.181H76.6192Z" fill="#F1C4C6"/>
</g>
<g style="mix-blend-mode:multiply" opacity="0.45">
<path d="M63.1851 85.6599C63.1273 85.9441 63.0406 86.2463 62.8142 86.427C62.2747 86.8605 61.5221 86.3138 61.0127 85.8453C59.0956 84.0715 56.5402 83.0045 53.9318 82.8853C51.2102 82.7589 48.8584 83.3092 46.4102 82.7878C46.4499 82.7203 46.4932 82.6517 46.5426 82.5867C47.0508 81.8942 47.8757 81.5233 48.6765 81.2126C52.8661 79.5845 57.3879 78.8138 61.8809 78.9487C62.0796 79.3015 62.2531 79.6712 62.4084 80.0433C63.1502 81.8123 63.5596 83.7777 63.1851 85.6587V85.6599Z" fill="#F1C4C6"/>
</g>
<path d="M78.7585 87.5356C78.9199 88.8072 78.272 90.0283 77.6073 91.123C76.8161 92.4248 75.4397 94.1625 73.6935 93.6145C72.069 93.1027 71.9606 91.3096 71.3031 90.0368C69.6509 86.8359 65.518 84.2251 62.3966 82.6753C61.8294 82.3923 61.2394 82.1286 60.6108 82.0599C60.0098 81.9949 59.4089 82.1117 58.814 82.2105C57.0703 82.4995 55.2591 82.6307 53.5527 82.1743C51.8813 81.73 50.3097 80.6462 49.6161 79.0662C49.6016 79.0313 49.586 78.9976 49.5715 78.9626C49.4451 78.6544 49.3524 78.3148 49.4319 77.9908C49.5125 77.6585 49.7606 77.3971 50.0111 77.1659C52.7941 74.5684 56.6777 73.5978 60.3819 72.7187C61.7668 72.3911 63.2348 72.0648 64.5919 72.4923C64.999 72.6223 65.3687 72.8066 65.7119 73.0378C67.0992 73.9639 68.0288 75.598 69.0332 77.0021C70.9587 79.6948 73.5454 81.8323 76.1068 83.9289C77.2918 84.8983 78.5671 86.017 78.7585 87.5356Z" fill="#E5805C"/>
<g style="mix-blend-mode:multiply" opacity="0.45">
<path d="M65.7107 73.0366C65.5421 74.7322 64.9087 76.3844 63.8875 77.75C63.3961 78.4075 62.7928 79.018 62.0305 79.3215C60.4385 79.9561 58.6888 79.1252 57.0438 78.6411C55.0978 78.0655 52.776 77.88 50.8131 78.4906C50.4025 78.6182 50.0075 78.8338 49.6161 79.0662C49.6016 79.0313 49.586 78.9976 49.5715 78.9626C49.4451 78.6544 49.3524 78.3148 49.4319 77.9908C49.5125 77.6585 49.7606 77.3971 50.0111 77.1659C52.7941 74.5684 56.6777 73.5978 60.3819 72.7187C61.7668 72.3911 63.2348 72.0648 64.5919 72.4923C64.999 72.6223 65.3687 72.8066 65.7119 73.0378L65.7107 73.0366Z" fill="#F1C4C6"/>
</g>
<path d="M72.4599 83.3906C68.5221 78.599 66.0715 72.7777 63.9099 66.9649C63.3018 65.3283 62.7695 63.3112 63.9027 61.9842C64.8817 60.839 66.7326 60.8269 68.0561 61.5458C69.3795 62.2648 70.3008 63.5328 71.175 64.7587C75.0623 70.2103 78.9508 75.6607 82.838 81.1122C84.0435 82.8018 85.2549 84.5021 86.1412 86.3795C86.7843 87.7415 87.2455 89.354 86.629 90.728C84.3325 95.852 74.111 85.4005 72.4587 83.3906H72.4599Z" fill="#E5805C"/>
<g style="mix-blend-mode:multiply" opacity="0.45">
<path d="M78.6548 83.4902C79.0583 83.6179 79.505 83.7142 79.8964 83.5529C80.8309 83.1675 80.6804 81.8103 80.3552 80.853C79.4027 78.0423 78.3634 75.2605 77.2399 72.5124C76.0429 69.5837 74.6339 66.5479 72.0412 64.7355C70.5203 63.6722 68.5164 63.1134 66.7811 63.7709C65.2999 64.3321 64.233 65.7013 63.7079 67.1957C63.1829 68.6902 63.1359 70.3087 63.1961 71.8911C63.266 73.742 63.3274 77.3547 65.1397 78.4698C66.8666 79.5331 68.3382 78.0146 69.4955 76.932C70.6286 75.871 70.5239 75.7566 71.5282 76.9838C72.264 77.8809 72.7734 78.9623 73.5381 79.8583C74.9121 81.4707 76.6125 82.8436 78.6561 83.4902H78.6548Z" fill="#F1C4C6"/>
</g>
<g style="mix-blend-mode:multiply" opacity="0.45">
<path d="M73.3174 84.197C73.4318 84.3487 73.551 84.5161 73.5522 84.7064C73.5522 84.9087 73.4197 85.0833 73.2921 85.2411C72.5731 86.131 71.8542 87.0197 71.1353 87.9096C73.622 86.1792 76.11 84.4475 78.5967 82.717C77.5936 83.018 76.5905 83.3203 75.5861 83.6214C75.2465 83.7237 74.878 83.8249 74.5445 83.7045C74.241 83.5949 74.0303 83.3239 73.8388 83.0638C71.4291 79.7919 69.3807 76.2539 67.7406 72.5364C67.3395 71.6272 66.7784 70.2881 65.6934 70.1279C65.8728 72.0415 67.6057 74.6571 68.4727 76.3755C69.8564 79.1175 71.4773 81.7379 73.3162 84.1982L73.3174 84.197Z" fill="#F1C4C6"/>
</g>
<g style="mix-blend-mode:multiply" opacity="0.45">
<path d="M68.1404 69.3196C68.1356 69.2727 68.1308 69.2257 68.1272 69.1775C69.7709 72.7433 72.283 75.9008 74.6529 79.033C75.8668 80.6382 77.1746 82.3157 79.0447 83.0623C77.4407 80.3046 76.617 77.1772 75.5802 74.1606C74.5433 71.144 73.2114 68.1082 70.862 65.9502C70.1081 65.2589 68.987 64.6508 68.1151 65.1855C67.2131 65.7406 67.2902 67.0532 67.4805 68.0961C67.6105 68.2466 68.1597 69.5171 68.1416 69.3196H68.1404Z" fill="#F1C4C6"/>
</g>
<g style="mix-blend-mode:multiply" opacity="0.45">
<path d="M74.9728 104.357C71.354 99.2802 68.6987 93.5203 67.1886 87.4715C66.0952 83.0929 65.5954 78.5649 64.1889 74.2767C63.5506 72.3306 62.7209 70.4002 62.645 68.3543C62.5692 66.3071 63.4735 64.0491 65.3678 63.2688C67.5113 62.3861 69.927 63.6927 71.6407 65.2534C74.1744 67.5619 76.059 70.4809 77.8834 73.3819C79.3321 75.6856 80.7627 78.0026 82.1271 80.3568C83.5915 82.8833 84.9968 85.4965 85.635 88.3457C86.8766 93.884 84.886 100.027 80.6327 103.784C79.408 104.865 77.8701 105.795 76.2456 105.626C74.6211 105.458 73.1399 103.714 73.7746 102.21" fill="#F1C4C6"/>
</g>
<g style="mix-blend-mode:multiply" opacity="0.45">
<path d="M82.1449 91.5459C81.3284 93.3005 80.424 95.0153 79.4389 96.682C78.1311 98.8941 76.5969 101.099 74.3523 102.351C73.5394 102.805 72.4953 103.109 71.7102 102.61C70.9997 102.16 70.7829 101.233 70.7034 100.395C70.3687 96.8409 72.2075 97.1913 74.7485 96.4218C77.5941 95.5596 80.0543 93.5979 82.1449 91.5459Z" fill="#F1C4C6"/>
</g>
<path d="M98.0008 36.0601C88.4934 53.4601 78.986 70.8589 69.4762 88.2576C62.5518 82.2329 54.8471 77.5652 46.3477 74.1994C54.7761 56.4659 63.2045 38.7323 71.6354 21C81.3764 24.3128 90.1745 29.3297 98.0008 36.0601Z" fill="#FFE7D2"/>
<path d="M71.2163 85.0737C70.5202 86.3478 70.1722 86.9836 69.4762 88.2577C62.5518 82.2329 54.8471 77.5653 46.3477 74.1994C46.9654 72.8989 47.2749 72.2486 47.8927 70.9492C56.468 74.3163 64.2365 79.0055 71.2163 85.0737Z" fill="#569E5A"/>
<path d="M55.9316 54.0357C58.6665 57.4509 62.8114 59.9425 66.2736 62.3738C70.3644 65.2447 75.2066 67.7411 80.2788 68.495C86.1868 57.6846 92.0948 46.873 98.0015 36.0613C90.1752 29.3297 81.3771 24.3128 71.636 21C66.4 32.0115 61.1652 43.023 55.9316 54.0357Z" fill="#569E5A"/>
<path d="M95.3163 40.9725C94.5058 42.4573 93.6942 43.9409 92.8837 45.4257C85.2212 38.8205 76.6194 33.8615 67.1035 30.5318C67.8212 29.0204 68.5402 27.5103 69.2591 25.999C78.8821 29.3215 87.5767 34.3082 95.3175 40.9725H95.3163Z" fill="#296D58"/>
<path d="M79.7473 55.0229L67.0703 46.2994L67.9988 44.9507L80.6757 53.6742L79.7473 55.0229ZM78.6249 53.5345C78.1047 54.2895 77.5062 54.9434 76.827 55.4962C76.1478 56.0501 75.5012 56.4258 74.887 56.6257L73.7526 54.7519C74.3186 54.546 74.8846 54.2293 75.4494 53.803C76.0142 53.3767 76.491 52.8806 76.8812 52.3146C77.1786 51.8835 77.3749 51.5053 77.4725 51.1814C77.57 50.8575 77.5857 50.5805 77.5182 50.3493C77.452 50.1181 77.3207 49.935 77.122 49.7989C76.8704 49.6255 76.6018 49.587 76.3176 49.6833C76.0334 49.7785 75.7324 49.9567 75.4156 50.2144C75.0989 50.4733 74.763 50.7683 74.4077 51.1007C74.0537 51.4331 73.6791 51.751 73.2842 52.0557C72.8892 52.3603 72.4809 52.606 72.0607 52.7939C71.6404 52.9817 71.1984 53.0648 70.736 53.0443C70.2736 53.0239 69.7895 52.8408 69.2861 52.494C68.7466 52.1231 68.3552 51.6378 68.1108 51.0393C67.8663 50.4408 67.8145 49.7556 67.9554 48.9849C68.0951 48.2142 68.472 47.3832 69.0838 46.4921C69.492 45.8984 69.9641 45.3625 70.4988 44.8833C71.0346 44.404 71.5922 44.0391 72.1751 43.791L73.3697 45.607C72.8145 45.8743 72.3244 46.1862 71.9005 46.5439C71.4754 46.9016 71.1189 47.2905 70.8275 47.7132C70.5361 48.1359 70.3482 48.5164 70.2615 48.8536C70.1748 49.1908 70.17 49.4726 70.2471 49.6978C70.3241 49.923 70.4662 50.1072 70.6722 50.2493C70.9154 50.4167 71.1792 50.4516 71.4634 50.3565C71.7476 50.2614 72.0462 50.0819 72.3593 49.8206C72.6724 49.5593 73.0084 49.2631 73.3672 48.9343C73.7261 48.6055 74.0994 48.2852 74.4848 47.9745C74.8713 47.6638 75.2748 47.4146 75.695 47.2267C76.1153 47.0388 76.5573 46.9557 77.0197 46.9762C77.4821 46.9967 77.9614 47.1773 78.4563 47.5169C78.9874 47.8818 79.3704 48.3647 79.6064 48.9644C79.8424 49.5641 79.893 50.2517 79.7581 51.026C79.622 51.8004 79.2451 52.6373 78.6273 53.5369L78.6249 53.5345Z" fill="#FFE7D2"/>
<path d="M72.1085 77.1153L65.0625 72.2671L65.5779 71.5181L72.6239 76.3663L72.1085 77.1153ZM71.4847 76.2892C71.1957 76.7083 70.8621 77.072 70.4852 77.3803C70.1082 77.6873 69.7482 77.8969 69.4074 78.0077L68.7764 76.966C69.0907 76.8516 69.405 76.6758 69.7193 76.4386C70.0336 76.2013 70.2985 75.9256 70.5153 75.6112C70.6802 75.3716 70.7898 75.1621 70.844 74.9814C70.8982 74.802 70.9066 74.6479 70.8693 74.519C70.832 74.3902 70.7597 74.289 70.6489 74.2131C70.5092 74.1168 70.3599 74.0951 70.2022 74.1481C70.0444 74.2011 69.877 74.2998 69.7 74.4431C69.5242 74.5864 69.3375 74.7514 69.14 74.9357C68.9425 75.1211 68.7342 75.2969 68.515 75.4667C68.2959 75.6365 68.0683 75.7726 67.8346 75.8774C67.601 75.9822 67.3554 76.0279 67.0977 76.0171C66.8399 76.0062 66.5714 75.9039 66.292 75.7112C65.9922 75.5053 65.7742 75.2355 65.6393 74.9032C65.5045 74.5708 65.4743 74.1903 65.5526 73.7615C65.6309 73.3328 65.8392 72.8716 66.18 72.3767C66.4064 72.0467 66.6689 71.7493 66.9664 71.4819C67.2638 71.2158 67.5745 71.0135 67.8973 70.875L68.562 71.8841C68.2537 72.0323 67.9816 72.2069 67.7455 72.4044C67.5095 72.6031 67.3108 72.8198 67.1494 73.0547C66.9881 73.2895 66.8833 73.5014 66.8351 73.6881C66.787 73.8759 66.7846 74.0325 66.8267 74.1577C66.8689 74.283 66.9483 74.3853 67.0627 74.4636C67.1976 74.5563 67.3445 74.5768 67.5023 74.5226C67.66 74.4696 67.8262 74.3697 67.9996 74.224C68.173 74.0783 68.3597 73.9145 68.5596 73.7314C68.7595 73.5484 68.9666 73.3702 69.181 73.198C69.3953 73.0258 69.6193 72.8873 69.8529 72.7825C70.0866 72.6777 70.3322 72.632 70.5899 72.6428C70.8476 72.6549 71.1138 72.7548 71.3883 72.9439C71.6834 73.1474 71.8965 73.4147 72.0278 73.7483C72.159 74.0819 72.1867 74.4636 72.1121 74.8947C72.0362 75.3258 71.8267 75.7907 71.4835 76.2904L71.4847 76.2892Z" fill="#296D58"/>
<g style="mix-blend-mode:multiply" opacity="0.45">
<path d="M78.8821 80.7135C79.1265 83.2556 78.7773 85.8194 78.2306 88.3146C77.2516 92.7703 75.5235 97.2536 72.1637 100.339C71.3761 101.063 70.45 101.724 69.3855 101.837C69.0122 101.877 68.6485 101.849 68.2933 101.768C68.1524 100.88 67.997 99.9945 67.8308 99.1082C67.3455 96.513 66.7699 93.9312 66.1943 91.3589C65.8282 91.3613 65.4669 91.3384 65.1093 91.2951C62.6502 90.9904 60.3694 89.6718 57.9766 88.8517C57.5202 85.6376 57.065 82.4223 56.6086 79.207C56.5363 78.6904 56.4617 78.175 56.3894 77.6584C56.2004 76.3289 56.0113 74.9934 56.0137 73.6507C56.0137 71.8094 56.3798 69.9681 57.0806 68.2653C57.2998 67.7331 57.6093 67.1623 58.1584 66.9913C59.123 66.6902 59.8986 67.768 60.4248 68.6314C61.4809 70.3631 62.926 71.8564 64.6228 72.9691L65.7812 73.9337C65.5247 73.6844 65.2682 73.4363 65.0117 73.187C65.6018 73.5507 66.3629 73.4134 66.9337 73.0016C67.1661 72.8354 67.3672 72.621 67.5117 72.3778C67.9079 71.7131 67.9717 70.911 67.8766 70.1307C67.8525 69.9296 67.8188 69.7309 67.7766 69.5346C66.8566 65.2608 63.0031 62.3393 60.7018 58.623C59.7649 57.1093 59.0797 55.4427 58.6799 53.7086C58.4655 52.7705 58.3343 51.7818 58.5799 50.8521C58.8256 49.9237 59.5204 49.0602 60.4609 48.8555C63.6052 48.1715 67.2143 55.4872 68.339 57.5681C70.1321 60.8846 71.924 64.1986 73.7159 67.5151C73.8917 67.8402 74.0688 68.1666 74.2434 68.4929C76.3303 72.3537 78.4606 76.3482 78.8821 80.7159V80.7135Z" fill="#F1C4C6"/>
</g>
<path d="M96.0051 97.85C95.6992 99.4348 95.3921 101.024 95.0634 102.612C93.7664 108.905 92.1672 115.149 89.1795 120.81C88.304 122.466 87.1805 124.175 85.4102 124.785C84.0097 125.269 82.4189 124.949 81.1424 124.195C78.2523 122.492 77.024 119.013 76.0124 115.817C75.0201 112.687 74.0302 109.558 73.0379 106.428C72.6454 105.187 72.1191 103.988 72.2046 102.666C72.248 101.99 72.8754 99.3794 73.8231 99.2878C74.9695 98.1571 76.4194 97.3864 77.6345 96.3315C79.2409 94.9382 80.3874 93.0415 80.9281 90.9883C81.2099 89.9177 81.3291 88.805 81.2617 87.6983C81.2087 86.8385 81.0449 85.969 80.6174 85.2224C80.0935 84.3072 79.2241 83.6545 78.4389 82.95C73.3703 78.3956 71.5652 71.3039 67.8369 65.5982C64.8672 61.0583 60.5043 57.0458 59.7565 51.6713C59.6336 50.7874 59.7107 49.7782 60.0358 48.9485C60.3622 48.1079 60.9438 47.448 61.8265 47.2794C63.0765 47.0398 64.2326 47.943 65.1779 48.7992C65.314 48.922 65.4489 49.0448 65.5813 49.1677C76.2834 58.9219 85.6354 70.1502 93.2919 82.4406C94.7153 84.7263 96.1074 87.1143 96.5675 89.7672C97.0323 92.443 96.5169 95.1814 96.0027 97.8488L96.0051 97.85Z" fill="#E5805C"/>
<g style="mix-blend-mode:multiply" opacity="0.45">
<path d="M81.319 90.2838C81.2154 90.5234 81.0878 90.7679 80.93 90.987C81.2118 89.9165 81.331 88.8038 81.2636 87.6971C81.2106 86.8373 81.0468 85.9678 80.6193 85.2212C80.0955 84.306 79.226 83.6533 78.4409 82.9488C73.3723 78.3944 71.5671 71.3027 67.8388 65.597C64.8692 61.057 60.5062 57.0445 59.7584 51.67C59.6356 50.7861 59.7126 49.777 60.0378 48.9473C60.4761 49.9998 60.6748 51.3798 61.0084 52.1626C62.5366 55.7608 65.1907 58.7943 68.0604 61.3954C68.6228 61.9024 69.2056 62.413 69.5753 63.0753C69.8643 63.5944 70.0076 64.1784 70.1642 64.7504C71.0156 67.8778 72.3547 70.8703 74.1153 73.5907C75.1955 75.2598 76.4322 76.8217 77.6991 78.3534C79.2971 80.2814 80.9951 82.2491 81.6767 84.66C82.1981 86.5025 82.068 88.522 81.3178 90.2838H81.319Z" fill="#F1C4C6"/>
</g>
<path d="M90.1113 129.612C89.8813 133.717 88.6012 137.995 85.5015 140.695C82.4993 143.313 75.593 144.374 73.9143 139.78C72.1417 134.929 68.812 130.543 66.3963 125.853C66.3951 125.851 66.3939 125.849 66.3939 125.848C66.1061 125.296 65.8351 124.739 65.5798 124.177C64.1155 120.954 62.9088 117.602 62.1502 114.14C60.8231 108.087 60.8821 101.828 60.3185 95.6564C60.0066 92.2304 59.5009 88.8284 58.9012 85.4409C58.5254 83.3179 58.11 81.1984 57.6825 79.085C57.5897 78.6358 57.4994 78.1878 57.4067 77.7374C57.1069 76.2731 56.8022 74.7666 56.9888 73.2914C57.0057 73.159 57.0274 73.0241 57.0515 72.8904C57.3573 71.2888 58.4688 69.7257 60.0693 69.4078C60.7677 69.2681 61.471 69.3777 62.1345 69.6378C62.8221 69.9051 63.4676 70.3362 64.0264 70.8215C65.0837 71.738 65.9194 72.8182 66.5998 74.0031C68.4387 77.2016 69.1564 81.1731 70.1114 84.828C71.365 89.616 73.2484 94.2342 75.6689 98.549C75.9772 99.0969 76.2927 99.64 76.6178 100.178C77.6137 101.831 78.6915 103.435 79.844 104.984C81.9502 107.812 84.3105 110.465 86.1253 113.489C89.0166 118.306 90.4244 123.999 90.1089 129.609L90.1113 129.612Z" fill="#E5805C"/>
<g style="mix-blend-mode:multiply" opacity="0.45">
<path d="M66.0025 124.945C66.1302 125.245 66.2602 125.548 66.3939 125.847C66.1061 125.296 65.8351 124.738 65.5798 124.177C64.1155 120.953 62.9088 117.602 62.1502 114.14C60.8231 108.086 60.8821 101.828 60.3185 95.656C60.0066 92.23 59.5009 88.828 58.9012 85.4405C58.5254 83.3175 58.11 81.198 57.6825 79.0846C57.5897 78.6354 57.4994 78.1874 57.4067 77.737C57.1069 76.2727 56.8022 74.7662 56.9888 73.291C58.2449 76.3401 59.0023 79.6807 59.437 81.481C59.9705 83.686 60.4859 86.1306 62.2983 87.4974C61.8997 87.9285 61.5938 88.4439 61.4084 89.0002C62.0454 89.4807 62.8884 89.6818 63.6735 89.5349C62.1417 90.6464 61.5396 92.6768 61.5432 94.571C61.5469 96.4629 62.049 98.3174 62.261 100.197C62.5187 102.462 62.3537 104.75 62.3585 107.031C62.3706 113.164 63.6169 119.292 66.0013 124.943L66.0025 124.945Z" fill="#F1C4C6"/>
</g>
<g style="mix-blend-mode:soft-light" opacity="0.41">
<path d="M75.7614 99.3613C74.1827 96.0509 72.2463 92.909 69.9968 90.0117C69.7692 89.719 69.5343 89.4216 69.4187 89.0687C69.3055 88.7304 69.3103 88.3667 69.2212 88.0235C69.0285 87.2805 68.3686 86.6844 67.6124 86.5651C68.984 83.7111 67.9556 80.3356 66.8886 77.354C66.0986 75.1466 65.2545 72.7526 63.6601 70.9775C63.3241 70.6042 62.5377 70.149 62.1367 69.6396C62.8243 69.907 63.4698 70.3381 64.0286 70.8234C65.0859 71.7398 65.9216 72.82 66.602 74.005C68.4409 77.2034 69.1586 81.175 70.1136 84.8298C71.3672 89.6179 73.2506 94.2361 75.6711 98.5509C75.7144 98.8182 75.7458 99.0892 75.7626 99.3601L75.7614 99.3613Z" fill="#473227"/>
</g>
<g style="mix-blend-mode:soft-light" opacity="0.41">
<path d="M96.0053 97.8489C95.6994 99.4336 95.3924 101.023 95.0636 102.61C95.29 100.981 95.5044 99.3481 95.6549 97.7092C95.903 95.0009 95.9752 92.2311 95.2936 89.5975C94.5193 86.6037 92.8153 83.9508 91.1173 81.3665C88.9991 78.1404 86.8519 74.9335 84.6759 71.7483C82.0808 67.9466 79.4303 64.1592 76.2896 60.7946C74.1063 58.4572 71.6991 56.3414 69.5483 53.975C68.6596 52.9948 66.044 50.9187 65.584 49.1689C76.286 58.9232 85.6381 70.1515 93.2946 82.4419C94.718 84.7275 96.1101 87.1155 96.5701 89.7685C97.0349 92.4443 96.5195 95.1827 96.0053 97.8501V97.8489Z" fill="#473227"/>
</g>
<path d="M47.6522 83.4806C48.518 83.2265 49.3465 82.8471 50.104 82.3582C50.464 82.1258 50.8253 81.8452 50.9746 81.4442C51.124 81.0432 50.9626 80.5001 50.5507 80.3821C50.4002 80.3387 50.2388 80.3568 50.0835 80.3772C48.2446 80.6205 46.4551 81.2383 44.8571 82.18C44.367 82.469 43.8275 82.9868 44.0527 83.5095C44.2538 83.9743 44.8908 84.0128 45.3942 83.955C46.4395 83.8358 47.4739 83.6214 48.4807 83.3156" fill="#D94862"/>
<path d="M52.088 77.3101C53.0032 76.9031 53.9425 76.3407 54.3242 75.4146C54.4519 75.1063 54.4543 74.6596 54.1448 74.5343C53.9955 74.4729 53.8257 74.5163 53.6691 74.5608C51.8869 75.069 50.1491 75.7362 48.4837 76.5502C48.0935 76.7417 47.6805 76.9669 47.4962 77.3607C46.5292 79.4283 51.652 77.504 52.0868 77.3101H52.088Z" fill="#D94862"/>
<path d="M63.2362 49.6456C63.9744 50.3236 64.8631 50.9618 65.8651 50.9438C66.1986 50.9377 66.6093 50.7631 66.6021 50.4296C66.5984 50.2682 66.4913 50.1285 66.3889 50.0045C65.2136 48.5714 63.9106 47.242 62.5004 46.0389C62.1705 45.7571 61.7984 45.4681 61.3636 45.4549C59.0816 45.391 62.8846 49.3241 63.2362 49.6468V49.6456Z" fill="#D94862"/>
<path d="M59.4984 78.7846C60.2065 78.917 60.9375 78.9327 61.6516 78.8327C62.1333 78.7653 62.6162 78.6401 63.0256 78.3775C63.8168 77.8694 64.2226 76.9048 64.278 75.9655C64.3334 75.0262 64.0854 74.0989 63.8192 73.1969C63.1352 70.8836 62.2513 68.5185 60.4871 66.8735C60.1042 66.517 59.6321 66.1823 59.1107 66.2208C58.7771 66.2449 58.4712 66.4219 58.2171 66.6399C56.9647 67.7153 56.872 69.6059 57.049 71.2461C57.2501 73.1126 57.6716 74.9563 58.305 76.7241C58.6194 77.6032 59.083 78.5582 59.9693 78.852C60.9038 79.1627 61.9479 78.6063 62.898 78.8641" fill="#D94862"/>
<path d="M96.9547 147.936C96.9547 147.936 98.6744 157.326 97.3497 160.096H71.5273L71.5936 154.46L96.9547 147.936Z" fill="#E5805C"/>
</svg>
