<svg width="160" height="160" viewBox="0 0 160 160" fill="none" xmlns="http://www.w3.org/2000/svg">
<path d="M0 10C0 4.47715 4.47715 0 10 0H150C155.523 0 160 4.47715 160 10V160H0V10Z" fill="#DAE1FE"/>
<path d="M51.348 71.5446C50.5995 72.099 49.8215 72.6493 48.9257 72.9064C48.0299 73.1635 46.9828 73.0778 46.2852 72.4605C45.2957 71.5861 45.3948 69.8615 46.3227 68.9202C47.1931 68.0378 48.6593 67.8155 49.7519 68.4006C50.8445 68.9858 51.4712 70.3288 51.2195 71.5433" fill="#8B3F3F"/>
<path d="M45.0433 65.2409C44.2948 65.7953 43.5168 66.3456 42.621 66.6027C41.7252 66.8598 40.6781 66.7741 39.9805 66.1568C38.991 65.2824 39.0901 63.5578 40.018 62.6164C40.8884 61.734 42.3546 61.5118 43.4472 62.0969C44.5399 62.6821 45.1665 64.0251 44.9148 65.2396" fill="#8B3F3F"/>
<path d="M63.2521 47.3905C61.4766 46.9057 59.6475 46.4183 57.8184 46.6299C55.9036 46.8508 54.1522 47.8243 52.2548 48.1657C51.0015 48.392 49.7027 48.3398 48.4734 48.6719C47.2442 49.004 46.0284 49.869 45.8249 51.125C45.5852 52.6072 46.8238 53.9235 48.1266 54.6693C50.5703 56.0686 53.4974 56.3886 56.3093 56.232C59.1213 56.0753 61.889 55.4781 64.6876 55.1674C67.2785 54.8796 69.8977 54.8394 72.4967 55.0469C73.2131 55.1045 73.9428 55.1795 74.6404 55.0121C75.3394 54.8461 76.0143 54.3855 76.2232 53.6985C77.0279 51.0406 73.6817 50.2332 71.9919 49.7726C69.0782 48.9785 66.1645 48.1845 63.2508 47.3905H63.2521Z" fill="#E5805C"/>
<path d="M55.8142 55.3004C53.9744 55.3753 52.0837 55.4624 50.4046 56.2162C48.6465 57.0063 47.27 58.4631 45.5654 59.3616C44.4393 59.9561 43.1846 60.2975 42.1148 60.9871C41.0436 61.6754 40.1451 62.8671 40.3312 64.1258C40.5508 65.6108 42.1295 66.4918 43.5971 66.8092C46.3501 67.405 49.237 66.8239 51.8695 65.8263C54.502 64.8274 56.9604 63.4215 59.534 62.2793C61.9174 61.2228 64.4013 60.3926 66.9414 59.8048C67.6404 59.6428 68.3594 59.4941 68.9754 59.1246C69.5913 58.755 70.0961 58.1123 70.0868 57.3932C70.0506 54.6161 66.6174 54.8585 64.8673 54.9294C61.8505 55.0526 58.8324 55.1758 55.8156 55.299L55.8142 55.3004Z" fill="#E5805C"/>
<path d="M61.9275 62.1392C60.0877 62.2142 58.197 62.3012 56.5179 63.0551C54.7598 63.8451 53.3833 65.302 51.6787 66.2004C50.5526 66.795 49.2979 67.1364 48.2281 67.826C47.1568 68.5143 46.2584 69.706 46.4445 70.9647C46.6641 72.4496 48.2428 73.3307 49.7103 73.648C52.4634 74.2439 55.3503 73.6628 57.9828 72.6652C60.6153 71.6663 63.0737 70.2603 65.6473 69.1182C68.0307 68.0617 70.5146 67.2315 73.0547 66.6437C73.7537 66.4816 74.4727 66.333 75.0887 65.9634C75.7046 65.5939 76.2094 64.9511 76.2 64.2321C76.1639 61.455 72.7307 61.6973 70.9806 61.7683C67.9638 61.8915 64.9456 62.0147 61.9288 62.1379L61.9275 62.1392Z" fill="#E5805C"/>
<g style="mix-blend-mode:multiply" opacity="0.45">
<path d="M70.9792 61.7697C67.9624 61.8929 64.9442 62.0161 61.9274 62.1393C61.116 62.1728 60.2952 62.2076 59.4864 62.3027C59.5025 62.296 59.5185 62.2879 59.5346 62.2812C61.9181 61.2248 64.4019 60.3946 66.942 59.8067C67.641 59.6447 68.36 59.4961 68.976 59.1265C69.5919 58.757 70.0967 58.1142 70.0874 57.3952C70.0512 54.6181 66.618 54.8604 64.8679 54.9314C61.8511 55.0546 58.833 55.1778 55.8162 55.301C53.9764 55.376 52.0857 55.463 50.4066 56.2169C48.6484 57.0069 47.2719 58.4637 45.5674 59.3622C44.4413 59.9567 43.1866 60.2982 42.1167 60.9878C41.0455 61.676 40.147 62.8677 40.3332 64.1264C40.5528 65.6114 42.1315 66.4924 43.599 66.8098C46.352 67.4056 49.2389 66.8245 51.8714 65.827C52.2584 65.6797 52.6414 65.5243 53.0216 65.361C52.5891 65.6663 52.1473 65.9542 51.6813 66.2005C50.5552 66.7951 49.3005 67.1365 48.2307 67.8261C47.1594 68.5143 46.261 69.7061 46.4471 70.9647C46.6667 72.4497 48.2454 73.3308 49.7129 73.6481C52.466 74.244 55.3529 73.6629 57.9854 72.6653C60.6179 71.6664 63.0763 70.2604 65.6499 69.1182C68.0333 68.0618 70.5172 67.2316 73.0573 66.6438C73.7563 66.4817 74.4753 66.3331 75.0913 65.9635C75.7072 65.594 76.212 64.9512 76.2027 64.2322C76.1665 61.4551 72.7333 61.6974 70.9832 61.7684L70.9792 61.7697Z" fill="#F1C4C6"/>
</g>
<g style="mix-blend-mode:multiply" opacity="0.45">
<path d="M61.9275 62.1392C60.0877 62.2142 58.197 62.3012 56.5179 63.0551C54.7598 63.8451 53.3833 65.302 51.6787 66.2004C50.5526 66.795 49.2979 67.1364 48.2281 67.826C47.1568 68.5143 46.2584 69.706 46.4445 70.9647C46.6641 72.4496 48.2428 73.3307 49.7103 73.648C52.4634 74.2439 55.3503 73.6628 57.9828 72.6652C60.6153 71.6663 63.0737 70.2603 65.6473 69.1182C68.0307 68.0617 70.5146 67.2315 73.0547 66.6437C73.7537 66.4816 74.4727 66.333 75.0887 65.9634C75.7046 65.5939 76.2094 64.9511 76.2 64.2321C76.1639 61.455 72.7307 61.6973 70.9806 61.7683C67.9638 61.8915 64.9456 62.0147 61.9288 62.1379L61.9275 62.1392Z" fill="#F1C4C6"/>
</g>
<path d="M55.4667 54.9892C55.5846 55.9466 55.9033 56.845 56.3532 57.6886C56.3987 57.777 56.4482 57.864 56.4978 57.9524C56.7375 58.3742 57.0093 58.7826 57.3079 59.1763C57.9814 60.0761 58.7754 60.9063 59.5856 61.6735C61.5244 63.5133 63.6762 65.234 64.9296 67.5933C66.6274 70.7869 66.5364 74.8641 67.5835 78.2465C68.0588 79.7797 68.7698 81.1682 69.9897 82.2662C70.2026 82.4604 70.4369 82.6438 70.6927 82.771C69.4447 83.5731 68.2436 84.4435 67.1242 85.4196C65.67 86.6836 64.3511 88.1525 63.3147 89.7794C62.7751 90.6217 62.3118 91.5067 61.9462 92.4266C61.5392 93.443 61.2499 94.5008 61.1027 95.5934C60.863 97.3716 61.0076 99.1793 61.1857 100.967C61.3544 102.666 61.5499 104.361 61.7748 106.054C62.0667 108.251 62.4042 110.442 62.7925 112.626C63.5356 116.836 64.4542 121.013 65.5455 125.147C68.2958 135.579 72.1321 145.726 76.99 155.359C77.2886 155.951 77.6127 156.568 78.1657 156.935C78.8874 157.412 79.8261 157.359 80.6831 157.247C82.4693 157.011 84.2274 156.584 85.9239 155.979C90.7698 154.258 95.119 151.114 98.204 146.997C98.7222 146.305 99.215 145.571 99.448 144.739C100.01 142.737 98.9914 140.671 98.0501 138.818C96.7043 136.166 95.4551 133.437 94.4374 130.639C93.2042 127.257 92.3084 123.772 91.9897 120.19C91.3001 112.501 93.2832 104.853 95.2475 97.3877C96.6012 92.2486 97.9536 87.1067 99.3047 81.9663C99.8256 79.9845 100.352 77.9492 100.119 75.9126C99.8524 73.5988 98.6312 71.518 97.4033 69.5389C94.349 64.618 91.0725 59.8324 87.5857 55.2074C86.7407 54.088 85.861 52.9539 84.688 52.188C83.9757 51.7206 83.1803 51.4086 82.3662 51.1516C82.0462 51.0511 81.7235 50.9587 81.4008 50.8704C75.5252 49.2475 69.3242 48.3182 63.221 48.4106C60.9072 48.4467 58.1207 49.3037 56.5835 51.1154C56.4723 51.2466 56.3666 51.3845 56.2688 51.5265C55.6261 52.4571 55.2954 53.6086 55.4667 54.9932V54.9892Z" fill="#E5805C"/>
<g style="mix-blend-mode:multiply" opacity="0.45">
<path d="M55.4667 54.989C55.5846 55.9464 55.9033 56.8449 56.3532 57.6885C57.1445 59.1801 58.3483 60.5004 59.5856 61.6734C61.5244 63.5132 63.6762 65.2338 64.9296 67.5931C66.6274 70.7867 66.5364 74.864 67.5835 78.2463C68.8502 79.58 69.9509 81.0435 70.7797 82.716C70.7797 82.7186 70.7837 82.724 70.7851 82.7253C70.7998 82.7119 70.8145 82.6972 70.8292 82.6838C72.8498 80.7315 75.3739 79.3108 78.084 78.5771C78.5326 78.4552 78.9865 78.3535 79.4445 78.2691C79.6775 78.2276 79.9265 78.1821 80.0925 78.016C80.2586 77.8486 80.3041 77.5996 80.3403 77.3679C80.6563 75.3313 80.9723 73.2973 81.291 71.262C81.4905 69.9819 81.6873 68.6644 81.4021 67.4003C80.904 65.1856 79.0066 63.4784 78.554 61.2542C78.4884 60.9396 78.4496 60.6048 78.2661 60.3384C77.9595 59.8938 77.3583 59.7907 76.8213 59.713C71.3849 58.9163 66.1132 56.9266 61.5097 53.9245C59.7181 52.7555 58.5344 51.3496 56.2688 51.5223C55.6261 52.4529 55.2954 53.6045 55.4667 54.989Z" fill="#F1C4C6"/>
</g>
<g style="mix-blend-mode:multiply" opacity="0.45">
<path d="M56.3535 57.6865C57.1449 59.1782 58.3486 60.4984 59.5859 61.6714C61.5248 63.5112 63.6766 65.2318 64.9299 67.5912C66.6278 70.7847 66.5367 74.862 67.5838 78.2444C68.0592 79.7775 68.7702 81.1661 69.99 82.2641C70.2029 82.4583 70.4373 82.6417 70.693 82.7689C69.4451 83.571 68.244 84.4413 67.1245 85.4175C65.6704 86.6815 64.3514 88.1504 63.315 89.7773C64.0636 90.4696 64.9004 91.04 65.8645 91.3788C69.0581 92.5009 72.0709 87.7969 73.9776 85.7295C75.8536 83.6955 77.3452 81.2371 78.0857 78.5751C78.458 77.2415 78.6414 75.8596 78.5905 74.451C78.5611 73.6181 78.4285 72.733 77.8835 72.1023C77.5608 71.7274 77.1216 71.4757 76.74 71.1623C74.8359 69.5917 74.5855 66.6713 72.8153 64.9466C72.1258 64.2744 71.2514 63.8326 70.3891 63.4001C66.676 61.5362 62.9615 59.6749 59.2485 57.8124C58.6713 57.5231 58.0527 57.2259 57.4073 57.2875C57.0297 57.3223 56.6789 57.4816 56.3535 57.6865Z" fill="#F1C4C6"/>
</g>
<g style="mix-blend-mode:multiply" opacity="0.45">
<path d="M71.5393 73.1672C73.4554 76.496 76.1642 79.3642 77.6974 82.8858C78.9387 85.7379 79.3457 88.9475 78.8557 92.0192C73.8437 84.5944 67.2223 77.6542 65.8659 68.7993C65.6476 67.372 66.4791 61.1536 68.5278 64.4248C69.1987 65.496 69.1866 67.6465 69.6124 68.9011C70.1146 70.3821 70.76 71.8135 71.5406 73.1686L71.5393 73.1672Z" fill="#F1C4C6"/>
</g>
<g style="mix-blend-mode:multiply" opacity="0.45">
<path d="M70.1533 59.7079C69.7998 55.4779 68.4393 51.1168 65.2994 48.2593C63.3323 46.4704 60.2352 45.4206 58.0339 46.9096C56.423 48.0009 55.8205 50.083 55.6357 52.0206C54.9742 58.9366 58.1129 65.6156 61.5488 71.6532C62.2424 72.8731 62.9748 74.1103 64.0594 75.0007C65.144 75.8912 66.6665 76.3773 67.9801 75.8818C70.3006 75.0061 70.014 71.8018 70.0662 69.8295C70.1533 66.4552 70.4358 63.0795 70.1533 59.7065V59.7079Z" fill="#F1C4C6"/>
</g>
<g style="mix-blend-mode:soft-light" opacity="0.41">
<path d="M63.3454 52.2594C63.3588 52.4107 63.3668 52.5714 63.2945 52.7053C63.1325 53.0052 62.6906 52.9891 62.376 52.8539C61.7065 52.566 61.2284 51.9688 60.8147 51.3689C60.3514 50.6967 59.935 49.9924 59.5681 49.2627C58.7392 47.617 59.8332 46.4735 61.2365 47.8058C62.4362 48.944 63.1914 50.6244 63.3441 52.2607L63.3454 52.2594Z" fill="white"/>
</g>
<g style="mix-blend-mode:soft-light" opacity="0.41">
<path d="M66.375 66.7435C66.4379 66.7127 66.5035 66.6806 66.5678 66.6484C66.4995 66.6685 66.4339 66.7007 66.375 66.7435Z" fill="white"/>
</g>
<g style="mix-blend-mode:soft-light" opacity="0.41">
<path d="M82.3672 51.1455C83.4893 52.0654 84.515 53.0938 85.5273 54.1369C90.2085 59.126 94.2456 64.7204 97.5047 70.7366C98.3202 72.243 99.1008 73.8257 99.2294 75.5356C99.3312 76.8907 99.0138 78.2378 98.6991 79.558C96.7964 87.5453 94.8937 95.5311 92.9896 103.52C91.984 107.738 90.9744 111.985 90.7601 116.317C90.5432 120.647 91.1685 125.117 93.2601 128.914C93.5868 129.509 93.9858 130.094 94.4384 130.633C93.2052 127.251 92.3094 123.766 91.9907 120.184C91.3011 112.495 93.2842 104.847 95.2485 97.3816C96.6022 92.2425 97.9546 87.1007 99.3057 81.9602C99.8266 79.9785 100.353 77.9432 100.12 75.9065C99.8534 73.5927 98.6322 71.5119 97.4043 69.5328C94.35 64.612 91.0735 59.8263 87.5867 55.2014C86.7417 54.082 85.862 52.9478 84.689 52.1819C83.9767 51.7146 83.1813 51.4026 82.3672 51.1455Z" fill="white"/>
</g>
<g style="mix-blend-mode:multiply" opacity="0.45">
<path d="M70.0203 34.6984C66.3554 30.9853 61.2109 28.8389 55.5603 29.2848C38.2067 30.4925 31.0684 55.6914 51.5754 65.1502C71.441 72.3675 84.6932 47.6346 70.0203 34.6984Z" fill="#F1C4C6"/>
</g>
<path d="M69.2981 60.2983C76.3486 53.2478 76.3486 41.8167 69.2981 34.7662C62.2477 27.7157 50.8165 27.7157 43.766 34.7662C36.7156 41.8167 36.7156 53.2478 43.766 60.2983C50.8165 67.3488 62.2477 67.3488 69.2981 60.2983Z" fill="#FB8A2A"/>
<path d="M71.7255 38.7972C75.9474 47.8302 72.0469 58.5758 63.0139 62.7977C62.2011 63.178 61.3749 63.4913 60.5407 63.7417C59.9931 63.9064 59.44 64.0443 58.891 64.1541C56.0443 64.7232 53.148 64.5812 50.4432 63.8127C49.7161 63.6064 49.0038 63.3547 48.3102 63.0588C47.3046 62.6343 46.3378 62.1188 45.4219 61.5136L45.0858 61.2846C43.8901 60.4584 42.7867 59.4836 41.8093 58.3696C41.8026 58.3629 41.7959 58.3562 41.7905 58.3495C41.433 57.9411 41.0942 57.5153 40.7742 57.0694C40.1033 56.1508 39.5142 55.1559 39.0134 54.0861C35.2548 46.0453 37.9328 36.6494 44.9358 31.7031C45.5558 31.2666 46.2092 30.8622 46.8935 30.5007C47.1666 30.3574 47.4438 30.2168 47.725 30.0856C48.7253 29.6183 49.7496 29.25 50.7806 28.9769C51.3645 28.8216 51.9523 28.701 52.5414 28.6046C52.9833 28.535 53.4212 28.4814 53.8617 28.4453C55.0441 28.3462 56.2264 28.3663 57.3873 28.4962C58.2443 28.5953 59.0919 28.7519 59.9221 28.9715C62.6671 29.6852 65.2326 31.0443 67.3817 32.9564C67.9749 33.4853 68.54 34.0584 69.0675 34.6744C70.1133 35.8915 71.0131 37.2707 71.7255 38.7959V38.7972Z" fill="#FCB516"/>
<g style="mix-blend-mode:soft-light" opacity="0.41">
<path d="M46.8927 30.5004C45.314 38.8438 42.8328 52.5137 41.8085 58.3693C41.8018 58.3626 41.7951 58.3559 41.7897 58.3492C41.4322 57.9408 41.0935 57.515 40.7734 57.0691C41.838 50.694 44.0005 37.6828 44.9351 31.7015C45.5551 31.2649 46.2085 30.8606 46.8927 30.499V30.5004Z" fill="white"/>
</g>
<g style="mix-blend-mode:soft-light" opacity="0.41">
<path d="M45.4207 61.5132C47.2431 53.8634 51.4034 37.964 53.8618 28.4463C53.4213 28.4824 52.9834 28.5373 52.5416 28.6056C50.3536 38.0149 46.8534 53.4671 45.0859 61.2843L45.422 61.5132H45.4207Z" fill="white"/>
</g>
<g style="mix-blend-mode:soft-light" opacity="0.41">
<path d="M59.9219 28.9714C56.9479 39.4961 52.3966 56.0276 50.4416 63.8126C49.7146 63.6064 49.0022 63.3546 48.3086 63.0587C50.1738 55.8414 54.5671 38.9042 57.3871 28.4961C58.2441 28.5952 59.0917 28.7518 59.9219 28.9714Z" fill="white"/>
</g>
<g style="mix-blend-mode:soft-light" opacity="0.41">
<path d="M69.0658 34.6769C66.5029 43.3497 62.4711 57.0211 60.5403 63.7429C59.9926 63.9076 59.4396 64.0455 58.8906 64.1553C60.1372 59.5451 64.3659 43.9121 67.3813 32.959C67.9745 33.4879 68.5396 34.061 69.0671 34.6769H69.0658Z" fill="white"/>
</g>
<path d="M69.3116 39.9248C72.9109 47.6255 69.5861 56.7857 61.8854 60.3849C58.1724 62.1203 54.1165 62.2448 50.5119 61.0478C46.6421 59.7596 43.2892 56.945 41.4253 52.9588C37.8274 45.2581 41.1522 36.0979 48.8528 32.4986C52.8404 30.6347 57.2176 30.628 61.0124 32.121C64.5447 33.515 67.5763 36.2117 69.3116 39.9248Z" fill="#FB8A2A"/>
<g opacity="0.5">
<path d="M69.8317 40.3361C73.431 48.0367 70.1062 57.1969 62.4056 60.7962C58.6925 62.5316 54.6366 62.6561 51.032 61.459C47.4997 60.0651 44.4681 57.3683 42.7328 53.6552C39.1335 45.9546 42.4583 36.7944 50.1589 33.1951C53.872 31.4598 57.9279 31.3352 61.5325 32.5323C65.0648 33.9262 68.0964 36.623 69.8317 40.3361Z" fill="#FCF2B3"/>
</g>
<path d="M69.3116 39.9256C69.3531 40.0139 69.3946 40.1023 69.4321 40.1894C72.7288 47.5995 69.6972 56.2736 62.5764 60.0389C62.3487 60.1607 62.1184 60.2759 61.8854 60.3844C60.5611 61.003 59.19 61.4181 57.8135 61.6404C56.2736 61.8894 54.7217 61.8961 53.21 61.6819C52.7587 61.6189 52.3142 61.5346 51.8696 61.4288C51.4117 61.323 50.9591 61.1945 50.5118 61.0472C50.2963 60.9615 50.0807 60.8731 49.8691 60.7754C48.9131 60.3495 47.9999 59.8233 47.1415 59.2047C45.0821 57.7197 43.3628 55.7045 42.2113 53.2434C38.612 45.5427 41.9368 36.3825 49.6375 32.7833C51.8522 31.7482 54.1915 31.2849 56.4812 31.3358C57.5872 31.3612 58.6798 31.5032 59.747 31.7603C60.1728 31.862 60.5946 31.9812 61.0097 32.1205C61.4101 32.2798 61.8024 32.4525 62.1867 32.6454C62.5201 32.806 62.8442 32.9814 63.1602 33.1702C64.4081 33.8973 65.5557 34.8079 66.5666 35.8804C67.6619 37.0413 68.5966 38.3978 69.3089 39.9242L69.3116 39.9256Z" fill="#F7CA4D"/>
<g style="mix-blend-mode:soft-light" opacity="0.41">
<path d="M50.7811 28.9789C49.343 29.8867 47.7215 30.5629 46.2526 31.4386C42.9492 33.411 40.3288 36.4974 38.9202 40.0766C37.5129 43.6545 37.3281 47.701 38.4046 51.3926C38.9751 53.3543 39.8842 55.1941 40.8979 56.9576C41.167 57.4222 41.4911 57.8828 41.791 58.3501C40.6957 57.0982 39.7557 55.6721 39.0139 54.0867C34.7906 45.0537 38.6912 34.3082 47.7242 30.0862C48.7244 29.6189 49.7488 29.2507 50.7798 28.9775L50.7811 28.9789Z" fill="white"/>
</g>
<g style="mix-blend-mode:soft-light" opacity="0.41">
<path d="M63.163 33.1714C60.3417 41.2001 55.8453 54.0252 53.2114 61.683C52.7602 61.6201 52.3156 61.5357 51.8711 61.4299C54.6254 53.6569 59.1768 40.86 62.1895 32.6465C62.5229 32.8072 62.847 32.9826 63.163 33.1714Z" fill="white"/>
</g>
<g style="mix-blend-mode:soft-light" opacity="0.41">
<path d="M59.7494 31.762C57.1222 39.5202 52.7879 52.2984 49.8701 60.7784C48.9141 60.3526 48.0009 59.8264 47.1426 59.2078C49.8353 51.1148 53.8792 38.998 56.4835 31.3389C57.5896 31.3643 58.6822 31.5062 59.7494 31.7633V31.762Z" fill="white"/>
</g>
<g style="mix-blend-mode:soft-light" opacity="0.41">
<path d="M69.3106 39.925C69.3521 40.0134 69.3936 40.1018 69.4311 40.1888C67.3677 46.1876 64.7834 53.6888 62.5754 60.0384C62.3477 60.1602 62.1174 60.2754 61.8844 60.3838C60.5602 61.0025 59.189 61.4176 57.8125 61.6398C60.4959 53.7437 63.9733 43.5069 66.5683 35.8799C67.6636 37.0408 68.5983 38.3972 69.3106 39.9237V39.925Z" fill="white"/>
</g>
<g style="mix-blend-mode:soft-light" opacity="0.41">
<path d="M50.1375 42.8197C49.7037 44.5122 49.2645 46.2074 48.8387 47.8705C48.7061 47.6093 48.5253 47.438 48.2923 47.3509C48.2763 47.3456 48.2602 47.3389 48.2441 47.3375C48.5695 45.9209 48.8949 44.4881 49.2189 43.0554C49.5309 42.9482 49.8376 42.8706 50.1375 42.8184V42.8197Z" fill="white"/>
</g>
<g style="mix-blend-mode:soft-light" opacity="0.41">
<path d="M52.6807 49.7996C52.7557 49.9603 52.8963 50.0647 53.0985 50.1076C53.3007 50.1504 53.5095 50.121 53.7238 50.0206C53.8872 49.9442 54.0358 49.8492 54.1683 49.734C53.8403 50.9391 53.5203 52.1282 53.2083 53.2797L50.5195 54.5371C51.3752 51.2431 52.3379 47.5447 53.3127 43.8223C53.4038 43.9468 53.4814 44.0794 53.5484 44.2213C54.0224 45.2349 53.8349 46.665 52.9873 48.5088C52.6847 49.1596 52.5816 49.5907 52.6794 49.7996H52.6807Z" fill="white"/>
</g>
<g style="mix-blend-mode:soft-light" opacity="0.41">
<path d="M56.9757 39.5137C56.6945 40.5273 56.412 41.5517 56.1281 42.5787C56.1067 42.3109 56.0879 42.0457 56.0745 41.7806C56.025 40.9611 56.033 40.4403 56.104 40.2153C56.1736 39.9863 56.3852 39.7895 56.7387 39.6248L56.9743 39.515L56.9757 39.5137Z" fill="white"/>
</g>
<g style="mix-blend-mode:soft-light" opacity="0.41">
<path d="M66.5614 43.168C65.8933 45.4376 65.205 47.7742 64.5315 50.0652C64.0494 50.4054 63.5192 50.708 62.9394 50.9798C62.7573 51.0655 62.5779 51.1418 62.3984 51.2128C63.1697 48.362 63.9986 45.3198 64.818 42.3057C65.2612 42.4021 65.683 42.5708 66.0834 42.8118C66.2588 42.9163 66.4208 43.0368 66.5601 43.168H66.5614Z" fill="white"/>
</g>
<path d="M60.0084 53.8437C58.98 54.5521 57.9021 55.1051 56.7747 55.5028C55.6472 55.9004 54.6443 56.1026 53.7659 56.1067L53.1285 52.6855C53.9373 52.6574 54.7902 52.506 55.686 52.2329C56.5818 51.9597 57.3946 51.5714 58.1244 51.0693C58.6145 50.7319 58.9787 50.4145 59.2157 50.1199C59.4527 49.824 59.5893 49.5549 59.6227 49.3098C59.6576 49.0661 59.6053 48.8425 59.4647 48.639C59.2666 48.3524 58.9787 48.2158 58.6011 48.2292C58.2221 48.2426 57.787 48.3404 57.2942 48.5211C56.8014 48.7019 56.2645 48.9135 55.682 49.1558C55.0996 49.3982 54.497 49.6111 53.873 49.7932C53.249 49.9767 52.6358 50.0771 52.0319 50.0958C51.428 50.1146 50.8442 49.9967 50.2804 49.741C49.7167 49.4852 49.2039 49.0233 48.7433 48.3538C48.2237 47.5999 47.9613 46.7764 47.9532 45.8833C47.9465 44.9888 48.2264 44.0729 48.7968 43.1343C49.3672 42.1956 50.2671 41.3012 51.4989 40.4536C52.3238 39.8858 53.1982 39.4199 54.1207 39.057C55.0433 38.6955 55.9391 38.4785 56.8081 38.4089L57.5299 41.7993C56.7091 41.889 55.9512 42.0537 55.2535 42.2961C54.5559 42.5384 53.9333 42.8491 53.3829 43.228C52.8929 43.5655 52.5327 43.8882 52.3037 44.1961C52.0747 44.5041 51.9529 44.7866 51.9355 45.0451C51.9194 45.3035 51.985 45.5392 52.1336 45.7547C52.3238 46.0306 52.6023 46.1591 52.9705 46.1444C53.3388 46.1283 53.7699 46.0252 54.264 45.8351C54.7581 45.6449 55.2964 45.428 55.8789 45.1857C56.4613 44.9433 57.0612 44.7277 57.6812 44.5389C58.2998 44.3501 58.9117 44.247 59.5156 44.2269C60.1195 44.2082 60.7007 44.3274 61.2577 44.5871C61.816 44.8469 62.3209 45.3048 62.7734 45.9623C63.2756 46.6921 63.5327 47.5062 63.5447 48.406C63.5568 49.3058 63.2796 50.223 62.7159 51.1577C62.1521 52.0923 61.2483 52.9881 60.0044 53.8451L60.0084 53.8437ZM60.5641 56.2647L48.9521 39.4051L51.1039 37.9229L62.7159 54.7824L60.5641 56.2647Z" fill="#FB8A2A"/>
<path d="M59.2056 53.8437C58.1773 54.5521 57.0994 55.1051 55.9719 55.5028C54.8445 55.9004 53.8416 56.1026 52.9632 56.1067L52.3258 52.6855C53.1346 52.6574 53.9875 52.506 54.8833 52.2329C55.7791 51.9597 56.5919 51.5714 57.3217 51.0693C57.8117 50.7319 58.1759 50.4145 58.413 50.1199C58.65 49.824 58.7865 49.5549 58.82 49.3098C58.8548 49.0661 58.8026 48.8425 58.662 48.639C58.4638 48.3524 58.1759 48.2158 57.7983 48.2292C57.4194 48.2426 56.9842 48.3404 56.4915 48.5211C55.9987 48.7019 55.4618 48.9135 54.8793 49.1558C54.2968 49.3982 53.6943 49.6111 53.0703 49.7932C52.4463 49.9767 51.833 50.0771 51.2291 50.0958C50.6252 50.1146 50.0414 49.9967 49.4777 49.741C48.914 49.4852 48.4011 49.0233 47.9405 48.3538C47.421 47.5999 47.1585 46.7764 47.1505 45.8833C47.1438 44.9888 47.4237 44.0729 47.9941 43.1343C48.5645 42.1956 49.4643 41.3012 50.6962 40.4536C51.521 39.8858 52.3954 39.4199 53.318 39.057C54.2406 38.6955 55.1364 38.4785 56.0054 38.4089L56.7271 41.7993C55.9063 41.889 55.1484 42.0537 54.4508 42.2961C53.7532 42.5384 53.1305 42.8491 52.5802 43.228C52.0901 43.5655 51.7299 43.8882 51.501 44.1961C51.272 44.5041 51.1501 44.7866 51.1327 45.0451C51.1167 45.3035 51.1823 45.5392 51.3309 45.7547C51.521 46.0306 51.7996 46.1591 52.1678 46.1444C52.536 46.1283 52.9672 46.0252 53.4613 45.8351C53.9554 45.6449 54.4937 45.428 55.0761 45.1857C55.6586 44.9433 56.2585 44.7277 56.8784 44.5389C57.4971 44.3501 58.109 44.247 58.7129 44.2269C59.3168 44.2082 59.8979 44.3274 60.4549 44.5871C61.0133 44.8469 61.5181 45.3048 61.9707 45.9623C62.4728 46.6921 62.7299 47.5062 62.742 48.406C62.754 49.3058 62.4769 50.223 61.9131 51.1577C61.3494 52.0923 60.4456 52.9881 59.2016 53.8451L59.2056 53.8437ZM59.7613 56.2647L48.1494 39.4051L50.3012 37.9229L61.9131 54.7824L59.7613 56.2647Z" fill="#FCB516"/>
<path d="M56.6906 53.8929C56.5232 54.7123 56.467 55.5693 56.463 56.3915C56.4617 56.9137 56.4737 57.4346 56.5005 57.9528C56.7924 64.1109 58.8598 70.0882 59.911 76.1915C60.6179 80.2848 60.8657 84.4545 60.6514 88.6028C60.5376 90.8041 60.2952 92.9974 60.2578 95.2014C60.1828 99.7045 60.9701 104.161 61.9021 108.576C62.0922 109.479 62.2904 110.38 62.4872 111.283C62.585 111.729 62.684 112.179 62.7938 112.626C63.0683 113.76 63.4058 114.878 63.9521 115.907C65.6459 119.096 69.426 121.043 73.0092 120.57C78.87 119.795 80.5612 114.285 81.8427 109.38C83.3263 103.7 83.4615 97.5407 81.366 91.9918C79.873 88.0377 77.3503 84.5831 75.0873 80.9958C73.8139 78.986 72.6235 76.9319 71.7425 74.7279C69.7099 69.645 69.4394 64.06 68.4418 58.6758C67.9732 56.1411 67.2742 53.5139 65.4987 51.646C65.1063 51.2322 64.647 50.8734 64.1449 50.5801C62.3828 49.5451 60.1145 49.3429 58.5318 50.5748C57.4967 51.3795 56.9544 52.5887 56.6893 53.8942L56.6906 53.8929Z" fill="#E5805C"/>
<path d="M59.7572 57.5169C59.5014 57.4419 59.2403 57.3522 59.0381 57.1767C58.8078 56.9759 58.6806 56.6826 58.5654 56.3988C57.9147 54.7826 57.4447 53.0941 57.1675 51.3735C56.9533 50.0478 56.8662 48.6271 57.4621 47.4234C58.0566 46.2196 59.5442 45.3693 60.7788 45.8969C61.6465 46.2691 62.1446 47.1716 62.5543 48.0219C62.9668 48.8775 63.3578 49.7425 63.7246 50.6196C65.2913 54.3528 65.2391 59.1317 59.7572 57.5169Z" fill="#D94862"/>
<g style="mix-blend-mode:multiply" opacity="0.45">
<path d="M55.4667 54.9881C55.5846 55.9455 55.9033 56.844 56.3532 57.6876C56.3987 57.776 56.4482 57.863 56.4978 57.9514C56.7897 64.1095 58.8571 70.0869 59.9083 76.1901C60.6153 80.2834 60.863 84.4531 60.6487 88.6014C60.5349 90.8027 60.2926 92.996 60.2551 95.2001C60.1801 99.7032 60.9674 104.159 61.8994 108.574C61.8431 107.733 61.8016 106.894 61.7735 106.053C61.7454 105.26 61.7293 104.469 61.7226 103.681C61.6878 99.9335 61.8324 96.1789 61.9449 92.427C62.119 86.6049 62.2087 80.7923 61.4213 75.0318C61.1428 72.9912 60.7532 70.9693 60.3649 68.946C61.1683 69.1375 62.0734 68.7947 62.5474 68.1185C61.8016 68.5403 60.7304 68.1855 60.3796 67.4048C61.2299 67.3727 62.0467 66.8866 62.4818 66.1582C60.168 66.3764 58.6415 63.8296 57.9453 61.6136C57.6855 60.7874 57.4753 59.9773 57.3079 59.1766C56.941 57.4171 56.7709 55.6898 56.6879 53.8928C56.6598 53.3104 56.6424 52.7198 56.6303 52.1173C56.625 51.7946 56.6303 51.4397 56.5835 51.1104C56.4723 51.2416 56.3666 51.3795 56.2688 51.5214C55.6261 52.452 55.2954 53.6036 55.4667 54.9881Z" fill="#F1C4C6"/>
</g>
<g style="mix-blend-mode:soft-light" opacity="0.41">
<path d="M64.1459 50.5775C64.5891 51.5202 65.6603 52.8645 65.9281 53.3841C66.8775 55.2051 67.6219 57.1788 67.6996 59.2275C67.78 61.2789 67.1198 63.4253 65.6161 64.8219C66.1437 64.9424 66.7221 64.4872 67.2109 64.7215C67.6246 64.917 67.6889 65.5236 67.4532 65.9186C67.2537 66.2507 66.9163 66.4662 66.5681 66.6457C66.856 66.5466 67.2042 66.6202 67.4639 66.7916C67.7853 67.0059 68.0022 67.342 68.1977 67.6754C69.6921 70.2128 70.4312 73.1131 71.5921 75.8206C72.4156 77.7381 73.5364 79.6368 75.087 80.9919C73.8135 78.982 72.6232 76.928 71.7421 74.7239C69.7095 69.641 69.439 64.056 68.4414 58.6718C67.9728 56.1371 67.2738 53.5099 65.4983 51.642C65.1059 51.2283 64.6467 50.8694 64.1445 50.5762L64.1459 50.5775Z" fill="white"/>
</g>
<path d="M99.1512 141.233C99.1512 141.233 101.73 150.264 100.177 159.287H78.0028C78.0028 159.287 78.1073 156.57 76.4482 154.271C74.7892 151.972 99.1512 141.231 99.1512 141.231V141.233Z" fill="#E5805C"/>
<g style="mix-blend-mode:multiply" opacity="0.45">
<path d="M65.5449 125.145C68.2953 135.577 72.1315 145.724 76.9895 155.357C77.6014 156.259 77.7353 157.196 77.8692 157.598C77.9585 158.312 78.0031 158.848 78.0031 159.205H87.1084C86.9223 158.724 85.5418 155.021 85.3409 154.556C82.7365 148.55 79.2055 142.948 74.9113 138.007C72.8827 135.675 70.6787 133.48 68.8657 130.977C67.5387 129.148 66.4447 127.192 65.5463 125.146L65.5449 125.145Z" fill="#F1C4C6"/>
</g>
</svg>
