<svg width="74" height="64" viewBox="0 0 74 64" fill="none" xmlns="http://www.w3.org/2000/svg">
<rect width="74" height="63" rx="10" fill="#EDC9B4"/>
<path fill-rule="evenodd" clip-rule="evenodd" d="M33.9892 59.5168C47.9668 59.9905 51.7526 51.6332 51.5383 52.7272C51.2639 54.1145 50.5195 55.1446 49.9932 55.9115C49.9556 55.9679 49.6811 56.1446 50.1887 55.9679C58.9407 52.9453 59.2001 45.791 59.2152 45.8361C59.6137 46.9978 58.4971 50.2685 58.9407 50.2385C66.7717 39.8511 42.5607 -7.74751 30.9929 14.11C24.9702 14.7115 22.6694 15.313 20.019 21.2154C14.9851 32.4261 20.4137 37.0202 9 47.6482C9.37595 48.2685 10.9888 49.276 12.5715 49.7648C14.2971 50.2986 15.9888 50.2948 16.0001 50.3926C16.0452 50.746 13.7181 51.5731 12.5527 51.7084C17.5941 56.1446 24.8198 56.028 26.8311 56.1671C27.2071 56.1934 23.1732 57.1408 22.6168 57.498C24.8913 59.4491 30.3876 59.5995 33.9892 59.5131V59.5168Z" fill="#440908"/>
<path fill-rule="evenodd" clip-rule="evenodd" d="M31.7896 13.5083C20.3458 13.5083 19.451 21.1738 18.0337 31.3319C18.3119 32.0613 23.3984 45.4863 23.4586 43.0539C23.5563 39.2343 23.7368 32.2605 24.1391 31.0274C24.3383 30.4221 24.609 30.5424 25.2481 30.2981C30.8234 28.1552 35.6317 23.8543 31.7896 13.5083Z" fill="#440908"/>
<path fill-rule="evenodd" clip-rule="evenodd" d="M54.869 24.618C51.0644 16.0615 44.8951 9.02379 39.0905 8.09144C35.3198 7.48617 30.2783 9.91102 31.0039 14.6141C31.4475 17.4939 34.0077 22.1669 34.5792 23.0391C37.9101 28.1143 43.1545 27.3136 48.2411 31.0542C50.1095 32.4302 50.0494 40.5882 49.5306 42.9717C49.3275 43.9003 51.5644 39.5845 53.2599 35.5017C54.9743 31.3738 56.1397 27.4602 54.8765 24.618H54.869Z" fill="#440908"/>
<path fill-rule="evenodd" clip-rule="evenodd" d="M35.9962 15.4219C35.985 15.3204 36.0601 15.2302 36.1654 15.2189C36.2669 15.2076 36.3571 15.2828 36.3684 15.3881C36.5752 17.5046 36.8233 19.3919 37.7707 21.1551C38.7181 22.9183 40.376 24.5687 43.3986 26.2304C44.049 26.5875 44.6618 26.9183 45.2483 27.2379C50.2822 29.9635 53.3236 31.6139 55.0266 35.2004C56.9101 39.1667 57.3086 41.1592 57.3124 41.1667C57.3312 41.2682 57.2673 41.366 57.1658 41.3848C57.0643 41.4036 56.9665 41.3396 56.9477 41.2381C56.9477 41.2344 56.5567 39.287 54.6921 35.3583C53.0416 31.8808 50.0416 30.2567 45.0753 27.565C44.4813 27.2417 43.861 26.9071 43.2219 26.5574C40.1279 24.8582 38.4249 23.1551 37.4436 21.3318C36.4624 19.5084 36.2068 17.5798 35.9962 15.4219Z" fill="#72130D"/>
<path fill-rule="evenodd" clip-rule="evenodd" d="M37.4669 13.1104C37.3879 13.0428 37.3767 12.9262 37.4443 12.8473C37.512 12.7683 37.6285 12.757 37.7075 12.8247C38.606 13.5804 39.6887 14.4187 40.8617 15.3247C45.3129 18.7722 51.0949 23.2497 53.8469 28.6784C57.3131 35.5093 58.3018 39.4643 58.3056 39.4793C58.3319 39.5771 58.2718 39.6823 58.1703 39.7049C58.0687 39.7312 57.9672 39.671 57.9447 39.5695C57.9447 39.5583 56.9635 35.6371 53.516 28.8475C50.8017 23.4941 45.0572 19.0466 40.6361 15.6217C39.4669 14.7157 38.388 13.8811 37.4707 13.1104H37.4669Z" fill="#72130D"/>
<path fill-rule="evenodd" clip-rule="evenodd" d="M31.4736 19.096C31.4736 18.9945 31.5526 18.9081 31.6541 18.9043C31.7556 18.9043 31.842 18.9832 31.8458 19.0848C31.8947 20.6111 31.2405 22.1788 30.1465 23.6675C28.9209 25.333 27.1352 26.9082 25.1502 28.2278C21.496 30.6601 19.996 35.3256 19.9922 35.3369C19.9621 35.4347 19.8569 35.4873 19.7591 35.4572C19.6614 35.4271 19.6087 35.3219 19.6388 35.2241C19.6426 35.2091 21.184 30.4233 24.9472 27.9195C26.8983 26.6225 28.6502 25.0773 29.8495 23.4495C30.8984 22.0247 31.5225 20.5359 31.4774 19.096H31.4736Z" fill="#72130D"/>
<path fill-rule="evenodd" clip-rule="evenodd" d="M19.9965 31.9525C19.9777 32.054 19.8837 32.1217 19.7822 32.1067C19.6807 32.0879 19.613 31.9939 19.6281 31.8924C19.9251 30.1592 20.4213 27.8096 21.3048 25.4411C22.1883 23.0651 23.4627 20.6704 25.3086 18.8583C25.9552 18.2267 26.5154 17.738 27.0041 17.3696C27.5793 16.9297 28.053 16.6515 28.4365 16.4823C28.5305 16.441 28.6395 16.4823 28.6809 16.5763C28.7222 16.6703 28.6809 16.7793 28.5869 16.8207C28.226 16.9823 27.7748 17.2417 27.2297 17.659C26.756 18.0199 26.2071 18.4936 25.5718 19.1177C23.7672 20.8884 22.5229 23.2343 21.6544 25.5652C20.786 27.9036 20.2935 30.2307 19.9965 31.9488V31.9525Z" fill="#72130D"/>
<path d="M38.6244 40.3662C38.6244 40.3662 38.0417 47.3663 38.1507 48.3438C38.256 49.3213 47.1246 52.9454 48.8088 54.1672C50.493 55.389 50.5419 59.4041 50.0043 62.829H20.2068C19.6692 59.4041 19.7181 55.389 21.4023 54.1672C23.0866 52.9454 31.9551 49.3213 32.0604 48.3438C32.1657 47.3663 31.583 40.3662 31.583 40.3662H38.6244Z" fill="#E5805C"/>
<path d="M38.624 40.3662H31.5825C31.5825 40.3662 31.8908 44.0806 32.0186 46.4753C34.1239 46.3212 36.2217 45.9528 38.2556 45.3362C38.3984 43.058 38.624 40.3662 38.624 40.3662Z" fill="#CC6144"/>
<path d="M35.1057 63.4188H51.0571C51.0571 63.4188 50.5909 54.5127 50.0044 54.069C49.418 53.6254 41.3915 49.8096 41.3915 49.8096C41.3915 49.8096 39.3464 51.5953 35.1057 51.5953C30.865 51.5953 28.8199 49.8096 28.8199 49.8096C28.8199 49.8096 20.7934 53.6292 20.2069 54.069C19.6205 54.5089 19.1543 63.4188 19.1543 63.4188H35.1057Z" fill="#FFECE3"/>
<path d="M34.9892 54.8056C37.5606 53.2642 40.2449 51.8694 42.9479 50.5574C42.0231 50.1137 41.3915 49.813 41.3915 49.813C41.3915 49.813 39.3464 51.5987 35.1057 51.5987C30.865 51.5987 28.8199 49.813 28.8199 49.813C28.8199 49.813 20.7934 53.6326 20.2069 54.0725C19.6205 54.5123 19.1543 63.4222 19.1543 63.4222H25.4514C28.068 60.0199 31.2222 57.1063 34.9854 54.8093L34.9892 54.8056Z" fill="#F9F7ED"/>
<path d="M44.3799 31.5391C44.3799 31.5391 46.3612 29.2195 48.2183 30.7533C50.083 32.291 48.9401 37.8023 43.5679 37.5693L44.3799 31.5391Z" fill="#E5805C"/>
<path d="M45.0271 36.1101C45.3241 36.6778 46.9106 36.4973 47.7828 34.877C48.655 33.2604 48.3355 31.6439 47.9069 31.8318C47.4783 32.0198 44.3166 34.7417 45.0309 36.1064L45.0271 36.1101Z" fill="#D87350"/>
<path d="M48.0308 31.9043L48.0045 31.8291H47.9368L47.903 31.8366C46.2301 32.4682 45.0195 34.0321 44.6624 36.0209C44.6511 36.0773 44.6661 36.1337 44.7037 36.1788C44.7413 36.2239 44.7977 36.2502 44.8541 36.2502C44.9368 36.2502 45.0045 36.1976 45.027 36.1111C45.0308 36.0961 45.0345 36.0811 45.0383 36.066C45.2601 36.1863 45.5045 36.2502 45.7526 36.2502C46.3052 36.2502 46.9218 35.9156 47.0459 35.1637C47.1286 34.6562 46.8842 34.2389 46.4481 34.1524C46.1849 34.0998 45.9067 34.2201 45.6699 34.3893C46.215 33.3592 46.9895 32.5622 47.982 32.0133C48.0196 31.9908 48.0421 31.9456 48.0308 31.9043ZM46.5985 35.2916C46.4406 35.6638 46.1097 35.8856 45.7075 35.8856C45.5082 35.8856 45.3127 35.8329 45.1323 35.7314C45.2225 35.4307 45.324 35.1449 45.4406 34.8705C45.6549 34.7051 45.8879 34.5397 46.1661 34.4607C46.3616 34.4043 46.5045 34.4382 46.5872 34.5697C46.7075 34.754 46.6887 35.081 46.6022 35.2953L46.5985 35.2916Z" fill="#CC6144"/>
<path d="M46.9934 30.7507C46.5423 30.5627 45.6663 30.8635 45.7002 31.4387C45.7077 31.5778 45.8318 31.6868 45.9746 31.6454C46.3731 31.5364 46.5987 31.1003 46.9934 30.9762C47.1137 30.9387 47.0987 30.792 46.9934 30.7469V30.7507Z" fill="#F48462"/>
<path d="M25.8308 31.5391C25.8308 31.5391 23.8496 29.2195 21.9924 30.7533C20.1277 32.291 21.2706 37.8023 26.6429 37.5693L25.8308 31.5391Z" fill="#E5805C"/>
<path d="M22.1692 31.9794C21.5752 31.9343 22.1429 35.378 23.4888 36.2464C24.8347 37.1186 25.5715 37.0096 25.3798 35.8855C25.1881 34.7614 23.3647 32.0659 22.1692 31.9794Z" fill="#D87350"/>
<path d="M22.3085 31.8332L22.2747 31.8257C22.2296 31.8257 22.192 31.8558 22.1807 31.9009L22.1694 31.9798L22.2258 32.0099C23.2183 32.5588 23.9965 33.3558 24.5379 34.3859C24.3048 34.2167 24.0228 34.0964 23.7597 34.149C23.3236 34.2355 23.0755 34.6528 23.1619 35.1603C23.286 35.9122 23.8988 36.2468 24.4552 36.2468C24.7071 36.2468 24.9514 36.1829 25.1695 36.0626C25.1732 36.0776 25.177 36.0927 25.1808 36.1077C25.1996 36.1904 25.271 36.2468 25.3537 36.2468C25.4101 36.2468 25.4665 36.2205 25.5041 36.1754C25.5417 36.1303 25.553 36.0776 25.5454 36.0175C25.1883 34.0287 23.974 32.4648 22.3048 31.8332H22.3085ZM24.5041 35.8821C24.1018 35.8821 23.7672 35.6603 23.6131 35.2882C23.5228 35.0776 23.504 34.7468 23.6281 34.5626C23.6883 34.4723 23.771 34.431 23.8837 34.431C23.9326 34.431 23.989 34.4385 24.0492 34.4573C24.3236 34.5363 24.5605 34.7017 24.7747 34.8671C24.8913 35.1378 24.9965 35.4272 25.083 35.728C24.9026 35.8295 24.7033 35.8821 24.5078 35.8821H24.5041Z" fill="#CC6144"/>
<path d="M35.1055 16.8975C34.3311 16.8975 26.8723 18.984 26.1768 22.8487C25.4813 26.7134 24.3986 32.0067 25.985 36.5294C27.5678 41.052 34.0228 43.5145 35.1055 43.5145C36.1882 43.5145 42.6432 41.052 44.226 36.5294C45.8087 32.0067 44.7297 26.7134 44.0342 22.8487C43.3387 18.984 35.88 16.8975 35.1055 16.8975Z" fill="#E5805C"/>
<path d="M27.9888 32.3416C27.9061 26.9806 29.4626 22.0256 32.1468 17.7549C29.7069 18.706 26.6129 20.4279 26.1768 22.8527C25.4813 26.7174 24.3986 32.0108 25.985 36.5334C27.44 40.6876 33.004 43.1012 34.7371 43.4659C34.489 43.323 34.2446 43.1726 34.0077 43.011C30.4851 40.6124 28.0866 36.6499 27.9888 32.3416Z" fill="#CC6144"/>
<path d="M36.7034 29.0854C36.1658 30.4539 35.7259 32.3035 36.3011 33.7246C36.3913 33.9464 36.7447 34.0028 36.8124 33.7246C36.9928 32.9915 36.8537 32.2622 36.8011 31.514C36.7447 30.7095 36.7184 29.8975 36.7861 29.0929C36.7898 29.0441 36.7184 29.0403 36.7034 29.0817V29.0854Z" fill="#F48462"/>
<path d="M45.0038 31.7134C44.7858 33.0593 44.4512 34.3488 43.985 35.6308C43.4587 37.0819 42.5677 38.2399 41.812 39.5594C41.7481 39.6722 41.8872 39.8376 42 39.7474C44.3685 37.9429 44.8985 34.4766 45.0264 31.7134C45.0264 31.6984 45.0038 31.6984 45.0038 31.7134Z" fill="#F48462"/>
<path d="M31.8613 32.0472C31.0868 32.6562 30.0229 32.893 29.0605 32.675C28.0605 32.4494 27.6056 31.4419 27.1695 30.6411C27.1469 30.5998 27.0755 30.6186 27.0792 30.6637C27.1657 31.9043 27.7033 32.799 28.9176 33.19C29.9402 33.5171 31.3199 32.9419 31.8801 32.0622C31.8876 32.0509 31.8726 32.0396 31.8613 32.0472Z" fill="#CC6144"/>
<path d="M38.346 32.0472C39.1205 32.6562 40.1844 32.893 41.1468 32.675C42.1468 32.4494 42.6017 31.4419 43.0378 30.6411C43.0604 30.5998 43.1318 30.6186 43.1281 30.6637C43.0378 31.9043 42.5002 32.799 41.2897 33.19C40.2671 33.5171 38.8874 32.9419 38.3272 32.0622C38.3197 32.0509 38.3347 32.0396 38.346 32.0472Z" fill="#CC6144"/>
<g style="mix-blend-mode:multiply" opacity="0.4">
<path d="M44.591 32.9873C44.8805 34.055 43.794 35.2806 42.1587 35.728C40.5233 36.1716 38.9631 35.6678 38.6736 34.6001C38.3842 33.5325 39.4706 32.3069 41.106 31.8633C42.7414 31.4196 44.3016 31.9234 44.591 32.9911V32.9873Z" fill="#E24D4D"/>
</g>
<g style="mix-blend-mode:multiply" opacity="0.4">
<path d="M25.6204 32.9873C25.3272 34.055 26.4174 35.2806 28.0528 35.728C29.6844 36.1716 31.2483 35.6678 31.5378 34.6001C31.8273 33.5325 30.7408 32.3069 29.1054 31.8633C27.4701 31.4196 25.9099 31.9234 25.6204 32.9911V32.9873Z" fill="#E24D4D"/>
</g>
<path d="M35.515 36.5584C35.4586 36.4268 35.2631 36.3591 35.1428 36.299C34.9511 36.2087 34.7631 36.1787 34.5601 36.2614C34.3797 36.3366 34.4699 36.5772 34.6278 36.6035C34.7782 36.6298 34.9248 36.6035 35.0789 36.6072C35.2067 36.6072 35.3534 36.6787 35.4737 36.6448C35.5113 36.6336 35.5338 36.596 35.515 36.5584Z" fill="#CC6144"/>
<path d="M36.5419 36.5326C36.6359 36.5476 36.7524 36.4461 36.8351 36.4085C36.9554 36.3559 37.0795 36.3597 37.1396 36.2281C37.1622 36.1792 37.1396 36.1153 37.0945 36.089C36.963 36.0063 36.8426 36.104 36.7336 36.1867C36.6509 36.2469 36.493 36.3597 36.4893 36.4687C36.4893 36.5025 36.5118 36.5251 36.5419 36.5326Z" fill="#CC6144"/>
<path d="M39.8086 37.4492C37.3537 38.8816 34.6243 39.4192 31.8348 38.6974C31.7746 38.6823 31.7483 38.7725 31.8085 38.7913C34.4777 39.4831 37.5642 39.1335 39.8274 37.4831C39.8462 37.468 39.8274 37.4417 39.8086 37.453V37.4492Z" fill="#A8332D"/>
<path d="M31.827 38.5777C31.7894 38.6191 31.7518 38.6604 31.718 38.7055C31.6729 38.7619 31.6691 38.8146 31.6879 38.8822C31.7029 38.9311 31.7744 38.9574 31.8082 38.9123C31.8458 38.8672 31.8684 38.8371 31.8834 38.777C31.8947 38.7281 31.9097 38.683 31.9285 38.6379C31.9511 38.5777 31.8684 38.5364 31.827 38.5777Z" fill="#A8332D"/>
<path d="M39.6616 37.412C39.6616 37.4947 39.7293 37.5624 39.8082 37.5812C39.9097 37.6037 39.9586 37.4759 39.8759 37.4158C39.8383 37.3857 39.8007 37.3594 39.7556 37.3406C39.7105 37.3218 39.6616 37.3706 39.6616 37.412Z" fill="#A8332D"/>
<path d="M32.7371 38.9351C33.7146 39.4652 34.8838 39.1983 35.9327 39.0592C37.0868 38.9088 38.0455 38.4878 39.0681 37.9652C39.0981 37.9501 39.0756 37.8975 39.0455 37.9088C37.0379 38.6156 34.8011 38.3787 32.7409 38.9088C32.7296 38.9088 32.7296 38.9276 32.7409 38.9314L32.7371 38.9351Z" fill="#A8332D"/>
<path d="M32.267 30.6675C32.267 30.6675 31.7971 28.6223 29.5226 27.9118C27.2481 27.1975 25.5827 29.1599 27.0601 30.1712C28.5414 31.1825 32.267 30.6675 32.267 30.6675Z" fill="#3F1D2B"/>
<path d="M27.0715 29.9605C27.0114 30.3101 27.2219 32.4868 29.2257 32.874C31.2333 33.2613 32.1844 31.9229 32.2859 31.0169C32.3912 30.1108 31.1581 28.6973 30.0265 28.4454C28.8986 28.1935 27.2633 28.8477 27.0678 29.9605H27.0715Z" fill="#F9F7ED"/>
<path d="M30.0305 28.4453C28.9328 28.201 27.3651 28.81 27.0981 29.8664C27.6846 29.6709 28.2899 29.5694 28.9177 29.5281C30.0042 29.4679 31.0719 29.5882 31.9779 30.2273C32.0531 30.28 32.1208 30.3401 32.1922 30.4003C31.8839 29.5732 30.9253 28.6446 30.0305 28.4453Z" fill="#E8E5DD"/>
<path d="M31.5303 30.6675C31.5303 31.5773 30.7934 32.3179 29.8799 32.3179C28.9663 32.3179 28.2295 31.5773 28.2295 30.6675C28.2295 29.7577 28.9663 29.0171 29.8799 29.0171C30.7934 29.0171 31.5303 29.7539 31.5303 30.6675Z" fill="#725F28"/>
<path d="M30.1468 29.6336C30.5227 29.675 30.9363 29.7163 31.3085 29.8442C31.0228 29.3517 30.4927 29.0171 29.8799 29.0171C29.3498 29.0171 28.8799 29.269 28.5791 29.6562C29.0941 29.566 29.6393 29.5735 30.1468 29.6336Z" fill="#3D3F26"/>
<path d="M31.4102 30.2432C31.4102 30.4575 31.2373 30.6304 31.023 30.6304C30.8087 30.6304 30.6357 30.4575 30.6357 30.2432C30.6357 30.0289 30.8087 29.856 31.023 29.856C31.2373 29.856 31.4102 30.0289 31.4102 30.2432Z" fill="#A59568"/>
<path d="M37.9404 30.6675C37.9404 30.6675 38.4104 28.6223 40.6848 27.9118C42.9593 27.1975 44.6248 29.1599 43.1473 30.1712C41.6661 31.1825 37.9404 30.6675 37.9404 30.6675Z" fill="#3F1D2B"/>
<path d="M43.1395 29.9605C43.1996 30.3101 42.9891 32.4868 40.9853 32.874C38.9777 33.2613 38.0266 31.9229 37.9213 31.0169C37.8161 30.1108 39.0529 28.6973 40.1808 28.4454C41.3124 28.1935 42.944 28.8477 43.1395 29.9605Z" fill="#F9F7ED"/>
<path d="M40.1807 28.4453C41.2785 28.201 42.8462 28.81 43.1131 29.8664C42.5266 29.6709 41.9214 29.5694 41.2935 29.5281C40.2071 29.4679 39.1394 29.5882 38.2333 30.2273C38.1581 30.28 38.0905 30.3401 38.019 30.4003C38.3273 29.5732 39.286 28.6446 40.1807 28.4453Z" fill="#E8E5DD"/>
<path d="M38.6807 30.6675C38.6807 31.5773 39.4175 32.3179 40.3311 32.3179C41.2446 32.3179 41.9815 31.5773 41.9815 30.6675C41.9815 29.7577 41.2446 29.0171 40.3311 29.0171C39.4175 29.0171 38.6807 29.7539 38.6807 30.6675Z" fill="#725F28"/>
<path d="M40.0606 29.6336C39.6847 29.675 39.2711 29.7163 38.8989 29.8442C39.1846 29.3517 39.7147 29.0171 40.3275 29.0171C40.8576 29.0171 41.3275 29.269 41.6283 29.6562C41.1133 29.566 40.5681 29.5735 40.0606 29.6336Z" fill="#3D3F26"/>
<path d="M41.0571 30.2432C41.0571 30.4575 41.2301 30.6304 41.4444 30.6304C41.6586 30.6304 41.8316 30.4575 41.8316 30.2432C41.8316 30.0289 41.6586 29.856 41.4444 29.856C41.2301 29.856 41.0571 30.0289 41.0571 30.2432Z" fill="#A59568"/>
<path d="M43.9817 25.5279C42.632 23.8023 39.1508 24.3925 37.7635 25.7647C37.5868 25.9414 37.7748 26.1783 37.9853 26.1444C38.8951 26.0128 39.6996 25.4903 40.6057 25.2985C41.5831 25.0918 43.0531 24.979 43.8689 25.6369C43.9478 25.7008 44.0418 25.6068 43.9779 25.5279H43.9817Z" fill="#3F1D2B"/>
<path d="M26.3387 25.6369C27.1244 25.0053 28.3801 25.1181 29.3274 25.2497C30.35 25.3925 31.2147 25.9978 32.2222 26.1444C32.4328 26.1745 32.6207 25.9377 32.444 25.7647C31.0606 24.3925 27.5755 23.8023 26.2296 25.5279C26.1657 25.6068 26.2597 25.7008 26.3387 25.6369Z" fill="#3F1D2B"/>
<path d="M36.1699 39.9684C36.0384 39.9308 35.8692 39.9459 35.7602 40.0361C35.7075 40.0775 35.6624 40.1301 35.6248 40.1827C35.5835 40.2466 35.576 40.3143 35.5684 40.3895C35.5572 40.5173 35.7188 40.5963 35.8203 40.5361C35.8617 40.5136 35.903 40.4948 35.9369 40.4609C35.9669 40.4346 35.9895 40.4008 36.0233 40.3745C36.0609 40.3444 36.0985 40.273 36.1662 40.2504C36.294 40.2053 36.3128 40.0135 36.1662 39.9722L36.1699 39.9684Z" fill="#CC6144"/>
<path fill-rule="evenodd" clip-rule="evenodd" d="M29.3616 26.7603C30.4406 26.7603 31.4181 27.1964 32.1249 27.9031C32.8316 28.6099 33.2677 29.5874 33.2677 30.6663C33.2677 31.7453 32.8316 32.7228 32.1249 33.4295C31.4181 34.1363 30.4406 34.5724 29.3616 34.5724C28.2827 34.5724 27.3052 34.1363 26.5984 33.4295C25.8917 32.7228 25.4556 31.7453 25.4556 30.6663C25.4556 29.5874 25.8917 28.6099 26.5984 27.9031C27.3052 27.1964 28.2827 26.7603 29.3616 26.7603ZM31.6549 28.3693C31.0684 27.7828 30.2564 27.4182 29.3616 27.4182C28.4669 27.4182 27.6549 27.7828 27.0684 28.3693C26.4819 28.9558 26.1172 29.7678 26.1172 30.6626C26.1172 31.5573 26.4819 32.3694 27.0684 32.9558C27.6549 33.5423 28.4669 33.907 29.3616 33.907C30.2564 33.907 31.0684 33.5423 31.6549 32.9558C32.2414 32.3694 32.6061 31.5573 32.6061 30.6626C32.6061 29.7678 32.2414 28.9558 31.6549 28.3693Z" fill="#2E1E11"/>
<path fill-rule="evenodd" clip-rule="evenodd" d="M40.974 26.561C42.0529 26.561 43.0304 26.9971 43.7372 27.7039C44.4439 28.4107 44.88 29.3882 44.88 30.4671C44.88 31.5461 44.4439 32.5235 43.7372 33.2303C43.0304 33.9371 42.0529 34.3732 40.974 34.3732C39.895 34.3732 38.9175 33.9371 38.2107 33.2303C37.504 32.5235 37.0679 31.5461 37.0679 30.4671C37.0679 29.3882 37.504 28.4107 38.2107 27.7039C38.9175 26.9971 39.895 26.561 40.974 26.561ZM43.271 28.1701C42.6845 27.5836 41.8725 27.2189 40.9777 27.2189C40.083 27.2189 39.2709 27.5836 38.6844 28.1701C38.098 28.7566 37.7333 29.5686 37.7333 30.4634C37.7333 31.3581 38.098 32.1702 38.6844 32.7566C39.2709 33.3431 40.083 33.7078 40.9777 33.7078C41.8725 33.7078 42.6845 33.3431 43.271 32.7566C43.8575 32.1702 44.2221 31.3581 44.2221 30.4634C44.2221 29.5686 43.8575 28.7566 43.271 28.1701Z" fill="#2E1E11"/>
<path fill-rule="evenodd" clip-rule="evenodd" d="M25.9286 30.0425C26.0677 30.0838 26.1467 30.2342 26.1016 30.3696C26.0602 30.5087 25.9136 30.5876 25.7745 30.5425L23.4098 29.8207C23.2707 29.7793 23.1917 29.629 23.2368 29.4899C23.2782 29.3508 23.4286 29.2718 23.5639 29.3169L25.9286 30.0387V30.0425Z" fill="#2E1E11"/>
<path fill-rule="evenodd" clip-rule="evenodd" d="M44.5642 30.8059C44.4251 30.8435 44.2785 30.757 44.2447 30.6179C44.2071 30.4788 44.2935 30.3322 44.4326 30.2984L46.8274 29.6856C46.9665 29.648 47.1131 29.7344 47.147 29.8735C47.1846 30.0126 47.0981 30.1593 46.959 30.1931L44.5642 30.8059Z" fill="#2E1E11"/>
<path fill-rule="evenodd" clip-rule="evenodd" d="M33.3389 30.3888C33.2449 30.5129 33.0419 30.5505 32.8878 30.4753C32.7337 30.4001 32.6848 30.2385 32.7788 30.1144C32.7788 30.1144 33.3389 29.355 35.057 29.355C36.7751 29.355 37.3315 30.1144 37.3352 30.1144C37.4292 30.2385 37.3803 30.4001 37.2262 30.4753C37.0721 30.5505 36.8691 30.5129 36.7751 30.3888C36.7751 30.3888 36.4066 29.8813 35.0608 29.8813C33.7149 29.8813 33.3464 30.3851 33.3464 30.3888H33.3389Z" fill="#2E1E11"/>
</svg>
