<svg width="74" height="63" viewBox="0 0 74 63" fill="none" xmlns="http://www.w3.org/2000/svg">
<rect width="74" height="63" rx="10" fill="#EDC9B4"/>
<path fill-rule="evenodd" clip-rule="evenodd" d="M27.6682 18.1075C28.3018 19.8341 28.777 32.8108 26.2386 33.7928C17.4991 37.1825 18.5999 48.401 25.9733 52.6421C39.8885 60.6491 42.0823 15.4821 41.9675 13.2606C41.8764 11.538 43.6782 12.3696 43.5752 11.0628C43.0961 5.05954 37.9363 2.55686 34.1783 3.06374C28.9512 3.7686 24.6943 9.99758 27.6682 18.1075Z" fill="#72130D"/>
<path fill-rule="evenodd" clip-rule="evenodd" d="M35.8218 14.0844C37.9839 14.0844 39.7461 12.5875 39.7461 10.7541C39.7461 8.92063 37.9839 7.42773 35.8218 7.42773C33.6596 7.42773 31.8975 8.92459 31.8975 10.7541C31.8975 12.5836 33.6596 14.0844 35.8218 14.0844Z" fill="#E3A64A"/>
<path fill-rule="evenodd" clip-rule="evenodd" d="M23.051 45.5413C23.0787 45.6165 23.043 45.7037 22.9638 45.7314C22.8886 45.7591 22.8015 45.7235 22.7698 45.6443C22.3223 44.4721 22.1125 42.9475 22.2748 41.5101C22.4174 40.2627 22.8371 39.0747 23.6212 38.2313C25.2764 36.4453 25.423 36.3741 25.423 36.3741C25.4942 36.3345 25.5853 36.3582 25.6249 36.4295C25.6645 36.5008 25.6408 36.5919 25.5695 36.6315C25.5695 36.6315 25.4626 36.6829 23.839 38.4332C23.1024 39.2252 22.7064 40.3538 22.5718 41.5418C22.4134 42.9317 22.6154 44.4048 23.047 45.5373L23.051 45.5413Z" fill="#992317"/>
<path fill-rule="evenodd" clip-rule="evenodd" d="M23.9176 21.354C24.575 14.5271 27.9647 9.0109 35.7737 9.60093C44.3865 9.40294 47.8634 16.416 47.9386 24.1735C47.5585 23.9993 47.1743 23.8329 46.7863 23.6785C46.9249 22.5895 46.022 18.4039 45.2696 19.1206C34.7995 29.1392 23.1811 24.221 23.5731 23.8369C23.7632 23.6508 23.8899 21.6154 23.9176 21.3501V21.354Z" fill="#440908"/>
<path fill-rule="evenodd" clip-rule="evenodd" d="M24.5713 30.0306L25.3831 31.4562C25.3831 10.9714 40.6843 9.0865 45.1471 22.1543C46.3549 25.6865 46.0302 27.7695 46.0302 31.4562L46.842 30.0306C48.3903 27.3022 49.1744 25.1638 49.0991 21.7781C49.0516 19.612 48.6358 17.4697 47.8993 15.9768C43.6384 7.35997 29.4222 6.96794 24.2545 14.7967C21.241 19.3625 22.0013 25.5044 24.5713 30.0266V30.0306Z" fill="#440908"/>
<path fill-rule="evenodd" clip-rule="evenodd" d="M43.9431 20.8166C43.1154 22.1353 40.8424 24.6261 38.0586 24.8914C39.2505 23.9251 40.5296 22.6896 41.278 21.7234C42.1294 20.6226 42.4264 19.791 43.4362 18.7416C43.8678 18.2941 44.1846 18.4684 44.2005 18.4802C45.2261 18.9158 44.4974 19.8504 43.9431 20.8206V20.8166Z" fill="#440908"/>
<path fill-rule="evenodd" clip-rule="evenodd" d="M25.7475 22.7439C25.6683 22.7281 25.6128 22.6528 25.6287 22.5697C25.6445 22.4905 25.7198 22.435 25.8029 22.4509C27.6958 22.7993 30.2182 22.8073 32.8635 22.146C34.9741 21.6153 37.16 20.661 39.1598 19.1047C43.6424 15.62 43.4246 13.1807 43.4246 13.1727C43.4207 13.0896 43.4801 13.0183 43.5632 13.0143C43.6464 13.0104 43.7177 13.0698 43.7216 13.1529C43.7216 13.1609 43.9473 15.7546 39.3419 19.3384C37.3065 20.9223 35.081 21.8965 32.9348 22.435C30.2499 23.1082 27.6799 23.1003 25.7514 22.7439H25.7475Z" fill="#992317"/>
<path fill-rule="evenodd" clip-rule="evenodd" d="M25.2247 21.8613C25.1415 21.8534 25.0821 21.7821 25.0901 21.6989C25.098 21.6158 25.1693 21.5564 25.2524 21.5643C26.6938 21.7108 28.7926 21.2277 30.8676 20.2971C32.7723 19.4418 34.6573 18.2142 35.9838 16.749C38.7558 13.6959 38.8469 12.0486 38.8469 12.0406C38.8508 11.9575 38.9221 11.8981 39.0053 11.902C39.0884 11.906 39.1478 11.9773 39.1439 12.0604C39.1439 12.0644 39.0449 13.8147 36.2016 16.947C34.8434 18.4439 32.9268 19.6952 30.9864 20.5624C28.8678 21.5128 26.7136 22.0038 25.2207 21.8534L25.2247 21.8613Z" fill="#992317"/>
<path fill-rule="evenodd" clip-rule="evenodd" d="M25.2287 20.3686C25.1534 20.3963 25.0663 20.3606 25.0386 20.2814C25.0109 20.2062 25.0465 20.1191 25.1257 20.0914C26.6701 19.5053 29.0421 18.147 30.9825 16.2106C32.3764 14.8246 33.5445 13.1377 34.0277 11.233C34.0475 11.1538 34.1267 11.1063 34.2098 11.1261C34.289 11.1459 34.3365 11.2251 34.3167 11.3082C33.8217 13.2763 32.6219 15.0028 31.1923 16.4245C29.2163 18.3925 26.8008 19.7746 25.2287 20.3725V20.3686Z" fill="#992317"/>
<path d="M39.509 38.3784C39.509 38.3784 38.8952 45.7518 39.01 46.7814C39.1209 47.811 48.4624 51.6284 50.2364 52.9153C52.0105 54.2023 52.062 58.4315 51.4957 62.039H20.1093C19.543 58.4315 19.5945 54.2023 21.3685 52.9153C23.1426 51.6284 32.4841 47.811 32.5949 46.7814C32.7058 45.7518 32.092 38.3784 32.092 38.3784H39.509Z" fill="#E5805C"/>
<path d="M39.5092 38.3784H32.0923C32.0923 38.3784 32.417 42.2908 32.5516 44.8133C34.7692 44.651 36.9788 44.2629 39.1212 43.6135C39.2716 41.2137 39.5092 38.3784 39.5092 38.3784Z" fill="#CC6144"/>
<path d="M35.802 62.6611H52.604C52.604 62.6611 52.113 53.2801 51.4952 52.8128C50.8775 52.3455 42.423 48.3262 42.423 48.3262C42.423 48.3262 40.2688 50.2071 35.802 50.2071C31.3352 50.2071 29.181 48.3262 29.181 48.3262C29.181 48.3262 20.7265 52.3495 20.1088 52.8128C19.491 53.2761 19 62.6611 19 62.6611H35.802Z" fill="#FFECE3"/>
<path d="M35.6792 53.585C38.3878 51.9614 41.2152 50.4923 44.0624 49.1102C43.0883 48.643 42.423 48.3262 42.423 48.3262C42.423 48.3262 40.2688 50.2071 35.802 50.2071C31.3352 50.2071 29.181 48.3262 29.181 48.3262C29.181 48.3262 20.7265 52.3495 20.1088 52.8128C19.491 53.2761 19 62.6611 19 62.6611H25.6329C28.389 59.0774 31.7114 56.0084 35.6753 53.5889L35.6792 53.585Z" fill="#F9F7ED"/>
<path d="M45.5712 29.0811C45.5712 29.0811 47.658 26.6378 49.6143 28.2535C51.5784 29.8731 50.3746 35.6784 44.7158 35.4328L45.5712 29.0811Z" fill="#E5805C"/>
<path d="M46.2522 33.8923C46.5651 34.4902 48.2362 34.3001 49.1549 32.5934C50.0736 30.8906 49.737 29.1879 49.2856 29.3859C48.8341 29.5839 45.5038 32.4509 46.2562 33.8883L46.2522 33.8923Z" fill="#D87350"/>
<path d="M49.4162 29.4615L49.3885 29.3823H49.3172L49.2816 29.3902C47.5194 30.0555 46.2443 31.7028 45.8681 33.7976C45.8562 33.857 45.8721 33.9164 45.9117 33.964C45.9513 34.0115 46.0107 34.0392 46.0701 34.0392C46.1572 34.0392 46.2285 33.9838 46.2522 33.8927C46.2562 33.8768 46.2601 33.861 46.2641 33.8452C46.4977 33.9719 46.7551 34.0392 47.0165 34.0392C47.5986 34.0392 48.248 33.6868 48.3787 32.8948C48.4658 32.3602 48.2084 31.9206 47.7491 31.8296C47.4719 31.7741 47.1789 31.9008 46.9294 32.079C47.5036 30.994 48.3193 30.1545 49.3647 29.5764C49.4043 29.5526 49.4281 29.5051 49.4162 29.4615ZM47.9075 33.0294C47.7412 33.4215 47.3927 33.6551 46.969 33.6551C46.7591 33.6551 46.5532 33.5997 46.3631 33.4927C46.4581 33.1759 46.5651 32.875 46.6878 32.5859C46.9135 32.4117 47.1591 32.2374 47.4521 32.1543C47.658 32.0949 47.8085 32.1305 47.8956 32.2691C48.0223 32.4632 48.0025 32.8077 47.9114 33.0334L47.9075 33.0294Z" fill="#CC6144"/>
<path d="M48.3232 28.2463C47.848 28.0483 46.9253 28.3651 46.961 28.971C46.9689 29.1175 47.0996 29.2324 47.25 29.1888C47.6698 29.074 47.9074 28.6146 48.3232 28.4839C48.4499 28.4443 48.4341 28.2899 48.3232 28.2424V28.2463Z" fill="#F48462"/>
<path d="M26.0326 29.0811C26.0326 29.0811 23.9457 26.6378 21.9895 28.2535C20.0254 29.8731 21.2292 35.6784 26.888 35.4328L26.0326 29.0811Z" fill="#E5805C"/>
<path d="M22.1759 29.5444C21.5502 29.4969 22.1481 33.1242 23.5658 34.0389C24.9835 34.9576 25.7596 34.8428 25.5577 33.6588C25.3557 32.4748 23.4351 29.6355 22.1759 29.5444Z" fill="#D87350"/>
<path d="M22.3223 29.3902L22.2867 29.3823C22.2391 29.3823 22.1995 29.414 22.1877 29.4615L22.1758 29.5447L22.2352 29.5764C23.2806 30.1545 24.1003 30.994 24.6705 32.079C24.425 31.9008 24.128 31.7741 23.8508 31.8296C23.3915 31.9206 23.1301 32.3602 23.2212 32.8948C23.3519 33.6868 23.9974 34.0392 24.5834 34.0392C24.8487 34.0392 25.1061 33.9719 25.3358 33.8452C25.3398 33.861 25.3437 33.8768 25.3477 33.8927C25.3675 33.9798 25.4427 34.0392 25.5298 34.0392C25.5892 34.0392 25.6486 34.0115 25.6882 33.964C25.7278 33.9164 25.7397 33.861 25.7318 33.7976C25.3556 31.7028 24.0765 30.0555 22.3183 29.3902H22.3223ZM24.6349 33.6551C24.2112 33.6551 23.8588 33.4215 23.6964 33.0294C23.6014 32.8077 23.5816 32.4592 23.7122 32.2652C23.7756 32.1701 23.8627 32.1266 23.9815 32.1266C24.033 32.1266 24.0924 32.1345 24.1557 32.1543C24.4448 32.2374 24.6943 32.4117 24.92 32.5859C25.0428 32.871 25.1537 33.1759 25.2447 33.4927C25.0547 33.5997 24.8448 33.6551 24.6389 33.6551H24.6349Z" fill="#CC6144"/>
<path d="M35.8021 13.6572C34.9863 13.6572 27.1298 15.855 26.3972 19.9258C25.6646 23.9966 24.5242 29.5722 26.1953 34.336C27.8624 39.0998 34.6616 41.6936 35.8021 41.6936C36.9425 41.6936 43.7417 39.0998 45.4089 34.336C47.076 29.5722 45.9395 23.9966 45.2069 19.9258C44.4743 15.855 36.6178 13.6572 35.8021 13.6572Z" fill="#E5805C"/>
<path d="M28.3059 29.9246C28.2188 24.2777 29.8582 19.0585 32.6856 14.5601C30.1156 15.5619 26.8566 17.3756 26.3972 19.9297C25.6646 24.0005 24.5242 29.5761 26.1953 34.3399C27.7278 38.7157 33.5885 41.2579 35.414 41.642C35.1527 41.4916 34.8953 41.3332 34.6458 41.1629C30.9353 38.6365 28.4089 34.4627 28.3059 29.9246Z" fill="#CC6144"/>
<path d="M37.4853 26.4953C36.9191 27.9367 36.4558 29.885 37.0616 31.3819C37.1567 31.6155 37.5289 31.6749 37.6002 31.3819C37.7903 30.6097 37.6437 29.8415 37.5883 29.0535C37.5289 28.206 37.5012 27.3507 37.5725 26.5033C37.5764 26.4518 37.5012 26.4478 37.4853 26.4914V26.4953Z" fill="#F48462"/>
<path d="M46.2291 29.2629C45.9994 30.6805 45.647 32.0388 45.1559 33.3891C44.6015 34.9176 43.663 36.1373 42.8671 37.5272C42.7998 37.646 42.9463 37.8203 43.0651 37.7252C45.5598 35.8245 46.1182 32.1734 46.2528 29.2629C46.2528 29.247 46.2291 29.247 46.2291 29.2629Z" fill="#F48462"/>
<path d="M32.3853 29.617C31.5696 30.2585 30.4489 30.508 29.4352 30.2783C28.3818 30.0407 27.9027 28.9795 27.4433 28.136C27.4196 28.0924 27.3443 28.1122 27.3483 28.1597C27.4394 29.4665 28.0056 30.409 29.2847 30.8208C30.3618 31.1653 31.8151 30.5595 32.4051 29.6328C32.4131 29.621 32.3972 29.6091 32.3853 29.617Z" fill="#CC6144"/>
<path d="M39.2158 29.617C40.0315 30.2585 41.1522 30.508 42.1659 30.2783C43.2193 30.0407 43.6984 28.9795 44.1578 28.136C44.1815 28.0924 44.2568 28.1122 44.2528 28.1597C44.1578 29.4665 43.5915 30.409 42.3164 30.8208C41.2393 31.1653 39.786 30.5595 39.196 29.6328C39.1881 29.621 39.2039 29.6091 39.2158 29.617Z" fill="#CC6144"/>
<g style="mix-blend-mode:multiply" opacity="0.4">
<path d="M45.7933 30.6027C46.0983 31.7274 44.9538 33.0183 43.2313 33.4895C41.5087 33.9568 39.8653 33.4262 39.5604 32.3015C39.2555 31.1769 40.3999 29.886 42.1225 29.4187C43.8451 28.9514 45.4884 29.4821 45.7933 30.6067V30.6027Z" fill="#E24D4D"/>
</g>
<g style="mix-blend-mode:multiply" opacity="0.4">
<path d="M25.8114 30.6027C25.5026 31.7274 26.6509 33.0183 28.3735 33.4895C30.0921 33.9568 31.7395 33.4262 32.0444 32.3015C32.3493 31.1769 31.2049 29.886 29.4823 29.4187C27.7597 28.9514 26.1164 29.4821 25.8114 30.6067V30.6027Z" fill="#E24D4D"/>
</g>
<path d="M36.2343 34.3688C36.1749 34.2302 35.969 34.1589 35.8423 34.0956C35.6403 34.0005 35.4423 33.9688 35.2285 34.056C35.0384 34.1352 35.1335 34.3886 35.2998 34.4163C35.4582 34.444 35.6126 34.4163 35.775 34.4203C35.9096 34.4203 36.0641 34.4955 36.1908 34.4599C36.2304 34.448 36.2541 34.4084 36.2343 34.3688Z" fill="#CC6144"/>
<path d="M37.3152 34.3411C37.4142 34.357 37.537 34.2501 37.6241 34.2105C37.7508 34.155 37.8815 34.159 37.9448 34.0204C37.9686 33.9689 37.9448 33.9016 37.8973 33.8739C37.7587 33.7868 37.632 33.8897 37.5172 33.9768C37.43 34.0402 37.2637 34.159 37.2598 34.2738C37.2598 34.3095 37.2835 34.3332 37.3152 34.3411Z" fill="#CC6144"/>
<path d="M40.7566 35.3076C38.1707 36.8164 35.2958 37.3826 32.3575 36.6223C32.2942 36.6065 32.2665 36.7015 32.3298 36.7213C35.1414 37.4499 38.3925 37.0817 40.7764 35.3433C40.7962 35.3274 40.7764 35.2997 40.7566 35.3116V35.3076Z" fill="#A8332D"/>
<path d="M32.3491 36.4946C32.3095 36.5382 32.2699 36.5817 32.2343 36.6293C32.1868 36.6887 32.1828 36.7441 32.2026 36.8154C32.2185 36.8669 32.2937 36.8946 32.3293 36.8471C32.3689 36.7995 32.3927 36.7679 32.4085 36.7045C32.4204 36.653 32.4363 36.6055 32.4561 36.558C32.4798 36.4946 32.3927 36.4511 32.3491 36.4946Z" fill="#A8332D"/>
<path d="M40.6021 35.2686C40.6021 35.3557 40.6733 35.427 40.7565 35.4468C40.8634 35.4705 40.9149 35.3359 40.8278 35.2725C40.7882 35.2408 40.7486 35.2131 40.701 35.1933C40.6535 35.1735 40.6021 35.225 40.6021 35.2686Z" fill="#A8332D"/>
<path d="M33.3082 36.8679C34.3378 37.4262 35.5693 37.1451 36.6741 36.9985C37.8898 36.8402 38.8996 36.3966 39.9767 35.8462C40.0084 35.8304 39.9846 35.7749 39.9529 35.7868C37.8383 36.5313 35.4822 36.2818 33.3121 36.8402C33.3003 36.8402 33.3003 36.86 33.3121 36.8639L33.3082 36.8679Z" fill="#A8332D"/>
<path d="M32.8128 28.1595C32.8128 28.1595 32.3178 26.0053 29.922 25.2569C27.5263 24.5045 25.772 26.5716 27.3283 27.6368C28.8885 28.702 32.8128 28.1595 32.8128 28.1595Z" fill="#3F1D2B"/>
<path d="M27.3401 27.4196C27.2767 27.7879 27.4985 30.0807 29.6091 30.4885C31.7237 30.8964 32.7256 29.4867 32.8325 28.5323C32.9434 27.578 31.6445 26.0891 30.4526 25.8237C29.2646 25.5584 27.542 26.2475 27.3361 27.4196H27.3401Z" fill="#F9F7ED"/>
<path d="M30.4569 25.8193C29.3006 25.5619 27.6493 26.2034 27.3682 27.3162C27.9859 27.1102 28.6235 27.0033 29.2848 26.9598C30.4292 26.8964 31.5538 27.0231 32.5082 27.6963C32.5874 27.7517 32.6586 27.8151 32.7339 27.8785C32.4092 27.0073 31.3994 26.0292 30.4569 25.8193Z" fill="#E8E5DD"/>
<path d="M32.0369 28.1593C32.0369 29.1176 31.2607 29.8977 30.2985 29.8977C29.3362 29.8977 28.5601 29.1176 28.5601 28.1593C28.5601 27.201 29.3362 26.4209 30.2985 26.4209C31.2607 26.4209 32.0369 27.197 32.0369 28.1593Z" fill="#725F28"/>
<path d="M30.5795 27.0752C30.9755 27.1188 31.4111 27.1623 31.8031 27.297C31.5022 26.7782 30.9438 26.4258 30.2984 26.4258C29.74 26.4258 29.245 26.6911 28.9282 27.099C29.4707 27.0039 30.0449 27.0119 30.5795 27.0752Z" fill="#3D3F26"/>
<path d="M31.91 27.716C31.91 27.9417 31.7278 28.1239 31.5021 28.1239C31.2764 28.1239 31.0942 27.9417 31.0942 27.716C31.0942 27.4903 31.2764 27.3081 31.5021 27.3081C31.7278 27.3081 31.91 27.4903 31.91 27.716Z" fill="#A59568"/>
<path d="M38.7881 28.1595C38.7881 28.1595 39.2831 26.0053 41.6788 25.2569C44.0746 24.5045 45.8288 26.5716 44.2726 27.6368C42.7124 28.702 38.7881 28.1595 38.7881 28.1595Z" fill="#3F1D2B"/>
<path d="M44.2647 27.4196C44.3281 27.7879 44.1063 30.0807 41.9957 30.4885C39.8811 30.8964 38.8792 29.4867 38.7683 28.5323C38.6575 27.578 39.9603 26.0891 41.1483 25.8237C42.3402 25.5584 44.0588 26.2475 44.2647 27.4196Z" fill="#F9F7ED"/>
<path d="M41.1485 25.8193C42.3048 25.5619 43.9561 26.2034 44.2373 27.3162C43.6195 27.1102 42.982 27.0033 42.3207 26.9598C41.1763 26.8964 40.0516 27.0231 39.0973 27.6963C39.0181 27.7517 38.9468 27.8151 38.8716 27.8785C39.1963 27.0073 40.2061 26.0292 41.1485 25.8193Z" fill="#E8E5DD"/>
<path d="M39.5679 28.1593C39.5679 29.1176 40.344 29.8977 41.3063 29.8977C42.2685 29.8977 43.0447 29.1176 43.0447 28.1593C43.0447 27.201 42.2685 26.4209 41.3063 26.4209C40.344 26.4209 39.5679 27.197 39.5679 28.1593Z" fill="#725F28"/>
<path d="M41.0259 27.0752C40.6299 27.1188 40.1943 27.1623 39.8022 27.297C40.1032 26.7782 40.6616 26.4258 41.307 26.4258C41.8654 26.4258 42.3604 26.6911 42.6772 27.099C42.1346 27.0039 41.5605 27.0119 41.0259 27.0752Z" fill="#3D3F26"/>
<path d="M42.0713 27.716C42.0713 27.9417 42.2534 28.1239 42.4792 28.1239C42.7049 28.1239 42.887 27.9417 42.887 27.716C42.887 27.4903 42.7049 27.3081 42.4792 27.3081C42.2534 27.3081 42.0713 27.4903 42.0713 27.716Z" fill="#A59568"/>
<path d="M45.1515 22.7511C43.7299 20.9335 40.063 21.5552 38.6017 23.0006C38.4156 23.1867 38.6136 23.4362 38.8354 23.4005C39.7937 23.2619 40.6411 22.7115 41.5954 22.5095C42.625 22.2917 44.1734 22.1729 45.0327 22.8659C45.1158 22.9332 45.2148 22.8342 45.1475 22.7511H45.1515Z" fill="#3F1D2B"/>
<path d="M26.5678 22.8659C27.3954 22.2007 28.718 22.3195 29.7159 22.4581C30.793 22.6085 31.7038 23.2461 32.7651 23.4005C32.9868 23.4322 33.1848 23.1827 32.9987 23.0006C31.5415 21.5552 27.8706 20.9335 26.4529 22.7511C26.3856 22.8342 26.4846 22.9332 26.5678 22.8659Z" fill="#3F1D2B"/>
<path d="M36.9271 37.9558C36.7886 37.9162 36.6104 37.932 36.4955 38.0271C36.4401 38.0706 36.3926 38.1261 36.353 38.1815C36.3094 38.2488 36.3015 38.3201 36.2936 38.3993C36.2817 38.5339 36.452 38.6171 36.5589 38.5537C36.6024 38.53 36.646 38.5102 36.6816 38.4745C36.7133 38.4468 36.7371 38.4112 36.7727 38.3835C36.8123 38.3518 36.8519 38.2765 36.9232 38.2528C37.0578 38.2053 37.0776 38.0033 36.9232 37.9597L36.9271 37.9558Z" fill="#CC6144"/>
</svg>
