<svg width="160" height="160" viewBox="0 0 160 160" fill="none" xmlns="http://www.w3.org/2000/svg">
<path d="M0 10C0 4.47715 4.47715 0 10 0H150C155.523 0 160 4.47715 160 10V160H0V10Z" fill="#EDC9B4"/>
<path d="M51.3475 71.5441C50.599 72.0985 49.821 72.6488 48.9252 72.9059C48.0294 73.163 46.9823 73.0773 46.2847 72.46C45.2952 71.5856 45.3943 69.861 46.3222 68.9197C47.1926 68.0373 48.6588 67.815 49.7514 68.4001C50.8441 68.9853 51.4707 70.3283 51.219 71.5428" fill="#8B3F3F"/>
<path d="M45.0433 65.2404C44.2948 65.7948 43.5168 66.3451 42.621 66.6022C41.7252 66.8593 40.6781 66.7736 39.9805 66.1563C38.991 65.2819 39.0901 63.5573 40.018 62.616C40.8884 61.7335 42.3546 61.5113 43.4472 62.0964C44.5399 62.6816 45.1665 64.0246 44.9148 65.2391" fill="#8B3F3F"/>
<path d="M63.2526 47.39C61.4771 46.9052 59.648 46.4178 57.8189 46.6294C55.9041 46.8503 54.1527 47.8238 52.2553 48.1653C51.002 48.3915 49.7031 48.3393 48.4739 48.6714C47.2447 49.0035 46.0289 49.8685 45.8254 51.1245C45.5857 52.6068 46.8243 53.923 48.1271 54.6688C50.5708 56.0681 53.4979 56.3881 56.3098 56.2315C59.1218 56.0748 61.8895 55.4776 64.688 55.167C67.279 54.8791 69.8981 54.8389 72.4972 55.0464C73.2135 55.104 73.9433 55.179 74.6409 55.0116C75.3399 54.8456 76.0148 54.385 76.2236 53.6981C77.0284 51.0401 73.6822 50.2327 71.9924 49.7721C69.0787 48.978 66.165 48.184 63.2513 47.39H63.2526Z" fill="#E5805C"/>
<path d="M55.8142 55.3008C53.9744 55.3758 52.0837 55.4629 50.4046 56.2167C48.6465 57.0067 47.27 58.4636 45.5654 59.3621C44.4393 59.9566 43.1846 60.298 42.1148 60.9876C41.0436 61.6759 40.1451 62.8676 40.3312 64.1263C40.5508 65.6112 42.1295 66.4923 43.5971 66.8097C46.3501 67.4055 49.237 66.8244 51.8695 65.8268C54.502 64.8279 56.9604 63.422 59.534 62.2798C61.9174 61.2233 64.4013 60.3931 66.9414 59.8053C67.6404 59.6433 68.3594 59.4946 68.9754 59.1251C69.5913 58.7555 70.0961 58.1128 70.0868 57.3937C70.0506 54.6166 66.6174 54.859 64.8673 54.9299C61.8505 55.0531 58.8324 55.1763 55.8156 55.2995L55.8142 55.3008Z" fill="#E5805C"/>
<path d="M61.927 62.1392C60.0872 62.2142 58.1965 62.3012 56.5174 63.0551C54.7593 63.8451 53.3828 65.302 51.6782 66.2004C50.5521 66.795 49.2974 67.1364 48.2276 67.826C47.1564 68.5143 46.2579 69.706 46.444 70.9647C46.6636 72.4496 48.2423 73.3307 49.7099 73.648C52.4629 74.2439 55.3498 73.6628 57.9823 72.6652C60.6148 71.6663 63.0732 70.2603 65.6468 69.1182C68.0302 68.0617 70.5141 67.2315 73.0542 66.6437C73.7532 66.4816 74.4722 66.333 75.0882 65.9634C75.7041 65.5939 76.2089 64.9511 76.1996 64.2321C76.1634 61.455 72.7302 61.6973 70.9801 61.7683C67.9633 61.8915 64.9451 62.0147 61.9284 62.1379L61.927 62.1392Z" fill="#E5805C"/>
<g style="mix-blend-mode:multiply" opacity="0.45">
<path d="M70.9787 61.7697C67.9619 61.8929 64.9437 62.0161 61.9269 62.1393C61.1155 62.1728 60.2947 62.2076 59.4859 62.3027C59.502 62.296 59.5181 62.2879 59.5341 62.2812C61.9176 61.2248 64.4014 60.3946 66.9415 59.8067C67.6405 59.6447 68.3596 59.4961 68.9755 59.1265C69.5915 58.757 70.0963 58.1142 70.0869 57.3952C70.0507 54.6181 66.6175 54.8604 64.8674 54.9314C61.8506 55.0546 58.8325 55.1778 55.8157 55.301C53.9759 55.376 52.0852 55.463 50.4061 56.2169C48.6479 57.0069 47.2714 58.4637 45.5669 59.3622C44.4408 59.9567 43.1861 60.2982 42.1162 60.9878C41.045 61.676 40.1465 62.8677 40.3327 64.1264C40.5523 65.6114 42.131 66.4924 43.5985 66.8098C46.3515 67.4056 49.2384 66.8245 51.8709 65.827C52.2579 65.6797 52.6409 65.5243 53.0212 65.361C52.5887 65.6663 52.1468 65.9542 51.6808 66.2005C50.5547 66.7951 49.3 67.1365 48.2302 67.8261C47.159 68.5143 46.2605 69.7061 46.4466 70.9647C46.6662 72.4497 48.2449 73.3308 49.7125 73.6481C52.4655 74.244 55.3524 73.6629 57.9849 72.6653C60.6174 71.6664 63.0758 70.2604 65.6494 69.1182C68.0328 68.0618 70.5167 67.2316 73.0568 66.6438C73.7558 66.4817 74.4748 66.3331 75.0908 65.9635C75.7067 65.594 76.2115 64.9512 76.2022 64.2322C76.166 61.4551 72.7328 61.6974 70.9827 61.7684L70.9787 61.7697Z" fill="#F1C4C6"/>
</g>
<g style="mix-blend-mode:multiply" opacity="0.45">
<path d="M61.927 62.1392C60.0872 62.2142 58.1965 62.3012 56.5174 63.0551C54.7593 63.8451 53.3828 65.302 51.6782 66.2004C50.5521 66.795 49.2974 67.1364 48.2276 67.826C47.1564 68.5143 46.2579 69.706 46.444 70.9647C46.6636 72.4496 48.2423 73.3307 49.7099 73.648C52.4629 74.2439 55.3498 73.6628 57.9823 72.6652C60.6148 71.6663 63.0732 70.2603 65.6468 69.1182C68.0302 68.0617 70.5141 67.2315 73.0542 66.6437C73.7532 66.4816 74.4722 66.333 75.0882 65.9634C75.7041 65.5939 76.2089 64.9511 76.1996 64.2321C76.1634 61.455 72.7302 61.6973 70.9801 61.7683C67.9633 61.8915 64.9451 62.0147 61.9284 62.1379L61.927 62.1392Z" fill="#F1C4C6"/>
</g>
<path d="M55.4677 54.9892C55.5856 55.9466 55.9042 56.845 56.3541 57.6886C56.3997 57.777 56.4492 57.864 56.4988 57.9524C56.7384 58.3742 57.0103 58.7826 57.3089 59.1763C57.9824 60.0761 58.7764 60.9063 59.5865 61.6735C61.5254 63.5133 63.6772 65.234 64.9305 67.5933C66.6284 70.7869 66.5373 74.8641 67.5845 78.2465C68.0598 79.7797 68.7708 81.1682 69.9907 82.2662C70.2036 82.4604 70.4379 82.6438 70.6936 82.771C69.4457 83.5731 68.2446 84.4435 67.1252 85.4196C65.671 86.6836 64.3521 88.1525 63.3157 89.7794C62.7761 90.6217 62.3128 91.5067 61.9472 92.4266C61.5401 93.443 61.2509 94.5008 61.1036 95.5934C60.8639 97.3716 61.0086 99.1793 61.1866 100.967C61.3554 102.666 61.5509 104.361 61.7758 106.054C62.0677 108.251 62.4052 110.442 62.7935 112.626C63.5366 116.836 64.4552 121.013 65.5465 125.147C68.2968 135.579 72.1331 145.726 76.991 155.359C77.2896 155.951 77.6137 156.568 78.1667 156.935C78.8884 157.412 79.8271 157.359 80.684 157.247C82.4703 157.011 84.2284 156.584 85.9249 155.979C90.7708 154.258 95.1199 151.114 98.205 146.997C98.7232 146.305 99.216 145.571 99.449 144.739C100.011 142.737 98.9924 140.671 98.051 138.818C96.7053 136.166 95.456 133.437 94.4384 130.639C93.2051 127.257 92.3093 123.772 91.9907 120.19C91.3011 112.501 93.2841 104.853 95.2485 97.3877C96.6022 92.2486 97.9546 87.1067 99.3057 81.9663C99.8266 79.9845 100.353 77.9492 100.12 75.9126C99.8533 73.5988 98.6322 71.518 97.4043 69.5389C94.35 64.618 91.0734 59.8324 87.5866 55.2074C86.7417 54.088 85.862 52.9539 84.689 52.188C83.9767 51.7206 83.1813 51.4086 82.3672 51.1516C82.0471 51.0511 81.7244 50.9587 81.4017 50.8704C75.5261 49.2475 69.3252 48.3182 63.2219 48.4106C60.9081 48.4467 58.1216 49.3037 56.5845 51.1154C56.4733 51.2466 56.3675 51.3845 56.2698 51.5265C55.6271 52.4571 55.2963 53.6086 55.4677 54.9932V54.9892Z" fill="#E5805C"/>
<g style="mix-blend-mode:multiply" opacity="0.45">
<path d="M55.4677 54.989C55.5856 55.9464 55.9042 56.8449 56.3541 57.6885C57.1455 59.1801 58.3493 60.5004 59.5865 61.6734C61.5254 63.5132 63.6772 65.2338 64.9305 67.5931C66.6284 70.7867 66.5373 74.864 67.5845 78.2463C68.8512 79.58 69.9518 81.0435 70.7807 82.716C70.7807 82.7186 70.7847 82.724 70.786 82.7253C70.8008 82.7119 70.8155 82.6972 70.8302 82.6838C72.8508 80.7315 75.3748 79.3108 78.085 78.5771C78.5336 78.4552 78.9875 78.3535 79.4454 78.2691C79.6784 78.2276 79.9275 78.1821 80.0935 78.016C80.2596 77.8486 80.3051 77.5996 80.3412 77.3679C80.6572 75.3313 80.9732 73.2973 81.2919 71.262C81.4914 69.9819 81.6883 68.6644 81.4031 67.4003C80.905 65.1856 79.0076 63.4784 78.555 61.2542C78.4894 60.9396 78.4506 60.6048 78.2671 60.3384C77.9605 59.8938 77.3593 59.7907 76.8223 59.713C71.3859 58.9163 66.1142 56.9266 61.5107 53.9245C59.7191 52.7555 58.5354 51.3496 56.2698 51.5223C55.6271 52.4529 55.2963 53.6045 55.4677 54.989Z" fill="#F1C4C6"/>
</g>
<g style="mix-blend-mode:multiply" opacity="0.45">
<path d="M56.354 57.687C57.1454 59.1786 58.3491 60.4989 59.5864 61.6719C61.5253 63.5117 63.6771 65.2323 64.9304 67.5917C66.6283 70.7852 66.5372 74.8625 67.5843 78.2449C68.0597 79.778 68.7707 81.1666 69.9905 82.2646C70.2034 82.4587 70.4377 82.6422 70.6935 82.7694C69.4455 83.5715 68.2444 84.4418 67.125 85.418C65.6709 86.682 64.3519 88.1509 63.3155 89.7778C64.064 90.4701 64.9009 91.0405 65.865 91.3793C69.0586 92.5013 72.0713 87.7974 73.9781 85.73C75.8541 83.696 77.3457 81.2376 78.0862 78.5756C78.4584 77.2419 78.6419 75.8601 78.591 74.4514C78.5615 73.6186 78.429 72.7335 77.884 72.1028C77.5613 71.7279 77.1221 71.4762 76.7405 71.1628C74.8364 69.5922 74.586 66.6718 72.8158 64.9471C72.1262 64.2749 71.2519 63.8331 70.3895 63.4006C66.6765 61.5367 62.962 59.6754 59.249 57.8129C58.6718 57.5236 58.0532 57.2264 57.4078 57.288C57.0302 57.3228 56.6794 57.4821 56.354 57.687Z" fill="#F1C4C6"/>
</g>
<g style="mix-blend-mode:multiply" opacity="0.45">
<path d="M71.5383 73.1672C73.4544 76.496 76.1633 79.3642 77.6964 82.8858C78.9377 85.7379 79.3448 88.9475 78.8547 92.0192C73.8427 84.5944 67.2213 77.6542 65.8649 68.7993C65.6466 67.372 66.4782 61.1536 68.5269 64.4248C69.1977 65.496 69.1857 67.6465 69.6115 68.9011C70.1136 70.3821 70.759 71.8135 71.5396 73.1686L71.5383 73.1672Z" fill="#F1C4C6"/>
</g>
<g style="mix-blend-mode:multiply" opacity="0.45">
<path d="M70.1538 59.7079C69.8003 55.4779 68.4398 51.1168 65.2998 48.2593C63.3328 46.4704 60.2357 45.4206 58.0344 46.9096C56.4235 48.0009 55.821 50.083 55.6362 52.0206C54.9747 58.9366 58.1134 65.6156 61.5493 71.6532C62.2429 72.8731 62.9753 74.1103 64.0599 75.0007C65.1445 75.8912 66.667 76.3773 67.9805 75.8818C70.3011 75.0061 70.0145 71.8018 70.0667 69.8295C70.1538 66.4552 70.4363 63.0795 70.1538 59.7065V59.7079Z" fill="#F1C4C6"/>
</g>
<g style="mix-blend-mode:soft-light" opacity="0.41">
<path d="M63.3454 52.2594C63.3588 52.4107 63.3668 52.5714 63.2945 52.7053C63.1325 53.0052 62.6906 52.9891 62.376 52.8539C61.7065 52.566 61.2284 51.9688 60.8147 51.3689C60.3514 50.6967 59.935 49.9924 59.5681 49.2627C58.7392 47.617 59.8332 46.4735 61.2365 47.8058C62.4362 48.944 63.1914 50.6244 63.3441 52.2607L63.3454 52.2594Z" fill="white"/>
</g>
<g style="mix-blend-mode:soft-light" opacity="0.41">
<path d="M66.375 66.744C66.4379 66.7132 66.5035 66.6811 66.5678 66.6489C66.4995 66.669 66.4339 66.7012 66.375 66.744Z" fill="white"/>
</g>
<g style="mix-blend-mode:soft-light" opacity="0.41">
<path d="M82.3667 51.146C83.4888 52.0659 84.5145 53.0943 85.5268 54.1374C90.208 59.1265 94.2451 64.7209 97.5043 70.7371C98.3197 72.2435 99.1004 73.8262 99.2289 75.5361C99.3307 76.8912 99.0133 78.2383 98.6986 79.5585C96.7959 87.5457 94.8932 95.5316 92.9891 103.52C91.9835 107.738 90.9739 111.985 90.7596 116.317C90.5427 120.648 91.168 125.117 93.2596 128.915C93.5863 129.509 93.9853 130.094 94.4379 130.634C93.2047 127.252 92.3089 123.766 91.9902 120.184C91.3006 112.496 93.2837 104.847 95.248 97.3821C96.6018 92.243 97.9542 87.1012 99.3052 81.9607C99.8261 79.979 100.352 77.9437 100.119 75.907C99.8529 73.5932 98.6317 71.5124 97.4038 69.5333C94.3495 64.6125 91.073 59.8268 87.5862 55.2019C86.7413 54.0825 85.8615 52.9483 84.6885 52.1824C83.9762 51.7151 83.1808 51.4031 82.3667 51.146Z" fill="white"/>
</g>
<g style="mix-blend-mode:multiply" opacity="0.45">
<path d="M70.0198 34.6984C66.3549 30.9853 61.2104 28.8389 55.5598 29.2848C38.2062 30.4925 31.0679 55.6914 51.5749 65.1502C71.4405 72.3675 84.6927 47.6346 70.0198 34.6984Z" fill="#F1C4C6"/>
</g>
<path d="M69.2981 60.2983C76.3486 53.2478 76.3486 41.8167 69.2981 34.7662C62.2477 27.7157 50.8165 27.7157 43.766 34.7662C36.7156 41.8167 36.7156 53.2478 43.766 60.2983C50.8165 67.3488 62.2477 67.3488 69.2981 60.2983Z" fill="#FB8A2A"/>
<path d="M71.726 38.7977C75.9479 47.8307 72.0473 58.5763 63.0144 62.7982C62.2016 63.1785 61.3754 63.4918 60.5412 63.7422C59.9935 63.9069 59.4405 64.0448 58.8915 64.1546C56.0448 64.7237 53.1485 64.5817 50.4437 63.8131C49.7166 63.6069 49.0043 63.3552 48.3106 63.0593C47.3051 62.6348 46.3383 62.1193 45.4224 61.5141L45.0863 61.2851C43.8906 60.4589 42.7872 59.4841 41.8097 58.3701C41.803 58.3634 41.7963 58.3567 41.791 58.35C41.4335 57.9416 41.0947 57.5158 40.7747 57.0699C40.1038 56.1513 39.5147 55.1564 39.0139 54.0865C35.2553 46.0458 37.9333 36.6499 44.9363 31.7036C45.5563 31.2671 46.2097 30.8627 46.894 30.5012C47.1671 30.3579 47.4443 30.2173 47.7255 30.0861C48.7257 29.6188 49.7501 29.2505 50.7811 28.9774C51.3649 28.822 51.9528 28.7015 52.5419 28.6051C52.9838 28.5355 53.4217 28.4819 53.8622 28.4458C55.0445 28.3467 56.2269 28.3668 57.3878 28.4967C58.2448 28.5958 59.0924 28.7524 59.9226 28.972C62.6676 29.6857 65.2331 31.0448 67.3822 32.9569C67.9754 33.4858 68.5405 34.0589 69.068 34.6749C70.1138 35.892 71.0136 37.2712 71.726 38.7964V38.7977Z" fill="#FCB516"/>
<g style="mix-blend-mode:soft-light" opacity="0.41">
<path d="M46.8927 30.5004C45.314 38.8438 42.8328 52.5137 41.8085 58.3693C41.8018 58.3626 41.7951 58.3559 41.7897 58.3492C41.4322 57.9408 41.0935 57.515 40.7734 57.0691C41.838 50.694 44.0005 37.6828 44.9351 31.7015C45.5551 31.2649 46.2085 30.8606 46.8927 30.499V30.5004Z" fill="white"/>
</g>
<g style="mix-blend-mode:soft-light" opacity="0.41">
<path d="M45.4212 61.5132C47.2436 53.8634 51.4039 37.964 53.8623 28.4463C53.4218 28.4824 52.9839 28.5373 52.5421 28.6056C50.3541 38.0149 46.8539 53.4671 45.0864 61.2843L45.4225 61.5132H45.4212Z" fill="white"/>
</g>
<g style="mix-blend-mode:soft-light" opacity="0.41">
<path d="M59.9228 28.9719C56.9489 39.4966 52.3976 56.028 50.4426 63.8131C49.7155 63.6069 49.0032 63.3551 48.3096 63.0592C50.1748 55.8419 54.5681 38.9047 57.3881 28.4966C58.2451 28.5957 59.0926 28.7523 59.9228 28.9719Z" fill="white"/>
</g>
<g style="mix-blend-mode:soft-light" opacity="0.41">
<path d="M69.0663 34.6765C66.5034 43.3492 62.4716 57.0206 60.5408 63.7424C59.9931 63.9071 59.4401 64.045 58.8911 64.1548C60.1377 59.5446 64.3663 43.9116 67.3818 32.9585C67.975 33.4874 68.54 34.0605 69.0676 34.6765H69.0663Z" fill="white"/>
</g>
<path d="M69.3116 39.9253C72.9109 47.626 69.5861 56.7862 61.8854 60.3854C58.1724 62.1208 54.1165 62.2453 50.5119 61.0482C46.6421 59.7601 43.2892 56.9455 41.4253 52.9593C37.8274 45.2586 41.1522 36.0984 48.8528 32.4991C52.8404 30.6352 57.2176 30.6285 61.0124 32.1215C64.5447 33.5154 67.5763 36.2122 69.3116 39.9253Z" fill="#FB8A2A"/>
<g opacity="0.5">
<path d="M69.8308 40.3361C73.43 48.0367 70.1053 57.1969 62.4046 60.7962C58.6915 62.5316 54.6356 62.6561 51.031 61.459C47.4987 60.0651 44.4672 57.3683 42.7318 53.6552C39.1325 45.9546 42.4573 36.7944 50.158 33.1951C53.8711 31.4598 57.9269 31.3352 61.5316 32.5323C65.0639 33.9262 68.0954 36.623 69.8308 40.3361Z" fill="#FCF2B3"/>
</g>
<path d="M69.3116 39.9251C69.3531 40.0135 69.3946 40.1018 69.4321 40.1889C72.7288 47.599 69.6972 56.2731 62.5764 60.0384C62.3487 60.1603 62.1184 60.2754 61.8854 60.3839C60.5611 61.0025 59.19 61.4176 57.8135 61.6399C56.2736 61.8889 54.7217 61.8956 53.21 61.6814C52.7587 61.6184 52.3142 61.5341 51.8696 61.4283C51.4117 61.3225 50.9591 61.194 50.5118 61.0467C50.2963 60.961 50.0807 60.8726 49.8691 60.7749C48.9131 60.3491 47.9999 59.8228 47.1415 59.2042C45.0821 57.7192 43.3628 55.704 42.2113 53.2429C38.612 45.5422 41.9368 36.3821 49.6375 32.7828C51.8522 31.7477 54.1915 31.2844 56.4812 31.3353C57.5872 31.3608 58.6798 31.5027 59.747 31.7598C60.1728 31.8615 60.5946 31.9807 61.0097 32.12C61.4101 32.2793 61.8024 32.452 62.1867 32.6449C62.5201 32.8055 62.8442 32.981 63.1602 33.1698C64.4081 33.8968 65.5557 34.8074 66.5666 35.8799C67.6619 37.0408 68.5966 38.3973 69.3089 39.9237L69.3116 39.9251Z" fill="#F7CA4D"/>
<g style="mix-blend-mode:soft-light" opacity="0.41">
<path d="M50.7811 28.9789C49.343 29.8867 47.7215 30.5629 46.2526 31.4386C42.9492 33.411 40.3288 36.4974 38.9202 40.0766C37.5129 43.6545 37.3281 47.701 38.4046 51.3926C38.9751 53.3543 39.8842 55.1941 40.8979 56.9576C41.167 57.4222 41.4911 57.8828 41.791 58.3501C40.6957 57.0982 39.7557 55.6721 39.0139 54.0867C34.7906 45.0537 38.6912 34.3082 47.7242 30.0862C48.7244 29.6189 49.7488 29.2507 50.7798 28.9775L50.7811 28.9789Z" fill="white"/>
</g>
<g style="mix-blend-mode:soft-light" opacity="0.41">
<path d="M63.163 33.1714C60.3417 41.2001 55.8453 54.0252 53.2114 61.683C52.7602 61.6201 52.3156 61.5357 51.8711 61.4299C54.6254 53.6569 59.1768 40.86 62.1895 32.6465C62.5229 32.8072 62.847 32.9826 63.163 33.1714Z" fill="white"/>
</g>
<g style="mix-blend-mode:soft-light" opacity="0.41">
<path d="M59.7494 31.762C57.1222 39.5202 52.7879 52.2984 49.8701 60.7784C48.9141 60.3526 48.0009 59.8264 47.1426 59.2078C49.8353 51.1148 53.8792 38.998 56.4835 31.3389C57.5896 31.3643 58.6822 31.5062 59.7494 31.7633V31.762Z" fill="white"/>
</g>
<g style="mix-blend-mode:soft-light" opacity="0.41">
<path d="M69.3116 39.925C69.3531 40.0134 69.3946 40.1018 69.4321 40.1888C67.3687 46.1876 64.7844 53.6888 62.5763 60.0384C62.3487 60.1602 62.1184 60.2754 61.8854 60.3838C60.5611 61.0025 59.19 61.4176 57.8135 61.6398C60.4969 53.7437 63.9743 43.5069 66.5693 35.8799C67.6646 37.0408 68.5992 38.3972 69.3116 39.9237V39.925Z" fill="white"/>
</g>
<g style="mix-blend-mode:soft-light" opacity="0.41">
<path d="M50.1385 42.8197C49.7046 44.5122 49.2654 46.2074 48.8396 47.8705C48.7071 47.6093 48.5263 47.438 48.2933 47.3509C48.2773 47.3456 48.2612 47.3389 48.2451 47.3375C48.5705 45.9209 48.8959 44.4881 49.2199 43.0554C49.5319 42.9482 49.8385 42.8706 50.1385 42.8184V42.8197Z" fill="white"/>
</g>
<g style="mix-blend-mode:soft-light" opacity="0.41">
<path d="M52.6812 49.7991C52.7562 49.9598 52.8968 50.0643 53.099 50.1071C53.3012 50.15 53.51 50.1205 53.7243 50.0201C53.8876 49.9437 54.0363 49.8487 54.1688 49.7335C53.8408 50.9386 53.5207 52.1277 53.2088 53.2792L50.52 54.5366C51.3756 51.2426 52.3384 47.5442 53.3132 43.8218C53.4043 43.9463 53.4819 44.0789 53.5489 44.2208C54.0229 45.2344 53.8354 46.6645 52.9878 48.5083C52.6852 49.1591 52.5821 49.5902 52.6798 49.7991H52.6812Z" fill="white"/>
</g>
<g style="mix-blend-mode:soft-light" opacity="0.41">
<path d="M56.9752 39.5137C56.694 40.5273 56.4115 41.5517 56.1276 42.5787C56.1062 42.3109 56.0874 42.0457 56.074 41.7806C56.0245 40.9611 56.0325 40.4403 56.1035 40.2153C56.1731 39.9863 56.3847 39.7895 56.7382 39.6248L56.9739 39.515L56.9752 39.5137Z" fill="white"/>
</g>
<g style="mix-blend-mode:soft-light" opacity="0.41">
<path d="M66.5614 43.168C65.8933 45.4376 65.205 47.7742 64.5315 50.0652C64.0494 50.4054 63.5192 50.708 62.9394 50.9798C62.7573 51.0655 62.5779 51.1418 62.3984 51.2128C63.1697 48.362 63.9986 45.3198 64.818 42.3057C65.2612 42.4021 65.683 42.5708 66.0834 42.8118C66.2588 42.9163 66.4208 43.0368 66.5601 43.168H66.5614Z" fill="white"/>
</g>
<path d="M60.0079 53.8442C58.9795 54.5525 57.9016 55.1056 56.7742 55.5032C55.6467 55.9009 54.6438 56.1031 53.7654 56.1071L53.128 52.686C53.9368 52.6578 54.7898 52.5065 55.6856 52.2334C56.5814 51.9602 57.3941 51.5719 58.1239 51.0698C58.614 50.7323 58.9782 50.415 59.2152 50.1204C59.4522 49.8245 59.5888 49.5553 59.6223 49.3103C59.6571 49.0666 59.6048 48.843 59.4643 48.6395C59.2661 48.3529 58.9782 48.2163 58.6006 48.2297C58.2216 48.2431 57.7865 48.3409 57.2937 48.5216C56.801 48.7024 56.264 48.914 55.6815 49.1563C55.0991 49.3987 54.4965 49.6116 53.8725 49.7937C53.2486 49.9771 52.6353 50.0776 52.0314 50.0963C51.4275 50.1151 50.8437 49.9972 50.28 49.7415C49.7162 49.4857 49.2034 49.0238 48.7428 48.3543C48.2232 47.6004 47.9608 46.7769 47.9528 45.8838C47.9461 44.9893 48.2259 44.0734 48.7963 43.1348C49.3668 42.1961 50.2666 41.3017 51.4985 40.4541C52.3233 39.8863 53.1977 39.4204 54.1203 39.0575C55.0428 38.696 55.9386 38.479 56.8077 38.4094L57.5294 41.7998C56.7086 41.8895 55.9507 42.0542 55.2531 42.2966C54.5554 42.5389 53.9328 42.8496 53.3825 43.2285C52.8924 43.5659 52.5322 43.8886 52.3032 44.1966C52.0742 44.5046 51.9524 44.7871 51.935 45.0456C51.9189 45.304 51.9845 45.5396 52.1332 45.7552C52.3233 46.0311 52.6018 46.1596 52.97 46.1449C53.3383 46.1288 53.7694 46.0257 54.2635 45.8356C54.7576 45.6454 55.2959 45.4285 55.8784 45.1861C56.4608 44.9438 57.0607 44.7282 57.6807 44.5394C58.2993 44.3506 58.9112 44.2475 59.5151 44.2274C60.119 44.2087 60.7002 44.3278 61.2572 44.5876C61.8156 44.8474 62.3204 45.3053 62.773 45.9628C63.2751 46.6925 63.5322 47.5067 63.5442 48.4065C63.5563 49.3063 63.2791 50.2235 62.7154 51.1581C62.1517 52.0928 61.2478 52.9886 60.0039 53.8455L60.0079 53.8442ZM60.5636 56.2651L48.9517 39.4056L51.1035 37.9233L62.7154 54.7829L60.5636 56.2651Z" fill="#FB8A2A"/>
<path d="M59.2047 53.8442C58.1763 54.5525 57.0984 55.1056 55.971 55.5032C54.8435 55.9009 53.8406 56.1031 52.9622 56.1071L52.3248 52.686C53.1336 52.6578 53.9865 52.5065 54.8823 52.2334C55.7781 51.9602 56.5909 51.5719 57.3207 51.0698C57.8108 50.7323 58.175 50.415 58.412 50.1204C58.649 49.8245 58.7856 49.5553 58.819 49.3103C58.8538 49.0666 58.8016 48.843 58.661 48.6395C58.4629 48.3529 58.175 48.2163 57.7974 48.2297C57.4184 48.2431 56.9832 48.3409 56.4905 48.5216C55.9977 48.7024 55.4608 48.914 54.8783 49.1563C54.2958 49.3987 53.6933 49.6116 53.0693 49.7937C52.4453 49.9771 51.8321 50.0776 51.2282 50.0963C50.6243 50.1151 50.0405 49.9972 49.4767 49.7415C48.913 49.4857 48.4002 49.0238 47.9395 48.3543C47.42 47.6004 47.1576 46.7769 47.1495 45.8838C47.1428 44.9893 47.4227 44.0734 47.9931 43.1348C48.5635 42.1961 49.4633 41.3017 50.6952 40.4541C51.5201 39.8863 52.3944 39.4204 53.317 39.0575C54.2396 38.696 55.1354 38.479 56.0044 38.4094L56.7262 41.7998C55.9053 41.8895 55.1475 42.0542 54.4498 42.2966C53.7522 42.5389 53.1296 42.8496 52.5792 43.2285C52.0892 43.5659 51.729 43.8886 51.5 44.1966C51.271 44.5046 51.1492 44.7871 51.1318 45.0456C51.1157 45.304 51.1813 45.5396 51.3299 45.7552C51.5201 46.0311 51.7986 46.1596 52.1668 46.1449C52.535 46.1288 52.9662 46.0257 53.4603 45.8356C53.9544 45.6454 54.4927 45.4285 55.0752 45.1861C55.6576 44.9438 56.2575 44.7282 56.8775 44.5394C57.4961 44.3506 58.108 44.2475 58.7119 44.2274C59.3158 44.2087 59.8969 44.3278 60.454 44.5876C61.0123 44.8474 61.5171 45.3053 61.9697 45.9628C62.4719 46.6925 62.729 47.5067 62.741 48.4065C62.7531 49.3063 62.4759 50.2235 61.9122 51.1581C61.3484 52.0928 60.4446 52.9886 59.2007 53.8455L59.2047 53.8442ZM59.7604 56.2651L48.1484 39.4056L50.3002 37.9233L61.9122 54.7829L59.7604 56.2651Z" fill="#FCB516"/>
<path d="M56.6901 53.8924C56.5228 54.7119 56.4665 55.5688 56.4625 56.391C56.4612 56.9132 56.4732 57.4341 56.5 57.9523C56.7919 64.1104 58.8593 70.0877 59.9105 76.191C60.6175 80.2843 60.8652 84.454 60.6509 88.6023C60.5371 90.8036 60.2948 92.9969 60.2573 95.2009C60.1823 99.704 60.9696 104.16 61.9016 108.575C62.0917 109.479 62.2899 110.38 62.4867 111.282C62.5845 111.728 62.6836 112.178 62.7934 112.626C63.0679 113.76 63.4053 114.878 63.9516 115.906C65.6455 119.096 69.4255 121.043 73.0087 120.57C78.8696 119.795 80.5607 114.285 81.8422 109.38C83.3258 103.7 83.461 97.5402 81.3655 91.9913C79.8725 88.0372 77.3498 84.5826 75.0868 80.9954C73.8134 78.9855 72.6231 76.9314 71.742 74.7274C69.7094 69.6445 69.4389 64.0595 68.4413 58.6753C67.9727 56.1406 67.2737 53.5134 65.4982 51.6455C65.1058 51.2318 64.6466 50.8729 64.1444 50.5797C62.3823 49.5446 60.114 49.3424 58.5313 50.5743C57.4962 51.379 56.9539 52.5882 56.6888 53.8937L56.6901 53.8924Z" fill="#E5805C"/>
<path d="M59.7576 57.5169C59.5019 57.4419 59.2408 57.3522 59.0386 57.1767C58.8083 56.9759 58.6811 56.6826 58.5659 56.3988C57.9152 54.7826 57.4452 53.0941 57.168 51.3735C56.9537 50.0478 56.8667 48.6271 57.4626 47.4234C58.0571 46.2196 59.5447 45.3693 60.7793 45.8969C61.647 46.2691 62.1451 47.1716 62.5548 48.0219C62.9673 48.8775 63.3582 49.7425 63.7251 50.6196C65.2918 54.3528 65.2396 59.1317 59.7576 57.5169Z" fill="#D94862"/>
<g style="mix-blend-mode:multiply" opacity="0.45">
<path d="M55.4672 54.9886C55.5851 55.946 55.9038 56.8445 56.3537 57.6881C56.3992 57.7765 56.4487 57.8635 56.4983 57.9519C56.7902 64.11 58.8576 70.0873 59.9087 76.1906C60.6157 80.2839 60.8635 84.4536 60.6492 88.6019C60.5354 90.8032 60.293 92.9965 60.2555 95.2005C60.1806 99.7036 60.9679 104.16 61.8999 108.575C61.8436 107.734 61.8021 106.894 61.774 106.053C61.7459 105.261 61.7298 104.469 61.7231 103.682C61.6883 99.934 61.8329 96.1794 61.9454 92.4274C62.1195 86.6054 62.2092 80.7928 61.4218 75.0323C61.1433 72.9917 60.7537 70.9697 60.3653 68.9465C61.1688 69.138 62.0739 68.7952 62.5479 68.119C61.8021 68.5408 60.7309 68.1859 60.3801 67.4053C61.2303 67.3732 62.0471 66.8871 62.4823 66.1587C60.1685 66.3769 58.642 63.8301 57.9457 61.6141C57.686 60.7879 57.4758 59.9778 57.3084 59.1771C56.9415 57.4176 56.7714 55.6903 56.6884 53.8933C56.6603 53.3108 56.6429 52.7203 56.6308 52.1178C56.6255 51.7951 56.6308 51.4402 56.584 51.1108C56.4728 51.2421 56.3671 51.38 56.2693 51.5219C55.6266 52.4525 55.2958 53.6041 55.4672 54.9886Z" fill="#F1C4C6"/>
</g>
<g style="mix-blend-mode:soft-light" opacity="0.41">
<path d="M64.1459 50.5775C64.5891 51.5202 65.6603 52.8645 65.9281 53.3841C66.8775 55.2051 67.6219 57.1788 67.6996 59.2275C67.78 61.2789 67.1198 63.4253 65.6161 64.8219C66.1437 64.9424 66.7221 64.4872 67.2109 64.7215C67.6246 64.917 67.6889 65.5236 67.4532 65.9186C67.2537 66.2507 66.9163 66.4662 66.5681 66.6457C66.856 66.5466 67.2042 66.6202 67.4639 66.7916C67.7853 67.0059 68.0022 67.342 68.1977 67.6754C69.6921 70.2128 70.4312 73.1131 71.5921 75.8206C72.4156 77.7381 73.5364 79.6368 75.087 80.9919C73.8135 78.982 72.6232 76.928 71.7421 74.7239C69.7095 69.641 69.439 64.056 68.4414 58.6718C67.9728 56.1371 67.2738 53.5099 65.4983 51.642C65.1059 51.2283 64.6467 50.8694 64.1445 50.5762L64.1459 50.5775Z" fill="white"/>
</g>
<path d="M99.1517 141.233C99.1517 141.233 101.731 150.265 100.177 159.287H78.0033C78.0033 159.287 78.1078 156.57 76.4487 154.271C74.7897 151.972 99.1517 141.232 99.1517 141.232V141.233Z" fill="#E5805C"/>
<g style="mix-blend-mode:multiply" opacity="0.45">
<path d="M65.5449 125.145C68.2953 135.577 72.1315 145.724 76.9895 155.357C77.6014 156.26 77.7353 157.197 77.8692 157.599C77.9585 158.313 78.0031 158.848 78.0031 159.206H87.1084C86.9223 158.725 85.5418 155.021 85.3409 154.556C82.7365 148.551 79.2055 142.949 74.9113 138.008C72.8827 135.675 70.6787 133.48 68.8657 130.978C67.5387 129.149 66.4447 127.192 65.5463 125.146L65.5449 125.145Z" fill="#F1C4C6"/>
</g>
</svg>
