<svg width="74" height="63" viewBox="0 0 74 63" fill="none" xmlns="http://www.w3.org/2000/svg">
<rect width="74" height="63" rx="10" fill="#EDC9B4"/>
<path fill-rule="evenodd" clip-rule="evenodd" d="M40.4685 12.6118C43.9709 11.1408 52.1705 14.2463 53.0655 27.1624C53.8244 38.0899 60.9109 41.0125 60.2027 48.7178C59.8719 52.337 58.2024 56.034 55.669 58.3728C50.9174 62.7664 42.352 64.7317 39.6396 59.9606C36.5302 54.4968 33.2769 15.6278 40.4685 12.6079V12.6118Z" fill="#440908"/>
<path fill-rule="evenodd" clip-rule="evenodd" d="M30.2766 12.6118C26.7741 11.1408 18.5746 14.2463 17.6795 27.1624C17.0919 35.6344 12.6983 39.6933 11.0833 44.7757C9.36324 50.1927 12.1613 60.0618 20.82 61.918C25.0307 62.8209 29.6422 63.8132 31.1016 59.9645C33.3314 54.0882 37.4643 15.6317 30.2727 12.6118H30.2766Z" fill="#440908"/>
<path fill-rule="evenodd" clip-rule="evenodd" d="M20.443 32.2761C20.3768 31.5522 17.4192 30.6961 16.4307 33.066C15.4423 35.4321 17.2207 38.7906 20.5753 39.0513" fill="#E4AE7C"/>
<path fill-rule="evenodd" clip-rule="evenodd" d="M17.812 34.79C17.812 34.8951 17.7264 34.9846 17.6174 34.9846C17.5085 34.9846 17.4229 34.899 17.4229 34.79C17.4229 34.109 17.5591 33.6576 17.777 33.393C17.9521 33.1789 18.1778 33.0777 18.4269 33.07C18.6565 33.0661 18.9055 33.1439 19.1507 33.284C19.7228 33.607 20.3143 34.288 20.6334 35.0235C20.8358 35.4827 20.9992 35.9692 21.042 36.2416C21.0576 36.3311 21.0576 36.4089 21.0459 36.4673V36.479C21.0109 36.6308 20.9214 36.7008 20.7657 36.6658C20.7034 36.6541 20.6412 36.6113 20.5711 36.5412C20.3104 36.2766 19.9952 36.1715 19.7461 36.1949C19.6566 36.2027 19.5788 36.2299 19.5165 36.2727C19.462 36.3116 19.4231 36.3661 19.4037 36.4362C19.357 36.5996 19.4076 36.8409 19.6216 37.1561C19.68 37.2456 19.6566 37.3663 19.5671 37.4246C19.4776 37.483 19.3609 37.4597 19.2986 37.374C19.0145 36.9499 18.9522 36.5918 19.034 36.3272C19.0807 36.1754 19.1702 36.0509 19.2947 35.9653C19.4114 35.8836 19.5554 35.8291 19.7111 35.8135C19.9874 35.7863 20.3143 35.868 20.6101 36.0743C20.54 35.8252 20.4194 35.4983 20.2793 35.1792C19.9874 34.5176 19.4659 33.9067 18.96 33.6187C18.7732 33.5136 18.5903 33.4513 18.4347 33.4552C18.2985 33.4552 18.1739 33.5136 18.0766 33.6342C17.9132 33.8366 17.812 34.2024 17.812 34.79Z" fill="#D67F54"/>
<path fill-rule="evenodd" clip-rule="evenodd" d="M57.891 38.3469C59.6578 41.4096 61.0627 44.2037 60.2299 48.4338C59.4749 47.0796 58.0934 44.4761 54.4587 43.8612C32.623 40.1798 55.1047 13.433 28.5953 18.8423C28.5953 18.8423 28.1828 15.0597 29.2529 12.0904C31.3349 6.29587 37.9195 6.31144 42.5193 7.93034C49.8238 10.4988 52.0731 19.3716 53.5908 26.6527C54.7661 32.2838 55.0191 33.3696 57.891 38.3508V38.3469Z" fill="#72130D"/>
<path fill-rule="evenodd" clip-rule="evenodd" d="M30.0627 10.9737C27.5798 7.89159 17.5435 12.0984 16.6484 25.0145C15.8429 36.6425 7.45651 39.8181 10.7721 50.5744C12.2704 41.0556 18.7148 42.8029 23.9023 35.1521C28.5255 28.3301 33.2732 14.9587 30.0627 10.9698V10.9737Z" fill="#72130D"/>
<path fill-rule="evenodd" clip-rule="evenodd" d="M31.0744 12.7907C30.9927 12.8608 30.8721 12.853 30.802 12.7712C30.732 12.6895 30.7398 12.5689 30.8215 12.4988C31.5142 11.8956 32.8685 10.9617 34.5691 10.2573C36.2035 9.57627 38.161 9.10539 40.1691 9.32331C42.1849 9.54513 44.2474 10.4635 46.0765 12.565C47.0883 13.7286 48.03 15.258 48.8512 17.2349C50.9332 22.2394 51.1744 25.8742 51.3651 28.7034C51.6025 32.2836 51.7543 34.5446 55.5797 36.6655C55.6731 36.7161 55.7042 36.8329 55.6536 36.9263C55.603 37.0196 55.4863 37.0508 55.3929 37.0002C51.3846 34.7781 51.2289 32.4354 50.9799 28.7306C50.7931 25.9287 50.5518 22.3328 48.497 17.3828C47.6915 15.4448 46.7731 13.9504 45.7846 12.8141C44.0295 10.7943 42.0526 9.91483 40.1263 9.7008C38.1921 9.49065 36.2969 9.94986 34.7131 10.6075C33.0553 11.2963 31.7399 12.2031 31.0667 12.7868L31.0744 12.7907Z" fill="#992317"/>
<path fill-rule="evenodd" clip-rule="evenodd" d="M30.8992 15.1688C30.8058 15.2155 30.689 15.1766 30.6423 15.0832C30.5956 14.9898 30.6346 14.873 30.728 14.8263C38.7018 10.818 42.7646 13.1296 45.0139 17.5971C46.7729 21.0996 47.3956 25.9251 47.9248 30.0346C48.3607 33.4319 48.7343 36.3351 49.6216 37.5376C50.8824 39.246 52.6687 39.8297 54.4821 40.4212C55.9142 40.8882 57.3697 41.363 58.6306 42.3942C58.7123 42.4604 58.7239 42.581 58.6578 42.6667C58.5916 42.7484 58.471 42.7601 58.3854 42.6939C57.179 41.7093 55.7586 41.2462 54.3615 40.787C52.4896 40.176 50.645 39.5767 49.3102 37.7633C48.3646 36.4791 47.9832 33.5292 47.5396 30.0813C47.0142 25.999 46.3993 21.2085 44.6676 17.7645C42.5194 13.4876 38.6084 11.2889 30.8992 15.1649V15.1688Z" fill="#992317"/>
<path fill-rule="evenodd" clip-rule="evenodd" d="M30.8138 14.8027C30.9189 14.8027 31.0084 14.8845 31.0084 14.9934C31.0084 15.0985 30.9267 15.188 30.8177 15.188C27.0195 15.2464 25.8131 18.8967 24.4433 23.0451C24.0269 24.3021 23.5988 25.6019 23.0735 26.8783C22.2718 28.8202 21.2094 30.5675 19.7812 32.1825C18.353 33.7936 16.559 35.2646 14.2902 36.6578C14.2007 36.7123 14.08 36.6851 14.0256 36.5917C13.9711 36.5022 13.9983 36.3815 14.0878 36.327C16.3216 34.9533 18.0884 33.5056 19.4893 31.9257C20.8903 30.3457 21.9294 28.6334 22.7155 26.7304C23.2291 25.4812 23.6611 24.1814 24.0736 22.9244C25.4901 18.6398 26.7354 14.865 30.8099 14.8027H30.8138Z" fill="#992317"/>
<path fill-rule="evenodd" clip-rule="evenodd" d="M30.8139 12.3508C30.9189 12.3702 30.989 12.4675 30.9695 12.5726C30.9501 12.6777 30.8528 12.7477 30.7477 12.7283C25.1205 11.7593 23.56 15.1955 20.5868 21.7489C20.2677 22.4572 19.8824 23.1032 19.431 23.7297C18.9835 24.3524 18.4698 24.9517 17.8899 25.5705C17.816 25.6483 17.6954 25.6522 17.6175 25.5782C17.5397 25.5043 17.5358 25.3837 17.6097 25.3058C18.1779 24.6987 18.6838 24.1111 19.1197 23.504C19.5555 22.9008 19.9252 22.2743 20.2366 21.5933C23.2914 14.857 24.8948 11.3273 30.8139 12.3508Z" fill="#992317"/>
<path d="M38.881 39.1328C38.881 39.1328 38.2778 46.3789 38.3906 47.3907C38.4996 48.4025 47.6798 52.154 49.4232 53.4188C51.1667 54.6835 51.2172 58.8397 50.6607 62.385H19.8161C19.2596 58.8397 19.3102 54.6835 21.0537 53.4188C22.7971 52.154 31.9773 48.4025 32.0863 47.3907C32.1952 46.3789 31.592 39.1328 31.592 39.1328H38.881Z" fill="#E5805C"/>
<path d="M38.8807 39.1328H31.5918C31.5918 39.1328 31.9109 42.9777 32.0432 45.4566C34.2225 45.2971 36.394 44.9157 38.4993 44.2775C38.6472 41.9192 38.8807 39.1328 38.8807 39.1328Z" fill="#CC6144"/>
<path d="M35.2385 62.9962H51.7505C51.7505 62.9962 51.2679 53.777 50.6608 53.3178C50.0537 52.8586 41.7452 48.9087 41.7452 48.9087C41.7452 48.9087 39.6282 50.7572 35.2385 50.7572C30.8488 50.7572 28.7318 48.9087 28.7318 48.9087C28.7318 48.9087 20.4233 52.8625 19.8162 53.3178C19.2091 53.7732 18.7266 62.9962 18.7266 62.9962H35.2385Z" fill="#FFECE3"/>
<path d="M35.1179 54.0806C37.7797 52.4851 40.5583 51.0413 43.3563 49.6831C42.399 49.2239 41.7452 48.9126 41.7452 48.9126C41.7452 48.9126 39.6282 50.7611 35.2385 50.7611C30.8488 50.7611 28.7318 48.9126 28.7318 48.9126C28.7318 48.9126 20.4233 52.8664 19.8162 53.3218C19.2091 53.7771 18.7266 63.0001 18.7266 63.0001H25.2449C27.9535 59.4782 31.2185 56.4623 35.114 54.0845L35.1179 54.0806Z" fill="#F9F7ED"/>
<path d="M44.8391 29.9948C44.8391 29.9948 46.89 27.5937 48.8124 29.1814C50.7426 30.7731 49.5596 36.4781 43.9985 36.2369L44.8391 29.9948Z" fill="#E5805C"/>
<path d="M45.5087 34.7229C45.8161 35.3105 47.4584 35.1237 48.3612 33.4465C49.2641 31.7731 48.9333 30.0997 48.4897 30.2943C48.046 30.4889 44.7732 33.3064 45.5126 34.719L45.5087 34.7229Z" fill="#D87350"/>
<path d="M48.6181 30.3684L48.5908 30.2905H48.5208L48.4858 30.2983C46.754 30.9521 45.5009 32.571 45.1312 34.6296C45.1196 34.688 45.1351 34.7464 45.174 34.7931C45.213 34.8398 45.2713 34.867 45.3297 34.867C45.4153 34.867 45.4854 34.8125 45.5087 34.723C45.5126 34.7075 45.5165 34.6919 45.5204 34.6763C45.75 34.8009 46.0029 34.867 46.2598 34.867C46.8319 34.867 47.4701 34.5207 47.5985 33.7424C47.6841 33.217 47.4312 32.785 46.9797 32.6955C46.7073 32.641 46.4193 32.7656 46.1742 32.9407C46.7385 31.8744 47.5401 31.0494 48.5675 30.4812C48.6064 30.4579 48.6298 30.4112 48.6181 30.3684ZM47.1354 33.8747C46.9719 34.2599 46.6295 34.4895 46.2131 34.4895C46.0068 34.4895 45.8045 34.4351 45.6177 34.33C45.7111 34.0187 45.8162 33.7229 45.9368 33.4388C46.1586 33.2676 46.3999 33.0964 46.6879 33.0146C46.8902 32.9563 47.0381 32.9913 47.1237 33.1275C47.2483 33.3182 47.2288 33.6567 47.1393 33.8786L47.1354 33.8747Z" fill="#CC6144"/>
<path d="M47.5438 29.174C47.0768 28.9794 46.1701 29.2908 46.2051 29.8862C46.2129 30.0302 46.3413 30.143 46.4892 30.1002C46.9017 29.9874 47.1352 29.5359 47.5438 29.4075C47.6683 29.3686 47.6528 29.2168 47.5438 29.1701V29.174Z" fill="#F48462"/>
<path d="M25.6381 29.9948C25.6381 29.9948 23.5872 27.5937 21.6648 29.1814C19.7346 30.7731 20.9176 36.4781 26.4787 36.2369L25.6381 29.9948Z" fill="#E5805C"/>
<path d="M21.8479 30.4502C21.233 30.4035 21.8206 33.9681 23.2138 34.8671C24.607 35.7699 25.3697 35.6571 25.1713 34.4935C24.9728 33.3299 23.0854 30.5397 21.8479 30.4502Z" fill="#D87350"/>
<path d="M21.9916 30.2983L21.9566 30.2905C21.9099 30.2905 21.871 30.3217 21.8593 30.3684L21.8477 30.4501L21.906 30.4812C22.9334 31.0494 23.739 31.8744 24.2993 32.9407C24.0581 32.7656 23.7662 32.641 23.4938 32.6955C23.0424 32.785 22.7855 33.217 22.875 33.7424C23.0035 34.5207 23.6378 34.867 24.2137 34.867C24.4745 34.867 24.7274 34.8009 24.9531 34.6763C24.957 34.6919 24.9609 34.7075 24.9648 34.723C24.9843 34.8086 25.0582 34.867 25.1438 34.867C25.2022 34.867 25.2606 34.8398 25.2995 34.7931C25.3384 34.7464 25.3501 34.6919 25.3423 34.6296C24.9726 32.571 23.7156 30.9521 21.9878 30.2983H21.9916ZM24.2643 34.4895C23.8479 34.4895 23.5016 34.2599 23.342 33.8747C23.2486 33.6567 23.2292 33.3143 23.3576 33.1236C23.4199 33.0302 23.5055 32.9874 23.6222 32.9874C23.6728 32.9874 23.7312 32.9952 23.7934 33.0146C24.0775 33.0964 24.3227 33.2676 24.5445 33.4388C24.6652 33.719 24.7741 34.0187 24.8636 34.33C24.6768 34.4351 24.4706 34.4895 24.2682 34.4895H24.2643Z" fill="#CC6144"/>
<path d="M35.2385 14.8379C34.4369 14.8379 26.716 16.9977 25.996 20.9983C25.2761 24.9988 24.1553 30.4781 25.7976 35.1597C27.4359 39.8413 34.1177 42.3902 35.2385 42.3902C36.3593 42.3902 43.0411 39.8413 44.6795 35.1597C46.3178 30.4781 45.2009 24.9988 44.481 20.9983C43.7611 16.9977 36.0402 14.8379 35.2385 14.8379Z" fill="#E5805C"/>
<path d="M27.8718 30.8244C27.7862 25.275 29.3973 20.1459 32.1758 15.7251C29.6502 16.7097 26.4474 18.492 25.996 21.0021C25.2761 25.0026 24.1553 30.4819 25.7976 35.1635C27.3036 39.4637 33.0631 41.9621 34.8571 42.3396C34.6003 42.1917 34.3473 42.036 34.1022 41.8687C30.4558 39.3859 27.9729 35.2842 27.8718 30.8244Z" fill="#CC6144"/>
<path d="M36.8925 27.4542C36.336 28.8708 35.8807 30.7854 36.4761 32.2564C36.5695 32.486 36.9353 32.5444 37.0054 32.2564C37.1922 31.4976 37.0482 30.7426 36.9937 29.9682C36.9353 29.1354 36.9081 28.2948 36.9782 27.462C36.982 27.4114 36.9081 27.4075 36.8925 27.4503V27.4542Z" fill="#F48462"/>
<path d="M45.4852 30.1748C45.2595 31.5679 44.9131 32.9028 44.4306 34.2298C43.8858 35.7319 42.9635 36.9305 42.1812 38.2965C42.1151 38.4132 42.2591 38.5845 42.3758 38.4911C44.8275 36.6231 45.3762 33.0351 45.5085 30.1748C45.5085 30.1592 45.4852 30.1592 45.4852 30.1748Z" fill="#F48462"/>
<path d="M31.8799 30.5207C31.0783 31.1511 29.9769 31.3963 28.9807 31.1706C27.9455 30.9371 27.4747 29.8942 27.0232 29.0653C26.9999 29.0225 26.9259 29.0419 26.9298 29.0886C27.0193 30.3728 27.5758 31.299 28.8328 31.7037C29.8913 32.0423 31.3195 31.4469 31.8994 30.5363C31.9072 30.5246 31.8916 30.5129 31.8799 30.5207Z" fill="#CC6144"/>
<path d="M38.5928 30.5207C39.3945 31.1511 40.4958 31.3963 41.4921 31.1706C42.5272 30.9371 42.9981 29.8942 43.4495 29.0653C43.4729 29.0225 43.5468 29.0419 43.5429 29.0886C43.4495 30.3728 42.893 31.299 41.6399 31.7037C40.5814 32.0423 39.1532 31.4469 38.5734 30.5363C38.5656 30.5246 38.5812 30.5129 38.5928 30.5207Z" fill="#CC6144"/>
<g style="mix-blend-mode:multiply" opacity="0.4">
<path d="M45.057 31.49C45.3566 32.5952 44.232 33.8639 42.5391 34.327C40.8463 34.7862 39.2313 34.2647 38.9316 33.1595C38.632 32.0543 39.7566 30.7856 41.4495 30.3264C43.1423 29.8672 44.7573 30.3887 45.057 31.4939V31.49Z" fill="#E24D4D"/>
</g>
<g style="mix-blend-mode:multiply" opacity="0.4">
<path d="M25.4199 31.49C25.1164 32.5952 26.245 33.8639 27.9378 34.327C29.6267 34.7862 31.2456 34.2647 31.5453 33.1595C31.8449 32.0543 30.7203 30.7856 29.0274 30.3264C27.3346 29.8672 25.7196 30.3887 25.4199 31.4939V31.49Z" fill="#E24D4D"/>
</g>
<path d="M35.659 35.1906C35.6006 35.0544 35.3983 34.9844 35.2737 34.9221C35.0753 34.8287 34.8807 34.7976 34.6705 34.8832C34.4838 34.961 34.5771 35.2101 34.7406 35.2373C34.8963 35.2646 35.048 35.2373 35.2076 35.2412C35.3399 35.2412 35.4917 35.3152 35.6162 35.2801C35.6551 35.2685 35.6785 35.2296 35.659 35.1906Z" fill="#CC6144"/>
<path d="M36.7249 35.1636C36.8222 35.1791 36.9428 35.0741 37.0284 35.0351C37.153 34.9807 37.2814 34.9845 37.3437 34.8483C37.367 34.7978 37.3437 34.7316 37.297 34.7044C37.1607 34.6187 37.0362 34.7199 36.9234 34.8055C36.8377 34.8678 36.6743 34.9845 36.6704 35.0974C36.6704 35.1324 36.6938 35.1558 36.7249 35.1636Z" fill="#CC6144"/>
<path d="M40.107 36.1133C37.5658 37.596 34.7406 38.1525 31.853 37.4053C31.7907 37.3897 31.7635 37.4831 31.8258 37.5026C34.5888 38.2186 37.7838 37.8567 40.1265 36.1483C40.146 36.1327 40.1265 36.1055 40.107 36.1172V36.1133Z" fill="#A8332D"/>
<path d="M31.845 37.2805C31.806 37.3233 31.7671 37.3661 31.7321 37.4128C31.6854 37.4711 31.6815 37.5256 31.701 37.5957C31.7165 37.6463 31.7905 37.6735 31.8255 37.6268C31.8644 37.5801 31.8878 37.549 31.9033 37.4867C31.915 37.4361 31.9306 37.3894 31.95 37.3427C31.9734 37.2805 31.8878 37.2376 31.845 37.2805Z" fill="#A8332D"/>
<path d="M39.9551 36.0743C39.9551 36.1599 40.0251 36.23 40.1068 36.2494C40.2119 36.2728 40.2625 36.1405 40.1769 36.0782C40.138 36.0471 40.0991 36.0198 40.0524 36.0004C40.0057 35.9809 39.9551 36.0315 39.9551 36.0743Z" fill="#A8332D"/>
<path d="M32.7871 37.6465C33.7989 38.1953 35.0092 37.919 36.0949 37.775C37.2896 37.6193 38.282 37.1834 39.3405 36.6425C39.3716 36.627 39.3483 36.5725 39.3172 36.5841C37.2391 37.3158 34.9236 37.0706 32.791 37.6193C32.7793 37.6193 32.7793 37.6388 32.791 37.6427L32.7871 37.6465Z" fill="#A8332D"/>
<path d="M32.3007 29.0886C32.3007 29.0886 31.8142 26.9715 29.4598 26.236C27.1054 25.4966 25.3815 27.528 26.9109 28.5749C28.4441 29.6217 32.3007 29.0886 32.3007 29.0886Z" fill="#3F1D2B"/>
<path d="M26.9224 28.3613C26.8602 28.7232 27.0781 30.9764 29.1523 31.3773C31.2304 31.7781 32.215 30.3927 32.32 29.4548C32.429 28.5169 31.1526 27.0537 29.9812 26.793C28.8137 26.5322 27.1209 27.2094 26.9185 28.3613H26.9224Z" fill="#F9F7ED"/>
<path d="M29.9846 26.7885C28.8483 26.5356 27.2255 27.166 26.9492 28.2596C27.5563 28.0572 28.1828 27.9521 28.8327 27.9093C29.9574 27.847 31.0626 27.9716 32.0005 28.6331C32.0783 28.6876 32.1484 28.7499 32.2223 28.8122C31.9032 27.956 30.9108 26.9948 29.9846 26.7885Z" fill="#E8E5DD"/>
<path d="M31.5379 29.0888C31.5379 30.0305 30.7751 30.7972 29.8295 30.7972C28.8838 30.7972 28.1211 30.0305 28.1211 29.0888C28.1211 28.147 28.8838 27.3804 29.8295 27.3804C30.7751 27.3804 31.5379 28.1431 31.5379 29.0888Z" fill="#725F28"/>
<path d="M30.1057 28.0225C30.4949 28.0653 30.9229 28.1081 31.3082 28.2404C31.0124 27.7306 30.4637 27.3843 29.8294 27.3843C29.2807 27.3843 28.7942 27.645 28.4829 28.0458C29.0161 27.9524 29.5803 27.9602 30.1057 28.0225Z" fill="#3D3F26"/>
<path d="M31.413 28.6528C31.413 28.8746 31.234 29.0536 31.0122 29.0536C30.7903 29.0536 30.6113 28.8746 30.6113 28.6528C30.6113 28.431 30.7903 28.252 31.0122 28.252C31.234 28.252 31.413 28.431 31.413 28.6528Z" fill="#A59568"/>
<path d="M38.1729 29.0886C38.1729 29.0886 38.6593 26.9715 41.0137 26.236C43.3681 25.4966 45.0921 27.528 43.5627 28.5749C42.0294 29.6217 38.1729 29.0886 38.1729 29.0886Z" fill="#3F1D2B"/>
<path d="M43.555 28.3613C43.6172 28.7232 43.3993 30.9764 41.3251 31.3773C39.247 31.7781 38.2624 30.3927 38.1535 29.4548C38.0445 28.5169 39.3248 27.0537 40.4923 26.793C41.6637 26.5322 43.3526 27.2094 43.555 28.3613Z" fill="#F9F7ED"/>
<path d="M40.492 26.7885C41.6284 26.5356 43.2512 27.166 43.5275 28.2596C42.9204 28.0572 42.2938 27.9521 41.644 27.9093C40.5193 27.847 39.4141 27.9716 38.4762 28.6331C38.3984 28.6876 38.3283 28.7499 38.2544 28.8122C38.5735 27.956 39.5659 26.9948 40.492 26.7885Z" fill="#E8E5DD"/>
<path d="M38.9395 29.0888C38.9395 30.0305 39.7022 30.7972 40.6479 30.7972C41.5935 30.7972 42.3563 30.0305 42.3563 29.0888C42.3563 28.147 41.5935 27.3804 40.6479 27.3804C39.7022 27.3804 38.9395 28.1431 38.9395 29.0888Z" fill="#725F28"/>
<path d="M40.3675 28.0225C39.9784 28.0653 39.5503 28.1081 39.165 28.2404C39.4608 27.7306 40.0095 27.3843 40.6438 27.3843C41.1925 27.3843 41.679 27.645 41.9903 28.0458C41.4572 27.9524 40.8929 27.9602 40.3675 28.0225Z" fill="#3D3F26"/>
<path d="M41.3989 28.6528C41.3989 28.8746 41.5779 29.0536 41.7998 29.0536C42.0216 29.0536 42.2006 28.8746 42.2006 28.6528C42.2006 28.431 42.0216 28.252 41.7998 28.252C41.5779 28.252 41.3989 28.431 41.3989 28.6528Z" fill="#A59568"/>
<path d="M44.4268 23.7728C43.0297 21.9865 39.4261 22.5975 37.9901 24.0179C37.8072 24.2008 38.0018 24.446 38.2197 24.411C39.1615 24.2748 39.9943 23.7339 40.9321 23.5354C41.944 23.3213 43.4656 23.2046 44.31 23.8856C44.3918 23.9518 44.489 23.8545 44.4229 23.7728H44.4268Z" fill="#3F1D2B"/>
<path d="M26.1636 23.8856C26.9769 23.2318 28.2767 23.3486 29.2574 23.4848C30.3159 23.6327 31.2109 24.2592 32.2539 24.411C32.4718 24.4421 32.6664 24.1969 32.4835 24.0179C31.0514 22.5975 27.4439 21.9865 26.0507 23.7728C25.9845 23.8545 26.0818 23.9518 26.1636 23.8856Z" fill="#3F1D2B"/>
<path d="M36.34 38.7167C36.2038 38.6778 36.0287 38.6933 35.9158 38.7867C35.8614 38.8295 35.8147 38.884 35.7758 38.9385C35.7329 39.0046 35.7252 39.0747 35.7174 39.1525C35.7057 39.2848 35.873 39.3666 35.9781 39.3043C36.0209 39.2809 36.0637 39.2615 36.0987 39.2265C36.1299 39.1992 36.1532 39.1642 36.1883 39.137C36.2272 39.1058 36.2661 39.0319 36.3361 39.0085C36.4684 38.9618 36.4879 38.7634 36.3361 38.7206L36.34 38.7167Z" fill="#CC6144"/>
</svg>
