<svg width="74" height="63" viewBox="0 0 74 63" fill="none" xmlns="http://www.w3.org/2000/svg">
<rect width="74" height="63" rx="10" fill="#EDC9B4"/>
<path d="M14.0492 36.7963C13.8213 36.7963 13.8213 36.7963 13.5935 36.5684C13.5935 36.5684 13.3657 36.3406 13.3657 36.1128C13.3657 35.885 13.3657 35.885 13.5935 35.6572C13.8213 35.4294 14.0492 35.4294 14.277 35.6572C14.277 35.6572 14.5048 35.885 14.5048 36.1128C14.5048 36.3406 14.5048 36.3406 14.277 36.5684C14.277 36.5684 14.277 36.7963 14.0492 36.7963Z" fill="#1E1E1E"/>
<path d="M28.6307 42.2631C28.4029 42.2631 28.4029 42.2631 28.1751 42.0352C28.1751 42.0352 27.9473 41.8074 27.9473 41.5796C27.9473 41.3518 27.9473 41.3518 28.1751 41.124C28.4029 40.8962 28.6307 40.8962 28.8585 41.124C28.8585 41.124 29.0863 41.3518 29.0863 41.5796C29.0863 41.8074 29.0863 41.8074 28.8585 42.0352C28.8585 42.0352 28.8585 42.2631 28.6307 42.2631Z" fill="#1E1E1E"/>
<path d="M49.5882 36.7963C49.3604 36.7963 49.3604 36.7963 49.1326 36.5684C49.1326 36.5684 48.9048 36.3406 48.9048 36.1128C48.9048 35.885 48.9048 35.885 49.1326 35.6572C49.3604 35.4294 49.5882 35.4294 49.816 35.6572C49.816 35.6572 50.0439 35.885 50.0439 36.1128C50.0439 36.3406 50.0439 36.3406 49.816 36.5684L49.5882 36.7963Z" fill="#1E1E1E"/>
<path d="M43.6654 41.5799C43.4376 41.5799 43.4376 41.5799 43.2097 41.3521C43.2097 41.3521 42.9819 41.1243 42.9819 40.8965C42.9819 40.6687 42.9819 40.6687 43.2097 40.4409C43.4376 40.2131 43.6654 40.2131 43.8932 40.4409C43.8932 40.4409 44.121 40.6687 44.121 40.8965C44.121 41.1243 44.121 41.1243 43.8932 41.3521L43.6654 41.5799Z" fill="#1E1E1E"/>
<path d="M26.1239 37.2543C25.8961 37.2543 25.8961 37.2543 25.6682 37.0264C25.6682 37.0264 25.4404 36.7986 25.4404 36.5708C25.4404 36.343 25.4404 36.343 25.6682 36.1152C25.8961 35.8874 26.1239 35.8874 26.3517 36.1152C26.3517 36.1152 26.5795 36.343 26.5795 36.5708C26.5795 36.7986 26.5795 36.7986 26.3517 37.0264L26.1239 37.2543Z" fill="#1E1E1E"/>
<path d="M19.9725 40.2152C19.7447 40.2152 19.7447 40.2152 19.5169 39.9874C19.5169 39.9874 19.2891 39.7596 19.2891 39.5318C19.2891 39.3039 19.2891 39.3039 19.5169 39.0761C19.7447 38.8483 19.9725 38.8483 20.2003 39.0761C20.2003 39.0761 20.4281 39.3039 20.4281 39.5318C20.4281 39.7596 20.4281 39.7596 20.2003 39.9874C20.2003 40.2152 20.2003 40.2152 19.9725 40.2152Z" fill="#1E1E1E"/>
<path d="M55.5111 40.2152C55.2833 40.2152 55.2833 40.2152 55.0555 39.9874C55.0555 39.9874 54.8276 39.7596 54.8276 39.5318C54.8276 39.3039 54.8276 39.3039 55.0555 39.0761C55.2833 38.8483 55.5111 38.8483 55.7389 39.0761C55.7389 39.0761 55.9667 39.3039 55.9667 39.5318C55.9667 39.7596 55.9667 39.7596 55.7389 39.9874C55.7389 40.2152 55.5111 40.2152 55.5111 40.2152Z" fill="#1E1E1E"/>
<path d="M19.9735 47.0492C19.7457 47.0492 19.7457 47.0492 19.5179 46.8214C19.5179 46.8214 19.29 46.5936 19.29 46.3657C19.29 46.1379 19.29 46.1379 19.5179 45.9101C19.7457 45.6823 19.9735 45.6823 20.2013 45.9101C20.2013 45.9101 20.4291 46.1379 20.4291 46.3657C20.4291 46.5936 20.4291 46.5936 20.2013 46.8214C20.2013 47.0492 20.2013 47.0492 19.9735 47.0492Z" fill="#1E1E1E"/>
<path d="M31.8202 47.0492C31.5923 47.0492 31.5923 47.0492 31.3645 46.8214C31.3645 46.8214 31.1367 46.5936 31.1367 46.3657C31.1367 46.1379 31.1367 46.1379 31.3645 45.9101C31.5923 45.6823 31.8202 45.6823 32.048 45.9101C32.048 45.9101 32.2758 46.1379 32.2758 46.3657C32.2758 46.5936 32.2758 46.5936 32.048 46.8214C32.048 47.0492 32.048 47.0492 31.8202 47.0492Z" fill="#1E1E1E"/>
<path d="M43.6659 47.0492C43.4381 47.0492 43.438 47.0492 43.2102 46.8214C43.2102 46.8214 42.9824 46.5936 42.9824 46.3657C42.9824 46.1379 42.9824 46.1379 43.2102 45.9101C43.438 45.6823 43.6659 45.6823 43.8937 45.9101C43.8937 45.9101 44.1215 46.1379 44.1215 46.3657C44.1215 46.5936 44.1215 46.5936 43.8937 46.8214C43.8937 47.0492 43.8937 47.0492 43.6659 47.0492Z" fill="#1E1E1E"/>
<path d="M55.5125 47.0492C55.2847 47.0492 55.2847 47.0492 55.0569 46.8214C55.0569 46.8214 54.8291 46.5936 54.8291 46.3657C54.8291 46.1379 54.8291 46.1379 55.0569 45.9101C55.2847 45.6823 55.5125 45.6823 55.7404 45.9101C55.7404 45.9101 55.9682 46.1379 55.9682 46.3657C55.9682 46.5936 55.9682 46.5936 55.7404 46.8214C55.7404 47.0492 55.5125 47.0492 55.5125 47.0492Z" fill="#1E1E1E"/>
<path d="M55.5119 51.6049C53.9172 51.6049 53.006 50.9215 52.3225 50.4658C51.6391 50.0102 50.9557 49.5546 49.5888 49.5546C48.2219 49.5546 47.7663 50.0102 46.855 50.4658C46.1716 51.1493 45.2603 51.6049 43.6656 51.6049C42.0709 51.6049 41.1597 50.9215 40.4763 50.4658C39.7928 50.0102 39.1094 49.5546 37.7425 49.5546C36.3756 49.5546 35.92 50.0102 35.0087 50.4658C34.3253 51.1493 33.414 51.6049 31.8194 51.6049C30.2247 51.6049 29.3134 50.9215 28.63 50.4658C27.9465 50.0102 27.2631 49.5546 25.8962 49.5546C25.2128 49.5546 24.5293 49.7824 24.0737 50.0102C23.8459 50.238 23.6181 50.0102 23.3903 49.7824C23.1624 49.5546 23.3903 49.3268 23.6181 49.099C24.3015 48.6433 24.985 48.4155 25.8962 48.4155C27.4909 48.4155 28.4022 49.099 29.0856 49.5546C29.769 50.0102 30.4525 50.4658 31.8194 50.4658C33.1862 50.4658 33.6419 50.0102 34.5531 49.5546C35.2366 48.8712 36.1478 48.4155 37.7425 48.4155C39.3372 48.4155 40.2484 49.099 40.9319 49.5546C41.6153 50.0102 42.2988 50.4658 43.6656 50.4658C45.0325 50.4658 45.4881 50.0102 46.3994 49.5546C47.0828 48.8712 47.9941 48.4155 49.5888 48.4155C51.1835 48.4155 52.0947 49.099 52.7782 49.5546C53.4616 50.0102 54.1451 50.4658 55.5119 50.4658C56.8788 50.4658 57.3344 50.0102 58.2457 49.5546C58.9291 48.8712 59.8404 48.4155 61.4351 48.4155C61.6629 48.4155 61.8907 48.6433 61.8907 48.8712C61.8907 49.099 61.6629 49.3268 61.4351 49.3268C60.0682 49.3268 59.6126 49.7824 58.7013 50.238C58.0179 50.9215 57.1066 51.6049 55.5119 51.6049Z" fill="#1E1E1E"/>
<path d="M19.9725 51.6049C18.3778 51.6049 17.4666 50.9215 16.7831 50.4658C16.0997 50.0102 15.4163 49.5546 14.0494 49.5546C13.8216 49.5546 13.5938 49.3268 13.5938 49.099C13.5938 48.6433 13.8216 48.4155 14.0494 48.4155C15.6441 48.4155 16.5553 49.099 17.2388 49.5546C17.9222 50.0102 18.6056 50.4658 19.9725 50.4658C20.8838 50.4658 21.5672 50.238 21.795 50.0102C22.0228 49.7824 22.2507 50.0102 22.4785 50.238C22.7063 50.4658 22.4785 50.6937 22.2507 50.9215C21.795 51.3771 20.8838 51.6049 19.9725 51.6049Z" fill="#1E1E1E"/>
<path d="M62.8024 32.4686H47.3111C44.1217 32.4686 42.527 31.7852 41.1601 31.7852C39.7932 31.7852 38.4263 33.3798 39.5654 35.2024C40.021 35.658 40.4767 36.5692 40.4767 37.9361C40.4767 40.8977 38.4263 42.0368 36.8316 42.0368C35.6926 42.0368 32.5032 41.5811 32.5032 35.8858C32.5032 35.4302 32.5032 35.2024 32.5032 34.7467C32.731 33.8355 32.731 32.6964 31.3641 32.013C30.6807 31.7852 29.9973 31.7852 28.8582 32.013C27.7191 32.2408 26.5801 32.4686 24.5297 32.4686H12.6834C11.7722 32.4686 11.7722 33.8355 12.6834 33.8355H24.3019C26.3522 33.8355 27.9469 33.6077 28.8582 33.3798C29.3138 33.3798 30.2251 33.152 30.6807 33.152C31.3641 33.3798 31.3641 33.6077 31.1363 34.5189C31.1363 34.9745 31.1363 35.4302 31.1363 35.8858C31.1363 43.1758 36.376 43.1758 36.8316 43.1758C39.3376 43.1758 41.8435 41.5811 41.8435 37.7083C41.8435 35.8858 41.1601 34.7467 40.7045 34.2911C40.021 33.3798 41.1601 32.9242 41.1601 33.152C41.6157 33.152 42.0714 33.152 42.7548 33.3798C43.666 33.6077 45.2607 33.8355 47.3111 33.8355H62.8024C63.4858 33.8355 63.4858 32.4686 62.8024 32.4686Z" fill="#1E1E1E"/>
<path d="M36.832 40.671C38.1988 40.671 39.1101 39.7597 39.1101 37.9372C39.1101 37.026 38.8823 36.3425 38.4267 35.8869C37.971 35.4313 37.7432 34.7479 37.7432 33.1532C37.7432 24.0406 44.3498 12.1943 44.3498 11.9665C44.8054 11.2831 43.6664 10.5997 43.2107 11.2831C42.7551 11.9665 33.6426 26.091 33.6426 35.8869C33.6426 40.2154 35.9207 40.671 36.832 40.671ZM37.5154 25.1797C36.832 27.9135 36.3763 30.6472 36.3763 33.1532C36.3763 36.5704 37.7432 36.3425 37.7432 37.9372C37.7432 39.3041 37.0598 39.3041 36.832 39.3041C35.4651 39.3041 35.0095 37.4816 35.0095 35.8869C35.0095 32.6975 36.1485 28.8247 37.5154 25.1797Z" fill="#1E1E1E"/>
<path d="M45.717 27.2294C46.4719 27.2294 47.0839 26.6174 47.0839 25.8625C47.0839 25.1076 46.4719 24.4956 45.717 24.4956C44.9621 24.4956 44.3501 25.1076 44.3501 25.8625C44.3501 26.6174 44.9621 27.2294 45.717 27.2294Z" fill="#1E1E1E"/>
<path d="M27.0358 27.9139C27.7907 27.9139 28.4027 27.302 28.4027 26.5471C28.4027 25.7921 27.7907 25.1802 27.0358 25.1802C26.2809 25.1802 25.6689 25.7921 25.6689 26.5471C25.6689 27.302 26.2809 27.9139 27.0358 27.9139Z" fill="#1E1E1E"/>
<path d="M31.3644 30.4202C31.8676 30.4202 32.2756 30.0122 32.2756 29.5089C32.2756 29.0056 31.8676 28.5977 31.3644 28.5977C30.8611 28.5977 30.4531 29.0056 30.4531 29.5089C30.4531 30.0122 30.8611 30.4202 31.3644 30.4202Z" fill="#1E1E1E"/>
<path d="M41.3883 30.4202C41.8916 30.4202 42.2996 30.0122 42.2996 29.5089C42.2996 29.0056 41.8916 28.5977 41.3883 28.5977C40.885 28.5977 40.4771 29.0056 40.4771 29.5089C40.4771 30.0122 40.885 30.4202 41.3883 30.4202Z" fill="#1E1E1E"/>
<path d="M48.4508 31.5598C48.9541 31.5598 49.3621 31.1518 49.3621 30.6486C49.3621 30.1453 48.9541 29.7373 48.4508 29.7373C47.9475 29.7373 47.5396 30.1453 47.5396 30.6486C47.5396 31.1518 47.9475 31.5598 48.4508 31.5598Z" fill="#1E1E1E"/>
<path d="M53.462 29.509C53.9653 29.509 54.3733 29.101 54.3733 28.5978C54.3733 28.0945 53.9653 27.6865 53.462 27.6865C52.9588 27.6865 52.5508 28.0945 52.5508 28.5978C52.5508 29.101 52.9588 29.509 53.462 29.509Z" fill="#1E1E1E"/>
<path d="M22.7072 31.1033C23.2104 31.1033 23.6184 30.6953 23.6184 30.192C23.6184 29.6887 23.2104 29.2808 22.7072 29.2808C22.2039 29.2808 21.7959 29.6887 21.7959 30.192C21.7959 30.6953 22.2039 31.1033 22.7072 31.1033Z" fill="#1E1E1E"/>
</svg>
