<svg baseProfile="full" version="1.1" id="Layer_1" xmlns="http://www.w3.org/2000/svg" xmlns:xlink="http://www.w3.org/1999/xlink" x="0px" y="0px"
	 width="100%" viewBox="0 0 315 315" enable-background="new 0 0 315 315" xml:space="preserve">
<path fill="#5E62C6" opacity="1.000000" stroke="none" 
	d="
M204.000000,316.000000 
	C136.000031,316.000000 68.500061,316.000000 1.000072,316.000000 
	C1.000048,211.000076 1.000048,106.000168 1.000024,1.000185 
	C105.999870,1.000123 210.999741,1.000123 315.999695,1.000062 
	C315.999817,105.999817 315.999817,210.999634 315.999908,315.999725 
	C278.833344,316.000000 241.666672,316.000000 204.000000,316.000000 
M211.707031,67.030792 
	C187.752411,69.215881 172.173721,86.508308 171.921234,110.648849 
	C171.815247,120.781143 171.359314,130.965530 170.132202,141.012619 
	C169.158783,148.982468 166.952057,150.011124 157.497986,149.998337 
	C149.189911,149.987106 146.706299,148.678650 145.873093,140.996674 
	C144.673599,129.937607 144.346298,118.765999 144.041702,107.631615 
	C143.453156,86.118851 125.732811,67.884315 104.271744,67.026680 
	C80.532394,66.078003 60.743587,83.998123 60.019497,107.100143 
	C59.276161,130.816177 77.444176,149.771286 101.472267,150.532639 
	C107.442421,150.721802 113.455750,151.065948 119.337585,152.024185 
	C123.720337,152.738190 125.806587,159.319305 122.612274,162.140289 
	C120.792435,163.747452 117.872643,164.573608 115.353706,164.832489 
	C109.232559,165.461578 103.032860,165.312317 96.906296,165.905319 
	C74.423782,168.081421 57.415134,189.525604 60.206211,211.968506 
	C63.118637,235.387161 85.039307,252.264145 107.818047,248.625397 
	C129.428009,245.173386 143.780472,228.180542 144.076050,206.298553 
	C144.217392,195.833237 144.641602,185.317337 145.890167,174.938934 
	C146.856613,166.905624 149.042160,165.962997 159.054581,166.001724 
	C166.802170,166.031708 169.315109,167.450272 170.140442,175.048630 
	C171.323700,185.942612 171.708603,196.947479 171.941467,207.915451 
	C172.404358,229.719269 190.074524,248.105026 211.778061,248.973862 
	C235.472427,249.922394 255.291489,231.923172 255.984100,208.826935 
	C256.695038,185.119003 238.457993,166.148331 214.461945,165.463913 
	C208.655624,165.298325 202.849564,164.767380 197.069962,164.153946 
	C193.519302,163.777054 192.000443,161.505936 192.136307,157.886612 
	C192.311844,153.210495 194.054413,151.623764 200.667297,151.083023 
	C208.127823,150.472977 215.771179,150.862183 223.039612,149.374008 
	C244.053192,145.071594 258.105713,125.395729 255.844254,104.492302 
	C253.478073,82.620766 235.577820,67.094872 211.707031,67.030792 
z"/>
<path fill="#FEFEFF" opacity="1.000000" stroke="none" 
	d="
M212.165512,67.017853 
	C235.577820,67.094872 253.478073,82.620766 255.844254,104.492302 
	C258.105713,125.395729 244.053192,145.071594 223.039612,149.374008 
	C215.771179,150.862183 208.127823,150.472977 200.667297,151.083023 
	C194.054413,151.623764 192.311844,153.210495 192.136307,157.886612 
	C192.000443,161.505936 193.519302,163.777054 197.069962,164.153946 
	C202.849564,164.767380 208.655624,165.298325 214.461945,165.463913 
	C238.457993,166.148331 256.695038,185.119003 255.984100,208.826935 
	C255.291489,231.923172 235.472427,249.922394 211.778061,248.973862 
	C190.074524,248.105026 172.404358,229.719269 171.941467,207.915451 
	C171.708603,196.947479 171.323700,185.942612 170.140442,175.048630 
	C169.315109,167.450272 166.802170,166.031708 159.054581,166.001724 
	C149.042160,165.962997 146.856613,166.905624 145.890167,174.938934 
	C144.641602,185.317337 144.217392,195.833237 144.076050,206.298553 
	C143.780472,228.180542 129.428009,245.173386 107.818047,248.625397 
	C85.039307,252.264145 63.118637,235.387161 60.206211,211.968506 
	C57.415134,189.525604 74.423782,168.081421 96.906296,165.905319 
	C103.032860,165.312317 109.232559,165.461578 115.353706,164.832489 
	C117.872643,164.573608 120.792435,163.747452 122.612274,162.140289 
	C125.806587,159.319305 123.720337,152.738190 119.337585,152.024185 
	C113.455750,151.065948 107.442421,150.721802 101.472267,150.532639 
	C77.444176,149.771286 59.276161,130.816177 60.019497,107.100143 
	C60.743587,83.998123 80.532394,66.078003 104.271744,67.026680 
	C125.732811,67.884315 143.453156,86.118851 144.041702,107.631615 
	C144.346298,118.765999 144.673599,129.937607 145.873093,140.996674 
	C146.706299,148.678650 149.189911,149.987106 157.497986,149.998337 
	C166.952057,150.011124 169.158783,148.982468 170.132202,141.012619 
	C171.359314,130.965530 171.815247,120.781143 171.921234,110.648849 
	C172.173721,86.508308 187.752411,69.215881 212.165512,67.017853 
z"/>
</svg>