<svg width="134" height="134" viewBox="0 0 134 134" fill="none" xmlns="http://www.w3.org/2000/svg">
<path d="M0 10C0 4.47715 4.47715 0 10 0H124C129.523 0 134 4.47715 134 10V134H0V10Z" fill="#DAE1FE"/>
<path d="M34.2772 130.798C26.9535 115.398 37.7581 110.748 41.2529 106.327C47.4697 98.4603 32.7804 100.075 31.1375 88.3101C29.3692 75.6537 45.3185 76.2454 41.2529 67.0907C38.9346 61.8555 36.9714 50.5288 46.1957 41.9658C55.42 33.4029 65.9114 38.5128 65.9114 38.5128C65.9114 38.5128 76.4027 33.4029 85.627 41.9658C94.8513 50.5288 92.8881 61.8555 90.5698 67.0907C86.5111 76.2454 102.454 75.6537 100.685 88.3101C99.0423 100.075 84.353 98.4603 90.5698 106.327C94.0646 110.748 104.869 115.398 97.5455 130.798H34.2772Z" fill="#72130D"/>
<path d="M78.5391 55.6316C79.3884 60.4909 80.2725 65.4198 81.2472 70.2652C81.7136 72.5904 82.549 74.7764 82.737 77.1573C82.918 79.4407 81.8737 81.3274 81.275 83.4577C81.0314 84.3279 81.9712 84.9336 82.7091 84.5646C87.3526 82.2463 86.3849 76.3776 85.1597 72.2771C84.2755 69.3184 83.1338 66.4293 82.2218 63.4705C81.3864 60.7694 80.4953 57.8315 78.8106 55.5272C78.7131 55.3949 78.5182 55.4715 78.546 55.6386L78.5391 55.6316Z" fill="#440908"/>
<path d="M50.4916 55.8333C47.0316 56.2998 45.8133 61.8204 45.1241 64.5355C44.0937 68.5733 41.3578 77.3729 45.312 80.45C45.8481 80.8677 46.6 80.8747 46.9759 80.2342C48.0759 78.3754 47.6442 76.4192 47.6512 74.3376C47.6651 71.6365 48.1664 68.9492 48.4866 66.2759C48.9252 62.6489 49.6283 59.5718 50.7909 56.1396C50.8606 55.9377 50.6517 55.8124 50.4846 55.8333H50.4916Z" fill="#440908"/>
<path d="M80.3502 58.0266C80.1204 63.9928 78.5123 69.7293 81.7286 75.0063C83.7962 78.4454 88.8435 82.5807 85.8569 86.9387C82.4178 91.2968 75.3029 91.7562 76.9111 99.1009C78.2895 105.067 84.026 107.587 86.0867 113.094C88.1543 118.83 88.1543 124.107 82.1881 126.635L58.0935 126.864C53.276 125.716 38.8165 123.425 43.4112 115.621C45.7086 111.493 53.276 108.736 53.9652 103.689C54.4247 99.3306 47.7693 95.6548 45.4788 92.4454C42.2625 88.0874 44.7896 85.5603 47.087 81.6617C51.4451 74.0873 51.6748 65.3713 51.9045 56.8779L80.3571 58.0266H80.3502Z" fill="#440908"/>
<path d="M69.0377 45.455C73.6185 45.9493 78.5056 46.3879 82.265 49.3257C86.6578 52.7579 85.9825 59.1418 85.3142 64.0011C84.8478 67.4054 83.5668 70.747 85.3977 73.9564C86.4002 75.7177 88.5375 76.9151 90.0343 78.2169C92.4082 80.2776 93.5848 83.5287 92.6658 86.5501C90.7931 92.7322 77.0228 93.5606 79.2088 101.434C80.1138 104.699 84.263 106.927 86.8319 108.716C89.4982 110.568 91.9418 112.566 93.1531 115.678C94.4202 118.922 92.638 122.709 91.2943 125.605C91.2386 125.724 91.4127 125.835 91.4753 125.71C93.3689 121.756 94.7891 117.815 92.7006 113.652C90.7165 109.691 85.3908 107.561 82.2023 104.79C79.3967 102.353 78.3803 99.2344 81.2903 96.4985C83.2535 94.6536 86.0452 93.846 88.3495 92.5372C91.5519 90.7202 94.0373 87.7197 93.8702 83.9047C93.6613 79.2333 89.4356 77.0822 86.5743 74.1304C83.9984 71.471 85.6623 67.3218 86.1009 64.2169C86.4281 61.8917 86.6578 59.5804 86.5812 57.2273C86.254 47.3973 77.0158 45.7892 69.0446 45.1626C68.8567 45.1487 68.8636 45.4341 69.0446 45.455H69.0377Z" fill="#992317"/>
<path d="M88.7728 74.6099C94.4327 78.2509 101.283 84.3285 95.3516 91.158C92.2676 94.7085 85.9254 95.4952 84.4843 100.452C83.1895 104.907 89.2183 108.987 92.1979 111.062C95.282 113.213 97.8648 115.385 98.2338 119.388C98.6236 123.628 95.3795 126.99 92.1631 129.176C92.1422 129.19 92.1631 129.225 92.184 129.211C96.3332 126.482 100.413 121.274 97.7325 116.06C95.0035 110.755 80.7668 105.228 87.3526 98.252C91.1119 94.2629 97.9483 93.0725 98.4774 86.5493C98.9717 80.4508 93.5764 77.0326 88.8354 74.4986C88.7658 74.4638 88.7031 74.5612 88.7728 74.6099Z" fill="#992317"/>
<path d="M68.5417 43.1495C75.2737 41.7084 84.0733 40.8591 88.1112 47.7512C90.9794 52.6384 89.406 58.4166 88.0972 63.4917C86.9973 67.7732 86.6005 71.0522 88.2991 75.2083C88.3061 75.2362 88.3479 75.2222 88.3409 75.1944C85.9112 69.256 88.6681 63.7841 89.8725 57.9014C90.6522 54.0655 90.2484 49.4151 87.7422 46.2336C83.1822 40.4484 74.8421 41.068 68.4999 42.9824C68.3955 43.0172 68.4373 43.1634 68.5417 43.1426V43.1495Z" fill="#992317"/>
<path d="M63.7322 45.7051C54.675 44.5634 45.7222 48.3715 43.5014 57.8951C42.1717 63.6038 44.7823 69.5212 41.5382 74.8609C38.7744 79.4139 32.7107 81.1404 33.4486 87.4408C33.9151 91.4507 38.0573 94.8341 41.1414 96.9644C43.2925 98.4473 45.6456 99.8257 47.0728 102.081C49.0917 105.277 44.1488 108.361 42.116 109.927C38.5585 112.656 34.8271 115.984 33.2189 120.272C31.5759 124.658 35.21 128.056 38.8301 129.775C39.1712 129.935 39.4427 129.483 39.1224 129.274C36.5884 127.589 33.9499 126.169 33.5113 122.834C33.1075 119.792 35.6833 116.854 37.5978 114.849C40.5496 111.751 44.6083 109.663 47.2398 106.3C49.1613 103.85 47.8664 101.427 45.9032 99.5333C42.478 96.2265 38.2662 94.4443 35.4188 90.4204C31.0051 84.1409 37.8206 80.0265 41.4546 75.9609C44.3159 72.7585 44.0305 68.1289 43.8564 64.1537C43.5988 58.1945 44.9912 52.7087 50.0176 49.0468C53.8953 46.2203 59.1096 45.8235 63.7322 46.1994C64.0594 46.2273 64.0455 45.74 63.7322 45.6982V45.7051Z" fill="#992317"/>
<path d="M64.4905 43.825C57.849 40.4555 48.757 39.9264 43.654 46.2268C39.0036 51.9702 40.5352 62.1274 42.199 68.6575C42.2408 68.8385 42.5471 68.8037 42.5262 68.6157C41.6699 61.8211 39.9922 54.379 43.3268 47.9533C47.4273 40.0448 57.5427 41.7086 64.3165 44.2497C64.5601 44.3402 64.7203 43.9503 64.4905 43.832V43.825Z" fill="#992317"/>
<path d="M43.1464 75.8359C40.4313 79.637 36.1429 83.9394 37.577 89.0493C38.7953 93.4004 45.1374 95.837 48.0962 98.7192C50.8252 101.379 52.5865 105.5 49.6974 108.674C47.936 110.603 45.3463 111.522 43.5571 113.45C40.9395 116.277 42.4223 120.328 43.8704 123.315C43.933 123.44 44.1489 123.35 44.1001 123.218C43.2926 121.199 42.478 119.235 42.5059 117.022C42.5477 113.687 45.9171 112.058 48.2981 110.471C51.5631 108.299 52.6074 105.479 51.0967 101.803C49.4537 97.8141 45.2349 95.5516 41.942 93.1289C38.7674 90.7897 37.215 88.1304 38.5307 84.1413C39.5054 81.1825 41.6287 78.5162 43.1951 75.8498C43.209 75.829 43.1742 75.8081 43.1603 75.829L43.1464 75.8359Z" fill="#992317"/>
<path d="M64.4065 41.5836C62.2554 39.7318 59.1783 38.5344 56.31 38.9242C56.1638 38.9451 56.2126 39.1609 56.3448 39.1679C59.2061 39.3419 62.0047 39.9058 64.3578 41.6532C64.3926 41.6811 64.4413 41.6184 64.4065 41.5906V41.5836Z" fill="#992317"/>
<path d="M67.1513 41.3604C69.6367 39.62 72.7207 39.7314 75.6238 39.6896C75.8396 39.6896 75.8396 39.3624 75.6238 39.3554C72.6999 39.3137 69.5044 39.4111 67.0678 41.2212C66.9843 41.2838 67.0678 41.43 67.1513 41.3674V41.3604Z" fill="#992317"/>
<path d="M65.4724 43.2195C65.3053 44.8625 64.9712 46.2896 64.4073 47.856C63.9269 49.1927 63.3004 50.4667 63.2447 51.9008C63.2168 52.6457 64.3029 52.7571 64.5117 52.0748C64.999 50.4736 65.5003 48.8724 65.9528 47.2643C66.2939 46.0321 66.6141 44.2499 65.8205 43.136C65.7091 42.9759 65.4933 43.0385 65.4724 43.2334V43.2195Z" fill="#440908"/>
<path d="M71.2505 91.3105C71.2505 91.3105 70.1714 104.273 70.3664 106.083C70.5613 107.893 86.984 114.605 90.1029 116.867C93.2217 119.13 93.3122 126.565 92.3167 132.907H37.1449C36.1494 126.565 36.2399 119.13 39.3588 116.867C42.4776 114.605 58.9004 107.893 59.0953 106.083C59.2902 104.273 58.2112 91.3105 58.2112 91.3105H71.2505Z" fill="#E5805C"/>
<path d="M71.2503 91.3105H58.2109C58.2109 91.3105 58.7818 98.1887 59.0185 102.623C62.9171 102.338 66.7948 101.656 70.568 100.514C70.8326 96.2952 71.2503 91.3105 71.2503 91.3105Z" fill="#CC6144"/>
<path d="M64.7348 133.999H94.2735C94.2735 133.999 93.4102 117.507 92.3242 116.686C91.2382 115.871 76.3748 108.798 76.3748 108.798C76.3748 108.798 72.5877 112.105 64.7348 112.105C56.882 112.105 53.1018 108.798 53.1018 108.798C53.1018 108.798 38.2384 115.871 37.1524 116.686C36.0664 117.5 35.2031 133.999 35.2031 133.999H64.7418H64.7348Z" fill="#FFECE3"/>
<path d="M64.519 118.043C69.2808 115.189 74.2515 112.606 79.257 110.176C77.5444 109.355 76.3748 108.798 76.3748 108.798C76.3748 108.798 72.5877 112.105 64.7348 112.105C56.882 112.105 53.1018 108.798 53.1018 108.798C53.1018 108.798 38.2384 115.871 37.1524 116.686C36.0664 117.5 35.2031 133.999 35.2031 133.999H46.864C51.7094 127.699 57.5503 122.304 64.519 118.05V118.043Z" fill="#F9F7ED"/>
<path d="M81.908 74.9572C81.908 74.9572 85.5769 70.6618 89.016 73.5022C92.469 76.3496 90.3526 86.5555 80.4043 86.1239L81.908 74.9572Z" fill="#E5805C"/>
<path d="M83.1047 83.4227C83.6547 84.4739 86.5926 84.1397 88.2077 81.1462C89.8228 78.1526 89.2311 75.1591 88.4374 75.5072C87.6438 75.8553 81.789 80.8956 83.1117 83.4227H83.1047Z" fill="#D87350"/>
<path d="M88.6683 75.6324L88.6196 75.4932H88.4943L88.4316 75.5071C85.3406 76.6767 83.092 79.5727 82.4306 83.2555C82.4097 83.3599 82.4376 83.4644 82.5072 83.5479C82.5768 83.6314 82.6812 83.6802 82.7857 83.6802C82.9388 83.6802 83.0641 83.5827 83.1059 83.4226C83.1129 83.3947 83.1198 83.3669 83.1268 83.339C83.5375 83.5618 83.99 83.6802 84.4495 83.6802C85.4729 83.6802 86.6146 83.0606 86.8444 81.6682C86.9975 80.7284 86.545 79.9556 85.7374 79.7955C85.2501 79.6981 84.7349 79.9208 84.2964 80.2341C85.3058 78.3266 86.7399 76.8507 88.5778 75.8343C88.6474 75.7925 88.6892 75.709 88.6683 75.6324ZM86.0159 81.9049C85.7235 82.5941 85.1109 83.0049 84.366 83.0049C83.997 83.0049 83.635 82.9074 83.3008 82.7194C83.4679 82.1625 83.6559 81.6334 83.8717 81.1252C84.2685 80.8189 84.7001 80.5126 85.2153 80.3664C85.5773 80.262 85.8349 80.3246 85.995 80.5683C86.2248 80.9094 86.183 81.5151 86.0229 81.9119L86.0159 81.9049Z" fill="#CC6144"/>
<path d="M86.7466 73.495C85.9042 73.1469 84.2822 73.7039 84.3518 74.769C84.3657 75.0266 84.5954 75.2285 84.86 75.1519C85.5979 74.95 86.0156 74.1425 86.7466 73.9127C86.9694 73.8431 86.9415 73.5716 86.7466 73.4881V73.495Z" fill="#F48462"/>
<path d="M47.5601 74.9572C47.5601 74.9572 43.8912 70.6618 40.4521 73.5022C36.9991 76.3496 39.1155 86.5555 49.0638 86.1239L47.5601 74.9572Z" fill="#E5805C"/>
<path d="M40.7783 75.7713C39.6783 75.6878 40.7295 82.0647 43.2218 83.6729C45.7141 85.288 47.0786 85.0861 46.7236 83.0046C46.3685 80.923 42.9921 75.9314 40.7783 75.7713Z" fill="#D87350"/>
<path d="M41.0369 75.5071L40.9742 75.4932C40.8907 75.4932 40.8211 75.5489 40.8002 75.6324L40.7793 75.7786L40.8837 75.8343C42.7216 76.8507 44.1627 78.3266 45.1652 80.2341C44.7336 79.9208 44.2114 79.6981 43.7241 79.7955C42.9166 79.9556 42.4571 80.7284 42.6172 81.6682C42.8469 83.0606 43.9817 83.6802 45.012 83.6802C45.4785 83.6802 45.931 83.5618 46.3348 83.339C46.3417 83.3669 46.3487 83.3947 46.3556 83.4226C46.3974 83.5757 46.5227 83.6802 46.6759 83.6802C46.7803 83.6802 46.8847 83.6314 46.9544 83.5479C47.024 83.4644 47.0449 83.3599 47.0309 83.2555C46.3696 79.5727 44.1209 76.6767 41.0299 75.5071H41.0369ZM45.1025 83.0049C44.3576 83.0049 43.738 82.5941 43.4526 81.9049C43.2855 81.5151 43.2507 80.9024 43.4805 80.5613C43.5918 80.3942 43.745 80.3176 43.9538 80.3176C44.0444 80.3176 44.1488 80.3316 44.2602 80.3664C44.7684 80.5126 45.207 80.8189 45.6038 81.1252C45.8196 81.6265 46.0145 82.1625 46.1746 82.7194C45.8405 82.9074 45.4715 83.0049 45.1095 83.0049H45.1025Z" fill="#CC6144"/>
<path d="M64.7358 47.8486C63.3017 47.8486 49.4896 51.7124 48.2017 58.8691C46.9137 66.0257 44.9088 75.8279 47.8466 84.2028C50.7775 92.5778 62.7308 97.1377 64.7358 97.1377C66.7408 97.1377 78.6941 92.5778 81.625 84.2028C84.5559 75.8279 82.5509 66.0257 81.2699 58.8691C79.982 51.7124 66.1699 47.8486 64.7358 47.8486Z" fill="#E5805C"/>
<path d="M51.5572 76.4471C51.411 66.5197 54.2862 57.3441 59.2569 49.4355C54.7387 51.1899 49.0092 54.3853 48.2017 58.8757C46.9137 66.0323 44.9088 75.8345 47.8466 84.2094C50.5408 91.9021 60.8442 96.3716 64.0535 97.0469C63.5941 96.7823 63.1416 96.5039 62.703 96.2045C56.1798 91.7629 51.7382 84.4252 51.5572 76.4471Z" fill="#CC6144"/>
<path d="M67.6936 70.4183C66.698 72.9524 65.8835 76.3845 66.9556 79.0161C67.1227 79.4268 67.7771 79.5313 67.9024 79.0161C68.2366 77.6516 67.979 76.308 67.8815 74.9226C67.7771 73.4328 67.7284 71.929 67.8537 70.4392C67.8607 70.3418 67.7284 70.3418 67.7005 70.4183H67.6936Z" fill="#F48462"/>
<path d="M83.0654 75.2846C82.6616 77.7769 82.042 80.1647 81.1788 82.5387C80.2041 85.2259 78.5542 87.3701 77.1549 89.8137C77.0365 90.0226 77.2941 90.3289 77.503 90.1618C81.8889 86.8202 82.8705 80.4014 83.1141 75.2846C83.1141 75.2567 83.0723 75.2567 83.0723 75.2846H83.0654Z" fill="#F48462"/>
<path d="M58.7286 75.904C57.2945 77.0318 55.3244 77.4704 53.5421 77.0666C51.6903 76.6489 50.848 74.7832 50.0404 73.3003C49.9986 73.2237 49.8663 73.2585 49.8733 73.3421C50.0334 75.6395 51.029 77.2963 53.2776 78.0204C55.1712 78.626 57.7262 77.5609 58.7635 75.9318C58.7774 75.911 58.7495 75.8901 58.7286 75.904Z" fill="#CC6144"/>
<path d="M70.7378 75.904C72.1719 77.0318 74.1421 77.4704 75.9243 77.0666C77.7761 76.6489 78.6185 74.7832 79.426 73.3003C79.4678 73.2237 79.6001 73.2585 79.5931 73.3421C79.433 75.6395 78.4375 77.2963 76.1888 78.0204C74.2952 78.626 71.7403 77.5609 70.703 75.9318C70.689 75.911 70.7169 75.8901 70.7378 75.904Z" fill="#CC6144"/>
<g style="mix-blend-mode:multiply" opacity="0.4">
<path d="M82.302 77.6368C82.8381 79.614 80.8262 81.8835 77.7978 82.705C74.7694 83.5265 71.8803 82.5936 71.3443 80.6165C70.8082 78.6393 72.8202 76.3698 75.8485 75.5483C78.8769 74.7268 81.766 75.6597 82.302 77.6368Z" fill="#E24D4D"/>
</g>
<g style="mix-blend-mode:multiply" opacity="0.4">
<path d="M47.1724 77.6368C46.6363 79.614 48.6483 81.8835 51.6766 82.705C54.705 83.5265 57.5941 82.5936 58.1302 80.6165C58.6662 78.6393 56.6543 76.3698 53.6259 75.5483C50.5976 74.7268 47.7084 75.6597 47.1724 77.6368Z" fill="#E24D4D"/>
</g>
<path d="M65.4958 84.2579C65.3914 84.0143 65.0363 83.882 64.8066 83.7776C64.4515 83.6105 64.1035 83.5548 63.7275 83.708C63.3934 83.8472 63.5604 84.2927 63.8528 84.3415C64.1313 84.3902 64.4028 84.3415 64.6882 84.3484C64.9249 84.3484 65.1964 84.4807 65.4192 84.4181C65.4888 84.3972 65.5306 84.3275 65.4958 84.2579Z" fill="#CC6144"/>
<path d="M67.3963 84.2097C67.5703 84.2375 67.7862 84.0496 67.9393 83.9799C68.1621 83.8825 68.3918 83.8894 68.5032 83.6458C68.545 83.5553 68.4962 83.4369 68.4197 83.3882C68.176 83.235 67.9532 83.416 67.7513 83.5692C67.5982 83.6806 67.3058 83.8894 67.2988 84.0913C67.2988 84.154 67.3406 84.1957 67.3963 84.2097Z" fill="#CC6144"/>
<path d="M73.446 85.9072C68.9 88.5596 63.8458 89.5552 58.6801 88.2185C58.5688 88.1907 58.52 88.3647 58.6314 88.3926C63.5742 89.6735 69.2898 89.0261 73.4808 85.9699C73.5156 85.942 73.4808 85.8933 73.446 85.9142V85.9072Z" fill="#A8332D"/>
<path d="M58.673 87.9967C58.6033 88.0733 58.5337 88.1499 58.4711 88.2334C58.3875 88.3378 58.3875 88.4353 58.4223 88.5606C58.4502 88.6511 58.5825 88.6999 58.6451 88.6163C58.7147 88.5328 58.7565 88.4771 58.7844 88.3657C58.8052 88.2752 58.8331 88.1917 58.8679 88.1081C58.9097 87.9967 58.7565 87.9201 58.6799 87.9967H58.673Z" fill="#A8332D"/>
<path d="M73.1738 85.8382C73.1738 85.9914 73.2991 86.1236 73.4453 86.1515C73.6333 86.1932 73.7238 85.9565 73.5706 85.8452C73.4941 85.7964 73.4314 85.7407 73.3479 85.7059C73.2574 85.6711 73.1738 85.7616 73.1738 85.8382Z" fill="#A8332D"/>
<path d="M60.3505 88.6505C62.1606 89.6321 64.3257 89.1379 66.268 88.8803C68.4052 88.6018 70.1805 87.8221 72.0741 86.8544C72.1298 86.8266 72.095 86.7291 72.0323 86.75C68.3147 88.0588 64.1725 87.6202 60.3575 88.6088C60.3366 88.6088 60.3366 88.6436 60.3575 88.6505H60.3505Z" fill="#A8332D"/>
<path d="M59.4869 73.3414C59.4869 73.3414 58.6167 69.5542 54.4049 68.2384C50.193 66.9157 47.109 70.5497 49.8449 72.4224C52.5879 74.2951 59.4869 73.3414 59.4869 73.3414Z" fill="#3F1D2B"/>
<path d="M49.8597 72.0331C49.7484 72.6875 50.1313 76.7114 53.8488 77.4285C57.5664 78.1455 59.3277 75.6671 59.5157 73.9894C59.7106 72.3116 57.4272 69.694 55.3317 69.2275C53.2431 68.7611 50.2148 69.9724 49.8528 72.0331H49.8597Z" fill="#F9F7ED"/>
<path d="M55.3384 69.2274C53.3055 68.7749 50.4025 69.9027 49.9082 71.859C50.9942 71.497 52.1151 71.309 53.2777 71.2324C55.2827 71.121 57.2668 71.3438 58.9445 72.5273C59.0838 72.6248 59.2091 72.7362 59.3414 72.8475C58.7705 71.316 56.9953 69.5964 55.3384 69.2274Z" fill="#E8E5DD"/>
<path d="M58.1163 73.3423C58.1163 75.0271 56.7518 76.3985 55.0601 76.3985C53.3684 76.3985 52.0039 75.034 52.0039 73.3423C52.0039 71.6506 53.3684 70.2861 55.0601 70.2861C56.7518 70.2861 58.1163 71.6506 58.1163 73.3423Z" fill="#725F28"/>
<path d="M55.5534 71.4279C56.2496 71.5044 57.0154 71.581 57.7046 71.8177C57.1755 70.9057 56.1939 70.2861 55.0592 70.2861C54.0775 70.2861 53.2073 70.7526 52.6504 71.4696C53.6041 71.3025 54.6136 71.3165 55.5534 71.4279Z" fill="#3D3F26"/>
<path d="M57.8931 72.5618C57.8931 72.9586 57.5729 73.2788 57.176 73.2788C56.7792 73.2788 56.459 72.9586 56.459 72.5618C56.459 72.165 56.7792 71.8447 57.176 71.8447C57.5729 71.8447 57.8931 72.165 57.8931 72.5618Z" fill="#A59568"/>
<path d="M69.9863 73.3414C69.9863 73.3414 70.8565 69.5542 75.0684 68.2384C79.2802 66.9157 82.3643 70.5497 79.6283 72.4224C76.8854 74.2951 69.9863 73.3414 69.9863 73.3414Z" fill="#3F1D2B"/>
<path d="M79.6149 72.0331C79.7263 72.6875 79.3364 76.7114 75.6258 77.4285C71.9082 78.1455 70.1469 75.6671 69.9589 73.9894C69.764 72.3116 72.0475 69.694 74.1429 69.2275C76.2315 68.7611 79.2598 69.9724 79.6218 72.0331H79.6149Z" fill="#F9F7ED"/>
<path d="M74.1358 69.2274C76.1686 68.7749 79.0717 69.9027 79.566 71.859C78.4799 71.497 77.3591 71.309 76.1965 71.2324C74.1845 71.121 72.2074 71.3438 70.5296 72.5273C70.3904 72.6248 70.2651 72.7362 70.1328 72.8475C70.7037 71.316 72.4789 69.5964 74.1358 69.2274Z" fill="#E8E5DD"/>
<path d="M71.3574 73.3423C71.3574 75.0271 72.7219 76.3985 74.4136 76.3985C76.1053 76.3985 77.4698 75.034 77.4698 73.3423C77.4698 71.6506 76.1053 70.2861 74.4136 70.2861C72.7219 70.2861 71.3574 71.6506 71.3574 73.3423Z" fill="#725F28"/>
<path d="M73.9188 71.4279C73.2226 71.5044 72.4568 71.581 71.7676 71.8177C72.2967 70.9057 73.2783 70.2861 74.413 70.2861C75.3946 70.2861 76.2649 70.7526 76.8218 71.4696C75.868 71.3025 74.8586 71.3165 73.9188 71.4279Z" fill="#3D3F26"/>
<path d="M75.7578 72.5618C75.7578 72.9586 76.0781 73.2788 76.4749 73.2788C76.8717 73.2788 77.1919 72.9586 77.1919 72.5618C77.1919 72.165 76.8717 71.8447 76.4749 71.8447C76.0781 71.8447 75.7578 72.165 75.7578 72.5618Z" fill="#A59568"/>
<path d="M81.1739 63.8317C78.6747 60.6363 72.2281 61.7293 69.6592 64.2703C69.332 64.5975 69.6801 65.0361 70.07 64.9804C71.7547 64.7367 73.2445 63.7691 74.9153 63.414C76.7324 63.0311 79.4474 62.8223 80.9581 64.0406C81.1043 64.1589 81.2784 63.9849 81.16 63.8387L81.1739 63.8317Z" fill="#3F1D2B"/>
<path d="M48.5019 64.0337C49.9569 62.8642 52.2821 63.073 54.0365 63.3167C55.93 63.5812 57.5312 64.7021 59.397 64.9736C59.7868 65.0293 60.1349 64.5907 59.8077 64.2635C57.2458 61.7224 50.7923 60.6294 48.3 63.8249C48.1886 63.9711 48.3557 64.1451 48.5019 64.0268V64.0337Z" fill="#3F1D2B"/>
<path d="M66.7145 90.5649C66.4709 90.4953 66.1576 90.5231 65.9557 90.6902C65.8582 90.7668 65.7747 90.8642 65.7051 90.9617C65.6285 91.08 65.6146 91.2054 65.6006 91.3446C65.5798 91.5813 65.8791 91.7275 66.0671 91.6161C66.1437 91.5743 66.2202 91.5326 66.2829 91.4769C66.3386 91.4281 66.3804 91.3655 66.443 91.3167C66.5126 91.261 66.5823 91.1288 66.7076 91.087C66.9443 91.0035 66.9791 90.6484 66.7076 90.5718L66.7145 90.5649Z" fill="#CC6144"/>
<path d="M34.0061 26.0306C34.8454 27.6308 36.7507 28.2371 38.3925 27.9684C40.0159 27.6996 41.3392 26.5806 42.3377 25.2804C43.4711 24.049 44.341 22.5237 45.2722 20.9423C47.1039 17.5792 50.0384 14.71 53.7202 13.5911C57.4511 12.2596 62.5971 13.0223 63.859 17.4792C64.4778 19.367 64.6064 21.186 65.3906 22.505C66.9283 25.1179 71.2595 25.4555 73.03 22.8113C74.1082 21.3798 74.8188 19.5358 76.2585 18.2543C77.3612 17.1479 79.3399 16.4603 80.9021 17.1854C84.0877 18.2856 84.9086 23.9615 88.5721 23.2551C90.6856 22.7613 92.3948 21.2611 94.9433 21.211C96.8547 21.0735 98.9928 23.5739 97.498 25.2617C98.2882 24.1178 97.2529 22.63 96.1318 22.2737C93.3873 21.6736 91.5801 24.6741 88.9519 25.0992C86.1645 25.8243 84.0142 23.4864 82.6787 21.4111C81.3738 19.417 79.6156 17.6292 77.4776 19.6545C75.7316 21.2298 74.7269 24.9116 72.0743 25.9555C69.1888 27.2495 65.5315 26.2993 63.81 23.4614C62.0151 20.3047 62.9769 16.0727 59.0439 15.0976C54.0571 13.9849 49.1501 17.4855 46.8405 21.9237C45.9216 23.4489 45.0088 25.1304 43.6916 26.5744C42.301 27.9058 40.4693 29.0185 38.4476 28.9998C36.573 28.9873 34.5452 27.9183 34 26.0368L34.0061 26.0306Z" fill="#72130D"/>
</svg>
