<svg width="74" height="64" viewBox="0 0 74 64" fill="none" xmlns="http://www.w3.org/2000/svg">
<rect width="74" height="63" rx="10" fill="#DAE1FE"/>
<path fill-rule="evenodd" clip-rule="evenodd" d="M33.9892 59.5168C47.9668 59.9905 51.7526 51.6332 51.5383 52.7272C51.2639 54.1145 50.5195 55.1446 49.9932 55.9115C49.9556 55.9679 49.6811 56.1446 50.1887 55.9679C58.9407 52.9453 59.2001 45.791 59.2152 45.8361C59.6137 46.9978 58.4971 50.2685 58.9407 50.2385C66.7717 39.8511 42.5607 -7.74751 30.9929 14.11C24.9702 14.7115 22.6694 15.313 20.019 21.2154C14.9851 32.4261 20.4137 37.0202 9 47.6482C9.37595 48.2685 10.9888 49.276 12.5715 49.7648C14.2971 50.2986 15.9888 50.2948 16.0001 50.3926C16.0452 50.746 13.7181 51.5731 12.5527 51.7084C17.5941 56.1446 24.8198 56.028 26.8311 56.1671C27.2071 56.1934 23.1732 57.1408 22.6168 57.498C24.8913 59.4491 30.3876 59.5995 33.9892 59.5131V59.5168Z" fill="#440908"/>
<path fill-rule="evenodd" clip-rule="evenodd" d="M31.7891 13.5088C20.3453 13.5088 19.4505 21.1743 18.0332 31.3324C18.3114 32.0617 23.398 45.4868 23.4581 43.0544C23.5559 39.2348 23.7363 32.261 24.1386 31.0279C24.3378 30.4226 24.6085 30.5429 25.2476 30.2986C30.8229 28.1557 35.6312 23.8548 31.7891 13.5088Z" fill="#440908"/>
<path fill-rule="evenodd" clip-rule="evenodd" d="M54.869 24.618C51.0644 16.0615 44.8951 9.02379 39.0905 8.09144C35.3198 7.48617 30.2783 9.91102 31.0039 14.6141C31.4475 17.4939 34.0077 22.1669 34.5792 23.0391C37.9101 28.1143 43.1545 27.3136 48.2411 31.0542C50.1095 32.4302 50.0494 40.5882 49.5306 42.9717C49.3275 43.9003 51.5644 39.5845 53.2599 35.5017C54.9743 31.3738 56.1397 27.4602 54.8765 24.618H54.869Z" fill="#440908"/>
<path fill-rule="evenodd" clip-rule="evenodd" d="M35.9972 15.4219C35.9859 15.3204 36.0611 15.2302 36.1664 15.2189C36.2679 15.2076 36.3581 15.2828 36.3694 15.3881C36.5762 17.5046 36.8243 19.3919 37.7717 21.1551C38.7191 22.9183 40.377 24.5687 43.3996 26.2304C44.05 26.5875 44.6628 26.9183 45.2493 27.2379C50.2832 29.9635 53.3246 31.6139 55.0276 35.2004C56.9111 39.1667 57.3096 41.1592 57.3134 41.1667C57.3322 41.2682 57.2683 41.366 57.1668 41.3848C57.0652 41.4036 56.9675 41.3396 56.9487 41.2381C56.9487 41.2344 56.5577 39.287 54.693 35.3583C53.0426 31.8808 50.0426 30.2567 45.0763 27.565C44.4823 27.2417 43.862 26.9071 43.2229 26.5574C40.1289 24.8582 38.4258 23.1551 37.4446 21.3318C36.4634 19.5084 36.2077 17.5798 35.9972 15.4219Z" fill="#72130D"/>
<path fill-rule="evenodd" clip-rule="evenodd" d="M37.4674 13.1104C37.3884 13.0428 37.3772 12.9262 37.4448 12.8473C37.5125 12.7683 37.629 12.757 37.708 12.8247C38.6065 13.5804 39.6892 14.4187 40.8622 15.3247C45.3134 18.7722 51.0954 23.2497 53.8474 28.6784C57.3136 35.5093 58.3023 39.4643 58.3061 39.4793C58.3324 39.5771 58.2722 39.6823 58.1707 39.7049C58.0692 39.7312 57.9677 39.671 57.9452 39.5695C57.9452 39.5583 56.964 35.6371 53.5165 28.8475C50.8022 23.4941 45.0577 19.0466 40.6366 15.6217C39.4674 14.7157 38.3884 13.8811 37.4711 13.1104H37.4674Z" fill="#72130D"/>
<path fill-rule="evenodd" clip-rule="evenodd" d="M31.4741 19.096C31.4741 18.9945 31.553 18.9081 31.6545 18.9043C31.7561 18.9043 31.8425 18.9832 31.8463 19.0848C31.8952 20.6111 31.241 22.1788 30.147 23.6675C28.9214 25.333 27.1357 26.9082 25.1507 28.2278C21.4965 30.6601 19.9965 35.3256 19.9927 35.3369C19.9626 35.4347 19.8574 35.4873 19.7596 35.4572C19.6619 35.4271 19.6092 35.3219 19.6393 35.2241C19.6431 35.2091 21.1844 30.4233 24.9477 27.9195C26.8988 26.6225 28.6507 25.0773 29.85 23.4495C30.8989 22.0247 31.523 20.5359 31.4779 19.096H31.4741Z" fill="#72130D"/>
<path fill-rule="evenodd" clip-rule="evenodd" d="M19.9975 31.953C19.9787 32.0545 19.8847 32.1222 19.7832 32.1071C19.6817 32.0883 19.614 31.9944 19.629 31.8928C19.926 30.1597 20.4223 27.8101 21.3058 25.4416C22.1892 23.0656 23.4637 20.6709 25.3096 18.8588C25.9562 18.2272 26.5164 17.7385 27.0051 17.37C27.5803 16.9302 28.054 16.652 28.4375 16.4828C28.5315 16.4415 28.6405 16.4828 28.6818 16.5768C28.7232 16.6708 28.6818 16.7798 28.5878 16.8212C28.2269 16.9828 27.7758 17.2422 27.2307 17.6595C26.757 18.0204 26.2081 18.4941 25.5728 19.1182C23.7682 20.8889 22.5238 23.2348 21.6554 25.5657C20.787 27.9041 20.2945 30.2312 19.9975 31.9492V31.953Z" fill="#72130D"/>
<path d="M38.6239 40.3662C38.6239 40.3662 38.0412 47.3663 38.1502 48.3438C38.2555 49.3213 47.1241 52.9454 48.8083 54.1672C50.4926 55.389 50.5414 59.4041 50.0038 62.829H20.2063C19.6687 59.4041 19.7176 55.389 21.4018 54.1672C23.0861 52.9454 31.9547 49.3213 32.0599 48.3438C32.1652 47.3663 31.5825 40.3662 31.5825 40.3662H38.6239Z" fill="#E5805C"/>
<path d="M38.6235 40.3662H31.582C31.582 40.3662 31.8903 44.0806 32.0181 46.4753C34.1234 46.3212 36.2212 45.9528 38.2551 45.3362C38.3979 43.058 38.6235 40.3662 38.6235 40.3662Z" fill="#CC6144"/>
<path d="M35.1057 63.4188H51.0571C51.0571 63.4188 50.5909 54.5127 50.0044 54.069C49.418 53.6254 41.3915 49.8096 41.3915 49.8096C41.3915 49.8096 39.3464 51.5953 35.1057 51.5953C30.865 51.5953 28.8199 49.8096 28.8199 49.8096C28.8199 49.8096 20.7934 53.6292 20.2069 54.069C19.6205 54.5089 19.1543 63.4188 19.1543 63.4188H35.1057Z" fill="#FFECE3"/>
<path d="M34.9892 54.8051C37.5606 53.2637 40.2449 51.8689 42.9479 50.5569C42.0231 50.1133 41.3915 49.8125 41.3915 49.8125C41.3915 49.8125 39.3464 51.5982 35.1057 51.5982C30.865 51.5982 28.8199 49.8125 28.8199 49.8125C28.8199 49.8125 20.7934 53.6321 20.2069 54.072C19.6205 54.5118 19.1543 63.4218 19.1543 63.4218H25.4514C28.068 60.0194 31.2222 57.1059 34.9854 54.8088L34.9892 54.8051Z" fill="#F9F7ED"/>
<path d="M44.3804 31.5386C44.3804 31.5386 46.3616 29.219 48.2188 30.7529C50.0835 32.2905 48.9406 37.8019 43.5684 37.5688L44.3804 31.5386Z" fill="#E5805C"/>
<path d="M45.0266 36.1096C45.3236 36.6773 46.9101 36.4969 47.7823 34.8765C48.6545 33.26 48.335 31.6434 47.9064 31.8314C47.4778 32.0193 44.3161 34.7412 45.0304 36.1059L45.0266 36.1096Z" fill="#D87350"/>
<path d="M48.0323 31.9043L48.006 31.8291H47.9383L47.9045 31.8366C46.2315 32.4682 45.021 34.0321 44.6638 36.0209C44.6525 36.0773 44.6676 36.1337 44.7052 36.1788C44.7428 36.2239 44.7992 36.2502 44.8556 36.2502C44.9383 36.2502 45.0059 36.1976 45.0285 36.1111C45.0322 36.0961 45.036 36.0811 45.0398 36.066C45.2616 36.1863 45.5059 36.2502 45.7541 36.2502C46.3067 36.2502 46.9233 35.9156 47.0473 35.1637C47.13 34.6562 46.8857 34.2389 46.4496 34.1524C46.1864 34.0998 45.9082 34.2201 45.6714 34.3893C46.2165 33.3592 46.9909 32.5622 47.9834 32.0133C48.021 31.9908 48.0436 31.9456 48.0323 31.9043ZM46.5999 35.2916C46.442 35.6638 46.1112 35.8856 45.7089 35.8856C45.5097 35.8856 45.3142 35.8329 45.1338 35.7314C45.224 35.4307 45.3255 35.1449 45.442 34.8705C45.6563 34.7051 45.8894 34.5397 46.1676 34.4607C46.3631 34.4043 46.506 34.4382 46.5887 34.5697C46.709 34.754 46.6902 35.081 46.6037 35.2953L46.5999 35.2916Z" fill="#CC6144"/>
<path d="M46.9934 30.7502C46.5423 30.5622 45.6663 30.863 45.7002 31.4382C45.7077 31.5773 45.8318 31.6863 45.9746 31.6449C46.3731 31.5359 46.5987 31.0998 46.9934 30.9758C47.1137 30.9382 47.0987 30.7915 46.9934 30.7464V30.7502Z" fill="#F48462"/>
<path d="M25.8304 31.5386C25.8304 31.5386 23.8491 29.219 21.9919 30.7529C20.1273 32.2905 21.2701 37.8019 26.6424 37.5688L25.8304 31.5386Z" fill="#E5805C"/>
<path d="M22.1682 31.979C21.5742 31.9338 22.1419 35.3775 23.4878 36.2459C24.8337 37.1181 25.5706 37.0091 25.3788 35.885C25.1871 34.761 23.3637 32.0654 22.1682 31.979Z" fill="#D87350"/>
<path d="M22.309 31.8327L22.2752 31.8252C22.2301 31.8252 22.1925 31.8553 22.1812 31.9004L22.1699 31.9793L22.2263 32.0094C23.2188 32.5583 23.997 33.3553 24.5384 34.3854C24.3053 34.2162 24.0233 34.0959 23.7602 34.1485C23.3241 34.235 23.076 34.6523 23.1624 35.1598C23.2865 35.9117 23.8993 36.2463 24.4557 36.2463C24.7076 36.2463 24.9519 36.1824 25.17 36.0621C25.1737 36.0771 25.1775 36.0922 25.1813 36.1072C25.2 36.1899 25.2715 36.2463 25.3542 36.2463C25.4106 36.2463 25.467 36.22 25.5046 36.1749C25.5422 36.1298 25.5534 36.0771 25.5459 36.017C25.1888 34.0282 23.9745 32.4643 22.3053 31.8327H22.309ZM24.5045 35.8817C24.1023 35.8817 23.7677 35.6598 23.6136 35.2877C23.5233 35.0771 23.5045 34.7463 23.6286 34.5621C23.6887 34.4719 23.7715 34.4305 23.8842 34.4305C23.9331 34.4305 23.9895 34.438 24.0497 34.4568C24.3241 34.5358 24.5609 34.7012 24.7752 34.8666C24.8918 35.1373 24.997 35.4268 25.0835 35.7275C24.9031 35.829 24.7038 35.8817 24.5083 35.8817H24.5045Z" fill="#CC6144"/>
<path d="M35.1045 16.8975C34.3301 16.8975 26.8713 18.984 26.1758 22.8487C25.4803 26.7134 24.3976 32.0067 25.9841 36.5294C27.5668 41.052 34.0218 43.5145 35.1045 43.5145C36.1873 43.5145 42.6423 41.052 44.225 36.5294C45.8077 32.0067 44.7288 26.7134 44.0333 22.8487C43.3378 18.984 35.879 16.8975 35.1045 16.8975Z" fill="#E5805C"/>
<path d="M27.9879 32.3416C27.9052 26.9806 29.4616 22.0256 32.1458 17.7549C29.7059 18.706 26.6119 20.4279 26.1758 22.8527C25.4803 26.7174 24.3976 32.0108 25.9841 36.5334C27.439 40.6876 33.003 43.1012 34.7361 43.4659C34.488 43.323 34.2436 43.1726 34.0068 43.011C30.4841 40.6124 28.0856 36.6499 27.9879 32.3416Z" fill="#CC6144"/>
<path d="M36.7024 29.0859C36.1648 30.4543 35.7249 32.304 36.3001 33.7251C36.3903 33.9469 36.7437 34.0033 36.8114 33.7251C36.9919 32.992 36.8528 32.2626 36.8001 31.5145C36.7437 30.71 36.7174 29.8979 36.7851 29.0934C36.7888 29.0445 36.7174 29.0408 36.7024 29.0821V29.0859Z" fill="#F48462"/>
<path d="M45.0028 31.7134C44.7848 33.0593 44.4502 34.3488 43.984 35.6308C43.4577 37.0819 42.5667 38.2399 41.8111 39.5594C41.7471 39.6722 41.8862 39.8376 41.999 39.7474C44.3675 37.9429 44.8976 34.4766 45.0254 31.7134C45.0254 31.6984 45.0028 31.6984 45.0028 31.7134Z" fill="#F48462"/>
<path d="M31.8603 32.0472C31.0859 32.6562 30.0219 32.893 29.0595 32.675C28.0595 32.4494 27.6046 31.4419 27.1685 30.6411C27.1459 30.5998 27.0745 30.6186 27.0783 30.6637C27.1647 31.9043 27.7023 32.799 28.9166 33.19C29.9392 33.5171 31.3189 32.9419 31.8791 32.0622C31.8866 32.0509 31.8716 32.0396 31.8603 32.0472Z" fill="#CC6144"/>
<path d="M38.345 32.0472C39.1195 32.6562 40.1834 32.893 41.1458 32.675C42.1459 32.4494 42.6008 31.4419 43.0368 30.6411C43.0594 30.5998 43.1308 30.6186 43.1271 30.6637C43.0368 31.9043 42.4992 32.799 41.2887 33.19C40.2661 33.5171 38.8864 32.9419 38.3262 32.0622C38.3187 32.0509 38.3338 32.0396 38.345 32.0472Z" fill="#CC6144"/>
<g style="mix-blend-mode:multiply" opacity="0.4">
<path d="M44.591 32.9873C44.8805 34.055 43.794 35.2806 42.1587 35.728C40.5233 36.1716 38.9631 35.6678 38.6736 34.6001C38.3842 33.5325 39.4706 32.3069 41.106 31.8633C42.7414 31.4196 44.3016 31.9234 44.591 32.9911V32.9873Z" fill="#E24D4D"/>
</g>
<g style="mix-blend-mode:multiply" opacity="0.4">
<path d="M25.6199 32.9873C25.3267 34.055 26.4169 35.2806 28.0523 35.728C29.6839 36.1716 31.2478 35.6678 31.5373 34.6001C31.8268 33.5325 30.7403 32.3069 29.105 31.8633C27.4696 31.4196 25.9094 31.9234 25.6199 32.9911V32.9873Z" fill="#E24D4D"/>
</g>
<path d="M35.5155 36.5594C35.4591 36.4278 35.2636 36.3601 35.1433 36.3C34.9516 36.2097 34.7636 36.1796 34.5606 36.2624C34.3801 36.3375 34.4704 36.5782 34.6283 36.6045C34.7786 36.6308 34.9253 36.6045 35.0794 36.6082C35.2072 36.6082 35.3538 36.6797 35.4741 36.6458C35.5117 36.6345 35.5343 36.5969 35.5155 36.5594Z" fill="#CC6144"/>
<path d="M36.5409 36.5326C36.6349 36.5476 36.7514 36.4461 36.8342 36.4085C36.9545 36.3559 37.0785 36.3597 37.1387 36.2281C37.1612 36.1792 37.1387 36.1153 37.0936 36.089C36.962 36.0063 36.8417 36.104 36.7326 36.1867C36.6499 36.2469 36.492 36.3597 36.4883 36.4687C36.4883 36.5025 36.5108 36.5251 36.5409 36.5326Z" fill="#CC6144"/>
<path d="M39.8076 37.4502C37.3527 38.8826 34.6233 39.4202 31.8338 38.6983C31.7737 38.6833 31.7473 38.7735 31.8075 38.7923C34.4767 39.4841 37.5632 39.1344 39.8264 37.484C39.8452 37.469 39.8264 37.4427 39.8076 37.454V37.4502Z" fill="#A8332D"/>
<path d="M31.8275 38.5782C31.7899 38.6196 31.7523 38.6609 31.7185 38.706C31.6734 38.7624 31.6696 38.8151 31.6884 38.8827C31.7034 38.9316 31.7749 38.9579 31.8087 38.9128C31.8463 38.8677 31.8688 38.8376 31.8839 38.7775C31.8952 38.7286 31.9102 38.6835 31.929 38.6384C31.9516 38.5782 31.8688 38.5369 31.8275 38.5782Z" fill="#A8332D"/>
<path d="M39.6621 37.4125C39.6621 37.4952 39.7298 37.5629 39.8087 37.5817C39.9102 37.6042 39.9591 37.4764 39.8764 37.4162C39.8388 37.3862 39.8012 37.3599 39.7561 37.3411C39.711 37.3223 39.6621 37.3711 39.6621 37.4125Z" fill="#A8332D"/>
<path d="M32.7371 38.9351C33.7146 39.4652 34.8838 39.1983 35.9327 39.0592C37.0868 38.9088 38.0455 38.4878 39.0681 37.9652C39.0981 37.9501 39.0756 37.8975 39.0455 37.9088C37.0379 38.6156 34.8011 38.3787 32.7409 38.9088C32.7296 38.9088 32.7296 38.9276 32.7409 38.9314L32.7371 38.9351Z" fill="#A8332D"/>
<path d="M32.2665 30.6675C32.2665 30.6675 31.7966 28.6223 29.5221 27.9118C27.2476 27.1975 25.5822 29.1599 27.0596 30.1712C28.5409 31.1825 32.2665 30.6675 32.2665 30.6675Z" fill="#3F1D2B"/>
<path d="M27.0711 29.9605C27.0109 30.3101 27.2214 32.4868 29.2252 32.874C31.2328 33.2613 32.1839 31.9229 32.2854 31.0169C32.3907 30.1108 31.1576 28.6973 30.026 28.4454C28.8982 28.1935 27.2628 28.8477 27.0673 29.9605H27.0711Z" fill="#F9F7ED"/>
<path d="M30.03 28.4453C28.9323 28.201 27.3646 28.81 27.0977 29.8664C27.6841 29.6709 28.2894 29.5694 28.9172 29.5281C30.0037 29.4679 31.0714 29.5882 31.9774 30.2273C32.0526 30.28 32.1203 30.3401 32.1917 30.4003C31.8835 29.5732 30.9248 28.6446 30.03 28.4453Z" fill="#E8E5DD"/>
<path d="M31.5293 30.668C31.5293 31.5778 30.7925 32.3184 29.8789 32.3184C28.9654 32.3184 28.2285 31.5778 28.2285 30.668C28.2285 29.7582 28.9654 29.0176 29.8789 29.0176C30.7925 29.0176 31.5293 29.7544 31.5293 30.668Z" fill="#725F28"/>
<path d="M30.1458 29.6341C30.5218 29.6755 30.9353 29.7168 31.3075 29.8447C31.0218 29.3522 30.4917 29.0176 29.8789 29.0176C29.3488 29.0176 28.8789 29.2695 28.5781 29.6567C29.0932 29.5665 29.6383 29.574 30.1458 29.6341Z" fill="#3D3F26"/>
<path d="M31.4092 30.2437C31.4092 30.458 31.2363 30.6309 31.022 30.6309C30.8077 30.6309 30.6348 30.458 30.6348 30.2437C30.6348 30.0294 30.8077 29.8564 31.022 29.8564C31.2363 29.8564 31.4092 30.0294 31.4092 30.2437Z" fill="#A59568"/>
<path d="M37.9395 30.6675C37.9395 30.6675 38.4094 28.6223 40.6839 27.9118C42.9583 27.1975 44.6238 29.1599 43.1463 30.1712C41.6651 31.1825 37.9395 30.6675 37.9395 30.6675Z" fill="#3F1D2B"/>
<path d="M43.1385 29.9605C43.1986 30.3101 42.9881 32.4868 40.9843 32.874C38.9768 33.2613 38.0256 31.9229 37.9203 31.0169C37.8151 30.1108 39.0519 28.6973 40.1798 28.4454C41.3114 28.1935 42.943 28.8477 43.1385 29.9605Z" fill="#F9F7ED"/>
<path d="M40.1812 28.4453C41.279 28.201 42.8467 28.81 43.1136 29.8664C42.5271 29.6709 41.9219 29.5694 41.294 29.5281C40.2075 29.4679 39.1399 29.5882 38.2338 30.2273C38.1586 30.28 38.091 30.3401 38.0195 30.4003C38.3278 29.5732 39.2865 28.6446 40.1812 28.4453Z" fill="#E8E5DD"/>
<path d="M38.6797 30.668C38.6797 31.5778 39.4165 32.3184 40.3301 32.3184C41.2436 32.3184 41.9805 31.5778 41.9805 30.668C41.9805 29.7582 41.2436 29.0176 40.3301 29.0176C39.4165 29.0176 38.6797 29.7544 38.6797 30.668Z" fill="#725F28"/>
<path d="M40.0601 29.6341C39.6842 29.6755 39.2706 29.7168 38.8984 29.8447C39.1842 29.3522 39.7142 29.0176 40.327 29.0176C40.8571 29.0176 41.3271 29.2695 41.6278 29.6567C41.1128 29.5665 40.5676 29.574 40.0601 29.6341Z" fill="#3D3F26"/>
<path d="M41.0566 30.2437C41.0566 30.458 41.2296 30.6309 41.4439 30.6309C41.6582 30.6309 41.8311 30.458 41.8311 30.2437C41.8311 30.0294 41.6582 29.8564 41.4439 29.8564C41.2296 29.8564 41.0566 30.0294 41.0566 30.2437Z" fill="#A59568"/>
<path d="M43.9797 25.5284C42.6301 23.8028 39.1488 24.393 37.7616 25.7652C37.5849 25.9419 37.7728 26.1787 37.9834 26.1449C38.8932 26.0133 39.6977 25.4908 40.6037 25.299C41.5812 25.0923 43.0511 24.9795 43.8669 25.6374C43.9459 25.7013 44.0399 25.6073 43.976 25.5284H43.9797Z" fill="#3F1D2B"/>
<path d="M26.3372 25.6374C27.1229 25.0058 28.3786 25.1186 29.326 25.2502C30.3485 25.393 31.2132 25.9983 32.2208 26.1449C32.4313 26.175 32.6193 25.9381 32.4426 25.7652C31.0591 24.393 27.5741 23.8028 26.2282 25.5284C26.1643 25.6073 26.2583 25.7013 26.3372 25.6374Z" fill="#3F1D2B"/>
<path d="M36.1685 39.9694C36.0369 39.9318 35.8677 39.9469 35.7587 40.0371C35.7061 40.0784 35.661 40.1311 35.6234 40.1837C35.582 40.2476 35.5745 40.3153 35.567 40.3905C35.5557 40.5183 35.7173 40.5972 35.8188 40.5371C35.8602 40.5145 35.9016 40.4957 35.9354 40.4619C35.9655 40.4356 35.988 40.4017 36.0219 40.3754C36.0595 40.3454 36.0971 40.2739 36.1647 40.2514C36.2925 40.2063 36.3113 40.0145 36.1647 39.9732L36.1685 39.9694Z" fill="#CC6144"/>
<path fill-rule="evenodd" clip-rule="evenodd" d="M29.3612 26.7607C30.4401 26.7607 31.4176 27.1968 32.1244 27.9036C32.8311 28.6104 33.2672 29.5879 33.2672 30.6668C33.2672 31.7458 32.8311 32.7233 32.1244 33.43C31.4176 34.1368 30.4401 34.5729 29.3612 34.5729C28.2822 34.5729 27.3047 34.1368 26.598 33.43C25.8912 32.7233 25.4551 31.7458 25.4551 30.6668C25.4551 29.5879 25.8912 28.6104 26.598 27.9036C27.3047 27.1968 28.2822 26.7607 29.3612 26.7607ZM31.6544 28.3698C31.068 27.7833 30.2559 27.4186 29.3612 27.4186C28.4664 27.4186 27.6544 27.7833 27.0679 28.3698C26.4814 28.9563 26.1167 29.7683 26.1167 30.6631C26.1167 31.5578 26.4814 32.3699 27.0679 32.9563C27.6544 33.5428 28.4664 33.9075 29.3612 33.9075C30.2559 33.9075 31.068 33.5428 31.6544 32.9563C32.2409 32.3699 32.6056 31.5578 32.6056 30.6631C32.6056 29.7683 32.2409 28.9563 31.6544 28.3698Z" fill="#2E1E11"/>
<path fill-rule="evenodd" clip-rule="evenodd" d="M40.9744 26.5615C42.0534 26.5615 43.0309 26.9976 43.7376 27.7044C44.4444 28.4112 44.8805 29.3886 44.8805 30.4676C44.8805 31.5466 44.4444 32.524 43.7376 33.2308C43.0309 33.9376 42.0534 34.3737 40.9744 34.3737C39.8955 34.3737 38.918 33.9376 38.2112 33.2308C37.5045 32.524 37.0684 31.5466 37.0684 30.4676C37.0684 29.3886 37.5045 28.4112 38.2112 27.7044C38.918 26.9976 39.8955 26.5615 40.9744 26.5615ZM43.2715 28.1706C42.685 27.5841 41.873 27.2194 40.9782 27.2194C40.0834 27.2194 39.2714 27.5841 38.6849 28.1706C38.0985 28.7571 37.7338 29.5691 37.7338 30.4638C37.7338 31.3586 38.0985 32.1706 38.6849 32.7571C39.2714 33.3436 40.0834 33.7083 40.9782 33.7083C41.873 33.7083 42.685 33.3436 43.2715 32.7571C43.858 32.1706 44.2226 31.3586 44.2226 30.4638C44.2226 29.5691 43.858 28.7571 43.2715 28.1706Z" fill="#2E1E11"/>
<path fill-rule="evenodd" clip-rule="evenodd" d="M25.9291 30.043C26.0682 30.0843 26.1472 30.2347 26.102 30.3701C26.0607 30.5092 25.9141 30.5881 25.775 30.543L23.4103 29.8212C23.2712 29.7798 23.1922 29.6294 23.2373 29.4903C23.2787 29.3512 23.4291 29.2723 23.5644 29.3174L25.9291 30.0392V30.043Z" fill="#2E1E11"/>
<path fill-rule="evenodd" clip-rule="evenodd" d="M44.5647 30.8059C44.4256 30.8435 44.279 30.757 44.2451 30.6179C44.2075 30.4788 44.294 30.3322 44.4331 30.2984L46.8279 29.6856C46.967 29.648 47.1136 29.7344 47.1474 29.8735C47.185 30.0126 47.0986 30.1593 46.9595 30.1931L44.5647 30.8059Z" fill="#2E1E11"/>
<path fill-rule="evenodd" clip-rule="evenodd" d="M33.3384 30.3883C33.2444 30.5124 33.0414 30.55 32.8873 30.4748C32.7332 30.3996 32.6843 30.238 32.7783 30.1139C32.7783 30.1139 33.3384 29.3545 35.0565 29.3545C36.7746 29.3545 37.331 30.1139 37.3347 30.1139C37.4287 30.238 37.3799 30.3996 37.2257 30.4748C37.0716 30.55 36.8686 30.5124 36.7746 30.3883C36.7746 30.3883 36.4062 29.8808 35.0603 29.8808C33.7144 29.8808 33.346 30.3846 33.346 30.3883H33.3384Z" fill="#2E1E11"/>
</svg>
