<svg width="160" height="160" viewBox="0 0 160 160" fill="none" xmlns="http://www.w3.org/2000/svg">
<path d="M0 10C0 4.47715 4.47715 0 10 0H150C155.523 0 160 4.47715 160 10V160H0V10Z" fill="#DAE1FE"/>
<path d="M64.4126 32.3027L81.2039 79.7238L54.839 87.0474L38 39.492L64.4126 32.3027Z" fill="#FFE7D2"/>
<path d="M80.066 76.5098L81.2039 79.7234L54.8391 87.0469L53.6973 83.823L80.066 76.5098Z" fill="#569E5A"/>
<path d="M48.0115 67.7633C48.0115 67.7633 51.805 68.754 60.9368 67.1149C69.3286 65.6088 74.3957 60.4939 74.3957 60.4939L64.4126 32.3027L38 39.492L48.0115 67.7633Z" fill="#569E5A"/>
<path d="M65.8384 36.3291L67.1559 40.0503L40.751 47.2615L39.4297 43.53L65.8384 36.3291Z" fill="#296D58"/>
<path d="M56.631 75.1143L58.6666 80.862L55.143 81.8385L53.1074 76.0894L56.631 75.1143Z" fill="#46B2B7"/>
<path d="M59.8863 56.1801L46.0723 55.4593L46.1485 53.9895L59.9625 54.7102L59.8863 56.1801ZM58.3273 55.5678C58.2847 56.3906 58.1335 57.1733 57.8726 57.916C57.613 58.6587 57.294 59.2516 56.9181 59.6933L55.168 58.7918C55.5051 58.3668 55.7892 57.8592 56.0217 57.2663C56.2542 56.6748 56.386 56.0703 56.4183 55.4529C56.4428 54.9827 56.4157 54.6004 56.3382 54.3072C56.2607 54.014 56.1418 53.7931 55.9817 53.6472C55.8228 53.5012 55.6355 53.4224 55.4198 53.4108C55.146 53.3966 54.9213 53.4935 54.7495 53.7001C54.5764 53.9068 54.4291 54.1845 54.3077 54.5319C54.1863 54.8794 54.0688 55.263 53.9525 55.6854C53.8376 56.1064 53.6994 56.5275 53.5405 56.946C53.3816 57.3645 53.184 57.7455 52.9502 58.0865C52.7164 58.4275 52.4168 58.7 52.0525 58.9015C51.6883 59.103 51.2323 59.1909 50.6834 59.1612C50.0957 59.1302 49.5674 58.9429 49.0986 58.5993C48.6297 58.2557 48.268 57.7559 48.0123 57.0984C47.7566 56.4423 47.6545 55.6285 47.7049 54.6585C47.7385 54.0114 47.8483 53.3798 48.033 52.7598C48.2177 52.1411 48.4747 51.5999 48.8028 51.1349L50.5723 51.9642C50.2727 52.4305 50.044 52.8993 49.8878 53.3721C49.7302 53.8448 49.6398 54.3124 49.6152 54.7722C49.5907 55.2333 49.6256 55.613 49.7173 55.9127C49.8103 56.2124 49.9381 56.4306 50.1035 56.5663C50.2688 56.7032 50.4638 56.7768 50.6886 56.7884C50.9534 56.8026 51.1716 56.7058 51.3447 56.4991C51.5178 56.2924 51.6625 56.0147 51.7787 55.6673C51.895 55.3198 52.0138 54.9349 52.1339 54.5139C52.254 54.0928 52.3884 53.673 52.5382 53.2532C52.688 52.8334 52.8792 52.4537 53.113 52.1114C53.3468 51.7704 53.6464 51.4979 54.0107 51.2964C54.3749 51.0949 54.827 51.0071 55.3656 51.0355C55.9442 51.0652 56.4648 51.2551 56.9272 51.6038C57.3909 51.9525 57.7525 52.455 58.0121 53.1124C58.273 53.7699 58.3777 54.5875 58.326 55.5678H58.3273Z" fill="#FFE7D2"/>
<path d="M74.3681 71.3854C74.7763 71.326 75.3343 71.3259 75.5306 71.8788C75.7217 72.4174 75.2826 72.7894 74.0891 73.1898L73.544 71.6514L72.9499 71.8155L73.5014 73.3732C73.4071 73.4003 73.3103 73.4287 73.2082 73.4571C73.1268 73.4791 73.0481 73.5011 72.9719 73.5204L72.4203 71.9627L71.8184 72.1293L72.3622 73.6651C71.1067 73.9234 70.6327 73.7439 70.4609 73.2582C70.2594 72.6899 70.7283 72.451 71.0086 72.3644L70.6598 71.3776C69.9507 71.6049 69.106 72.2094 69.5632 73.5024C69.9468 74.586 70.953 75.0174 72.7277 74.6945L72.9228 75.2435L73.5247 75.0769L73.3413 74.5602C73.4265 74.5382 73.5118 74.5163 73.5996 74.4917C73.6926 74.4659 73.783 74.4401 73.8708 74.4142L74.0542 74.9309L74.6484 74.7669L74.4572 74.227C76.1299 73.6393 76.879 72.885 76.4515 71.6786C76.0137 70.4425 74.9287 70.2487 74.0245 70.4102L74.3707 71.3867L74.3681 71.3854Z" fill="#569E5A"/>
<path d="M64.4135 32.3027L55.0078 34.8628L55.3811 87.3199L69.1822 83.064L64.8643 33.5776L64.4135 32.3027Z" fill="#296D58"/>
<path d="M84.0644 33.3908L80.9438 83.2376L56.6934 81.654L56.9091 31L84.0644 33.3908Z" fill="#FFE7D2"/>
<path d="M81.1337 80.1981L80.9438 83.2373L56.6934 81.6538L56.7063 78.5693L81.1337 80.1981Z" fill="#569E5A"/>
<path d="M56.7734 62.4965C56.7734 62.4965 59.7894 64.6367 68.2599 66.0756C75.9736 67.3853 82.1231 64.3694 82.1231 64.3694L84.0631 33.3895L56.9078 31L56.7734 62.4965Z" fill="#569E5A"/>
<path d="M83.7687 38.0839L83.5026 42.3372L56.8691 40.1014L56.8872 35.7744L83.7687 38.0839Z" fill="#296D58"/>
<path d="M61.9296 71.8822L61.8379 77.5189L58.543 77.2968L58.5921 71.6484L61.9296 71.8822Z" fill="#46B2B7"/>
<path d="M72.3901 54.3307L58.9609 51.0125L59.3136 49.5839L72.7427 52.9021L72.3901 54.3307ZM70.9731 53.4343C70.7755 54.2338 70.4784 54.9739 70.0832 55.6546C69.688 56.3353 69.263 56.8571 68.8097 57.2201L67.261 56.0033C67.6717 55.6507 68.0476 55.2051 68.3873 54.6678C68.727 54.1305 68.9711 53.5622 69.1196 52.9615C69.232 52.5043 69.2785 52.1246 69.2578 51.821C69.2372 51.5175 69.1623 51.2798 69.0331 51.1055C68.9039 50.9311 68.7347 50.82 68.5255 50.7671C68.2594 50.7012 68.0205 50.7541 67.8125 50.9246C67.6033 51.0951 67.4069 51.3393 67.2222 51.6583C67.0375 51.976 66.849 52.3312 66.6565 52.7239C66.464 53.1165 66.2496 53.5027 66.0133 53.8838C65.7769 54.2648 65.5121 54.6019 65.2176 54.8925C64.9231 55.1832 64.5783 55.3937 64.183 55.5241C63.7878 55.6533 63.3228 55.6533 62.7893 55.5203C62.2184 55.3795 61.7354 55.0953 61.3401 54.6691C60.9449 54.2428 60.684 53.6836 60.5574 52.99C60.4308 52.2964 60.4838 51.4787 60.7163 50.5359C60.8713 49.9068 61.0986 49.3062 61.397 48.7327C61.6953 48.1605 62.0492 47.6762 62.46 47.2822L64.0409 48.4305C63.6586 48.8309 63.346 49.2494 63.1019 49.6834C62.8578 50.1187 62.6808 50.5604 62.5698 51.0073C62.4587 51.4555 62.4212 51.8339 62.4548 52.1465C62.4897 52.4578 62.5736 52.6968 62.7106 52.8608C62.8462 53.0261 63.0244 53.1359 63.2427 53.1902C63.4997 53.2535 63.7322 53.2005 63.9415 53.0287C64.1507 52.8582 64.3445 52.6128 64.5253 52.2938C64.7048 51.9747 64.8947 51.6195 65.091 51.2282C65.2887 50.8381 65.5005 50.4506 65.7265 50.067C65.9526 49.6834 66.2135 49.3463 66.5067 49.0543C66.8012 48.7637 67.146 48.5532 67.5413 48.424C67.9365 48.2949 68.3976 48.2949 68.9207 48.424C69.4826 48.5635 69.9579 48.8477 70.3467 49.2765C70.7355 49.7066 70.9964 50.2685 71.1281 50.9621C71.2599 51.657 71.2082 52.4798 70.9731 53.4317V53.4343Z" fill="#FFE7D2"/>
<path d="M78.2033 74.076C78.5649 74.1496 79.0325 74.3201 79.0015 74.8613C78.9718 75.387 78.4758 75.5756 77.3404 75.5601L77.4205 74.0553L76.8651 74.0166L76.7863 75.5394C76.6972 75.5342 76.6068 75.5291 76.5125 75.5226C76.4363 75.5174 76.364 75.5123 76.2929 75.5058L76.3704 73.9817L75.8086 73.9429L75.7349 75.4451C74.5957 75.2875 74.2586 74.9866 74.2806 74.5112C74.3064 73.9533 74.7817 73.8887 75.0478 73.899L75.0943 72.9277C74.4188 72.9083 73.4991 73.1796 73.4436 74.4493C73.3971 75.5084 74.0933 76.1878 75.6859 76.4461L75.66 76.9783L76.218 77.0157L76.2438 76.5146C76.3213 76.5223 76.4014 76.5288 76.4828 76.5339C76.5693 76.5404 76.6533 76.5443 76.736 76.5482L76.7101 77.048L77.2617 77.0855L77.2888 76.5624C78.8852 76.5611 79.7713 76.1361 79.8398 74.962C79.9108 73.7518 79.0712 73.2493 78.2562 73.1124L78.2033 74.0721V74.076Z" fill="#569E5A"/>
<path d="M70.1007 82.5295L71.8482 39.5039L57.918 81.7339L70.1007 82.5295Z" fill="#296D58"/>
<path d="M99.3363 41.2427C94.521 58.402 89.7045 75.5614 84.8867 92.7208C77.6058 88.8407 69.9154 86.3078 61.791 85.0756C65.5936 67.8413 69.3974 50.607 73.2039 33.374C82.4042 34.3092 91.124 36.9286 99.3375 41.244L99.3363 41.2427Z" fill="#FFE7D2"/>
<path d="M85.767 89.5803C85.4144 90.8357 85.2374 91.4648 84.8848 92.7202C77.6038 88.8402 69.9134 86.3073 61.7891 85.075C62.0681 83.8118 62.2076 83.1802 62.4865 81.917C70.6768 83.135 78.4279 85.6744 85.767 89.5816V89.5803Z" fill="#569E5A"/>
<path d="M66.1152 65.4789C69.1997 67.9188 73.3329 69.2647 76.8565 70.6945C81.0194 72.384 85.7636 73.5929 90.3592 73.23C93.3519 62.5675 96.3447 51.9064 99.3374 41.244C91.1239 36.9286 82.4053 34.3092 73.2037 33.374C70.84 44.0752 68.4776 54.7777 66.1152 65.4802V65.4789Z" fill="#569E5A"/>
<path d="M97.9777 46.0875C97.567 47.5509 97.1562 49.0156 96.7455 50.479C88.7012 46.2399 80.1648 43.6321 71.1582 42.6362C71.4824 41.1676 71.8066 39.6991 72.1308 38.2305C81.2304 39.1979 89.8533 41.8109 97.9777 46.0875Z" fill="#296D58"/>
<path d="M69.266 75.5859C68.8152 77.5194 68.3644 79.4517 67.9149 81.3853C66.8312 81.1489 65.7359 80.9423 64.6406 80.7653C65.0746 78.8343 65.5099 76.9033 65.9439 74.9736C67.0547 75.148 68.1655 75.3521 69.266 75.5859Z" fill="#46B2B7"/>
<path d="M84.5147 81.9722C84.8324 82.1828 85.2225 82.5367 85.0688 83.0972C84.919 83.641 84.423 83.6449 83.3729 83.2251C83.5421 82.6025 83.626 82.2912 83.7939 81.6687C83.5912 81.5731 83.4891 81.5266 83.2863 81.4336C83.1171 82.0639 83.0319 82.3791 82.8614 83.0094C82.78 82.9732 82.6973 82.9358 82.6095 82.897C82.5398 82.866 82.4739 82.835 82.408 82.804C82.5772 82.1737 82.6612 81.8585 82.8304 81.2282C82.6237 81.1352 82.5204 81.0887 82.3124 80.9983C82.1471 81.6196 82.0632 81.9309 81.8978 82.5522C80.8645 82.0058 80.6126 81.5938 80.7418 81.1017C80.8942 80.5243 81.3592 80.6057 81.6059 80.7038C81.7118 80.3021 81.7661 80.1006 81.872 79.6989C81.2391 79.4613 80.3078 79.4755 79.9604 80.7813C79.6142 82.0768 80.6178 83.0946 81.6201 83.5893C81.5607 83.8102 81.5323 83.92 81.4729 84.1409C81.6782 84.2313 81.7816 84.2778 81.9869 84.3695C82.0425 84.1628 82.0709 84.0582 82.1264 83.8515C82.1975 83.8864 82.2698 83.92 82.3447 83.9536C82.4235 83.9897 82.501 84.0233 82.5772 84.0569C82.5217 84.2636 82.4933 84.3669 82.4377 84.5736C82.6392 84.6666 82.74 84.7131 82.9415 84.8074C82.9996 84.5904 83.0293 84.4832 83.0874 84.2662C83.9903 84.6924 85.4757 84.8732 85.8089 83.5286C86.1124 82.3042 85.5041 81.4207 84.7833 80.9802C84.6748 81.3768 84.6206 81.5757 84.5121 81.9722H84.5147Z" fill="#569E5A"/>
<path d="M67.4863 103.143C67.4863 103.143 69.6188 109.756 71.3251 112.137C73.0313 114.517 78.5053 119.137 78.5053 119.137C78.5053 119.137 78.5531 119.234 78.6344 119.403C78.4588 115.348 77.7884 110.457 77.5107 110.18C77.1555 109.825 67.4876 103.142 67.4876 103.142L67.4863 103.143Z" fill="#E06655"/>
<path d="M101.254 121.2C100.686 118.925 96.7763 97.4556 96.3487 96.1769C95.9225 94.8969 90.6617 80.1116 90.2354 79.684C89.8092 79.2565 74.0267 72.2907 72.6059 71.5803C71.1838 70.8699 63.6484 71.2961 61.3739 72.2907C59.0993 73.2866 50.7101 78.6171 49.6445 79.3288C48.5776 80.0392 47.6541 82.8124 49.6445 83.949C51.6349 85.0869 58.0324 83.7359 58.0324 83.7359C58.0324 83.7359 51.9191 89.7071 50.9232 91.8396C49.9274 93.9721 47.4397 98.3791 46.8003 99.304C46.161 100.227 47.7962 102.219 49.3591 102.29C50.9232 102.361 52.0599 101.223 52.0599 101.223C52.0599 101.223 50.6378 105.346 50.1405 106.555C49.6432 107.764 51.2074 109.541 53.0557 109.114C54.9041 108.688 57.4628 104.494 57.4628 104.494C57.4628 104.494 58.9559 109.684 59.3111 110.891C59.6663 112.1 62.083 111.673 62.9367 110.678C63.7892 109.682 63.9326 107.834 63.9326 107.621C63.9326 107.408 63.7905 105.701 63.7905 105.701L67.4872 103.143C67.4872 103.143 77.155 109.826 77.5102 110.181C77.7879 110.459 78.4583 115.349 78.634 119.404C79.0537 120.29 80.3648 123.2 80.4242 125.11C80.4952 127.384 72.6046 157.597 73.0309 158.237C73.4571 158.877 91.7273 160.299 95.3529 159.944C98.9785 159.588 99.6889 159.304 99.6889 159.304C99.6889 159.304 100 149.28 100.247 145.946C100.505 142.447 101.608 133.143 101.892 132.006C102.177 130.868 101.821 123.474 101.253 121.2H101.254Z" fill="#E5805C"/>
<path d="M57.463 104.777C57.4463 104.777 57.4295 104.776 57.4127 104.774C57.259 104.746 57.1569 104.599 57.1841 104.444C57.2047 104.331 57.6917 101.632 58.1928 100.274C58.7108 98.8682 62.5495 94.6252 63.8437 94.5438C64.3655 94.5116 66.7176 94.62 69.443 94.7453C72.8412 94.9016 76.6929 95.0799 78.1434 95.0411C78.2958 95.0334 78.4302 95.16 78.434 95.3162C78.4379 95.4725 78.3152 95.603 78.1589 95.6069C76.6877 95.6469 72.8257 95.4687 69.4171 95.3111C66.8222 95.191 64.3694 95.0786 63.8799 95.1083C62.8892 95.1703 59.2106 99.1511 58.725 100.469C58.2419 101.781 57.7472 104.517 57.7433 104.544C57.7188 104.681 57.5987 104.777 57.4643 104.777H57.463Z" fill="#E06655"/>
<path d="M52.0585 101.506C52.0133 101.506 51.9668 101.496 51.9241 101.473C51.7859 101.399 51.7356 101.226 51.8092 101.089C51.9229 100.879 54.6004 95.9173 55.7306 94.1736C56.6412 92.7696 61.2885 86.7648 62.8669 86.6524C63.5605 86.6034 65.7408 86.5556 68.0476 86.5039C70.0962 86.4587 72.2157 86.4122 73.0424 86.367C74.759 86.2727 78.4802 86.3631 78.639 86.367C78.7953 86.3709 78.9193 86.5013 78.9154 86.6576C78.9116 86.8139 78.7837 86.9405 78.6248 86.934C78.5861 86.934 74.7667 86.841 73.0734 86.934C72.2364 86.9805 70.1129 87.027 68.0605 87.0709C65.8609 87.1187 63.5876 87.1691 62.9082 87.2182C61.8142 87.297 57.4988 92.4893 56.2059 94.4823C55.0874 96.2067 52.3349 101.307 52.3078 101.358C52.2561 101.453 52.1592 101.506 52.0585 101.506Z" fill="#E06655"/>
<path d="M58.0308 84.0187C57.9481 84.0187 57.8668 83.9825 57.8112 83.914C57.7131 83.7926 57.7311 83.6144 57.8526 83.5162C58.0398 83.3638 62.4572 79.7924 64.2164 79.4992C65.8814 79.2215 73.9734 78.9697 77.1535 79.4992C80.2275 80.012 84.7018 80.158 84.7457 80.1593C84.902 80.1644 85.0247 80.2949 85.0195 80.4512C85.0143 80.6074 84.8826 80.7366 84.7276 80.725C84.6824 80.7237 80.1707 80.5764 77.0605 80.0572C73.927 79.5354 65.9511 79.7834 64.3107 80.0572C62.6975 80.3259 58.2555 83.9192 58.2103 83.9554C58.1574 83.998 58.0941 84.0187 58.0321 84.0187H58.0308Z" fill="#E06655"/>
<path d="M51.3255 78.4981C51.3255 78.4981 52.9375 77.8911 53.3637 78.6027C53.7899 79.3131 53.1273 81.1524 52.7954 81.6019C52.4634 82.0527 49.0509 84.0896 48.2462 83.7344C47.4403 83.3792 47.1561 80.7249 48.2462 79.9189C49.3364 79.1129 51.3268 78.4968 51.3268 78.4968L51.3255 78.4981Z" fill="#D94862"/>
<path d="M48.7923 95.9092C48.7923 95.9092 49.5724 96.639 49.8204 97.4566C50.0684 98.2742 49.0997 99.5193 48.3273 100.478C47.5549 101.436 46.8342 102.681 46.2659 102.148C45.6975 101.614 45.7686 100.939 45.9107 100.442C46.0527 99.9442 48.7923 95.9092 48.7923 95.9092Z" fill="#D94862"/>
<path d="M51.2245 103.612C51.2245 103.612 52.2811 104.084 52.316 105.114C52.3521 106.145 51.3382 107.778 50.7273 108.78C50.3876 109.337 48.8505 108.801 49.1863 108.116C49.9071 106.645 51.3201 103.404 51.2245 103.612Z" fill="#D94862"/>
<path d="M58.7864 109.083C58.7864 109.083 60.2873 109.22 60.3945 110.074C60.5017 110.926 60.2537 112.523 60.1827 112.63C60.1117 112.737 59.3457 112.635 59.0964 112.173C58.8472 111.71 58.7852 109.083 58.7852 109.083H58.7864Z" fill="#D94862"/>
<path d="M77.4515 136.864C77.4515 136.864 86.4077 137.836 89.9519 138.408C92.862 138.877 98.6097 139.462 100.573 139.657C100.949 139.694 101.227 140.024 101.198 140.401C101.086 141.899 100.811 145.374 100.676 145.553C100.505 145.782 76.2128 143.152 76.2696 142.296C76.3265 141.438 77.4502 136.866 77.4502 136.866L77.4515 136.864Z" fill="#BF755A"/>
<path d="M103.968 143.933C103.292 147.845 100.364 150.439 97.4293 149.727C94.4934 149.015 92.6619 145.266 93.3374 141.353C94.0129 137.441 96.9411 134.847 99.8757 135.559C102.812 136.271 104.643 140.02 103.968 143.933Z" fill="#E89938"/>
<path d="M103.813 143.896C103.199 147.444 100.656 149.824 98.1323 149.212C95.6084 148.6 94.0585 145.226 94.6707 141.678C95.2842 138.13 97.8275 135.749 100.351 136.362C102.875 136.974 104.425 140.348 103.813 143.896Z" fill="#FFE7D2"/>
<path d="M98.7292 142.549L101.223 138.53L99.756 143.026C99.6578 143.326 99.3362 143.49 99.0366 143.392C98.7369 143.294 98.5729 142.972 98.671 142.673C98.6852 142.629 98.7059 142.586 98.7292 142.549Z" fill="#344973"/>
<path d="M99.3538 142.222L101.721 142.644L99.4223 143.353C99.1149 143.447 98.7881 143.276 98.6938 142.968C98.5995 142.661 98.7713 142.334 99.0787 142.24C99.1691 142.211 99.2647 142.207 99.3525 142.223L99.3538 142.222Z" fill="#344973"/>
<path d="M87.1752 61.5363L74.3105 56.4537L74.8517 55.0846L87.7164 60.1671L87.1752 61.5363ZM85.8926 60.4591C85.5904 61.225 85.1964 61.9199 84.7147 62.5412C84.2316 63.1624 83.7421 63.6236 83.2435 63.9219L81.8718 62.5102C82.3264 62.2144 82.7578 61.823 83.166 61.3361C83.5742 60.8491 83.8919 60.3183 84.1192 59.7435C84.2923 59.3056 84.3879 58.9349 84.4085 58.6314C84.4279 58.3279 84.3853 58.0824 84.2807 57.8926C84.1761 57.704 84.0236 57.5697 83.8221 57.4896C83.5664 57.3888 83.3236 57.4095 83.0937 57.5503C82.8638 57.6911 82.6364 57.9081 82.4104 58.1987C82.1844 58.4893 81.9506 58.8161 81.7064 59.1778C81.4636 59.5407 81.1988 59.8946 80.9147 60.2421C80.6305 60.5882 80.3231 60.8866 79.9924 61.1359C79.6618 61.3852 79.2924 61.5479 78.8829 61.6228C78.4735 61.6977 78.0137 61.6357 77.5022 61.4329C76.9545 61.2172 76.5141 60.8711 76.1795 60.3958C75.845 59.9217 75.6616 59.3315 75.628 58.6275C75.5944 57.9236 75.7572 57.1202 76.1137 56.216C76.3513 55.6141 76.6562 55.0484 77.0281 54.5201C77.4001 53.9918 77.816 53.5604 78.2759 53.2246L79.6889 54.5744C79.2575 54.9205 78.8907 55.2925 78.591 55.6916C78.2914 56.0895 78.0563 56.5041 77.8871 56.9329C77.7179 57.3617 77.6288 57.7324 77.621 58.0463C77.6133 58.3601 77.6662 58.6068 77.7786 58.789C77.891 58.9711 78.0524 59.1028 78.2629 59.1855C78.5097 59.2824 78.7473 59.2604 78.9772 59.1196C79.2071 58.9788 79.4332 58.7618 79.654 58.4686C79.8749 58.1767 80.11 57.85 80.358 57.4883C80.606 57.1266 80.8682 56.7714 81.1433 56.4214C81.4184 56.0714 81.7219 55.7717 82.0526 55.5224C82.3833 55.2731 82.7527 55.1104 83.1621 55.0355C83.5716 54.9606 84.0275 55.0213 84.5287 55.2189C85.0673 55.432 85.5 55.7769 85.8281 56.2548C86.1561 56.7327 86.3395 57.3243 86.377 58.0308C86.4145 58.736 86.253 59.5459 85.8926 60.4578V60.4591Z" fill="#FFE7D2"/>
<path d="M99.7427 158.042H73.0059V159.999H99.7427V158.042Z" fill="#E5805C"/>
</svg>
