<svg width="134" height="134" viewBox="0 0 134 134" fill="none" xmlns="http://www.w3.org/2000/svg">
<path d="M0 10C0 4.47715 4.47715 0 10 0H124C129.523 0 134 4.47715 134 10V134H0V10Z" fill="#DAE1FE"/>
<g opacity="0.6">
<path d="M53.2826 49.8459C53.2826 49.8459 55.0406 43.8279 62.2635 42.4386C69.4864 41.0494 83.7545 39.5877 90.0095 51.4656C97.4893 65.6481 90.161 75.0044 95.3033 84.0972C104.594 100.532 90.2136 102.757 96.7913 113.173C104.126 124.781 95.9485 132.478 95.9485 132.478H40.2655C40.2655 132.478 33.1479 130.852 37.7766 120.436C42.4054 110.019 44.486 108.169 41.714 102.612C38.9355 97.055 28.8221 90.0823 36.0779 80.4956C43.3338 70.909 38.6984 42.2082 53.2826 49.8459Z" fill="#72130D"/>
<path d="M54.4675 59.4986C50.5367 61.4739 50.2602 67.2549 49.2264 71.0145C47.8701 75.9593 46.1384 80.6604 50.3984 84.6834C50.9384 85.197 51.9918 84.8678 51.9457 84.0447C51.8338 82.2077 51.2807 80.4431 51.1622 78.6193C51.0174 76.3675 51.8272 74.0498 52.1762 71.8309C52.828 67.6697 52.9268 63.7981 55.0667 60.0978C55.2971 59.7027 54.8494 59.3143 54.4741 59.5052L54.4675 59.4986Z" fill="#440908"/>
<path d="M55.8898 57.3716C60.2025 55.3832 65.0814 54.277 69.8089 55.1593C73.9175 55.9297 77.0713 58.4054 79.5536 61.7041C85.6177 69.7764 78.9676 78.4347 80.0343 87.2246C80.1725 88.3505 81.7396 89.088 82.3782 87.8633C84.9395 82.9383 86.0852 77.1046 86.4144 71.5936C86.7239 66.3855 84.9132 62.0728 81.654 58.0959C78.8162 54.6326 74.8261 51.9528 70.2698 51.775C64.9629 51.5709 59.6889 53.7371 55.5606 56.9371C55.2972 57.1412 55.633 57.4901 55.8964 57.3716H55.8898Z" fill="#440908"/>
<path d="M82.6752 67.2282C81.5888 73.3054 81.3715 80.2452 83.9789 85.8879C85.4998 89.5751 89.4043 91.5306 88.5352 95.8697C87.4488 100.209 82.8925 102.381 82.0233 106.721C80.9369 111.06 85.0587 114.101 87.2315 117.354C91.1359 123.214 90.9187 128.205 84.6241 131.675L60.1044 132.979C51.8609 132.327 37.5335 130.371 42.5244 118.658C45.5597 112.146 52.0716 110.414 56.1933 104.989C59.2287 101.084 56.4106 96.7454 53.5925 93.4862C49.9053 89.3644 47.298 86.3225 47.9498 80.4625C48.8189 73.0816 53.5925 67.0109 58.5834 61.8027L82.6686 67.2282H82.6752Z" fill="#440908"/>
<path d="M57.5967 51.3003C64.8328 49.4502 72.6154 46.935 79.9832 49.5489C84.9411 51.3069 88.1806 56.0739 89.4184 60.9924C90.6299 65.8186 89.2538 71.007 88.6612 75.8201C88.1411 80.0472 88.6612 83.2274 90.3995 87.0858C91.3739 89.252 94.2842 90.7532 94.2381 93.0906C94.192 95.2963 91.5715 98.1473 90.8274 100.248C89.4513 104.119 88.49 107.359 89.4382 111.454C90.0768 114.206 90.5311 116.899 90.8208 119.711C91.0908 122.364 90.8801 125.004 91.2027 127.658C91.262 128.125 91.8414 128.218 92.0126 127.77C94.0537 122.562 92.4208 118.038 90.6167 113.054C88.4308 107.036 92.8422 102.058 96.1541 97.2058C99.0512 92.9721 95.7064 89.4166 93.606 85.8611C92.1575 83.4117 89.0694 81.4694 89.0892 78.546C89.1089 75.8464 89.6884 73.1469 90.0307 70.4803C91.0776 62.3421 89.3065 52.6962 80.7338 49.2592C73.3265 46.2963 64.7406 48.5876 57.5374 51.1028C57.4189 51.1423 57.465 51.3267 57.5901 51.2938L57.5967 51.3003Z" fill="#992317"/>
<path d="M57.3046 49.1213C62.7432 44.3543 68.7348 43.3404 75.7076 44.4268C78.5849 44.8745 81.37 45.7765 83.8325 47.3699C94.1566 54.053 92.2801 69.6906 90.476 79.9225C90.4629 79.9949 90.5748 80.0278 90.588 79.9554C92.8003 69.3416 94.4332 54.0859 84.0498 47.0078C81.4029 45.2037 78.2425 44.3478 75.1084 43.8934C68.0962 42.8795 62.4666 44.1041 57.2321 49.0423C57.1795 49.095 57.2585 49.174 57.3177 49.1279L57.3046 49.1213Z" fill="#992317"/>
<path d="M67.9066 50.5242C73.0094 50.8995 78.3295 51.5514 82.662 54.4814C88.7458 58.5965 89.2857 66.8993 89.4701 73.5494C89.4701 73.5757 89.5096 73.5757 89.5096 73.5494C89.6808 66.761 89.4635 59.8541 84.1171 54.9357C79.8241 50.9917 73.444 50.4189 67.9066 50.3662C67.8013 50.3662 67.8079 50.5176 67.9066 50.5242Z" fill="#992317"/>
<path d="M95.0607 95.4082C92.5455 100.412 89.4641 106.555 92.1768 112.139C93.3752 114.608 95.1595 116.702 96.4171 119.138C98.5175 123.213 96.6409 126.255 94.534 129.778C94.343 130.101 94.7644 130.377 95.0278 130.16C97.194 128.369 99.2681 126.374 100.065 123.609C100.743 121.251 99.11 118.894 97.7142 117.202C95.1068 114.042 92.4402 111.829 92.0649 107.451C91.7225 103.401 93.7636 99.148 95.1661 95.4477C95.1924 95.3884 95.0871 95.3423 95.0607 95.4016V95.4082Z" fill="#992317"/>
<path d="M86.8501 83.945C88.0287 87.0593 90.0435 90.0288 90.3463 93.3934C90.6755 97.0411 88.2789 100.853 86.9686 104.145C85.6847 107.359 85.0855 110.684 85.283 114.134C85.474 117.426 87.3307 120.389 88.911 123.174C88.9966 123.332 89.227 123.194 89.148 123.036C87.1793 119.105 85.5332 115.793 85.8295 111.27C86.0995 107.075 88.055 103.118 90.0303 99.5036C90.8138 98.0682 91.9266 96.8765 92.2689 95.2633C92.5257 94.0518 92.3611 92.8271 92.1109 91.6354C91.4986 88.6857 88.9307 86.1441 87.2451 83.787C87.1135 83.6026 86.7579 83.708 86.8501 83.9516V83.945Z" fill="#992317"/>
<path d="M51.3865 52.6439C47.831 50.1945 45.4805 55.8241 44.664 58.3327C42.669 64.4429 44.0846 71.488 40.6147 77.0517C38.7974 79.9554 36.2691 82.3915 35.8279 85.9734C35.3934 89.4762 36.9736 92.3008 39.2188 94.8358C40.2855 96.0407 41.4246 97.1864 42.4978 98.3913C44.4072 100.525 45.408 102.355 45.2566 105.259C45.0459 109.308 43.1233 112.87 42.0237 116.702C42.0106 116.755 42.083 116.768 42.1027 116.722C44.0253 111.691 48.0154 106.793 45.0459 101.46C43.4723 98.6349 41.2797 96.2909 39.5744 93.5518C37.1185 89.5947 36.8353 85.5059 38.7053 81.2656C40.0419 78.2303 41.9513 75.7349 42.6887 72.4361C43.3538 69.4601 43.3142 66.3589 43.8673 63.363C44.5587 59.6364 46.2179 51.6497 51.3141 52.8151C51.426 52.8414 51.4787 52.6965 51.3931 52.6373L51.3865 52.6439Z" fill="#992317"/>
<path d="M52.2092 54.7903C48.6537 56.5614 47.7516 60.2025 47.4685 63.9029C47.2776 66.3917 47.4487 68.9135 47.3829 71.4089C47.2907 74.7274 46.2833 77.3282 44.6373 80.1989C43.2414 82.6351 42.0036 84.6301 41.5361 87.4482C41.1279 89.9107 41.727 92.3205 42.7081 94.5723C44.1369 97.8315 47.3105 99.741 48.4298 103.257C49.6479 107.063 47.4553 111.04 45.6381 114.239C45.5854 114.325 45.7237 114.404 45.7763 114.318C48.4364 110.032 50.4248 105.614 48.364 100.663C47.3302 98.1739 45.6183 95.9879 44.5319 93.5057C43.011 90.0226 43.09 86.342 44.2159 82.7536C45.0389 80.1265 46.7508 77.8747 47.4619 75.1883C47.9557 73.3249 47.9623 71.3102 47.9952 69.4007C48.0874 64.3177 47.5343 58.1746 52.2816 54.9285C52.3672 54.8693 52.2948 54.7442 52.2026 54.7903H52.2092Z" fill="#992317"/>
<path d="M48.0878 81.8909C47.2121 85.8086 47.2186 89.3772 48.924 93.0644C50.0762 95.5599 51.9264 97.6536 52.8416 100.268C54.2375 104.277 51.9791 107.438 49.1149 109.92C48.9964 110.019 49.1544 110.23 49.2795 110.137C53.2959 107.063 57.7271 103.902 54.8564 98.4635C53.4276 95.764 50.7017 93.9928 49.2334 91.2274C47.7125 88.3567 47.7981 85.0316 48.2063 81.9041C48.2129 81.8383 48.1075 81.8251 48.0878 81.8909Z" fill="#992317"/>
<path d="M54.0653 51.2089C54.0455 53.0722 54.0126 55.0409 54.5657 56.8319C55.1188 58.6162 56.1262 60.5322 57.0545 62.1453C57.364 62.6853 58.108 62.4021 58.1541 61.8491C58.299 60.1701 57.1994 58.8335 56.3632 57.4639C55.1583 55.4952 55.0924 53.2961 54.3747 51.1694C54.3221 51.0048 54.0653 51.0311 54.0653 51.2089Z" fill="#440908"/>
<path d="M73.5289 93.5C73.5289 93.5 72.5083 105.76 72.6927 107.472C72.877 109.184 88.4093 115.531 91.359 117.671C94.3088 119.811 94.3944 126.843 93.4528 132.841H41.2726C40.3311 126.843 40.4167 119.811 43.3664 117.671C46.3162 115.531 61.8484 109.184 62.0328 107.472C62.2171 105.76 61.1966 93.5 61.1966 93.5H73.5289Z" fill="#E5805C"/>
<path d="M73.5296 93.5H61.1973C61.1973 93.5 61.7372 100.005 61.961 104.199C65.6482 103.929 69.3222 103.284 72.8843 102.204C73.1411 98.2143 73.5296 93.5 73.5296 93.5Z" fill="#CC6144"/>
<path d="M67.3667 133.874H95.3037C95.3037 133.874 94.4872 118.276 93.4601 117.499C92.4329 116.729 78.3756 110.039 78.3756 110.039C78.3756 110.039 74.7937 113.167 67.3667 113.167C59.9396 113.167 56.3578 110.039 56.3578 110.039C56.3578 110.039 42.3004 116.722 41.2733 117.499C40.2461 118.269 39.4297 133.874 39.4297 133.874H67.3667Z" fill="#FFECE3"/>
<path d="M67.1626 118.783C71.6662 116.083 76.3674 113.641 81.1014 111.343C79.4817 110.566 78.3756 110.039 78.3756 110.039C78.3756 110.039 74.7937 113.167 67.3667 113.167C59.9396 113.167 56.3578 110.039 56.3578 110.039C56.3578 110.039 42.3004 116.722 41.2733 117.499C40.2461 118.269 39.4297 133.874 39.4297 133.874H50.4583C55.041 127.915 60.5651 122.813 67.156 118.79L67.1626 118.783Z" fill="#F9F7ED"/>
<path d="M83.6097 78.0405C83.6097 78.0405 87.0796 73.978 90.3322 76.6644C93.598 79.3574 91.5964 89.0099 82.1875 88.6017L83.6097 78.0405Z" fill="#E5805C"/>
<path d="M84.7427 86.0398C85.2629 87.0341 88.0414 86.718 89.569 83.8868C91.0965 81.0555 90.5369 78.2243 89.7863 78.5535C89.0356 78.8827 83.4917 83.6497 84.7493 86.0398H84.7427Z" fill="#D87350"/>
<path d="M90.0036 78.6727L89.9575 78.541H89.839L89.7797 78.5542C86.8563 79.6603 84.7296 82.3994 84.1041 85.8825C84.0843 85.9812 84.1107 86.08 84.1765 86.159C84.2423 86.238 84.3411 86.2841 84.4399 86.2841C84.5847 86.2841 84.7032 86.1919 84.7427 86.0405C84.7493 86.0141 84.7559 85.9878 84.7625 85.9615C85.151 86.1722 85.5789 86.2841 86.0135 86.2841C86.9814 86.2841 88.0612 85.6981 88.2785 84.3813C88.4299 83.4924 87.9954 82.7615 87.2316 82.6101C86.7707 82.5179 86.2835 82.7286 85.8687 83.0249C86.8234 81.2208 88.1797 79.8249 89.918 78.8636C89.9838 78.8241 90.0233 78.7451 90.0036 78.6727ZM87.495 84.6051C87.2184 85.257 86.639 85.6454 85.9345 85.6454C85.5855 85.6454 85.2431 85.5532 84.9271 85.3755C85.0851 84.8487 85.2629 84.3483 85.467 83.8677C85.8423 83.578 86.2505 83.2883 86.7378 83.15C87.0802 83.0512 87.3238 83.1105 87.4752 83.3409C87.6859 83.6636 87.653 84.2364 87.5015 84.6117L87.495 84.6051Z" fill="#CC6144"/>
<path d="M88.1846 76.6515C87.3945 76.3223 85.8604 76.8491 85.9196 77.8564C85.9328 78.1001 86.1501 78.291 86.4003 78.2186C87.0982 78.0276 87.4933 77.2639 88.1846 77.0466C88.3953 76.9807 88.369 76.724 88.1846 76.6449V76.6515Z" fill="#F48462"/>
<path d="M51.1241 78.0405C51.1241 78.0405 47.6542 73.978 44.4016 76.6644C41.1358 79.3574 43.1374 89.0099 52.5463 88.6017L51.1241 78.0405Z" fill="#E5805C"/>
<path d="M44.7117 78.8103C43.6714 78.7313 44.6656 84.7625 47.0228 86.2835C49.38 87.811 50.6705 87.6201 50.3347 85.6514C49.9989 83.6827 46.8055 78.9618 44.7117 78.8103Z" fill="#D87350"/>
<path d="M44.9546 78.5542L44.8953 78.541C44.8163 78.541 44.7504 78.5937 44.7307 78.6727L44.7109 78.8044L44.8097 78.8636C46.5479 79.8249 47.9043 81.2208 48.859 83.0249C48.4508 82.7286 47.957 82.5179 47.4961 82.6101C46.7323 82.7615 46.2977 83.4924 46.4492 84.3813C46.6665 85.6981 47.7397 86.2841 48.7142 86.2841C49.1553 86.2841 49.5833 86.1722 49.9652 85.9615C49.9718 85.9878 49.9783 86.0141 49.9849 86.0405C50.0244 86.1853 50.1429 86.2841 50.2878 86.2841C50.3866 86.2841 50.4853 86.238 50.5512 86.159C50.617 86.08 50.6434 85.9812 50.6236 85.8825C49.9981 82.3994 47.8714 79.6603 44.948 78.5542H44.9546ZM48.7998 85.6454C48.0952 85.6454 47.5092 85.257 47.2393 84.6051C47.0813 84.2364 47.0483 83.657 47.2656 83.3344C47.371 83.1763 47.5158 83.1039 47.7134 83.1039C47.799 83.1039 47.8977 83.1171 48.0031 83.15C48.4837 83.2883 48.8985 83.578 49.2738 83.8677C49.4779 84.3417 49.6623 84.8487 49.8137 85.3755C49.4977 85.5532 49.1487 85.6454 48.8063 85.6454H48.7998Z" fill="#CC6144"/>
<path d="M67.3666 52.3945C66.0102 52.3945 52.9471 56.0488 51.729 62.8174C50.5109 69.586 48.6146 78.8566 51.3932 86.7775C54.1652 94.6984 65.4703 99.0111 67.3666 99.0111C69.2629 99.0111 80.568 94.6984 83.34 86.7775C86.112 78.8566 84.2223 69.586 83.0042 62.8174C81.7861 56.0488 68.7229 52.3945 67.3666 52.3945Z" fill="#E5805C"/>
<path d="M54.9026 79.4424C54.7577 70.0533 57.4836 61.3752 62.1848 53.8955C57.9116 55.5613 52.4928 58.5769 51.729 62.8238C50.5109 69.5924 48.6146 78.863 51.3932 86.7839C53.9413 94.0595 63.686 98.2866 66.7213 98.9252C66.2868 98.675 65.8588 98.4116 65.444 98.1285C59.2745 93.9278 55.0738 86.988 54.9026 79.4424Z" fill="#CC6144"/>
<path d="M70.1652 73.7406C69.2236 76.1372 68.4533 79.3833 69.4672 81.8721C69.6253 82.2606 70.2442 82.3593 70.3627 81.8721C70.6787 80.5816 70.4351 79.3108 70.3429 78.0006C70.2442 76.5915 70.1981 75.1693 70.3166 73.7603C70.3232 73.6681 70.1981 73.6681 70.1717 73.7406H70.1652Z" fill="#F48462"/>
<path d="M84.7023 78.343C84.3204 80.7002 83.7344 82.9586 82.9179 85.2038C81.9961 87.7453 80.4357 89.7733 79.1122 92.0843C79.0003 92.2819 79.2439 92.5716 79.4414 92.4135C83.5895 89.2531 84.5179 83.1824 84.7484 78.343C84.7484 78.3167 84.7089 78.3167 84.7089 78.343H84.7023Z" fill="#F48462"/>
<path d="M61.6899 78.9285C60.3335 79.9951 58.4702 80.4099 56.7846 80.0281C55.0332 79.633 54.2365 77.8684 53.4727 76.466C53.4332 76.3935 53.3081 76.4265 53.3147 76.5055C53.4661 78.6783 54.4077 80.2453 56.5344 80.9301C58.3253 81.5029 60.7417 80.4955 61.7228 78.9548C61.736 78.9351 61.7096 78.9153 61.6899 78.9285Z" fill="#CC6144"/>
<path d="M73.0423 78.9285C74.3987 79.9951 76.262 80.4099 77.9476 80.0281C79.699 79.633 80.4957 77.8684 81.2595 76.466C81.299 76.3935 81.4241 76.4265 81.4175 76.5055C81.2661 78.6783 80.3245 80.2453 78.1978 80.9301C76.4069 81.5029 73.9905 80.4955 73.0094 78.9548C72.9962 78.9351 73.0226 78.9153 73.0423 78.9285Z" fill="#CC6144"/>
<g style="mix-blend-mode:multiply" opacity="0.4">
<path d="M83.9786 80.568C84.4856 82.4379 82.5827 84.5844 79.7186 85.3613C76.8544 86.1383 74.122 85.256 73.615 83.386C73.108 81.5161 75.0108 79.3696 77.875 78.5927C80.7391 77.8158 83.4716 78.698 83.9786 80.568Z" fill="#E24D4D"/>
</g>
<g style="mix-blend-mode:multiply" opacity="0.4">
<path d="M50.7536 80.568C50.2467 82.4379 52.1495 84.5844 55.0137 85.3613C57.8778 86.1383 60.6103 85.256 61.1173 83.386C61.6242 81.5161 59.7214 79.3696 56.8572 78.5927C53.9931 77.8158 51.2606 78.698 50.7536 80.568Z" fill="#E24D4D"/>
</g>
<path d="M68.0833 86.8297C67.9845 86.5992 67.6421 86.4741 67.4314 86.3754C67.0956 86.2174 66.7664 86.1647 66.4109 86.3095C66.0948 86.4412 66.2529 86.8626 66.5294 86.9087C66.7928 86.9548 67.0495 86.9087 67.3195 86.9153C67.5434 86.9153 67.8002 87.0404 68.0108 86.9811C68.0767 86.9614 68.1162 86.8955 68.0833 86.8297Z" fill="#CC6144"/>
<path d="M69.8891 86.784C70.0537 86.8104 70.2578 86.6326 70.4026 86.5668C70.6067 86.4746 70.8306 86.4812 70.936 86.2507C70.9755 86.1651 70.9294 86.0532 70.8569 86.0071C70.6265 85.8622 70.4158 86.0334 70.2249 86.1783C70.08 86.2836 69.8035 86.4812 69.7969 86.6721C69.7969 86.7314 69.8364 86.7709 69.8891 86.784Z" fill="#CC6144"/>
<path d="M75.5591 89.2783C70.5946 88.9491 65.8934 90.233 62.0811 93.5383C62.0021 93.6107 61.8836 93.4856 61.9692 93.4132C65.6169 90.2462 70.7328 88.3894 75.5657 89.2124C75.6052 89.219 75.6052 89.2783 75.5657 89.2783H75.5591Z" fill="#A8332D"/>
<path d="M62.1659 93.7288C62.0737 93.6959 61.9815 93.6564 61.8959 93.6169C61.784 93.5642 61.7379 93.4852 61.7181 93.3667C61.705 93.2811 61.7906 93.1824 61.8827 93.2219C61.9815 93.2679 62.0408 93.2943 62.1066 93.3799C62.1593 93.4457 62.2251 93.505 62.2844 93.5642C62.3634 93.6367 62.2646 93.7684 62.1725 93.7354L62.1659 93.7288Z" fill="#A8332D"/>
<path d="M75.3609 89.4491C75.295 89.324 75.3477 89.1594 75.4597 89.0738C75.6045 88.9619 75.7823 89.1199 75.6967 89.2779C75.6572 89.3504 75.6243 89.4294 75.5716 89.4886C75.5123 89.5545 75.4004 89.515 75.3675 89.4491H75.3609Z" fill="#A8332D"/>
<path d="M63.3119 92.4646C64.4313 90.8712 66.4724 90.3774 68.2238 89.7782C70.153 89.1132 71.9834 89.0276 73.9916 89.0474C74.0509 89.0474 74.0574 89.1462 73.9982 89.1527C70.2978 89.6071 66.9794 91.7272 63.3317 92.4975C63.3119 92.4975 63.2988 92.4778 63.3119 92.4646Z" fill="#A8332D"/>
<path d="M62.4021 76.5054C62.4021 76.5054 61.579 72.9235 57.5956 71.6791C53.6121 70.4281 50.6953 73.8651 53.2829 75.6363C55.8771 77.4074 62.4021 76.5054 62.4021 76.5054Z" fill="#3F1D2B"/>
<path d="M53.2962 75.2682C53.1909 75.8871 53.5596 79.6928 57.069 80.371C60.585 81.0491 62.2508 78.7051 62.4286 77.1183C62.613 75.5315 60.4533 73.0559 58.4715 72.6147C56.4962 72.1736 53.632 73.3192 53.2896 75.2682H53.2962Z" fill="#F9F7ED"/>
<path d="M58.4775 72.6146C56.5549 72.1866 53.8093 73.2533 53.3418 75.1035C54.3689 74.7611 55.429 74.5833 56.5286 74.5175C58.4314 74.4121 60.3014 74.6228 61.8882 75.7421C62.0198 75.8343 62.1384 75.9397 62.2635 76.045C61.7236 74.5965 60.0446 72.9702 58.4775 72.6212V72.6146Z" fill="#E8E5DD"/>
<path d="M61.1052 76.5057C61.1052 78.0991 59.8147 79.3962 58.2147 79.3962C56.6147 79.3962 55.3242 78.1057 55.3242 76.5057C55.3242 74.9057 56.6147 73.6152 58.2147 73.6152C59.8147 73.6152 61.1052 74.9057 61.1052 76.5057Z" fill="#725F28"/>
<path d="M58.6812 74.7019C59.3396 74.7743 60.0639 74.8467 60.7157 75.0706C60.2153 74.2081 59.2869 73.6221 58.2137 73.6221C57.2853 73.6221 56.4623 74.0632 55.9355 74.7414C56.8376 74.5834 57.7923 74.5965 58.6812 74.7019Z" fill="#3D3F26"/>
<path d="M60.8935 75.769C60.8935 76.1443 60.5906 76.4472 60.2153 76.4472C59.84 76.4472 59.5371 76.1443 59.5371 75.769C59.5371 75.3937 59.84 75.0908 60.2153 75.0908C60.5906 75.0908 60.8935 75.3937 60.8935 75.769Z" fill="#A59568"/>
<path d="M72.332 76.5054C72.332 76.5054 73.1551 72.9235 77.1385 71.6791C81.122 70.4281 84.0388 73.8651 81.4512 75.6363C78.857 77.4074 72.332 76.5054 72.332 76.5054Z" fill="#3F1D2B"/>
<path d="M81.4364 75.2682C81.5417 75.8871 81.1796 79.6928 77.6636 80.371C74.1476 81.0491 72.4818 78.7051 72.304 77.1183C72.1196 75.5315 74.2793 73.0559 76.2611 72.6147C78.2364 72.1736 81.1006 73.3192 81.4429 75.2682H81.4364Z" fill="#F9F7ED"/>
<path d="M76.2547 72.6146C78.1773 72.1866 80.9229 73.2533 81.3904 75.1035C80.3633 74.7611 79.3032 74.5833 78.2036 74.5175C76.3008 74.4121 74.4309 74.6228 72.8441 75.7421C72.7124 75.8343 72.5939 75.9397 72.4688 76.045C73.0087 74.5965 74.6876 72.9702 76.2547 72.6212V72.6146Z" fill="#E8E5DD"/>
<path d="M73.6289 76.5057C73.6289 78.0991 74.9194 79.3962 76.5194 79.3962C78.1194 79.3962 79.4099 78.1057 79.4099 76.5057C79.4099 74.9057 78.1194 73.6152 76.5194 73.6152C74.9194 73.6152 73.6289 74.9057 73.6289 76.5057Z" fill="#725F28"/>
<path d="M76.0521 74.7019C75.3937 74.7743 74.6694 74.8467 74.0176 75.0706C74.518 74.2081 75.4464 73.6221 76.5196 73.6221C77.448 73.6221 78.271 74.0632 78.7977 74.7414C77.8957 74.5834 76.941 74.5965 76.0521 74.7019Z" fill="#3D3F26"/>
<path d="M77.7891 75.769C77.7891 76.1443 78.0919 76.4472 78.4672 76.4472C78.8425 76.4472 79.1454 76.1443 79.1454 75.769C79.1454 75.3937 78.8425 75.0908 78.4672 75.0908C78.0919 75.0908 77.7891 75.3937 77.7891 75.769Z" fill="#A59568"/>
<path d="M82.911 67.5111C80.5472 64.4889 74.4502 65.5226 72.0272 67.9259C71.7177 68.2353 72.0469 68.6501 72.4157 68.5975C74.009 68.367 75.4181 67.4518 76.9983 67.116C78.7168 66.7539 81.2846 66.5563 82.7134 67.7086C82.8517 67.8205 83.0163 67.6559 82.9044 67.5176L82.911 67.5111Z" fill="#3F1D2B"/>
<path d="M52.0112 67.7018C53.3873 66.5956 55.5864 66.7931 57.2457 67.0236C59.0366 67.2738 60.551 68.3338 62.3155 68.5906C62.6843 68.6433 63.0135 68.2285 62.704 67.919C60.281 65.5158 54.1774 64.4821 51.8202 67.5042C51.7083 67.6425 51.8729 67.8071 52.0112 67.6952V67.7018Z" fill="#3F1D2B"/>
<path d="M69.2361 92.7954C69.0057 92.7295 68.7094 92.7559 68.5184 92.9139C68.4262 92.9863 68.3472 93.0785 68.2814 93.1707C68.209 93.2826 68.1958 93.4011 68.1826 93.5328C68.1629 93.7567 68.446 93.8949 68.6238 93.7896C68.6962 93.7501 68.7686 93.7106 68.8279 93.6579C68.8806 93.6118 68.9201 93.5526 68.9793 93.5065C69.0452 93.4538 69.111 93.3287 69.2295 93.2892C69.4534 93.2102 69.4863 92.8744 69.2295 92.802L69.2361 92.7954Z" fill="#CC6144"/>
</g>
<path d="M37.4338 40.3843C34.517 42.083 32.5878 45.1052 32.2718 48.4698C32.1796 49.4311 32.8841 50.2804 33.8454 50.3726C34.2207 50.4055 34.5829 50.3199 34.8857 50.1422C35.3598 49.8656 35.6956 49.3784 35.7483 48.7924C35.959 46.5472 37.2495 44.5324 39.1918 43.3999C41.1342 42.2674 43.5243 42.1489 45.5786 43.0773C46.4543 43.4723 47.488 43.0773 47.8896 42.2015C48.2847 41.3258 47.8896 40.2921 47.0139 39.8905C43.9325 38.5012 40.3507 38.6856 37.4338 40.3777V40.3843Z" fill="#72130D"/>
<path d="M34.1426 34.7285C29.9747 37.1515 27.0184 41.2469 26.0373 45.9744C25.8398 46.9159 26.4456 47.8443 27.3937 48.0419C27.8348 48.134 28.2694 48.0484 28.6249 47.8443C29.0398 47.6007 29.3492 47.1991 29.4546 46.6921C30.2381 42.9391 32.5887 39.6799 35.9005 37.7507C39.2124 35.8215 43.2091 35.3935 46.8567 36.5721C47.772 36.8684 48.7596 36.3614 49.0559 35.4462C49.3522 34.531 48.8452 33.5433 47.93 33.247C43.3342 31.7656 38.3104 32.3055 34.1426 34.7285Z" fill="#72130D"/>
<path d="M87.198 42.0963C86.2631 41.5169 86.0326 40.4437 86.6384 39.456C87.2178 38.5211 88.3174 38.1919 89.2523 38.7713C90.1873 39.3507 90.4375 40.5095 89.8647 41.4445C89.2523 42.4321 88.133 42.6757 87.198 42.0963ZM98.0621 24.4571C98.7666 24.8917 99.4448 25.5304 99.0234 26.2744C98.8653 26.5312 98.6151 26.8801 98.3189 27.2423C96.9032 29.1319 93.4926 33.4907 91.3725 36.4536L90.3585 35.8281C92.0375 32.5887 94.3815 27.7558 95.4745 25.5172C95.6588 25.1616 95.8958 24.6612 96.0539 24.4044C96.4687 23.7263 97.3378 24.0094 98.0621 24.4637V24.4571Z" fill="#72130D"/>
<path d="M95.9292 47.4893C94.9942 46.9099 94.7374 45.8169 95.3432 44.8292C95.9226 43.8943 97.0221 43.5651 97.9834 44.1642C98.8921 44.7239 99.1423 45.8893 98.5694 46.8243C97.9571 47.8119 96.8378 48.0555 95.9292 47.4893ZM99.9192 42.4852C99.1686 41.5503 98.26 39.305 99.1554 37.8499C99.7678 36.8623 100.861 36.4277 103.343 36.1249C105.463 35.8878 106.655 35.5849 107.254 34.6236C107.833 33.6887 107.708 32.4969 106.563 31.7924C104.844 30.7323 102.836 31.72 102.5 31.5093C102.112 31.2657 101.75 30.2188 102.138 29.5999C102.362 29.2377 102.652 29.0534 103.225 28.9414C104.489 28.7505 105.806 29.2443 106.609 29.7381C108.973 31.1998 109.473 34.3471 108.222 36.3751C107.55 37.468 106.602 38.1791 104.37 38.482C102.395 38.7717 101.387 38.831 100.861 39.6869C100.426 40.3914 100.505 41.0828 100.802 42.1626L99.9192 42.4787V42.4852Z" fill="#72130D"/>
</svg>
