<svg width="63" height="63" viewBox="0 0 63 63" fill="none" xmlns="http://www.w3.org/2000/svg">
<rect width="63" height="63" rx="10" fill="#DAE1FE"/>
<path d="M8.71864 39.3201C8.49993 39.3201 8.49993 39.3201 8.28121 39.1014C8.28121 39.1014 8.0625 38.8827 8.0625 38.664C8.0625 38.4453 8.0625 38.4452 8.28121 38.2265C8.49993 38.0078 8.71864 38.0078 8.93735 38.2265C8.93735 38.2265 9.15607 38.4453 9.15607 38.664C9.15607 38.8827 9.15607 38.8827 8.93735 39.1014C8.93735 39.1014 8.93735 39.3201 8.71864 39.3201Z" fill="#1E1E1E"/>
<path d="M20.0917 36.9139C19.873 36.9139 19.873 36.9139 19.6543 36.6951C19.6543 36.6951 19.4355 36.4764 19.4355 36.2577C19.4355 36.039 19.4355 36.039 19.6543 35.8203C19.873 35.6016 20.0917 35.6016 20.3104 35.8203C20.3104 35.8203 20.5291 36.039 20.5291 36.2577C20.5291 36.4764 20.5291 36.4764 20.3104 36.6951C20.3104 36.6951 20.3104 36.9139 20.0917 36.9139Z" fill="#1E1E1E"/>
<path d="M22.7167 44.5672C22.498 44.5672 22.498 44.5672 22.2793 44.3485C22.2793 44.3485 22.0605 44.1297 22.0605 43.911C22.0605 43.6923 22.0605 43.6923 22.2793 43.4736C22.498 43.2549 22.7167 43.2549 22.9354 43.4736C22.9354 43.4736 23.1541 43.6923 23.1541 43.911C23.1541 44.1297 23.1541 44.1297 22.9354 44.3485C22.9354 44.3485 22.9354 44.5672 22.7167 44.5672Z" fill="#1E1E1E"/>
<path d="M42.8378 39.3201C42.6191 39.3201 42.6191 39.3201 42.4004 39.1014C42.4004 39.1014 42.1816 38.8827 42.1816 38.664C42.1816 38.4453 42.1816 38.4452 42.4004 38.2265C42.6191 38.0078 42.8378 38.0078 43.0565 38.2265C43.0565 38.2265 43.2752 38.4453 43.2752 38.664C43.2752 38.8827 43.2752 38.8827 43.0565 39.1014L42.8378 39.3201Z" fill="#1E1E1E"/>
<path d="M37.1503 43.9119C36.9316 43.9119 36.9316 43.9119 36.7129 43.6932C36.7129 43.6932 36.4941 43.4745 36.4941 43.2558C36.4941 43.037 36.4941 43.037 36.7129 42.8183C36.9316 42.5996 37.1503 42.5996 37.369 42.8183C37.369 42.8183 37.5877 43.037 37.5877 43.2558C37.5877 43.4745 37.5877 43.4745 37.369 43.6932L37.1503 43.9119Z" fill="#1E1E1E"/>
<path d="M37.8085 37.5701C37.5898 37.5701 37.5898 37.5701 37.3711 37.3514C37.3711 37.3514 37.1523 37.1327 37.1523 36.914C37.1523 36.6952 37.1523 36.6952 37.3711 36.4765C37.5898 36.2578 37.8085 36.2578 38.0272 36.4765C38.0272 36.4765 38.2459 36.6952 38.2459 36.914C38.2459 37.1327 38.2459 37.1327 38.0272 37.3514L37.8085 37.5701Z" fill="#1E1E1E"/>
<path d="M54.2108 39.3201C53.9921 39.3201 53.9921 39.3201 53.7734 39.1014C53.7734 39.1014 53.5547 38.8827 53.5547 38.664C53.5547 38.4453 53.5547 38.4452 53.7734 38.2265C53.9921 38.0078 54.2108 38.0078 54.4295 38.2265C54.4295 38.2265 54.6483 38.4453 54.6483 38.664C54.6483 38.8827 54.6483 38.8827 54.4295 39.1014L54.2108 39.3201Z" fill="#1E1E1E"/>
<path d="M29.496 43.4744C29.2773 43.4744 29.2773 43.4744 29.0586 43.2557C29.0586 43.2557 28.8398 43.037 28.8398 42.8183C28.8398 42.5995 28.8398 42.5995 29.0586 42.3808C29.2773 42.1621 29.496 42.1621 29.7147 42.3808C29.7147 42.3808 29.9334 42.5995 29.9334 42.8183C29.9334 43.037 29.9334 43.037 29.7147 43.2557L29.496 43.4744Z" fill="#1E1E1E"/>
<path d="M14.4042 42.6014C14.1855 42.6014 14.1855 42.6014 13.9668 42.3826C13.9668 42.3826 13.748 42.1639 13.748 41.9452C13.748 41.7265 13.748 41.7265 13.9668 41.5078C14.1855 41.2891 14.4042 41.2891 14.6229 41.5078C14.6229 41.5078 14.8416 41.7265 14.8416 41.9452C14.8416 42.1639 14.8416 42.1639 14.6229 42.3826C14.6229 42.6014 14.6229 42.6014 14.4042 42.6014Z" fill="#1E1E1E"/>
<path d="M48.5233 42.6014C48.3046 42.6014 48.3046 42.6014 48.0859 42.3826C48.0859 42.3826 47.8672 42.1639 47.8672 41.9452C47.8672 41.7265 47.8672 41.7265 48.0859 41.5078C48.3046 41.2891 48.5233 41.2891 48.742 41.5078C48.742 41.5078 48.9608 41.7265 48.9608 41.9452C48.9608 42.1639 48.9608 42.1639 48.742 42.3826C48.742 42.6014 48.5233 42.6014 48.5233 42.6014Z" fill="#1E1E1E"/>
<path d="M14.4042 49.1619C14.1855 49.1619 14.1855 49.1619 13.9668 48.9432C13.9668 48.9432 13.748 48.7245 13.748 48.5058C13.748 48.287 13.748 48.287 13.9668 48.0683C14.1855 47.8496 14.4042 47.8496 14.6229 48.0683C14.6229 48.0683 14.8416 48.287 14.8416 48.5058C14.8416 48.7245 14.8416 48.7245 14.6229 48.9432C14.6229 49.1619 14.6229 49.1619 14.4042 49.1619Z" fill="#1E1E1E"/>
<path d="M25.7772 49.1619C25.5585 49.1619 25.5585 49.1619 25.3398 48.9432C25.3398 48.9432 25.1211 48.7245 25.1211 48.5058C25.1211 48.287 25.1211 48.287 25.3398 48.0683C25.5585 47.8496 25.7772 47.8496 25.9959 48.0683C25.9959 48.0683 26.2147 48.287 26.2147 48.5058C26.2147 48.7245 26.2147 48.7245 25.9959 48.9432C25.9959 49.1619 25.9959 49.1619 25.7772 49.1619Z" fill="#1E1E1E"/>
<path d="M37.1503 49.1619C36.9316 49.1619 36.9316 49.1619 36.7129 48.9432C36.7129 48.9432 36.4941 48.7245 36.4941 48.5058C36.4941 48.287 36.4941 48.287 36.7129 48.0683C36.9316 47.8496 37.1503 47.8496 37.369 48.0683C37.369 48.0683 37.5877 48.287 37.5877 48.5058C37.5877 48.7245 37.5877 48.7245 37.369 48.9432C37.369 49.1619 37.369 49.1619 37.1503 49.1619Z" fill="#1E1E1E"/>
<path d="M48.5233 49.1619C48.3046 49.1619 48.3046 49.1619 48.0859 48.9432C48.0859 48.9432 47.8672 48.7245 47.8672 48.5058C47.8672 48.287 47.8672 48.287 48.0859 48.0683C48.3046 47.8496 48.5233 47.8496 48.742 48.0683C48.742 48.0683 48.9608 48.287 48.9608 48.5058C48.9608 48.7245 48.9608 48.7245 48.742 48.9432C48.742 49.1619 48.5233 49.1619 48.5233 49.1619Z" fill="#1E1E1E"/>
<path d="M48.5249 53.5346C46.9939 53.5346 46.119 52.8785 45.4629 52.4411C44.8068 52.0036 44.1506 51.5662 42.8383 51.5662C41.5261 51.5662 41.0886 52.0036 40.2138 52.4411C39.5576 53.0972 38.6828 53.5346 37.1518 53.5346C35.6208 53.5346 34.7459 52.8785 34.0898 52.4411C33.4337 52.0036 32.7775 51.5662 31.4652 51.5662C30.153 51.5662 29.7155 52.0036 28.8407 52.4411C28.1845 53.0972 27.3097 53.5346 25.7787 53.5346C24.2477 53.5346 23.3728 52.8785 22.7167 52.4411C22.0606 52.0036 21.4044 51.5662 20.0921 51.5662C19.436 51.5662 18.7799 51.7849 18.3424 52.0037C18.1237 52.2224 17.905 52.0037 17.6863 51.7849C17.4676 51.5662 17.6863 51.3475 17.905 51.1288C18.5612 50.6914 19.2173 50.4727 20.0921 50.4727C21.6231 50.4727 22.498 51.1288 23.1541 51.5662C23.8103 52.0037 24.4664 52.4411 25.7787 52.4411C27.091 52.4411 27.5284 52.0037 28.4033 51.5662C29.0594 50.9101 29.9342 50.4727 31.4652 50.4727C32.9962 50.4727 33.8711 51.1288 34.5272 51.5662C35.1834 52.0037 35.8395 52.4411 37.1518 52.4411C38.4641 52.4411 38.9015 52.0037 39.7764 51.5662C40.4325 50.9101 41.3073 50.4727 42.8383 50.4727C44.3693 50.4727 45.2442 51.1288 45.9003 51.5662C46.5565 52.0037 47.2126 52.4411 48.5249 52.4411C49.8372 52.4411 50.2746 52.0037 51.1495 51.5662C51.8056 50.9101 52.6804 50.4727 54.2114 50.4727C54.4302 50.4727 54.6489 50.6914 54.6489 50.9101C54.6489 51.1288 54.4302 51.3475 54.2114 51.3475C52.8992 51.3475 52.4617 51.7849 51.5869 52.2224C50.9307 52.8785 50.0559 53.5346 48.5249 53.5346Z" fill="#1E1E1E"/>
<path d="M14.4052 53.5346C12.8742 53.5346 11.9994 52.8785 11.3432 52.4411C10.6871 52.0036 10.031 51.5662 8.71868 51.5662C8.49996 51.5662 8.28125 51.3475 8.28125 51.1288C8.28125 50.6914 8.49996 50.4727 8.71868 50.4727C10.2497 50.4727 11.1245 51.1288 11.7807 51.5662C12.4368 52.0037 13.0929 52.4411 14.4052 52.4411C15.2801 52.4411 15.9362 52.2224 16.1549 52.0037C16.3736 51.7849 16.5924 52.0036 16.8111 52.2224C17.0298 52.4411 16.8111 52.6598 16.5924 52.8785C16.1549 53.3159 15.2801 53.5346 14.4052 53.5346Z" fill="#1E1E1E"/>
<path d="M57.4912 32.7586C49.1801 32.5399 39.7754 33.1961 35.6199 32.3212C34.9637 32.1025 34.3076 32.1025 33.8702 32.1025C32.7766 32.1025 31.683 33.4148 31.9018 34.7271C31.9018 35.1645 32.1205 35.3832 32.3392 35.3832C32.7766 35.8206 33.214 36.6955 33.214 38.0078C33.214 41.0698 31.2456 41.9446 29.4959 41.9446C28.4023 41.9446 25.1216 41.5072 25.1216 35.8206C25.1216 35.3832 25.1216 34.9458 25.1216 34.7271C25.3404 33.8522 25.3404 32.7586 23.8094 32.1025C23.5906 31.8838 23.3719 31.8838 23.1532 31.8838C22.4971 31.8838 22.0596 31.8838 21.4035 32.1025C17.4667 32.7586 10.0304 32.3212 5.65614 32.5399C4.78129 32.5399 4.78129 33.8522 5.65614 33.8522C9.59298 33.6335 17.4667 34.0709 21.6222 33.4148C22.0597 33.4148 23.1532 33.1961 23.3719 33.1961C24.0281 33.4148 24.0281 33.6335 23.8094 34.5084C23.8094 34.9458 23.5906 35.3832 23.5906 35.8206C23.5906 43.0382 28.8398 43.2569 29.2772 43.2569C31.683 43.2569 34.3076 41.5072 34.3076 37.7891C34.3076 36.0393 33.6515 34.9458 33.214 34.2896C32.5579 33.4148 33.6515 32.9774 33.6515 32.9774C34.0889 32.9774 34.5263 32.9774 35.1825 33.1961C39.338 34.0709 49.3988 33.4148 57.2725 33.6335C58.3661 34.0709 58.3661 32.7586 57.4912 32.7586Z" fill="#1E1E1E"/>
<path d="M31.2453 22.2628C30.8079 22.0441 30.3705 22.0441 30.1518 22.4815C27.7459 27.9494 26.6523 32.5423 26.6523 36.0417C26.6523 40.1973 28.8395 40.8534 29.7143 40.8534C31.2453 40.8534 32.1202 39.7599 32.1202 38.2289C32.1202 37.1353 31.6828 36.6979 31.464 36.2605C31.0266 35.823 30.8079 35.1669 30.8079 33.4172C30.8079 30.7926 31.464 27.5119 32.5576 24.0125C32.5576 23.3564 31.9015 22.9189 31.2453 22.2628ZM29.7143 39.5412C28.1833 39.5412 27.9646 37.7915 27.9646 36.2605C27.9646 33.4172 28.8395 29.6991 30.5892 25.3248C29.7143 28.3868 29.2769 31.0113 29.2769 33.4172C29.2769 35.6043 29.7143 36.2605 30.1518 36.9166C30.3705 37.354 30.5892 37.5727 30.5892 38.2289C30.5892 39.5412 29.933 39.5412 29.7143 39.5412Z" fill="#1E1E1E"/>
<path d="M33.6522 20.9493C33.871 21.3868 34.5271 21.3868 34.7458 20.9493C38.2452 15.4815 42.6195 11.1072 42.6195 11.1072C43.2756 10.4511 42.4008 9.57624 41.7446 10.2324C41.7446 10.2324 37.3704 14.1692 33.2148 19.4183C32.9961 19.6371 32.9961 19.8558 33.2148 20.0745L33.6522 20.9493Z" fill="#1E1E1E"/>
<path d="M40.8701 31.2293C41.5262 31.8855 42.4011 31.0106 41.7449 30.3545L24.2479 12.8574C23.5917 12.2012 22.7169 13.0761 23.373 13.7322L40.8701 31.2293Z" fill="#1E1E1E"/>
</svg>
