<svg width="63" height="63" viewBox="0 0 63 63" fill="none" xmlns="http://www.w3.org/2000/svg">
<rect width="63" height="63" rx="10" fill="#DAE1FE"/>
<path d="M44.3923 30.8806C44.3923 30.2416 43.9664 28.9637 43.9664 28.9637C42.9014 25.7688 40.1326 23.639 36.7248 23.639H24.3715C24.1585 23.213 23.7325 23 23.3065 23H23.0935C18.6208 23 15 26.6208 15 31.0935V38.3351C15 42.8079 18.6208 46.4287 23.0935 46.4287H36.5118C40.9845 46.4287 44.6053 42.8079 44.6053 38.3351V31.0935C44.3923 31.0935 44.3923 31.0935 44.3923 30.8806ZM40.5586 26.6208C41.1975 27.0468 41.8365 27.8987 42.2625 28.5377H27.7793L25.6494 25.3429H36.9378C38.2157 25.5559 39.4936 25.9818 40.5586 26.6208ZM42.9014 38.5481C42.9014 42.1689 39.9196 44.9378 36.5118 44.9378H23.0935C19.4727 44.9378 16.7039 41.9559 16.7039 38.5481V31.3065C16.7039 27.6857 19.6857 24.9169 23.0935 24.9169H23.3065L26.9273 30.2416H42.9014C42.9014 30.4546 42.9014 30.6676 42.9014 30.8806C42.9014 31.0935 42.9014 31.0935 42.9014 31.0935V38.5481Z" fill="#1E1E1E"/>
<path d="M25.2234 39.1881C26.1645 39.1881 26.9273 38.4252 26.9273 37.4842C26.9273 36.5431 26.1645 35.7803 25.2234 35.7803C24.2824 35.7803 23.5195 36.5431 23.5195 37.4842C23.5195 38.4252 24.2824 39.1881 25.2234 39.1881Z" fill="#1E1E1E"/>
<path d="M29.6961 39.1881C30.6371 39.1881 31.4 38.4252 31.4 37.4842C31.4 36.5431 30.6371 35.7803 29.6961 35.7803C28.7551 35.7803 27.9922 36.5431 27.9922 37.4842C27.9922 38.4252 28.7551 39.1881 29.6961 39.1881Z" fill="#1E1E1E"/>
<path d="M34.1687 39.1881C35.1098 39.1881 35.8727 38.4252 35.8727 37.4842C35.8727 36.5431 35.1098 35.7803 34.1687 35.7803C33.2277 35.7803 32.4648 36.5431 32.4648 37.4842C32.4648 38.4252 33.2277 39.1881 34.1687 39.1881Z" fill="#1E1E1E"/>
</svg>
