<svg width="63" height="63" viewBox="0 0 63 63" fill="none" xmlns="http://www.w3.org/2000/svg">
<rect width="63" height="63" rx="10" fill="#DAE1FE"/>
<path d="M7.04867 36.7963C6.82086 36.7963 6.82086 36.7963 6.59305 36.5684C6.59305 36.5684 6.36523 36.3406 6.36523 36.1128C6.36523 35.885 6.36523 35.885 6.59305 35.6572C6.82086 35.4294 7.04867 35.4294 7.27649 35.6572C7.27649 35.6572 7.5043 35.885 7.5043 36.1128C7.5043 36.3406 7.5043 36.3406 7.27649 36.5684C7.27649 36.5684 7.27649 36.7963 7.04867 36.7963Z" fill="#1E1E1E"/>
<path d="M21.6307 42.2631C21.4029 42.2631 21.4029 42.2631 21.1751 42.0352C21.1751 42.0352 20.9473 41.8074 20.9473 41.5796C20.9473 41.3518 20.9473 41.3518 21.1751 41.124C21.4029 40.8962 21.6307 40.8962 21.8585 41.124C21.8585 41.124 22.0863 41.3518 22.0863 41.5796C22.0863 41.8074 22.0863 41.8074 21.8585 42.0352C21.8585 42.0352 21.8585 42.2631 21.6307 42.2631Z" fill="#1E1E1E"/>
<path d="M42.5877 36.7963C42.3599 36.7963 42.3599 36.7963 42.1321 36.5684C42.1321 36.5684 41.9043 36.3406 41.9043 36.1128C41.9043 35.885 41.9043 35.885 42.1321 35.6572C42.3599 35.4294 42.5877 35.4294 42.8155 35.6572C42.8155 35.6572 43.0434 35.885 43.0434 36.1128C43.0434 36.3406 43.0434 36.3406 42.8155 36.5684L42.5877 36.7963Z" fill="#1E1E1E"/>
<path d="M36.6659 41.5795C36.4381 41.5795 36.438 41.5795 36.2102 41.3516C36.2102 41.3516 35.9824 41.1238 35.9824 40.896C35.9824 40.6682 35.9824 40.6682 36.2102 40.4404C36.438 40.2126 36.6659 40.2126 36.8937 40.4404C36.8937 40.4404 37.1215 40.6682 37.1215 40.896C37.1215 41.1238 37.1215 41.1238 36.8937 41.3516L36.6659 41.5795Z" fill="#1E1E1E"/>
<path d="M19.1248 37.2543C18.897 37.2543 18.897 37.2543 18.6692 37.0264C18.6692 37.0264 18.4414 36.7986 18.4414 36.5708C18.4414 36.343 18.4414 36.343 18.6692 36.1152C18.897 35.8874 19.1248 35.8874 19.3527 36.1152C19.3527 36.1152 19.5805 36.343 19.5805 36.5708C19.5805 36.7986 19.5805 36.7986 19.3527 37.0264L19.1248 37.2543Z" fill="#1E1E1E"/>
<path d="M12.9725 40.2152C12.7447 40.2152 12.7447 40.2152 12.5169 39.9874C12.5169 39.9874 12.2891 39.7596 12.2891 39.5318C12.2891 39.3039 12.2891 39.3039 12.5169 39.0761C12.7447 38.8483 12.9725 38.8483 13.2003 39.0761C13.2003 39.0761 13.4281 39.3039 13.4281 39.5318C13.4281 39.7596 13.4281 39.7596 13.2003 39.9874C13.2003 40.2152 13.2003 40.2152 12.9725 40.2152Z" fill="#1E1E1E"/>
<path d="M48.5116 40.2152C48.2837 40.2152 48.2838 40.2152 48.0559 39.9874C48.0559 39.9874 47.8281 39.7596 47.8281 39.5318C47.8281 39.3039 47.8281 39.3039 48.0559 39.0761C48.2838 38.8483 48.5116 38.8483 48.7394 39.0761C48.7394 39.0761 48.9672 39.3039 48.9672 39.5318C48.9672 39.7596 48.9672 39.7596 48.7394 39.9874C48.7394 40.2152 48.5116 40.2152 48.5116 40.2152Z" fill="#1E1E1E"/>
<path d="M12.9725 47.0492C12.7447 47.0492 12.7447 47.0492 12.5169 46.8214C12.5169 46.8214 12.2891 46.5936 12.2891 46.3657C12.2891 46.1379 12.2891 46.1379 12.5169 45.9101C12.7447 45.6823 12.9725 45.6823 13.2003 45.9101C13.2003 45.9101 13.4281 46.1379 13.4281 46.3657C13.4281 46.5936 13.4281 46.5936 13.2003 46.8214C13.2003 47.0492 13.2003 47.0492 12.9725 47.0492Z" fill="#1E1E1E"/>
<path d="M24.8202 47.0492C24.5923 47.0492 24.5923 47.0492 24.3645 46.8214C24.3645 46.8214 24.1367 46.5936 24.1367 46.3657C24.1367 46.1379 24.1367 46.1379 24.3645 45.9101C24.5923 45.6823 24.8202 45.6823 25.048 45.9101C25.048 45.9101 25.2758 46.1379 25.2758 46.3657C25.2758 46.5936 25.2758 46.5936 25.048 46.8214C25.048 47.0492 25.048 47.0492 24.8202 47.0492Z" fill="#1E1E1E"/>
<path d="M36.6659 47.0492C36.4381 47.0492 36.438 47.0492 36.2102 46.8214C36.2102 46.8214 35.9824 46.5936 35.9824 46.3657C35.9824 46.1379 35.9824 46.1379 36.2102 45.9101C36.438 45.6823 36.6659 45.6823 36.8937 45.9101C36.8937 45.9101 37.1215 46.1379 37.1215 46.3657C37.1215 46.5936 37.1215 46.5936 36.8937 46.8214C36.8937 47.0492 36.8937 47.0492 36.6659 47.0492Z" fill="#1E1E1E"/>
<path d="M48.5116 47.0492C48.2837 47.0492 48.2838 47.0492 48.0559 46.8214C48.0559 46.8214 47.8281 46.5936 47.8281 46.3657C47.8281 46.1379 47.8281 46.1379 48.0559 45.9101C48.2838 45.6823 48.5116 45.6823 48.7394 45.9101C48.7394 45.9101 48.9672 46.1379 48.9672 46.3657C48.9672 46.5936 48.9672 46.5936 48.7394 46.8214C48.7394 47.0492 48.5116 47.0492 48.5116 47.0492Z" fill="#1E1E1E"/>
<path d="M48.511 51.6054C46.9163 51.6054 46.005 50.922 45.3216 50.4663C44.6381 50.0107 43.9547 49.5551 42.5878 49.5551C41.2209 49.5551 40.7653 50.0107 39.8541 50.4663C39.1706 51.1498 38.2594 51.6054 36.6647 51.6054C35.07 51.6054 34.1587 50.922 33.4753 50.4663C32.7918 50.0107 32.1084 49.5551 30.7415 49.5551C29.3746 49.5551 28.919 50.0107 28.0078 50.4663C27.3243 51.1498 26.4131 51.6054 24.8184 51.6054C23.2237 51.6054 22.3124 50.922 21.629 50.4663C20.9456 50.0107 20.2621 49.5551 18.8952 49.5551C18.2118 49.5551 17.5284 49.7829 17.0727 50.0107C16.8449 50.2385 16.6171 50.0107 16.3893 49.7829C16.1615 49.5551 16.3893 49.3273 16.6171 49.0995C17.3005 48.6438 17.984 48.416 18.8952 48.416C20.4899 48.416 21.4012 49.0995 22.0846 49.5551C22.7681 50.0107 23.4515 50.4663 24.8184 50.4663C26.1853 50.4663 26.6409 50.0107 27.5521 49.5551C28.2356 48.8716 29.1468 48.416 30.7415 48.416C32.3362 48.416 33.2475 49.0995 33.9309 49.5551C34.6143 50.0107 35.2978 50.4663 36.6647 50.4663C38.0315 50.4663 38.4872 50.0107 39.3984 49.5551C40.0819 48.8716 40.9931 48.416 42.5878 48.416C44.1825 48.416 45.0938 49.0995 45.7772 49.5551C46.4606 50.0107 47.1441 50.4663 48.511 50.4663C49.8778 50.4663 50.3335 50.0107 51.2447 49.5551C51.9282 48.8716 52.8394 48.416 54.4341 48.416C54.6619 48.416 54.8897 48.6438 54.8897 48.8716C54.8897 49.0995 54.6619 49.3273 54.4341 49.3273C53.0672 49.3273 52.6116 49.7829 51.7003 50.2385C51.0169 50.922 50.1056 51.6054 48.511 51.6054Z" fill="#1E1E1E"/>
<path d="M12.9725 51.6054C11.3778 51.6054 10.4666 50.922 9.78314 50.4663C9.0997 50.0107 8.41626 49.5551 7.04938 49.5551C6.82156 49.5551 6.59375 49.3273 6.59375 49.0995C6.59375 48.6438 6.82156 48.416 7.04938 48.416C8.64407 48.416 9.55532 49.0995 10.2388 49.5551C10.9222 50.0107 11.6056 50.4663 12.9725 50.4663C13.8838 50.4663 14.5672 50.2385 14.795 50.0107C15.0228 49.7829 15.2507 50.0107 15.4785 50.2385C15.7063 50.4663 15.4785 50.6941 15.2507 50.922C14.795 51.3776 13.8838 51.6054 12.9725 51.6054Z" fill="#1E1E1E"/>
<path d="M55.8024 32.4686H40.3111C37.1217 32.4686 35.527 31.7852 34.1601 31.7852C32.7932 31.7852 31.4263 33.3798 32.5654 35.2024C33.021 35.658 33.4767 36.5692 33.4767 37.9361C33.4767 40.8977 31.4263 42.0368 29.8316 42.0368C28.6926 42.0368 25.5032 41.5811 25.5032 35.8858C25.5032 35.4302 25.5032 35.2024 25.5032 34.7467C25.731 33.8355 25.731 32.6964 24.3641 32.013C23.6807 31.7852 22.9973 31.7852 21.8582 32.013C20.7191 32.2408 19.5801 32.4686 17.5297 32.4686H5.68344C4.77219 32.4686 4.77219 33.8355 5.68344 33.8355H17.3019C19.3522 33.8355 20.9469 33.6077 21.8582 33.3798C22.3138 33.3798 23.2251 33.152 23.6807 33.152C24.3641 33.3798 24.3641 33.6077 24.1363 34.5189C24.1363 34.9745 24.1363 35.4302 24.1363 35.8858C24.1363 43.1758 29.376 43.1758 29.8316 43.1758C32.3376 43.1758 34.8435 41.5811 34.8435 37.7083C34.8435 35.8858 34.1601 34.7467 33.7045 34.2911C33.021 33.3798 34.1601 32.9242 34.1601 33.152C34.6157 33.152 35.0714 33.152 35.7548 33.3798C36.666 33.6077 38.2607 33.8355 40.3111 33.8355H55.8024C56.4858 33.8355 56.4858 32.4686 55.8024 32.4686Z" fill="#1E1E1E"/>
<path d="M29.832 40.671C31.1988 40.671 32.1101 39.7597 32.1101 37.9372C32.1101 37.026 31.8823 36.3425 31.4267 35.8869C30.971 35.4313 30.7432 34.7479 30.7432 33.1532C30.7432 24.0406 37.3498 12.1943 37.3498 11.9665C37.8054 11.2831 36.6664 10.5997 36.2107 11.2831C35.7551 11.9665 26.6426 26.091 26.6426 35.8869C26.6426 40.2154 28.9207 40.671 29.832 40.671ZM30.5154 25.1797C29.832 27.9135 29.3763 30.6472 29.3763 33.1532C29.3763 36.5704 30.7432 36.3425 30.7432 37.9372C30.7432 39.3041 30.0598 39.3041 29.832 39.3041C28.4651 39.3041 28.0095 37.4816 28.0095 35.8869C28.0095 32.6975 29.1485 28.8247 30.5154 25.1797Z" fill="#1E1E1E"/>
<path d="M38.7165 27.2299C39.4714 27.2299 40.0834 26.6179 40.0834 25.863C40.0834 25.1081 39.4714 24.4961 38.7165 24.4961C37.9616 24.4961 37.3496 25.1081 37.3496 25.863C37.3496 26.6179 37.9616 27.2299 38.7165 27.2299Z" fill="#1E1E1E"/>
<path d="M20.0348 27.9144C20.7898 27.9144 21.4017 27.3024 21.4017 26.5475C21.4017 25.7926 20.7898 25.1807 20.0348 25.1807C19.2799 25.1807 18.668 25.7926 18.668 26.5475C18.668 27.3024 19.2799 27.9144 20.0348 27.9144Z" fill="#1E1E1E"/>
<path d="M24.3644 30.4202C24.8676 30.4202 25.2756 30.0122 25.2756 29.5089C25.2756 29.0056 24.8676 28.5977 24.3644 28.5977C23.8611 28.5977 23.4531 29.0056 23.4531 29.5089C23.4531 30.0122 23.8611 30.4202 24.3644 30.4202Z" fill="#1E1E1E"/>
<path d="M34.3878 30.4202C34.8911 30.4202 35.2991 30.0122 35.2991 29.5089C35.2991 29.0056 34.8911 28.5977 34.3878 28.5977C33.8845 28.5977 33.4766 29.0056 33.4766 29.5089C33.4766 30.0122 33.8845 30.4202 34.3878 30.4202Z" fill="#1E1E1E"/>
<path d="M41.4503 31.5598C41.9536 31.5598 42.3616 31.1518 42.3616 30.6486C42.3616 30.1453 41.9536 29.7373 41.4503 29.7373C40.947 29.7373 40.5391 30.1453 40.5391 30.6486C40.5391 31.1518 40.947 31.5598 41.4503 31.5598Z" fill="#1E1E1E"/>
<path d="M46.462 29.509C46.9653 29.509 47.3733 29.101 47.3733 28.5978C47.3733 28.0945 46.9653 27.6865 46.462 27.6865C45.9588 27.6865 45.5508 28.0945 45.5508 28.5978C45.5508 29.101 45.9588 29.509 46.462 29.509Z" fill="#1E1E1E"/>
<path d="M15.7062 31.1038C16.2094 31.1038 16.6174 30.6958 16.6174 30.1925C16.6174 29.6892 16.2094 29.2812 15.7062 29.2812C15.2029 29.2812 14.7949 29.6892 14.7949 30.1925C14.7949 30.6958 15.2029 31.1038 15.7062 31.1038Z" fill="#1E1E1E"/>
</svg>
